<svg width="58" height="32" viewBox="0 0 58 32" fill="none" xmlns="http://www.w3.org/2000/svg">
<path fill-rule="evenodd" clip-rule="evenodd" d="M1.20125 1.32625C1.40445 1.12254 1.64585 0.960913 1.91161 0.850635C2.17737 0.740357 2.46227 0.683594 2.75 0.683594C3.03774 0.683594 3.32264 0.740357 3.5884 0.850635C3.85416 0.960913 4.09555 1.12254 4.29875 1.32625L29 26.0319L53.7013 1.32625C53.9046 1.12287 54.1461 0.961534 54.4118 0.851463C54.6776 0.741392 54.9624 0.684739 55.25 0.684739C55.5376 0.684739 55.8224 0.741392 56.0882 0.851463C56.3539 0.961534 56.5954 1.12287 56.7988 1.32625C57.0021 1.52964 57.1635 1.77109 57.2735 2.03682C57.3836 2.30256 57.4403 2.58737 57.4403 2.875C57.4403 3.16263 57.3836 3.44745 57.2735 3.71318C57.1635 3.97892 57.0021 4.22037 56.7988 4.42375L30.5488 30.6738C30.3456 30.8775 30.1042 31.0391 29.8384 31.1494C29.5726 31.2596 29.2877 31.3164 29 31.3164C28.7123 31.3164 28.4274 31.2596 28.1616 31.1494C27.8958 31.0391 27.6545 30.8775 27.4513 30.6738L1.20125 4.42375C0.99754 4.22055 0.835915 3.97916 0.725637 3.7134C0.615359 3.44764 0.558594 3.16274 0.558594 2.875C0.558594 2.58727 0.615359 2.30237 0.725637 2.03661C0.835915 1.77085 0.99754 1.52945 1.20125 1.32625Z" fill="black"/>
</svg>
