<svg width="58" height="32" viewBox="0 0 58 32" fill="none" xmlns="http://www.w3.org/2000/svg">
<path fill-rule="evenodd" clip-rule="evenodd" d="M56.7987 30.6737C56.5955 30.8775 56.3542 31.0391 56.0884 31.1494C55.8226 31.2596 55.5377 31.3164 55.25 31.3164C54.9623 31.3164 54.6774 31.2596 54.4116 31.1494C54.1458 31.0391 53.9044 30.8775 53.7012 30.6737L29 5.96812L4.29875 30.6738C4.09536 30.8771 3.85391 31.0385 3.58818 31.1485C3.32244 31.2586 3.03762 31.3153 2.75 31.3153C2.46237 31.3153 2.17756 31.2586 1.91182 31.1485C1.64608 31.0385 1.40463 30.8771 1.20125 30.6738C0.99786 30.4704 0.836529 30.2289 0.726456 29.9632C0.616386 29.6974 0.559734 29.4126 0.559734 29.125C0.559734 28.8374 0.616386 28.5526 0.726455 28.2868C0.836528 28.0211 0.99786 27.7796 1.20125 27.5763L27.4512 1.32625C27.6544 1.12253 27.8958 0.960911 28.1616 0.850632C28.4274 0.740355 28.7123 0.683591 29 0.683591C29.2877 0.68359 29.5726 0.740355 29.8384 0.850632C30.1042 0.960911 30.3455 1.12253 30.5487 1.32625L56.7987 27.5762C57.0025 27.7794 57.1641 28.0208 57.2744 28.2866C57.3846 28.5524 57.4414 28.8373 57.4414 29.125C57.4414 29.4127 57.3846 29.6976 57.2744 29.9634C57.1641 30.2292 57.0025 30.4705 56.7987 30.6737Z" fill="black"/>
</svg>
