<svg width="17" height="15" viewBox="0 0 17 15" fill="none" xmlns="http://www.w3.org/2000/svg">
<path fill-rule="evenodd" clip-rule="evenodd" d="M17 7.0002C17 7.26542 16.8946 7.51977 16.7071 7.70731C16.5196 7.89484 16.2652 8.0002 16 8.0002L4.414 8.0002L8.708 12.2922C8.89577 12.48 9.00126 12.7347 9.00126 13.0002C9.00126 13.2658 8.89577 13.5204 8.708 13.7082C8.52023 13.896 8.26555 14.0015 8 14.0015C7.73445 14.0015 7.47977 13.896 7.292 13.7082L1.292 7.7082C1.19887 7.61531 1.12499 7.50496 1.07457 7.38347C1.02416 7.26198 0.998212 7.13174 0.998212 7.0002C0.998212 6.86867 1.02416 6.73843 1.07457 6.61694C1.12499 6.49545 1.19887 6.38509 1.292 6.2922L7.292 0.292203C7.47977 0.104429 7.73445 -0.00105968 8 -0.0010597C8.26555 -0.00105972 8.52023 0.104429 8.708 0.292203C8.89577 0.479975 9.00126 0.734651 9.00126 1.0002C9.00126 1.26575 8.89577 1.52043 8.708 1.7082L4.414 6.0002L16 6.0002C16.2652 6.0002 16.5196 6.10556 16.7071 6.29309C16.8946 6.48063 17 6.73499 17 7.0002Z" fill="white"/>
</svg>
