<svg width="425" height="30" viewBox="0 0 425 30" fill="none" xmlns="http://www.w3.org/2000/svg">
<path d="M0 29.0416H4.79201V22.5406H8.43269C13.318 22.5406 17.2388 19.9402 17.2388 14.9251C17.2388 10.4363 14.096 7.37149 8.89944 7.37149H0V29.0416ZM4.79201 18.2994V11.6746H8.49492C10.8909 11.6746 12.3845 12.82 12.3845 14.956C12.3845 16.8754 10.9843 18.2994 8.58828 18.2994H4.79201Z" fill="white"/>
<path d="M18.9181 29.0416H23.8035L25.795 24.1813H35.0056L36.9971 29.0416H42.0069L32.6718 7.2167H28.2532L18.9181 29.0416ZM27.5064 19.9711L30.4003 12.9438L33.2942 19.9711H27.5064Z" fill="white"/>
<path d="M53.1169 7C48.9783 7 46.3645 8.45499 44.3419 10.5601L46.8624 13.5939C48.3248 12.108 50.0674 11.2102 52.7435 11.2102C54.8283 11.2102 56.2597 12.108 56.2597 13.6249C56.2597 15.2656 54.8905 16.1324 52.37 16.1324H49.9118V20.095H52.4323C54.9216 20.095 56.7575 20.8379 56.7575 22.6335C56.7575 24.3052 55.1083 25.2339 53.0857 25.2339C50.2541 25.2339 47.9203 24.2123 46.1467 22.4787L43.5951 25.7911C45.9288 28.1439 48.6983 29.4131 53.2724 29.4131C58.3445 29.4131 61.5495 26.6579 61.5495 22.9121C61.5495 20.1569 59.807 18.5471 57.4732 17.8041C59.4025 16.9683 60.9894 15.5133 60.9894 12.82C60.9894 9.44563 57.7844 7 53.1169 7Z" fill="white"/>
<path d="M70.5205 11.6746H80.9446V7.37149H65.7285V29.0416H70.5205V11.6746Z" fill="white"/>
<path d="M94.9054 29.4131C101.627 29.4131 106.512 24.3671 106.512 18.2066C106.512 11.9841 101.689 7 94.9677 7C88.2464 7 83.3611 12.046 83.3611 18.2066C83.3611 24.429 88.1842 29.4131 94.9054 29.4131ZM94.9677 25.0172C91.1092 25.0172 88.3709 21.9214 88.3709 18.2066C88.3709 14.4298 91.0469 11.3959 94.9054 11.3959C98.7639 11.3959 101.502 14.4917 101.502 18.2066C101.502 21.9834 98.8262 25.0172 94.9677 25.0172Z" fill="white"/>
<path d="M110.763 29.0416H121.125C126.041 29.0416 129.277 27.0604 129.277 23.0978C129.277 20.1259 127.722 18.6709 125.201 17.7112C126.757 16.8444 128.064 15.4823 128.064 13.0367C128.064 11.4888 127.566 10.2815 126.57 9.29084C125.326 8.05255 123.365 7.37149 120.876 7.37149H110.763V29.0416ZM115.43 16.1324V11.5507H120.16C122.183 11.5507 123.303 12.3556 123.303 13.7797C123.303 15.4514 121.965 16.1324 119.849 16.1324H115.43ZM115.43 24.8624V20.095H120.969C123.428 20.095 124.517 20.9927 124.517 22.4477C124.517 24.1194 123.241 24.8624 121.125 24.8624H115.43Z" fill="white"/>
<path d="M143.799 29.4131C150.52 29.4131 155.406 24.3671 155.406 18.2066C155.406 11.9841 150.583 7 143.861 7C137.14 7 132.255 12.046 132.255 18.2066C132.255 24.429 137.078 29.4131 143.799 29.4131ZM143.861 25.0172C140.003 25.0172 137.265 21.9214 137.265 18.2066C137.265 14.4298 139.941 11.3959 143.799 11.3959C147.658 11.3959 150.396 14.4917 150.396 18.2066C150.396 21.9834 147.72 25.0172 143.861 25.0172Z" fill="white"/>
<path d="M159.657 29.0416H164.449V22.5406H168.089C172.975 22.5406 176.895 19.9402 176.895 14.9251C176.895 10.4363 173.753 7.37149 168.556 7.37149H159.657V29.0416ZM164.449 18.2994V11.6746H168.152C170.548 11.6746 172.041 12.82 172.041 14.956C172.041 16.8754 170.641 18.2994 168.245 18.2994H164.449Z" fill="white"/>
<path d="M180.442 29.0416H189.559C194.662 29.0416 197.836 26.2245 197.836 21.7667C197.836 17.5255 194.911 14.7393 189.87 14.7393H185.234V7.37149H180.442V29.0416ZM189.466 18.8257C191.862 18.8257 193.075 19.8783 193.075 21.7047C193.075 23.717 191.862 24.7386 189.497 24.7386H185.234V18.8257H189.466ZM200.263 29.0416H205.055V7.37149H200.263V29.0416Z" fill="white"/>
<path d="M219.611 29.0416H224.403V20.3426H233.241V29.0416H238.033V7.37149H233.241V15.9467H224.403V7.37149H219.611V29.0416Z" fill="white"/>
<path d="M241.386 29.0416H246.271L248.263 24.1813H257.473L259.465 29.0416H264.475L255.14 7.2167H250.721L241.386 29.0416ZM249.974 19.9711L252.868 12.9438L255.762 19.9711H249.974Z" fill="white"/>
<path d="M320.064 0H325.263V28.7233H320.064V26.5268C319.181 27.4049 318.144 28.1131 317.005 28.6158C315.96 29.044 314.841 29.2593 313.712 29.2492C312.4 29.2546 311.102 28.98 309.905 28.4439C308.708 27.9078 307.639 27.1225 306.77 26.1404C304.809 24.0494 303.756 21.2665 303.843 18.4012C303.728 15.5092 304.742 12.6859 306.673 10.5294C307.533 9.55436 308.594 8.7763 309.782 8.24817C310.97 7.72004 312.258 7.45427 313.559 7.46895C314.762 7.45904 315.955 7.69707 317.063 8.16819C318.198 8.67197 319.226 9.38979 320.089 10.2824L320.064 0ZM314.594 12.2639C313.846 12.2507 313.104 12.3972 312.418 12.6937C311.731 12.9901 311.116 13.4297 310.613 13.983C309.516 15.1651 308.925 16.7292 308.966 18.3412C308.912 19.9729 309.503 21.5603 310.613 22.7584C311.116 23.3164 311.734 23.76 312.423 24.0594C313.113 24.3588 313.859 24.5069 314.61 24.4939C315.371 24.5159 316.128 24.3745 316.83 24.0793C317.531 23.7841 318.162 23.342 318.678 22.7826C319.232 22.1827 319.663 21.4795 319.946 20.7131C320.228 19.9467 320.357 19.1321 320.325 18.316C320.355 17.5138 320.225 16.7137 319.942 15.9623C319.659 15.211 319.23 14.5236 318.678 13.9404C318.148 13.391 317.507 12.9602 316.798 12.6764C316.089 12.3927 315.328 12.2623 314.565 12.2939" fill="#82C5BC"/>
<path d="M337.881 7.99497H343.087V10.1256C344.039 9.27355 345.117 8.57437 346.283 8.05308C347.215 7.66844 348.212 7.47099 349.22 7.47199C350.192 7.4535 351.158 7.63449 352.057 8.00378C352.957 8.37308 353.771 8.92284 354.45 9.61912C355.095 10.356 355.588 11.214 355.898 12.1432C356.209 13.0723 356.332 14.054 356.259 15.031V28.7234H351.124V19.6759C351.191 18.0221 351.078 16.366 350.787 14.7366C350.614 14.0085 350.205 13.3579 349.625 12.8858C349.051 12.4508 348.348 12.2212 347.628 12.234C346.622 12.213 345.649 12.5915 344.922 13.2868C344.118 14.0803 343.572 15.0969 343.353 16.2048C343.156 17.5967 343.082 19.0032 343.131 20.408V28.7244H337.881V7.99497Z" fill="#82C5BC"/>
<path d="M374.811 0H380.009V28.7233H374.811V26.5268C373.93 27.4044 372.896 28.1126 371.759 28.6158C370.714 29.0424 369.595 29.2577 368.466 29.2492C367.154 29.2546 365.857 28.98 364.659 28.4439C363.462 27.9078 362.393 27.1225 361.524 26.1404C359.563 24.0492 358.511 21.2664 358.598 18.4012C358.487 15.5099 359.502 12.6882 361.428 10.5294C362.289 9.55357 363.351 8.7751 364.54 8.2471C365.73 7.7191 367.019 7.45401 368.321 7.46992C369.522 7.46066 370.712 7.69868 371.817 8.16916C372.953 8.67092 373.981 9.389 374.843 10.2834L374.811 0ZM369.34 12.2639C368.589 12.2483 367.843 12.3936 367.152 12.6901C366.461 12.9866 365.841 13.4274 365.335 13.983C364.255 15.1784 363.685 16.7488 363.748 18.3586C363.692 19.9906 364.284 21.5784 365.394 22.7758C365.898 23.3338 366.515 23.7775 367.205 24.0768C367.894 24.3762 368.64 24.5244 369.392 24.5114C370.151 24.5315 370.905 24.3893 371.604 24.0941C372.304 23.799 372.932 23.3578 373.447 22.8001C374.565 21.5879 375.158 19.9816 375.093 18.3334C375.123 17.5313 374.993 16.7312 374.71 15.98C374.428 15.2287 373.998 14.5413 373.447 13.9578C372.916 13.4084 372.276 12.9777 371.567 12.6939C370.858 12.4101 370.097 12.2797 369.334 12.3114" fill="#82C5BC"/>
<path d="M404.252 19.8647H387.554C387.737 21.2368 388.428 22.4903 389.491 23.3774C390.628 24.2758 392.049 24.7369 393.497 24.6771C394.426 24.6896 395.348 24.5156 396.208 24.1652C397.068 23.8149 397.85 23.2954 398.506 22.6374L402.881 24.6935C401.893 26.1565 400.544 27.3405 398.966 28.1316C397.264 28.9088 395.408 29.2886 393.537 29.2425C392.074 29.2988 390.616 29.0557 389.25 28.5281C387.884 28.0005 386.641 27.1995 385.596 26.1743C384.588 25.1652 383.796 23.9615 383.269 22.6364C382.741 21.3114 382.489 19.8928 382.528 18.4671C382.483 17.0168 382.73 15.5722 383.256 14.2198C383.782 12.8673 384.574 11.6346 385.587 10.5953C386.577 9.5691 387.77 8.76043 389.09 8.22084C390.41 7.68125 391.828 7.42257 393.254 7.46129C394.725 7.40732 396.192 7.65783 397.562 8.19712C398.932 8.73641 400.176 9.55286 401.216 10.5953C402.261 11.7057 403.072 13.0157 403.599 14.4469C404.126 15.878 404.359 17.4009 404.284 18.9243L404.252 19.8647ZM399.053 15.7525C398.713 14.6092 397.997 13.6146 397.019 12.9313C395.99 12.2077 394.757 11.8303 393.499 11.8534C392.127 11.8268 390.785 12.2548 389.682 13.0707C388.837 13.7959 388.182 14.7165 387.774 15.7525H399.053Z" fill="#82C5BC"/>
<path d="M403.938 7.99463H409.976L414.072 13.6457L418.14 7.99463H424.079L417.046 17.7502L425 28.7231H418.966L414.038 21.9214L409.128 28.7241H403.189L411.061 17.817L403.938 7.99463Z" fill="#82C5BC"/>
<path d="M287.688 0.707031H293.1L303.875 28.7233H298.332L296.144 22.9657H284.71L282.431 28.7233H276.888L287.688 0.707031ZM290.427 8.10625L286.669 17.7504H294.163L290.427 8.10625Z" fill="#82C5BC"/>
<path d="M328.93 0V4.80368H334.159L328.93 7.48541V28.7233H334.227V0H328.93Z" fill="#82C5BC"/>
</svg>
