<svg width="107" height="107" viewBox="0 0 107 107" fill="none" xmlns="http://www.w3.org/2000/svg">
<g clip-path="url(#clip0_15_1155)">
<path d="M107 13.375C107 9.82773 105.591 6.42575 103.083 3.91745C100.574 1.40915 97.1723 0 93.625 0L13.375 0C9.82773 0 6.42575 1.40915 3.91745 3.91745C1.40915 6.42575 0 9.82773 0 13.375L0 66.875C0 70.4223 1.40915 73.8242 3.91745 76.3326C6.42575 78.8409 9.82773 80.25 13.375 80.25H77.4814C79.2549 80.2504 80.9556 80.9552 82.2094 82.2094L101.289 101.289C101.756 101.757 102.352 102.077 103.001 102.206C103.649 102.336 104.322 102.27 104.934 102.018C105.545 101.765 106.068 101.336 106.436 100.786C106.803 100.237 107 99.5898 107 98.9282V13.375ZM48.1099 31.8726C48.6917 32.7019 49.1999 33.6114 49.6279 34.5543C52.4902 40.8941 52.2561 50.4505 43.3283 59.3382C42.7834 59.8693 42.0561 60.1721 41.2952 60.1845C40.5344 60.1969 39.7976 59.9181 39.2356 59.4051C38.9616 59.1569 38.7413 58.8552 38.5882 58.5187C38.4352 58.1821 38.3527 57.8178 38.3458 57.4482C38.3389 57.0785 38.4078 56.7114 38.5482 56.3694C38.6885 56.0273 38.8974 55.7177 39.162 55.4594C41.9641 52.6774 43.656 49.9021 44.5722 47.3007C42.7733 48.4041 40.6399 49.0394 38.3528 49.0394C31.9328 49.0394 26.75 44.0506 26.75 37.8981C26.75 31.7456 31.9395 26.75 38.3461 26.75C40.1584 26.75 41.8771 27.1512 43.4019 27.8601L43.4554 27.8869C44.5856 28.355 45.6422 29.104 46.5918 30.0536C47.1603 30.6087 47.6685 31.2172 48.1099 31.8726ZM73.5625 47.3007C71.7636 48.4041 69.6302 49.0394 67.3431 49.0394C60.9365 49.0394 55.7403 44.0506 55.7403 37.8981C55.7403 31.7456 60.9365 26.75 67.3364 26.75C69.1488 26.75 70.8674 27.1512 72.3922 27.8601L72.4457 27.8869C73.5826 28.355 74.6325 29.104 75.5821 30.0536C76.1506 30.6087 76.6588 31.2172 77.1002 31.8726C77.682 32.7019 78.1969 33.6114 78.6249 34.5543C81.4872 40.8941 81.2464 50.4505 72.3253 59.3382C71.7801 59.8713 71.0513 60.1752 70.2889 60.1877C69.5265 60.2001 68.7882 59.9201 68.2259 59.4051C67.9519 59.1569 67.7316 58.8552 67.5786 58.5187C67.4255 58.1821 67.343 57.8178 67.3361 57.4482C67.3293 57.0785 67.3981 56.7114 67.5385 56.3694C67.6788 56.0273 67.8877 55.7177 68.1523 55.4594C70.9611 52.6774 72.6463 49.9021 73.5692 47.3007H73.5625Z" fill="black"/>
</g>
<defs>
<clipPath id="clip0_15_1155">
<rect width="107" height="107" fill="white"/>
</clipPath>
</defs>
</svg>
