<svg width="17" height="15" viewBox="0 0 17 15" fill="none" xmlns="http://www.w3.org/2000/svg">
<path fill-rule="evenodd" clip-rule="evenodd" d="M0 7.99931C0 7.73409 0.105357 7.47974 0.292893 7.2922C0.48043 7.10467 0.734784 6.99931 1 6.99931H12.586L8.292 2.70731C8.10423 2.51954 7.99874 2.26486 7.99874 1.99931C7.99874 1.73376 8.10423 1.47908 8.292 1.29131C8.47977 1.10354 8.73445 0.998047 9 0.998047C9.26555 0.998047 9.52023 1.10354 9.708 1.29131L15.708 7.29131C15.8011 7.3842 15.875 7.49455 15.9254 7.61604C15.9758 7.73753 16.0018 7.86778 16.0018 7.99931C16.0018 8.13084 15.9758 8.26109 15.9254 8.38258C15.875 8.50407 15.8011 8.61442 15.708 8.70731L9.708 14.7073C9.52023 14.8951 9.26555 15.0006 9 15.0006C8.73445 15.0006 8.47977 14.8951 8.292 14.7073C8.10423 14.5195 7.99874 14.2649 7.99874 13.9993C7.99874 13.7338 8.10423 13.4791 8.292 13.2913L12.586 8.99931H1C0.734784 8.99931 0.48043 8.89395 0.292893 8.70642C0.105357 8.51888 0 8.26453 0 7.99931Z" fill="black"/>
</svg>
