<svg width="207" height="39" viewBox="0 0 207 39" fill="none" xmlns="http://www.w3.org/2000/svg">
<path d="M121.987 38.1347H84.2819V0.429688H121.987V38.1347ZM80.7084 38.1347V0.429688H64.8109V38.1347H80.7084ZM168.397 0.429688V17.7933H206.102V0.429688H168.397ZM168.397 20.817H206.102V38.1806H168.397V20.817ZM167.114 0.429688H123.361L145.215 38.1347L167.114 0.429688ZM0.212891 38.1347H43.9654L22.0662 0.429688L0.212891 38.1347ZM61.329 0.429688V38.1347H45.2024V0.429688H61.329ZM55.648 6.79786C55.648 5.3318 54.4569 4.14063 52.9908 4.14063C51.5247 4.14063 50.3336 5.3318 50.3336 6.79786C50.3336 8.26391 51.5247 9.45508 52.9908 9.45508C54.4569 9.45508 55.648 8.26391 55.648 6.79786Z" fill="url(#paint0_linear_13_108)"/>
<defs>
<linearGradient id="paint0_linear_13_108" x1="0.212891" y1="19.2874" x2="206.113" y2="19.2874" gradientUnits="userSpaceOnUse">
<stop offset="0.0470085" stop-color="#F6B89C"/>
<stop offset="0.0489124" stop-color="#F6B79D"/>
<stop offset="0.0871442" stop-color="#ECACAD"/>
<stop offset="0.1262" stop-color="#E5A2B7"/>
<stop offset="0.1659" stop-color="#E09CBD"/>
<stop offset="0.2066" stop-color="#DD97C0"/>
<stop offset="0.25" stop-color="#DC96C1"/>
<stop offset="0.5" stop-color="#8A63A7"/>
<stop offset="0.75" stop-color="#7BA8DA"/>
<stop offset="1" stop-color="#82C8B7"/>
</linearGradient>
</defs>
</svg>
