<svg width="269" height="40" viewBox="0 0 269 40" fill="none" xmlns="http://www.w3.org/2000/svg">
<path d="M171.431 4.3024C174.108 7.14707 175.471 11.4499 175.471 17.1871V39.2751H162.586V19.4102C162.586 16.709 162.108 14.701 161.128 13.434C160.148 12.1432 158.785 11.5217 157.04 11.5217C155.104 11.5217 153.55 12.2388 152.355 13.6492C151.184 15.0835 150.586 17.2349 150.586 20.1274V39.299H137.701V19.4102C137.701 14.1273 135.837 11.4977 132.155 11.4977C130.171 11.4977 128.594 12.2149 127.422 13.6253C126.251 15.0596 125.653 17.211 125.653 20.1035V39.2751H112.769V0.668867H125.032V4.73268C126.394 3.15497 127.996 1.98363 129.884 1.19477C131.749 0.405914 133.805 0.0234375 136.028 0.0234375C138.61 0.0234375 140.905 0.525439 142.936 1.52944C144.968 2.53344 146.618 4.03944 147.885 6.09526C149.319 4.15897 151.16 2.65297 153.383 1.60115C155.606 0.549343 158.02 0.0234375 160.626 0.0234375C165.144 0.0234375 168.754 1.45773 171.431 4.3024Z" fill="#020102"/>
<path d="M182.094 2.12793H184.126V10.9966H182.094V2.12793Z" fill="#020102"/>
<path d="M194.309 2.12793V10.9966H192.636L188.238 5.61803V10.9966H186.229V2.12793H187.903L192.277 7.50651V2.12793H194.309Z" fill="#020102"/>
<path d="M198.206 3.80127H195.385V2.12793H203.058V3.80127H200.261V10.9966H198.229V3.80127H198.206Z" fill="#020102"/>
<path d="M210.97 9.34718V10.9966H204.157V2.12793H210.803V3.77736H206.165V5.71365H210.253V7.31527H206.165V9.37109H210.97V9.34718Z" fill="#020102"/>
<path d="M218.214 10.9966L216.517 8.53442H216.421H214.652V10.9966H212.62V2.12793H216.421C218.764 2.12793 220.246 3.34707 220.246 5.35508C220.246 6.69375 219.576 7.64994 218.429 8.15194L220.413 10.9966H218.214ZM216.301 3.80127H214.652V6.88499H216.301C217.544 6.88499 218.166 6.31127 218.166 5.33117C218.166 4.37498 217.544 3.80127 216.301 3.80127Z" fill="#020102"/>
<path d="M227.657 9.10813H223.57L222.781 10.9966H220.701L224.622 2.12793H226.63L230.574 10.9966H228.446L227.657 9.10813ZM227.012 7.53042L225.602 4.13593L224.215 7.53042H227.012Z" fill="#020102"/>
<path d="M230.812 6.5741C230.812 3.89676 232.843 1.98438 235.592 1.98438C237.122 1.98438 238.389 2.53419 239.226 3.56209L237.911 4.78124C237.314 4.088 236.573 3.75333 235.688 3.75333C234.039 3.75333 232.867 4.92467 232.867 6.598C232.867 8.27134 234.039 9.44268 235.688 9.44268C236.573 9.44268 237.314 9.0841 237.911 8.39086L239.226 9.61001C238.389 10.6379 237.122 11.1877 235.592 11.1877C232.843 11.1638 230.812 9.22753 230.812 6.5741Z" fill="#020102"/>
<path d="M242.572 3.80127H239.751V2.12793H247.424V3.80127H244.604V10.9966H242.572V3.80127Z" fill="#020102"/>
<path d="M248.525 2.12793H250.557V10.9966H248.525V2.12793Z" fill="#020102"/>
<path d="M260.812 2.12793L256.988 10.9966H254.98L251.179 2.12793H253.378L256.055 8.4627L258.78 2.12793H260.812Z" fill="#020102"/>
<path d="M268.342 9.34718V10.9966H261.529V2.12793H268.175V3.77736H263.537V5.71365H267.625V7.31527H263.537V9.37109H268.342V9.34718Z" fill="#020102"/>
<path d="M190.102 24.8609L190.078 19.5301L187.496 23.9047H186.588L184.006 19.6496V24.8609H182.094V15.9922H183.767L187.09 21.5142L190.341 15.9922H192.014L192.038 24.8609H190.102Z" fill="#020102"/>
<path d="M200.931 23.2114V24.8609H194.118V15.9922H200.764V17.6416H196.126V19.5779H200.214V21.1795H196.126V23.2353H200.931V23.2114Z" fill="#020102"/>
<path d="M202.556 15.9922H206.548C209.416 15.9922 211.4 17.7372 211.4 20.4146C211.4 23.0919 209.416 24.837 206.548 24.837H202.556V15.9922ZM206.452 23.1875C208.197 23.1875 209.345 22.1357 209.345 20.4385C209.345 18.7412 208.197 17.6894 206.452 17.6894H204.588V23.1875H206.452Z" fill="#020102"/>
<path d="M212.931 15.9922H214.963V24.8609H212.931V15.9922Z" fill="#020102"/>
<path d="M222.874 22.9724H218.787L217.998 24.8609H215.918L219.838 15.9922H221.846L225.791 24.8609H223.663L222.874 22.9724ZM222.229 21.3947L220.818 18.0002L219.432 21.3947H222.229Z" fill="#020102"/>
<path d="M188.022 36.8376H183.934L183.145 38.7261H181.065L184.986 29.8574H186.994L190.938 38.7261H188.787L188.022 36.8376ZM187.376 35.2599L185.99 31.8654L184.603 35.2599H187.376Z" fill="#020102"/>
<path d="M197.679 34.1597H199.543V37.7454C198.563 38.4864 197.249 38.8689 195.982 38.8689C193.209 38.8689 191.177 36.9565 191.177 34.2792C191.177 31.6018 193.209 29.6895 196.029 29.6895C197.583 29.6895 198.85 30.2154 199.711 31.2194L198.396 32.4385C197.751 31.7453 197.01 31.4345 196.125 31.4345C194.404 31.4345 193.256 32.5819 193.256 34.2792C193.256 35.9286 194.428 37.1238 196.101 37.1238C196.651 37.1238 197.177 37.0282 197.679 36.7414V34.1597Z" fill="#020102"/>
<path d="M208.245 37.0767V38.7261H201.433V29.8574H208.078V31.5069H203.441V33.4431H207.528V35.0448H203.441V37.1006H208.245V37.0767Z" fill="#020102"/>
<path d="M217.927 29.8574V38.7261H216.253L211.855 33.3475V38.7261H209.847V29.8574H211.52L215.895 35.236V29.8574H217.927Z" fill="#020102"/>
<path d="M219.481 34.3026C219.481 31.6253 221.513 29.7129 224.262 29.7129C225.792 29.7129 227.059 30.2627 227.896 31.2906L226.581 32.5098C225.984 31.8165 225.242 31.4818 224.358 31.4818C222.709 31.4818 221.537 32.6532 221.537 34.3265C221.537 35.9999 222.709 37.1712 224.358 37.1712C225.242 37.1712 225.984 36.8126 226.581 36.1194L227.896 37.3385C227.059 38.3664 225.792 38.9162 224.262 38.9162C221.513 38.8923 219.481 36.956 219.481 34.3026Z" fill="#020102"/>
<path d="M233.393 35.5941V38.7256H231.337V35.5702L227.919 29.8809H230.07L232.413 33.8252L234.756 29.8809H236.764L233.393 35.5941Z" fill="#020102"/>
<path d="M54.5374 28.4702C53.6051 28.9004 52.6011 29.1395 51.5015 29.1634C51.4536 29.1634 51.4058 29.1634 51.358 29.1634H51.3341C51.2146 29.1634 51.119 29.1634 50.9995 29.1634C45.8838 29.1634 41.7483 25.0279 41.7483 19.9361C41.7483 14.8444 45.8838 10.7089 50.9995 10.7089C54.5613 10.7089 57.6689 12.7408 59.1988 15.6811L68.6173 10.6372C67.3503 7.3144 65.1989 4.73268 62.1869 2.8442C59.151 0.979629 55.5653 0.0234375 51.4058 0.0234375C47.342 0.0234375 43.7085 0.860106 40.5052 2.55735C37.302 4.25459 34.792 6.59726 33.023 9.60926C31.2302 12.6213 30.3457 16.0636 30.3457 19.9122C30.3457 23.7609 31.2302 27.2032 33.023 30.2391C34.8159 33.275 37.302 35.6416 40.5052 37.3627C43.7085 39.0839 47.342 39.9206 51.4058 39.9206C55.5653 39.9206 59.151 38.9883 62.1869 37.0998C65.2228 35.2352 67.3503 32.6296 68.6173 29.3068L59.1749 24.239C58.1709 26.1514 56.5454 27.6574 54.5374 28.4702Z" fill="#020102"/>
<path d="M108.204 9.58583C106.435 6.57382 103.973 4.23115 100.817 2.53391C97.6617 0.836668 94.0999 0 90.1317 0C86.1635 0 82.6017 0.836668 79.4702 2.53391C76.3386 4.23115 73.8764 6.57382 72.0836 9.63364C70.2907 12.6695 69.4062 16.0879 69.4062 19.8888C69.4062 23.7375 70.2907 27.1798 72.0836 30.2157C73.8764 33.2516 76.3386 35.6182 79.4941 37.3393C82.6495 39.0605 86.2113 39.8971 90.1317 39.8971C94.0999 39.8971 97.6856 39.0365 100.841 37.3393C103.997 35.6182 106.459 33.2516 108.228 30.2157C109.997 27.1798 110.881 23.7375 110.881 19.8888C110.857 16.0401 109.973 12.5978 108.204 9.58583ZM90.1317 29.1639C85.0161 29.1639 80.8806 25.0283 80.8806 19.9366C80.8806 14.8449 85.0161 10.7094 90.1317 10.7094C95.2473 10.7094 99.3829 14.8449 99.3829 19.9366C99.3829 25.0283 95.2234 29.1639 90.1317 29.1639Z" fill="#020102"/>
<path d="M13.0863 0.549805H0.177734V39.0365H13.0863V0.549805Z" fill="black"/>
<path d="M23.5085 39.4672C27.3899 39.4672 30.5365 36.3206 30.5365 32.4391C30.5365 28.5577 27.3899 25.4111 23.5085 25.4111C19.627 25.4111 16.4805 28.5577 16.4805 32.4391C16.4805 36.3206 19.627 39.4672 23.5085 39.4672Z" fill="#020102"/>
</svg>
