<svg width="148" height="47" viewBox="0 0 148 47" fill="none" xmlns="http://www.w3.org/2000/svg">
<path d="M14.915 27.5889L0.00195312 4.78244V0H8.99896L20.7081 18.638L31.6771 0H39.6881V4.59773L25.1439 27.6513V45.9823H14.915V27.5889Z" fill="#FFD015"/>
<path d="M35.5801 30.4093C35.5801 21.396 41.6818 14.1025 52.0336 14.1025C62.3252 14.1025 68.4896 21.396 68.4896 30.4093C68.4896 39.4824 62.3252 46.9007 52.0336 46.9007C41.6818 46.9007 35.5801 39.4824 35.5801 30.4093ZM59.184 30.4093C59.184 25.8739 56.9034 22.1323 52.0336 22.1323C47.1663 22.1323 44.8857 25.8739 44.8857 30.4093C44.8857 35.0694 47.1663 38.8709 52.0336 38.8709C56.9034 38.8709 59.184 35.0694 59.184 30.4093Z" fill="#FFD015"/>
<path d="M110.357 0.000732422L114.856 2.65476L110.357 5.25001V0.000732422Z" fill="#070709"/>
<path d="M77.2578 0.000732422H102.094V3.00598H80.833V21.3596H100.245L95.0024 24.3648H80.833V45.983H77.2578V0.000732422Z" fill="#070709"/>
<path d="M110 15.654L113.329 13.7407V45.9831H110V15.654Z" fill="#070709"/>
<path d="M123.164 8.06885L125.999 9.74471L126.245 16.1781C127.54 12.3142 131.052 9.12674 136.66 9.12674C144.856 9.12674 148 14.4608 148 22.3084V45.9824H144.673V23.0447C144.673 16.1781 142.515 12.0097 136.045 12.0097C130.129 12.0097 126.493 16.3004 126.493 22.9823V45.9823H123.164L123.164 8.06885Z" fill="#070709"/>
</svg>
