<svg width="129" height="46" viewBox="0 0 129 46" fill="none" xmlns="http://www.w3.org/2000/svg">
<path fill-rule="evenodd" clip-rule="evenodd" d="M8.78123 0L6.58455 6.01712H37.0256L39.2223 0H8.78123ZM5.48553 9.02432L3.28885 15.0401H33.7299L35.9266 9.02432H5.48553ZM2.19668 18.0486L0 24.0644H30.441L32.6363 18.0486H2.19668Z" fill="#009FDF"/>
<path fill-rule="evenodd" clip-rule="evenodd" d="M64.7161 26.3573V26.4842C66.1073 26.9948 67.4361 27.8877 68.1324 28.4611C70.2835 30.2469 71.2331 32.6061 71.2331 35.667C71.2331 40.7062 68.5754 44.3406 64.2095 45.4888C62.8806 45.871 61.4894 45.9994 58.894 45.9994H45.6716V9.13989H57.3768C59.7813 9.13989 61.4257 9.26685 62.8806 9.64912C67.1205 10.7973 69.9042 13.7313 69.9042 18.3855C69.9042 20.873 69.0183 22.9783 67.5635 24.3804C66.9309 25.0179 66.045 25.7839 64.7161 26.3573ZM53.0109 30.2469V39.9403H58.0731C59.5902 39.9403 60.9828 39.8134 61.996 38.8563C63.0079 37.8992 63.4509 36.6883 63.4509 35.0936C63.4509 33.8826 63.1339 32.7344 62.5013 31.9057C61.4257 30.5664 60.0969 30.2469 57.8198 30.2469H53.0109ZM52.9472 23.8697H57.0598C58.325 23.8697 58.9576 23.8697 59.5902 23.6786C61.2998 23.168 62.3753 21.6389 62.3753 19.5337C62.3753 17.0475 61.2361 15.9621 59.5902 15.4529C58.894 15.2618 58.1991 15.1976 56.8065 15.1976H52.9472V23.8697ZM82.242 45.9994V15.3245H71.6761V9.13989H101.035L98.9471 15.3245H89.5813V45.9994H82.242ZM103.312 45.9994V9.13989H127.103L125.015 15.3245H110.589V23.4875H116.473C121.218 23.4875 123.686 24.6357 125.395 26.102C126.723 27.2502 129 29.8005 129 34.8397C129 39.8134 126.66 42.5548 124.698 43.9583C122.421 45.5516 120.017 45.9994 115.144 45.9994H103.312ZM110.589 39.8134H116.094C118.181 39.8134 119.446 39.3027 120.332 38.1545C120.775 37.5811 121.408 36.5599 121.408 34.6472C121.408 32.7344 120.775 31.3951 119.51 30.438C118.752 29.8646 117.738 29.5466 116.03 29.5466H110.589V39.8134Z" fill="#0A2973"/>
</svg>
