<svg version="1.1" xmlns="http://www.w3.org/2000/svg" xmlns:xlink="http://www.w3.org/1999/xlink" x="0px" y="0px" viewBox="0 0 1771 885" xml:space="preserve" style="enable-background:new 0 0 1771 885;" class=""><g><g><g><path d="M1771.3,885H0V442.5h1771.3V885z" style="fill:#DCE223;"></path><path d="M1771.3,442.5H0V0h1771.3V442.5z" style="fill:#00503C;"></path></g><g><path d="M362.1,221.1
				c0,42.8-24.2,77.4-73.6,77.4c-49.5,0-73.7-34.6-73.7-77.4s24.2-77.5,73.7-77.5C337.9,143.6,362.1,178.3,362.1,221.1z
				 M330.6,221.1c0-37.1-13.1-68.6-42.6-68.6s-41.7,31.5-41.7,68.6c0,37,12.7,68.8,42.2,68.8S330.6,258.1,330.6,221.1L330.6,221.1z" style="fill-rule:evenodd;clip-rule:evenodd;fill:#FFFFFF;"></path><path d="M597.7,284.6l-7.8,48.3H577V295H400.6V166.5c0-6.3-6.5-12.7-13-12.7v-6.4
				h24.6c9.7,0,17.6,9.5,17.6,19.1v117.9h44.5l0.1-137h29v137.2h43.9l0.1-137.2h28.9v137.2L597.7,284.6z" style="fill:#FFFFFF;"></path><path d="M757.6,287.2v7.8H740
				c-11.8,0-16.4-4.6-19.8-11.7l-11.7-26h-62.2L629.4,295h-16l67.8-147.6h14.3v0.1c30.6,80.7,49.2,125.7,55.9,134.9
				C753.1,284.8,756.5,287.2,757.6,287.2L757.6,287.2z M704.3,247l-24.1-68.6L650.9,247L704.3,247z" style="fill-rule:evenodd;clip-rule:evenodd;fill:#FFFFFF;"></path><path d="M1226.4,287.2v7.8h-17.6
				c-11.8,0-16.4-4.6-19.8-11.7l-11.7-26h-62.2l-16.9,37.7h-16l67.8-147.6h14.3v0.1c30.6,80.7,49.2,125.7,55.9,134.9
				C1221.9,284.8,1225.3,287.2,1226.4,287.2L1226.4,287.2z M1173.1,247l-24.1-68.6l-29.3,68.6L1173.1,247z" style="fill-rule:evenodd;clip-rule:evenodd;fill:#FFFFFF;"></path><path d="M914.7,332.9h-13V295H792.5
				v37.9h-12.9l-7.7-48.3h8.7l62.9-137.4l14.4,0.2h0.1c23.4,62.5,39.9,103.8,49.6,123.8c3.9,8.3,10.3,14.4,14.8,14.4L914.7,332.9z
				 M796.5,285.6h93.2c-5.7-2.2-10.1-6.9-13.6-15.5l-32.8-90.3l-0.5,0.1L796.5,285.6z" style="fill-rule:evenodd;clip-rule:evenodd;fill:#FFFFFF;"></path><path d="M1060.2,254.2
				c0,18.4-10.2,40.8-52.1,40.8h-61V166.6c0-6.4-6.4-12.7-12.9-12.7v-6.5h121.6l-9.1,48h-12l-0.1-37.6h-58.3v58.5h31.8
				C1050,216.3,1060.2,234.5,1060.2,254.2L1060.2,254.2z M1031.5,253.5c0-12.8-6.4-26.8-28.9-26.8h-26.3v58.6h26
				C1024.8,285.3,1031.5,265.4,1031.5,253.5L1031.5,253.5z" style="fill-rule:evenodd;clip-rule:evenodd;fill:#FFFFFF;"></path><path d="M1375.8,147.4V295H1346v-68.3h-56.7V295h-30.4V166.5
				c0-6.3-6.4-12.7-12.9-12.7v-6.4h23.8c9.7,0,19.5,9.6,19.5,19.3v49.6h56.7v-68.9L1375.8,147.4z" style="fill:#FFFFFF;"></path><path d="M1556.5,288.9l-0.1,8.2h-11.7c-13.2,0-26.2-3-37.4-15.9
				c-24.3-30-38.7-47.9-43.2-53.7h-8.4V295h-28.4c0-64.3,0-107.1,0-128.5c0-6.3-6.1-12.7-12.9-12.7v-6.4h21.8
				c9.7,0,19.5,9.6,19.5,19.3V216h9.8l60.7-68.7h19.2l-60.5,68.7v1.2c25.8,28.8,43.4,48,52.7,57.6
				C1545.9,283.3,1553.1,288.9,1556.5,288.9L1556.5,288.9z" style="fill:#FFFFFF;"></path></g><g><path d="M520,701.6c-6.3,3.3-14.7,6.1-26.1,6.1c-18.4,0-29.6-6.3-38.5-14.6
				c-12.1-11.7-16.9-24.8-16.9-40.3c0-19.1,7.9-32.8,16.9-41.2c10.6-10,23.7-13.9,38.7-13.9c7.4,0,16.3,1.3,25.9,6.5v24
				c-9.6-11.1-21.6-11.9-25.4-11.9c-21.2,0-34.9,17.4-34.9,36.8c0,23.4,18,36,35.7,36c9.8,0,18.4-4.3,24.6-11.5V701.6z"></path><path d="M554.7,600.1h14.9l27.9,66.9l29.2-66.9h14.9l17.6,105.3h-20.8l-9.5-64.9l-28.2,64.9h-7
				l-27-64.9L556,705.4h-20.8L554.7,600.1z"></path><path d="M700,600.1v105.3h-20.5V600.1H700z"></path><path d="M807.3,600.1v105.3h-20.5v-87.7h-30.6v46.8c0,10.9,0.3,25.2-11.4,34.9
				c-4.1,3.4-10.7,6.9-21,6.9c-3,0-5.8-0.3-8.7-0.9v-17.7c1.6,0.5,3.7,0.9,5.9,0.9c4.7,0,7.7-2,9.5-3.8c5.3-5.3,5.2-14.5,5.2-24.4
				v-60.3H807.3z"></path><path d="M853.4,600.1v70.1l57.8-70.1h14.6v105.3h-20.6V635l-57.7,70.4h-14.6V600.1H853.4z"></path><path d="M977.4,600.1c5.8,0,17.2,0,25.7,6.6
				c6.2,4.7,9.8,12.9,9.8,21.8c0,13.6-9,19.1-11.8,20.7c6.9,1.1,11,4.1,13.7,6.6c6.3,6,7.6,14.2,7.6,19.7c0,6.2-1.7,14.9-9,21.3
				c-7.9,7-17.5,8.6-26.7,8.6h-35.4V600.1L977.4,600.1z M971.9,643.8h5.9c3.1,0,15.9-0.3,15.9-13.7c0-9.7-7.4-13.3-15.8-13.3h-6
				L971.9,643.8z M971.9,688.6h8.9c3.7,0,9.4-0.1,14-2.8c5.1-3,6.5-8.1,6.5-12.2c0-3.3-1.1-9-7.8-12c-4.4-2-9.6-2-14-2h-7.6
				L971.9,688.6z" style="fill-rule:evenodd;clip-rule:evenodd;"></path><path d="M1063.4,600.1v105.3h-20.5V600.1H1063.4z"></path><path d="M1165.4,701.6c-6.3,3.3-14.7,6.1-26,6.1c-18.5,0-29.7-6.3-38.5-14.6
				c-12.2-11.7-16.9-24.8-16.9-40.3c0-19.1,7.9-32.8,16.9-41.2c10.5-10,23.6-13.9,38.6-13.9c7.5,0,16.3,1.3,25.9,6.5v24
				c-9.6-11.1-21.6-11.9-25.4-11.9c-21.1,0-34.9,17.4-34.9,36.8c0,23.4,18,36,35.7,36c9.8,0,18.5-4.3,24.6-11.5L1165.4,701.6z"></path><path d="M1224.2,617.7v87.7h-20.6v-87.7H1180v-17.6h67.8v17.6H1224.2z"></path><path d="M1262.4,600.1h20.5v41.2h16.4
				c7.8,0,17.7,1.1,25.9,8.7c5.9,5.3,9.8,13.4,9.8,23.5c0,7.1-2.2,13.9-5.7,18.9c-7.9,11.5-21,13-29.8,13h-37.1L1262.4,600.1z
				 M1282.9,687.7h12c3.6,0,18.9,0,18.9-14.2c0-6.6-3.4-14.5-18.6-14.5h-12.3V687.7z" style="fill-rule:evenodd;clip-rule:evenodd;"></path></g></g></g></svg>