<svg width="17" height="9" viewBox="0 0 17 9" fill="none" xmlns="http://www.w3.org/2000/svg">
<path fill-rule="evenodd" clip-rule="evenodd" d="M8.32817 8.96232H9.28455C9.28455 8.96232 9.57344 8.93105 9.72093 8.77428C9.85668 8.63035 9.85234 8.36007 9.85234 8.36007C9.85234 8.36007 9.83366 7.09475 10.4293 6.90842C11.0164 6.72487 11.7703 8.13134 12.5694 8.67212C13.1737 9.0814 13.6329 8.99166 13.6329 8.99166L15.7696 8.96232C15.7696 8.96232 16.8874 8.89443 16.3574 8.02789C16.3139 7.957 16.0487 7.38688 14.7687 6.21536C13.4289 4.98923 13.6084 5.18756 15.2222 3.06662C16.2051 1.77495 16.598 0.986376 16.4753 0.648628C16.3582 0.326943 15.6354 0.411969 15.6354 0.411969L13.2295 0.426747C13.2295 0.426747 13.0512 0.40276 12.9189 0.480718C12.7897 0.557177 12.7065 0.735367 12.7065 0.735367C12.7065 0.735367 12.3257 1.7349 11.8179 2.58495C10.7466 4.37863 10.3183 4.47329 10.1432 4.36193C9.73592 4.10235 9.83757 3.31913 9.83757 2.76271C9.83757 1.0245 10.105 0.299743 9.31692 0.11213C9.05539 0.0498057 8.86294 0.00868489 8.19415 0.00204559C7.33573 -0.00673542 6.60916 0.00461564 6.19776 0.203366C5.92408 0.33551 5.71295 0.629995 5.84154 0.646915C6.00054 0.667903 6.36067 0.742649 6.5516 0.999012C6.79814 1.32969 6.78945 2.07244 6.78945 2.07244C6.78945 2.07244 6.93107 4.11863 6.45864 4.37285C6.13434 4.54718 5.68949 4.19123 4.73441 2.56396C4.24504 1.73041 3.87556 0.809042 3.87556 0.809042C3.87556 0.809042 3.80432 0.636849 3.67725 0.544755C3.52303 0.433172 3.30755 0.39762 3.30755 0.39762L1.02141 0.412397C1.02141 0.412397 0.678215 0.421821 0.552232 0.568956C0.440151 0.699815 0.543327 0.970527 0.543327 0.970527C0.543327 0.970527 2.33315 5.09932 4.35972 7.17999C6.21797 9.08761 8.32817 8.96232 8.32817 8.96232Z" fill="#2787F5"/>
</svg>
