<svg width="148" height="48" viewBox="0 0 148 48" fill="none" xmlns="http://www.w3.org/2000/svg">
<path d="M14.9156 27.5889L0.00259399 4.78244V0H8.9996L20.7087 18.638L31.6778 0H39.6888V4.59773L25.1445 27.6513V45.9823H14.9156V27.5889Z" fill="#FFD015"/>
<path d="M35.5796 30.4094C35.5796 21.3962 41.6813 14.1027 52.0331 14.1027C62.3247 14.1027 68.4892 21.3962 68.4892 30.4094C68.4892 39.4826 62.3247 46.9008 52.0331 46.9008C41.6813 46.9008 35.5796 39.4826 35.5796 30.4094ZM59.1836 30.4094C59.1836 25.8741 56.9029 22.1325 52.0331 22.1325C47.1658 22.1325 44.8852 25.8741 44.8852 30.4094C44.8852 35.0695 47.1658 38.871 52.0331 38.871C56.9029 38.871 59.1836 35.0695 59.1836 30.4094Z" fill="#FFD015"/>
<path d="M110.357 0.000732422L114.856 2.65476L110.357 5.25001V0.000732422Z" fill="#070709"/>
<path d="M77.2578 0.000732422H102.094V3.00598H80.833V21.3596H100.245L95.0024 24.3648H80.833V45.983H77.2578V0.000732422Z" fill="#070709"/>
<path d="M110 15.6538L113.329 13.7406V45.983H110V15.6538Z" fill="#070709"/>
<path d="M123.164 8.06885L125.999 9.74471L126.245 16.1781C127.54 12.3142 131.052 9.12674 136.66 9.12674C144.856 9.12674 148 14.4608 148 22.3084V45.9824H144.673V23.0447C144.673 16.1781 142.515 12.0097 136.045 12.0097C130.129 12.0097 126.493 16.3004 126.493 22.9823V45.9823H123.164L123.164 8.06885Z" fill="#070709"/>
</svg>
