<svg width="286" height="50" viewBox="0 0 286 50" fill="none" xmlns="http://www.w3.org/2000/svg">
<path d="M30.7422 23.7127C32.205 22.5665 33.3751 21.0855 34.1554 19.3926C34.9356 17.6998 35.3035 15.8439 35.2285 13.9792C35.2621 5.31843 28.9365 0 19.2013 0H0V49.0176H20.5247C25.4596 49.0176 29.43 47.6965 32.4133 45.0994C33.8949 43.814 35.0682 42.2076 35.8452 40.4007C36.6221 38.5937 36.9826 36.633 36.8996 34.6658C36.9886 32.4438 36.4593 30.241 35.3714 28.3057C34.2834 26.3705 32.6801 24.7797 30.7422 23.7127ZM12.4494 11.2014H18.8536C19.3706 11.1682 19.8889 11.244 20.3752 11.424C20.8615 11.6039 21.3051 11.884 21.6778 12.2464C22.0504 12.6088 22.3438 13.0455 22.5392 13.5286C22.7347 14.0117 22.8278 14.5305 22.8127 15.0519C22.8347 15.5757 22.7464 16.0982 22.5535 16.5851C22.3606 17.072 22.0676 17.5123 21.6936 17.877C21.3197 18.2418 20.8733 18.5227 20.3838 18.7014C19.8943 18.8801 19.3728 18.9524 18.8536 18.9137H12.4494V11.2014ZM20.1882 37.8162H12.4494V29.5506H20.1882C21.2769 29.5506 22.321 29.986 23.0909 30.7611C23.8607 31.5361 24.2932 32.5873 24.2932 33.6834C24.2932 34.7795 23.8607 35.8307 23.0909 36.6057C22.321 37.3808 21.2769 37.8162 20.1882 37.8162Z" fill="#0D0D0D"/>
<path d="M58.916 13.0308C56.4578 12.9468 54.009 13.3759 51.7236 14.2912C49.4382 15.2065 47.3657 16.5882 45.6366 18.3493C43.9148 20.0882 42.561 22.1604 41.6569 24.4409C40.7529 26.7213 40.3173 29.1625 40.3765 31.6171C40.2995 34.071 40.7292 36.5142 41.6385 38.7922C42.5478 41.0701 43.9169 43.1333 45.659 44.8511C49.2032 48.2386 53.9362 50.034 59.8469 50.034C66.3856 50.034 71.399 47.866 74.8086 43.5299L66.4529 37.6469C64.7437 39.2649 62.4729 40.1445 60.1273 40.0972C56.0896 40.0972 53.5212 38.6971 52.3324 35.8177H76.3788C76.7219 34.3988 76.884 32.9417 76.8611 31.4816C76.9405 29.0503 76.5314 26.6279 75.6584 24.3597C74.7853 22.0915 73.4663 20.0241 71.7804 18.2815C70.1155 16.5553 68.1119 15.197 65.8971 14.293C63.6823 13.389 61.3048 12.9592 58.916 13.0308ZM52.1866 27.7102C53.1623 24.4243 55.4503 22.8095 59.0057 22.8095C60.5016 22.6835 61.9918 23.112 63.1959 24.0145C64.4 24.917 65.2352 26.2312 65.5445 27.7102H52.1866Z" fill="#0D0D0D"/>
<path d="M104.586 25.1469V14.0019H97.3522V4.20068L85.8112 7.70114V14.0019H80.5847V25.1469H85.8112V35.5805C85.8112 41.1135 87.202 44.964 89.9835 47.132C92.765 49.3001 97.6251 49.9286 104.564 49.0178V38.5164C99.3486 38.7987 97.3297 38.3809 97.3297 35.2982V25.1356L104.586 25.1469Z" fill="#0D0D0D"/>
<path d="M141.665 23.7127C143.128 22.5665 144.298 21.0855 145.079 19.3926C145.859 17.6998 146.227 15.8439 146.152 13.9792C146.185 5.31843 139.86 0 130.102 0H110.923V49.0176H131.437C136.383 49.0176 140.342 47.6965 143.336 45.0994C144.816 43.8124 145.988 42.2057 146.765 40.3992C147.542 38.5926 147.903 36.6327 147.823 34.6658C147.912 32.4438 147.382 30.241 146.295 28.3057C145.207 26.3705 143.603 24.7797 141.665 23.7127ZM123.373 11.2014H129.765C130.283 11.1683 130.802 11.2441 131.289 11.424C131.775 11.6038 132.22 11.8837 132.593 12.2459C132.967 12.6082 133.261 13.0447 133.458 13.5278C133.655 14.0109 133.749 14.53 133.736 15.0519C133.758 15.5767 133.669 16.1002 133.476 16.588C133.282 17.0757 132.988 17.5166 132.613 17.8815C132.238 18.2465 131.79 18.5272 131.299 18.7051C130.808 18.883 130.286 18.9541 129.765 18.9137H123.373V11.2014ZM131.089 37.8162H123.373V29.5506H131.089C132.178 29.5506 133.222 29.986 133.992 30.7611C134.761 31.5361 135.194 32.5873 135.194 33.6834C135.194 34.7795 134.761 35.8307 133.992 36.6057C133.222 37.3808 132.178 37.8162 131.089 37.8162Z" fill="#0D0D0D"/>
<path d="M169.906 13.0305C167.468 12.9912 165.047 13.448 162.788 14.3735C160.529 15.299 158.48 16.6742 156.762 18.4166C155.002 20.1002 153.611 22.1346 152.676 24.3899C151.742 26.6452 151.284 29.0719 151.333 31.5151C151.284 33.9684 151.742 36.4051 152.676 38.6714C153.61 40.9376 155.001 42.984 156.762 44.6813C158.483 46.4147 160.535 47.7794 162.794 48.6935C165.053 49.6075 167.472 50.0518 169.906 49.9998C172.342 50.0644 174.765 49.6258 177.026 48.7111C179.287 47.7963 181.337 46.4249 183.051 44.6813C184.811 42.984 186.202 40.9376 187.137 38.6714C188.071 36.4051 188.528 33.9684 188.48 31.5151C188.529 29.0719 188.071 26.6452 187.136 24.3899C186.202 22.1346 184.81 20.1002 183.051 18.4166C181.339 16.6663 179.29 15.2858 177.03 14.3597C174.77 13.4336 172.346 12.9813 169.906 13.0305ZM169.906 38.7983C168.966 38.8104 168.033 38.6281 167.165 38.2627C166.298 37.8973 165.514 37.3565 164.862 36.6738C164.21 35.9912 163.704 35.1811 163.376 34.2938C163.048 33.4065 162.903 32.4607 162.953 31.5151C162.915 30.5668 163.068 29.6206 163.402 28.7333C163.737 27.846 164.246 27.0359 164.899 26.3515C165.552 25.6671 166.336 25.1226 167.203 24.7507C168.07 24.3788 169.003 24.187 169.946 24.187C170.888 24.187 171.821 24.3788 172.688 24.7507C173.556 25.1226 174.339 25.6671 174.992 26.3515C175.645 27.0359 176.155 27.846 176.489 28.7333C176.823 29.6206 176.976 30.5668 176.939 31.5151C176.992 32.4683 176.848 33.4223 176.516 34.3166C176.184 35.2109 175.671 36.0261 175.01 36.7107C174.349 37.3953 173.554 37.9343 172.676 38.2936C171.797 38.653 170.854 38.8248 169.906 38.7983Z" fill="#0D0D0D"/>
<path d="M210.462 13.0305C208.024 12.9918 205.603 13.4489 203.345 14.3744C201.086 15.2999 199.036 16.6748 197.318 18.4166C195.558 20.1002 194.167 22.1346 193.232 24.3899C192.298 26.6452 191.84 29.0719 191.889 31.5151C191.84 33.9684 192.298 36.4051 193.232 38.6714C194.166 40.9376 195.558 42.984 197.318 44.6813C199.04 46.4136 201.092 47.7777 203.351 48.6916C205.61 49.6056 208.029 50.0505 210.462 49.9998C212.898 50.0644 215.321 49.6258 217.582 48.7111C219.843 47.7963 221.893 46.4249 223.607 44.6813C225.367 42.984 226.759 40.9376 227.693 38.6714C228.627 36.4051 229.084 33.9684 229.036 31.5151C229.085 29.0719 228.627 26.6452 227.693 24.3899C226.758 22.1346 225.367 20.1002 223.607 18.4166C221.895 16.6663 219.846 15.2858 217.586 14.3597C215.326 13.4336 212.902 12.9813 210.462 13.0305ZM210.462 38.7983C209.522 38.8104 208.589 38.6281 207.721 38.2627C206.854 37.8973 206.07 37.3565 205.418 36.6738C204.766 35.9912 204.26 35.1811 203.932 34.2938C203.604 33.4065 203.46 32.4607 203.509 31.5151C203.471 30.5668 203.624 29.6206 203.958 28.7333C204.293 27.846 204.802 27.0359 205.455 26.3515C206.108 25.6671 206.892 25.1226 207.759 24.7507C208.626 24.3788 209.559 24.187 210.502 24.187C211.444 24.187 212.377 24.3788 213.245 24.7507C214.112 25.1226 214.895 25.6671 215.549 26.3515C216.202 27.0359 216.711 27.846 217.045 28.7333C217.38 29.6206 217.532 30.5668 217.495 31.5151C217.548 32.4683 217.404 33.4223 217.072 34.3166C216.74 35.2109 216.227 36.0261 215.566 36.7107C214.905 37.3953 214.111 37.9343 213.232 38.2936C212.353 38.653 211.41 38.8248 210.462 38.7983Z" fill="#0D0D0D"/>
<path d="M272.922 13.0306C271.006 12.9321 269.093 13.2897 267.339 14.0745C265.585 14.8592 264.04 16.049 262.828 17.5474C260.877 14.5324 257.882 13.0306 253.923 13.0306C249.964 13.0306 246.745 14.4308 244.502 17.2989V14.0017H232.95V49.0063H244.502V29.9006C244.502 26.2646 246.162 24.0175 249.302 24.0175C252.218 24.0175 253.676 25.6323 253.676 28.9182V49.0175H265.228V29.9006C265.228 26.2646 266.9 24.0175 270.029 24.0175C272.878 24.0175 274.336 25.6323 274.336 28.9182V49.0175H286V27.5632C286 18.5636 280.986 13.0306 272.922 13.0306Z" fill="#0D0D0D"/>
</svg>
