<svg width="184" height="217" viewBox="0 0 184 217" fill="none" xmlns="http://www.w3.org/2000/svg">
<g clip-path="url(#clip0_140_125)">
<path fill-rule="evenodd" clip-rule="evenodd" d="M174.383 0H9.61673C7.06621 0 4.62016 1.02004 2.81667 2.83571C1.01319 4.65139 0 7.11398 0 9.68174L0 129.193C0.000463364 133.529 0.944324 137.813 2.76523 141.742C4.58614 145.672 7.23989 149.152 10.5399 151.939L84.172 214.134C86.3655 215.986 89.137 217.002 92 217.002C94.863 217.002 97.6345 215.986 99.828 214.134L173.46 151.939C176.76 149.152 179.414 145.672 181.235 141.742C183.056 137.813 184 133.529 184 129.193V9.68174C184 7.11398 182.987 4.65139 181.183 2.83571C179.38 1.02004 176.934 0 174.383 0" fill="#FF0025"/>
</g>
<defs>
<clipPath id="clip0_140_125">
<rect width="184" height="217" fill="white"/>
</clipPath>
</defs>
</svg>
