<svg width="253" height="378" viewBox="0 0 253 378" fill="none" xmlns="http://www.w3.org/2000/svg">
<g clip-path="url(#clip0_162_190)">
<path d="M-16 11.225L-16 366.775C-15.9971 368.839 -15.4253 370.862 -14.3473 372.621C-13.2694 374.381 -11.727 375.81 -9.88976 376.75C-8.05249 377.691 -5.99142 378.107 -3.93303 377.953C-1.87463 377.799 0.101429 377.08 1.77801 375.877L248.322 198.148C249.763 197.108 250.937 195.741 251.746 194.158C252.556 192.576 252.978 190.824 252.978 189.047C252.978 187.27 252.556 185.518 251.746 183.935C250.937 182.353 249.763 180.986 248.322 179.945L1.77801 2.12347C0.101433 0.919739 -1.87462 0.201325 -3.93302 0.0471498C-5.99142 -0.106995 -8.05249 0.309082 -9.88975 1.24969C-11.727 2.19028 -13.2694 3.61899 -14.3473 5.37881C-15.4253 7.13864 -15.9971 9.16147 -16 11.225" fill="#FF0025"/>
</g>
<defs>
<clipPath id="clip0_162_190">
<rect width="378" height="269" fill="white" transform="translate(-16 378) rotate(-90)"/>
</clipPath>
</defs>
</svg>
