<svg width="159" height="28" viewBox="0 0 159 28" fill="none" xmlns="http://www.w3.org/2000/svg">
<g clip-path="url(#clip0_39_13)">
<path d="M17.0909 13.2791C17.9042 12.6372 18.5547 11.8079 18.9885 10.8599C19.4223 9.91187 19.6268 8.8726 19.5851 7.82836C19.6038 2.97832 16.0871 0 10.6748 0H0V27.4499H11.4106C14.1541 27.4499 16.3614 26.71 18.02 25.2556C18.8437 24.5359 19.496 23.6363 19.9279 22.6244C20.3599 21.6125 20.5603 20.5145 20.5141 19.4128C20.5636 18.1685 20.2694 16.935 19.6645 15.8512C19.0597 14.7675 18.1683 13.8766 17.0909 13.2791ZM6.92118 6.27281H10.4815C10.769 6.25421 11.0571 6.29665 11.3275 6.39741C11.5978 6.49818 11.8445 6.65505 12.0516 6.858C12.2588 7.06095 12.4219 7.3055 12.5305 7.57603C12.6392 7.84656 12.691 8.1371 12.6826 8.42909C12.6948 8.72238 12.6457 9.01497 12.5385 9.28764C12.4312 9.5603 12.2683 9.80687 12.0604 10.0111C11.8525 10.2154 11.6044 10.3727 11.3323 10.4728C11.0601 10.5728 10.7702 10.6134 10.4815 10.5917H6.92118V6.27281ZM11.2235 21.1771H6.92118V16.5483H11.2235C11.8288 16.5483 12.4092 16.7922 12.8372 17.2262C13.2652 17.6602 13.5056 18.2489 13.5056 18.8627C13.5056 19.4765 13.2652 20.0652 12.8372 20.4992C12.4092 20.9332 11.8288 21.1771 11.2235 21.1771Z" fill="#FF0025"/>
<path d="M32.754 7.29729C31.3874 7.25022 30.026 7.49054 28.7555 8.00311C27.4849 8.51568 26.3327 9.28941 25.3714 10.2756C24.4142 11.2494 23.6616 12.4099 23.159 13.6869C22.6563 14.9639 22.4142 16.331 22.4471 17.7056C22.4043 19.0798 22.6432 20.448 23.1487 21.7236C23.6542 22.9993 24.4154 24.1547 25.3839 25.1166C27.3543 27.0136 29.9856 28.0191 33.2716 28.0191C36.9067 28.0191 39.6939 26.805 41.5894 24.3768L36.9441 21.0823C35.9939 21.9884 34.7315 22.4809 33.4274 22.4545C31.1827 22.4545 29.7548 21.6704 29.0939 20.0579H42.4624C42.6531 19.2634 42.7432 18.4474 42.7305 17.6297C42.7746 16.2682 42.5472 14.9117 42.0619 13.6415C41.5765 12.3712 40.8432 11.2135 39.9059 10.2377C38.9803 9.27099 37.8664 8.51032 36.6351 8.00408C35.4038 7.49785 34.0821 7.25715 32.754 7.29729ZM29.0128 15.5177C29.5553 13.6776 30.8273 12.7734 32.8039 12.7734C33.6356 12.7028 34.464 12.9428 35.1334 13.4481C35.8028 13.9535 36.2672 14.6895 36.4391 15.5177H29.0128Z" fill="#FF0025"/>
<path d="M58.1441 14.082V7.84076H54.1224V2.35205L47.7062 4.3123V7.84076H44.8006V14.082H47.7062V19.9248C47.7062 23.0232 48.4794 25.1795 50.0258 26.3936C51.5721 27.6077 54.2741 27.9597 58.1317 27.4496V21.5689C55.2322 21.7269 54.1099 21.493 54.1099 19.7667V14.0756L58.1441 14.082Z" fill="#FF0025"/>
<path d="M78.758 13.2791C79.5712 12.6372 80.2218 11.8079 80.6555 10.8599C81.0893 9.91187 81.2938 8.8726 81.2521 7.82836C81.2708 2.97832 77.7541 0 72.3294 0H61.6671V27.4499H73.0714C75.8212 27.4499 78.0222 26.71 79.6871 25.2556C80.5097 24.535 81.1612 23.6352 81.5931 22.6235C82.0249 21.6118 82.226 20.5143 82.1812 19.4128C82.2307 18.1685 81.9364 16.935 81.3316 15.8512C80.7267 14.7675 79.8354 13.8766 78.758 13.2791ZM68.5882 6.27281H72.1423C72.4301 6.25427 72.7185 6.29671 72.9891 6.39741C73.2598 6.49812 73.5068 6.65488 73.7145 6.85773C73.9221 7.06058 74.0858 7.30505 74.1952 7.57559C74.3046 7.84613 74.3571 8.1368 74.3496 8.42909C74.362 8.72295 74.3127 9.01612 74.2051 9.28926C74.0975 9.5624 73.934 9.80929 73.7254 10.0137C73.5168 10.218 73.2679 10.3752 72.995 10.4748C72.7221 10.5745 72.4315 10.6143 72.1423 10.5917H68.5882V6.27281ZM72.8781 21.1771H68.5882V16.5483H72.8781C73.4834 16.5483 74.0638 16.7922 74.4918 17.2262C74.9198 17.6602 75.1602 18.2489 75.1602 18.8627C75.1602 19.4765 74.9198 20.0652 74.4918 20.4992C74.0638 20.9332 73.4834 21.1771 72.8781 21.1771Z" fill="#F8E800"/>
<path d="M94.4584 7.29743C93.1029 7.27542 91.7569 7.53124 90.5011 8.04954C89.2454 8.56783 88.1058 9.33794 87.1507 10.3137C86.1726 11.2565 85.399 12.3957 84.8794 13.6587C84.3598 14.9217 84.1055 16.2806 84.1328 17.6488C84.1056 19.0227 84.3598 20.3872 84.8793 21.6563C85.3987 22.9254 86.1722 24.0714 87.1507 25.0219C88.1077 25.9926 89.2484 26.7569 90.5043 27.2687C91.7602 27.7806 93.1052 28.0294 94.4584 28.0002C95.8125 28.0364 97.1596 27.7908 98.4165 27.2786C99.6733 26.7663 100.813 25.9983 101.766 25.0219C102.745 24.0714 103.518 22.9254 104.038 21.6563C104.557 20.3872 104.811 19.0227 104.784 17.6488C104.811 16.2806 104.557 14.9217 104.037 13.6587C103.518 12.3957 102.744 11.2565 101.766 10.3137C100.814 9.33348 99.6753 8.56044 98.4188 8.04182C97.1623 7.52321 95.8147 7.26992 94.4584 7.29743ZM94.4584 21.7274C93.9356 21.7342 93.4169 21.6321 92.9345 21.4275C92.4522 21.2229 92.0163 20.92 91.654 20.5377C91.2916 20.1554 91.0104 19.7018 90.8279 19.2049C90.6453 18.708 90.5652 18.1784 90.5925 17.6488C90.5716 17.1178 90.6566 16.5879 90.8425 16.091C91.0284 15.5941 91.3114 15.1405 91.6745 14.7572C92.0376 14.374 92.4733 14.069 92.9554 13.8608C93.4375 13.6525 93.9562 13.5451 94.4803 13.5451C95.0043 13.5451 95.523 13.6525 96.0051 13.8608C96.4872 14.069 96.9229 14.374 97.286 14.7572C97.6491 15.1405 97.9321 15.5941 98.118 16.091C98.3039 16.5879 98.3889 17.1178 98.368 17.6488C98.3975 18.1826 98.3175 18.7168 98.1329 19.2177C97.9484 19.7185 97.6634 20.175 97.2959 20.5584C96.9285 20.9417 96.4865 21.2436 95.9981 21.4448C95.5097 21.646 94.9854 21.7423 94.4584 21.7274Z" fill="#F8E800"/>
<path d="M117.005 7.29743C115.65 7.27579 114.304 7.53177 113.048 8.05004C111.793 8.56832 110.653 9.33824 109.698 10.3137C108.719 11.2565 107.946 12.3957 107.426 13.6587C106.907 14.9217 106.652 16.2806 106.68 17.6488C106.653 19.0227 106.907 20.3872 107.426 21.6563C107.946 22.9254 108.719 24.0714 109.698 25.0219C110.655 25.992 111.796 26.7559 113.052 27.2677C114.307 27.7795 115.652 28.0287 117.005 28.0002C118.359 28.0364 119.706 27.7908 120.963 27.2786C122.22 26.7663 123.36 25.9983 124.313 25.0219C125.292 24.0714 126.065 22.9254 126.584 21.6563C127.104 20.3872 127.358 19.0227 127.331 17.6488C127.358 16.2806 127.104 14.9217 126.584 13.6587C126.065 12.3957 125.291 11.2565 124.313 10.3137C123.361 9.33348 122.222 8.56044 120.966 8.04182C119.709 7.52321 118.362 7.26992 117.005 7.29743ZM117.005 21.7274C116.482 21.7342 115.964 21.6321 115.481 21.4275C114.999 21.2229 114.563 20.92 114.201 20.5377C113.838 20.1554 113.557 19.7018 113.375 19.2049C113.192 18.708 113.112 18.1784 113.139 17.6488C113.118 17.1178 113.203 16.5879 113.389 16.091C113.575 15.5941 113.858 15.1405 114.221 14.7572C114.584 14.374 115.02 14.069 115.502 13.8608C115.984 13.6525 116.503 13.5451 117.027 13.5451C117.551 13.5451 118.07 13.6525 118.552 13.8608C119.034 14.069 119.47 14.374 119.833 14.7572C120.196 15.1405 120.479 15.5941 120.665 16.091C120.851 16.5879 120.936 17.1178 120.915 17.6488C120.944 18.1826 120.864 18.7168 120.68 19.2177C120.495 19.7185 120.21 20.175 119.843 20.5584C119.475 20.9417 119.033 21.2436 118.545 21.4448C118.057 21.646 117.532 21.7423 117.005 21.7274Z" fill="#F8E800"/>
<path d="M151.73 7.29704C150.664 7.24188 149.601 7.44214 148.626 7.8816C147.651 8.32105 146.792 8.98732 146.118 9.8264C145.033 8.13805 143.368 7.29704 141.167 7.29704C138.966 7.29704 137.176 8.08114 135.929 9.68728V7.84085H129.507V27.4434H135.929V16.7442C135.929 14.7081 136.852 13.4497 138.598 13.4497C140.219 13.4497 141.03 14.354 141.03 16.1941V27.4497H147.452V16.7442C147.452 14.7081 148.381 13.4497 150.121 13.4497C151.705 13.4497 152.515 14.354 152.515 16.1941V27.4497H159V15.4353C159 10.3955 156.213 7.29704 151.73 7.29704Z" fill="#F8E800"/>
</g>
<defs>
<clipPath id="clip0_39_13">
<rect width="159" height="28" fill="white"/>
</clipPath>
</defs>
</svg>
