<svg width="27" height="23" viewBox="0 0 27 23" fill="none" xmlns="http://www.w3.org/2000/svg">
<path d="M27 0.669434V6.66878C27 9.81129 26.7127 12.3824 25.851 14.6679C24.9893 16.6677 23.8404 18.3818 21.8298 19.8102C19.8191 21.2386 17.8085 22.0956 15.5106 22.667V17.8104C17.2341 16.9533 18.0958 15.5249 18.383 14.0965H15.5106V0.669434H27ZM11.4894 0.669434V6.66878C11.4894 9.81129 11.2021 12.3824 10.3404 14.6679C9.47873 16.6677 8.32981 18.3818 6.31918 19.8102C4.59578 21.2386 2.29787 22.0956 0 22.667V17.8104C1.7234 16.9533 2.5851 15.5249 2.87234 14.0965H0V0.669434H11.4894Z" fill="black"/>
</svg>
