<svg width="30" height="40" viewBox="0 0 30 40" fill="none" xmlns="http://www.w3.org/2000/svg">
<path fill-rule="evenodd" clip-rule="evenodd" d="M17.1294 0.258369C16.8587 0.453071 16.4142 0.974594 16.1416 1.4174C15.7385 2.07188 15.4397 2.2282 14.5451 2.25184C13.568 2.27771 13.3696 2.16422 12.7737 1.238C11.9383 -0.0612206 11.497 -0.077075 8.615 1.08696C6.07119 2.11443 5.69163 2.56503 6.1704 3.98886C6.48391 4.92092 6.45188 5.02495 5.57796 5.90945C4.85031 6.64626 4.54671 6.78867 4.14873 6.57951C3.36127 6.1659 2.31897 6.26632 1.84785 6.80091C1.11169 7.63618 -0.165601 11.2223 0.017801 11.9391C0.118431 12.3321 0.592951 12.7902 1.18794 13.0686C2.09021 13.4909 2.18886 13.648 2.18886 14.6635C2.18886 15.6562 2.07094 15.8582 1.19475 16.3652C-0.206419 17.1766 -0.271616 17.8363 0.801581 20.3455C1.8161 22.7167 2.63758 23.5116 3.56848 23.0226C4.49342 22.537 5.15333 22.6761 5.9904 23.5333C6.74073 24.3018 6.76142 24.3922 6.40709 25.3538C5.8892 26.759 6.21972 27.1423 8.87579 28.2181C10.1032 28.7152 11.1418 29.1221 11.1838 29.1221C11.2254 29.1221 11.2597 27.7572 11.2597 26.0889V23.0557L10.023 22.3445C8.42621 21.4264 7.0996 19.9291 6.22851 18.0622C5.62728 16.7733 5.54876 16.2662 5.64712 14.2944C5.7812 11.6003 6.41928 10.1047 8.21106 8.2851C9.98357 6.48522 12.0231 5.65467 14.659 5.65884C17.2576 5.66302 19.0621 6.3645 20.8505 8.06592C25.2972 12.296 24.5324 19.3355 19.2996 22.3445L18.0629 23.0557V26.0889C18.0629 27.7572 18.1105 29.1221 18.1686 29.1221C18.2797 29.1221 20.3958 28.2484 21.9565 27.5584C23.2358 26.9926 23.5675 26.2853 23.121 25.0737C22.7806 24.1497 22.8055 24.0618 23.6451 23.2382C24.4513 22.4469 24.6027 22.399 25.4157 22.6772C26.9387 23.1982 27.5028 22.7565 28.525 20.2434C29.0284 19.0054 29.3998 17.717 29.3502 17.3807C29.2946 17.0061 28.8479 16.5566 28.1967 16.2211C27.2174 15.7163 27.1337 15.5781 27.1337 14.466C27.1337 13.3582 27.2162 13.2202 28.1347 12.7905C29.567 12.1202 29.6084 11.4729 28.3971 8.70593C27.2596 6.10777 26.8001 5.75119 25.3062 6.30859C24.5868 6.577 24.3915 6.52249 23.6179 5.83714C23.1366 5.41102 22.6975 5.03969 22.6422 5.0116C22.587 4.98351 22.6936 4.50955 22.8789 3.95798C23.3642 2.51524 22.8353 1.89442 20.2971 0.927587C19.1463 0.48923 18.0734 0.0795211 17.9129 0.0174946C17.7528 -0.0445319 17.4001 0.0636668 17.1294 0.258369ZM14.1239 15.0407C13.8965 15.3097 13.8231 17.4347 13.8767 22.2029L13.9526 28.983H14.803H15.6534L15.7294 22.2029C15.8056 15.4015 15.7144 14.6585 14.803 14.6585C14.6074 14.6585 14.3019 14.8304 14.1239 15.0407ZM8.14161 31.0691C7.92618 31.4644 7.92618 31.7865 8.14161 32.1817C8.43075 32.7118 8.73519 32.738 14.6145 32.738C19.0352 32.738 20.8805 32.6434 21.1243 32.4042C21.6102 31.9275 21.5444 30.8805 21.016 30.6817C20.7694 30.5888 17.8401 30.5128 14.5062 30.5128C8.73519 30.5128 8.43046 30.5395 8.14161 31.0691ZM9.40728 33.8664C9.30552 34.028 9.30098 34.4689 9.39736 34.8461L9.57283 35.5317L14.8504 35.456C19.4136 35.3907 20.1679 35.3178 20.4253 34.917C20.6413 34.5807 20.6206 34.3323 20.3504 34.013C20.0352 33.6403 19.1772 33.5724 14.7852 33.5724C11.4428 33.5724 9.52634 33.6773 9.40728 33.8664ZM10.3232 36.5311C10.2239 36.6287 10.3923 37.0523 10.6976 37.4729C11.8437 39.0525 15.1321 39.6079 17.3874 38.603C18.5669 38.0776 19.5797 37.015 19.3098 36.5867C19.1406 36.3177 10.5944 36.2649 10.3232 36.5311Z" fill="#0061FF"/>
</svg>
