<svg width="34" height="34" viewBox="0 0 34 34" fill="none" xmlns="http://www.w3.org/2000/svg">
<path d="M11.186 16.451L9.664 14.929L11.359 13.233L10.683 12.556L8.987 14.251L7.143 12.408L9.776 9.776L9.099 9.099L6.466 11.73L4.622 9.887L6.317 8.191L5.64 7.514L3.945 9.209L2.354 7.619L7.619 2.354L16.449 11.184L17.126 10.507L7.619 1L1 7.619L10.509 17.127L11.186 16.451Z" fill="black" stroke="#F9F9F9" stroke-width="0.2"/>
<path d="M23.491 16.8721L22.813 17.5491L31.646 26.3811L26.381 31.6461L24.791 30.0551L26.486 28.3601L25.809 27.6831L24.113 29.3781L22.27 27.5341L24.901 24.9011L24.224 24.2241L21.592 26.8571L19.749 25.0131L21.444 23.3171L20.767 22.6411L19.072 24.3361L17.551 22.8161L16.874 23.4931L26.381 33.0001L33 26.3811L23.491 16.8721Z" fill="black" stroke="#F9F9F9" stroke-width="0.2"/>
<path d="M31.2711 6.86694C31.9351 6.20294 31.9341 5.12294 31.2711 4.45994L29.5411 2.72994C28.8971 2.08594 27.7771 2.08694 27.1341 2.72994L5.23205 24.6299C5.19005 24.6719 5.16905 24.7269 5.14505 24.7799L5.13305 24.7749L2.40405 30.9649C2.32405 31.1459 2.36405 31.3569 2.50405 31.4969C2.59605 31.5889 2.71805 31.6369 2.84205 31.6369C2.90705 31.6369 2.97305 31.6239 3.03505 31.5959L9.22506 28.8669L9.22405 28.8649C9.27705 28.8419 9.32805 28.8099 9.37005 28.7669L31.2711 6.86694ZM27.8101 3.40594C28.0921 3.12694 28.5811 3.12494 28.8631 3.40594L30.5941 5.13694C30.8841 5.42694 30.8841 5.89994 30.5941 6.18994L28.9861 7.79794L26.2021 5.01394L27.8101 3.40594ZM7.24405 28.6939L5.30605 26.7559L5.84205 25.5419L7.88605 26.1149L8.45905 28.1589L7.24405 28.6939ZM4.89205 27.6959L6.30505 29.1089L3.77805 30.2229L4.89205 27.6959ZM8.73505 25.5969C8.69005 25.4359 8.56405 25.3099 8.40305 25.2649L6.48705 24.7279L25.5251 5.69094L28.3091 8.47594L9.27206 27.5119L8.73505 25.5969Z" fill="black" stroke="#F9F9F9" stroke-width="0.2"/>
<path d="M25.3474 7.97437L9.50342 23.8184L10.1808 24.4958L26.0248 8.65177L25.3474 7.97437Z" fill="black" stroke="#F9F9F9" stroke-width="0.2"/>
</svg>
