<svg width="51" height="50" viewBox="0 0 51 50" fill="none" xmlns="http://www.w3.org/2000/svg">
<path d="M35.4047 15.1222L35.2404 13.1921L34.8966 13.0811C32.5575 12.3269 27.643 12.9651 27.4349 12.9936L26.9219 13.0614L26.95 13.3934L24.5109 13.6236C22.4631 13.8172 20.5938 14.7897 19.2467 16.3604L17.8087 18.0384L17.054 17.3799L1.52736 34.4583L3.07614 35.7775C2.25932 36.7778 0.466196 39.3232 1.15382 41.6898C1.649 43.3934 3.29562 44.5961 6.04828 45.265C6.38885 45.3476 6.85375 45.4127 7.39271 45.4876C8.96311 45.7064 11.592 46.0712 12.1677 47.258C12.3812 47.7005 12.2996 48.4531 11.9304 49H13.1164C13.4392 47.9061 13.4494 47.4205 13.1375 46.7767C12.3088 45.067 9.55235 44.6836 7.54029 44.4031C7.02998 44.332 6.58886 44.2713 6.30019 44.2007C3.95243 43.6308 2.57069 42.683 2.1912 41.3829C1.6517 39.5338 3.20048 37.3515 3.90432 36.4836L5.73095 38.0396L13.2521 28.7992C13.624 28.3048 14.1879 27.9985 14.7998 27.9586L15.8885 27.888L16.3945 27.3132L17.5368 28.3141L21.1895 23.6138L20.3295 22.8432L20.7425 22.3739L20.1684 21.7903L20.9987 20.8212L20.0186 19.9653L21.4512 18.2938C22.3048 17.299 23.4875 16.6842 24.7823 16.5628L27.203 16.3342L27.2354 16.711L27.7738 16.664C27.9998 16.6443 33.3197 16.1707 35.0761 15.2874L35.4047 15.1222ZM15.3766 26.8248L14.7312 26.8664C13.8057 26.9265 12.9532 27.3898 12.405 28.1199L5.59148 36.4907L3.08749 34.3582L17.1405 18.8993L19.4721 20.9333L18.6936 21.8418L19.258 22.416L15.3766 26.8248ZM17.3881 26.7362L17.1141 26.4961L19.611 23.6597L19.7099 23.7484L17.3881 26.7362ZM24.6822 15.4733C23.1086 15.6216 21.6712 16.3681 20.6343 17.5774L19.2726 19.1651L18.7017 18.6641L20.0635 17.0764C21.2274 15.7195 22.8432 14.8794 24.6114 14.7126L27.0441 14.4834L27.1095 15.2447L24.6822 15.4733ZM28.2182 15.5231L28.0896 14.0174C29.314 13.8856 32.4375 13.6121 34.2268 14.0289L34.2625 14.45C32.8699 14.968 29.8389 15.3579 28.2182 15.5231ZM37.5352 11.268L38.8948 6.28878C38.9737 5.99727 39.2726 5.82826 39.5597 5.90757C39.8473 5.98797 40.0165 6.28933 39.9365 6.58029L38.5769 11.5595C38.5109 11.8018 38.2936 11.9604 38.0563 11.9604C38.0082 11.9604 37.9601 11.9539 37.9114 11.9407C37.6244 11.8603 37.4557 11.559 37.5352 11.268ZM38.9429 21.7958C38.9061 21.804 38.8683 21.8073 38.8321 21.8073C38.5812 21.8073 38.3569 21.6301 38.3034 21.3719L37.3795 16.8975C37.3184 16.6022 37.5055 16.3123 37.7979 16.2505C38.0898 16.186 38.3758 16.378 38.4374 16.6738L39.3613 21.1483C39.4224 21.4441 39.2353 21.734 38.9429 21.7958ZM36.9189 16.8653L34.4782 23.8047C34.3993 24.0289 34.1911 24.1684 33.969 24.1684C33.909 24.1684 33.8473 24.158 33.7879 24.1367C33.5062 24.0349 33.3597 23.7226 33.4597 23.4382L35.9005 16.4988C36.0005 16.2139 36.3102 16.0651 36.5908 16.1668C36.8724 16.268 37.0189 16.5809 36.9189 16.8653ZM47.5139 20.8179C47.7555 20.9951 47.8096 21.3369 47.6344 21.5814C47.529 21.7291 47.3636 21.8073 47.196 21.8073C47.0863 21.8073 46.9754 21.7734 46.8792 21.7034L39.2721 16.1264C39.0305 15.9492 38.9764 15.6073 39.1515 15.3629C39.3256 15.1189 39.6635 15.0626 39.9062 15.2409L47.5139 20.8179ZM47.0538 13.0849C47.083 13.3857 46.8646 13.6532 46.5684 13.6821L40.1716 14.3078C40.1538 14.3095 40.1365 14.3106 40.1187 14.3106C39.8435 14.3106 39.6083 14.0989 39.5813 13.8161C39.5521 13.5159 39.7705 13.2484 40.0668 13.2194L46.4635 12.5938C46.7684 12.5697 47.0252 12.7841 47.0538 13.0849ZM39.0542 11.7624L46.1537 5.30595C46.3754 5.10523 46.717 5.12218 46.9176 5.34697C47.1171 5.57176 47.0987 5.91796 46.877 6.11978L39.7775 12.5763C39.6743 12.6698 39.5445 12.7163 39.4159 12.7163C39.2683 12.7163 39.1207 12.6556 39.0137 12.5352C38.8137 12.3105 38.8326 11.9642 39.0542 11.7624ZM32.8126 3.67993C32.7051 3.39772 32.844 3.08105 33.1219 2.97276C33.4019 2.86446 33.7138 3.00393 33.8208 3.2856L36.8454 11.2166C36.953 11.4988 36.8141 11.8155 36.5362 11.9238C36.4719 11.9489 36.4065 11.9604 36.3416 11.9604C36.1248 11.9604 35.9199 11.8275 35.8372 11.6104L32.8126 3.67993ZM39.597 4.17053L40.3284 1.40526C40.4057 1.11375 40.703 0.940919 40.9906 1.01858C41.2787 1.09679 41.4501 1.39596 41.3728 1.68857L40.6414 4.45384C40.5771 4.69777 40.3587 4.85911 40.1197 4.85911C40.0732 4.85911 40.0262 4.85309 39.9792 4.84051C39.6905 4.7623 39.5197 4.46259 39.597 4.17053ZM39.9473 23.2244L40.2884 25.1217C40.3425 25.4187 40.1473 25.7031 39.8532 25.7572C39.8202 25.7638 39.7884 25.7665 39.7559 25.7665C39.4991 25.7665 39.2716 25.5817 39.2251 25.3175L38.884 23.4202C38.8299 23.1232 39.025 22.8388 39.3191 22.7847C39.6148 22.7267 39.8943 22.9269 39.9473 23.2244ZM49.9968 12.7092C50.0292 13.0094 49.8146 13.2796 49.5178 13.3124L48.4701 13.4278C48.4501 13.43 48.4307 13.4311 48.4112 13.4311C48.1388 13.4311 47.9042 13.2233 47.8744 12.9432C47.842 12.643 48.0566 12.3728 48.3534 12.34L49.401 12.2246C49.7 12.1918 49.9638 12.4094 49.9968 12.7092Z" fill="black" stroke="#F9F9F9" stroke-width="0.3"/>
</svg>
