<svg width="27" height="40" viewBox="0 0 27 40" fill="none" xmlns="http://www.w3.org/2000/svg">
<path d="M22.4642 1.00995C22.2931 1.03439 22.1332 1.1096 22.0052 1.22586L17.2534 5.54405C17.1277 5.65657 17.0377 5.80342 16.9945 5.96649C16.9513 6.12955 16.9569 6.3017 17.0104 6.46167L17.7394 8.66125L9.9637 21.3729C8.75709 21.5641 7.63842 22.2634 6.98032 23.3971L1.55353 32.7352C0.435716 34.6608 1.07122 37.0841 2.91697 38.2814L2.90348 38.2947L2.91697 38.3081C2.95825 38.3485 3.00347 38.3847 3.05197 38.4161C3.06072 38.4213 3.07017 38.4243 3.07897 38.4295C3.08342 38.434 3.08792 38.4385 3.09246 38.4429C5.0897 39.5897 7.65935 38.9109 8.81624 36.918L14.243 27.5799C14.7598 26.6898 14.9117 25.6847 14.756 24.7596C14.4862 23.1567 13.3681 21.9646 11.9076 21.5074L19.4403 9.22759C19.5065 9.1195 19.548 8.99819 19.562 8.87225C19.576 8.74632 19.5621 8.61886 19.5213 8.49889L18.8329 6.44775L22.7207 2.91223L24.1922 3.64092L23.1527 8.87673L21.1413 9.21409C21.0142 9.23618 20.8937 9.28641 20.7886 9.36113C20.6834 9.43586 20.5964 9.53317 20.5338 9.64591C17.9897 14.1671 17.3684 15.0177 14.81 19.5642C14.7385 19.663 14.6888 19.7758 14.6641 19.8952C14.6393 20.0146 14.6402 20.1378 14.6665 20.2569C14.6928 20.3759 14.7441 20.4881 14.8169 20.5859C14.8897 20.6837 14.9823 20.765 15.0888 20.8245C15.1953 20.8839 15.3132 20.9202 15.4346 20.9308C15.5561 20.9415 15.6785 20.9263 15.7937 20.8863C15.9089 20.8463 16.0144 20.7823 16.1031 20.6987C16.1918 20.615 16.2618 20.5135 16.3085 20.4009C18.7585 16.047 19.4987 14.9845 21.8297 10.8604L24.0302 10.4961C24.2033 10.4663 24.3632 10.3844 24.4886 10.2615C24.614 10.1385 24.699 9.98029 24.7321 9.80785L26.0281 3.33055C26.066 3.14457 26.0417 2.95124 25.9587 2.7805C25.8757 2.60976 25.7388 2.4711 25.5691 2.38595L22.9772 1.09049C22.8186 1.01156 22.6395 0.983291 22.4642 1.00952L22.4642 1.00995ZM10.6657 23.0327C12.0141 23.0802 12.8225 23.7551 13.0416 25.0569C13.1359 25.6173 13.0634 26.1908 12.7581 26.7167L7.3313 36.0548C6.6461 37.2352 5.17308 37.6367 3.98343 36.9724C3.97451 36.9678 3.96551 36.9633 3.95644 36.959C3.95198 36.9545 3.94749 36.95 3.94294 36.9456C2.74765 36.2593 2.34731 34.7897 3.03847 33.599L8.46526 24.2609C8.94043 23.4424 9.79141 23.0104 10.6657 23.0329L10.6657 23.0327Z" fill="black" stroke="#F9F9F9"/>
</svg>
