<svg width="74" height="74" viewBox="0 0 74 74" fill="none" xmlns="http://www.w3.org/2000/svg">
<path d="M73.6362 71.869L2.13642 0.367481C1.77983 0.0117981 1.23556 -0.100523 0.772616 0.0960387C0.306544 0.28948 0 0.745003 0 1.25045V72.6209C0 72.6428 0 72.6646 0 72.6865C0 72.7083 0 72.7302 0 72.752C0 73.4415 0.559912 74 1.2512 74H72.7479C73.2546 74 73.7113 73.6942 73.9021 73.2294C74.0992 72.7614 73.9928 72.2247 73.6362 71.869ZM3.96317 68.696H1.2512C0.991576 68.696 0.782 68.4869 0.782 68.228C0.782 67.969 0.991576 67.76 1.2512 67.76H3.96005C4.21967 67.76 4.42925 67.969 4.42925 68.228C4.42925 68.4869 4.2228 68.696 3.96317 68.696ZM6.12462 72.7489C6.12462 73.0078 5.91505 73.2169 5.65542 73.2169C5.3958 73.2169 5.18622 73.0078 5.18622 72.7489V70.0469C5.18622 69.788 5.3958 69.5789 5.65542 69.5789C5.91505 69.5789 6.12462 69.788 6.12462 70.0469V72.7489ZM5.78367 63.5978H1.2512C0.991576 63.5978 0.782 63.3888 0.782 63.1298C0.782 62.8709 0.991576 62.6618 1.2512 62.6618H5.78367C6.04329 62.6618 6.25287 62.8709 6.25287 63.1298C6.25287 63.3888 6.04329 63.5978 5.78367 63.5978ZM0.782 58.0286C0.782 57.7696 0.991576 57.5606 1.2512 57.5606H3.96005C4.21967 57.5606 4.42925 57.7696 4.42925 58.0286C4.42925 58.2876 4.21967 58.4966 3.96005 58.4966H1.2512C0.991576 58.4997 0.782 58.2876 0.782 58.0286ZM5.78367 53.3985H1.2512C0.991576 53.3985 0.782 53.1895 0.782 52.9305C0.782 52.6715 0.991576 52.4625 1.2512 52.4625H5.78367C6.04329 52.4625 6.25287 52.6715 6.25287 52.9305C6.25287 53.1895 6.04329 53.3985 5.78367 53.3985ZM0.782 47.8324C0.782 47.5734 0.991576 47.3644 1.2512 47.3644H3.96005C4.21967 47.3644 4.42925 47.5734 4.42925 47.8324C4.42925 48.0913 4.21967 48.3004 3.96005 48.3004H1.2512C0.991576 48.3004 0.782 48.0913 0.782 47.8324ZM5.78367 43.1991H1.2512C0.991576 43.1991 0.782 42.9901 0.782 42.7311C0.782 42.4722 0.991576 42.2631 1.2512 42.2631H5.78367C6.04329 42.2631 6.25287 42.4722 6.25287 42.7311C6.25287 42.9901 6.04329 43.1991 5.78367 43.1991ZM0.782 37.6299C0.782 37.3709 0.991576 37.1619 1.2512 37.1619H3.96005C4.21967 37.1619 4.42925 37.3709 4.42925 37.6299C4.42925 37.8889 4.21967 38.0979 3.96005 38.0979H1.2512C0.991576 38.0979 0.782 37.8889 0.782 37.6299ZM5.78367 32.9998H1.2512C0.991576 32.9998 0.782 32.7908 0.782 32.5318C0.782 32.2728 0.991576 32.0638 1.2512 32.0638H5.78367C6.04329 32.0638 6.25287 32.2728 6.25287 32.5318C6.25287 32.7908 6.04329 32.9998 5.78367 32.9998ZM0.782 27.4306C0.782 27.1716 0.991576 26.9625 1.2512 26.9625H3.96005C4.21967 26.9625 4.42925 27.1716 4.42925 27.4306C4.42925 27.6895 4.21967 27.8986 3.96005 27.8986H1.2512C0.991576 27.8986 0.782 27.6895 0.782 27.4306ZM5.78367 22.8004H1.2512C0.991576 22.8004 0.782 22.5914 0.782 22.3324C0.782 22.0735 0.991576 21.8644 1.2512 21.8644H5.78367C6.04329 21.8644 6.25287 22.0735 6.25287 22.3324C6.25287 22.5914 6.04329 22.8004 5.78367 22.8004ZM0.782 17.2312C0.782 16.9722 0.991576 16.7632 1.2512 16.7632H3.96005C4.21967 16.7632 4.42925 16.9722 4.42925 17.2312C4.42925 17.4902 4.21967 17.6992 3.96005 17.6992H1.2512C0.991576 17.6992 0.782 17.4902 0.782 17.2312ZM5.78367 12.6011H1.2512C0.991576 12.6011 0.782 12.392 0.782 12.1331C0.782 11.8741 0.991576 11.6651 1.2512 11.6651H5.78367C6.04329 11.6651 6.25287 11.8741 6.25287 12.1331C6.25287 12.392 6.04329 12.6011 5.78367 12.6011ZM11.2389 72.7489C11.2389 73.0078 11.0293 73.2169 10.7697 73.2169C10.5101 73.2169 10.3005 73.0078 10.3005 72.7489V68.228C10.3005 67.969 10.5101 67.76 10.7697 67.76C11.0293 67.76 11.2389 67.969 11.2389 68.228V72.7489ZM16.35 72.7489C16.35 73.0078 16.1405 73.2169 15.8809 73.2169C15.6212 73.2169 15.4117 73.0078 15.4117 72.7489V70.0469C15.4117 69.788 15.6212 69.5789 15.8809 69.5789C16.1405 69.5789 16.35 69.788 16.35 70.0469V72.7489ZM21.4643 72.7489C21.4643 73.0078 21.2548 73.2169 20.9951 73.2169C20.7355 73.2169 20.5259 73.0078 20.5259 72.7489V68.228C20.5259 67.969 20.7355 67.76 20.9951 67.76C21.2548 67.76 21.4643 67.969 21.4643 68.228V72.7489ZM26.5755 72.7489C26.5755 73.0078 26.3659 73.2169 26.1063 73.2169C25.8467 73.2169 25.6371 73.0078 25.6371 72.7489V70.0469C25.6371 69.788 25.8467 69.5789 26.1063 69.5789C26.3659 69.5789 26.5755 69.788 26.5755 70.0469V72.7489ZM31.6898 72.7489C31.6898 73.0078 31.4802 73.2169 31.2206 73.2169C30.9609 73.2169 30.7514 73.0078 30.7514 72.7489V68.228C30.7514 67.969 30.9609 67.76 31.2206 67.76C31.4802 67.76 31.6898 67.969 31.6898 68.228V72.7489ZM36.8009 72.7489C36.8009 73.0078 36.5913 73.2169 36.3317 73.2169C36.0721 73.2169 35.8625 73.0078 35.8625 72.7489V70.0469C35.8625 69.788 36.0721 69.5789 36.3317 69.5789C36.5913 69.5789 36.8009 69.788 36.8009 70.0469V72.7489ZM39.7099 56.9335C39.5129 57.3984 39.0593 57.7041 38.5526 57.7041H18.23C17.5387 57.7041 16.9788 57.1425 16.9788 56.4561C16.9788 56.4499 16.9788 56.4436 16.9788 56.4374C16.9788 56.4312 16.9788 56.4249 16.9788 56.4187V36.1261C16.9788 35.6206 17.2853 35.1651 17.7514 34.9716C18.2175 34.7751 18.7555 34.8843 19.1152 35.2431L39.4441 55.5732C39.7975 55.9288 39.9039 56.4655 39.7099 56.9335ZM41.9152 72.7489C41.9152 73.0078 41.7056 73.2169 41.446 73.2169C41.1864 73.2169 40.9768 73.0078 40.9768 72.7489V68.228C40.9768 67.969 41.1864 67.76 41.446 67.76C41.7056 67.76 41.9152 67.969 41.9152 68.228V72.7489ZM47.0295 72.7489C47.0295 73.0078 46.8199 73.2169 46.5603 73.2169C46.3006 73.2169 46.0911 73.0078 46.0911 72.7489V70.0469C46.0911 69.788 46.3006 69.5789 46.5603 69.5789C46.8199 69.5789 47.0295 69.788 47.0295 70.0469V72.7489ZM52.1406 72.7489C52.1406 73.0078 51.931 73.2169 51.6714 73.2169C51.4118 73.2169 51.2022 73.0078 51.2022 72.7489V68.228C51.2022 67.969 51.4118 67.76 51.6714 67.76C51.931 67.76 52.1406 67.969 52.1406 68.228V72.7489ZM57.2549 72.7489C57.2549 73.0078 57.0453 73.2169 56.7857 73.2169C56.5261 73.2169 56.3165 73.0078 56.3165 72.7489V70.0469C56.3165 69.788 56.5261 69.5789 56.7857 69.5789C57.0453 69.5789 57.2549 69.788 57.2549 70.0469V72.7489ZM62.366 72.7489C62.366 73.0078 62.1565 73.2169 61.8968 73.2169C61.6372 73.2169 61.4276 73.0078 61.4276 72.7489V68.228C61.4276 67.969 61.6372 67.76 61.8968 67.76C62.1565 67.76 62.366 67.969 62.366 68.228V72.7489Z" fill="black"/>
</svg>
