<svg width="72" height="72" viewBox="0 0 72 72" fill="none" xmlns="http://www.w3.org/2000/svg">
<path d="M34.5 28.5H27V60H34.5V28.5Z" fill="black"/>
<path d="M45 28.5H37.5V60H45V28.5Z" fill="black"/>
<path d="M42.6002 21H29.4002L27.4502 25.5H44.5502L42.6002 21Z" fill="black"/>
<path d="M27 67.5C27 70.05 29.1 72 31.5 72H40.5C43.05 72 45 70.05 45 67.5V63H27V67.5Z" fill="black"/>
<path d="M70.5 21H64.95L40.5 6.6V1.5C40.5 0.6 39.9 0 39 0H33C32.25 0 31.5 0.6 31.5 1.5V6.6L7.05 21H1.5C0.75 21 0 21.6 0 22.5V28.5C0 29.4 0.75 30 1.5 30H7.5C8.4 30 9 29.4 9 28.5V23.4L33.45 9H34.35L30.6 18H41.4L37.65 9H38.55L63 23.4V28.5C63 29.4 63.75 30 64.5 30H70.5C71.4 30 72 29.4 72 28.5V22.5C72 21.6 71.4 21 70.5 21Z" fill="black"/>
</svg>
