<svg width="77" height="65" viewBox="0 0 77 65" fill="none" xmlns="http://www.w3.org/2000/svg">
<path d="M51.9935 0.00858998C47.1335 -0.204128 43.0269 3.5598 42.8141 8.41685C42.7817 9.12296 42.8378 9.83202 42.9766 10.5293L50.5488 48.4817C51.9847 55.6668 58.9748 60.323 66.157 58.8842C73.3392 57.4454 77.9983 50.4552 76.5595 43.276C76.3586 42.2863 76.0454 41.3202 75.6318 40.3984L59.6218 5.16109C58.251 2.14463 55.3025 0.153356 51.9935 0.00858998ZM51.5208 5.91151C53.1191 5.86424 54.4516 7.12282 54.4989 8.72116C54.4989 8.74775 54.4989 8.77729 54.4989 8.80388C54.4989 10.4022 53.2048 11.6963 51.6065 11.6963C50.0081 11.6963 48.7141 10.4022 48.7141 8.80388C48.7082 7.23804 49.955 5.95583 51.5208 5.91151ZM63.3414 38.5253C67.4037 38.4101 70.7865 41.6067 70.9047 45.6661C70.9077 45.737 70.9077 45.8109 70.9077 45.8818C70.9077 49.9441 67.6194 53.2383 63.5541 53.2412C59.4918 53.2442 56.1947 49.95 56.1947 45.8877V45.8818C56.1917 41.8992 59.3618 38.6346 63.3414 38.5253Z" fill="black"/>
<path d="M39.8568 8.32876L15.8522 33.3202C12.6732 36.6143 12.7648 41.8614 16.059 45.0403C19.3088 48.1809 24.4731 48.1395 27.6698 44.9487L43.6591 29.0865L42.9678 25.6121L40.2852 12.1488L40.0784 11.103C39.8922 10.193 39.8213 9.25941 39.8568 8.32876ZM21.7669 36.6793C23.0816 36.6439 24.1747 37.6779 24.2132 38.9926C24.2132 39.0163 24.2132 39.0399 24.2132 39.0606C24.2427 40.3753 23.1998 41.4625 21.8851 41.4921C20.5704 41.5216 19.4831 40.4787 19.4536 39.164C19.4536 39.1285 19.4536 39.096 19.4536 39.0606C19.4506 37.7725 20.4788 36.7148 21.7669 36.6793Z" fill="black"/>
<path d="M0.244087 54.828C0.444987 55.6198 1.24563 56.0984 2.03742 55.8946C2.82329 55.6996 3.30191 54.9019 3.10987 54.113C2.40081 51.2532 4.14391 48.3608 7.00379 47.6517C9.86366 46.9427 12.756 48.6858 13.468 51.5427C14.1771 54.4026 12.431 57.2979 9.57413 58.007C8.75871 58.2079 7.90784 58.2167 7.08947 58.0276C6.29473 57.8415 5.50294 58.3379 5.31682 59.1355C5.13364 59.9303 5.62998 60.7221 6.42472 60.9082C10.8859 61.9363 15.3382 59.1533 16.3663 54.6921C17.3945 50.2309 14.6144 45.7786 10.1502 44.7505C5.68907 43.7224 1.23972 46.5054 0.208634 50.9666C-0.0808989 52.237 -0.069081 53.5606 0.244087 54.828Z" fill="black"/>
<path d="M67.9506 45.8821C67.9506 43.4536 65.98 41.483 63.5515 41.483C61.1229 41.483 59.1523 43.4536 59.1523 45.8821C59.1523 48.3106 61.1229 50.2842 63.5515 50.2842C65.98 50.2842 67.9506 48.3136 67.9506 45.8821Z" fill="black"/>
<path d="M50.2241 62.0456H76.8139V65H50.2241V62.0456Z" fill="black"/>
</svg>
