<svg width="67" height="69" viewBox="0 0 67 69" fill="none" xmlns="http://www.w3.org/2000/svg">
<path d="M11.2646 53.066L17.8846 47.9409V42.0684L11.2646 47.1935V53.066Z" fill="black"/>
<path d="M11.2646 24.2373L17.8846 19.1122V13.2397L11.2646 18.3648V24.2373Z" fill="black"/>
<path d="M11.2646 45.9123L17.8846 40.7872V34.9147L11.2646 40.0398V45.9123Z" fill="black"/>
<path d="M11.2646 38.6517L17.8846 33.5266V27.6541L11.2646 32.7792V38.6517Z" fill="black"/>
<path d="M11.2646 31.498L17.8846 26.2661V20.5003L11.2646 25.6254V31.498Z" fill="black"/>
<path d="M26.5332 57.1235H34.1141L42.7627 50.3968H35.1818L26.5332 57.1235Z" fill="black"/>
<path d="M43.4033 51.251L35.9292 57.1235H43.4033V51.251Z" fill="black"/>
<path d="M17.2437 57.1235H24.7178L33.3664 50.3968H25.7855L17.2437 57.1235Z" fill="black"/>
<path d="M17.8846 49.329L11.2646 54.4541V57.1235H15.4288L24.0774 50.5035H18.5252C18.2049 50.5035 17.9913 50.29 17.9913 49.9697V49.329H17.8846Z" fill="black"/>
<path d="M17.8846 11.1043H11.2646V17.0836L17.8846 11.8517V11.1043Z" fill="black"/>
<path d="M10.1967 11.1043H7.52734V57.1234H10.1967V11.1043Z" fill="black"/>
<path d="M7.52734 60.8606H47.1401V58.1912C34.6477 58.1912 15.3218 58.1912 7.52734 58.1912V60.8606Z" fill="black"/>
<path d="M17.8843 7.26061H7.52734V9.92993C8.16798 9.92993 17.8843 9.92993 17.9911 9.92993V7.26061H17.8843Z" fill="black"/>
<path d="M47.14 50.3968H44.4707V57.0167H47.14V50.3968Z" fill="black"/>
<path d="M43.9372 64.1706C43.6169 64.1706 43.4033 64.3842 43.4033 64.7045V67.8009C43.4033 68.1212 43.6169 68.3348 43.9372 68.3348C44.2575 68.3348 44.471 68.1212 44.471 67.8009V64.7045C44.471 64.3842 44.2575 64.1706 43.9372 64.1706Z" fill="black"/>
<path d="M10.7306 64.1706C10.4103 64.1706 10.1968 64.3842 10.1968 64.7045V67.8009C10.1968 68.1212 10.4103 68.3348 10.7306 68.3348C11.051 68.3348 11.2645 68.1212 11.2645 67.8009V64.7045C11.2645 64.3842 11.051 64.1706 10.7306 64.1706Z" fill="black"/>
<path d="M41.161 65.8788L39.6662 64.384C39.4527 64.1704 39.1323 64.1704 38.9188 64.384C38.7052 64.5975 38.7052 64.9178 38.9188 65.1314L39.5594 65.772H15.2152L15.8558 65.1314C16.0694 64.9178 16.0694 64.5975 15.8558 64.384C15.6423 64.1704 15.322 64.1704 15.1084 64.384L13.6136 65.8788C13.5068 65.8788 13.5068 65.9856 13.5068 66.0923V66.1991V66.3059C13.5068 66.4126 13.5068 66.6262 13.6136 66.733L15.1084 68.2278C15.2152 68.3346 15.322 68.3346 15.4287 68.3346C15.5355 68.3346 15.7491 68.3346 15.8558 68.2278C16.0694 68.0142 16.0694 67.6939 15.8558 67.4804L15.2152 66.8397H39.4527L38.812 67.3736C38.5985 67.5871 38.5985 67.9075 38.812 68.121C38.9188 68.2278 39.0256 68.2278 39.2391 68.2278C39.3459 68.2278 39.5594 68.121 39.6662 68.0142L41.161 66.5194C41.2678 66.4126 41.2678 66.4126 41.2678 66.3059C41.2678 66.1991 41.2678 66.1991 41.2678 66.0923C41.2678 66.0923 41.2678 65.9856 41.161 65.8788Z" fill="black"/>
<path d="M3.6835 57.1235H0.587087C0.266768 57.1235 0.0532227 57.3371 0.0532227 57.6574C0.0532227 57.9777 0.266768 58.1912 0.587087 58.1912H3.6835C4.00382 58.1912 4.21737 57.9777 4.21737 57.6574C4.21737 57.3371 3.89705 57.1235 3.6835 57.1235Z" fill="black"/>
<path d="M0.587087 11.1043H3.6835C4.00382 11.1043 4.21737 10.8907 4.21737 10.5704C4.21737 10.2501 4.00382 10.0365 3.6835 10.0365H0.587087C0.266768 10.0365 0.0532227 10.2501 0.0532227 10.5704C0.0532227 10.784 0.266768 11.1043 0.587087 11.1043Z" fill="black"/>
<path d="M3.25657 15.5889C3.47012 15.8025 3.79044 15.8025 4.00398 15.5889C4.21753 15.3754 4.21753 15.0551 4.00398 14.8415L2.50916 13.3467C2.29562 13.1332 1.9753 13.1332 1.76175 13.3467L0.266932 14.8415C0.0533866 15.0551 0.0533866 15.3754 0.266932 15.5889C0.480478 15.8025 0.800797 15.8025 1.01434 15.5889L1.54821 14.9483V53.0662L0.90757 52.4256C0.694024 52.3188 0.373705 52.3188 0.160159 52.5324C-0.0533865 52.7459 -0.0533865 53.0662 0.160159 53.2798L1.65498 54.7746C1.86853 54.9882 2.18884 54.9882 2.40239 54.7746L3.89721 53.2798C4.11076 53.0662 4.11076 52.7459 3.89721 52.5324C3.68367 52.3188 3.36335 52.3188 3.1498 52.5324L2.50916 53.173V14.9483L3.25657 15.5889Z" fill="black"/>
<path d="M58.2446 15.4821C53.4399 15.4821 49.4893 19.4327 49.4893 24.2375C49.4893 29.0422 53.4399 32.9928 58.2446 32.9928C63.0494 32.9928 67 29.0422 67 24.2375C66.8932 19.4327 63.0494 15.4821 58.2446 15.4821ZM62.1952 21.0343L55.8956 27.2271H58.0311C58.3514 27.2271 58.565 27.4406 58.565 27.761C58.565 28.0813 58.3514 28.2948 58.0311 28.2948H54.6144C54.294 28.2948 54.0805 28.0813 54.0805 27.761V24.3442C54.0805 24.0239 54.294 23.8104 54.6144 23.8104C54.9347 23.8104 55.1482 24.0239 55.1482 24.3442V26.4797L61.4478 20.1801C61.6614 19.9665 61.9817 19.9665 62.1952 20.1801C62.4088 20.5004 62.4088 20.8207 62.1952 21.0343Z" fill="black"/>
<path d="M57.711 14.4143V0H38.9189V22.4223H48.5285C49.3827 18.0446 53.1197 14.7347 57.711 14.4143ZM45.7524 10.7841L47.6743 8.86215C47.8879 8.64861 48.2082 8.64861 48.4217 8.86215C48.6353 9.0757 48.6353 9.39602 48.4217 9.60956L46.4998 11.5315C46.2863 11.745 45.966 11.745 45.7524 11.5315C45.5389 11.3179 45.5389 10.9976 45.7524 10.7841ZM46.2863 15.3753C46.0727 15.1618 46.0727 14.8414 46.2863 14.6279L51.5182 9.39602C51.7317 9.18247 52.052 9.18247 52.2656 9.39602C52.4791 9.60956 52.4791 9.92988 52.2656 10.1434L47.0337 15.3753C46.8201 15.5888 46.4998 15.5888 46.2863 15.3753Z" fill="black"/>
<path d="M37.8508 0H19.1655V22.4223H37.8508V0Z" fill="black"/>
<path d="M48.4217 24.2376C48.4217 24.024 48.4217 23.8105 48.4217 23.5969H38.9189V49.2224H57.6042V33.9539C52.4791 33.7403 48.4217 29.4694 48.4217 24.2376Z" fill="black"/>
<path d="M37.8508 23.5969H19.1655V49.2224H37.8508V23.5969ZM28.2412 33.0997L30.1631 31.1778C30.3767 30.9642 30.697 30.9642 30.9105 31.1778C31.1241 31.3913 31.1241 31.7117 30.9105 31.9252L28.9886 33.8471C28.8819 33.9539 28.7751 33.9539 28.5615 33.9539C28.4548 33.9539 28.2412 33.9539 28.1345 33.8471C28.0277 33.6336 28.0277 33.3133 28.2412 33.0997ZM34.6476 32.4591L29.4157 37.6909C29.309 37.7977 29.2022 37.7977 28.9886 37.7977C28.8819 37.7977 28.6683 37.7977 28.5615 37.6909C28.348 37.4774 28.348 37.1571 28.5615 36.9435L33.7934 31.7117C34.007 31.4981 34.3273 31.4981 34.5408 31.7117C34.8611 31.9252 34.8611 32.2455 34.6476 32.4591Z" fill="black"/>
</svg>
