<svg width="24" height="24" viewBox="0 0 24 24" fill="none" xmlns="http://www.w3.org/2000/svg">
<path fill-rule="evenodd" clip-rule="evenodd" d="M7 7V4C7 2.89543 7.89543 2 9 2H15C16.1046 2 17 2.89543 17 4V7V11H22L12 19.5847L2 11H7V7ZM15 4V7V11V13H16.2967L12 16.9505L7.70326 13H9V11V7V4H15ZM19 22C20.1046 22 21 21.1046 21 20H3C3 21.1046 3.89543 22 5 22H19Z" fill="black"/>
<path d="M17 11H16.5V11.5H17V11ZM22 11L22.3257 11.3794L23.35 10.5H22V11ZM12 19.5847L11.6743 19.964L12 20.2436L12.3257 19.964L12 19.5847ZM2 11V10.5H0.649952L1.67432 11.3794L2 11ZM7 11V11.5H7.5V11H7ZM15 4H15.5V3.5H15V4ZM15 13H14.5V13.5H15V13ZM16.2967 13L16.6352 13.3681L17.5793 12.5H16.2967V13ZM12 16.9505L11.6616 17.3186L12 17.6297L12.3384 17.3186L12 16.9505ZM7.70326 13V12.5H6.42069L7.36485 13.3681L7.70326 13ZM9 13V13.5H9.5V13H9ZM9 4V3.5H8.5V4H9ZM21 20H21.5V19.5H21V20ZM3 20V19.5H2.5V20H3ZM6.5 4V7H7.5V4H6.5ZM9 1.5C7.61929 1.5 6.5 2.61929 6.5 4H7.5C7.5 3.17157 8.17157 2.5 9 2.5V1.5ZM15 1.5H9V2.5H15V1.5ZM17.5 4C17.5 2.61929 16.3807 1.5 15 1.5V2.5C15.8284 2.5 16.5 3.17157 16.5 4H17.5ZM17.5 7V4H16.5V7H17.5ZM17.5 11V7H16.5V11H17.5ZM22 10.5H17V11.5H22V10.5ZM12.3257 19.964L22.3257 11.3794L21.6743 10.6206L11.6743 19.2053L12.3257 19.964ZM1.67432 11.3794L11.6743 19.964L12.3257 19.2053L2.32568 10.6206L1.67432 11.3794ZM7 10.5H2V11.5H7V10.5ZM6.5 7V11H7.5V7H6.5ZM15.5 7V4H14.5V7H15.5ZM15.5 11V7H14.5V11H15.5ZM15.5 13V11H14.5V13H15.5ZM16.2967 12.5H15V13.5H16.2967V12.5ZM12.3384 17.3186L16.6352 13.3681L15.9583 12.6319L11.6616 16.5824L12.3384 17.3186ZM7.36485 13.3681L11.6616 17.3186L12.3384 16.5824L8.04167 12.6319L7.36485 13.3681ZM9 12.5H7.70326V13.5H9V12.5ZM8.5 11V13H9.5V11H8.5ZM8.5 7V11H9.5V7H8.5ZM8.5 4V7H9.5V4H8.5ZM15 3.5H9V4.5H15V3.5ZM20.5 20C20.5 20.8284 19.8284 21.5 19 21.5V22.5C20.3807 22.5 21.5 21.3807 21.5 20H20.5ZM3 20.5H21V19.5H3V20.5ZM5 21.5C4.17157 21.5 3.5 20.8284 3.5 20H2.5C2.5 21.3807 3.61929 22.5 5 22.5V21.5ZM19 21.5H5V22.5H19V21.5Z" fill="white"/>
</svg>
