<svg width="37" height="24" viewBox="0 0 37 24" fill="none" xmlns="http://www.w3.org/2000/svg">
<g id="logofz copy 4">
<g id="Group">
<path id="Path" fill-rule="evenodd" clip-rule="evenodd" d="M20.301 23.054V19.9269H13.8686C13.2337 19.9269 12.7187 19.412 12.7187 18.7771V11.3164C12.7187 10.6811 13.2337 10.1662 13.8686 10.1662H20.301V7.03906H1V10.1662H7.20535C7.84063 10.1662 8.35517 10.6811 8.35517 11.3164V18.7771C8.35517 19.412 7.84063 19.9269 7.20535 19.9269H1V23.054H20.301Z" stroke="white" stroke-linecap="round" stroke-linejoin="round"/>
<path id="Path_2" d="M1.39209 6.74911L12.069 1H20.3013V7.03903" stroke="white" stroke-linecap="round" stroke-linejoin="round"/>
<path id="Path_3" d="M20.3013 19.9269V15.7317H17.5548C17.1816 15.7317 16.8789 15.4295 16.8789 15.0562V10.4109" stroke="white" stroke-linecap="round" stroke-linejoin="round"/>
<path id="Path_4" d="M13.0767 19.6077L16.8785 15.7319" stroke="white" stroke-linecap="round" stroke-linejoin="round"/>
<path id="Path_5" d="M1 19.9269L8.35763 15.7317H8.35517" stroke="white" stroke-linecap="round" stroke-linejoin="round"/>
</g>
<path id="Path_6" d="M21.6611 7.03928V1.00024H23.9637L25.357 7.03928" stroke="white"/>
<path id="Path_7" fill-rule="evenodd" clip-rule="evenodd" d="M25.506 19.9269H25.3565V7.03906H21.6606V23.054H25.3565H35.9998V19.9269H25.506Z" stroke="white"/>
<path id="Path_8" d="M36.0001 19.9271L31.1832 15.7319H25.5063" stroke="white"/>
</g>
</svg>
