<svg width="22" height="22" viewBox="0 0 22 22" fill="none" xmlns="http://www.w3.org/2000/svg">
<path fill-rule="evenodd" clip-rule="evenodd" d="M9 17C4.58172 17 1 13.4183 1 9C1 4.58172 4.58172 1 9 1C13.4183 1 17 4.58172 17 9C17 10.8487 16.3729 12.551 15.3199 13.9056L20.7071 19.2929L19.2929 20.7071L13.9056 15.3199C12.551 16.3729 10.8487 17 9 17ZM15 9C15 12.3137 12.3137 15 9 15C5.68629 15 3 12.3137 3 9C3 5.68629 5.68629 3 9 3C12.3137 3 15 5.68629 15 9Z" fill="black"/>
<path d="M15.3199 13.9056L14.9251 13.5988L14.6543 13.9472L14.9663 14.2592L15.3199 13.9056ZM20.7071 19.2929L21.0607 19.6464L21.4142 19.2929L21.0607 18.9393L20.7071 19.2929ZM19.2929 20.7071L18.9393 21.0607L19.2929 21.4142L19.6464 21.0607L19.2929 20.7071ZM13.9056 15.3199L14.2592 14.9663L13.9472 14.6543L13.5988 14.9251L13.9056 15.3199ZM0.5 9C0.5 13.6944 4.30558 17.5 9 17.5V16.5C4.85786 16.5 1.5 13.1421 1.5 9H0.5ZM9 0.5C4.30558 0.5 0.5 4.30558 0.5 9H1.5C1.5 4.85786 4.85786 1.5 9 1.5V0.5ZM17.5 9C17.5 4.30558 13.6944 0.5 9 0.5V1.5C13.1421 1.5 16.5 4.85786 16.5 9H17.5ZM15.7146 14.2125C16.8335 12.7732 17.5 10.9637 17.5 9H16.5C16.5 10.7337 15.9124 12.3287 14.9251 13.5988L15.7146 14.2125ZM21.0607 18.9393L15.6734 13.5521L14.9663 14.2592L20.3536 19.6464L21.0607 18.9393ZM19.6464 21.0607L21.0607 19.6464L20.3536 18.9393L18.9393 20.3536L19.6464 21.0607ZM13.5521 15.6734L18.9393 21.0607L19.6464 20.3536L14.2592 14.9663L13.5521 15.6734ZM9 17.5C10.9637 17.5 12.7732 16.8335 14.2125 15.7146L13.5988 14.9251C12.3287 15.9124 10.7337 16.5 9 16.5V17.5ZM9 15.5C12.5899 15.5 15.5 12.5899 15.5 9H14.5C14.5 12.0376 12.0376 14.5 9 14.5V15.5ZM2.5 9C2.5 12.5899 5.41015 15.5 9 15.5V14.5C5.96243 14.5 3.5 12.0376 3.5 9H2.5ZM9 2.5C5.41015 2.5 2.5 5.41015 2.5 9H3.5C3.5 5.96243 5.96243 3.5 9 3.5V2.5ZM15.5 9C15.5 5.41015 12.5899 2.5 9 2.5V3.5C12.0376 3.5 14.5 5.96243 14.5 9H15.5Z" fill="white"/>
</svg>
