<svg width="18" height="18" viewBox="0 0 18 18" fill="none" xmlns="http://www.w3.org/2000/svg">
<mask id="mask0" mask-type="alpha" maskUnits="userSpaceOnUse" x="3" y="3" width="12" height="12">
<path fill-rule="evenodd" clip-rule="evenodd" d="M5.7721 8.27398C6.6361 9.97198 8.0281 11.358 9.7261 12.228L11.0461 10.908C11.2081 10.746 11.4481 10.692 11.6581 10.764C12.3301 10.986 13.0561 11.106 13.8001 11.106C14.1301 11.106 14.4001 11.376 14.4001 11.706V13.8C14.4001 14.13 14.1301 14.4 13.8001 14.4C8.1661 14.4 3.6001 9.83398 3.6001 4.19998C3.6001 3.86998 3.8701 3.59998 4.2001 3.59998H6.3001C6.6301 3.59998 6.9001 3.86998 6.9001 4.19998C6.9001 4.94998 7.0201 5.66998 7.2421 6.34198C7.3081 6.55198 7.2601 6.78598 7.0921 6.95398L5.7721 8.27398Z" fill="white"/>
</mask>
<g mask="url(#mask0)">
<rect x="1.2002" y="1.20001" width="15.6" height="15.6" fill="#D8D8D8"/>
</g>
</svg>
