<svg width="18" height="18" viewBox="0 0 18 18" fill="none" xmlns="http://www.w3.org/2000/svg">
<mask id="mask0" mask-type="alpha" maskUnits="userSpaceOnUse" x="3" y="3" width="12" height="12">
<path fill-rule="evenodd" clip-rule="evenodd" d="M5.7721 8.2741C6.6361 9.9721 8.0281 11.3581 9.7261 12.2281L11.0461 10.9081C11.2081 10.7461 11.4481 10.6921 11.6581 10.7641C12.3301 10.9861 13.0561 11.1061 13.8001 11.1061C14.1301 11.1061 14.4001 11.3761 14.4001 11.7061V13.8001C14.4001 14.1301 14.1301 14.4001 13.8001 14.4001C8.1661 14.4001 3.6001 9.8341 3.6001 4.2001C3.6001 3.8701 3.8701 3.6001 4.2001 3.6001H6.3001C6.6301 3.6001 6.9001 3.8701 6.9001 4.2001C6.9001 4.9501 7.0201 5.6701 7.2421 6.3421C7.3081 6.5521 7.2601 6.7861 7.0921 6.9541L5.7721 8.2741Z" fill="white"/>
</mask>
<g mask="url(#mask0)">
<rect x="1.2002" y="1.19995" width="15.6" height="15.6" fill="white"/>
</g>
</svg>
