<svg width="74" height="69" viewBox="0 0 74 69" fill="none" xmlns="http://www.w3.org/2000/svg">
<path fill-rule="evenodd" clip-rule="evenodd" d="M55.5595 68.3934H41.0347C41.0347 50.6936 40.1853 46.4835 47.1504 42.0155L58.8722 35.0559C62.2698 32.9938 65.1578 38.4068 62.015 40.2971L50.8028 46.999C49.7836 47.6864 50.633 49.3189 51.7372 48.5456L64.1385 41.0704C65.3277 40.383 65.8373 37.4617 65.9223 36.1729L67.706 20.9648C68.4705 16.8406 74.841 17.442 73.9067 21.9959C73.397 28.1822 72.9723 34.3685 72.3777 40.5549C72.1229 42.7029 71.0187 46.1398 68.4705 48.2019L58.2776 57.3095C56.1541 59.4576 55.5595 59.6294 55.5595 62.9804V68.3934ZM20.8188 14.0911L23.1122 2.31988L34.6641 0L53.2661 18.7309L39.3359 32.822L20.8188 14.0911ZM28.0388 7.30332C29.4827 5.84265 31.7761 5.84265 33.2201 7.30332C34.6641 8.76398 34.6641 11.0839 33.2201 12.5445C31.7761 14.0052 29.4827 14.0052 28.0388 12.5445C26.5948 11.0839 26.5948 8.76398 28.0388 7.30332ZM18.4405 68.3934H32.9653C32.9653 50.6936 33.8997 46.4835 26.8496 42.0155L15.2127 35.0559C11.8151 32.9938 8.84219 38.4068 11.985 40.2971L23.1971 46.999C24.2164 47.6864 23.452 49.3189 22.2628 48.5456L9.86147 41.0704C8.75725 40.383 8.2476 37.4617 8.07772 36.1729L6.37891 20.9648C5.5295 16.8406 -0.84104 17.442 0.0933061 21.9959C0.60295 28.1822 1.11259 34.3685 1.70718 40.5549C1.87706 42.7029 2.98129 46.1398 5.5295 48.2019L15.7224 57.3095C17.9308 59.4576 18.4405 59.6294 18.4405 62.9804V68.3934Z" fill="#FF6A6A"/>
</svg>
