<svg width="74" height="74" viewBox="0 0 74 74" fill="none" xmlns="http://www.w3.org/2000/svg">
<path d="M63.1636 63.1636C77.6121 48.715 77.6121 25.285 63.1636 10.8364C48.715 -3.61214 25.285 -3.61214 10.8364 10.8364C-3.61214 25.285 -3.61214 48.715 10.8364 63.1636C25.285 77.6121 48.715 77.6121 63.1636 63.1636ZM25.0507 50.5113C25.3631 49.4179 25.6755 48.2464 25.9879 47.153C26.3784 45.8253 26.7689 45.6691 27.9404 46.2939C29.971 47.3873 32.1578 47.934 34.3446 48.2464C35.8285 48.4026 37.2343 48.2464 38.562 47.6997C41.0612 46.6063 41.4517 43.7166 39.343 41.9203C38.6401 41.2955 37.781 40.905 36.9219 40.5145C34.7351 39.5773 32.3921 38.7963 30.3615 37.5467C27.0032 35.5161 24.8164 32.7826 25.1288 28.6433C25.4412 24.0354 28.0185 21.0675 32.314 19.5836C34.0322 18.9588 34.1103 18.9588 34.1103 17.1625C34.1103 16.5377 34.1103 15.9129 34.1103 15.2881C34.1103 13.8823 34.3446 13.648 35.7504 13.648C36.1409 13.648 36.6095 13.648 37 13.648C39.9678 13.648 39.9678 13.648 39.9678 16.6158C39.9678 18.7245 39.9678 18.7245 42.0765 19.0369C43.6385 19.2712 45.2005 19.7398 46.6063 20.3646C47.3873 20.7551 47.6997 21.3018 47.4654 22.1609C47.0749 23.4106 46.7625 24.7383 46.372 25.9879C45.9815 27.1594 45.591 27.3156 44.4976 26.7689C42.2327 25.6755 39.8116 25.2069 37.2343 25.3631C36.5314 25.3631 35.9066 25.5193 35.2818 25.7536C33.095 26.6908 32.7045 29.1119 34.5789 30.5958C35.5161 31.3768 36.6095 31.9235 37.7029 32.3921C39.6554 33.1731 41.6079 33.9541 43.4042 34.9694C49.2617 38.2496 50.8237 45.591 46.6844 50.5894C45.2005 52.3858 43.248 53.6354 40.9831 54.2602C39.9678 54.4945 39.5773 55.0412 39.5773 56.0565C39.6554 57.0718 39.5773 58.0871 39.5773 59.1024C39.5773 60.0396 39.1087 60.5082 38.2496 60.5082C37.1562 60.5082 36.0628 60.5082 34.9694 60.5082C34.0322 60.5082 33.5636 59.9615 33.5636 59.0243C33.5636 58.3214 33.5636 57.5404 33.5636 56.8375C33.5636 55.1974 33.4855 55.1193 31.9235 54.885C29.8929 54.5726 27.9404 54.104 26.1441 53.2449C24.8164 52.3858 24.6602 51.9953 25.0507 50.5113Z" fill="#FF6A6A"/>
</svg>
