<svg width="76" height="76" viewBox="0 0 76 76" fill="none" xmlns="http://www.w3.org/2000/svg">
<path d="M38.0364 4.01535C40.9484 4.01535 43.8535 4.39133 46.6627 5.13573C49.5603 5.90278 52.362 7.06014 54.9863 8.57159C58.9604 10.8644 62.3593 13.8722 65.1014 17.4999C67.7558 21.0022 69.6727 24.9393 70.815 29.2004C71.958 33.469 72.2675 37.841 71.7217 42.1987C71.1615 46.7112 69.7165 51.0092 67.4161 54.9834C65.8828 57.6522 63.9953 60.0998 61.8127 62.2379C59.7041 64.3095 57.3229 66.1086 54.7349 67.5687C49.6328 70.4512 43.8308 71.9778 37.9655 71.9778C35.0498 71.9778 32.1447 71.6018 29.3354 70.8574C26.4378 70.0903 23.6361 68.933 21.0119 67.4215C17.0377 65.1287 13.6351 62.1209 10.893 58.4932C8.24608 54.9909 6.32544 51.0538 5.18317 46.7927C4.0409 42.5234 3.73438 38.1513 4.27645 33.7944C4.83663 29.2819 6.28165 24.9839 8.57827 21.0097C10.1192 18.3409 12.0066 15.8933 14.1854 13.7552C16.2941 11.6836 18.6752 9.88449 21.2595 8.42438C26.3691 5.5419 32.1673 4.01535 38.0364 4.01535ZM38.0327 1C25.248 1 12.8144 7.63543 5.96154 19.4983C-4.2532 37.1933 1.81072 59.8197 19.5019 70.0314C25.3303 73.4009 31.6894 74.9931 37.967 74.9931C50.7547 74.9931 63.1853 68.3577 70.0419 56.4948C80.2529 38.7998 74.1852 16.1734 56.4985 5.96166C50.6656 2.59223 44.3102 1 38.0327 1ZM3.9888 36.8611C4.66375 36.8611 7.76365 37.3699 7.76365 37.9966C7.76365 38.6232 6.07177 39.132 3.9888 39.132V36.8611ZM39.1681 72.0072C39.1681 69.9205 38.6593 68.2324 38.0364 68.2324C37.4098 68.2324 36.901 69.9205 36.901 72.0072H39.1681ZM9.09089 56.0675C10.8975 55.0204 12.1062 53.7377 11.7929 53.1994C11.4834 52.6535 8.54505 53.7671 7.95919 54.1061L9.09089 56.0675ZM22.0341 68.1508C23.0775 66.3442 23.4829 64.6266 22.9408 64.3171C22.3988 64 20.4086 66.4333 20.0727 67.0153L22.0341 68.1508ZM72.0101 36.9426C71.3389 36.9426 68.2352 37.4439 68.2352 38.0705C68.2352 38.6972 69.9234 39.206 72.0101 39.206V36.9426ZM68.0359 53.9513C67.4539 53.6124 64.5117 52.5063 64.2022 53.0446C63.8927 53.5905 65.1014 54.8731 66.908 55.9203L68.0359 53.9513ZM56.004 66.9421C55.665 66.36 53.6741 63.9268 53.1358 64.2363C52.5976 64.5534 52.9954 66.2709 54.0426 68.0776L56.004 66.9421ZM36.901 3.98591C36.901 6.07264 37.4098 7.76076 38.0364 7.76076C38.6593 7.76076 39.1681 6.07264 39.1681 3.98591H36.901ZM7.95919 21.9685C8.54505 22.3 11.4834 23.4136 11.7929 22.8753C12.1062 22.3294 10.8968 21.0467 9.09089 19.9996L7.95919 21.9685ZM19.9949 9.051C20.3339 9.63308 22.3248 12.0664 22.8631 11.7568C23.4051 11.4397 22.9997 9.72217 21.9563 7.91553L19.9949 9.051ZM66.908 20.0736C65.1014 21.1207 63.8927 22.4034 64.2022 22.9492C64.5117 23.4875 67.4539 22.3815 68.0359 22.0425L66.908 20.0736ZM54.1166 7.98951C53.0694 9.79616 52.6715 11.5213 53.2098 11.8308C53.7481 12.1403 55.739 9.70707 56.078 9.12499" fill="#FF6A6A"/>
<path d="M54.1165 7.98951C53.0694 9.79616 52.6715 11.5213 53.2098 11.8308C53.7481 12.1403 55.739 9.70707 56.078 9.12499M38.0364 4.01535C40.9484 4.01535 43.8535 4.39133 46.6627 5.13573C49.5603 5.90278 52.362 7.06014 54.9863 8.57159C58.9604 10.8644 62.3593 13.8722 65.1014 17.4999C67.7558 21.0022 69.6727 24.9393 70.815 29.2004C71.958 33.469 72.2675 37.841 71.7217 42.1987C71.1615 46.7112 69.7165 51.0092 67.4161 54.9834C65.8828 57.6522 63.9953 60.0998 61.8127 62.2379C59.7041 64.3095 57.3229 66.1086 54.7349 67.5687C49.6328 70.4512 43.8308 71.9778 37.9655 71.9778C35.0498 71.9778 32.1447 71.6018 29.3354 70.8574C26.4378 70.0903 23.6361 68.933 21.0119 67.4215C17.0377 65.1287 13.6351 62.1209 10.893 58.4932C8.24608 54.9909 6.32544 51.0538 5.18317 46.7927C4.0409 42.5234 3.73438 38.1513 4.27645 33.7944C4.83663 29.2819 6.28165 24.9839 8.57827 21.0097C10.1192 18.3409 12.0066 15.8933 14.1854 13.7552C16.2941 11.6836 18.6752 9.88449 21.2595 8.42438C26.3691 5.5419 32.1673 4.01535 38.0364 4.01535ZM38.0327 1C25.248 1 12.8144 7.63543 5.96154 19.4983C-4.2532 37.1933 1.81072 59.8197 19.5019 70.0314C25.3303 73.4009 31.6894 74.9931 37.967 74.9931C50.7547 74.9931 63.1853 68.3577 70.0419 56.4948C80.2529 38.7998 74.1852 16.1734 56.4985 5.96166C50.6656 2.59223 44.3102 1 38.0327 1ZM3.9888 36.8611C4.66375 36.8611 7.76365 37.3699 7.76365 37.9966C7.76365 38.6232 6.07177 39.132 3.9888 39.132V36.8611ZM39.1681 72.0072C39.1681 69.9205 38.6593 68.2324 38.0364 68.2324C37.4098 68.2324 36.901 69.9205 36.901 72.0072H39.1681ZM9.09089 56.0675C10.8975 55.0204 12.1062 53.7377 11.7929 53.1994C11.4834 52.6535 8.54505 53.7671 7.95919 54.1061L9.09089 56.0675ZM22.0341 68.1508C23.0775 66.3442 23.4829 64.6266 22.9408 64.3171C22.3987 64 20.4086 66.4333 20.0727 67.0153L22.0341 68.1508ZM72.0101 36.9426C71.3389 36.9426 68.2352 37.4439 68.2352 38.0705C68.2352 38.6972 69.9234 39.206 72.0101 39.206V36.9426ZM68.0359 53.9513C67.4539 53.6124 64.5117 52.5063 64.2022 53.0446C63.8927 53.5905 65.1014 54.8732 66.908 55.9203L68.0359 53.9513ZM56.004 66.9421C55.665 66.36 53.6741 63.9268 53.1358 64.2363C52.5976 64.5534 52.9954 66.2709 54.0426 68.0776L56.004 66.9421ZM36.901 3.98591C36.901 6.07264 37.4098 7.76076 38.0364 7.76076C38.6593 7.76076 39.1681 6.07264 39.1681 3.98591H36.901ZM7.95919 21.9685C8.54505 22.3 11.4834 23.4136 11.7929 22.8753C12.1062 22.3294 10.8968 21.0467 9.09089 19.9996L7.95919 21.9685ZM19.9949 9.051C20.3339 9.63308 22.3248 12.0664 22.8631 11.7568C23.4051 11.4397 22.9997 9.72217 21.9563 7.91553L19.9949 9.051ZM66.908 20.0736C65.1014 21.1207 63.8927 22.4034 64.2022 22.9492C64.5117 23.4875 67.4539 22.3815 68.0359 22.0425L66.908 20.0736Z" stroke="white"/>
<path d="M53.2122 11.7682C48.7397 9.1681 43.5455 7.67175 37.9995 7.67175V37.9966L53.2122 11.7682Z" fill="#FF6A6A"/>
</svg>
