<svg width="74" height="70" viewBox="0 0 74 70" fill="none" xmlns="http://www.w3.org/2000/svg">
<path d="M71.8915 28.6529L70.3873 0H62.2683L60.7632 28.6529H71.8915Z" fill="#FF6A6A"/>
<path d="M58.695 30.5629L61.5735 32.9919L60.2572 34.5086L55.5813 30.5629H55.5606L37.969 15.7704V29.1439L42.5878 33.0408L41.2872 34.5409L34.6559 28.9461L18.9858 15.7704V29.0537L23.6153 32.9596L22.265 34.5086L15.6949 28.9651L0 15.7704V31.7311V69.4741H56.954H74V30.5629H58.695ZM15.2495 55.4357H6.19005V46.3779H15.2487V55.4357H15.2495ZM34.2328 55.2371H25.1742V46.1784H34.2328V55.2371ZM53.2186 55.2371H44.1599V46.1784H53.2177V55.2371H53.2186Z" fill="#FF6A6A"/>
</svg>
