<svg width="135" height="27" viewBox="0 0 135 27" fill="none" xmlns="http://www.w3.org/2000/svg">
<path d="M39.3541 0H44.0926V26.5135H39.3541V24.486C38.5492 25.2965 37.604 25.9502 36.5655 26.4143C35.6134 26.8095 34.5931 27.0082 33.5642 26.9989C32.3686 27.0039 31.1858 26.7505 30.0946 26.2556C29.0035 25.7608 28.0291 25.0358 27.2367 24.1293C25.4493 22.1991 24.4901 19.6304 24.569 16.9855C24.4639 14.316 25.389 11.7099 27.1484 9.71929C27.9326 8.8193 28.8992 8.1011 29.9823 7.6136C31.0654 7.1261 32.2395 6.88078 33.4247 6.89433C34.5217 6.88519 35.6089 7.1049 36.6185 7.53978C37.6532 8.00479 38.5898 8.66739 39.377 9.49132L39.3541 0ZM34.3683 11.3204C33.6868 11.3082 33.0105 11.4434 32.3847 11.7171C31.7589 11.9907 31.198 12.3965 30.7394 12.9072C29.7398 13.9984 29.2012 15.4421 29.2387 16.9301C29.1891 18.4363 29.7284 19.9016 30.7394 21.0075C31.1986 21.5226 31.7614 21.9321 32.3899 22.2084C33.0185 22.4847 33.6982 22.6215 34.3833 22.6095C35.0769 22.6298 35.7667 22.4993 36.4062 22.2268C37.0458 21.9543 37.6202 21.5462 38.0909 21.0299C38.5961 20.4761 38.9887 19.827 39.2462 19.1195C39.5037 18.4121 39.621 17.6602 39.5915 16.9068C39.6191 16.1664 39.5006 15.4278 39.2429 14.7343C38.9852 14.0408 38.5936 13.4063 38.0909 12.8679C37.6074 12.3608 37.0233 11.9631 36.3772 11.7012C35.731 11.4392 35.0373 11.3189 34.3419 11.3481" fill="#FF0000"/>
<path d="M55.5923 7.37969H60.338V9.34643C61.2054 8.5599 62.1881 7.91451 63.251 7.43332C64.0997 7.07828 65.0092 6.89601 65.9275 6.89694C66.8136 6.87987 67.6938 7.04694 68.5136 7.38782C69.3335 7.7287 70.0757 8.23617 70.6943 8.87888C71.2828 9.55905 71.7317 10.3511 72.0148 11.2087C72.2979 12.0664 72.4096 12.9726 72.3433 13.8744V26.5134H67.663V18.1619C67.7238 16.6354 67.6208 15.1067 67.3558 13.6026C67.1981 12.9306 66.8257 12.33 66.2965 11.8943C65.7735 11.4927 65.1325 11.2808 64.4763 11.2926C63.5595 11.2732 62.6726 11.6226 62.0099 12.2644C61.2775 12.9968 60.7793 13.9352 60.5798 14.9579C60.4009 16.2427 60.3332 17.541 60.3777 18.8378V26.5143H55.5923V7.37969Z" fill="#FF0000"/>
<path d="M89.2546 0H93.9931V26.5135H89.2546V24.486C88.452 25.2961 87.5092 25.9497 86.473 26.4143C85.5205 26.808 84.5004 27.0067 83.4717 26.9989C82.2761 27.0039 81.0933 26.7505 80.0021 26.2556C78.911 25.7608 77.9367 25.0358 77.1442 24.1293C75.3572 22.199 74.3983 19.6302 74.4774 16.9855C74.3763 14.3167 75.3009 11.712 77.0568 9.71929C77.8417 8.81857 78.8093 8.09999 79.8936 7.61261C80.9778 7.12524 82.1531 6.88054 83.3393 6.89522C84.434 6.88668 85.5187 7.10639 86.526 7.54067C87.5618 8.00383 88.4987 8.66666 89.2846 9.49222L89.2546 0ZM84.2688 11.3204C83.5837 11.306 82.9035 11.4401 82.2738 11.7138C81.6441 11.9875 81.0795 12.3944 80.6178 12.9072C79.6334 14.0107 79.1142 15.4602 79.171 16.9462C79.1202 18.4526 79.6597 19.9183 80.6716 21.0236C81.1308 21.5387 81.6936 21.9481 82.3222 22.2245C82.9508 22.5008 83.6305 22.6376 84.3156 22.6256C85.0072 22.6442 85.6948 22.5129 86.3323 22.2404C86.9697 21.968 87.5423 21.5607 88.0116 21.0459C89.0312 19.9271 89.5709 18.4443 89.5123 16.9229C89.5395 16.1825 89.4208 15.444 89.1632 14.7506C88.9055 14.0571 88.5141 13.4226 88.0116 12.884C87.5282 12.3769 86.9441 11.9792 86.2979 11.7173C85.6517 11.4553 84.9581 11.335 84.2626 11.3642" fill="#FF0000"/>
<path d="M116.088 18.3364H100.869C101.036 19.603 101.666 20.76 102.634 21.5788C103.67 22.4081 104.966 22.8338 106.285 22.7785C107.132 22.7902 107.972 22.6295 108.757 22.3061C109.541 21.9827 110.253 21.5031 110.851 20.8958L114.839 22.7937C113.938 24.1442 112.709 25.2371 111.27 25.9673C109.719 26.6847 108.027 27.0353 106.322 26.9927C104.989 27.0447 103.659 26.8203 102.414 26.3333C101.17 25.8463 100.036 25.107 99.0838 24.1606C98.1652 23.2292 97.4435 22.118 96.9627 20.8949C96.4819 19.6718 96.2521 18.3624 96.2873 17.0464C96.2462 15.7076 96.472 14.3742 96.9511 13.1258C97.4302 11.8773 98.1529 10.7395 99.0759 9.78015C99.9783 8.8329 101.066 8.08644 102.269 7.58836C103.472 7.09028 104.764 6.85151 106.064 6.88725C107.405 6.83743 108.742 7.06867 109.99 7.56647C111.239 8.06427 112.373 8.8179 113.321 9.78015C114.274 10.8051 115.013 12.0143 115.493 13.3354C115.974 14.6565 116.186 16.0622 116.117 17.4683L116.088 18.3364ZM111.35 14.5406C111.04 13.4852 110.387 12.5672 109.496 11.9364C108.557 11.2685 107.434 10.9201 106.287 10.9414C105.037 10.9169 103.813 11.312 102.808 12.0651C102.038 12.7345 101.441 13.5843 101.069 14.5406H111.35Z" fill="#FF0000"/>
<path d="M115.803 7.37988H121.306L125.04 12.5962L128.748 7.37988H134.161L127.75 16.3849L135 26.5136H129.501L125.009 20.2352L120.534 26.5145H115.121L122.296 16.4466L115.803 7.37988Z" fill="#FF0000"/>
<path d="M9.84436 0.652588H14.7771L24.5985 26.5135H19.5457L17.5516 21.1988H7.12992L5.05283 26.5135H0L9.84436 0.652588ZM12.3408 7.48255L8.91572 16.3847H15.7455L12.3408 7.48255Z" fill="#FF0000"/>
<path d="M47.4351 0V4.43411H52.2019L47.4351 6.90953V26.5135H52.2637V0H47.4351Z" fill="#FF0000"/>
</svg>
