<svg width="31" height="56" viewBox="0 0 31 56" fill="none" xmlns="http://www.w3.org/2000/svg">
<g clip-path="url(#clip0_1_92)">
<path d="M25.061 56H5.93901C5.54812 56 5.2392 55.6827 5.2392 55.2956C5.2392 54.9084 5.55443 54.5911 5.93901 54.5911H25.061C25.4519 54.5911 25.7609 54.9084 25.7609 55.2956C25.7672 55.6827 25.4519 56 25.061 56Z" fill="url(#paint0_linear_1_92)"/>
<path d="M25.061 56H5.93901C5.54812 56 5.2392 55.6827 5.2392 55.2956C5.2392 54.9084 5.55443 54.5911 5.93901 54.5911H25.061C25.4519 54.5911 25.7609 54.9084 25.7609 55.2956C25.7672 55.6827 25.4519 56 25.061 56Z" fill="#C50193"/>
<path d="M15.5032 56C15.1123 56 14.8033 55.6827 14.8033 55.2956V42.9329C14.8033 42.5395 15.1186 42.2285 15.5032 42.2285C15.894 42.2285 16.203 42.5458 16.203 42.9329V55.2956C16.203 55.6827 15.8877 56 15.5032 56Z" fill="url(#paint1_linear_1_92)"/>
<path d="M15.5032 56C15.1123 56 14.8033 55.6827 14.8033 55.2956V42.9329C14.8033 42.5395 15.1186 42.2285 15.5032 42.2285C15.894 42.2285 16.203 42.5458 16.203 42.9329V55.2956C16.203 55.6827 15.8877 56 15.5032 56Z" fill="#C50193"/>
<path d="M15.5977 42.5838H15.4086C11.2916 42.5838 7.42689 40.9719 4.51413 38.0399C1.60138 35.1142 0 31.2176 0 27.0734C0 26.6799 0.315233 26.369 0.699817 26.369C1.0844 26.369 1.39963 26.6863 1.39963 27.0734C1.39963 30.8368 2.85601 34.378 5.49766 37.0372C8.13931 39.6963 11.6573 41.1623 15.396 41.1623H15.5851C19.3238 41.1623 22.8418 39.6963 25.4834 37.0372C28.1251 34.378 29.5815 30.8368 29.5815 27.0734C29.5815 26.6799 29.8967 26.369 30.2813 26.369C30.6722 26.369 30.9811 26.6863 30.9811 27.0734C30.9811 31.2176 29.3797 35.1079 26.467 38.0399C23.5794 40.9719 19.7084 42.5838 15.5977 42.5838Z" fill="url(#paint2_linear_1_92)"/>
<path d="M15.5977 42.5838H15.4086C11.2916 42.5838 7.42689 40.9719 4.51413 38.0399C1.60138 35.1142 0 31.2176 0 27.0734C0 26.6799 0.315233 26.369 0.699817 26.369C1.0844 26.369 1.39963 26.6863 1.39963 27.0734C1.39963 30.8368 2.85601 34.378 5.49766 37.0372C8.13931 39.6963 11.6573 41.1623 15.396 41.1623H15.5851C19.3238 41.1623 22.8418 39.6963 25.4834 37.0372C28.1251 34.378 29.5815 30.8368 29.5815 27.0734C29.5815 26.6799 29.8967 26.369 30.2813 26.369C30.6722 26.369 30.9811 26.6863 30.9811 27.0734C30.9811 31.2176 29.3797 35.1079 26.467 38.0399C23.5794 40.9719 19.7084 42.5838 15.5977 42.5838Z" fill="#C50193"/>
<path d="M15.5977 37.3101H15.4086C9.80377 37.3101 5.2392 32.7153 5.2392 27.0734C5.2392 26.3654 5.81315 25.7915 6.52116 25.7915H9.93024C10.1633 25.7915 10.3523 25.6025 10.3523 25.3694C10.3523 25.1364 10.1633 24.9474 9.93024 24.9474H7.0828C6.06461 24.9474 5.2392 24.122 5.2392 23.1038C5.2392 22.0856 6.06461 21.2602 7.08281 21.2602H9.93024C10.1633 21.2602 10.3523 21.0712 10.3523 20.8382C10.3523 20.6051 10.1633 20.4161 9.93024 20.4161H7.0828C6.06461 20.4161 5.2392 19.5907 5.2392 18.5725C5.2392 17.5543 6.06461 16.7289 7.08281 16.7289H9.93024C10.1633 16.7289 10.3523 16.54 10.3523 16.3069C10.3523 16.0738 10.1633 15.8849 9.93024 15.8849H7.0828C6.06461 15.8849 5.2392 15.0594 5.2392 14.0413C5.2392 13.0231 6.06461 12.1976 7.08281 12.1976H9.93342C10.1647 12.1976 10.3523 12.0101 10.3523 11.7788C10.3523 11.5475 10.1647 11.3599 9.93342 11.3599H6.3625C5.74211 11.3599 5.2392 10.857 5.2392 10.2366C5.2392 4.59474 9.79746 0 15.4023 0H15.5914C21.1963 0 25.7609 4.59474 25.7609 10.2366C25.7609 10.857 25.2579 11.3599 24.6376 11.3599H21.0698C20.8367 11.3599 20.6478 11.5489 20.6478 11.782C20.6478 12.015 20.8367 12.204 21.0698 12.204H23.9172C24.9354 12.204 25.7609 13.0294 25.7609 14.0476C25.7609 15.0658 24.9354 15.8912 23.9172 15.8912H21.0698C20.8367 15.8912 20.6478 16.0802 20.6478 16.3132C20.6478 16.5463 20.8367 16.7353 21.0698 16.7353H23.9172C24.9354 16.7353 25.7609 17.5607 25.7609 18.5789C25.7609 19.5971 24.9354 20.4225 23.9172 20.4225H21.0698C20.8367 20.4225 20.6478 20.6114 20.6478 20.8445C20.6478 21.0776 20.8367 21.2665 21.0698 21.2665H23.9172C24.9354 21.2665 25.7609 22.092 25.7609 23.1102C25.7609 24.1284 24.9354 24.9538 23.9172 24.9538H21.0698C20.8367 24.9538 20.6478 25.1427 20.6478 25.3758C20.6478 25.6089 20.8367 25.7978 21.0698 25.7978H24.4789C25.1869 25.7978 25.7609 26.3718 25.7609 27.0798C25.7672 32.7217 21.2026 37.3101 15.5977 37.3101ZM9.22013 27.2131C7.80405 27.2131 6.62651 28.3963 7.05245 29.7468C8.17688 33.312 11.4964 35.9012 15.4086 35.9012H15.5977C19.5048 35.9012 22.8277 33.312 23.9534 29.7467C24.3798 28.3964 23.2023 27.2131 21.7862 27.2131H21.0854C20.0707 27.2131 19.2481 26.3905 19.2481 25.3758C19.2481 24.3611 20.0707 23.5385 21.0854 23.5385H23.9328C24.1694 23.5385 24.3612 23.3467 24.3612 23.1102C24.3612 22.8736 24.1694 22.6818 23.9328 22.6818H21.0854C20.0707 22.6818 19.2481 21.8592 19.2481 20.8445C19.2481 19.8298 20.0707 19.0073 21.0854 19.0073H23.9328C24.1694 19.0073 24.3612 18.8155 24.3612 18.5789C24.3612 18.3423 24.1694 18.1505 23.9328 18.1505H21.0854C20.0707 18.1505 19.2481 17.3279 19.2481 16.3132C19.2481 15.2985 20.0707 14.476 21.0854 14.476H23.9328C24.1694 14.476 24.3612 14.2842 24.3612 14.0476C24.3612 13.811 24.1694 13.6192 23.9328 13.6192H21.0854C20.0707 13.6192 19.2481 12.7966 19.2481 11.782C19.2481 10.7673 20.0707 9.9447 21.0854 9.9447H21.7607C23.1798 9.9447 24.3503 8.74504 23.8959 7.40063C22.7208 3.92419 19.4443 1.41523 15.5977 1.41523H15.4086C11.562 1.41523 8.28554 3.92419 7.11046 7.40063C6.65603 8.74503 7.82654 9.9447 9.24567 9.9447H9.92095C10.9356 9.9447 11.7582 10.7673 11.7582 11.782C11.7582 12.7966 10.9356 13.6192 9.92095 13.6192H7.07351C6.83693 13.6192 6.64514 13.811 6.64514 14.0476C6.64514 14.2842 6.83693 14.476 7.07351 14.476H9.92095C10.9356 14.476 11.7582 15.2985 11.7582 16.3132C11.7582 17.3279 10.9356 18.1505 9.92095 18.1505H7.07351C6.83693 18.1505 6.64514 18.3423 6.64514 18.5789C6.64514 18.8155 6.83693 19.0073 7.07351 19.0073H9.92095C10.9356 19.0073 11.7582 19.8298 11.7582 20.8445C11.7582 21.8592 10.9356 22.6818 9.92095 22.6818H7.07351C6.83693 22.6818 6.64514 22.8736 6.64514 23.1102C6.64514 23.3467 6.83693 23.5385 7.07351 23.5385H9.92095C10.9356 23.5385 11.7582 24.3611 11.7582 25.3758C11.7582 26.3905 10.9356 27.2131 9.92095 27.2131H9.22013Z" fill="url(#paint3_linear_1_92)"/>
<path d="M15.5977 37.3101H15.4086C9.80377 37.3101 5.2392 32.7153 5.2392 27.0734C5.2392 26.3654 5.81315 25.7915 6.52116 25.7915H9.93024C10.1633 25.7915 10.3523 25.6025 10.3523 25.3694C10.3523 25.1364 10.1633 24.9474 9.93024 24.9474H7.0828C6.06461 24.9474 5.2392 24.122 5.2392 23.1038C5.2392 22.0856 6.06461 21.2602 7.08281 21.2602H9.93024C10.1633 21.2602 10.3523 21.0712 10.3523 20.8382C10.3523 20.6051 10.1633 20.4161 9.93024 20.4161H7.0828C6.06461 20.4161 5.2392 19.5907 5.2392 18.5725C5.2392 17.5543 6.06461 16.7289 7.08281 16.7289H9.93024C10.1633 16.7289 10.3523 16.54 10.3523 16.3069C10.3523 16.0738 10.1633 15.8849 9.93024 15.8849H7.0828C6.06461 15.8849 5.2392 15.0594 5.2392 14.0413C5.2392 13.0231 6.06461 12.1976 7.08281 12.1976H9.93342C10.1647 12.1976 10.3523 12.0101 10.3523 11.7788C10.3523 11.5475 10.1647 11.3599 9.93342 11.3599H6.3625C5.74211 11.3599 5.2392 10.857 5.2392 10.2366C5.2392 4.59474 9.79746 0 15.4023 0H15.5914C21.1963 0 25.7609 4.59474 25.7609 10.2366C25.7609 10.857 25.2579 11.3599 24.6376 11.3599H21.0698C20.8367 11.3599 20.6478 11.5489 20.6478 11.782C20.6478 12.015 20.8367 12.204 21.0698 12.204H23.9172C24.9354 12.204 25.7609 13.0294 25.7609 14.0476C25.7609 15.0658 24.9354 15.8912 23.9172 15.8912H21.0698C20.8367 15.8912 20.6478 16.0802 20.6478 16.3132C20.6478 16.5463 20.8367 16.7353 21.0698 16.7353H23.9172C24.9354 16.7353 25.7609 17.5607 25.7609 18.5789C25.7609 19.5971 24.9354 20.4225 23.9172 20.4225H21.0698C20.8367 20.4225 20.6478 20.6114 20.6478 20.8445C20.6478 21.0776 20.8367 21.2665 21.0698 21.2665H23.9172C24.9354 21.2665 25.7609 22.092 25.7609 23.1102C25.7609 24.1284 24.9354 24.9538 23.9172 24.9538H21.0698C20.8367 24.9538 20.6478 25.1427 20.6478 25.3758C20.6478 25.6089 20.8367 25.7978 21.0698 25.7978H24.4789C25.1869 25.7978 25.7609 26.3718 25.7609 27.0798C25.7672 32.7217 21.2026 37.3101 15.5977 37.3101ZM9.22013 27.2131C7.80405 27.2131 6.62651 28.3963 7.05245 29.7468C8.17688 33.312 11.4964 35.9012 15.4086 35.9012H15.5977C19.5048 35.9012 22.8277 33.312 23.9534 29.7467C24.3798 28.3964 23.2023 27.2131 21.7862 27.2131H21.0854C20.0707 27.2131 19.2481 26.3905 19.2481 25.3758C19.2481 24.3611 20.0707 23.5385 21.0854 23.5385H23.9328C24.1694 23.5385 24.3612 23.3467 24.3612 23.1102C24.3612 22.8736 24.1694 22.6818 23.9328 22.6818H21.0854C20.0707 22.6818 19.2481 21.8592 19.2481 20.8445C19.2481 19.8298 20.0707 19.0073 21.0854 19.0073H23.9328C24.1694 19.0073 24.3612 18.8155 24.3612 18.5789C24.3612 18.3423 24.1694 18.1505 23.9328 18.1505H21.0854C20.0707 18.1505 19.2481 17.3279 19.2481 16.3132C19.2481 15.2985 20.0707 14.476 21.0854 14.476H23.9328C24.1694 14.476 24.3612 14.2842 24.3612 14.0476C24.3612 13.811 24.1694 13.6192 23.9328 13.6192H21.0854C20.0707 13.6192 19.2481 12.7966 19.2481 11.782C19.2481 10.7673 20.0707 9.9447 21.0854 9.9447H21.7607C23.1798 9.9447 24.3503 8.74504 23.8959 7.40063C22.7208 3.92419 19.4443 1.41523 15.5977 1.41523H15.4086C11.562 1.41523 8.28554 3.92419 7.11046 7.40063C6.65603 8.74503 7.82654 9.9447 9.24567 9.9447H9.92095C10.9356 9.9447 11.7582 10.7673 11.7582 11.782C11.7582 12.7966 10.9356 13.6192 9.92095 13.6192H7.07351C6.83693 13.6192 6.64514 13.811 6.64514 14.0476C6.64514 14.2842 6.83693 14.476 7.07351 14.476H9.92095C10.9356 14.476 11.7582 15.2985 11.7582 16.3132C11.7582 17.3279 10.9356 18.1505 9.92095 18.1505H7.07351C6.83693 18.1505 6.64514 18.3423 6.64514 18.5789C6.64514 18.8155 6.83693 19.0073 7.07351 19.0073H9.92095C10.9356 19.0073 11.7582 19.8298 11.7582 20.8445C11.7582 21.8592 10.9356 22.6818 9.92095 22.6818H7.07351C6.83693 22.6818 6.64514 22.8736 6.64514 23.1102C6.64514 23.3467 6.83693 23.5385 7.07351 23.5385H9.92095C10.9356 23.5385 11.7582 24.3611 11.7582 25.3758C11.7582 26.3905 10.9356 27.2131 9.92095 27.2131H9.22013Z" fill="#C50193"/>
</g>
<defs>
<linearGradient id="paint0_linear_1_92" x1="25.761" y1="54.5911" x2="25.5375" y2="57.5389" gradientUnits="userSpaceOnUse">
<stop stop-color="#28DC28"/>
<stop offset="1" stop-color="#00B9FF"/>
</linearGradient>
<linearGradient id="paint1_linear_1_92" x1="16.203" y1="42.2285" x2="13.5583" y2="42.4719" gradientUnits="userSpaceOnUse">
<stop stop-color="#28DC28"/>
<stop offset="1" stop-color="#00B9FF"/>
</linearGradient>
<linearGradient id="paint2_linear_1_92" x1="30.9811" y1="26.369" x2="16.1986" y2="51.946" gradientUnits="userSpaceOnUse">
<stop stop-color="#28DC28"/>
<stop offset="1" stop-color="#00B9FF"/>
</linearGradient>
<linearGradient id="paint3_linear_1_92" x1="25.7609" y1="0" x2="-5.57127" y2="15.6062" gradientUnits="userSpaceOnUse">
<stop stop-color="#28DC28"/>
<stop offset="1" stop-color="#00B9FF"/>
</linearGradient>
<clipPath id="clip0_1_92">
<rect width="31" height="56" fill="white"/>
</clipPath>
</defs>
</svg>
