<svg width="107" height="82" viewBox="0 0 107 82" fill="none" xmlns="http://www.w3.org/2000/svg">
<path d="M59.2421 0H107V41.3528C107 48.2685 105.74 53.9139 103.359 58.5714C100.838 63.0878 97.7566 66.8984 93.8351 69.8623C89.9136 72.8262 85.572 75.2255 80.8102 77.0602C76.0484 78.895 71.2867 80.4475 66.5249 82L59.5223 69.1566C63.0236 67.7453 66.1047 66.475 68.6257 65.0637C71.1466 63.6523 73.2474 62.0998 74.788 60.5473C76.3285 58.8537 77.589 57.0189 78.2893 54.9019C78.9895 52.7848 79.4097 50.2444 79.4097 47.4217H59.2421V0ZM0.14004 0H47.7578V41.3528C47.7578 48.2685 46.4974 53.9139 44.1165 58.5714C41.5956 63.0878 38.5144 66.8984 34.5929 69.8623C30.6715 72.8262 26.3298 75.2255 21.5681 77.0602C16.8063 78.895 12.0445 80.4475 7.28272 82L0.14004 69.1566C3.64135 67.7453 6.7225 66.475 9.24344 65.0637C11.7644 63.6523 13.8652 62.0998 15.4058 60.5473C16.9463 58.8537 18.2068 57.0189 18.9071 54.9019C19.6073 52.7848 20.0275 50.2444 20.0275 47.4217H0V0H0.14004Z" fill="black"/>
<path d="M59.2421 0H107V41.3528C107 48.2685 105.74 53.9139 103.359 58.5714C100.838 63.0878 97.7566 66.8984 93.8351 69.8623C89.9136 72.8262 85.572 75.2255 80.8102 77.0602C76.0484 78.895 71.2867 80.4475 66.5249 82L59.5223 69.1566C63.0236 67.7453 66.1047 66.475 68.6257 65.0637C71.1466 63.6523 73.2474 62.0998 74.788 60.5473C76.3285 58.8537 77.589 57.0189 78.2893 54.9019C78.9895 52.7848 79.4097 50.2444 79.4097 47.4217H59.2421V0ZM0.14004 0H47.7578V41.3528C47.7578 48.2685 46.4974 53.9139 44.1165 58.5714C41.5956 63.0878 38.5144 66.8984 34.5929 69.8623C30.6715 72.8262 26.3298 75.2255 21.5681 77.0602C16.8063 78.895 12.0445 80.4475 7.28272 82L0.14004 69.1566C3.64135 67.7453 6.7225 66.475 9.24344 65.0637C11.7644 63.6523 13.8652 62.0998 15.4058 60.5473C16.9463 58.8537 18.2068 57.0189 18.9071 54.9019C19.6073 52.7848 20.0275 50.2444 20.0275 47.4217H0V0H0.14004Z" fill="url(#paint0_linear_16_1132)"/>
<defs>
<linearGradient id="paint0_linear_16_1132" x1="107" y1="0" x2="21.9126" y2="100.544" gradientUnits="userSpaceOnUse">
<stop stop-color="#B900B4"/>
<stop offset="1" stop-color="#F50000"/>
</linearGradient>
</defs>
</svg>
