<svg width="585" height="429" viewBox="0 0 585 429" fill="none" xmlns="http://www.w3.org/2000/svg">
<g style="mix-blend-mode:lighten" opacity="0.1">
<path d="M292.5 429C454.043 429 585 357.982 585 270.376C585 182.77 454.043 111.752 292.5 111.752C130.957 111.752 0 182.77 0 270.376C0 357.982 130.957 429 292.5 429Z" fill="white"/>
</g>
<path d="M418.923 285.158C418.923 286.341 418.55 287.497 417.85 288.481C417.151 289.465 416.156 290.231 414.992 290.684C413.829 291.137 412.548 291.255 411.313 291.024C410.078 290.794 408.943 290.224 408.053 289.387C407.162 288.551 406.556 287.485 406.31 286.325C406.064 285.165 406.191 283.962 406.672 282.869C407.154 281.776 407.971 280.842 409.018 280.185C410.065 279.528 411.296 279.177 412.556 279.177C414.244 279.177 415.864 279.807 417.058 280.929C418.252 282.05 418.923 283.572 418.923 285.158Z" fill="#24126A"/>
<path d="M481.695 218.285C481.695 219.47 481.321 220.629 480.62 221.615C479.919 222.601 478.922 223.369 477.756 223.823C476.59 224.276 475.307 224.395 474.069 224.164C472.831 223.932 471.694 223.362 470.802 222.523C469.909 221.685 469.302 220.617 469.055 219.454C468.809 218.292 468.936 217.086 469.419 215.991C469.902 214.896 470.72 213.96 471.769 213.301C472.818 212.643 474.052 212.291 475.314 212.291C476.153 212.289 476.983 212.443 477.758 212.744C478.533 213.045 479.238 213.486 479.83 214.043C480.423 214.6 480.893 215.261 481.213 215.989C481.533 216.717 481.697 217.497 481.695 218.285Z" fill="#24126A"/>
<path d="M495.404 263.989C495.404 265.175 495.03 266.334 494.328 267.32C493.626 268.306 492.629 269.074 491.462 269.527C490.295 269.981 489.011 270.099 487.773 269.866C486.535 269.634 485.398 269.062 484.506 268.222C483.614 267.383 483.008 266.314 482.763 265.15C482.518 263.987 482.646 262.781 483.132 261.686C483.617 260.591 484.437 259.656 485.488 258.999C486.539 258.342 487.774 257.992 489.037 257.995C489.874 257.995 490.703 258.15 491.477 258.451C492.25 258.753 492.953 259.194 493.544 259.751C494.136 260.308 494.604 260.969 494.924 261.696C495.243 262.423 495.406 263.202 495.404 263.989Z" fill="#24126A"/>
<path d="M357.706 252.699C357.709 253.886 357.336 255.046 356.636 256.034C355.936 257.022 354.94 257.792 353.773 258.247C352.606 258.702 351.322 258.822 350.083 258.591C348.844 258.36 347.706 257.789 346.812 256.95C345.919 256.111 345.311 255.042 345.065 253.878C344.82 252.714 344.947 251.508 345.432 250.412C345.916 249.316 346.736 248.38 347.788 247.723C348.839 247.065 350.075 246.715 351.338 246.718C353.027 246.718 354.647 247.348 355.841 248.47C357.035 249.591 357.706 251.113 357.706 252.699Z" fill="#24126A"/>
<path d="M397.102 212.265C397.1 213.447 396.724 214.603 396.023 215.584C395.321 216.566 394.326 217.331 393.162 217.782C391.998 218.233 390.718 218.349 389.484 218.117C388.25 217.885 387.116 217.314 386.227 216.477C385.338 215.64 384.733 214.574 384.488 213.414C384.243 212.255 384.37 211.053 384.853 209.96C385.335 208.868 386.151 207.935 387.198 207.278C388.245 206.621 389.476 206.271 390.735 206.271C391.572 206.271 392.401 206.426 393.174 206.728C393.948 207.029 394.651 207.471 395.242 208.027C395.833 208.584 396.302 209.245 396.621 209.972C396.941 210.699 397.104 211.478 397.102 212.265Z" fill="#24126A"/>
<path d="M421.6 234.438L351.541 247.137C351.243 247.137 350.96 247.137 350.676 247.251L350.743 246.819L347.377 246.019V249.753C347.349 249.9 347.349 250.05 347.377 250.197C347.796 251.657 350.324 252.661 353.028 252.419L423.087 239.72L421.6 234.438Z" fill="url(#paint0_linear_19_345)"/>
<path d="M480.289 211.859L478.153 213.548C477.086 213.181 475.949 213.032 474.816 213.111C473.682 213.19 472.58 213.495 471.583 214.006L421.695 234.413L428.671 238.223L478.599 217.803C479.072 217.614 479.479 217.307 479.778 216.915C480.076 216.523 480.253 216.061 480.289 215.58V211.859Z" fill="url(#paint1_linear_19_345)"/>
<path d="M395.453 207.275C394.223 206.005 391.248 205.433 388.815 206.106C388.531 206.195 388.261 206.284 388.017 206.386C387.894 206.194 387.749 206.015 387.585 205.852C387.128 205.489 386.639 205.162 386.125 204.875V208.595C386.151 209.017 386.332 209.416 386.638 209.726L418.842 237.346L427.644 234.908L395.453 207.275Z" fill="url(#paint2_linear_19_345)"/>
<path d="M493.634 257.652L492.444 258.045L491.768 259.379C491.499 259.257 491.218 259.159 490.93 259.087L427.725 234.958L423.25 239.733L486.455 263.862C488.875 264.522 491.863 264.001 493.093 262.681C493.265 262.512 493.399 262.313 493.487 262.095C493.575 261.876 493.616 261.644 493.607 261.411L493.634 257.652Z" fill="url(#paint3_linear_19_345)"/>
<path d="M418.869 237.41L408.499 279.177L407.715 278.809V282.618C407.864 283.888 409.541 284.904 411.866 285.158C414.57 285.399 417.098 284.396 417.517 282.936L428.576 238.248L418.869 237.41Z" fill="url(#paint4_linear_19_345)"/>
<path d="M490.93 255.366L432.322 232.99L478.6 214.081C480.668 212.951 480.898 211.249 479.1 210.271L478.613 210.005C477.505 209.532 476.294 209.31 475.078 209.356C473.862 209.402 472.674 209.716 471.61 210.271L425.359 229.193L395.453 203.592C394.223 202.322 391.248 201.75 388.815 202.411C386.381 203.084 385.421 204.696 386.652 206.017L416.53 231.631L351.514 243.39C348.81 243.619 346.985 244.991 347.458 246.451C347.931 247.911 350.405 248.915 353.109 248.686L418.085 236.927L407.783 278.389C407.351 279.85 409.135 281.221 411.839 281.462C414.543 281.704 417.071 280.688 417.49 279.227L427.833 237.752L486.455 260.128C488.875 260.801 491.863 260.268 493.093 258.96C494.323 257.652 493.363 256.039 490.93 255.366ZM426.035 233.041L424.94 234.209L422.56 234.006L422.195 232.736L424.331 232.152L426.035 233.041Z" fill="url(#paint5_linear_19_345)"/>
<path d="M424.007 236.482C422.651 236.482 421.351 235.976 420.393 235.076C419.435 234.176 418.896 232.955 418.896 231.682V176.085H429.131V231.669C429.131 232.946 428.591 234.17 427.63 235.073C426.669 235.975 425.366 236.482 424.007 236.482Z" fill="#24126A"/>
<path opacity="0.5" d="M345.241 133.239L344.159 132.655C340.198 130.496 340.698 126.737 345.281 124.261L377.593 106.736C382.177 104.196 389.099 103.98 393.073 106.126L394.142 106.71C398.116 108.869 397.616 112.628 393.033 115.104L360.721 132.629C356.138 135.118 349.202 135.385 345.241 133.239Z" fill="url(#paint6_linear_19_345)"/>
<path opacity="0.5" d="M396.818 110.05C396.695 109.326 396.384 108.641 395.912 108.057C395.441 107.472 394.823 107.005 394.114 106.698L393.046 106.113C389.072 103.967 382.149 104.234 377.566 106.723L345.254 124.248C342.82 125.518 341.55 127.245 341.469 128.845V134.128C341.523 134.91 341.803 135.665 342.28 136.309C342.756 136.953 343.411 137.464 344.172 137.785L345.254 138.369C349.215 140.515 356.151 140.249 360.734 137.76L393.046 120.235C395.399 118.965 396.67 117.352 396.818 115.79V110.05Z" fill="url(#paint7_linear_19_345)"/>
<path d="M413.704 157.748L345.971 194.347C342.618 196.175 339.9 194.245 339.9 190.042C339.9 185.838 342.604 180.962 345.971 179.146L423.493 137.137V139.969C423.493 146.827 419.112 154.738 413.704 157.748Z" fill="#515151"/>
<g opacity="0.5">
<path opacity="0.5" d="M418.626 1.04162C416.273 -0.139388 413.218 0.0130003 409.946 1.80357L407.918 2.89569C400.442 6.95939 394.398 17.8425 394.398 27.2144V152.935L412.38 143.182V147.17L390.816 163.679L341.793 194.575L410.649 231.136L450.208 202.474L472.786 184.416L486.833 37.2721L418.626 1.04162Z" fill="url(#paint8_linear_19_345)"/>
</g>
<path d="M368.184 208.544C367.685 207.192 367.588 205.738 367.902 204.337C368.217 202.937 368.931 201.643 369.968 200.595C373.591 197.191 392.627 189.674 394.006 188.861C395.385 188.048 402.226 183.324 402.226 183.324L404.322 178.93C404.322 178.93 365.669 182.473 365.115 183.032C364.56 183.591 347.025 198.411 347.539 199.058C348.053 199.706 359.707 202.347 359.707 202.347L361.951 205.23L368.184 208.544Z" fill="#2D2D2D"/>
<path opacity="0.5" d="M478.491 38.1861L476.477 39.2909C468.987 43.3419 462.957 54.2377 462.957 63.6096V189.33L414.516 215.529C411.163 217.345 408.446 222.234 408.446 226.424C408.446 230.628 411.15 232.558 414.516 230.742L482.196 194.08C487.604 191.121 492.038 183.209 492.038 176.403V47.812C492.038 38.4401 485.981 34.1351 478.491 38.1861Z" fill="url(#paint9_linear_19_345)"/>
<path d="M349.878 235.771C349.878 235.771 339.9 241.791 336.534 245.334C333.167 248.877 326.489 256.115 329.233 259.569C331.978 263.023 341.252 264.954 351.23 256.331C361.207 247.708 358.368 247.188 366.859 242.908C375.349 238.629 377.674 234.019 376.674 231.327C375.673 228.634 371.455 223.961 369.157 224.977C366.859 225.993 349.878 235.771 349.878 235.771Z" fill="#160A5B"/>
<path d="M398.36 261.017C396.763 264.398 394.957 267.689 392.952 270.872C391.113 273.323 382.136 287.482 386.841 290.733C391.546 293.984 400.361 293.082 407.35 285.946C414.34 278.809 415.908 270.122 417.639 267.278C419.369 264.433 423.655 256.801 421.695 252.42C419.735 248.039 419.194 247.264 419.194 247.264L398.36 261.017Z" fill="#160A5B"/>
<path d="M362.154 155.665C362.154 155.665 332.586 183.146 327.678 196.899C327.14 199.231 327.193 201.649 327.832 203.958C328.47 206.268 329.677 208.404 331.356 210.195C337.075 216.037 349.242 235.136 349.242 235.136C349.242 235.136 358.314 245.448 370.036 237.206C370.036 237.206 375.335 229.256 372.077 223.961C368.819 218.665 360.153 201.788 360.153 201.788C360.153 201.788 379.148 189.508 388.544 186.41C393.439 184.849 398.229 183.013 402.889 180.911C401.338 186.905 398.413 192.509 394.317 197.331C387.463 205.433 375.971 218.462 379.797 227.529C382.226 233.588 385.465 239.332 389.437 244.622C393.033 249.829 396.426 260.725 399.495 261.855C402.564 262.985 416.719 264.293 419.018 255.62C421.316 246.946 414.205 230.133 411.001 224.418C411.001 224.418 449.316 182.905 452.912 178.333C456.508 173.761 374.024 148.617 362.154 155.665Z" fill="#24126A"/>
<path d="M372.077 223.961C368.819 218.679 360.153 201.789 360.153 201.789C360.153 201.789 379.148 189.509 388.545 186.41C393.439 184.849 398.229 183.013 402.889 180.912C407.023 175.181 410.452 169.03 413.11 162.574C391.478 156.631 368.035 152.148 362.127 155.666C364.223 160.517 375.241 160.479 375.241 160.479C375.241 160.479 379.297 169.889 382.082 171.082C384.867 172.276 391.343 170.968 391.343 170.968C391.343 170.968 390.289 172.517 385.638 175.68C380.987 178.842 351.838 201.268 351.838 201.268C351.838 201.268 353.488 202.157 361.302 215.339C369.117 228.52 370.063 237.206 370.063 237.206C370.063 237.206 375.336 229.257 372.077 223.961Z" fill="#160A5B"/>
<path d="M437.581 170.231C420.438 168.694 400.496 168.555 404.984 177.012C407.142 181.139 410.386 184.68 414.408 187.3C418.43 189.92 423.097 191.532 427.968 191.984C427.86 197.242 404.363 222.665 404.363 222.665L409.838 232.672C415.314 242.679 414.624 260.902 414.624 260.902C415.727 260.373 416.697 259.628 417.467 258.717C418.236 257.805 418.789 256.749 419.086 255.619C421.384 246.959 414.246 230.12 411.041 224.418C411.041 224.418 449.356 182.905 452.953 178.333C454.048 176.987 447.504 173.825 437.581 170.231Z" fill="#160A5B"/>
<path d="M332.208 82.4683L336.764 79.1412C336.764 79.1412 361.329 66.3151 369.495 62.1879C374.058 59.5952 378.202 56.4006 381.798 52.7017C383.391 51.1577 385.296 49.9286 387.402 49.0867C389.508 48.2449 391.772 47.8074 394.061 47.7999L437.094 47.5967C437.094 47.5967 442.096 55.1399 443.786 56.6257C445.03 57.7178 456.711 66.912 465.093 74.4806C469.717 78.6654 473.085 83.9219 474.855 89.7195C479.641 105.593 479.573 137.582 480.263 160.466C476.881 161.533 473.425 162.381 469.92 163.006C462.606 164.479 463.498 163.539 463.498 163.539C463.498 163.539 452.52 186.74 437.621 188.937C422.723 191.134 402.659 184.645 399.076 162.676C399.076 162.676 370.036 158.587 362.168 155.551C361.998 155.486 361.847 155.386 361.726 155.258C361.604 155.13 361.515 154.977 361.466 154.812C361.416 154.647 361.407 154.473 361.44 154.304C361.473 154.135 361.546 153.975 361.654 153.837C365.169 149.456 378.27 132.49 379.513 121.429C380.946 108.641 380.514 90.0878 379.432 85.0208C379.432 85.0208 357.53 92.7673 350.541 94.1515C350.541 94.1515 323.88 121.67 312.753 129.15C312.753 129.15 316.565 123.524 308.9 119.702L332.208 82.4683Z" fill="#453C9E"/>
<path d="M469.96 163.043L473.002 162.396L471.461 159.538L431.051 155.525L407.459 156.668L399.347 163.919C399.766 166.147 400.409 168.333 401.266 170.447C401.266 170.447 411.298 171.806 415.935 170.866C420.573 169.926 456.495 174.904 456.603 174.904C459.237 171.342 461.548 167.578 463.511 163.653C463.484 163.831 463.917 164.25 469.96 163.043Z" fill="#24126A"/>
<path d="M415.435 149.786C415.415 149.719 415.373 149.659 415.315 149.616C415.257 149.572 415.185 149.547 415.111 149.545C413.164 149.545 400.537 149.151 395.764 147.602C390.586 145.925 385.097 146.23 384.827 146.51C384.556 146.789 375.931 150.23 375.363 151.589C374.795 152.948 374.078 157.126 375.214 158.713C375.839 159.557 376.404 160.44 376.904 161.355L377.796 161.444C378.332 162.449 378.937 163.421 379.608 164.352C379.892 164.683 380.133 165.046 380.325 165.431C380.865 166.536 381.825 168.365 382.217 168.403C383.509 168.646 384.821 168.778 386.138 168.796C386.692 168.657 387.193 167.069 386.963 166.358C386.946 166.317 386.939 166.274 386.943 166.23C386.947 166.187 386.961 166.144 386.984 166.107C387.007 166.069 387.039 166.036 387.078 166.012C387.116 165.987 387.16 165.971 387.206 165.964C390.246 165.548 393.329 165.484 396.386 165.774C401.997 166.257 409.906 162.815 410.663 162.498C410.663 162.498 410.663 162.498 410.771 162.498L418.694 161.825C418.747 161.821 418.799 161.807 418.845 161.781C418.892 161.756 418.932 161.722 418.962 161.68C418.992 161.638 419.011 161.591 419.018 161.541C419.026 161.491 419.021 161.441 419.005 161.393L415.435 149.786Z" fill="#FCD1C5"/>
<path d="M405.904 71.3947C405.904 71.3947 399.144 94.7356 406.282 118.711C406.282 118.711 432.213 73.2742 435.025 65.9087C437.837 58.5433 438.865 53.2986 436.229 50.6699C433.592 48.0412 410.176 61.7053 410.176 61.7053L405.904 71.3947Z" fill="#F0F6FF"/>
<path d="M412.582 107.994C412.582 107.994 417.517 93.7961 416.638 89.2117C416.155 86.5463 415.459 83.9186 414.556 81.351L419.004 77.5413L420.978 81.351C420.978 81.351 430.78 74.5951 431.429 73.3379C431.429 73.3379 423.533 78.4175 421.046 79.1922C420.39 78.1661 419.457 77.3207 418.342 76.7412C416.787 76.1317 412.934 81.097 412.934 81.097L412.217 89.707L408.297 109.759L409.649 112.743L412.582 107.994Z" fill="#C4CCD6"/>
<path d="M408.297 71.6615C408.297 71.6615 407.364 80.8302 408.175 81.4779C408.986 82.1255 412.001 82.1763 413.407 81.4779C415.229 80.0585 416.9 78.4764 418.396 76.7538C418.396 76.7538 413.962 69.4392 408.297 71.6615Z" fill="#24126A"/>
<path d="M413.529 79.8013C415.184 84.7233 415.246 89.9965 413.705 94.9513C412.132 100.53 410.962 106.203 410.203 111.93L406.35 118.711C406.35 118.711 401.55 105.428 403.132 92.0432C403.835 86.0619 408.702 80.7537 408.702 80.7537L413.529 79.8013Z" fill="#24126A"/>
<path d="M393.79 34.1988C393.79 34.1988 392.6 39.8625 393.033 40.942C393.465 42.0214 394.993 42.7452 394.615 44.9549C394.236 47.1645 395.601 53.8442 396.305 55.9777C396.305 55.9777 395.791 58.327 396.494 59.0635C397.197 59.8001 398.103 59.762 398.765 60.8795C399.428 61.997 399.644 67.7116 402.118 69.6292C403.125 70.4223 404.302 71.002 405.569 71.3286C406.836 71.6552 408.163 71.7209 409.459 71.5213C410.661 71.1538 411.792 70.6094 412.812 69.9085L416.53 71.3943C416.53 71.3943 435.809 66.3147 435.214 53.5394V52.1679C435.926 51.2435 436.516 50.2414 436.972 49.1837C437.377 48.0026 440.568 42.7198 438.959 40.4467C438.959 40.4467 446.422 12.75 423.385 11.0738C400.347 9.39748 396.859 24.5729 393.79 34.1988Z" fill="#FCD1C5"/>
<path d="M435.215 53.5144V53.362C434.431 52.8275 433.478 52.5589 432.511 52.6C429.874 53.0445 430.483 47.9014 430.483 47.9014C429.649 50.3465 429.034 52.8527 428.644 55.3938C427.292 61.9592 412.758 69.9089 412.758 69.9089L416.53 71.3946C416.53 71.3946 435.81 66.2388 435.215 53.5144Z" fill="#E2B1A6"/>
<path d="M393.898 22.1727C391.64 26.6682 390.559 32.0653 395.25 35.6845C395.25 35.6845 399.211 36.7005 406.728 33.4114C410.828 31.7578 415.444 31.6307 419.64 33.0558C420.275 33.2349 420.83 33.603 421.223 34.1047C421.616 34.6063 421.824 35.2143 421.817 35.8369L421.708 39.7863C421.686 40.2843 421.82 40.7774 422.095 41.2042C422.369 41.631 422.77 41.9726 423.25 42.1865L426.751 43.5834L427.441 47.3931C427.489 47.6584 427.599 47.9106 427.762 48.132C427.925 48.3535 428.138 48.539 428.385 48.6755C428.632 48.8121 428.907 48.8965 429.193 48.9228C429.478 48.9492 429.766 48.9168 430.036 48.8281L430.929 48.5233C430.929 48.5233 431.443 39.9895 438.946 40.434C438.946 40.434 445.003 28.1032 438.797 16.8391C432.592 5.57505 415.543 6.3751 411.907 7.645C407.121 9.33398 407.851 9.08 405.052 10.6674C400.225 13.4057 396.35 17.403 393.898 22.1727Z" fill="#AA8383"/>
<path d="M455.21 109.072C455.21 109.072 451.722 133.2 450.289 140.071L439.014 145.658L459.036 144.503L455.21 109.072Z" fill="#24126A"/>
<path d="M438.946 40.4463C440.341 37.2947 441.199 33.9562 441.488 30.5537C435.914 34.6545 428.856 36.5499 421.817 35.8365L421.708 39.7859C421.686 40.2839 421.821 40.777 422.095 41.2038C422.369 41.6306 422.77 41.9722 423.25 42.1861L426.751 43.583L427.441 47.3927C427.49 47.658 427.599 47.9101 427.762 48.1316C427.925 48.3531 428.138 48.5385 428.385 48.6751C428.632 48.8117 428.907 48.8961 429.193 48.9224C429.478 48.9487 429.766 48.9164 430.037 48.8277L430.929 48.5229C430.929 48.5229 431.443 40.0018 438.946 40.4463Z" fill="#936D6D"/>
<path d="M443.921 61.667C443.921 61.667 437.959 80.9188 436.688 84.6269L431.916 84.0935L432.781 90.1891L406.945 122.267L435.661 91.3066L434.525 85.8714L438.879 86.3032L443.921 61.667Z" fill="#24126A"/>
<path d="M418.531 166.308C418.531 166.308 479.194 164.454 480.722 163.412C482.25 162.371 482.547 147.716 482.399 139.284C482.304 133.315 482.399 110 476.991 93.6562C481.236 107.498 479.005 156.479 477.072 158.968C475.139 161.457 417.45 162.892 417.45 162.892C418.058 164.873 418.531 166.308 418.531 166.308Z" fill="#263649"/>
<path d="M299.368 120.73C299.368 120.73 299.138 122.165 296.502 123.575C293.865 124.984 287.106 128.108 286.024 129.01C284.942 129.912 280.062 133.924 279.913 134.458C279.764 134.991 278.318 139.537 278.318 139.804C278.318 140.071 278.791 142.179 278.791 142.179L277.29 148.859C277.29 148.859 275.397 151.398 277.466 152.16C277.794 152.257 278.138 152.291 278.48 152.262C278.822 152.233 279.154 152.141 279.458 151.992C279.762 151.842 280.032 151.637 280.251 151.389C280.471 151.141 280.636 150.855 280.738 150.548C282.636 149.684 284.446 148.66 286.146 147.487C288.444 145.811 297.651 138.852 299.206 139.283C300.761 139.715 299.341 142.204 298.584 142.636C297.827 143.068 292.96 147.538 295.001 150.649C297.043 153.76 298.381 148.897 299.733 147.906C301.085 146.916 303.992 143.017 305.776 142.534C307.561 142.052 310.819 135.779 311.184 132.985C311.684 130.88 312.836 128.962 314.497 127.473C315.267 126.559 312.847 119.6 312.847 119.6L303.735 116.933L300.544 118.889L299.368 120.73Z" fill="#FCD1C5"/>
<path d="M472.502 84.0047C470.596 81.1728 469.717 83.2682 467.162 85.5921C462.692 89.5353 459.258 94.3999 457.13 99.8024C453.074 111.028 454.521 139.093 455.886 143.106C455.886 143.106 417.909 148.948 415.327 148.846C412.745 148.745 418.585 166.307 418.585 166.307C418.585 166.307 479.249 164.453 480.776 163.412C482.304 162.371 482.601 147.716 482.453 139.284C482.29 131.944 482.439 98.7483 472.502 84.0047Z" fill="#334659"/>
<path d="M418.531 166.307C418.531 166.307 479.194 164.453 480.722 163.412C482.25 162.37 482.547 147.716 482.399 139.284C482.304 133.315 482.399 109.999 476.991 93.6558C481.236 107.498 479.005 156.478 477.072 158.967C475.139 161.456 417.45 162.891 417.45 162.891C418.058 164.872 418.531 166.307 418.531 166.307Z" fill="#263649"/>
<path opacity="0.5" d="M374.362 260.191L176.636 152.973L282.806 95.3955L480.533 202.614L374.362 260.191Z" fill="url(#paint10_linear_19_345)"/>
<path opacity="0.4" d="M176.636 144.071V152.973L374.362 260.192L480.533 202.614V193.725L374.362 251.302L176.636 144.071Z" fill="url(#paint11_linear_19_345)"/>
<path opacity="0.5" d="M374.362 251.302L176.636 144.071L282.806 86.4937L480.533 193.725L374.362 251.302Z" fill="url(#paint12_linear_19_345)"/>
<path opacity="0.3" d="M385.949 167.78C385.949 167.78 393.533 170.32 399.347 169.419C405.16 168.517 433.146 167.996 433.146 167.996L428.752 165.609L418.95 159.259L394.615 160.796L385.313 163.894L385.949 167.78Z" fill="#180D5B"/>
<path d="M415.435 149.786C415.415 149.719 415.373 149.659 415.315 149.616C415.257 149.572 415.185 149.547 415.111 149.545C413.164 149.545 400.537 149.151 395.764 147.602C390.586 145.925 385.097 146.23 384.827 146.51C384.556 146.789 375.931 150.23 375.363 151.589C374.795 152.948 374.078 157.126 375.214 158.713C375.839 159.557 376.404 160.44 376.904 161.355L377.796 161.444C378.332 162.449 378.937 163.421 379.608 164.352C379.892 164.683 380.133 165.046 380.325 165.431C380.865 166.536 381.825 168.365 382.217 168.403C383.509 168.646 384.821 168.778 386.138 168.796C386.692 168.657 387.193 167.069 386.963 166.358C386.946 166.317 386.939 166.274 386.943 166.23C386.947 166.187 386.961 166.144 386.984 166.107C387.007 166.069 387.039 166.036 387.078 166.012C387.116 165.987 387.16 165.971 387.206 165.964C390.246 165.548 393.329 165.484 396.386 165.774C401.997 166.257 409.906 162.815 410.663 162.498C410.663 162.498 410.663 162.498 410.771 162.498L418.694 161.825C418.747 161.821 418.799 161.807 418.845 161.781C418.892 161.756 418.932 161.722 418.962 161.68C418.992 161.638 419.011 161.591 419.018 161.541C419.026 161.491 419.021 161.441 419.005 161.393L415.435 149.786Z" fill="#FCD1C5"/>
<path opacity="0.5" d="M437.946 183.235L436.864 182.651C432.903 180.492 433.403 176.733 437.986 174.257L470.285 156.732C474.868 154.193 481.804 153.977 485.779 156.123L486.847 156.707C490.821 158.866 490.321 162.625 485.738 165.114L453.426 182.626C448.856 185.115 441.907 185.381 437.946 183.235Z" fill="url(#paint13_linear_19_345)"/>
<path opacity="0.5" d="M489.523 160.047C489.405 159.321 489.095 158.634 488.623 158.049C488.151 157.464 487.531 156.998 486.819 156.694L485.751 156.11C481.777 153.964 474.841 154.231 470.258 156.72L438.04 174.257C435.607 175.527 434.336 177.254 434.255 178.854V184.137C434.309 184.92 434.59 185.674 435.066 186.318C435.542 186.963 436.197 187.473 436.959 187.794L438.04 188.378C442.001 190.524 448.937 190.258 453.52 187.769L485.833 170.244C488.185 168.974 489.456 167.361 489.605 165.799L489.523 160.047Z" fill="url(#paint14_linear_19_345)"/>
<path d="M472.502 84.0047C470.596 81.1728 469.717 83.2682 467.162 85.5921C462.692 89.5353 459.258 94.3999 457.13 99.8024C453.074 111.028 454.521 139.093 455.886 143.106C455.886 143.106 417.909 148.948 415.327 148.846C412.745 148.745 418.585 166.307 418.585 166.307C418.585 166.307 479.249 164.453 480.776 163.412C482.304 162.371 482.601 147.716 482.453 139.284C482.29 131.944 482.439 98.7483 472.502 84.0047Z" fill="#4846A5"/>
<path d="M418.531 166.308C418.531 166.308 479.194 164.454 480.722 163.412C482.25 162.371 482.547 147.716 482.399 139.284C482.304 133.315 482.399 110 476.991 93.6562C481.236 107.498 479.005 156.479 477.072 158.968C475.139 161.457 417.45 162.892 417.45 162.892C418.058 164.873 418.531 166.308 418.531 166.308Z" fill="#24126A"/>
<path opacity="0.3" d="M309.819 137.137C309.819 137.137 331.45 121.226 334.6 119.689C336.183 118.958 337.664 118.045 339.008 116.971L331.748 113.035L319.472 117.784L304.005 132.172L280.21 148.021V151.703C280.21 151.703 299.841 143.792 302.045 142.433C304.249 141.074 309.819 137.137 309.819 137.137Z" fill="#180D5B"/>
<path opacity="0.63" d="M296.894 151.551C299.22 149.574 301.767 147.841 304.492 146.382C307.466 145.112 312.212 141.645 312.793 139.017C313.374 136.388 318.296 130.572 318.296 130.572L310.4 134.889L298.949 141.099L279.859 151.398C280.338 151.802 280.935 152.064 281.572 152.15C282.21 152.236 282.861 152.142 283.442 151.881C285.848 151.119 290.377 148.401 292.486 148.16C294.595 147.919 298.084 147.309 298.084 147.309L296.894 151.551Z" fill="#2D2D2D"/>
<path d="M299.368 120.73C299.368 120.73 299.138 122.165 296.502 123.575C293.865 124.984 287.106 128.108 286.024 129.01C284.942 129.912 280.062 133.924 279.913 134.458C279.764 134.991 278.318 139.537 278.318 139.804C278.318 140.071 278.791 142.179 278.791 142.179L277.29 148.859C277.29 148.859 275.397 151.398 277.466 152.16C277.794 152.257 278.138 152.291 278.48 152.262C278.822 152.233 279.154 152.141 279.458 151.992C279.762 151.842 280.032 151.637 280.251 151.389C280.471 151.141 280.636 150.855 280.738 150.548C282.636 149.684 284.446 148.66 286.146 147.487C288.444 145.811 297.651 138.852 299.206 139.283C300.761 139.715 299.341 142.204 298.584 142.636C297.827 143.068 292.96 147.538 295.001 150.649C297.043 153.76 298.381 148.897 299.733 147.906C301.085 146.916 303.992 143.017 305.776 142.534C307.561 142.052 310.819 135.779 311.184 132.985C311.684 130.88 312.836 128.962 314.497 127.473C315.267 126.559 312.847 119.6 312.847 119.6L303.735 116.933L300.544 118.889L299.368 120.73Z" fill="#FCD1C5"/>
<path d="M381.622 73.7435C381.622 73.7435 381.257 60.9809 383.61 51.2026C382.968 51.6607 382.363 52.1615 381.798 52.7011C378.201 56.4 374.058 59.5946 369.495 62.1873C361.383 66.3399 336.764 79.1406 336.764 79.1406L332.207 82.4677C317.795 93.0715 301.707 116.158 299.368 120.73C300.49 119.32 303.424 116.996 308.94 119.778C316.606 123.587 312.996 129.34 312.996 129.34C324.096 121.86 350.581 94.2525 350.581 94.2525C357.124 92.9826 376.769 86.0743 379.216 85.2107C380.798 81.5699 381.615 77.6759 381.622 73.7435Z" fill="#4846A5"/>
<path d="M316.538 126.674C316.538 124.743 315.565 122.305 311.671 120.324C310.327 119.606 308.832 119.173 307.291 119.054C307.858 119.249 308.409 119.482 308.94 119.753C316.606 123.562 312.996 129.315 312.996 129.315C314.023 128.629 315.227 127.728 316.538 126.674Z" fill="url(#paint15_linear_19_345)"/>
<path d="M350.581 94.2526C357.571 92.8684 379.473 85.122 379.473 85.122C380.46 89.7826 380.919 105.86 379.865 118.355C386.327 95.6368 381.622 73.769 381.622 73.769C379.838 81.7822 345.119 92.8176 345.119 92.8176C339.589 100.805 313.307 123.867 313.307 123.867C313.638 124.74 313.763 125.67 313.674 126.593C313.586 127.516 313.285 128.41 312.793 129.213C323.92 121.746 350.581 94.2526 350.581 94.2526Z" fill="#24126A"/>
<path d="M243.829 160.694L249.088 163.234L301.815 134.623C302.361 134.392 302.958 134.284 303.557 134.309C304.155 134.333 304.739 134.488 305.263 134.763L396.264 184.111C397.129 183.654 401.104 181.863 401.104 181.863L399.171 186.575C399.069 186.817 398.877 187.016 398.63 187.134L343.064 217.268C342.519 217.501 341.923 217.611 341.324 217.589C340.725 217.567 340.141 217.414 339.616 217.142L246.519 166.637C246.17 166.477 245.895 166.201 245.749 165.863L243.829 160.694Z" fill="url(#paint16_linear_19_345)"/>
<path d="M244.708 161.558L340.144 213.319C340.681 213.597 341.279 213.753 341.892 213.775C342.505 213.797 343.114 213.685 343.672 213.446L400.617 182.562C401.523 182.079 401.415 181.216 400.361 180.657L304.925 128.896C304.388 128.618 303.79 128.462 303.178 128.437C302.566 128.413 301.956 128.522 301.396 128.756L244.451 159.64C243.477 160.084 243.585 160.935 244.708 161.558Z" fill="url(#paint17_linear_19_345)"/>
<path d="M244.707 160.986L340.143 212.747C340.679 213.027 341.277 213.186 341.89 213.21C342.503 213.234 343.113 213.124 343.672 212.887L400.617 182.003C400.87 181.876 401.067 181.669 401.172 181.419C401.243 181.633 401.226 181.865 401.123 182.067C401.02 182.27 400.839 182.428 400.617 182.511L343.672 213.395C343.114 213.634 342.504 213.746 341.892 213.724C341.279 213.702 340.68 213.546 340.143 213.268L244.707 161.558C244.004 161.177 243.734 160.669 243.896 160.288C244.073 160.601 244.359 160.848 244.707 160.986Z" fill="white"/>
<path d="M368.86 202.068V201.09C368.86 200.988 368.792 200.95 368.724 200.988L365.034 202.995C364.99 203.02 364.954 203.055 364.931 203.098C364.907 203.14 364.896 203.188 364.898 203.236V204.214C364.898 204.303 364.898 204.353 365.034 204.315L368.724 202.309C368.764 202.28 368.796 202.244 368.82 202.202C368.843 202.16 368.857 202.114 368.86 202.068Z" fill="#2842A2"/>
<path d="M363.344 205.065V204.074C363.344 203.985 363.276 203.947 363.208 203.985L359.518 206.005C359.477 206.032 359.443 206.068 359.42 206.11C359.396 206.152 359.383 206.199 359.382 206.246V207.274C359.382 207.363 359.382 207.414 359.518 207.363L363.208 205.37C363.257 205.334 363.296 205.288 363.319 205.234C363.343 205.181 363.352 205.122 363.344 205.065Z" fill="#2842A2"/>
<path d="M368.441 189.495L289.134 146.496C288.876 146.353 288.582 146.278 288.282 146.278C287.982 146.278 287.688 146.353 287.43 146.496L259.187 161.837C259.095 161.887 259.018 161.959 258.964 162.046C258.911 162.133 258.883 162.232 258.883 162.332C258.883 162.432 258.911 162.531 258.964 162.618C259.018 162.705 259.095 162.777 259.187 162.827L338.454 205.814C338.714 205.958 339.01 206.034 339.312 206.034C339.614 206.034 339.911 205.958 340.171 205.814L368.441 190.486C368.533 190.436 368.61 190.364 368.664 190.277C368.717 190.19 368.746 190.091 368.746 189.991C368.746 189.89 368.717 189.791 368.664 189.704C368.61 189.618 368.533 189.545 368.441 189.495Z" fill="#ADB1F2"/>
<path d="M368.441 190.524L368.157 190.677L289.134 147.83C288.876 147.687 288.582 147.612 288.282 147.612C287.982 147.612 287.688 147.687 287.43 147.83L259.471 163.069L259.187 162.917C259.095 162.866 259.018 162.794 258.964 162.707C258.911 162.62 258.883 162.522 258.883 162.421C258.883 162.321 258.911 162.222 258.964 162.135C259.018 162.048 259.095 161.976 259.187 161.926L287.43 146.586C287.688 146.443 287.982 146.367 288.282 146.367C288.582 146.367 288.876 146.443 289.134 146.586L368.441 189.496C368.543 189.543 368.63 189.616 368.691 189.707C368.752 189.798 368.784 189.903 368.784 190.01C368.784 190.117 368.752 190.223 368.691 190.314C368.63 190.405 368.543 190.478 368.441 190.524Z" fill="#9198DB"/>
<path d="M285.294 150.42L358.355 190.029L361.964 188.67L288.363 148.757L285.294 150.42Z" fill="#24126A"/>
<path d="M277.791 154.484L342.401 189.534L345.47 187.87L280.846 152.833L277.791 154.484Z" fill="#24126A"/>
<path d="M272.896 157.139L348.972 198.398L352.041 196.734L275.965 155.475L272.896 157.139Z" fill="#24126A"/>
<path d="M268.002 159.793L344.078 201.052L347.147 199.389L271.071 158.129L268.002 159.793Z" fill="#24126A"/>
<path d="M263.108 162.447L339.197 203.706L342.253 202.042L266.177 160.783L263.108 162.447Z" fill="#24126A"/>
<path d="M358.355 190.029L361.41 191.692L364.479 190.029L361.41 188.378L358.355 190.029Z" fill="#24126A"/>
<path d="M338.684 187.515L353.907 195.77L356.962 194.106L341.644 185.801L338.684 187.515Z" fill="#24126A"/>
<path d="M340.211 170.27L318.823 158.663C317.985 158.218 317.985 157.482 318.823 157.025L333.451 149.1C333.92 148.875 334.439 148.758 334.966 148.758C335.492 148.758 336.011 148.875 336.48 149.1L357.855 160.695C358.037 160.752 358.197 160.862 358.309 161.009C358.422 161.156 358.483 161.333 358.483 161.514C358.483 161.695 358.422 161.871 358.309 162.018C358.197 162.165 358.037 162.275 357.855 162.333L343.24 170.27C342.769 170.489 342.251 170.603 341.725 170.603C341.2 170.603 340.682 170.489 340.211 170.27Z" fill="url(#paint18_linear_19_345)"/>
<path d="M357.855 161.367L336.48 149.773C336.011 149.548 335.492 149.43 334.966 149.43C334.439 149.43 333.92 149.548 333.451 149.773L318.823 157.748C318.603 157.86 318.421 158.027 318.296 158.23C318.079 157.837 318.296 157.392 318.823 157.075L333.451 149.151C333.92 148.926 334.439 148.808 334.966 148.808C335.492 148.808 336.011 148.926 336.48 149.151L357.855 160.745C358.436 161.062 358.612 161.507 358.382 161.901C358.265 161.678 358.082 161.493 357.855 161.367Z" fill="#9198DB"/>
<path d="M243.978 159.361L256.037 92.1316L255.064 91.7507L256.524 90.9633C256.699 90.8737 256.898 90.8333 257.097 90.8468C257.296 90.8603 257.486 90.9272 257.646 91.0395L354.069 143.322C354.476 143.566 354.806 143.907 355.025 144.312C355.243 144.716 355.343 145.168 355.313 145.62L343.145 213.382C343.129 213.53 343.074 213.672 342.984 213.794C342.894 213.916 342.773 214.015 342.631 214.081L341.212 214.855L340.968 213.586H341.049L245.208 161.621C244.81 161.379 244.486 161.042 244.271 160.645C244.055 160.249 243.954 159.806 243.978 159.361Z" fill="url(#paint19_linear_19_345)"/>
<path d="M353.528 145.176L355.11 144.516C355.29 144.862 355.361 145.25 355.313 145.633L343.145 213.395C343.129 213.543 343.074 213.685 342.984 213.807C342.894 213.929 342.773 214.028 342.631 214.094L341.212 214.868L340.968 213.599H341.049L336.196 210.97L353.528 145.176Z" fill="url(#paint20_linear_19_345)"/>
<path d="M243.707 162.485L340.13 214.768C340.874 215.174 341.482 214.945 341.644 214.221L353.812 146.447C353.842 145.994 353.743 145.542 353.524 145.138C353.305 144.734 352.975 144.392 352.568 144.148L256.132 91.8659C255.388 91.4596 254.78 91.6881 254.618 92.4247L242.45 160.187C242.421 160.641 242.523 161.093 242.744 161.498C242.965 161.902 243.298 162.243 243.707 162.485Z" fill="#453C9E"/>
<path d="M186.397 329.186C190.45 330.087 194.581 330.648 198.74 330.862C204.811 331.09 221.305 334.202 220.899 339.98C220.494 345.758 211.855 354.139 201.066 355.371C190.277 356.603 176.338 353.682 169.281 353.873C167.626 353.885 165.993 353.508 164.534 352.774C163.074 352.041 161.833 350.976 160.925 349.676C160.017 348.376 159.471 346.882 159.336 345.333C159.202 343.783 159.483 342.226 160.155 340.805C162.9 334.392 186.397 329.186 186.397 329.186Z" fill="#160A5B"/>
<path d="M149.988 313.668C149.988 313.668 147.676 317.16 148.799 319.306C149.921 321.452 152.963 326.798 162.846 321.63C172.729 316.461 191.656 309.134 191.656 309.134C191.656 309.134 202.54 303.686 201.945 297.273C201.35 290.86 191.332 291.851 191.332 291.851L149.988 313.668Z" fill="#160A5B"/>
<path d="M214.099 222.653C214.099 222.653 209.908 264.331 200.985 280.129C191.927 296.181 189.425 325.579 187.533 331.192C185.64 336.805 179.759 344.958 170.511 346.672C161.264 348.386 159.695 342.481 160.196 338.938C160.696 335.395 163.211 329.668 163.251 325.82C163.292 321.972 162.332 320.207 162.197 318.442C162.197 318.442 151.597 321.376 150.029 313.667C150.455 312.563 150.789 311.429 151.029 310.277C151.164 309.121 150.123 281.221 149.867 277.843C149.61 274.465 151.543 256.255 154.49 247.251C157.438 238.247 156.437 219.377 156.437 219.377L186.573 215.427L214.099 222.653Z" fill="#24126A"/>
<path d="M154.45 247.251C157.357 238.362 156.397 219.377 156.397 219.377L159.033 219.034C159.141 221.662 159.777 238.298 157.1 246.489C154.125 255.531 152.26 273.69 152.516 277.119C152.773 280.548 153.868 308.384 153.733 309.527C153.493 310.68 153.159 311.814 152.733 312.918C154.355 320.626 164.901 317.693 164.901 317.693C165.049 319.445 165.996 321.236 165.969 325.071C165.942 328.906 163.386 334.621 162.927 338.164C162.467 341.707 163.995 347.624 173.256 345.897C173.54 345.897 173.797 345.732 174.08 345.669C172.922 346.145 171.711 346.503 170.471 346.736C161.21 348.463 159.655 342.545 160.155 339.002C160.655 335.459 163.17 329.731 163.211 325.884C163.251 322.036 162.291 319.915 162.143 318.163C162.143 318.163 151.557 321.439 149.975 313.731C150.4 312.626 150.735 311.493 150.975 310.34C151.11 309.184 150.069 281.285 149.812 277.907C149.556 274.529 151.502 256.242 154.45 247.251Z" fill="url(#paint21_linear_19_345)"/>
<path d="M165.333 222.399C165.502 226.535 166.521 230.601 168.335 234.374C168.335 234.374 168.335 256.534 170.701 267.747C170.701 267.747 166.807 290.275 164.346 297.374C161.886 304.473 162.237 318.442 162.237 318.442C161.291 318.741 160.302 318.904 159.303 318.924C157.573 318.988 157.451 291.393 160.101 286.529C162.751 281.665 164.752 260.166 163.751 253.613C162.751 247.06 163.103 228.469 161.791 225.18C161.395 224.286 161.342 223.291 161.64 222.365C161.939 221.438 162.57 220.638 163.427 220.1L165.333 222.399Z" fill="#160A5B"/>
<path d="M190.723 72.0547C190.723 72.0547 199.484 78.0105 199.052 88.2968L192.535 87.0269C192.535 87.0269 194.468 75.5977 190.723 72.0547Z" fill="#160A5B"/>
<path d="M187.316 231.479C167.321 232.05 156.518 223.732 156.518 223.732C156.518 221.104 156.397 219.377 156.397 219.377L186.573 215.427L214.113 222.653C214.113 222.653 213.288 230.869 211.584 241.384C206.677 241.892 201.864 230.577 201.864 230.577L188.141 231.39C188.141 231.39 207.299 230.907 187.316 231.479Z" fill="#160A5B"/>
<path d="M210.246 223.262C210.246 223.262 166.766 239.936 145.743 208.315C145.144 207.378 144.852 206.296 144.905 205.204L145.175 197.839C145.208 196.912 145.066 195.988 144.756 195.108C144.079 193.211 143.93 191.183 144.324 189.216C145.946 180.987 150.353 158.586 151.381 152.389C152.652 144.769 148.366 114.469 141.16 101.338C133.954 88.2076 152.3 59.2664 152.3 59.2664C153.709 57.288 155.756 55.7861 158.141 54.9815C160.526 54.1769 163.123 54.112 165.55 54.7963C165.55 54.7963 157.194 60.295 161.764 66.0858C166.334 71.8766 180.124 76.6006 180.124 76.6006C180.124 76.6006 205.541 88.9822 214.234 104.056C216.22 109.805 217.317 115.793 217.492 121.835C217.763 131.854 216.573 155.919 217.019 159.259C217.465 162.599 218.817 185.546 218.682 186.613C218.547 187.679 210.246 223.262 210.246 223.262Z" fill="#453C9E"/>
<path d="M161.466 58.9874C161.16 58.247 161.015 57.4561 161.04 56.6619C161.066 55.8678 161.261 55.0866 161.615 54.3649C162.942 54.3077 164.27 54.4492 165.549 54.784C163.908 55.9204 162.521 57.3485 161.466 58.9874Z" fill="url(#paint22_linear_19_345)"/>
<path d="M197.064 226.678C197.064 226.678 171.458 161.723 172.728 138.153C173.918 115.168 210.111 184.721 210.111 184.721L210.3 223.262C206.002 224.762 201.574 225.905 197.064 226.678Z" fill="#24126A"/>
<path d="M145.459 188.746C145.774 189.621 145.917 190.542 145.878 191.464L145.621 198.779C145.564 199.867 145.856 200.947 146.459 201.877C167.415 233.282 210.746 216.722 210.746 216.722C210.746 216.722 216.708 191.172 218.574 182.905C218.668 184.924 218.709 186.334 218.682 186.575C218.533 187.642 210.246 223.262 210.246 223.262C210.246 223.262 166.766 239.936 145.743 208.316C145.143 207.379 144.852 206.296 144.905 205.204L145.175 197.839C145.208 196.913 145.066 195.988 144.756 195.109C144.079 193.211 143.93 191.183 144.323 189.216C144.486 188.365 144.688 187.324 144.918 186.181C144.995 187.053 145.176 187.913 145.459 188.746Z" fill="url(#paint23_linear_19_345)"/>
<path d="M141.849 95.5224C149.042 108.577 153.314 138.699 152.057 146.242C151.949 146.941 151.786 147.855 151.597 148.909C151.597 138.039 147.541 112.933 141.16 101.275C139.159 97.6431 139.213 92.6905 140.254 87.4966C140.062 90.2551 140.611 93.0148 141.849 95.5224Z" fill="url(#paint24_linear_19_345)"/>
<path d="M210.908 149.951C209.963 144.687 209.453 139.363 209.381 134.026C209.232 124.73 206.474 109.491 188.682 112.12C163.522 115.93 174.283 148.947 177.041 154.764C179.799 160.58 190.818 186.791 191.399 188.276C191.981 189.762 209.34 222.399 215.546 230.247C215.667 230.416 215.825 230.558 216.009 230.665C216.193 230.772 216.399 230.841 216.614 230.868C216.829 230.894 217.047 230.877 217.255 230.819C217.462 230.76 217.654 230.66 217.817 230.526C220.332 228.507 225.929 223.707 226.74 220.672C227.686 216.76 224.036 202.601 224.036 202.601C224.036 202.601 214.248 167.221 213.423 165.583C212.815 164.351 212.382 158.535 210.908 149.951Z" fill="#4846A5"/>
<path d="M190.29 72.804C190.29 72.804 192.291 68.5371 196.902 68.0926C201.512 67.6481 204.135 66.4417 204.608 64.8416C204.93 62.8203 205.465 60.8338 206.203 58.9112C207.181 56.1888 207.865 53.3808 208.245 50.5298C208.245 50.3901 211.733 49.3996 211.909 47.99C212.084 46.5804 210.259 41.3738 210.462 40.9674C210.665 40.561 212.544 37.399 212.287 34.9353C212.118 31.8429 211.443 28.7933 210.286 25.8936C208.934 22.8839 199.119 4.55916 173.688 13.9946C148.001 23.5316 167.523 43.7993 164.981 56.9428C164.981 56.9428 162.697 59.7112 166.888 64.4099C171.079 69.1085 183.274 70.1244 190.29 72.804Z" fill="#FCD1C5"/>
<path d="M166.888 64.3718C162.697 59.6731 164.982 56.9047 164.982 56.9047C165.303 54.9724 165.289 53.0041 164.941 51.0759L175.013 52.8791C175.013 52.8791 189.885 40.4595 188.817 47.1138C187.749 53.7681 191.372 54.9745 191.372 54.9745L188.317 58.6191C187.533 59.5462 188.006 60.651 188.641 61.6796C192.887 68.5371 203.189 66.4798 203.202 66.4798C201.263 67.461 199.115 68.0209 196.915 68.118C192.305 68.5625 190.304 72.8294 190.304 72.8294C183.274 70.1245 171.106 69.0959 166.888 64.3718Z" fill="#E2B1A6"/>
<path d="M211.395 18.8835C211.395 18.8835 213.166 23.7853 210.286 25.8553C207.407 27.9252 204.797 29.8682 204.797 29.8682V36.0907C204.803 36.9908 204.531 37.8731 204.013 38.6305L200.376 43.888C199.683 44.9092 199.308 46.0927 199.295 47.304V49.8438C199.295 50.1981 199.158 50.5403 198.909 50.8066C198.66 51.073 198.317 51.2453 197.943 51.2915L196.983 51.3931C196.582 51.4323 196.18 51.3207 195.866 51.0828C195.552 50.8449 195.351 50.4999 195.306 50.1232L194.901 46.5929C194.901 46.5929 193.008 43.761 188.817 47.1389L185.058 48.5358C184.536 48.7373 184.064 49.039 183.673 49.4217C183.282 49.8044 182.98 50.2596 182.787 50.7581C181.733 53.4757 179.488 58.8475 177.798 59.7364C175.527 61.0063 166.726 56.6759 165.549 54.7837C164.373 52.8916 161.412 40.2941 159.533 34.2875C157.654 28.2808 158.776 13.5626 177.731 9.79096C196.685 6.01934 208.786 13.5499 211.395 18.8835Z" fill="#AA8383"/>
<path d="M165.549 54.7837C164.387 52.8916 161.412 40.2941 159.574 34.2874C164.722 37.2844 170.445 39.3076 176.419 40.2433C185.883 41.6021 204.811 31.5317 204.811 31.5317V36.0907C204.817 36.9908 204.544 37.8731 204.027 38.6305L200.39 43.8879C199.696 44.9092 199.322 46.0927 199.308 47.304V49.8438C199.308 50.1981 199.171 50.5403 198.922 50.8066C198.674 51.0729 198.33 51.2453 197.956 51.2915L196.996 51.3931C196.595 51.4323 196.194 51.3207 195.879 51.0828C195.565 50.8449 195.364 50.4999 195.32 50.1232L194.914 46.5928C194.914 46.5928 193.022 43.7609 188.83 47.1389L183.423 49.2342C183.423 49.2342 180.124 58.5808 177.839 59.7872C175.554 60.9936 166.726 56.6759 165.549 54.7837Z" fill="#936D6D"/>
<path d="M165.184 55.3813C165.184 55.3813 157.816 59.6482 161.48 65.693C165.144 71.7377 191.886 82.5954 193.211 84.1955C193.211 84.1955 194.265 75.1157 190.723 72.0552C190.723 72.0552 170.281 68.2455 167.104 63.4072C163.927 58.5688 165.184 55.3813 165.184 55.3813Z" fill="#F0F6FF"/>
<path d="M165.184 55.3813C165.184 55.3813 163.941 58.5307 167.104 63.4072C169.497 67.1153 181.787 70.1631 187.627 71.4203C187.627 71.4203 185.464 72.5886 181.827 78.392C173.607 74.3918 163.643 69.236 161.48 65.693C157.816 59.6482 165.184 55.3813 165.184 55.3813Z" fill="#C4CCD6"/>
<path d="M160.196 74.7344C160.196 74.7344 172.093 81.0839 177.893 84.0301C183.693 86.9763 190.061 90.786 190.061 90.786L192.291 88.7033L194.995 94.2147C194.995 94.2147 204.148 99.3325 208.353 103.663C211.609 107.001 214.295 110.792 216.316 114.902C216.316 114.902 204.905 100.844 195.915 96.6657L193.508 95.5227L192.156 91.1543L189.953 93.3512C189.953 93.3512 163.819 78.5441 160.196 74.7344Z" fill="#24126A"/>
<path d="M190.885 264.42C191.19 263.505 191.739 262.679 192.481 262.02L241.422 223.415C242.774 222.399 243.951 223.186 244.207 225.155L249.926 270.097C250.06 271.118 249.959 272.154 249.63 273.135C249.301 274.117 248.752 275.021 248.02 275.786L206.92 309.172L208.272 322.163L196.036 316.779C195.696 316.51 195.423 316.174 195.238 315.794C195.053 315.413 194.961 314.999 194.968 314.582L190.399 267.595C190.319 266.516 190.485 265.434 190.885 264.42Z" fill="url(#paint25_linear_19_345)"/>
<path d="M254.753 227.771L243.18 223.085L242.815 222.932C242.571 222.895 242.322 222.913 242.087 222.984C241.852 223.054 241.638 223.176 241.463 223.339L192.521 261.944C191.775 262.599 191.225 263.427 190.926 264.344L192.67 265.144L202.634 269.665L245.492 235.212L254.753 227.771Z" fill="#453C9E"/>
<path d="M260.066 280.751L210.043 321.705C208.691 322.823 207.339 321.972 207.15 319.788L202.283 272.585C202.181 271.558 202.31 270.521 202.661 269.543C203.013 268.566 203.58 267.668 204.324 266.909L253.158 228.113C254.51 227.097 255.699 227.872 255.956 229.866L261.972 275.024C262.11 276.051 262.011 277.094 261.682 278.082C261.353 279.07 260.802 279.98 260.066 280.751Z" fill="#24126A"/>
<path d="M200.904 317.032L196.185 269.944C196.085 268.918 196.216 267.883 196.571 266.907C196.925 265.931 197.494 265.036 198.24 264.28L247.128 225.599C247.442 225.319 247.857 225.161 248.29 225.155C248.02 225.071 247.729 225.059 247.452 225.122C247.175 225.185 246.922 225.319 246.722 225.51L197.835 264.204C197.082 264.954 196.51 265.846 196.155 266.821C195.801 267.795 195.673 268.83 195.78 269.855L200.485 316.931C200.633 318.429 201.242 319.356 202.093 319.394C201.445 319.128 201.025 318.264 200.904 317.032Z" fill="#160A5B"/>
<path d="M218.831 247.708L216.262 246.514C215.783 246.258 215.224 246.164 214.68 246.248H214.464C214.207 246.248 214.085 246.565 214.126 246.933V247.365L221.332 250.743V250.311C221.261 249.902 221.069 249.519 220.778 249.207L220.534 248.965C220.052 248.453 219.475 248.027 218.831 247.708Z" fill="#160A5B"/>
<path d="M217.925 253.525L221.373 250.782L214.234 246.438L210.827 249.118L217.925 253.525Z" fill="#160A5B"/>
<path d="M215.37 250.451L212.814 249.245C212.33 248.988 211.768 248.894 211.219 248.978H211.003C210.759 248.978 210.624 249.296 210.665 249.664V250.096L217.871 253.486V253.055C217.805 252.643 217.613 252.259 217.317 251.95L217.087 251.696C216.603 251.183 216.021 250.76 215.37 250.451Z" fill="url(#paint26_linear_19_345)"/>
<path d="M213.842 251.607L213.612 249.625L213.842 249.727L214.058 251.708L213.842 251.607Z" fill="#722318"/>
<path d="M213.626 249.626L217.168 246.934L217.357 247.022L213.842 249.727L213.626 249.626Z" fill="#722318"/>
<path d="M234.379 235.428L231.823 234.247C231.337 233.996 230.777 233.902 230.228 233.98H230.025C229.782 233.98 229.647 234.285 229.687 234.641V235.072L236.88 238.412V237.981C236.808 237.579 236.616 237.204 236.326 236.901L236.082 236.647C235.592 236.153 235.016 235.741 234.379 235.428Z" fill="#160A5B"/>
<path d="M233.513 241.181L236.934 238.463L229.795 234.171L226.429 236.825L233.513 241.181Z" fill="#160A5B"/>
<path d="M230.958 238.133L228.403 236.952C227.926 236.689 227.365 236.595 226.821 236.685H226.618C226.361 236.685 226.226 236.99 226.28 237.358V237.79L233.473 241.143V240.711C233.41 240.305 233.222 239.926 232.932 239.619L232.689 239.365C232.197 238.858 231.611 238.44 230.958 238.133Z" fill="url(#paint27_linear_19_345)"/>
<path d="M229.444 239.276L229.214 237.32L229.43 237.422L229.66 239.378L229.444 239.276Z" fill="#722318"/>
<path d="M229.214 237.32L232.729 234.666L232.905 234.755L229.43 237.422L229.214 237.32Z" fill="#722318"/>
<path d="M212.26 240.215L213.18 248.597L215.491 246.768L214.586 238.628C214.532 237.998 214.625 237.365 214.859 236.773C215.092 236.181 215.46 235.644 215.938 235.199L225.902 227.376C226.78 226.678 227.619 227.072 227.754 228.24L228.714 236.291L230.999 234.488L230.012 226.234C229.701 223.694 227.862 222.792 225.956 224.329L215.302 232.672C214.243 233.647 213.422 234.826 212.897 236.129C212.372 237.432 212.154 238.826 212.26 240.215Z" fill="#453C9E"/>
<path d="M229.417 226.819L225.361 226.425L213.491 236.826L212.977 243.175L213.22 248.534L215.924 249.804L216.005 243.125L216.154 238.553L218.615 235.251C218.615 235.251 223.063 231.873 223.117 231.784C223.171 231.695 229.417 226.819 229.417 226.819Z" fill="#453C9E"/>
<path d="M231.391 237.524L228.741 236.292L228.038 230.362L230.566 230.552L231.31 230.667L231.391 237.524Z" fill="#453C9E"/>
<path d="M231.296 225.053L228.443 223.783C228.443 223.783 229.2 225.244 229.214 225.231L230.16 225.548L231.296 225.053Z" fill="#453C9E"/>
<path d="M214.883 241.448L215.816 249.842L218.141 248.014L217.222 239.861C217.172 239.232 217.267 238.6 217.5 238.008C217.733 237.416 218.1 236.879 218.574 236.432L228.538 228.597C229.417 227.898 230.255 228.292 230.39 229.46L231.364 237.524L233.648 235.721L232.648 227.454C232.337 224.914 230.498 224.012 228.592 225.549L217.938 233.943C216.886 234.915 216.068 236.088 215.541 237.383C215.014 238.678 214.789 240.064 214.883 241.448Z" fill="#160A5B"/>
<path d="M226.023 220.329C226.023 220.329 227.713 228.52 227.24 230.577C226.767 232.635 222.589 236.609 220.075 237.333C217.56 238.057 218.587 235.251 218.02 233.523C217.641 231.675 217.483 229.792 217.546 227.91L226.023 220.329Z" fill="#FCD1C5"/>
<path d="M217.546 227.86L226.023 220.329C226.023 220.329 226.375 222.005 226.699 224.037C226.699 224.037 223.549 230.133 217.803 232.546C217.597 230.992 217.511 229.425 217.546 227.86Z" fill="#E2B1A6"/>
<path d="M226.659 220.939C226.659 220.939 223.657 229.828 216.127 230.603L218.682 220.939C218.682 220.939 225.036 219.25 225.239 219.225C225.774 219.749 226.249 220.323 226.659 220.939Z" fill="#4846A5"/>
<path d="M177.65 117.327C170.673 137.277 188.154 168.314 190.669 177.368C193.184 186.423 219.777 228.863 219.791 228.863L220.034 229.282C219.483 229.685 218.905 230.054 218.304 230.387C217.925 230.569 217.526 230.709 217.114 230.806C216.822 230.856 216.52 230.825 216.247 230.717C215.973 230.609 215.739 230.428 215.573 230.196C209.367 222.348 191.981 189.559 191.426 188.226C190.872 186.893 179.813 160.58 177.109 154.764C174.838 150.129 167.456 127.804 177.65 117.327Z" fill="url(#paint28_linear_19_345)"/>
<defs>
<linearGradient id="paint0_linear_19_345" x1="420.83" y1="234.704" x2="306.244" y2="264.477" gradientUnits="userSpaceOnUse">
<stop stop-color="#5761D7"/>
<stop offset="0.18" stop-color="#5C66D9"/>
<stop offset="0.39" stop-color="#6A73DF"/>
<stop offset="0.61" stop-color="#8289E8"/>
<stop offset="0.85" stop-color="#A3A7F5"/>
<stop offset="1" stop-color="#BCBEFF"/>
</linearGradient>
<linearGradient id="paint1_linear_19_345" x1="18697.9" y1="4877.63" x2="24236.9" y2="4877.63" gradientUnits="userSpaceOnUse">
<stop stop-color="#5761D7"/>
<stop offset="0.18" stop-color="#5C66D9"/>
<stop offset="0.39" stop-color="#6A73DF"/>
<stop offset="0.61" stop-color="#8289E8"/>
<stop offset="0.85" stop-color="#A3A7F5"/>
<stop offset="1" stop-color="#BCBEFF"/>
</linearGradient>
<linearGradient id="paint2_linear_19_345" x1="12893.8" y1="5885.44" x2="12191.9" y2="5018" gradientUnits="userSpaceOnUse">
<stop stop-color="#5761D7"/>
<stop offset="0.18" stop-color="#5C66D9"/>
<stop offset="0.39" stop-color="#6A73DF"/>
<stop offset="0.61" stop-color="#8289E8"/>
<stop offset="0.85" stop-color="#A3A7F5"/>
<stop offset="1" stop-color="#BCBEFF"/>
</linearGradient>
<linearGradient id="paint3_linear_19_345" x1="22457.6" y1="5964.46" x2="28234.7" y2="5964.46" gradientUnits="userSpaceOnUse">
<stop stop-color="#5761D7"/>
<stop offset="0.18" stop-color="#5C66D9"/>
<stop offset="0.39" stop-color="#6A73DF"/>
<stop offset="0.61" stop-color="#8289E8"/>
<stop offset="0.85" stop-color="#A3A7F5"/>
<stop offset="1" stop-color="#BCBEFF"/>
</linearGradient>
<linearGradient id="paint4_linear_19_345" x1="6698.75" y1="10058.5" x2="7021.47" y2="10058.5" gradientUnits="userSpaceOnUse">
<stop stop-color="#5761D7"/>
<stop offset="0.18" stop-color="#5C66D9"/>
<stop offset="0.39" stop-color="#6A73DF"/>
<stop offset="0.61" stop-color="#8289E8"/>
<stop offset="0.85" stop-color="#A3A7F5"/>
<stop offset="1" stop-color="#BCBEFF"/>
</linearGradient>
<linearGradient id="paint5_linear_19_345" x1="414.489" y1="241.778" x2="560.746" y2="241.778" gradientUnits="userSpaceOnUse">
<stop stop-color="#C0BFF6"/>
<stop offset="0.29" stop-color="#C5C4F7"/>
<stop offset="0.64" stop-color="#D3D2F9"/>
<stop offset="1" stop-color="#E9E9FD"/>
</linearGradient>
<linearGradient id="paint6_linear_19_345" x1="341.482" y1="119.689" x2="396.818" y2="119.689" gradientUnits="userSpaceOnUse">
<stop stop-color="#42E8E0"/>
<stop offset="0.15" stop-color="#43E3E0"/>
<stop offset="0.33" stop-color="#45D5DF"/>
<stop offset="0.52" stop-color="#49BDDD"/>
<stop offset="0.72" stop-color="#4E9CDB"/>
<stop offset="0.93" stop-color="#5472D8"/>
<stop offset="1" stop-color="#5761D7"/>
</linearGradient>
<linearGradient id="paint7_linear_19_345" x1="14321.7" y1="3481.51" x2="16587.2" y2="3481.51" gradientUnits="userSpaceOnUse">
<stop stop-color="#42E8E0"/>
<stop offset="0.15" stop-color="#43E3E0"/>
<stop offset="0.33" stop-color="#45D5DF"/>
<stop offset="0.52" stop-color="#49BDDD"/>
<stop offset="0.72" stop-color="#4E9CDB"/>
<stop offset="0.93" stop-color="#5472D8"/>
<stop offset="1" stop-color="#5761D7"/>
</linearGradient>
<linearGradient id="paint8_linear_19_345" x1="49917.9" y1="6177.94" x2="38030.6" y2="25397" gradientUnits="userSpaceOnUse">
<stop stop-color="#42E8E0"/>
<stop offset="0.15" stop-color="#43E3E0"/>
<stop offset="0.33" stop-color="#45D5DF"/>
<stop offset="0.52" stop-color="#49BDDD"/>
<stop offset="0.72" stop-color="#4E9CDB"/>
<stop offset="0.93" stop-color="#5472D8"/>
<stop offset="1" stop-color="#5761D7"/>
</linearGradient>
<linearGradient id="paint9_linear_19_345" x1="25662.6" y1="20551" x2="30831.2" y2="20551" gradientUnits="userSpaceOnUse">
<stop stop-color="#42E8E0"/>
<stop offset="0.15" stop-color="#43E3E0"/>
<stop offset="0.33" stop-color="#45D5DF"/>
<stop offset="0.52" stop-color="#49BDDD"/>
<stop offset="0.72" stop-color="#4E9CDB"/>
<stop offset="0.93" stop-color="#5472D8"/>
<stop offset="1" stop-color="#5761D7"/>
</linearGradient>
<linearGradient id="paint10_linear_19_345" x1="39880.8" y1="23130.5" x2="108191" y2="23130.5" gradientUnits="userSpaceOnUse">
<stop stop-color="#42E8E0"/>
<stop offset="0.15" stop-color="#43E3E0"/>
<stop offset="0.33" stop-color="#45D5DF"/>
<stop offset="0.52" stop-color="#49BDDD"/>
<stop offset="0.72" stop-color="#4E9CDB"/>
<stop offset="0.93" stop-color="#5472D8"/>
<stop offset="1" stop-color="#5761D7"/>
</linearGradient>
<linearGradient id="paint11_linear_19_345" x1="39880.8" y1="18601.4" x2="108191" y2="18601.4" gradientUnits="userSpaceOnUse">
<stop stop-color="#42E8E0"/>
<stop offset="0.15" stop-color="#43E3E0"/>
<stop offset="0.33" stop-color="#45D5DF"/>
<stop offset="0.52" stop-color="#49BDDD"/>
<stop offset="0.72" stop-color="#4E9CDB"/>
<stop offset="0.93" stop-color="#5472D8"/>
<stop offset="1" stop-color="#5761D7"/>
</linearGradient>
<linearGradient id="paint12_linear_19_345" x1="39880.8" y1="21969.8" x2="108191" y2="21969.8" gradientUnits="userSpaceOnUse">
<stop stop-color="#42E8E0"/>
<stop offset="0.15" stop-color="#43E3E0"/>
<stop offset="0.33" stop-color="#45D5DF"/>
<stop offset="0.52" stop-color="#49BDDD"/>
<stop offset="0.72" stop-color="#4E9CDB"/>
<stop offset="0.93" stop-color="#5472D8"/>
<stop offset="1" stop-color="#5761D7"/>
</linearGradient>
<linearGradient id="paint13_linear_19_345" x1="18205.9" y1="4160.33" x2="20470.9" y2="4160.33" gradientUnits="userSpaceOnUse">
<stop stop-color="#42E8E0"/>
<stop offset="0.15" stop-color="#43E3E0"/>
<stop offset="0.33" stop-color="#45D5DF"/>
<stop offset="0.52" stop-color="#49BDDD"/>
<stop offset="0.72" stop-color="#4E9CDB"/>
<stop offset="0.93" stop-color="#5472D8"/>
<stop offset="1" stop-color="#5761D7"/>
</linearGradient>
<linearGradient id="paint14_linear_19_345" x1="18209.9" y1="4917.21" x2="20475.4" y2="4917.21" gradientUnits="userSpaceOnUse">
<stop stop-color="#42E8E0"/>
<stop offset="0.15" stop-color="#43E3E0"/>
<stop offset="0.33" stop-color="#45D5DF"/>
<stop offset="0.52" stop-color="#49BDDD"/>
<stop offset="0.72" stop-color="#4E9CDB"/>
<stop offset="0.93" stop-color="#5472D8"/>
<stop offset="1" stop-color="#5761D7"/>
</linearGradient>
<linearGradient id="paint15_linear_19_345" x1="307.291" y1="124.21" x2="316.538" y2="124.21" gradientUnits="userSpaceOnUse">
<stop stop-color="#5761D7"/>
<stop offset="0.07" stop-color="#5472D8"/>
<stop offset="0.28" stop-color="#4E9CDB"/>
<stop offset="0.48" stop-color="#49BDDD"/>
<stop offset="0.67" stop-color="#45D5DF"/>
<stop offset="0.85" stop-color="#43E3E0"/>
<stop offset="1" stop-color="#42E8E0"/>
</linearGradient>
<linearGradient id="paint16_linear_19_345" x1="-28640.2" y1="11657.9" x2="-46940.7" y2="11657.9" gradientUnits="userSpaceOnUse">
<stop stop-color="#5761D7"/>
<stop offset="0.18" stop-color="#5C66D9"/>
<stop offset="0.39" stop-color="#6A73DF"/>
<stop offset="0.61" stop-color="#8289E8"/>
<stop offset="0.85" stop-color="#A3A7F5"/>
<stop offset="1" stop-color="#BCBEFF"/>
</linearGradient>
<linearGradient id="paint17_linear_19_345" x1="-34827.2" y1="11605.5" x2="-53155.1" y2="11605.5" gradientUnits="userSpaceOnUse">
<stop stop-color="#C0BFF6"/>
<stop offset="0.29" stop-color="#C5C4F7"/>
<stop offset="0.64" stop-color="#D3D2F9"/>
<stop offset="1" stop-color="#E9E9FD"/>
</linearGradient>
<linearGradient id="paint18_linear_19_345" x1="-8379.33" y1="2890.78" x2="-9579.52" y2="2890.78" gradientUnits="userSpaceOnUse">
<stop stop-color="#C0BFF6"/>
<stop offset="0.29" stop-color="#C5C4F7"/>
<stop offset="0.64" stop-color="#D3D2F9"/>
<stop offset="1" stop-color="#E9E9FD"/>
</linearGradient>
<linearGradient id="paint19_linear_19_345" x1="-23929.6" y1="14990.8" x2="-33102.1" y2="14990.8" gradientUnits="userSpaceOnUse">
<stop stop-color="#C0BFF6"/>
<stop offset="0.29" stop-color="#C5C4F7"/>
<stop offset="0.64" stop-color="#D3D2F9"/>
<stop offset="1" stop-color="#E9E9FD"/>
</linearGradient>
<linearGradient id="paint20_linear_19_345" x1="-3866.97" y1="10084" x2="-4137.49" y2="10084" gradientUnits="userSpaceOnUse">
<stop stop-color="#5761D7"/>
<stop offset="0.18" stop-color="#5C66D9"/>
<stop offset="0.39" stop-color="#6A73DF"/>
<stop offset="0.61" stop-color="#8289E8"/>
<stop offset="0.85" stop-color="#A3A7F5"/>
<stop offset="1" stop-color="#BCBEFF"/>
</linearGradient>
<linearGradient id="paint21_linear_19_345" x1="-4632.39" y1="33131" x2="-5184.65" y2="33078.1" gradientUnits="userSpaceOnUse">
<stop stop-color="#5761D7"/>
<stop offset="0.07" stop-color="#5472D8"/>
<stop offset="0.28" stop-color="#4E9CDB"/>
<stop offset="0.48" stop-color="#49BDDD"/>
<stop offset="0.67" stop-color="#45D5DF"/>
<stop offset="0.85" stop-color="#43E3E0"/>
<stop offset="1" stop-color="#42E8E0"/>
</linearGradient>
<linearGradient id="paint22_linear_19_345" x1="-317.639" y1="345.659" x2="-332.063" y2="344.278" gradientUnits="userSpaceOnUse">
<stop stop-color="#5761D7"/>
<stop offset="0.07" stop-color="#5472D8"/>
<stop offset="0.28" stop-color="#4E9CDB"/>
<stop offset="0.48" stop-color="#49BDDD"/>
<stop offset="0.67" stop-color="#45D5DF"/>
<stop offset="0.85" stop-color="#43E3E0"/>
<stop offset="1" stop-color="#42E8E0"/>
</linearGradient>
<linearGradient id="paint23_linear_19_345" x1="-3945.72" y1="8593.73" x2="-8017.99" y2="8203.54" gradientUnits="userSpaceOnUse">
<stop stop-color="#5761D7"/>
<stop offset="0.07" stop-color="#5472D8"/>
<stop offset="0.28" stop-color="#4E9CDB"/>
<stop offset="0.48" stop-color="#49BDDD"/>
<stop offset="0.67" stop-color="#45D5DF"/>
<stop offset="0.85" stop-color="#43E3E0"/>
<stop offset="1" stop-color="#42E8E0"/>
</linearGradient>
<linearGradient id="paint24_linear_19_345" x1="-1830.67" y1="7944.98" x2="-1995.11" y2="7929.22" gradientUnits="userSpaceOnUse">
<stop stop-color="#5761D7"/>
<stop offset="0.07" stop-color="#5472D8"/>
<stop offset="0.28" stop-color="#4E9CDB"/>
<stop offset="0.48" stop-color="#49BDDD"/>
<stop offset="0.67" stop-color="#45D5DF"/>
<stop offset="0.85" stop-color="#43E3E0"/>
<stop offset="1" stop-color="#42E8E0"/>
</linearGradient>
<linearGradient id="paint25_linear_19_345" x1="-3126.87" y1="24523.4" x2="-5759.14" y2="24271.2" gradientUnits="userSpaceOnUse">
<stop stop-color="#5761D7"/>
<stop offset="0.07" stop-color="#5472D8"/>
<stop offset="0.28" stop-color="#4E9CDB"/>
<stop offset="0.48" stop-color="#49BDDD"/>
<stop offset="0.67" stop-color="#45D5DF"/>
<stop offset="0.85" stop-color="#43E3E0"/>
<stop offset="1" stop-color="#42E8E0"/>
</linearGradient>
<linearGradient id="paint26_linear_19_345" x1="-320.918" y1="1216.3" x2="-361.485" y2="1212.41" gradientUnits="userSpaceOnUse">
<stop stop-color="#5761D7"/>
<stop offset="0.07" stop-color="#5472D8"/>
<stop offset="0.28" stop-color="#4E9CDB"/>
<stop offset="0.48" stop-color="#49BDDD"/>
<stop offset="0.67" stop-color="#45D5DF"/>
<stop offset="0.85" stop-color="#43E3E0"/>
<stop offset="1" stop-color="#42E8E0"/>
</linearGradient>
<linearGradient id="paint27_linear_19_345" x1="-252.715" y1="1150.4" x2="-293.088" y2="1146.53" gradientUnits="userSpaceOnUse">
<stop stop-color="#5761D7"/>
<stop offset="0.07" stop-color="#5472D8"/>
<stop offset="0.28" stop-color="#4E9CDB"/>
<stop offset="0.48" stop-color="#49BDDD"/>
<stop offset="0.67" stop-color="#45D5DF"/>
<stop offset="0.85" stop-color="#43E3E0"/>
<stop offset="1" stop-color="#42E8E0"/>
</linearGradient>
<linearGradient id="paint28_linear_19_345" x1="-3630.09" y1="19304" x2="-5620.16" y2="19113.3" gradientUnits="userSpaceOnUse">
<stop stop-color="#5761D7"/>
<stop offset="0.07" stop-color="#5472D8"/>
<stop offset="0.28" stop-color="#4E9CDB"/>
<stop offset="0.48" stop-color="#49BDDD"/>
<stop offset="0.67" stop-color="#45D5DF"/>
<stop offset="0.85" stop-color="#43E3E0"/>
<stop offset="1" stop-color="#42E8E0"/>
</linearGradient>
</defs>
</svg>
