<svg width="58" height="58" viewBox="0 0 58 58" fill="none" xmlns="http://www.w3.org/2000/svg">
<rect width="58" height="58" fill="white"/>
<path d="M57.0646 6.54821V12.1611H12.1614V6.54821C12.1614 5.51918 13.0033 4.67725 14.0323 4.67725H17.7743V7.4837C17.7743 7.99821 18.1952 8.41918 18.7098 8.41918H20.5807C21.0952 8.41918 21.5162 7.99821 21.5162 7.4837V4.67725H25.2582V7.4837C25.2582 7.99821 25.6791 8.41918 26.1936 8.41918H28.0646C28.5791 8.41918 29.0001 7.99821 29.0001 7.4837V4.67725H40.2259V7.4837C40.2259 7.99821 40.6469 8.41918 41.1614 8.41918H43.0323C43.5469 8.41918 43.9678 7.99821 43.9678 7.4837V4.67725H47.7098V7.4837C47.7098 7.99821 48.1307 8.41918 48.6452 8.41918H50.5162C51.0307 8.41918 51.4517 7.99821 51.4517 7.4837V4.67725H55.1936C56.2227 4.67725 57.0646 5.51918 57.0646 6.54821Z" fill="#4571AD"/>
<path d="M55.1936 3.74194H52.3871V2.80645C52.3871 1.25916 51.128 0 49.5807 0C48.0334 0 46.7742 1.25916 46.7742 2.80645V3.74194H44.9032V2.80645C44.9032 1.25916 43.6441 0 42.0968 0C40.5495 0 39.2903 1.25916 39.2903 2.80645V3.74194H29.9355V2.80645C29.9355 1.25916 28.6763 0 27.129 0C25.5818 0 24.3226 1.25916 24.3226 2.80645V3.74194H22.4516V2.80645C22.4516 1.25916 21.1925 0 19.6452 0C18.0979 0 16.8387 1.25916 16.8387 2.80645V3.74194H14.0323C12.485 3.74194 11.2258 5.0011 11.2258 6.54839V24.3226H7.48389V29.9355H9.35485V32.901H11.2258V29.9355H14.9678V32.901H16.8387V29.9355H18.7097V24.3226H13.0968V6.54839C13.0968 6.032 13.5168 5.6129 14.0323 5.6129H16.8387V7.48387C16.8387 8.51571 17.6779 9.35484 18.7097 9.35484H20.5807C21.6125 9.35484 22.4516 8.51571 22.4516 7.48387V5.6129H24.3226V7.48387C24.3226 8.51571 25.1617 9.35484 26.1936 9.35484H28.0645C29.0964 9.35484 29.9355 8.51571 29.9355 7.48387V5.6129H39.2903V7.48387C39.2903 8.51571 40.1295 9.35484 41.1613 9.35484H43.0323C44.0641 9.35484 44.9032 8.51571 44.9032 7.48387V5.6129H46.7742V7.48387C46.7742 8.51571 47.6133 9.35484 48.6452 9.35484H50.5161C51.548 9.35484 52.3871 8.51571 52.3871 7.48387V5.6129H55.1936C55.709 5.6129 56.129 6.032 56.129 6.54839V40.2258C56.129 40.7422 55.709 41.1613 55.1936 41.1613H24.9325V43.0323H55.1936C56.7409 43.0323 58 41.7731 58 40.2258V6.54839C58 5.0011 56.7409 3.74194 55.1936 3.74194ZM16.8387 26.1935V28.0645H9.35485V26.1935H16.8387ZM18.7097 7.48387V2.80645C18.7097 2.29006 19.1297 1.87097 19.6452 1.87097C20.1606 1.87097 20.5807 2.29006 20.5807 2.80645L20.5816 7.48387H18.7097ZM26.1936 7.48387V2.80645C26.1936 2.29006 26.6136 1.87097 27.129 1.87097C27.6445 1.87097 28.0645 2.29006 28.0645 2.80645L28.0655 7.48387H26.1936ZM41.1613 7.48387V2.80645C41.1613 2.29006 41.5813 1.87097 42.0968 1.87097C42.6122 1.87097 43.0323 2.29006 43.0323 2.80645L43.0332 7.48387H41.1613ZM48.6452 7.48387V2.80645C48.6452 2.29006 49.0652 1.87097 49.5807 1.87097C50.0961 1.87097 50.5161 2.29006 50.5161 2.80645L50.5171 7.48387H48.6452Z" fill="#1E1E1E"/>
<path d="M52.387 39.2904H23.387V37.4194H50.516V16.8387H18.7096V22.3918H16.8386V14.9678H52.387V39.2904Z" fill="#1E1E1E"/>
<path d="M34.6128 26.1933C33.5809 26.1933 32.7418 25.3542 32.7418 24.3224C32.7418 23.2905 33.5809 22.4514 34.6128 22.4514C35.6446 22.4514 36.4838 23.2905 36.4838 24.3224H38.3547C38.3547 22.5833 37.1573 21.1314 35.5483 20.7133V18.7095H33.6773V20.7133C32.0683 21.1314 30.8708 22.5833 30.8708 24.3224C30.8708 26.3861 32.5491 28.0643 34.6128 28.0643C35.6446 28.0643 36.4838 28.9034 36.4838 29.9353C36.4838 30.9671 35.6446 31.8062 34.6128 31.8062C33.5809 31.8062 32.7418 30.9671 32.7418 29.9353H30.8708C30.8708 31.6743 32.0683 33.1262 33.6773 33.5444V35.5482H35.5483V33.5444C37.1573 33.1262 38.3547 31.6743 38.3547 29.9353C38.3547 27.8716 36.6765 26.1933 34.6128 26.1933Z" fill="#1E1E1E"/>
<path d="M13.0968 31.8066C5.86361 31.8066 0 37.6703 0 44.9034C0 52.1366 5.86361 58.0002 13.0968 58.0002C20.3299 58.0002 26.1935 52.1366 26.1935 44.9034C26.1935 37.6703 20.3299 31.8066 13.0968 31.8066ZM13.0968 53.3228C8.44648 53.3228 4.67742 49.5537 4.67742 44.9034C4.67742 40.2531 8.44648 36.4841 13.0968 36.4841C17.7471 36.4841 21.5161 40.2531 21.5161 44.9034C21.5161 49.5537 17.7471 53.3228 13.0968 53.3228Z" fill="#4571AD"/>
<path d="M13.0968 54.258C7.93852 54.258 3.74194 50.0614 3.74194 44.9032C3.74194 39.7449 7.93852 35.5483 13.0968 35.5483C18.255 35.5483 22.4516 39.7449 22.4516 44.9032C22.4516 50.0614 18.255 54.258 13.0968 54.258ZM13.0968 37.4193C8.97036 37.4193 5.61291 40.7768 5.61291 44.9032C5.61291 49.0296 8.97036 52.387 13.0968 52.387C17.2232 52.387 20.5807 49.0296 20.5807 44.9032C20.5807 40.7768 17.2232 37.4193 13.0968 37.4193Z" fill="#1E1E1E"/>
<path d="M11.8872 47.4358L10.5645 46.113L12.1613 44.5161V39.2905H14.0323V45.2907L11.8872 47.4358Z" fill="#1E1E1E"/>
</svg>
