<svg width="58" height="58" viewBox="0 0 58 58" fill="none" xmlns="http://www.w3.org/2000/svg">
<rect width="58" height="58" fill="white"/>
<path d="M51.4515 13.0967H41.8375C41.9975 13.3726 42.0967 13.6898 42.0967 14.0322C42.0967 15.0659 41.2594 15.9031 40.2257 15.9031C41.2594 15.9031 42.0967 16.7404 42.0967 17.7741H50.516C51.0324 17.7741 51.4515 18.1932 51.4515 18.7096V44.9031C51.4515 45.4195 51.0324 45.8386 50.516 45.8386H7.48375C6.96737 45.8386 6.54827 45.4195 6.54827 44.9031V18.7096C6.54827 18.1932 6.96737 17.7741 7.48375 17.7741H14.0321V13.0967H6.54827C3.96914 13.0967 1.87085 15.195 1.87085 17.7741V49.5806H56.1289V17.7741C56.1289 15.195 54.0306 13.0967 51.4515 13.0967Z" fill="#4571AD"/>
<path d="M50.516 16.8387H42.86C42.7356 16.4888 42.5466 16.1736 42.3025 15.9032C42.7515 15.4055 43.0321 14.7535 43.0321 14.0323C43.0321 13.311 42.7506 12.659 42.3025 12.1613C42.7515 11.6636 43.0321 11.0116 43.0321 10.2903C43.0321 8.74303 41.773 7.48387 40.2257 7.48387H34.8757L35.421 5.30232C35.5052 4.96555 35.5483 4.61661 35.5483 4.26768C35.5483 1.914 33.6343 0 31.2806 0H30.1964L28.462 5.2041C28.2908 5.71861 27.9765 6.16858 27.5527 6.50816L24.7631 8.74023C24.2673 9.13687 23.6442 9.35484 23.01 9.35484H22.4515V7.48387H13.0967V16.8387H7.48376C6.45192 16.8387 5.61279 17.6778 5.61279 18.7097V44.9032C5.61279 45.9351 6.45192 46.7742 7.48376 46.7742H50.516C51.5479 46.7742 52.387 45.9351 52.387 44.9032V18.7097C52.387 17.6778 51.5479 16.8387 50.516 16.8387ZM23.01 11.2258C24.068 11.2258 25.1055 10.8619 25.9324 10.2005L28.722 7.96845C29.4274 7.40435 29.9522 6.65223 30.2375 5.79532L31.5416 1.88406C32.74 2.01503 33.6773 3.03377 33.6773 4.26768C33.6773 4.46319 33.653 4.65871 33.6053 4.84861L32.479 9.35484H40.2257C40.7411 9.35484 41.1612 9.77487 41.1612 10.2903C41.1612 10.8058 40.7411 11.2258 40.2257 11.2258H35.5483V13.0968H40.2257C40.7411 13.0968 41.1612 13.5168 41.1612 14.0323C41.1612 14.5477 40.7411 14.9677 40.2257 14.9677H35.5483V16.8387H40.2257C40.7411 16.8387 41.1612 17.2587 41.1612 17.7742C41.1612 18.2896 40.7411 18.7097 40.2257 18.7097H38.3547H35.5483V20.5806H38.3547C38.8702 20.5806 39.2902 21.0007 39.2902 21.5161C39.2902 22.0316 38.8702 22.4516 38.3547 22.4516H28.4545C27.7323 22.4516 27.0092 22.2804 26.3628 21.9577L23.6078 20.5806H22.4515V11.2258H23.01ZM14.9676 9.35484H20.5805V22.4516H14.9676V9.35484ZM50.516 44.9032H7.48376V18.7097H13.0967V24.3226H22.4515V22.4516H23.1662L25.5255 23.6313C26.4301 24.084 27.4423 24.3226 28.4545 24.3226H38.3547C39.902 24.3226 41.1612 23.0634 41.1612 21.5161C41.1612 21.1466 41.0854 20.7958 40.9554 20.4721C41.8441 20.2308 42.5532 19.5694 42.86 18.7097H50.516V44.9032Z" fill="#1E1E1E"/>
<path d="M53.3226 57.9999H4.67742C2.09829 57.9999 0 55.9016 0 53.3224V48.645H58V53.3224C58 55.9016 55.9017 57.9999 53.3226 57.9999ZM1.87097 50.516V53.3224C1.87097 54.8697 3.13013 56.1289 4.67742 56.1289H53.3226C54.8699 56.1289 56.129 54.8697 56.129 53.3224V50.516H1.87097Z" fill="#1E1E1E"/>
<path d="M24.3225 52.3872H33.6773V54.2582H24.3225V52.3872Z" fill="#1E1E1E"/>
<path d="M35.5483 52.3872H37.4193V54.2582H35.5483V52.3872Z" fill="#1E1E1E"/>
<path d="M20.5806 52.3872H22.4515V54.2582H20.5806V52.3872Z" fill="#1E1E1E"/>
<path d="M41.1614 29.936L43.0324 34.6135H46.7743L43.7499 37.0944L45.3487 42.0973L41.1614 39.0056L36.9742 42.0973L38.5729 37.0944L34.613 34.6135H39.2905L41.1614 29.936Z" fill="#4571AD"/>
<path d="M29 27.1294L30.871 31.8068H35.5484L31.5885 34.2877L33.1873 39.2907L29 36.1989L24.8128 39.2907L26.4116 34.2877L22.4517 31.8068H27.1291L29 27.1294Z" fill="#4571AD"/>
<path d="M16.8387 29.936L18.7097 34.6135H23.3871L19.4272 37.0944L21.026 42.0973L16.8387 39.0056L12.6515 42.0973L14.2502 37.0944L11.2258 34.6135H14.9678L16.8387 29.936Z" fill="#4571AD"/>
<path d="M48.6453 28.0644H46.7743V22.4515H44.9033V20.5806H48.6453V28.0644Z" fill="#1E1E1E"/>
<path d="M46.7742 29.9355H48.6451V31.8065H46.7742V29.9355Z" fill="#1E1E1E"/>
</svg>
