<svg width="58" height="58" viewBox="0 0 58 58" fill="none" xmlns="http://www.w3.org/2000/svg">
<rect width="58" height="58" fill="white"/>
<path d="M53.3226 13.0967H39.2903V14.9676H53.3226C54.8697 14.9676 56.129 16.227 56.129 17.7741V44.9031H16.1869L13.3804 43.0322H1.87097V17.7741C1.87097 16.227 3.13031 14.9676 4.67742 14.9676H18.7097V13.0967H4.67742C2.09844 13.0967 0 15.1951 0 17.7741V47.7096C0 50.2886 2.09844 52.387 4.67742 52.387H16.8387V56.1289H13.0968V57.9999H44.9032V56.1289H41.1613V52.387H53.3226C55.9016 52.387 58 50.2886 58 47.7096V17.7741C58 15.1951 55.9016 13.0967 53.3226 13.0967ZM53.3226 50.516H20.5806V52.387H39.2903V56.1289H18.7097V50.516H4.67742C3.13031 50.516 1.87097 49.2567 1.87097 47.7096V44.9031H12.8131L15.6196 46.7741H56.129V47.7096C56.129 49.2567 54.8697 50.516 53.3226 50.516Z" fill="#1E1E1E"/>
<path d="M11.2258 46.7744H13.0968V48.6454H11.2258V46.7744Z" fill="#1E1E1E"/>
<path d="M7.48389 46.7744H9.35485V48.6454H7.48389V46.7744Z" fill="#1E1E1E"/>
<path d="M3.74194 46.7744H5.61291V48.6454H3.74194V46.7744Z" fill="#1E1E1E"/>
<path d="M29 0C22.8097 0 17.7742 5.03553 17.7742 11.2258V17.7742H18.7097C18.7097 16.2239 19.9658 14.9677 21.5161 14.9677H22.4516L22.4657 15.2455C22.5375 13.5316 23.9389 12.1613 25.6714 12.1613C26.0177 12.1613 26.3612 12.2175 26.6891 12.3266L29 13.0968L31.3108 12.3266C31.6388 12.2175 31.9832 12.1613 32.3285 12.1613C34.0602 12.1613 35.4625 13.5316 35.5342 15.2455L35.5484 14.9677H36.4838C38.0342 14.9677 39.2903 16.2239 39.2903 17.7742H40.2258V11.2258C40.2258 5.03553 35.1902 0 29 0Z" fill="#4571AD"/>
<path d="M41.1052 28.5677L33.6775 26.4254V24.5421C34.6664 23.7482 35.4484 22.7086 35.9331 21.5159H36.484C38.5477 21.5159 40.2259 19.8377 40.2259 17.774C40.2259 15.7102 38.5477 14.032 36.484 14.032H36.2396C35.6768 12.4041 34.1452 11.2256 32.3286 11.2256C31.8805 11.2256 31.4388 11.2978 31.014 11.4398L29.0001 12.1104L26.9861 11.4389C26.5613 11.2978 26.1187 11.2256 25.6706 11.2256C23.854 11.2256 22.3224 12.4041 21.7592 14.032H21.5162C19.4525 14.032 17.7743 15.7102 17.7743 17.774C17.7743 19.8377 19.4525 21.5159 21.5162 21.5159H22.0671C22.5517 22.7086 23.3337 23.7482 24.3227 24.5421V26.4254L16.895 28.5677C14.1082 29.3721 12.1614 31.9588 12.1614 34.8598V41.1611H45.8388V34.8598C45.8388 31.9588 43.892 29.3721 41.1052 28.5677ZM38.3549 17.774C38.3549 18.8058 37.5158 19.6449 36.484 19.6449H36.4195C36.4579 19.338 36.484 19.0265 36.484 18.7095V15.903C37.5158 15.903 38.3549 16.7421 38.3549 17.774ZM21.5162 19.6449C20.4844 19.6449 19.6452 18.8058 19.6452 17.774C19.6452 16.7421 20.4844 15.903 21.5162 15.903V18.7095C21.5162 19.0265 21.5423 19.338 21.5806 19.6449H21.5162ZM35.152 28.7979L33.3016 33.1149L30.3997 30.794L33.0124 28.1812L35.152 28.7979ZM23.3872 18.7095V15.38C23.3872 14.1211 24.4117 13.0966 25.6706 13.0966C25.9168 13.0966 26.1589 13.1358 26.3928 13.2135L29.0001 14.0827L31.6065 13.2135C31.8403 13.1358 32.0833 13.0966 32.3286 13.0966C33.5884 13.0966 34.613 14.1211 34.613 15.38V18.7095C34.613 21.805 32.0957 24.3224 29.0001 24.3224C25.9045 24.3224 23.3872 21.805 23.3872 18.7095ZM29.0001 26.1933C29.9927 26.1933 30.9396 25.9951 31.8065 25.6425V26.7415L29.0001 29.5479L26.1936 26.7415V25.6425C27.0606 25.9951 28.0075 26.1933 29.0001 26.1933ZM24.9868 28.1803L27.5996 30.7931L24.6977 33.114L22.8473 28.797L24.9868 28.1803ZM43.9678 39.2901H40.2259V33.6772H38.3549V39.2901H19.6452V33.6772H17.7743V39.2901H14.0323V34.8598C14.0323 32.7883 15.4223 30.9411 17.413 30.3655L21.0361 29.3195L23.9467 36.1105L29.0001 32.0689L34.0525 36.1114L36.9631 29.3204L40.5858 30.3665C42.5778 30.9402 43.9678 32.7883 43.9678 34.8598V39.2901Z" fill="#1E1E1E"/>
<path d="M3.74194 16.8389H15.9032V25.2582H3.74194V16.8389Z" fill="#4571AD"/>
<path d="M3.74194 16.8389H15.9032V18.7098H3.74194V16.8389Z" fill="#1E1E1E"/>
<path d="M3.74194 20.5806H15.9032V22.4515H3.74194V20.5806Z" fill="#1E1E1E"/>
<path d="M3.74194 24.3228H15.9032V26.1937H3.74194V24.3228Z" fill="#1E1E1E"/>
<path d="M47.7097 29.9355H54.2581V42.0968H47.7097V29.9355Z" fill="#4571AD"/>
<path d="M47.7097 41.1611H54.2581V43.0321H47.7097V41.1611Z" fill="#1E1E1E"/>
<path d="M47.7097 37.4194H54.2581V39.2904H47.7097V37.4194Z" fill="#1E1E1E"/>
<path d="M47.7097 33.6772H54.2581V35.5482H47.7097V33.6772Z" fill="#1E1E1E"/>
<path d="M47.7097 29.9355H54.2581V31.8065H47.7097V29.9355Z" fill="#1E1E1E"/>
</svg>
