<svg width="58" height="58" viewBox="0 0 58 58" fill="none" xmlns="http://www.w3.org/2000/svg">
<rect width="58" height="58" fill="white"/>
<path d="M53.3226 14.9678H51.4516V16.8387H53.3226C54.8699 16.8387 56.129 18.0979 56.129 19.6452V44.9033H1.87097V19.6452C1.87097 18.0979 3.13013 16.8387 4.67742 16.8387H6.54839V14.9678H4.67742C2.09829 14.9678 0 17.0661 0 19.6452V47.7097C0 50.2888 2.09829 52.3871 4.67742 52.3871H16.8387V56.1291H13.0968V58H44.9032V56.1291H41.1613V52.3871H53.3226C55.9017 52.3871 58 50.2888 58 47.7097V19.6452C58 17.0661 55.9017 14.9678 53.3226 14.9678ZM39.2903 56.1291H18.7097V52.3871H39.2903V56.1291ZM53.3226 50.5162H4.67742C3.13013 50.5162 1.87097 49.257 1.87097 47.7097V46.7742H56.129V47.7097C56.129 49.257 54.8699 50.5162 53.3226 50.5162Z" fill="#1E1E1E"/>
<path d="M47.7096 40.2259C50.2929 40.2259 52.3871 38.1318 52.3871 35.5485C52.3871 32.9652 50.2929 30.8711 47.7096 30.8711C45.1264 30.8711 43.0322 32.9652 43.0322 35.5485C43.0322 38.1318 45.1264 40.2259 47.7096 40.2259Z" fill="#4571AD"/>
<path d="M10.2902 40.2259C12.8735 40.2259 14.9676 38.1318 14.9676 35.5485C14.9676 32.9652 12.8735 30.8711 10.2902 30.8711C7.70694 30.8711 5.61279 32.9652 5.61279 35.5485C5.61279 38.1318 7.70694 40.2259 10.2902 40.2259Z" fill="#4571AD"/>
<path d="M28.9999 44.9032C31.5832 44.9032 33.6773 42.809 33.6773 40.2258C33.6773 37.6425 31.5832 35.5483 28.9999 35.5483C26.4167 35.5483 24.3225 37.6425 24.3225 40.2258C24.3225 42.809 26.4167 44.9032 28.9999 44.9032Z" fill="#4571AD"/>
<path d="M44.9031 9.35484C44.484 9.35484 44.0649 9.39039 43.6524 9.46055C42.4091 4.00013 37.4866 0 31.8063 0C27.8726 0 24.2458 1.8719 21.9566 5.046C21.2101 4.8009 20.4355 4.67742 19.6451 4.67742C16.5935 4.67742 13.8348 6.57271 12.7056 9.36513C8.75976 9.56906 5.61279 12.8433 5.61279 16.8387C5.61279 20.9651 8.97024 24.3226 13.0967 24.3226H18.7096H39.2902H44.9031C49.0295 24.3226 52.387 20.9651 52.387 16.8387C52.387 12.7123 49.0295 9.35484 44.9031 9.35484Z" fill="#4571AD"/>
<path d="M36.4371 7.53055C33.8842 4.97762 29.7297 4.97762 27.1768 7.53055L25.854 6.20778C29.1366 2.92423 34.4782 2.92423 37.7608 6.20778L36.4371 7.53055Z" fill="#1E1E1E"/>
<path d="M44.9033 20.5806V18.7096C45.9352 18.7096 46.7743 17.8705 46.7743 16.8386C46.7743 15.8068 45.9352 14.9676 44.9033 14.9676V13.0967C46.967 13.0967 48.6453 14.7749 48.6453 16.8386C48.6453 18.9023 46.967 20.5806 44.9033 20.5806Z" fill="#1E1E1E"/>
<path d="M29.0001 43.0323C27.4528 43.0323 26.1936 41.7732 26.1936 40.2259C26.1936 38.6786 27.4528 37.4194 29.0001 37.4194C30.5473 37.4194 31.8065 38.6786 31.8065 40.2259C31.8065 41.7732 30.5473 43.0323 29.0001 43.0323ZM29.0001 39.2904C28.4846 39.2904 28.0646 39.7095 28.0646 40.2259C28.0646 40.7423 28.4846 41.1614 29.0001 41.1614C29.5155 41.1614 29.9355 40.7423 29.9355 40.2259C29.9355 39.7095 29.5155 39.2904 29.0001 39.2904Z" fill="#1E1E1E"/>
<path d="M29.9354 17.7744H28.0645V30.8712H29.9354V17.7744Z" fill="#1E1E1E"/>
<path d="M29.9354 32.7417H28.0645V38.3546H29.9354V32.7417Z" fill="#1E1E1E"/>
<path d="M47.7096 32.7419C46.4916 32.7419 45.4626 33.5268 45.0753 34.6129H37.4193V21.5161H35.5483V36.4839H45.0753C45.4626 37.57 46.4916 38.3548 47.7096 38.3548C49.2569 38.3548 50.5161 37.0957 50.5161 35.5484C50.5161 34.0011 49.2569 32.7419 47.7096 32.7419ZM47.7096 36.4839C47.1942 36.4839 46.7741 36.0648 46.7741 35.5484C46.7741 35.032 47.1942 34.6129 47.7096 34.6129C48.2251 34.6129 48.6451 35.032 48.6451 35.5484C48.6451 36.0648 48.2251 36.4839 47.7096 36.4839Z" fill="#1E1E1E"/>
<path d="M37.4193 17.7744H35.5483V19.6454H37.4193V17.7744Z" fill="#1E1E1E"/>
<path d="M22.4516 26.1934H20.5807V34.6127H12.9247C12.5374 33.5266 11.5083 32.7417 10.2903 32.7417C8.74305 32.7417 7.48389 34.0009 7.48389 35.5482C7.48389 37.0955 8.74305 38.3546 10.2903 38.3546C11.5083 38.3546 12.5374 37.5698 12.9247 36.4837H22.4516V26.1934ZM10.2903 36.4837C9.77489 36.4837 9.35485 36.0646 9.35485 35.5482C9.35485 35.0318 9.77489 34.6127 10.2903 34.6127C10.8058 34.6127 11.2258 35.0318 11.2258 35.5482C11.2258 36.0646 10.8058 36.4837 10.2903 36.4837Z" fill="#1E1E1E"/>
<path d="M22.4515 17.7744H20.5806V24.3228H22.4515V17.7744Z" fill="#1E1E1E"/>
</svg>
