<svg width="58" height="58" viewBox="0 0 58 58" fill="none" xmlns="http://www.w3.org/2000/svg">
<rect width="58" height="58" fill="white"/>
<path d="M45.8388 36.3146V27.2975L43.0857 26.7465C42.9266 26.3068 42.7423 25.8671 42.5347 25.4284L44.096 23.0878L37.7188 16.7106L35.3782 18.2719C34.9395 18.0642 34.4998 17.8799 34.0601 17.7209L33.5082 14.9678H24.4911L23.9401 17.7209C23.5004 17.8799 23.0607 18.0642 22.622 18.2719L20.2814 16.7106L13.9042 23.0878L15.4655 25.4284C15.2578 25.8671 15.0735 26.3068 14.9145 26.7465L12.1614 27.2984V36.3155L14.9145 36.8665C15.0735 37.3062 15.2578 37.7459 15.4655 38.1846L13.9042 40.5252L20.1701 46.7911L25.2582 44.9033V41.3849C21.4273 39.8872 18.7098 36.1686 18.7098 31.8065C18.7098 26.1234 23.317 21.5162 29.0001 21.5162C34.6831 21.5162 39.2904 26.1234 39.2904 31.8065C39.2904 36.1677 36.5728 39.8863 32.742 41.3849V44.9033L37.8292 46.7911L44.0951 40.5252L42.5337 38.1846C42.7414 37.7459 42.9257 37.3062 43.0847 36.8665L45.8388 36.3146Z" fill="#4571AD"/>
<path d="M55.1936 3.74194H52.3871V0H46.7742V3.74194H43.0323V0H37.4194V3.74194H20.5806V0H14.9677V3.74194H11.2258V0H5.6129V3.74194H2.80645C1.25916 3.74194 0 5.0011 0 6.54839V47.7097C0 49.257 1.25916 50.5161 2.80645 50.5161H24.3226V53.3226C24.3226 55.9017 26.4209 58 29 58C31.5791 58 33.6774 55.9017 33.6774 53.3226V50.5161H55.1936C56.7408 50.5161 58 49.257 58 47.7097V6.54839C58 5.0011 56.7408 3.74194 55.1936 3.74194ZM48.6452 1.87097H50.5161V7.48387H48.6452V1.87097ZM39.2903 1.87097H41.1613V7.48387H39.2903V1.87097ZM16.8387 1.87097H18.7097V7.48387H16.8387V1.87097ZM7.48387 1.87097H9.35484V7.48387H7.48387V1.87097ZM2.80645 5.6129H5.6129V9.35484H11.2258V5.6129H14.9677V9.35484H20.5806V5.6129H37.4194V9.35484H43.0323V5.6129H46.7742V9.35484H52.3871V5.6129H55.1936C55.709 5.6129 56.129 6.032 56.129 6.54839V11.2258H1.87097V6.54839C1.87097 6.032 2.291 5.6129 2.80645 5.6129ZM29 34.8019L32.7419 32.3069V27.9064C33.9104 28.9289 34.6129 30.4023 34.6129 31.9627C34.6129 33.219 34.1844 34.3987 33.3753 35.3763C32.349 36.6148 31.8065 38.0293 31.8065 39.4681V50.5161H26.1935V39.4681C26.1935 38.0293 25.651 36.6139 24.6247 35.3763C23.8155 34.3987 23.3871 33.219 23.3871 31.9627C23.3871 30.4023 24.0896 28.9289 25.2581 27.9064V32.3069L29 34.8019ZM29 56.129C27.4527 56.129 26.1935 54.8699 26.1935 53.3226V52.3871H31.8065V53.3226C31.8065 54.8699 30.5473 56.129 29 56.129ZM55.1936 48.6452H33.6774V39.4681C33.6774 38.208 34.2967 37.1958 34.8159 36.569C35.8917 35.2715 36.4839 33.6353 36.4839 31.9627C36.4839 29.1515 34.8028 26.5537 32.2003 25.3451L30.871 24.7276V31.306L29 32.553L27.129 31.306V24.7276L25.7997 25.3451C23.1972 26.5537 21.5161 29.1515 21.5161 31.9627C21.5161 33.6353 22.1083 35.2715 23.1841 36.5699C23.7033 37.1967 24.3226 38.2089 24.3226 39.4681V48.6452H2.80645C2.291 48.6452 1.87097 48.2261 1.87097 47.7097V13.0968H56.129V47.7097C56.129 48.2261 55.709 48.6452 55.1936 48.6452Z" fill="#1E1E1E"/>
<path d="M29 20.5806C22.8099 20.5806 17.7742 25.6163 17.7742 31.8064C17.7742 34.6839 18.8612 37.4202 20.836 39.511L22.1962 38.2266C20.5507 36.4847 19.6451 34.204 19.6451 31.8064C19.6451 26.6481 23.8417 22.4515 29 22.4515C34.1582 22.4515 38.3548 26.6481 38.3548 31.8064C38.3548 34.204 37.4493 36.4847 35.8037 38.2266L37.1639 39.511C39.1388 37.4202 40.2258 34.6839 40.2258 31.8064C40.2258 25.6163 35.1901 20.5806 29 20.5806Z" fill="#1E1E1E"/>
<path d="M29.9354 38.355H28.0645V48.6453H29.9354V38.355Z" fill="#1E1E1E"/>
</svg>
