<svg width="58" height="58" viewBox="0 0 58 58" fill="none" xmlns="http://www.w3.org/2000/svg">
<rect width="58" height="58" fill="white"/>
<path d="M24.3225 5.61279C22.256 5.61279 20.5806 7.28824 20.5806 9.35473V51.4515H28.0644V9.35473C28.0644 7.28824 26.389 5.61279 24.3225 5.61279Z" fill="#4571AD"/>
<path d="M43.9677 9.35484H42.0968V5.20316C42.0968 2.33403 39.7627 0 36.8936 0C35.8215 0 34.7888 0.325548 33.9104 0.940161L27.1627 5.66342C26.3722 5.05442 25.3946 4.67742 24.3226 4.67742C23.2505 4.67742 22.2729 5.05442 21.4834 5.66435L14.7357 0.941097C13.8564 0.325548 12.8236 0 11.7515 0C8.88242 0 6.54839 2.33403 6.54839 5.20316V9.35484H4.67742C2.09829 9.35484 0 11.4531 0 14.0323V22.4516H2.70823V49.5806C2.70823 51.1279 3.96739 52.3871 5.51468 52.3871H34.6129V50.5161H29V22.4516H30.871V20.5806H29V11.2258H43.9677C45.515 11.2258 46.7742 12.485 46.7742 14.0323V20.5806H32.7419V22.4516H43.9677V40.2258H45.8387V22.4516H48.6452V14.0323C48.6452 11.4531 46.5469 9.35484 43.9677 9.35484ZM19.6452 50.5161H5.51468C4.99923 50.5161 4.57919 50.0961 4.57919 49.5806V22.4516H19.6452V50.5161ZM19.6452 20.5806H1.87097V14.0323C1.87097 12.485 3.13013 11.2258 4.67742 11.2258H19.6452V20.5806ZM19.6452 9.35484H8.41935V5.20316C8.41935 3.36587 9.91426 1.87097 11.7515 1.87097C12.4382 1.87097 13.0986 2.07958 13.6627 2.47342L20.256 7.0891C19.879 7.76358 19.6452 8.52881 19.6452 9.35484ZM27.129 50.5161H21.5161V11.2258H27.129V50.5161ZM21.5161 9.35484C21.5161 7.80755 22.7753 6.54839 24.3226 6.54839C25.8699 6.54839 27.129 7.80755 27.129 9.35484H21.5161ZM40.2258 9.35484H29C29 8.52881 28.7661 7.76358 28.3891 7.0891L34.9824 2.47342C35.5465 2.07958 36.207 1.87097 36.8936 1.87097C38.7309 1.87097 40.2258 3.36587 40.2258 5.20316V9.35484Z" fill="#1E1E1E"/>
<path d="M58.0001 39.2905H33.6775V58.0002H58.0001V39.2905Z" fill="#4571AD"/>
<path d="M39.2904 43.0322H37.4194V54.258H39.2904V43.0322Z" fill="#1E1E1E"/>
<path d="M43.0323 43.0322H41.1614V50.5161H43.0323V43.0322Z" fill="#1E1E1E"/>
<path d="M43.0323 52.3872H41.1614V54.2582H43.0323V52.3872Z" fill="#1E1E1E"/>
<path d="M46.7743 43.0322H44.9033V54.258H46.7743V43.0322Z" fill="#1E1E1E"/>
<path d="M50.5162 43.0322H48.6453V50.5161H50.5162V43.0322Z" fill="#1E1E1E"/>
<path d="M50.5162 52.3872H48.6453V54.2582H50.5162V52.3872Z" fill="#1E1E1E"/>
<path d="M54.2582 43.0322H52.3872V54.258H54.2582V43.0322Z" fill="#1E1E1E"/>
</svg>
