<svg width="59" height="58" viewBox="0 0 59 58" fill="none" xmlns="http://www.w3.org/2000/svg">
<rect width="58" height="58" fill="white"/>
<path d="M16.9032 48.6452C11.7449 48.6452 7.54834 44.4486 7.54834 39.2904C7.54834 34.1321 11.7449 29.9355 16.9032 29.9355C22.0614 29.9355 26.258 34.1321 26.258 39.2904C26.258 44.4486 22.0614 48.6452 16.9032 48.6452Z" fill="#4571AD"/>
<path d="M59 51.4516C59 48.8725 56.9017 46.7742 54.3226 46.7742H50.5806V45.1193C50.5806 40.5008 51.6153 35.6195 53.7454 30.1946C54.288 28.811 54.4517 27.2862 54.2178 25.7847C53.7996 23.099 52.0204 20.7986 49.6452 19.6003V0H1V52.3871H32.8065V54.2581H34.6774V58H57.129V54.2581H59V51.4516ZM52.3693 26.0729C52.5517 27.2469 52.4254 28.4359 52.0035 29.5117C49.7874 35.1583 48.7097 40.2642 48.7097 45.1193V46.7742H43.0968V45.1184C43.0968 39.3755 42.05 34.2649 39.9854 29.9308C39.5672 29.0533 39.3548 28.1104 39.3548 27.129C39.3548 25.2693 40.15 23.49 41.5373 22.2486C42.9434 20.9895 44.7619 20.4132 46.6554 20.6227C49.5235 20.9399 51.9268 23.2318 52.3693 26.0729ZM32.9009 50.5161H2.87097V1.87097H47.7742V18.9248C47.4739 18.8556 47.1699 18.7976 46.8602 18.763C44.4673 18.502 42.0696 19.2597 40.2894 20.8547C38.5064 22.4507 37.4839 24.7379 37.4839 27.129C37.4839 28.391 37.757 29.6043 38.2959 30.7353C40.2398 34.8168 41.2258 39.6561 41.2258 45.1184V46.7742H37.4839C35.2256 46.7742 33.3359 48.3842 32.9009 50.5161ZM57.129 52.3871H53.3871V54.2581H55.2581V56.129H36.5484V54.2581H51.5161V52.3871H34.6774V51.4516C34.6774 49.9043 35.9366 48.6452 37.4839 48.6452H54.3226C55.8699 48.6452 57.129 49.9043 57.129 51.4516V52.3871Z" fill="#1E1E1E"/>
<path d="M45.9033 24.3226C47.4506 24.3226 48.7098 25.5818 48.7098 27.1291H50.5807C50.5807 24.55 48.4824 22.4517 45.9033 22.4517V24.3226Z" fill="#1E1E1E"/>
<path d="M16.7414 41.7046L12.8105 38.5596L11.6411 40.0208L17.065 44.3596L29.8073 27.6967L28.3217 26.561L16.7414 41.7046Z" fill="#1E1E1E"/>
<path d="M14.0968 14.9675C14.0968 12.9038 12.4185 11.2256 10.3548 11.2256H8.48388C7.45204 11.2256 6.61291 10.3864 6.61291 9.3546C6.61291 8.32276 7.45204 7.48363 8.48388 7.48363H10.3548C11.3867 7.48363 12.2258 8.32276 12.2258 9.3546H14.0968C14.0968 7.29092 12.4185 5.61267 10.3548 5.61267V3.7417H8.48388V5.61267C6.4202 5.61267 4.74194 7.29092 4.74194 9.3546C4.74194 11.4183 6.4202 13.0965 8.48388 13.0965H10.3548C11.3867 13.0965 12.2258 13.9357 12.2258 14.9675C12.2258 15.9993 11.3867 16.8385 10.3548 16.8385H8.48388C7.45204 16.8385 6.61291 15.9993 6.61291 14.9675H4.74194C4.74194 17.0312 6.4202 18.7094 8.48388 18.7094V20.5804H10.3548V18.7094C12.4185 18.7094 14.0968 17.0312 14.0968 14.9675Z" fill="#1E1E1E"/>
<path d="M44.9678 3.7417H20.6453V5.61267H44.9678V3.7417Z" fill="#1E1E1E"/>
<path d="M44.9678 7.48389H16.9033V9.35485H44.9678V7.48389Z" fill="#1E1E1E"/>
<path d="M44.9678 11.2256H16.9033V13.0966H44.9678V11.2256Z" fill="#1E1E1E"/>
<path d="M44.9678 14.9678H16.9033V16.8387H44.9678V14.9678Z" fill="#1E1E1E"/>
<path d="M32.8065 18.7095H16.9033V20.5804H32.8065V18.7095Z" fill="#1E1E1E"/>
<path d="M18.7743 3.7417H16.9033V5.61267H18.7743V3.7417Z" fill="#1E1E1E"/>
<path d="M36.5485 18.7095H34.6775V20.5804H36.5485V18.7095Z" fill="#1E1E1E"/>
</svg>
