<svg width="58" height="58" viewBox="0 0 58 58" fill="none" xmlns="http://www.w3.org/2000/svg">
<rect width="58" height="58" fill="white"/>
<path d="M46.7741 14.9675C46.7741 21.1674 41.7482 26.1933 35.5483 26.1933C29.3485 26.1933 24.3225 21.1674 24.3225 14.9675C24.3225 8.76764 29.3485 3.7417 35.5483 3.7417C41.7482 3.7417 46.7741 8.76764 46.7741 14.9675Z" fill="#4571AD"/>
<path d="M41.1613 43.0324C41.1613 49.2323 36.1354 54.2583 29.9355 54.2583C23.7357 54.2583 18.7097 49.2323 18.7097 43.0324C18.7097 36.8326 23.7357 31.8066 29.9355 31.8066C36.1354 31.8066 41.1613 36.8326 41.1613 43.0324Z" fill="#4571AD"/>
<path d="M58 7.09652L50.9035 0H19.2578L17.7742 1.48362L16.2906 0H5.6129V28.0645H0V58H10.6777L12.1613 56.5164L13.6449 58H52.3871V31.8065H58V7.09652ZM51.4516 3.1938L54.8062 6.54839H51.4516V3.1938ZM50.5161 56.129H14.4196L13.0968 54.8062V52.3871H11.2258V54.8062L9.90297 56.129H1.87097V29.9355H9.90297L11.2258 31.2583V33.6774H13.0968V31.2583L14.4196 29.9355H50.5161V56.129ZM52.3871 29.9355V28.0645H18.7097V25.2581H16.8387V28.0645H13.6449L12.1613 29.5481L10.6777 28.0645H7.48387V1.87097H15.5159L16.8387 3.1938V6.54839H18.7097V3.1938L20.0325 1.87097H49.5806V8.41935H56.129V29.9355H52.3871Z" fill="#1E1E1E"/>
<path d="M16.8386 8.41943H18.7096V12.1614H16.8386V8.41943Z" fill="#1E1E1E"/>
<path d="M16.8386 14.0322H18.7096V17.7742H16.8386V14.0322Z" fill="#1E1E1E"/>
<path d="M16.8386 19.645H18.7096V23.387H16.8386V19.645Z" fill="#1E1E1E"/>
<path d="M30.209 18.9837L39.5638 9.62891L40.8867 10.9522L31.5323 20.3066L30.209 18.9837Z" fill="#1E1E1E"/>
<path d="M31.8064 10.2905H33.6774V12.1615H31.8064V10.2905Z" fill="#1E1E1E"/>
<path d="M37.4194 17.7744H39.2904V19.6454H37.4194V17.7744Z" fill="#1E1E1E"/>
<path d="M11.2258 35.5483H13.0968V39.2903H11.2258V35.5483Z" fill="#1E1E1E"/>
<path d="M11.2258 41.1611H13.0968V44.9031H11.2258V41.1611Z" fill="#1E1E1E"/>
<path d="M11.2258 46.7744H13.0968V50.5163H11.2258V46.7744Z" fill="#1E1E1E"/>
<path d="M24.5962 47.0477L33.951 37.6934L35.2739 39.0162L25.919 48.371L24.5962 47.0477Z" fill="#1E1E1E"/>
<path d="M26.1936 38.355H28.0646V40.2259H26.1936V38.355Z" fill="#1E1E1E"/>
<path d="M31.8064 45.8389H33.6774V47.7098H31.8064V45.8389Z" fill="#1E1E1E"/>
<path d="M39.2903 52.3872H41.1613V54.2582H39.2903V52.3872Z" fill="#1E1E1E"/>
<path d="M43.0322 52.3872H44.9032V54.2582H43.0322V52.3872Z" fill="#1E1E1E"/>
<path d="M46.7742 52.3872H48.6451V54.2582H46.7742V52.3872Z" fill="#1E1E1E"/>
</svg>
