<svg width="58" height="58" viewBox="0 0 58 58" fill="none" xmlns="http://www.w3.org/2000/svg">
<rect width="58" height="58" fill="white"/>
<path d="M23.4517 20.5806C21.3879 20.5806 19.7097 18.9023 19.7097 16.8386C19.7097 14.7749 21.3879 13.0967 23.4517 13.0967C25.5154 13.0967 27.1936 14.7749 27.1936 16.8386C27.1936 18.9023 25.5154 20.5806 23.4517 20.5806Z" fill="#4571AD"/>
<path d="M34.6772 20.5806C32.6135 20.5806 30.9353 18.9023 30.9353 16.8386C30.9353 14.7749 32.6135 13.0967 34.6772 13.0967C36.741 13.0967 38.4192 14.7749 38.4192 16.8386C38.4192 18.9023 36.741 20.5806 34.6772 20.5806Z" fill="#4571AD"/>
<path d="M46.8386 47.7095H54.3225V53.3224H46.8386V47.7095Z" fill="#4571AD"/>
<path d="M3.8064 47.7095H11.2903V53.3224H3.8064V47.7095Z" fill="#4571AD"/>
<path d="M42.1613 57.0645H37.4839V48.6452H20.6452V57.0645H15.9678V45.8387C15.9678 44.8069 16.8069 43.9678 17.8387 43.9678H40.2904C41.3222 43.9678 42.1613 44.8069 42.1613 45.8387V57.0645Z" fill="#4571AD"/>
<path d="M57.129 40.2258C57.129 36.6159 54.1906 33.6774 50.5806 33.6774H47.0593L41.2733 30.7842C41.7328 30.147 42.0201 29.3901 42.1097 28.5697L44.0332 27.129C45.2044 26.2506 45.9032 24.8502 45.9032 23.3871V22.4516H46.8387C48.3858 22.4516 49.6452 21.1923 49.6452 19.6452V12.1613C49.6452 10.6142 48.3858 9.35484 46.8387 9.35484H45.7338C44.8394 4.05437 40.2287 0 34.6774 0H23.4516C17.9004 0 13.2896 4.05437 12.3953 9.35484H11.2903C9.74321 9.35484 8.48387 10.6142 8.48387 12.1613V19.6452C8.48387 21.1923 9.74321 22.4516 11.2903 22.4516H12.2258V23.3871C12.2258 24.8502 12.9247 26.2506 14.0968 27.129L16.0194 28.5706C16.1089 29.391 16.3971 30.147 16.8557 30.7851L11.0697 33.6774H7.54839C3.93846 33.6774 1 36.6159 1 40.2258V45.8387H2.87097V58H55.2581V45.8387H57.129V40.2258ZM46.8387 11.2258C47.3549 11.2258 47.7742 11.6451 47.7742 12.1613V19.6452C47.7742 20.1613 47.3549 20.5806 46.8387 20.5806H45.9032V11.2258H46.8387ZM11.2903 20.5806C10.7742 20.5806 10.3548 20.1613 10.3548 19.6452V12.1613C10.3548 11.6451 10.7742 11.2258 11.2903 11.2258H12.2258V20.5806H11.2903ZM23.4516 32.7419H35.6129V36.4839C35.6129 37.5157 34.7738 38.3548 33.7419 38.3548H25.3226C24.2907 38.3548 23.4516 37.5157 23.4516 36.4839V32.7419ZM20.6452 30.871C19.098 30.871 17.8387 29.6116 17.8387 28.0645V12.1613C17.8387 11.6451 18.258 11.2258 18.7742 11.2258H39.3548C39.871 11.2258 40.2903 11.6451 40.2903 12.1613V28.0645C40.2903 29.6116 39.031 30.871 37.4839 30.871H20.6452ZM14.0968 23.3871V11.2258C14.0968 6.0674 18.2932 1.87097 23.4516 1.87097H34.6774C39.8358 1.87097 44.0323 6.0674 44.0323 11.2258V23.3871C44.0323 24.2655 43.6129 25.1046 42.9104 25.6322L42.1613 26.1945V12.1613C42.1613 10.6142 40.902 9.35484 39.3548 9.35484H18.7742C17.2271 9.35484 15.9677 10.6142 15.9677 12.1613V26.1935L15.2195 25.6322C14.5161 25.1046 14.0968 24.2655 14.0968 23.3871ZM18.3635 32.1225C19.0419 32.5053 19.8125 32.7419 20.6452 32.7419H21.5806V36.4839C21.5806 38.5476 23.2589 40.2258 25.3226 40.2258H33.7419C35.8057 40.2258 37.4839 38.5476 37.4839 36.4839V32.7419C38.3166 32.7419 39.0872 32.5053 39.7655 32.1225L45.9032 35.1912V56.129H38.4194V47.7097H19.7097V56.129H12.2258V35.1912L18.3635 32.1225ZM36.5484 56.129H21.5806V49.5806H36.5484V56.129ZM2.87097 40.2258C2.87097 37.6468 4.96941 35.5484 7.54839 35.5484H10.3548V43.9677H2.87097V40.2258ZM4.74194 45.8387H10.3548V56.129H4.74194V45.8387ZM53.3871 56.129H47.7742V45.8387H53.3871V56.129ZM55.2581 43.9677H47.7742V35.5484H50.5806C53.1596 35.5484 55.2581 37.6468 55.2581 40.2258V43.9677Z" fill="#1E1E1E"/>
<path d="M21.5806 29.0001H36.5483V23.3872H21.5806V29.0001ZM23.4515 25.2582H34.6773V27.1291H23.4515V25.2582Z" fill="#1E1E1E"/>
<path d="M28.1292 51.4517H30.0001V53.3226H28.1292V51.4517Z" fill="#1E1E1E"/>
<path d="M24.3872 51.4517H26.2582V53.3226H24.3872V51.4517Z" fill="#1E1E1E"/>
<path d="M31.8708 51.4517H33.7418V53.3226H31.8708V51.4517Z" fill="#1E1E1E"/>
</svg>
