<svg width="234" height="468" viewBox="0 0 234 468" fill="none" xmlns="http://www.w3.org/2000/svg">
<path d="M-7.62939e-05 467C128.682 467 233 362.682 233 234C233 105.318 128.682 1 -7.62939e-05 1C-128.682 1 -233 105.318 -233 234C-233 362.682 -128.682 467 -7.62939e-05 467Z" stroke="white" stroke-width="0.5" stroke-linecap="round" stroke-linejoin="round"/>
<path d="M-0.00212097 430.72C108.643 430.72 196.718 342.646 196.718 234C196.718 125.354 108.643 37.2798 -0.00212097 37.2798C-108.648 37.2798 -196.722 125.354 -196.722 234C-196.722 342.646 -108.648 430.72 -0.00212097 430.72Z" stroke="white" stroke-width="0.5" stroke-linecap="round" stroke-linejoin="round"/>
<path d="M-0.00146484 394.44C88.6073 394.44 160.439 322.609 160.439 234C160.439 145.391 88.6073 73.5596 -0.00146484 73.5596C-88.6102 73.5596 -160.442 145.391 -160.442 234C-160.442 322.609 -88.6102 394.44 -0.00146484 394.44Z" stroke="white" stroke-width="0.5" stroke-linecap="round" stroke-linejoin="round"/>
<path d="M0.000534058 358.217C68.6039 358.217 124.218 302.603 124.218 234C124.218 165.397 68.6039 109.783 0.000534058 109.783C-68.6028 109.783 -124.217 165.397 -124.217 234C-124.217 302.603 -68.6028 358.217 0.000534058 358.217Z" stroke="white" stroke-width="0.5" stroke-linecap="round" stroke-linejoin="round"/>
<path d="M-0.00150299 321.937C48.565 321.937 87.936 282.566 87.936 234C87.936 185.433 48.565 146.062 -0.00150299 146.062C-48.568 146.062 -87.939 185.433 -87.939 234C-87.939 282.566 -48.568 321.937 -0.00150299 321.937Z" stroke="white" stroke-width="0.5" stroke-linecap="round" stroke-linejoin="round"/>
<path d="M-0.00102615 285.658C28.5286 285.658 51.6566 262.53 51.6566 234C51.6566 205.471 28.5286 182.343 -0.00102615 182.343C-28.5307 182.343 -51.6584 205.471 -51.6584 234C-51.6584 262.53 -28.5307 285.658 -0.00102615 285.658Z" stroke="white" stroke-width="0.5" stroke-linecap="round" stroke-linejoin="round"/>
<path d="M15.4344 234C15.4193 238.083 13.7865 241.995 10.8936 244.877C8.00064 247.759 4.08338 249.377 -0.000285316 249.377C-4.07869 249.377 -7.99001 247.757 -10.8739 244.873C-13.7578 241.99 -15.3779 238.078 -15.3779 234C-15.3779 229.921 -13.7578 226.01 -10.8739 223.126C-7.99001 220.242 -4.07869 218.622 -0.000285316 218.622C4.08338 218.622 8.00064 220.24 10.8936 223.123C13.7865 226.005 15.4193 229.916 15.4344 234V234Z" stroke="white" stroke-width="0.5" stroke-linecap="round" stroke-linejoin="round"/>
</svg>
