<svg width="154" height="352" viewBox="0 0 154 352" fill="none" xmlns="http://www.w3.org/2000/svg">
<path d="M5.32295 352C6.37572 352 7.40486 351.688 8.28022 351.103C9.15557 350.518 9.83783 349.687 10.2407 348.714C10.6436 347.742 10.749 346.671 10.5436 345.639C10.3382 344.606 9.83126 343.658 9.08684 342.913C8.34241 342.169 7.39395 341.662 6.3614 341.457C5.32885 341.251 4.25858 341.357 3.28594 341.759C2.3133 342.162 1.48197 342.845 0.897079 343.72C0.312186 344.595 0 345.624 0 346.677C0 348.089 0.560807 349.443 1.55905 350.441C2.5573 351.439 3.91121 352 5.32295 352Z" fill="#FED32B"/>
<path d="M5.32295 303.235C6.37572 303.235 7.40486 302.923 8.28022 302.338C9.15557 301.753 9.83783 300.922 10.2407 299.949C10.6436 298.977 10.749 297.906 10.5436 296.874C10.3382 295.841 9.83126 294.893 9.08684 294.148C8.34241 293.404 7.39395 292.897 6.3614 292.692C5.32885 292.486 4.25858 292.592 3.28594 292.995C2.3133 293.397 1.48197 294.08 0.897079 294.955C0.312186 295.83 0 296.86 0 297.912C0 299.324 0.560807 300.678 1.55905 301.676C2.5573 302.674 3.91121 303.235 5.32295 303.235Z" fill="#FED32B"/>
<path d="M5.32295 254.47C6.37572 254.47 7.40486 254.158 8.28022 253.573C9.15557 252.988 9.83783 252.157 10.2407 251.184C10.6436 250.212 10.749 249.142 10.5436 248.109C10.3382 247.076 9.83126 246.128 9.08684 245.384C8.34241 244.639 7.39395 244.132 6.3614 243.927C5.32885 243.721 4.25858 243.827 3.28594 244.23C2.3133 244.633 1.48197 245.315 0.897079 246.19C0.312186 247.066 0 248.095 0 249.147C0 250.559 0.560807 251.913 1.55905 252.911C2.5573 253.91 3.91121 254.47 5.32295 254.47Z" fill="#FED32B"/>
<path d="M5.32295 205.705C6.37572 205.705 7.40486 205.393 8.28022 204.808C9.15557 204.223 9.83783 203.392 10.2407 202.419C10.6436 201.447 10.749 200.376 10.5436 199.344C10.3382 198.311 9.83126 197.363 9.08684 196.618C8.34241 195.874 7.39395 195.367 6.3614 195.162C5.32885 194.956 4.25858 195.062 3.28594 195.465C2.3133 195.867 1.48197 196.55 0.897079 197.425C0.312186 198.3 0 199.33 0 200.382C0 201.794 0.560807 203.148 1.55905 204.146C2.5573 205.144 3.91121 205.705 5.32295 205.705Z" fill="#FED32B"/>
<path d="M5.32295 156.94C6.37572 156.94 7.40486 156.628 8.28022 156.043C9.15557 155.458 9.83783 154.627 10.2407 153.654C10.6436 152.682 10.749 151.612 10.5436 150.579C10.3382 149.547 9.83126 148.598 9.08684 147.854C8.34241 147.109 7.39395 146.602 6.3614 146.397C5.32885 146.191 4.25858 146.297 3.28594 146.7C2.3133 147.103 1.48197 147.785 0.897079 148.66C0.312186 149.536 0 150.565 0 151.617C0 153.029 0.560807 154.383 1.55905 155.381C2.5573 156.38 3.91121 156.94 5.32295 156.94Z" fill="#FED32B"/>
<path d="M5.32295 108.176C6.37572 108.176 7.40486 107.863 8.28022 107.279C9.15557 106.694 9.83783 105.862 10.2407 104.89C10.6436 103.917 10.749 102.847 10.5436 101.814C10.3382 100.782 9.83126 99.8332 9.08684 99.0888C8.34241 98.3444 7.39395 97.8374 6.3614 97.632C5.32885 97.4266 4.25858 97.5321 3.28594 97.9349C2.3133 98.3378 1.48197 99.02 0.897079 99.8954C0.312186 100.771 0 101.8 0 102.853C0 104.264 0.560807 105.618 1.55905 106.617C2.5573 107.615 3.91121 108.176 5.32295 108.176Z" fill="#FED32B"/>
<path d="M5.32295 59.4108C6.37572 59.4108 7.40486 59.0986 8.28022 58.5137C9.15557 57.9288 9.83783 57.0975 10.2407 56.1248C10.6436 55.1522 10.749 54.0819 10.5436 53.0494C10.3382 52.0168 9.83126 51.0684 9.08684 50.324C8.34241 49.5796 7.39395 49.0726 6.3614 48.8672C5.32885 48.6618 4.25858 48.7672 3.28594 49.1701C2.3133 49.573 1.48197 50.2552 0.897079 51.1305C0.312186 52.0059 0 53.035 0 54.0878C0 55.4996 0.560807 56.8535 1.55905 57.8518C2.5573 58.85 3.91121 59.4108 5.32295 59.4108Z" fill="#FED32B"/>
<path d="M5.32295 10.6459C6.37572 10.6459 7.40486 10.3337 8.28022 9.74882C9.15557 9.16392 9.83783 8.33264 10.2407 7.36C10.6436 6.38736 10.749 5.31708 10.5436 4.28452C10.3382 3.25197 9.83126 2.30349 9.08684 1.55906C8.34241 0.814637 7.39395 0.307667 6.3614 0.10228C5.32885 -0.103107 4.25858 0.0022974 3.28594 0.405178C2.3133 0.80806 1.48197 1.49036 0.897079 2.36572C0.312186 3.24107 0 4.27022 0 5.323C0 6.73473 0.560807 8.08859 1.55905 9.08684C2.5573 10.0851 3.91121 10.6459 5.32295 10.6459Z" fill="#FED32B"/>
<path d="M52.9984 352C54.0499 351.994 55.0761 351.677 55.9476 351.088C56.819 350.5 57.4967 349.667 57.8951 348.693C58.2935 347.72 58.3947 346.651 58.186 345.62C57.9773 344.59 57.468 343.644 56.7225 342.903C55.9769 342.161 55.0284 341.657 53.9966 341.454C52.9649 341.251 51.8961 341.358 50.9252 341.762C49.9543 342.166 49.1247 342.848 48.5411 343.723C47.9575 344.597 47.646 345.625 47.646 346.677C47.646 347.378 47.7846 348.073 48.054 348.721C48.3233 349.368 48.718 349.956 49.2154 350.451C49.7128 350.946 50.3031 351.337 50.9523 351.603C51.6015 351.869 52.2969 352.004 52.9984 352Z" fill="#FED32B"/>
<path d="M52.9984 303.235C54.0499 303.229 55.0761 302.912 55.9476 302.323C56.819 301.735 57.4967 300.902 57.8951 299.929C58.2935 298.955 58.3947 297.886 58.186 296.855C57.9773 295.825 57.468 294.879 56.7225 294.138C55.9769 293.396 55.0284 292.892 53.9966 292.689C52.9649 292.486 51.8961 292.593 50.9252 292.997C49.9543 293.401 49.1247 294.083 48.5411 294.958C47.9575 295.832 47.646 296.86 47.646 297.912C47.646 298.613 47.7846 299.308 48.054 299.956C48.3233 300.603 48.718 301.192 49.2154 301.686C49.7128 302.181 50.3031 302.572 50.9523 302.838C51.6015 303.104 52.2969 303.239 52.9984 303.235Z" fill="#FED32B"/>
<path d="M52.9984 254.47C54.0499 254.464 55.0761 254.147 55.9476 253.559C56.819 252.97 57.4967 252.137 57.8951 251.164C58.2935 250.191 58.3947 249.121 58.186 248.091C57.9773 247.06 57.468 246.114 56.7225 245.373C55.9769 244.631 55.0284 244.127 53.9966 243.924C52.9649 243.721 51.8961 243.829 50.9252 244.232C49.9543 244.636 49.1247 245.318 48.5411 246.193C47.9575 247.068 47.646 248.096 47.646 249.147C47.646 249.849 47.7846 250.543 48.054 251.191C48.3233 251.839 48.718 252.427 49.2154 252.921C49.7128 253.416 50.3031 253.808 50.9523 254.073C51.6015 254.339 52.2969 254.474 52.9984 254.47Z" fill="#FED32B"/>
<path d="M52.9984 205.705C54.0499 205.699 55.0761 205.382 55.9476 204.794C56.819 204.205 57.4967 203.372 57.8951 202.399C58.2935 201.426 58.3947 200.357 58.186 199.326C57.9773 198.295 57.468 197.35 56.7225 196.608C55.9769 195.867 55.0284 195.363 53.9966 195.16C52.9649 194.957 51.8961 195.064 50.9252 195.467C49.9543 195.871 49.1247 196.553 48.5411 197.428C47.9575 198.303 47.646 199.331 47.646 200.382C47.646 201.084 47.7846 201.778 48.054 202.426C48.3233 203.074 48.718 203.662 49.2154 204.157C49.7128 204.651 50.3031 205.043 50.9523 205.309C51.6015 205.574 52.2969 205.709 52.9984 205.705Z" fill="#FED32B"/>
<path d="M52.9984 156.94C54.0499 156.935 55.0761 156.617 55.9476 156.029C56.819 155.441 57.4967 154.607 57.8951 153.634C58.2935 152.661 58.3947 151.592 58.186 150.561C57.9773 149.53 57.468 148.585 56.7225 147.843C55.9769 147.102 55.0284 146.598 53.9966 146.395C52.9649 146.192 51.8961 146.299 50.9252 146.703C49.9543 147.106 49.1247 147.789 48.5411 148.663C47.9575 149.538 47.646 150.566 47.646 151.617C47.646 152.319 47.7846 153.014 48.054 153.661C48.3233 154.309 48.718 154.897 49.2154 155.392C49.7128 155.886 50.3031 156.278 50.9523 156.544C51.6015 156.809 52.2969 156.944 52.9984 156.94Z" fill="#FED32B"/>
<path d="M52.9984 108.175C54.0499 108.17 55.0761 107.853 55.9476 107.264C56.819 106.676 57.4967 105.842 57.8951 104.869C58.2935 103.896 58.3947 102.827 58.186 101.796C57.9773 100.766 57.468 99.8198 56.7225 99.0784C55.9769 98.3369 55.0284 97.8328 53.9966 97.6298C52.9649 97.4268 51.8961 97.5339 50.9252 97.9377C49.9543 98.3414 49.1247 99.0237 48.5411 99.8984C47.9575 100.773 47.646 101.801 47.646 102.853C47.646 103.554 47.7846 104.249 48.054 104.896C48.3233 105.544 48.718 106.132 49.2154 106.627C49.7128 107.122 50.3031 107.513 50.9523 107.779C51.6015 108.045 52.2969 108.179 52.9984 108.175Z" fill="#FED32B"/>
<path d="M52.9984 59.4108C54.0499 59.405 55.0761 59.0879 55.9476 58.4995C56.819 57.9111 57.4967 57.0777 57.8951 56.1046C58.2935 55.1315 58.3947 54.0621 58.186 53.0315C57.9773 52.0009 57.468 51.0552 56.7225 50.3137C55.9769 49.5722 55.0284 49.0682 53.9966 48.8652C52.9649 48.6622 51.8961 48.7693 50.9252 49.173C49.9543 49.5767 49.1247 50.2589 48.5411 51.1336C47.9575 52.0083 47.646 53.0363 47.646 54.0879C47.646 54.7894 47.7846 55.484 48.054 56.1317C48.3233 56.7794 48.718 57.3675 49.2154 57.8622C49.7128 58.3569 50.3031 58.7484 50.9523 59.0141C51.6015 59.2799 52.2969 59.4147 52.9984 59.4108Z" fill="#FED32B"/>
<path d="M52.9984 10.6459C54.0499 10.6401 55.0761 10.3229 55.9476 9.73453C56.819 9.14611 57.4967 8.31284 57.8951 7.3397C58.2935 6.36656 58.3947 5.29716 58.186 4.26655C57.9773 3.23595 57.468 2.2903 56.7225 1.54881C55.9769 0.807324 55.0284 0.303299 53.9966 0.100284C52.9649 -0.102731 51.8961 0.00429821 50.9252 0.408029C49.9543 0.81176 49.1247 1.49404 48.5411 2.36875C47.9575 3.24345 47.646 4.27145 47.646 5.32298C47.646 6.02448 47.7846 6.71907 48.054 7.3668C48.3233 8.01453 48.718 8.60265 49.2154 9.09732C49.7128 9.59198 50.3031 9.98346 50.9523 10.2492C51.6015 10.515 52.2969 10.6498 52.9984 10.6459Z" fill="#FED32B"/>
<path d="M100.615 352C101.668 352 102.697 351.688 103.572 351.103C104.448 350.518 105.13 349.687 105.533 348.714C105.936 347.741 106.041 346.671 105.836 345.639C105.63 344.606 105.123 343.658 104.379 342.913C103.634 342.169 102.686 341.662 101.653 341.456C100.621 341.251 99.5506 341.356 98.5779 341.759C97.6053 342.162 96.774 342.844 96.1891 343.72C95.6042 344.595 95.292 345.624 95.292 346.677C95.292 347.376 95.4297 348.068 95.6972 348.714C95.9647 349.36 96.3568 349.947 96.851 350.441C97.3453 350.935 97.9321 351.327 98.5779 351.595C99.2237 351.862 99.9159 352 100.615 352Z" fill="#FED32B"/>
<path d="M100.615 303.235C101.668 303.235 102.697 302.923 103.572 302.338C104.448 301.753 105.13 300.922 105.533 299.949C105.936 298.977 106.041 297.906 105.836 296.874C105.63 295.841 105.123 294.893 104.379 294.149C103.634 293.404 102.686 292.897 101.653 292.692C100.621 292.486 99.5506 292.592 98.5779 292.995C97.6053 293.398 96.774 294.08 96.1891 294.955C95.6042 295.83 95.292 296.86 95.292 297.912C95.292 298.611 95.4297 299.304 95.6972 299.949C95.9647 300.595 96.3568 301.182 96.851 301.676C97.3453 302.171 97.9321 302.563 98.5779 302.83C99.2237 303.098 99.9159 303.235 100.615 303.235Z" fill="#FED32B"/>
<path d="M100.615 254.47C101.668 254.47 102.697 254.158 103.572 253.573C104.448 252.988 105.13 252.157 105.533 251.184C105.936 250.212 106.041 249.142 105.836 248.109C105.63 247.076 105.123 246.128 104.379 245.384C103.634 244.639 102.686 244.132 101.653 243.927C100.621 243.721 99.5506 243.827 98.5779 244.23C97.6053 244.633 96.774 245.315 96.1891 246.19C95.6042 247.066 95.292 248.095 95.292 249.147C95.292 249.846 95.4297 250.539 95.6972 251.184C95.9647 251.83 96.3568 252.417 96.851 252.911C97.3453 253.406 97.9321 253.798 98.5779 254.065C99.2237 254.333 99.9159 254.47 100.615 254.47Z" fill="#FED32B"/>
<path d="M100.615 205.705C101.668 205.705 102.697 205.393 103.572 204.808C104.448 204.223 105.13 203.392 105.533 202.419C105.936 201.447 106.041 200.376 105.836 199.344C105.63 198.311 105.123 197.363 104.379 196.618C103.634 195.874 102.686 195.367 101.653 195.162C100.621 194.956 99.5506 195.062 98.5779 195.465C97.6053 195.867 96.774 196.55 96.1891 197.425C95.6042 198.3 95.292 199.33 95.292 200.382C95.292 201.081 95.4297 201.774 95.6972 202.419C95.9647 203.065 96.3568 203.652 96.851 204.146C97.3453 204.641 97.9321 205.033 98.5779 205.3C99.2237 205.568 99.9159 205.705 100.615 205.705Z" fill="#FED32B"/>
<path d="M100.615 156.94C101.668 156.94 102.697 156.628 103.572 156.043C104.448 155.458 105.13 154.627 105.533 153.654C105.936 152.682 106.041 151.612 105.836 150.579C105.63 149.547 105.123 148.598 104.379 147.854C103.634 147.109 102.686 146.602 101.653 146.397C100.621 146.191 99.5506 146.297 98.5779 146.7C97.6053 147.103 96.774 147.785 96.1891 148.66C95.6042 149.536 95.292 150.565 95.292 151.617C95.292 152.317 95.4297 153.009 95.6972 153.654C95.9647 154.3 96.3568 154.887 96.851 155.381C97.3453 155.876 97.9321 156.268 98.5779 156.535C99.2237 156.803 99.9159 156.94 100.615 156.94Z" fill="#FED32B"/>
<path d="M100.615 108.176C101.668 108.176 102.697 107.863 103.572 107.279C104.448 106.694 105.13 105.862 105.533 104.89C105.936 103.917 106.041 102.847 105.836 101.814C105.63 100.782 105.123 99.8332 104.379 99.0888C103.634 98.3443 102.686 97.8374 101.653 97.632C100.621 97.4266 99.5506 97.532 98.5779 97.9349C97.6053 98.3378 96.774 99.02 96.1891 99.8953C95.6042 100.771 95.292 101.8 95.292 102.853C95.292 103.552 95.4297 104.244 95.6972 104.89C95.9647 105.535 96.3568 106.122 96.851 106.617C97.3453 107.111 97.9321 107.503 98.5779 107.77C99.2237 108.038 99.9159 108.176 100.615 108.176Z" fill="#FED32B"/>
<path d="M100.615 59.4109C101.668 59.4109 102.697 59.0988 103.572 58.5139C104.448 57.929 105.13 57.0976 105.533 56.125C105.936 55.1523 106.041 54.082 105.836 53.0495C105.63 52.0169 105.123 51.0685 104.379 50.3241C103.634 49.5797 102.686 49.0727 101.653 48.8673C100.621 48.6619 99.5506 48.7673 98.5779 49.1702C97.6053 49.5731 96.774 50.2553 96.1891 51.1307C95.6042 52.006 95.292 53.0352 95.292 54.0879C95.292 54.787 95.4297 55.4791 95.6972 56.125C95.9647 56.7708 96.3568 57.3576 96.851 57.8519C97.3453 58.3462 97.9321 58.7382 98.5779 59.0057C99.2237 59.2732 99.9159 59.4109 100.615 59.4109Z" fill="#FED32B"/>
<path d="M100.615 10.646C101.668 10.646 102.697 10.3338 103.572 9.74888C104.448 9.16398 105.13 8.3327 105.533 7.36006C105.936 6.38742 106.041 5.31714 105.836 4.28459C105.63 3.25204 105.123 2.30355 104.379 1.55913C103.634 0.814698 102.686 0.307728 101.653 0.102341C100.621 -0.103046 99.5506 0.00235844 98.5779 0.405239C97.6053 0.808121 96.774 1.49043 96.1891 2.36578C95.6042 3.24113 95.292 4.27028 95.292 5.32306C95.292 6.02208 95.4297 6.71425 95.6972 7.36006C95.9647 8.00587 96.3568 8.59262 96.851 9.0869C97.3453 9.58118 97.9321 9.97328 98.5779 10.2408C99.2237 10.5083 99.9159 10.646 100.615 10.646Z" fill="#FED32B"/>
<path d="M148.261 352C149.314 352 150.343 351.688 151.218 351.103C152.094 350.518 152.776 349.687 153.179 348.714C153.582 347.741 153.687 346.671 153.482 345.639C153.276 344.606 152.769 343.658 152.025 342.913C151.28 342.169 150.332 341.662 149.299 341.456C148.267 341.251 147.197 341.356 146.224 341.759C145.251 342.162 144.42 342.844 143.835 343.72C143.25 344.595 142.938 345.624 142.938 346.677C142.938 348.089 143.499 349.443 144.497 350.441C145.495 351.439 146.849 352 148.261 352Z" fill="#FED32B"/>
<path d="M148.261 303.235C149.314 303.235 150.343 302.923 151.218 302.338C152.094 301.753 152.776 300.922 153.179 299.949C153.582 298.977 153.687 297.906 153.482 296.874C153.276 295.841 152.769 294.893 152.025 294.149C151.28 293.404 150.332 292.897 149.299 292.692C148.267 292.486 147.197 292.592 146.224 292.995C145.251 293.398 144.42 294.08 143.835 294.955C143.25 295.83 142.938 296.86 142.938 297.912C142.938 299.324 143.499 300.678 144.497 301.676C145.495 302.675 146.849 303.235 148.261 303.235Z" fill="#FED32B"/>
<path d="M148.261 254.47C149.314 254.47 150.343 254.158 151.218 253.573C152.094 252.988 152.776 252.157 153.179 251.184C153.582 250.212 153.687 249.142 153.482 248.109C153.276 247.076 152.769 246.128 152.025 245.384C151.28 244.639 150.332 244.132 149.299 243.927C148.267 243.721 147.197 243.827 146.224 244.23C145.251 244.633 144.42 245.315 143.835 246.19C143.25 247.066 142.938 248.095 142.938 249.147C142.938 250.559 143.499 251.913 144.497 252.911C145.495 253.91 146.849 254.47 148.261 254.47Z" fill="#FED32B"/>
<path d="M148.261 205.705C149.314 205.705 150.343 205.393 151.218 204.808C152.094 204.223 152.776 203.392 153.179 202.419C153.582 201.447 153.687 200.376 153.482 199.344C153.276 198.311 152.769 197.363 152.025 196.618C151.28 195.874 150.332 195.367 149.299 195.162C148.267 194.956 147.197 195.062 146.224 195.465C145.251 195.867 144.42 196.55 143.835 197.425C143.25 198.3 142.938 199.33 142.938 200.382C142.938 201.794 143.499 203.148 144.497 204.146C145.495 205.145 146.849 205.705 148.261 205.705Z" fill="#FED32B"/>
<path d="M148.261 156.94C149.314 156.94 150.343 156.628 151.218 156.043C152.094 155.458 152.776 154.627 153.179 153.654C153.582 152.682 153.687 151.612 153.482 150.579C153.276 149.547 152.769 148.598 152.025 147.854C151.28 147.109 150.332 146.602 149.299 146.397C148.267 146.191 147.197 146.297 146.224 146.7C145.251 147.103 144.42 147.785 143.835 148.66C143.25 149.536 142.938 150.565 142.938 151.617C142.938 153.029 143.499 154.383 144.497 155.381C145.495 156.38 146.849 156.94 148.261 156.94Z" fill="#FED32B"/>
<path d="M148.261 108.176C149.314 108.176 150.343 107.863 151.218 107.279C152.094 106.694 152.776 105.862 153.179 104.89C153.582 103.917 153.687 102.847 153.482 101.814C153.276 100.782 152.769 99.8332 152.025 99.0888C151.28 98.3443 150.332 97.8374 149.299 97.632C148.267 97.4266 147.197 97.532 146.224 97.9349C145.251 98.3378 144.42 99.02 143.835 99.8953C143.25 100.771 142.938 101.8 142.938 102.853C142.938 104.264 143.499 105.618 144.497 106.617C145.495 107.615 146.849 108.176 148.261 108.176Z" fill="#FED32B"/>
<path d="M148.261 59.4109C149.314 59.4109 150.343 59.0988 151.218 58.5139C152.094 57.929 152.776 57.0976 153.179 56.125C153.582 55.1523 153.687 54.082 153.482 53.0495C153.276 52.0169 152.769 51.0685 152.025 50.3241C151.28 49.5797 150.332 49.0727 149.299 48.8673C148.267 48.6619 147.197 48.7673 146.224 49.1702C145.251 49.5731 144.42 50.2553 143.835 51.1307C143.25 52.006 142.938 53.0352 142.938 54.0879C142.938 55.4997 143.499 56.8536 144.497 57.8519C145.495 58.8501 146.849 59.4109 148.261 59.4109Z" fill="#FED32B"/>
<path d="M148.261 10.646C149.314 10.646 150.343 10.3338 151.218 9.74888C152.094 9.16398 152.776 8.3327 153.179 7.36006C153.582 6.38742 153.687 5.31714 153.482 4.28459C153.276 3.25204 152.769 2.30355 152.025 1.55913C151.28 0.814698 150.332 0.307728 149.299 0.102341C148.267 -0.103046 147.197 0.00235844 146.224 0.405239C145.251 0.808121 144.42 1.49043 143.835 2.36578C143.25 3.24113 142.938 4.27028 142.938 5.32306C142.938 6.73479 143.499 8.08865 144.497 9.0869C145.495 10.0851 146.849 10.646 148.261 10.646Z" fill="#FED32B"/>
</svg>
