<svg width="575" height="160" viewBox="0 0 575 160" fill="none" xmlns="http://www.w3.org/2000/svg">
<path d="M574.083 150.768C574.083 149.051 573.573 147.373 572.619 145.945C571.666 144.517 570.31 143.405 568.723 142.748C567.137 142.09 565.392 141.919 563.708 142.254C562.024 142.588 560.477 143.415 559.263 144.629C558.049 145.843 557.222 147.39 556.887 149.074C556.552 150.758 556.724 152.504 557.381 154.09C558.038 155.676 559.151 157.032 560.578 157.986C562.006 158.94 563.684 159.449 565.401 159.449C567.704 159.449 569.912 158.535 571.54 156.907C573.168 155.278 574.083 153.07 574.083 150.768Z" fill="#FADE70"/>
<path d="M494.55 150.768C494.55 149.051 494.041 147.373 493.087 145.945C492.133 144.517 490.778 143.405 489.191 142.748C487.605 142.09 485.859 141.919 484.175 142.254C482.491 142.588 480.945 143.415 479.73 144.629C478.516 145.843 477.69 147.39 477.355 149.074C477.02 150.758 477.192 152.504 477.849 154.09C478.506 155.676 479.618 157.032 481.046 157.986C482.474 158.94 484.152 159.449 485.869 159.449C488.171 159.449 490.38 158.535 492.008 156.907C493.636 155.278 494.55 153.07 494.55 150.768Z" fill="#FADE70"/>
<path d="M415.021 150.768C415.021 149.051 414.511 147.373 413.557 145.945C412.603 144.517 411.248 143.405 409.661 142.748C408.075 142.09 406.33 141.919 404.646 142.254C402.962 142.588 401.415 143.415 400.201 144.629C398.987 145.843 398.16 147.39 397.825 149.074C397.49 150.758 397.662 152.504 398.319 154.09C398.976 155.676 400.089 157.032 401.516 157.986C402.944 158.94 404.622 159.449 406.339 159.449C408.642 159.449 410.85 158.535 412.478 156.907C414.106 155.278 415.021 153.07 415.021 150.768Z" fill="#FADE70"/>
<path d="M335.488 150.768C335.488 149.051 334.979 147.373 334.025 145.945C333.071 144.517 331.715 143.405 330.129 142.748C328.542 142.09 326.797 141.919 325.113 142.254C323.429 142.588 321.882 143.415 320.668 144.629C319.454 145.843 318.627 147.39 318.292 149.074C317.957 150.758 318.129 152.504 318.786 154.09C319.443 155.676 320.556 157.032 321.983 157.986C323.411 158.94 325.09 159.449 326.807 159.449C329.109 159.449 331.317 158.535 332.945 156.907C334.573 155.278 335.488 153.07 335.488 150.768Z" fill="#FADE70"/>
<path d="M255.957 150.768C255.957 149.051 255.447 147.373 254.493 145.945C253.54 144.517 252.184 143.405 250.597 142.748C249.011 142.09 247.266 141.919 245.582 142.254C243.898 142.588 242.351 143.415 241.137 144.629C239.923 145.843 239.096 147.39 238.761 149.074C238.426 150.758 238.598 152.504 239.255 154.09C239.912 155.676 241.025 157.032 242.452 157.986C243.88 158.94 245.558 159.449 247.275 159.449C249.578 159.449 251.786 158.535 253.414 156.907C255.042 155.278 255.957 153.07 255.957 150.768Z" fill="#FADE70"/>
<path d="M176.425 150.768C176.425 149.051 175.916 147.373 174.962 145.945C174.008 144.517 172.653 143.405 171.066 142.748C169.48 142.09 167.735 141.919 166.051 142.254C164.367 142.588 162.82 143.415 161.606 144.629C160.391 145.843 159.565 147.39 159.23 149.074C158.895 150.758 159.067 152.504 159.724 154.09C160.381 155.676 161.493 157.032 162.921 157.986C164.349 158.94 166.027 159.449 167.744 159.449C170.046 159.449 172.255 158.535 173.883 156.907C175.511 155.278 176.425 153.07 176.425 150.768Z" fill="#FADE70"/>
<path d="M96.8945 150.768C96.8945 149.051 96.3855 147.373 95.4316 145.945C94.4776 144.517 93.1218 143.405 91.5355 142.748C89.9492 142.09 88.2036 141.919 86.5196 142.254C84.8356 142.588 83.2889 143.415 82.0748 144.629C80.8607 145.843 80.0339 147.39 79.6989 149.074C79.3639 150.758 79.5358 152.504 80.1929 154.09C80.85 155.676 81.9626 157.032 83.3902 157.986C84.8178 158.94 86.4963 159.449 88.2133 159.449C90.5157 159.449 92.7239 158.535 94.3519 156.907C95.98 155.278 96.8945 153.07 96.8945 150.768Z" fill="#FADE70"/>
<path d="M17.3633 150.768C17.3633 149.051 16.8541 147.373 15.9002 145.945C14.9462 144.517 13.5905 143.405 12.0042 142.748C10.4179 142.09 8.67237 141.919 6.98837 142.254C5.30437 142.588 3.75748 143.415 2.54338 144.629C1.32928 145.843 0.502459 147.39 0.16749 149.074C-0.167479 150.758 0.00442696 152.504 0.661491 154.09C1.31856 155.676 2.43134 157.032 3.85896 157.986C5.28659 158.94 6.96504 159.449 8.68203 159.449C10.9844 159.449 13.1925 158.535 14.8205 156.907C16.4486 155.278 17.3633 153.07 17.3633 150.768Z" fill="#FADE70"/>
<path d="M574.081 103.358C574.072 101.643 573.555 99.9691 572.595 98.5478C571.635 97.1265 570.276 96.0212 568.689 95.3715C567.102 94.7218 565.358 94.5567 563.677 94.8971C561.996 95.2374 560.454 96.068 559.245 97.284C558.035 98.5 557.213 100.047 556.882 101.73C556.551 103.412 556.726 105.155 557.384 106.739C558.043 108.322 559.156 109.675 560.582 110.627C562.009 111.579 563.685 112.087 565.4 112.087C566.544 112.087 567.677 111.861 568.733 111.422C569.79 110.982 570.749 110.339 571.556 109.527C572.362 108.716 573.001 107.753 573.434 106.695C573.868 105.636 574.088 104.502 574.081 103.358Z" fill="#FADE70"/>
<path d="M494.55 103.358C494.541 101.643 494.023 99.9691 493.064 98.5478C492.104 97.1265 490.745 96.0212 489.158 95.3715C487.571 94.7218 485.827 94.5567 484.146 94.8971C482.465 95.2374 480.923 96.068 479.714 97.284C478.504 98.5 477.682 100.047 477.351 101.73C477.02 103.412 477.195 105.155 477.853 106.739C478.512 108.322 479.624 109.675 481.051 110.627C482.477 111.579 484.154 112.087 485.869 112.087C487.013 112.087 488.146 111.861 489.202 111.422C490.259 110.982 491.218 110.339 492.025 109.527C492.831 108.716 493.47 107.753 493.903 106.695C494.337 105.636 494.556 104.502 494.55 103.358Z" fill="#FADE70"/>
<path d="M415.019 103.358C415.009 101.643 414.492 99.9691 413.533 98.5478C412.573 97.1265 411.214 96.0212 409.627 95.3715C408.04 94.7218 406.296 94.5567 404.615 94.8971C402.934 95.2374 401.392 96.068 400.182 97.284C398.973 98.5 398.151 100.047 397.82 101.73C397.489 103.412 397.663 105.155 398.322 106.739C398.98 108.322 400.093 109.675 401.52 110.627C402.946 111.579 404.623 112.087 406.338 112.087C407.482 112.087 408.614 111.861 409.671 111.422C410.727 110.982 411.686 110.339 412.493 109.527C413.3 108.716 413.938 107.753 414.372 106.695C414.805 105.636 415.025 104.502 415.019 103.358Z" fill="#FADE70"/>
<path d="M335.488 103.358C335.478 101.643 334.961 99.9691 334.001 98.5478C333.042 97.1265 331.683 96.0212 330.096 95.3715C328.508 94.7218 326.764 94.5567 325.084 94.8971C323.403 95.2374 321.86 96.068 320.651 97.284C319.442 98.5 318.62 100.047 318.289 101.73C317.957 103.412 318.132 105.155 318.791 106.739C319.449 108.322 320.562 109.675 321.988 110.627C323.415 111.579 325.091 112.087 326.806 112.087C327.95 112.087 329.083 111.861 330.14 111.422C331.196 110.982 332.155 110.339 332.962 109.527C333.769 108.716 334.407 107.753 334.841 106.695C335.274 105.636 335.494 104.502 335.488 103.358Z" fill="#FADE70"/>
<path d="M255.956 103.358C255.947 101.643 255.43 99.9691 254.47 98.5478C253.511 97.1265 252.151 96.0212 250.564 95.3715C248.977 94.7218 247.233 94.5567 245.552 94.8971C243.872 95.2374 242.329 96.068 241.12 97.284C239.911 98.5 239.088 100.047 238.757 101.73C238.426 103.412 238.601 105.155 239.259 106.739C239.918 108.322 241.031 109.675 242.457 110.627C243.884 111.579 245.56 112.087 247.275 112.087C248.419 112.087 249.552 111.861 250.608 111.422C251.665 110.982 252.624 110.339 253.431 109.527C254.238 108.716 254.876 107.753 255.309 106.695C255.743 105.636 255.963 104.502 255.956 103.358Z" fill="#FADE70"/>
<path d="M176.425 103.358C176.416 101.643 175.899 99.9691 174.939 98.5478C173.979 97.1265 172.62 96.0212 171.033 95.3715C169.446 94.7218 167.702 94.5567 166.021 94.8971C164.34 95.2374 162.798 96.068 161.589 97.284C160.379 98.5 159.557 100.047 159.226 101.73C158.895 103.412 159.07 105.155 159.728 106.739C160.387 108.322 161.499 109.675 162.926 110.627C164.353 111.579 166.029 112.087 167.744 112.087C168.888 112.087 170.021 111.861 171.077 111.422C172.134 110.982 173.093 110.339 173.9 109.527C174.706 108.716 175.345 107.753 175.778 106.695C176.212 105.636 176.431 104.502 176.425 103.358Z" fill="#FADE70"/>
<path d="M96.8944 103.358C96.8849 101.643 96.3678 99.9691 95.4081 98.5478C94.4485 97.1265 93.0893 96.0212 91.5022 95.3715C89.9151 94.7218 88.1712 94.5567 86.4904 94.8971C84.8095 95.2374 83.2671 96.068 82.0578 97.284C80.8485 98.5 80.0265 100.047 79.6954 101.73C79.3643 103.412 79.539 105.155 80.1974 106.739C80.8559 108.322 81.9685 109.675 83.3951 110.627C84.8216 111.579 86.4982 112.087 88.2131 112.087C89.3572 112.087 90.4901 111.861 91.5464 111.422C92.6028 110.982 93.562 110.339 94.3688 109.527C95.1755 108.716 95.814 107.753 96.2474 106.695C96.6809 105.636 96.9007 104.502 96.8944 103.358Z" fill="#FADE70"/>
<path d="M17.3631 103.358C17.3537 101.643 16.8364 99.9691 15.8768 98.5478C14.9171 97.1265 13.5581 96.0212 11.971 95.3715C10.3839 94.7218 8.63979 94.5567 6.95896 94.8971C5.27814 95.2374 3.73587 96.068 2.52656 97.284C1.31726 98.5 0.495237 100.047 0.164139 101.73C-0.166962 103.412 0.00759315 105.155 0.666044 106.739C1.32449 108.322 2.43724 109.675 3.86381 110.627C5.29038 111.579 6.96695 112.087 8.6819 112.087C9.82598 112.087 10.9588 111.861 12.0152 111.422C13.0716 110.982 14.0308 110.339 14.8375 109.527C15.6443 108.716 16.2827 107.753 16.7162 106.695C17.1496 105.636 17.3695 104.502 17.3631 103.358Z" fill="#FADE70"/>
<path d="M574.083 56.0433C574.083 54.3263 573.573 52.6479 572.619 51.2203C571.666 49.7927 570.31 48.68 568.723 48.0229C567.137 47.3658 565.392 47.1939 563.708 47.5289C562.024 47.8639 560.477 48.6907 559.263 49.9048C558.049 51.1189 557.222 52.6657 556.887 54.3497C556.552 56.0337 556.724 57.7792 557.381 59.3655C558.038 60.9518 559.151 62.3077 560.578 63.2616C562.006 64.2155 563.684 64.7246 565.401 64.7246C566.541 64.7246 567.67 64.5001 568.723 64.0638C569.777 63.6275 570.734 62.9881 571.54 62.1819C572.346 61.3758 572.985 60.4188 573.422 59.3655C573.858 58.3123 574.083 57.1834 574.083 56.0433Z" fill="#FADE70"/>
<path d="M494.55 56.0433C494.55 54.3263 494.041 52.6479 493.087 51.2203C492.133 49.7927 490.778 48.68 489.191 48.0229C487.605 47.3658 485.859 47.1939 484.175 47.5289C482.491 47.8639 480.945 48.6907 479.73 49.9048C478.516 51.1189 477.69 52.6657 477.355 54.3497C477.02 56.0337 477.192 57.7792 477.849 59.3655C478.506 60.9518 479.618 62.3077 481.046 63.2616C482.474 64.2155 484.152 64.7246 485.869 64.7246C487.009 64.7246 488.138 64.5001 489.191 64.0638C490.244 63.6275 491.201 62.9881 492.008 62.1819C492.814 61.3758 493.453 60.4188 493.89 59.3655C494.326 58.3123 494.55 57.1834 494.55 56.0433Z" fill="#FADE70"/>
<path d="M415.021 56.0433C415.021 54.3263 414.511 52.6479 413.557 51.2203C412.603 49.7927 411.248 48.68 409.661 48.0229C408.075 47.3658 406.33 47.1939 404.646 47.5289C402.962 47.8639 401.415 48.6907 400.201 49.9048C398.987 51.1189 398.16 52.6657 397.825 54.3497C397.49 56.0337 397.662 57.7792 398.319 59.3655C398.976 60.9518 400.089 62.3077 401.516 63.2616C402.944 64.2155 404.622 64.7246 406.339 64.7246C407.479 64.7246 408.608 64.5001 409.661 64.0638C410.715 63.6275 411.672 62.9881 412.478 62.1819C413.284 61.3758 413.923 60.4188 414.36 59.3655C414.796 58.3123 415.021 57.1834 415.021 56.0433Z" fill="#FADE70"/>
<path d="M335.488 56.0433C335.488 54.3263 334.979 52.6479 334.025 51.2203C333.071 49.7927 331.715 48.68 330.129 48.0229C328.542 47.3658 326.797 47.1939 325.113 47.5289C323.429 47.8639 321.882 48.6907 320.668 49.9048C319.454 51.1189 318.627 52.6657 318.292 54.3497C317.957 56.0337 318.129 57.7792 318.786 59.3655C319.443 60.9518 320.556 62.3077 321.983 63.2616C323.411 64.2155 325.09 64.7246 326.807 64.7246C327.947 64.7246 329.075 64.5001 330.129 64.0638C331.182 63.6275 332.139 62.9881 332.945 62.1819C333.751 61.3758 334.391 60.4188 334.827 59.3655C335.263 58.3123 335.488 57.1834 335.488 56.0433Z" fill="#FADE70"/>
<path d="M255.957 56.0433C255.957 54.3263 255.447 52.6479 254.493 51.2203C253.54 49.7927 252.184 48.68 250.597 48.0229C249.011 47.3658 247.266 47.1939 245.582 47.5289C243.898 47.8639 242.351 48.6907 241.137 49.9048C239.923 51.1189 239.096 52.6657 238.761 54.3497C238.426 56.0337 238.598 57.7792 239.255 59.3655C239.912 60.9518 241.025 62.3077 242.452 63.2616C243.88 64.2155 245.558 64.7246 247.275 64.7246C248.415 64.7246 249.544 64.5001 250.597 64.0638C251.651 63.6275 252.608 62.9881 253.414 62.1819C254.22 61.3758 254.859 60.4188 255.296 59.3655C255.732 58.3123 255.957 57.1834 255.957 56.0433Z" fill="#FADE70"/>
<path d="M176.425 56.0433C176.425 54.3263 175.916 52.6479 174.962 51.2203C174.008 49.7927 172.653 48.68 171.066 48.0229C169.48 47.3658 167.735 47.1939 166.051 47.5289C164.367 47.8639 162.82 48.6907 161.606 49.9048C160.391 51.1189 159.565 52.6657 159.23 54.3497C158.895 56.0337 159.067 57.7792 159.724 59.3655C160.381 60.9518 161.493 62.3077 162.921 63.2616C164.349 64.2155 166.027 64.7246 167.744 64.7246C168.884 64.7246 170.013 64.5001 171.066 64.0638C172.119 63.6275 173.077 62.9881 173.883 62.1819C174.689 61.3758 175.328 60.4188 175.765 59.3655C176.201 58.3123 176.425 57.1834 176.425 56.0433Z" fill="#FADE70"/>
<path d="M96.8945 56.0433C96.8945 54.3263 96.3855 52.6479 95.4316 51.2203C94.4776 49.7927 93.1218 48.68 91.5355 48.0229C89.9492 47.3658 88.2036 47.1939 86.5196 47.5289C84.8356 47.8639 83.2889 48.6907 82.0748 49.9048C80.8607 51.1189 80.0339 52.6657 79.6989 54.3497C79.3639 56.0337 79.5358 57.7792 80.1929 59.3655C80.85 60.9518 81.9626 62.3077 83.3902 63.2616C84.8178 64.2155 86.4963 64.7246 88.2133 64.7246C89.3533 64.7246 90.4822 64.5001 91.5355 64.0638C92.5887 63.6275 93.5458 62.9881 94.3519 62.1819C95.1581 61.3758 95.7974 60.4188 96.2337 59.3655C96.6699 58.3123 96.8945 57.1834 96.8945 56.0433Z" fill="#FADE70"/>
<path d="M17.3633 56.0433C17.3633 54.3263 16.8541 52.6479 15.9002 51.2203C14.9462 49.7927 13.5905 48.68 12.0042 48.0229C10.4179 47.3658 8.67237 47.1939 6.98837 47.5289C5.30437 47.8639 3.75748 48.6907 2.54338 49.9048C1.32928 51.1189 0.502459 52.6657 0.16749 54.3497C-0.167479 56.0337 0.00442696 57.7792 0.661491 59.3655C1.31856 60.9518 2.43134 62.3077 3.85896 63.2616C5.28659 64.2155 6.96504 64.7246 8.68203 64.7246C9.82207 64.7246 10.9509 64.5001 12.0042 64.0638C13.0575 63.6275 14.0144 62.9881 14.8205 62.1819C15.6267 61.3758 16.2661 60.4188 16.7024 59.3655C17.1387 58.3123 17.3633 57.1834 17.3633 56.0433Z" fill="#FADE70"/>
<path d="M574.083 8.68105C574.083 6.96406 573.573 5.28561 572.619 3.85799C571.666 2.43036 570.31 1.31765 568.723 0.660587C567.137 0.00352287 565.392 -0.168383 563.708 0.166586C562.024 0.501554 560.477 1.32834 559.263 2.54244C558.049 3.75654 557.222 5.30339 556.887 6.98739C556.552 8.67139 556.724 10.4169 557.381 12.0032C558.038 13.5895 559.151 14.9453 560.578 15.8993C562.006 16.8532 563.684 17.3623 565.401 17.3623C567.704 17.3623 569.912 16.4477 571.54 14.8196C573.168 13.1916 574.083 10.9835 574.083 8.68105Z" fill="#FADE70"/>
<path d="M494.55 8.68105C494.55 6.96406 494.041 5.28561 493.087 3.85799C492.133 2.43036 490.778 1.31765 489.191 0.660587C487.605 0.00352287 485.859 -0.168383 484.175 0.166586C482.491 0.501554 480.945 1.32834 479.73 2.54244C478.516 3.75654 477.69 5.30339 477.355 6.98739C477.02 8.67139 477.192 10.4169 477.849 12.0032C478.506 13.5895 479.618 14.9453 481.046 15.8993C482.474 16.8532 484.152 17.3623 485.869 17.3623C488.171 17.3623 490.38 16.4477 492.008 14.8196C493.636 13.1916 494.55 10.9835 494.55 8.68105Z" fill="#FADE70"/>
<path d="M415.02 8.68105C415.02 6.96406 414.511 5.28561 413.557 3.85799C412.603 2.43036 411.247 1.31765 409.661 0.660587C408.075 0.00352287 406.329 -0.168383 404.645 0.166586C402.961 0.501554 401.414 1.32834 400.2 2.54244C398.986 3.75654 398.159 5.30339 397.824 6.98739C397.489 8.67139 397.661 10.4169 398.318 12.0032C398.975 13.5895 400.088 14.9453 401.516 15.8993C402.943 16.8532 404.622 17.3623 406.339 17.3623C408.641 17.3623 410.849 16.4477 412.477 14.8196C414.105 13.1916 415.02 10.9835 415.02 8.68105Z" fill="#FADE70"/>
<path d="M335.488 8.68105C335.488 6.96406 334.979 5.28561 334.025 3.85799C333.071 2.43036 331.715 1.31765 330.129 0.660587C328.542 0.00352287 326.797 -0.168383 325.113 0.166586C323.429 0.501554 321.882 1.32834 320.668 2.54244C319.454 3.75654 318.627 5.30339 318.292 6.98739C317.957 8.67139 318.129 10.4169 318.786 12.0032C319.443 13.5895 320.556 14.9453 321.983 15.8993C323.411 16.8532 325.09 17.3623 326.807 17.3623C329.109 17.3623 331.317 16.4477 332.945 14.8196C334.573 13.1916 335.488 10.9835 335.488 8.68105Z" fill="#FADE70"/>
<path d="M255.957 8.68105C255.957 6.96406 255.447 5.28561 254.493 3.85799C253.54 2.43036 252.184 1.31765 250.597 0.660587C249.011 0.00352287 247.266 -0.168383 245.582 0.166586C243.898 0.501554 242.351 1.32834 241.137 2.54244C239.923 3.75654 239.096 5.30339 238.761 6.98739C238.426 8.67139 238.598 10.4169 239.255 12.0032C239.912 13.5895 241.025 14.9453 242.452 15.8993C243.88 16.8532 245.558 17.3623 247.275 17.3623C249.578 17.3623 251.786 16.4477 253.414 14.8196C255.042 13.1916 255.957 10.9835 255.957 8.68105Z" fill="#FADE70"/>
<path d="M176.425 8.68105C176.425 6.96406 175.916 5.28561 174.962 3.85799C174.008 2.43036 172.653 1.31765 171.066 0.660587C169.48 0.00352287 167.735 -0.168383 166.051 0.166586C164.367 0.501554 162.82 1.32834 161.606 2.54244C160.391 3.75654 159.565 5.30339 159.23 6.98739C158.895 8.67139 159.067 10.4169 159.724 12.0032C160.381 13.5895 161.493 14.9453 162.921 15.8993C164.349 16.8532 166.027 17.3623 167.744 17.3623C170.046 17.3623 172.255 16.4477 173.883 14.8196C175.511 13.1916 176.425 10.9835 176.425 8.68105Z" fill="#FADE70"/>
<path d="M96.894 8.68105C96.894 6.96406 96.385 5.28561 95.4311 3.85799C94.4772 2.43036 93.1213 1.31765 91.535 0.660587C89.9487 0.00352287 88.2031 -0.168383 86.5191 0.166586C84.8351 0.501554 83.2884 1.32834 82.0743 2.54244C80.8602 3.75654 80.0334 5.30339 79.6984 6.98739C79.3634 8.67139 79.5353 10.4169 80.1924 12.0032C80.8495 13.5895 81.9621 14.9453 83.3897 15.8993C84.8174 16.8532 86.4958 17.3623 88.2128 17.3623C90.5152 17.3623 92.7234 16.4477 94.3514 14.8196C95.9795 13.1916 96.894 10.9835 96.894 8.68105Z" fill="#FADE70"/>
<path d="M17.3631 8.68105C17.3631 6.96406 16.8539 5.28561 15.9 3.85799C14.9461 2.43036 13.5903 1.31765 12.004 0.660587C10.4177 0.00352287 8.67219 -0.168383 6.98819 0.166586C5.30419 0.501554 3.75729 1.32834 2.5432 2.54244C1.3291 3.75654 0.502275 5.30339 0.167307 6.98739C-0.167662 8.67139 0.00424385 10.4169 0.661308 12.0032C1.31837 13.5895 2.43115 14.9453 3.85878 15.8993C5.28641 16.8532 6.96485 17.3623 8.68184 17.3623C10.9843 17.3623 13.1923 16.4477 14.8203 14.8196C16.4484 13.1916 17.3631 10.9835 17.3631 8.68105Z" fill="#FADE70"/>
</svg>
