<svg width="669" height="827" viewBox="0 0 669 827" fill="none" xmlns="http://www.w3.org/2000/svg">
<path d="M413.5 826C641.317 826 826 641.318 826 413.5C826 185.683 641.317 1 413.5 1C185.682 1 1 185.683 1 413.5C1 641.318 185.682 826 413.5 826Z" stroke="#FADE70" stroke-opacity="0.24" stroke-width="2" stroke-linecap="round" stroke-linejoin="round"/>
<path d="M413.496 761.77C605.841 761.77 761.767 605.844 761.767 413.5C761.767 221.155 605.841 65.229 413.496 65.229C221.152 65.229 65.2258 221.155 65.2258 413.5C65.2258 605.844 221.152 761.77 413.496 761.77Z" stroke="#FADE70" stroke-opacity="0.24" stroke-width="2" stroke-linecap="round" stroke-linejoin="round"/>
<path d="M413.497 697.541C570.369 697.541 697.538 570.371 697.538 413.5C697.538 256.628 570.369 129.458 413.497 129.458C256.625 129.458 129.456 256.628 129.456 413.5C129.456 570.371 256.625 697.541 413.497 697.541Z" stroke="#FADE70" stroke-opacity="0.24" stroke-width="2" stroke-linecap="round" stroke-linejoin="round"/>
<path d="M413.501 633.413C534.955 633.413 633.414 534.954 633.414 413.5C633.414 292.046 534.955 193.587 413.501 193.587C292.047 193.587 193.588 292.046 193.588 413.5C193.588 534.954 292.047 633.413 413.501 633.413Z" stroke="#FADE70" stroke-opacity="0.24" stroke-width="2" stroke-linecap="round" stroke-linejoin="round"/>
<path d="M413.497 569.183C499.479 569.183 569.181 499.482 569.181 413.5C569.181 327.519 499.479 257.817 413.497 257.817C327.516 257.817 257.814 327.519 257.814 413.5C257.814 499.482 327.516 569.183 413.497 569.183Z" stroke="#FADE70" stroke-opacity="0.24" stroke-width="2" stroke-linecap="round" stroke-linejoin="round"/>
<path d="M413.499 504.955C464.007 504.955 504.953 464.009 504.953 413.501C504.953 362.992 464.007 322.047 413.499 322.047C362.99 322.047 322.045 362.992 322.045 413.501C322.045 464.009 362.99 504.955 413.499 504.955Z" stroke="#FADE70" stroke-opacity="0.24" stroke-width="2" stroke-linecap="round" stroke-linejoin="round"/>
<path d="M440.825 413.5C440.798 420.729 437.907 427.654 432.786 432.757C427.664 437.859 420.729 440.724 413.5 440.724C406.279 440.724 399.355 437.856 394.249 432.75C389.143 427.645 386.275 420.72 386.275 413.5C386.275 406.279 389.143 399.355 394.249 394.249C399.355 389.144 406.279 386.275 413.5 386.275C420.729 386.275 427.664 389.14 432.786 394.243C437.907 399.346 440.798 406.27 440.825 413.5V413.5Z" stroke="#FADE70" stroke-opacity="0.24" stroke-width="2" stroke-linecap="round" stroke-linejoin="round"/>
</svg>
