<svg width="52" height="37" viewBox="0 0 52 37" fill="none" xmlns="http://www.w3.org/2000/svg">
<path d="M40.1575 13.6074L40.2554 13.0246C40.942 8.93811 42.2817 4.98453 44.2249 1.31056M40.1575 13.6074L44.6679 1.54241M40.1575 13.6074H40.7485H40.8049M40.1575 13.6074H40.8049M44.2249 1.31056C44.2252 1.30991 44.2255 1.30927 44.2259 1.30862L44.6679 1.54241M44.2249 1.31056C44.2246 1.31102 44.2244 1.31149 44.2241 1.31195L44.6679 1.54241M44.2249 1.31056C44.2787 1.20625 44.2974 1.08862 44.279 0.974064C44.2605 0.858948 44.2053 0.751266 44.1195 0.666973C44.0337 0.582565 43.9218 0.526054 43.7994 0.507046C43.6808 0.488647 43.5598 0.506554 43.4528 0.557617M44.6679 1.54241C44.7715 1.34287 44.8082 1.11616 44.7727 0.894836C44.7372 0.673512 44.6312 0.468945 44.4702 0.310505C44.3091 0.152069 44.1011 0.0479012 43.8761 0.0129662C43.6511 -0.0219688 43.4206 0.014122 43.2177 0.116055M43.4528 0.557617C43.4574 0.554958 43.4621 0.552315 43.4667 0.54966L43.2177 0.116055M43.4528 0.557617C32.7159 6.72816 28.0243 15.758 27.4704 22.7842L27.47 22.7896L27.4699 22.7896C27.1933 25.8697 28.0708 28.9439 29.9389 31.4337C31.8059 33.922 34.5342 35.6554 37.6118 36.3058C39.1637 36.5901 40.7581 36.562 42.2986 36.2232C43.8412 35.8839 45.2972 35.2402 46.5786 34.3315C47.8599 33.4227 48.9398 32.268 49.7531 30.9376C50.5664 29.6072 51.0964 28.1287 51.3113 26.5916C51.5262 25.0546 51.4216 23.4906 51.0037 21.9943C50.5859 20.4981 49.8634 19.1003 48.8795 17.8858C47.8957 16.6714 46.671 15.6655 45.2793 14.9296C43.8939 14.197 42.3719 13.7472 40.8049 13.6074M43.4528 0.557617C43.4493 0.559319 43.4457 0.561054 43.4422 0.562828L43.2177 0.116055M43.2177 0.116055L40.8049 13.6074" stroke="#363636"/>
<path d="M13.2376 13.6074L13.3355 13.0246C14.022 8.93811 15.3618 4.98453 17.3049 1.31056M13.2376 13.6074L17.7479 1.54241M13.2376 13.6074H13.8286H13.885M13.2376 13.6074H13.885M17.3049 1.31056C17.3053 1.30991 17.3056 1.30927 17.306 1.30862L17.7479 1.54241M17.3049 1.31056C17.3047 1.31102 17.3045 1.31149 17.3042 1.31195L17.7479 1.54241M17.3049 1.31056C17.3587 1.20625 17.3775 1.08862 17.3591 0.974064C17.3406 0.858948 17.2853 0.751266 17.1996 0.666973C17.1138 0.582565 17.0019 0.526054 16.8795 0.507046C16.7609 0.488647 16.6399 0.506554 16.5329 0.557617M17.7479 1.54241C17.8516 1.34287 17.8883 1.11616 17.8527 0.894836C17.8172 0.673512 17.7113 0.468945 17.5502 0.310505C17.3892 0.152069 17.1812 0.0479012 16.9562 0.0129662C16.7311 -0.0219688 16.5007 0.014122 16.2978 0.116055M16.5329 0.557617C16.5375 0.554958 16.5421 0.552315 16.5468 0.54966L16.2978 0.116055M16.5329 0.557617C5.796 6.72816 1.10438 15.758 0.550476 22.7842L0.550049 22.7896L0.550018 22.7896C0.273386 25.8697 1.15088 28.9439 3.01899 31.4337C4.88599 33.922 7.61423 35.6554 10.6919 36.3058C12.2437 36.5901 13.8381 36.562 15.3787 36.2232C16.9213 35.8839 18.3773 35.2402 19.6587 34.3315C20.94 33.4227 22.0199 32.268 22.8332 30.9376C23.6465 29.6072 24.1765 28.1287 24.3914 26.5916C24.6063 25.0546 24.5016 23.4906 24.0838 21.9943C23.6659 20.4981 22.9434 19.1003 21.9596 17.8858C20.9758 16.6714 19.7511 15.6655 18.3594 14.9296C16.974 14.197 15.452 13.7472 13.885 13.6074M16.5329 0.557617C16.5293 0.559319 16.5258 0.561054 16.5223 0.562828L16.2978 0.116055M16.2978 0.116055L13.885 13.6074" stroke="#363636"/>
</svg>
