<svg width="145" height="42" viewBox="0 0 145 42" fill="none" xmlns="http://www.w3.org/2000/svg">
<g clip-path="url(#clip0)">
<path d="M138.244 36.4674C141.089 36.4674 143.104 35.9538 144.605 34.8475V29.8298C143.064 30.8966 141.207 31.5682 138.599 31.5682C134.214 31.5682 132.396 28.1704 132.396 22.7971C132.396 17.1472 134.609 14.263 138.639 14.263C141.01 14.263 143.341 15.0927 144.565 15.8829V10.6677C143.262 9.9565 141.01 9.44287 137.928 9.44287C130.065 9.44287 125.996 15.0927 125.996 22.9946C126.035 31.6472 130.026 36.4674 138.244 36.4674ZM99.8011 34.1758V29.1581C97.9047 30.4619 94.6649 31.6077 91.7017 31.6077C87.1976 31.6077 85.4987 29.4742 85.2221 25.1282H100.078V21.8884C100.078 12.8407 96.0872 9.44287 89.9633 9.44287C82.4564 9.44287 78.9006 15.1718 78.9006 23.0342C78.9006 32.0818 83.3652 36.4674 91.188 36.4674C95.0995 36.4674 97.9837 35.4006 99.8011 34.1758ZM43.421 9.91699V20.1895H35.203V9.91699H29.0396V35.9538H35.203V25.0886H43.421V35.9538H49.5845V9.91699H43.421ZM77.3597 31.0546H74.6336V9.91699H56.6962V12.1295C56.6962 18.4906 56.3011 26.7085 54.1281 31.0546H52.1526V41.8802H57.842V35.9538H71.6308V41.8802H77.3202V31.0546H77.3597ZM119.437 35.9538H126.431L116.553 21.9279L125.245 9.91699H119.042L110.35 21.9279V9.91699H104.187V35.9538H110.35V23.1527L119.437 35.9538ZM89.8052 14.263C92.8475 14.263 93.7957 16.7916 93.7957 20.0709V20.5846H85.2221C85.3801 16.4361 86.8815 14.263 89.8052 14.263ZM68.4701 31.0546H59.778C61.4769 27.1431 61.951 20.0314 61.951 15.5273V14.7371H68.4701V31.0546Z" fill="white"/>
<path d="M23.9033 35.9537H17.6213V4.85967H14.8161C9.67984 4.85967 6.99319 7.42779 6.99319 11.2602C6.99319 15.6063 8.85014 17.6213 12.6826 20.1894L15.8433 22.3229L6.75613 35.9537H0L8.17848 23.7847C3.47684 20.4264 0.8297 17.1471 0.8297 11.6158C0.8297 4.70163 5.64986 0 14.7766 0H23.8638L23.9033 35.9537Z" fill="white"/>
</g>
<defs>
<clipPath id="clip0">
<rect width="145" height="41.8801" fill="white"/>
</clipPath>
</defs>
</svg>
