<svg width="211" height="60" viewBox="0 0 211 60" fill="none" xmlns="http://www.w3.org/2000/svg">
<path fill-rule="evenodd" clip-rule="evenodd" d="M99.2823 4.00173C98.7971 3.97617 98.2632 3.99129 98.0955 4.03543C97.9279 4.07956 97.7391 4.01559 97.6756 3.89336C97.5281 3.60912 96.6287 3.42846 96.5812 3.67365C96.5593 3.78619 96.3224 3.72742 95.9776 3.52405C95.5336 3.26189 95.2588 3.22016 94.7131 3.33209C94.1891 3.43937 94.0027 3.41362 93.9622 3.2288C93.9212 3.04114 93.7538 3.0059 93.2577 3.08085C92.8134 3.14776 92.567 3.10661 92.4803 2.95058C92.4106 2.82499 91.8969 2.62048 91.3386 2.49618C90.5406 2.31848 90.2257 2.34407 89.8655 2.61646C89.6137 2.80687 89.4248 2.87361 89.4459 2.76504C89.4882 2.54715 86.7004 1.88097 86.2468 2.00037C86.093 2.04089 85.2666 1.91725 84.4102 1.72585C83.0884 1.43036 82.7542 1.42448 82.1976 1.68684C81.6883 1.92695 81.4764 1.933 81.2486 1.71381C80.8265 1.30746 78.8755 1.02982 78.4713 1.31863C78.1999 1.5127 78.0769 1.49945 77.816 1.24865C77.587 1.02804 77.4571 0.995559 77.3627 1.13512C77.2787 1.2588 76.4756 1.18529 75.1709 0.934584C74.0384 0.71694 72.4843 0.556051 71.7175 0.577282C70.9507 0.598513 69.9668 0.523921 69.5309 0.411796C69.0951 0.299481 68.5851 0.269491 68.3978 0.344807C68.2104 0.420313 67.8428 0.443538 67.581 0.396438C66.5855 0.217566 65.0944 0.186298 64.5803 0.333445C64.2861 0.417706 63.598 0.394448 63.0516 0.281702C62.5049 0.169099 61.8331 0.123236 61.5586 0.179869C61.2839 0.236643 60.5283 0.242946 59.879 0.193985C59.2297 0.145025 58.684 0.180472 58.6661 0.272936C58.6482 0.365211 58.4391 0.403082 58.2017 0.357004C57.9641 0.31088 57.5107 0.355582 57.1944 0.45639C56.8778 0.55715 56.4567 0.554654 56.2586 0.450716C56.0604 0.346968 55.4299 0.354164 54.8577 0.466832C54.2075 0.594862 53.7738 0.588539 53.7021 0.450161C53.6322 0.315475 53.4637 0.274314 53.2719 0.345419C53.0983 0.409641 51.9916 0.553438 50.8122 0.665041C49.6328 0.776455 48.3663 0.980862 47.9976 1.11889C47.6291 1.25716 47.1795 1.29257 46.9987 1.1979C46.7737 1.08011 46.6442 1.15898 46.5881 1.44812C46.5267 1.76416 46.4391 1.80653 46.2403 1.61597C46.0554 1.43871 45.6641 1.38437 44.9514 1.43715C44.3886 1.47872 43.9005 1.50882 43.8669 1.50387C43.8333 1.49892 43.7667 1.68653 43.7192 1.92053C43.6568 2.22791 43.589 2.26429 43.4754 2.05173C43.3441 1.80604 43.2239 1.7825 42.7505 1.90906C42.4383 1.99258 42.1725 2.1148 42.1597 2.18074C42.147 2.24648 41.661 2.26659 41.0796 2.22529C39.5417 2.11591 37.8473 2.31651 37.7893 2.61493C37.7618 2.75704 37.5808 2.84262 37.3873 2.80508C37.1937 2.7675 36.7014 2.89156 36.2936 3.08058C35.8855 3.26975 35.4678 3.36188 35.3651 3.28533C35.2625 3.20878 34.9533 3.28306 34.6783 3.45047C34.4035 3.61812 33.9294 3.70679 33.625 3.6477C33.2909 3.58285 33.0492 3.65489 33.0154 3.82921C32.9846 3.98799 32.6702 4.14601 32.3169 4.18026C31.9636 4.21451 31.6435 4.39342 31.6056 4.57797C31.5544 4.82637 31.4971 4.83963 31.3844 4.62901C31.263 4.40235 31.0635 4.38347 30.3995 4.53614C29.9413 4.64166 29.5452 4.83432 29.5189 4.9643C29.4929 5.09452 29.2528 5.15841 28.9856 5.10654C28.7183 5.05466 28.4864 5.08042 28.4702 5.16398C28.454 5.24735 27.9125 5.4065 27.2669 5.51772C26.6214 5.62874 26.0764 5.80608 26.0559 5.91162C26.0354 6.01716 25.8547 6.07172 25.6542 6.03281C25.4518 5.99353 25.2571 6.13052 25.2162 6.34102C25.1753 6.55153 24.9806 6.68852 24.7782 6.64923C24.5777 6.61032 24.3972 6.66375 24.3769 6.76796C24.3567 6.87217 24.2036 6.93112 24.0364 6.89886C23.5826 6.81157 21.7387 7.6294 22.1742 7.72495C22.3737 7.7686 22.1334 7.83756 21.6402 7.87809C21.147 7.91841 20.3823 8.12014 19.9407 8.326C19.4991 8.53186 19.0446 8.68213 18.9304 8.65997C18.8162 8.6378 18.6985 8.74531 18.6687 8.89898C18.6388 9.05264 18.2859 9.24209 17.884 9.32C17.4824 9.39796 16.6506 9.76971 16.0357 10.146C15.4208 10.5223 14.7995 10.8074 14.6549 10.7793C14.324 10.7151 12.8556 11.5726 12.7969 11.8644C12.7728 11.9837 12.4018 12.162 11.9727 12.2608C11.5433 12.3593 11.0791 12.6453 10.941 12.8961C10.803 13.147 10.5713 13.3291 10.426 13.3009C9.9993 13.2181 8.60693 13.9747 8.53864 14.3266C8.50414 14.5043 8.30236 14.667 8.09025 14.6882C7.87818 14.7092 7.6771 14.8683 7.64345 15.0417C7.60976 15.2153 7.36407 15.4587 7.09717 15.5829C6.43472 15.8914 5.85495 16.4623 5.77253 16.8869C5.73487 17.0809 5.45525 17.3888 5.15104 17.5714C4.84708 17.754 4.6318 18.0266 4.67268 18.1771C4.71802 18.3436 4.58646 18.4083 4.33691 18.3418C3.70732 18.1744 3.59742 18.5665 4.16906 18.9415C4.4493 19.1253 4.51074 19.2037 4.30537 19.116C3.98388 18.9785 3.02628 19.3449 2.97167 19.6263C2.96137 19.6794 2.59687 20.0219 2.16163 20.3873C1.50555 20.9382 1.4074 21.1231 1.58818 21.4672C1.74469 21.765 1.71901 21.9376 1.49751 22.0772C1.1666 22.2857 1.23063 22.9196 1.58949 22.9893C1.70879 23.0124 1.79146 23.1087 1.77315 23.2031C1.75479 23.2976 1.52979 23.2878 1.27308 23.1815C0.960166 23.0518 0.78828 23.0813 0.751428 23.2712C0.721196 23.4269 0.513521 23.6278 0.290078 23.7178C-0.0654675 23.8609 -0.0676146 23.9525 0.273388 24.4532C0.698618 25.0772 0.687212 25.7634 0.253266 25.6791C0.0567026 25.641 0.0403999 25.7094 0.195176 25.9239C0.313168 26.0875 0.3122 26.3939 0.192906 26.6045C-0.0955824 27.114 0.464378 27.7557 1.16594 27.7198C1.48398 27.7037 1.66274 27.5764 1.61496 27.4004C1.5707 27.2374 1.68091 27.1359 1.86387 27.1715C2.21909 27.2404 2.37554 27.8073 2.13599 28.1582C2.05456 28.2777 1.83296 28.3451 1.64368 28.3084C1.20561 28.2234 1.13506 28.5284 1.54336 28.7421C1.71361 28.8314 2.06487 28.7753 2.32391 28.6176C2.83772 28.3046 3.03942 27.7929 2.67643 27.7224C2.40114 27.669 2.59125 26.8675 2.90261 26.7689C3.02405 26.7303 3.21281 26.5061 3.32186 26.2702C3.43116 26.0345 3.70081 25.8013 3.92086 25.7522C4.14096 25.7029 4.36691 25.4273 4.42274 25.1397C4.48721 24.8075 4.84975 24.4465 5.4157 24.1508C6.0518 23.8183 6.34876 23.499 6.45129 23.037C6.55947 22.5512 6.70165 22.4097 7.02074 22.4712C7.40839 22.5459 7.57973 22.3866 7.48222 22.0421C7.46156 21.9693 7.69041 21.8879 7.99033 21.8612C8.40807 21.8237 8.53011 21.6924 8.51111 21.3006C8.49246 20.9213 8.5877 20.8086 8.87878 20.8651C9.09502 20.9071 9.28821 20.8561 9.30844 20.7519C9.32867 20.6477 9.50922 20.5943 9.70967 20.6332C9.91012 20.6721 10.0919 20.6126 10.1135 20.501C10.1352 20.3892 10.3499 20.1977 10.5905 20.0753C10.8999 19.9179 10.9639 19.7789 10.8086 19.6008C10.4773 19.2205 10.6007 19.0122 11.0657 19.1674C11.307 19.2478 11.5031 19.187 11.5353 19.0214C11.5656 18.8651 11.8189 18.7294 12.0981 18.7199C12.3772 18.7106 12.5976 18.5984 12.5876 18.4709C12.5778 18.3435 12.7146 18.2672 12.8918 18.3016C13.0689 18.336 13.5011 18.2068 13.8524 18.0144C14.448 17.6881 14.4621 17.6527 14.0615 17.488C13.7633 17.3652 13.8314 17.3431 14.2841 17.415C14.7407 17.4877 15.2256 17.3254 15.9019 16.8741C17.3516 15.9063 17.8272 15.7009 18.2741 15.8494C18.5413 15.9382 18.7348 15.8438 18.8405 15.5732C18.9371 15.3251 19.1699 15.1947 19.4272 15.2447C19.6724 15.2923 20.1155 15.0653 20.4712 14.71C20.8109 14.3705 21.1952 14.1013 21.325 14.1119C22.1628 14.1807 22.7946 14.0069 23.1066 13.6217C23.3045 13.3776 23.461 13.1103 23.4545 13.028C23.4483 12.9458 23.5821 12.8918 23.7523 12.9085C23.9223 12.925 24.1748 12.94 24.3132 12.9417C24.4515 12.9433 24.7707 12.9746 25.0226 13.0109C25.3546 13.0591 25.4656 12.9664 25.4267 12.6735C25.3841 12.3525 25.4929 12.2932 25.958 12.3834C26.2794 12.4458 26.5613 12.4001 26.5843 12.2819C26.6384 12.0033 27.8353 11.4506 28.7814 11.2671C29.1883 11.188 29.6113 11.0049 29.7211 10.8601C29.8312 10.7153 30.1368 10.6386 30.4004 10.6897C30.6638 10.7409 30.9443 10.7273 31.0232 10.6596C31.1022 10.5918 30.7068 10.471 30.1447 10.3912C29.2317 10.2614 29.1859 10.2338 29.7161 10.1326C30.1251 10.0545 30.2865 9.90241 30.2352 9.64315C30.1445 9.18297 30.3993 9.2108 30.8813 9.71352C31.2118 10.058 31.305 10.0586 31.9716 9.7195C32.3725 9.51556 32.6831 9.43801 32.6619 9.54696C32.6117 9.80579 33.275 9.93297 33.4361 9.69547C33.5043 9.59467 33.7818 9.52899 34.0526 9.5497C34.3604 9.57308 34.5735 9.44082 34.6208 9.19678C34.7261 8.65431 35.0442 8.54066 35.427 8.90892C35.6425 9.11609 35.7644 9.15037 35.7914 9.0113C35.8137 8.89647 36.1157 8.80193 36.4624 8.80141C36.8092 8.80089 37.116 8.68171 37.1441 8.53676C37.1767 8.3687 37.466 8.32555 37.9412 8.4178C38.6651 8.5583 40.5514 8.11539 41.336 7.62081C41.5423 7.49078 41.7926 7.4452 41.8922 7.51938C41.9917 7.59375 42.4961 7.55933 43.0128 7.44316C43.5298 7.32703 43.9442 7.27535 43.9339 7.32841C43.8958 7.5247 45.6313 7.08651 46.0067 6.80488C46.2208 6.64453 46.4925 6.58539 46.6106 6.67338C46.7288 6.76161 46.9733 6.77624 47.1543 6.70619C47.3351 6.63608 47.9868 6.61433 48.6023 6.65792C49.2179 6.70132 50.1692 6.6105 50.7162 6.45618C51.2631 6.30162 51.9352 6.21875 52.2098 6.27204C52.4841 6.32529 53.1424 6.3068 53.6728 6.23082C54.2031 6.15485 54.7306 6.12846 54.8452 6.17232C54.9597 6.21617 55.3322 6.12058 55.673 5.96003C56.1215 5.74862 56.4589 5.73527 56.8946 5.91186C57.2802 6.06812 57.7168 6.0858 58.1086 5.96111C58.445 5.85399 59.1916 5.85773 59.7674 5.96951C60.4485 6.1017 60.8789 6.08752 60.9994 5.92886C61.1011 5.79483 61.3548 5.66812 61.5633 5.64744C61.7741 5.62643 61.8614 5.67936 61.7598 5.7664C61.6564 5.85524 61.7499 5.90584 61.9761 5.88349C62.1957 5.86162 62.4111 5.70543 62.4548 5.53617C62.4984 5.36691 62.5643 5.32523 62.6009 5.44323C62.68 5.69787 64.6209 5.96392 64.6671 5.72631C64.6845 5.63631 64.8611 5.64777 65.0597 5.7518C65.3634 5.91083 66.2886 5.91798 68.6907 5.77966C69.2165 5.74939 70.0403 5.8279 71.8801 6.08357C72.7423 6.20354 73.5309 6.23216 73.6326 6.1473C73.8085 6.00076 74.43 6.06869 77.2411 6.54179C77.9125 6.65482 78.5506 6.68214 78.6591 6.60253C78.7676 6.52292 79.3341 6.5271 79.9179 6.61192C80.5018 6.69655 81.0455 6.77396 81.1258 6.78366C81.2063 6.79339 81.6197 6.655 82.0442 6.4761C82.6906 6.20381 82.8612 6.20272 83.0934 6.46917C83.2458 6.64405 83.3538 6.87362 83.3333 6.97915C83.2807 7.24991 86.7304 7.67277 87.3732 7.47451C87.745 7.35968 88.0022 7.39566 88.3195 7.60668C88.5696 7.77318 89.1432 7.91186 89.6669 7.93251C90.1686 7.95241 93.2629 8.4618 96.5432 9.06472C99.8236 9.66745 102.756 10.2026 103.059 10.2538C103.363 10.3049 103.893 10.2034 104.238 10.0282L104.864 9.7094L104.859 10.1737C104.854 10.5881 104.948 10.6442 105.734 10.6961C106.218 10.728 106.848 10.6493 107.133 10.521C107.624 10.3003 107.647 10.3082 107.577 10.6713C107.516 10.9831 107.672 11.0934 108.408 11.2606C110.534 11.7437 111.719 11.9104 112.058 11.774C112.326 11.6659 112.501 11.7223 112.737 11.9928C113.131 12.4447 117.651 13.3734 118.011 13.0762C118.152 12.9595 118.21 13.0133 118.171 13.2262C118.106 13.5824 118.791 13.7874 119.723 13.6905C120.056 13.6559 120.306 13.7432 120.431 13.9383C120.538 14.1039 121.272 14.4152 122.062 14.6302C122.852 14.8451 123.82 15.1149 124.213 15.2299C124.606 15.3448 125.01 15.3673 125.112 15.28C125.227 15.1812 125.407 15.2409 125.588 15.4378C125.927 15.8085 127.666 16.2862 127.717 16.0229C127.736 15.9242 128.128 16.0524 128.589 16.308C129.049 16.5635 129.836 16.8211 130.338 16.8803C130.997 16.9581 131.204 17.048 131.085 17.2047C130.939 17.3973 131.406 17.6196 132.026 17.6529C132.143 17.6592 132.883 17.9364 133.672 18.269C134.46 18.6016 135.648 19.0021 136.311 19.1591C136.973 19.3161 137.724 19.5431 137.977 19.6639C138.343 19.8378 138.564 19.7609 139.041 19.2927C139.527 18.8161 139.673 18.7672 139.797 19.0383C139.882 19.223 139.868 19.4457 139.766 19.5332C139.664 19.6208 139.71 19.7174 139.868 19.748C140.084 19.79 140.074 19.8548 139.827 20.0108C139.567 20.1746 139.609 20.2645 140.028 20.4403C140.85 20.7857 140.959 20.7741 140.875 20.3497C140.809 20.0154 140.912 19.979 141.534 20.1142C142.14 20.2459 142.256 20.3532 142.185 20.7191C142.057 21.3751 142.786 22.118 143.556 22.1168C143.906 22.1163 144.573 22.3257 145.065 22.5909C145.721 22.9444 146.027 23.0247 146.263 22.9048C146.498 22.785 146.686 22.8751 146.996 23.257C147.313 23.6473 147.618 23.7897 148.267 23.8517C148.761 23.899 149.18 24.0421 149.262 24.1915C149.339 24.3335 149.764 24.6313 150.207 24.8536C150.885 25.1942 151.061 25.2217 151.329 25.0289C151.571 24.8551 151.704 24.8664 151.887 25.0763C152.019 25.228 152.107 25.4533 152.083 25.5775C152.02 25.9007 153.894 26.981 155.21 27.3807C155.827 27.5678 156.525 27.878 156.761 28.07C156.997 28.2619 157.35 28.45 157.546 28.4879C157.741 28.5258 158.363 28.8447 158.928 29.1966C159.58 29.6029 160.407 29.9248 161.192 30.0785C162.139 30.2639 162.411 30.3863 162.351 30.6004C162.303 30.7728 162.526 30.9532 162.93 31.0698C163.291 31.1741 163.573 31.3298 163.556 31.4158C163.515 31.6298 165.228 32.5351 165.934 32.6721C166.249 32.7332 166.618 32.9376 166.754 33.1262C167.023 33.5002 167.893 33.7525 167.947 33.4725C167.966 33.377 167.853 33.2294 167.696 33.1443C167.52 33.0493 167.57 33.0147 167.825 33.0547C168.053 33.0905 168.385 33.415 168.562 33.776C168.739 34.137 169.031 34.4176 169.211 34.3997C169.391 34.3819 169.524 34.4413 169.507 34.5319C169.489 34.6226 169.879 34.766 170.373 34.8507C170.877 34.9369 171.295 35.113 171.325 35.2515C171.354 35.3871 171.519 35.5258 171.692 35.5594C171.865 35.593 172.118 35.7747 172.254 35.9634C172.39 36.152 172.707 36.3461 172.958 36.3948C173.209 36.4435 173.609 36.7068 173.847 36.9798C174.125 37.2998 174.489 37.4855 174.871 37.5021C175.196 37.5163 175.495 37.632 175.534 37.7589C175.581 37.9136 175.697 37.9195 175.887 37.7767C176.125 37.5967 176.185 37.6083 176.27 37.8511C176.347 38.0719 176.413 38.0905 176.557 37.9308C176.7 37.7711 176.813 37.8025 177.042 38.0657C177.207 38.2543 177.538 38.3981 177.779 38.3852C178.115 38.3672 178.133 38.3898 177.852 38.4816C177.545 38.5823 177.534 38.6374 177.785 38.831C177.948 38.9573 178.245 39.1013 178.443 39.1508C178.641 39.2003 178.993 39.2907 179.223 39.3515C179.454 39.4122 179.618 39.5899 179.588 39.7462C179.55 39.9441 179.788 40.08 180.371 40.1932C180.879 40.2917 181.271 40.4891 181.364 40.6933C181.45 40.8787 181.688 41.0838 181.893 41.1487C182.099 41.2136 182.416 41.4096 182.597 41.584C182.779 41.7586 183.146 41.8904 183.413 41.8768C183.7 41.8622 184.001 41.9947 184.149 42.2C184.287 42.3916 184.578 42.5833 184.796 42.6263C185.013 42.6691 185.486 42.9373 185.847 43.2222C186.207 43.5071 186.694 43.7779 186.928 43.8238C187.161 43.8699 187.339 43.9747 187.324 44.0566C187.295 44.2052 187.848 44.3924 188.96 44.6106C189.283 44.6741 189.714 44.8999 189.918 45.1126C190.122 45.3254 190.395 45.4716 190.523 45.4378C190.652 45.4038 190.879 45.5719 191.027 45.8112C191.175 46.0503 191.422 46.2706 191.577 46.3006C191.732 46.3306 191.969 46.5095 192.105 46.6981C192.424 47.1402 193.006 47.2532 193.077 46.8867C193.108 46.7304 193.023 46.5813 192.89 46.5554C192.756 46.5294 192.662 46.4309 192.68 46.3365C192.698 46.2422 192.959 46.3139 193.26 46.496C193.666 46.7414 193.729 46.8765 193.506 47.0168C193.341 47.1212 193.299 47.2338 193.414 47.2673C193.528 47.3006 194.032 47.4359 194.534 47.5677C195.524 47.8274 196.091 48.2471 196.011 48.6598C195.983 48.8034 196.073 48.9429 196.212 48.9697C196.35 48.9966 196.721 49.2201 197.035 49.4664C197.35 49.713 197.768 49.9651 197.964 50.027C198.16 50.0888 198.382 50.2587 198.458 50.4044C198.533 50.5502 198.782 50.6508 199.009 50.6283C199.267 50.6027 199.509 50.7501 199.65 51.0189C199.775 51.2564 200.057 51.4857 200.278 51.5285C200.503 51.5722 200.705 51.827 200.739 52.1097C200.773 52.3865 200.97 52.6459 201.177 52.6861C201.512 52.7512 201.508 52.7831 201.135 52.9728C200.904 53.0902 200.598 53.1636 200.455 53.1358C200.311 53.108 200.177 53.1728 200.157 53.2796C200.135 53.3901 199.828 53.2855 199.445 53.0371C198.961 52.7233 198.634 52.6288 198.283 52.7012C198.014 52.7568 197.731 52.7291 197.653 52.6399C197.575 52.5507 197.39 52.5816 197.242 52.7089C197.008 52.9096 196.961 52.8998 196.889 52.6348C196.82 52.3788 196.244 52.2361 193.328 51.7525C191.415 51.4352 189.686 51.2215 189.486 51.2777C189.253 51.3435 189.066 51.2721 188.962 51.0776C188.833 50.8367 188.79 50.826 188.748 51.0249C188.719 51.1623 188.532 51.3579 188.332 51.4597C188.034 51.6114 187.886 51.5669 187.509 51.2122C187.139 50.8644 186.84 50.771 185.976 50.7348C185.385 50.7099 184.819 50.6773 184.718 50.6623C184.616 50.6474 184.509 50.7632 184.479 50.9195C184.448 51.0758 184.311 51.1818 184.173 51.1551C184.035 51.1283 183.884 50.9663 183.838 50.7951C183.737 50.4254 183.297 50.308 182.855 50.5329C182.485 50.7211 182.906 51.3441 183.436 51.3917C184.17 51.4575 184.378 51.613 184.258 52.0072C183.963 52.977 184.01 53.2772 184.452 53.2333C184.778 53.2008 184.829 53.26 184.664 53.4773C184.534 53.6485 184.566 53.7885 184.742 53.8243C184.905 53.8573 185.274 53.9836 185.562 54.1046C185.948 54.2667 186.103 54.2439 186.146 54.0188C186.214 53.6696 186.541 53.6913 187.131 54.0839C187.453 54.2982 187.579 54.2818 187.736 54.0048C187.845 53.8122 188.061 53.6794 188.217 53.7095C188.388 53.7427 188.409 53.9011 188.272 54.1122C188.093 54.3862 188.136 54.4511 188.473 54.4176C188.709 54.3941 188.965 54.4972 189.042 54.6466C189.12 54.7959 189.577 55.0098 190.059 55.1218C190.751 55.2827 190.949 55.2552 191 54.9905C191.089 54.5334 191.725 54.6901 191.79 55.1853C191.838 55.5467 192.011 55.6091 193.625 55.849C194.837 56.0289 195.599 56.2376 196.004 56.5001C196.511 56.8285 196.706 56.8661 197.299 56.7504C197.682 56.6754 197.984 56.6797 197.968 56.7597C197.953 56.8396 198.275 56.9311 198.685 56.9631C199.095 56.9951 199.452 56.9121 199.477 56.7787C199.548 56.416 200.24 56.4163 200.339 56.7792C200.46 57.2236 200.422 57.2994 200.172 57.1128C200.045 57.018 199.992 57.0916 200.047 57.2901C200.121 57.5622 200.19 57.5875 200.397 57.4175C200.608 57.2438 200.689 57.2654 200.843 57.5367C200.999 57.8115 201.076 57.8311 201.293 57.6522C201.47 57.5068 201.595 57.513 201.678 57.6713C201.745 57.8006 202.152 57.9671 202.583 58.0411C203.014 58.1153 203.472 58.2176 203.6 58.2683C204.087 58.4598 204.26 58.3872 204.041 58.0836C203.859 57.8315 203.931 57.792 204.405 57.8841C204.78 57.9567 205.015 58.138 205.047 58.3773C205.116 58.898 205.555 58.9393 205.783 58.4464L205.971 58.0406L205.922 58.4733C205.854 59.0614 207.048 59.3406 207.16 58.7629C207.201 58.5545 207.333 58.4032 207.454 58.4267C207.575 58.4502 207.592 58.6145 207.492 58.7918C207.27 59.1824 207.787 59.7284 208.405 59.7569C208.652 59.7683 208.999 59.6079 209.175 59.4006C209.352 59.1932 209.606 59.0543 209.739 59.0921C210.353 59.2653 210.556 59.1837 210.802 58.6647C211.012 58.2228 210.967 58.0145 210.588 57.6573C210.158 57.2529 210.151 57.1517 210.514 56.666C210.872 56.1862 210.867 56.0669 210.47 55.6109C210.224 55.3281 210.086 54.9309 210.164 54.7283C210.27 54.4534 210.237 54.4143 210.033 54.5737C209.842 54.7228 209.722 54.7144 209.634 54.5454C209.565 54.4123 209.308 54.2645 209.063 54.2169C208.551 54.1175 208.392 53.7143 208.549 52.9096C208.609 52.5994 208.56 52.3713 208.44 52.403C208.195 52.4673 207.53 51.6631 207.586 51.3721C207.606 51.269 207.474 51.1558 207.292 51.1205C207.071 51.0776 207.029 50.9079 207.167 50.6104C207.324 50.2688 207.208 50.0045 206.668 49.4814C205.344 48.1971 204.786 47.4824 204.979 47.3174C205.239 47.0943 204.657 46.0869 204.219 46.0018C204.006 45.9606 203.944 45.832 204.062 45.6766C204.192 45.5057 204.107 45.388 203.807 45.3259C203.094 45.1776 202.596 44.6079 202.702 44.062C202.791 43.6065 202.75 43.5735 202.264 43.7036C201.793 43.8295 201.667 43.7636 201.222 43.1589C200.944 42.7807 200.61 42.1628 200.48 41.7863C200.216 41.0181 199.932 40.8783 199.488 41.2973C199.053 41.708 198.829 41.313 199.021 40.4742C199.149 39.9178 199.102 39.7572 198.82 39.7851C198.591 39.8079 198.431 39.6597 198.396 39.3919C198.364 39.1554 198.198 38.9346 198.025 38.9012C197.823 38.8619 197.73 39.0002 197.763 39.2927L197.814 39.745L197.388 39.1964C196.806 38.4486 196.716 37.8544 197.164 37.7093C197.431 37.6228 197.383 37.5876 196.983 37.5782C196.592 37.5691 196.488 37.4981 196.618 37.3277C196.717 37.197 196.668 37.0649 196.51 37.0341C196.351 37.0034 195.863 36.5502 195.425 36.0271C194.987 35.504 194.486 35.0634 194.311 35.0479C193.157 34.9448 192.909 34.7641 193.035 34.117C193.14 33.5744 193.083 33.4723 192.676 33.4761C192.347 33.4792 192.09 33.2963 191.871 32.902C191.694 32.5838 191.619 32.2881 191.704 32.2447C191.899 32.1457 191.263 31.4069 190.582 30.9408C190.068 30.5891 189.931 30.5203 189.473 30.3843C189.342 30.3453 189.268 30.1429 189.308 29.9345C189.35 29.7189 189.22 29.5241 189.006 29.4826C188.8 29.4425 188.494 29.1183 188.327 28.762C187.956 27.9718 187.55 27.8565 187.224 28.4485C187.09 28.6928 186.81 28.8598 186.604 28.8196C186.338 28.7681 186.294 28.644 186.454 28.3986C186.624 28.1393 186.585 28.0603 186.304 28.0881C185.69 28.1494 185.478 28.785 185.953 29.1424C186.185 29.3168 186.351 29.5813 186.323 29.7299C186.294 29.8786 186.352 29.9586 186.451 29.908C186.653 29.8057 187.749 31.3793 187.698 31.6978C187.666 31.903 189.174 32.8575 189.689 32.9575C189.844 32.9877 189.998 32.8741 190.031 32.7051C190.08 32.4533 190.148 32.453 190.41 32.7042C190.585 32.8729 190.703 33.1499 190.672 33.3198C190.624 33.5842 190.656 33.595 190.896 33.3942C191.05 33.2651 191.248 33.2419 191.336 33.3428C191.535 33.5706 190.815 33.7813 190.539 33.576C190.354 33.4376 189.848 33.7126 189.786 33.9857C189.772 34.0515 189.969 34.1918 190.225 34.2979C190.481 34.404 190.737 34.6632 190.794 34.8738C190.956 35.469 191.71 36.1126 192.29 36.1508C192.697 36.1776 192.774 36.2593 192.632 36.5106C192.531 36.6893 192.349 36.8164 192.228 36.7928C192.107 36.7694 192.149 37.004 192.321 37.3143C192.515 37.6633 192.712 37.8116 192.839 37.703C193.214 37.3817 193.782 37.903 193.74 38.5285C193.702 39.0856 193.782 39.1646 194.599 39.3786C195.43 39.5962 195.472 39.6406 195.15 39.9577C194.849 40.2537 194.863 40.295 195.248 40.2568C195.589 40.223 195.652 40.2875 195.514 40.5304C195.292 40.922 195.783 41.4893 196.299 41.4379C196.547 41.4133 196.729 41.5857 196.822 41.9321C197.001 42.5997 196.717 42.882 196.285 42.466C196.109 42.297 195.623 42.0795 195.203 41.9826C193.967 41.6969 193.843 41.6409 193.892 41.3908C193.936 41.1623 192.476 40.3801 191.737 40.2367C191.541 40.1986 191.316 40.0266 191.237 39.8545C191.154 39.673 190.613 39.4143 189.951 39.2391C189.322 39.0729 188.752 38.8723 188.683 38.7935C188.615 38.7149 188.355 38.6925 188.107 38.7439C187.725 38.8226 187.686 38.7681 187.859 38.394C187.982 38.1266 187.95 37.9286 187.778 37.8952C187.621 37.8647 187.543 37.9381 187.605 38.0583C187.906 38.637 187.026 38.0681 186.068 37.0647C185.787 36.7701 184.133 36.0195 183.603 35.9465C182.392 35.7793 181.671 35.508 181.723 35.2393C181.754 35.0796 181.599 34.859 181.377 34.749C181.156 34.6388 180.832 34.4099 180.657 34.2401C180.482 34.0704 180.016 33.8402 179.621 33.7287C179.227 33.6171 178.568 33.3009 178.158 33.026C177.747 32.7511 177.193 32.5371 176.926 32.5506C176.657 32.5645 176.459 32.4859 176.481 32.3731C176.502 32.2619 176.247 32.1179 175.913 32.053C175.579 31.9882 175.323 31.8448 175.344 31.7345C175.366 31.6242 175.263 31.5655 175.116 31.6042C174.968 31.6429 174.565 31.4372 174.22 31.147C173.874 30.8568 173.472 30.5962 173.326 30.5678C173.179 30.5394 173.076 30.4309 173.096 30.3267C173.116 30.2225 172.882 30.0884 172.574 30.0287C172.267 29.9691 171.926 29.8241 171.817 29.7064C171.708 29.5889 170.737 29.0952 169.658 28.6092C168.103 27.9087 167.613 27.7583 167.292 27.883C166.97 28.0084 166.937 27.9969 167.131 27.8264C167.418 27.5734 166.749 26.7628 166.276 26.7924C166.104 26.803 165.629 26.5628 165.221 26.2584C164.813 25.9539 164.176 25.646 163.806 25.5741C163.435 25.5022 163.035 25.2934 162.917 25.1104C162.799 24.9272 162.489 24.7035 162.229 24.6132C161.969 24.5228 161.602 24.3692 161.413 24.2717C160.253 23.6738 159.533 23.4113 159.064 23.4157C158.727 23.4191 158.442 23.2811 158.292 23.0426C158.16 22.8334 157.705 22.5886 157.275 22.495C156.847 22.4021 156.512 22.2445 156.531 22.145C156.551 22.0456 156.405 21.98 156.209 21.9997C156.012 22.0191 155.646 21.8152 155.395 21.5463C155.069 21.1962 154.738 21.0498 154.23 21.031C153.757 21.0135 153.495 20.9108 153.444 20.7223C153.401 20.5668 152.594 20.1431 151.65 19.7807C150.705 19.4184 149.708 18.9473 149.434 18.7337C149.159 18.5202 148.833 18.3723 148.708 18.405C148.584 18.4378 148.171 18.2681 147.79 18.0278C147.112 17.6001 145.723 17.3354 144.773 17.4527C144.41 17.4975 144.34 17.4113 144.417 17.0146C144.477 16.7017 144.379 16.4947 144.148 16.4499C143.948 16.4109 143.797 16.3077 143.814 16.2203C143.831 16.133 143.452 15.9733 142.972 15.8652C142.491 15.7572 141.973 15.5482 141.819 15.4004C141.499 15.093 140.296 14.6731 139.25 14.5043C138.857 14.4408 138.477 14.2754 138.405 14.1367C138.333 13.9979 137.695 13.7329 136.987 13.5477C135.112 13.0571 134.795 13.0002 134.143 13.0366C133.68 13.0623 133.544 12.9845 133.502 12.6715C133.448 12.2638 133.43 12.2575 130.357 11.5138C129.113 11.213 128.529 10.9972 128.325 10.7627C128.246 10.6721 127.675 10.4997 127.056 10.3795C126.437 10.2593 125.842 10.0605 125.734 9.93752C125.573 9.75408 124.047 9.37649 122.017 9.01807C121.816 8.98257 121.177 8.76618 120.597 8.53728C119.032 7.91889 117.67 7.59075 117.289 7.74011C117.099 7.81424 116.776 7.76914 116.552 7.63728C116.019 7.3229 111.438 6.36636 111.4 6.56133C111.384 6.64584 111.089 6.53748 110.745 6.32052C110.358 6.07654 109.517 5.82802 108.539 5.66893C106.904 5.4031 106.21 5.44204 106.391 5.78985C106.448 5.90025 106.335 5.90707 106.14 5.80483C105.944 5.70241 105.801 5.53212 105.822 5.42639C105.843 5.31536 105.685 5.30379 105.449 5.39904C105.115 5.53311 105.049 5.51152 105.093 5.28301C105.138 5.05204 104.792 4.94515 103.153 4.68368C102.056 4.50868 101.099 4.39599 101.025 4.43309C100.952 4.47042 100.729 4.3989 100.529 4.2745C100.328 4.15006 99.7674 4.02728 99.2823 4.00173ZM184.696 25.4451C184.52 25.4593 184.336 25.7433 184.288 26.0762C184.228 26.4833 184.263 26.565 184.392 26.326C184.499 26.1303 184.72 25.8836 184.884 25.7776C185.232 25.5526 185.151 25.4087 184.696 25.4451ZM117.492 12.8486C117.471 12.9528 117.339 13.0156 117.197 12.9881C117.056 12.9607 117.024 12.866 117.127 12.7778C117.23 12.6897 117.362 12.6268 117.421 12.6383C117.48 12.6498 117.512 12.7444 117.492 12.8486ZM185.666 26.6159C185.594 26.9869 185.939 27.5109 186.301 27.5811C186.415 27.6034 186.445 27.4986 186.365 27.3479C186.286 27.1974 186.242 26.9531 186.267 26.805C186.337 26.3921 185.746 26.2061 185.666 26.6159ZM74.4935 5.40761C74.4006 5.45486 74.1896 5.42098 74.025 5.33222C73.8429 5.23414 73.9092 5.20041 74.194 5.24626C74.4517 5.28782 74.5864 5.36036 74.4935 5.40761ZM184.938 27.1201C184.835 27.2082 184.922 27.3135 185.13 27.3539C185.338 27.3943 185.525 27.3422 185.546 27.238C185.566 27.1338 185.48 27.0285 185.354 27.0041C185.228 26.9797 185.041 27.0319 184.938 27.1201ZM70.265 5.46275C70.2459 5.5609 70.121 5.61982 69.9874 5.59389C69.8538 5.56795 69.7702 5.41371 69.8018 5.25133C69.8333 5.08895 69.9582 5.02984 70.0793 5.1202C70.2005 5.21056 70.284 5.3646 70.265 5.46275ZM57.8594 3.12987C57.8505 3.17591 57.7236 3.24487 57.5775 3.28336C57.4313 3.32184 57.3293 3.26291 57.3507 3.15264C57.3721 3.04236 57.499 2.97321 57.6327 2.99914C57.7663 3.02508 57.8683 3.08382 57.8594 3.12987ZM56.9306 4.87816C56.838 4.99546 56.8035 4.87808 56.8541 4.61755C56.9047 4.35702 56.9805 4.26124 57.0225 4.40448C57.0648 4.54795 57.0234 4.76111 56.9306 4.87816ZM53.812 5.7966C53.7918 5.90081 53.584 5.94758 53.3506 5.9007C52.9876 5.82768 52.9841 5.7987 53.3261 5.70227C53.8294 5.56011 53.8569 5.56544 53.812 5.7966ZM163.885 28.5919C163.43 28.8233 163.26 28.4911 163.706 28.2412C163.916 28.1233 164.111 28.1188 164.139 28.2314C164.168 28.344 164.053 28.5061 163.885 28.5919ZM49.0964 6.06095C49.1588 6.1812 49.0939 6.25707 48.9525 6.22963C48.8111 6.20218 48.7117 6.09442 48.7319 5.99021C48.7522 5.886 48.8168 5.81007 48.8759 5.82153C48.9349 5.83299 49.034 5.9407 49.0964 6.06095ZM191.809 35.2369C191.779 35.3932 191.644 35.4999 191.511 35.4739C191.377 35.448 191.293 35.2989 191.323 35.1426C191.353 34.9863 191.487 34.8796 191.621 34.9055C191.755 34.9315 191.839 35.0806 191.809 35.2369ZM198.727 43.7563C198.707 43.8605 198.643 43.9364 198.584 43.9249C198.525 43.9135 198.425 43.8058 198.363 43.6855C198.301 43.5653 198.366 43.4894 198.507 43.5168C198.648 43.5443 198.748 43.6521 198.727 43.7563ZM195.655 53.089C195.625 53.2453 195.491 53.352 195.357 53.326C195.224 53.3001 195.139 53.151 195.169 52.9946C195.2 52.8383 195.334 52.7316 195.468 52.7576C195.601 52.7835 195.686 52.9326 195.655 53.089ZM10.4402 17.5192C10.4312 17.5653 10.3044 17.6342 10.1583 17.6727C10.0121 17.7112 9.91009 17.6523 9.9315 17.542C9.9529 17.4317 10.0798 17.3626 10.2134 17.3885C10.3471 17.4145 10.4491 17.4732 10.4402 17.5192ZM197.003 53.9404C196.972 54.0967 196.838 54.2034 196.705 54.1774C196.571 54.1515 196.434 54.2724 196.4 54.4461C196.367 54.6197 196.282 54.6957 196.211 54.6151C196.026 54.4021 196.538 53.5553 196.82 53.6099C196.951 53.6353 197.033 53.784 197.003 53.9404ZM188.101 53.0925C187.567 53.233 187.295 52.977 187.722 52.7348C187.947 52.6065 188.147 52.6168 188.279 52.7631C188.414 52.913 188.353 53.0261 188.101 53.0925ZM190.311 53.2064C190.55 53.5377 190.266 54.1074 189.898 54.0358C189.779 54.0127 189.706 53.8658 189.736 53.7095C189.766 53.5532 189.614 53.3909 189.397 53.3488C189.074 53.2861 189.067 53.2315 189.36 53.0468C189.804 52.7673 190.021 52.8038 190.311 53.2064ZM206.127 56.4521C205.851 56.5912 205.828 56.564 206.012 56.3196C206.139 56.1505 206.296 56.0717 206.359 56.1446C206.423 56.2173 206.318 56.3557 206.127 56.4521ZM185.626 52.7642C185.533 53.21 185.491 53.2296 185.333 52.9024C185.232 52.6927 185.233 52.4496 185.334 52.362C185.647 52.0938 185.739 52.2208 185.626 52.7642ZM193.323 54.7123C193.282 54.9268 193.148 55.0286 193.027 54.9382C192.906 54.8478 192.831 54.6512 192.86 54.5009C192.889 54.3507 193.022 54.2491 193.156 54.275C193.29 54.301 193.365 54.4979 193.323 54.7123ZM198.859 56.0701C198.828 56.2264 198.643 56.3231 198.446 56.285C198.229 56.2429 198.166 56.1154 198.285 55.9587C198.392 55.8173 198.577 55.7206 198.697 55.7438C198.816 55.7669 198.889 55.9138 198.859 56.0701ZM5.50711 19.5272C5.30718 19.6532 5.10123 19.7076 5.04923 19.6481C4.90637 19.484 5.31849 19.191 5.612 19.248C5.77333 19.2793 5.73375 19.3844 5.50711 19.5272ZM7.40753 21.4527C7.39859 21.4988 7.27175 21.5677 7.12561 21.6062C6.97947 21.6447 6.87746 21.5858 6.89886 21.4755C6.92027 21.3652 7.04715 21.2961 7.18078 21.322C7.31441 21.3479 7.41647 21.4067 7.40753 21.4527Z" fill="#FCCE00"/>
</svg>
