<svg width="391" height="17" viewBox="0 0 391 17" fill="none" xmlns="http://www.w3.org/2000/svg">
<path fill-rule="evenodd" clip-rule="evenodd" d="M279.256 0.478521C279.129 0.531121 273.721 0.61209 267.238 0.658535C260.756 0.704793 253.188 0.794582 250.421 0.85769C243.014 1.02659 241.268 1.0342 240.736 0.89987C240.473 0.833173 240.15 0.823686 240.017 0.878746C239.705 1.0076 234.884 1.13723 225.813 1.26065C221.836 1.31489 218.422 1.4003 218.226 1.45075C218.029 1.5012 216.034 1.60024 213.794 1.67082C211.553 1.74141 209.655 1.87065 209.575 1.95805C209.495 2.04545 208.981 2.05172 208.431 1.97189C207.539 1.84246 206.361 1.83053 203.903 1.92652C203.354 1.94792 203.209 2.05634 203.42 2.28655C203.703 2.59336 203.667 2.59286 202.896 2.27888C202.215 2.00209 201.607 1.96345 199.491 2.06211C198.074 2.12822 195.937 2.17357 194.742 2.1628C193.401 2.15074 192.57 2.22479 192.57 2.35618C192.57 2.49887 192.08 2.52432 191.084 2.43369C190.266 2.35919 189.391 2.3072 189.14 2.31834C188.888 2.32928 187.139 2.35763 185.253 2.3813C183.366 2.40496 181.634 2.46797 181.405 2.52092C180.899 2.63782 179.499 2.69843 173.82 2.84919C171.43 2.91265 168.858 2.99959 168.103 3.04204C164.816 3.22773 161 3.36805 157.814 3.42031C155.927 3.45133 153.252 3.57669 151.869 3.69872C149.298 3.92571 143.732 4.14208 140.932 4.12381C140.074 4.11817 139.202 4.22357 138.996 4.35791C138.692 4.5565 138.62 4.55586 138.614 4.35493C138.607 4.12308 137.535 4.13417 134.034 4.40181C131.405 4.60306 128.882 4.7444 126.717 4.81204C125.334 4.85547 123.07 4.93928 121.687 4.99855C120.303 5.058 117.834 5.14515 116.199 5.19236C114.564 5.23958 113.226 5.28991 113.226 5.30405C113.226 5.33176 112.531 5.4071 110.773 5.57006C110.178 5.62527 108.12 5.72686 106.2 5.79601C102.437 5.93135 100.879 6.00804 100.879 6.0578C100.879 6.07514 99.6447 6.13041 98.1356 6.18063C93.7509 6.32674 91.8992 6.42085 89.2182 6.63349C87.8349 6.74327 85.5713 6.88571 84.188 6.95007C82.8046 7.01461 80.8634 7.1049 79.8738 7.15092C78.8846 7.19694 77.8754 7.31726 77.6318 7.41811C77.3457 7.53656 76.8893 7.53595 76.344 7.41653C75.7918 7.29562 75.2091 7.29596 74.6637 7.41707C74.2042 7.51919 72.7121 7.62273 71.3484 7.64709C69.9842 7.67146 68.3539 7.77182 67.7252 7.86987C67.0965 7.96811 65.8619 8.07239 64.9816 8.10184C61.2169 8.2272 57.8559 8.45673 57.3626 8.62206C57.0299 8.73379 56.7289 8.7318 56.5563 8.61671C56.3773 8.49805 55.759 8.49863 54.8006 8.61831C53.9863 8.72004 52.212 8.84607 50.857 8.89832C49.5015 8.95038 48.2115 9.03966 47.9893 9.09674C47.7676 9.15363 46.7154 9.23783 45.6517 9.28397C42.9403 9.40165 41.2612 9.51944 39.1445 9.74044C38.1385 9.84549 36.9554 9.88653 36.5149 9.83161C36.0744 9.77669 35.7141 9.801 35.7137 9.88582C35.713 9.97046 35.1185 10.0492 34.3919 10.0609C33.6656 10.0724 32.6884 10.1474 32.2211 10.2275C31.7534 10.3076 30.3024 10.393 28.9963 10.4171C27.6906 10.4412 26.3435 10.5565 26.0029 10.6736C25.6624 10.7908 24.982 10.8915 24.4904 10.898C21.6335 10.9344 19.1732 11.0825 18.6773 11.2478C18.3651 11.3521 17.4406 11.4974 16.6234 11.5707C15.8058 11.644 15.1364 11.7609 15.1356 11.8303C15.1344 11.8999 14.4659 11.9774 13.6495 12.0026C11.1375 12.0802 10.33 12.1929 10.4763 12.4451C10.5786 12.6213 10.4542 12.6336 10.019 12.4899C9.18396 12.2141 6.7032 12.4096 5.59025 12.8391C5.07788 13.0367 4.32581 13.1988 3.91878 13.1994C2.91767 13.201 0.355501 14.2753 0.977725 14.4327C1.24217 14.4997 1.33443 14.7164 1.18245 14.9143C0.877105 15.312 1.37131 15.7883 1.82322 15.532C1.98041 15.443 2.57192 15.2626 3.13745 15.1313C4.04448 14.9206 4.16615 14.9346 4.16664 15.249C4.16695 15.4494 4.57612 15.6489 5.10078 15.7047C5.88707 15.7883 5.98487 15.7395 5.71999 15.3966C5.54677 15.1726 5.0748 14.8772 4.67075 14.7402C4.02831 14.522 4.07951 14.5038 5.0803 14.5948C5.70923 14.6519 6.37153 14.6997 6.55264 14.7007C6.73329 14.7019 6.76276 14.8303 6.61848 14.986C6.47375 15.1417 6.58325 15.2688 6.86177 15.2684C7.14029 15.268 7.36791 15.1854 7.36776 15.0849C7.3676 14.9847 7.69684 14.954 8.09985 15.0171C8.50241 15.0802 9.01406 15.013 9.2361 14.8681C9.56505 14.6533 9.64099 14.6618 9.64732 14.914C9.65125 15.0844 10.0151 15.2857 10.4552 15.3614C11.6565 15.568 15.0993 15.5054 15.8014 15.2639C16.2662 15.1041 16.5983 15.126 17.1525 15.3536C17.7456 15.597 17.8873 15.6038 17.887 15.3881C17.8868 15.2413 18.2797 14.9737 18.7605 14.7937C19.6102 14.4752 19.6235 14.4855 19.2514 15.1679C18.9645 15.6948 19.0349 15.9375 19.5337 16.1424C20.4256 16.5084 21.5453 16.3019 21.5532 15.7698C21.5577 15.4753 21.6775 15.416 21.9325 15.5813C22.1495 15.7216 22.6448 15.7685 23.1153 15.6933C23.5607 15.6221 24.0615 15.6545 24.2281 15.7653C24.5715 15.9938 27.9488 15.6321 27.9484 15.3668C27.9483 15.2824 27.764 15.2606 27.539 15.3183C27.3137 15.3761 27.0099 15.2948 26.8628 15.1376C26.6457 14.905 26.7636 14.8888 27.5011 15.0501C27.9984 15.159 28.4055 15.1897 28.4054 15.1181C28.4053 15.0466 28.817 15.141 29.3204 15.3278C30.1436 15.6334 30.2355 15.636 30.2351 15.3556C30.2348 15.184 30.5433 15.0431 30.9206 15.0425C31.2979 15.0419 32.0536 14.8564 32.6002 14.6301C33.2447 14.3633 33.4966 14.3234 33.3176 14.5165C32.9241 14.9401 33.4269 15.0694 34.2084 14.7456C35.0777 14.3859 35.7217 14.3953 35.7222 14.768C35.7225 14.9321 35.9801 15.0285 36.2942 14.982C36.6088 14.9355 36.8115 14.7048 36.7453 14.4695C36.6391 14.0904 36.7122 14.0711 37.3853 14.3002C38.0721 14.5338 38.1247 14.5001 37.9281 13.9517C37.7545 13.4659 37.8312 13.3854 38.3121 13.5493C38.674 13.6723 38.803 13.9357 38.6355 14.2113C38.3769 14.6372 38.4711 14.6655 39.999 14.6207C41.65 14.5723 42.2962 14.2978 41.8596 13.8305C41.73 13.6917 41.9236 13.4754 42.2897 13.3495C42.8414 13.1599 43.0071 13.2187 43.2621 13.6948C43.496 14.1329 43.8196 14.2685 44.6268 14.2672C45.76 14.2655 46.4335 13.8543 45.7576 13.5769C45.5155 13.4776 45.7371 13.3074 46.298 13.1621C46.8205 13.0267 47.1123 13.0072 46.9455 13.1187C46.7678 13.2375 47.0217 13.321 47.5568 13.3202C48.0599 13.3194 48.5985 13.2338 48.7538 13.1298C49.3268 12.7463 49.9065 12.9526 49.6132 13.4358C49.3851 13.8114 49.4667 13.9108 49.9481 13.8448C50.2979 13.797 50.6474 13.5371 50.7247 13.2674C50.8667 12.7737 51.9863 12.2272 52.459 12.4212C52.599 12.4784 52.3648 12.7455 51.939 13.0142C51.4735 13.3083 51.3677 13.5028 51.6745 13.5023C51.9549 13.5019 52.1844 13.4348 52.1842 13.3532C52.1841 13.2715 52.8165 13.1838 53.5889 13.1583C54.4509 13.13 54.8827 13.1867 54.7055 13.3051C54.2637 13.6008 55.2011 13.533 55.8203 13.2242C56.1206 13.0745 56.6395 12.9947 56.973 13.047C57.3065 13.099 57.6979 13.0624 57.8432 12.9653C57.988 12.8684 58.6022 12.8271 59.2077 12.8738C59.8133 12.9206 60.4476 12.8659 60.6175 12.7521C61.0141 12.4867 64.0737 12.4761 64.0741 12.7402C64.0742 12.8499 64.302 12.8814 64.5805 12.8101C64.9421 12.7173 64.9278 12.6403 64.5311 12.5398C63.7643 12.3457 64.6361 12.1385 66.9756 11.9587C68.2967 11.8569 68.9827 11.8907 69.4445 12.0802C70.3382 12.4469 71.0919 12.4068 70.7286 12.0118C70.451 11.7097 70.4871 11.7074 71.1658 11.9827C72.027 12.332 73.6765 12.2506 74.9156 11.7978C76.0849 11.3705 77.0593 11.2987 76.7196 11.6649C76.5713 11.825 76.6492 11.9555 76.8925 11.9551C77.1363 11.9548 77.3355 11.8602 77.3353 11.745C77.3351 11.6076 77.8866 11.5774 78.9359 11.6568C80.3259 11.7621 80.5367 11.7291 80.5362 11.4062C80.5356 11.0151 82.7642 10.156 83.2342 10.3662C83.3844 10.4335 83.2505 10.5268 82.9359 10.5735C82.6218 10.6203 82.3646 10.8132 82.3649 11.0023C82.3656 11.4679 83.9455 11.2914 84.5168 10.762L84.9433 10.3668L85.8741 10.7487C86.7125 11.0928 86.9256 11.1045 88.0147 10.8676C89.0721 10.6377 89.2244 10.6408 89.2248 10.8932C89.2251 11.0563 89.6232 11.1814 90.1399 11.1806C90.643 11.1798 91.0545 11.0943 91.0543 10.9907C91.0542 10.887 91.5685 10.8014 92.1974 10.8004C92.8262 10.7994 93.3406 10.7047 93.3404 10.5899C93.3402 10.4751 93.6232 10.4257 93.9695 10.4798C94.3487 10.5392 94.5755 10.4612 94.5409 10.2833C94.5059 10.1046 94.8903 9.97358 95.5145 9.95113C96.463 9.91704 96.495 9.94621 95.9139 10.3128C95.3309 10.6809 95.3661 10.7101 96.3658 10.6906C96.9622 10.6788 97.5868 10.6126 97.7541 10.5435C97.9214 10.4742 98.3115 10.5038 98.6208 10.6091C99.3781 10.8669 101.693 10.433 101.375 10.0928C101.094 9.79129 101.657 9.76534 102.346 10.0482C102.704 10.195 103.107 10.1953 103.764 10.0493C104.478 9.89065 104.739 9.90721 104.942 10.1242C105.085 10.2776 105.582 10.4026 106.046 10.4019C107.238 10.4 109.533 9.36235 109.181 8.98477C109.004 8.79503 109.082 8.72799 109.39 8.80593C109.66 8.8745 109.775 9.09883 109.645 9.30468C109.362 9.75187 109.723 10.2077 110.359 10.2067C110.611 10.2063 110.698 10.0789 110.553 9.92363C110.257 9.60722 111.404 9.52288 111.861 9.82735C112.017 9.93078 112.492 10.0081 112.918 9.99931C113.394 9.98934 113.471 9.94699 113.119 9.88911C112.805 9.83719 112.562 9.61099 112.579 9.38646C112.609 8.99094 112.623 8.98979 113.004 9.35432C113.221 9.56134 113.412 9.61966 113.43 9.48392C113.447 9.34817 113.667 9.2892 113.919 9.3529C114.17 9.4166 114.382 9.35765 114.39 9.22192C114.399 9.07261 114.677 9.12326 115.095 9.35013C115.687 9.67193 115.846 9.68506 116.219 9.44264C116.457 9.28732 116.563 9.05851 116.452 8.93446C116.336 8.80438 116.517 8.75038 116.879 8.80693C117.625 8.92396 118.142 9.40497 117.781 9.64662C117.445 9.87183 118.141 9.8634 119.653 9.62411C120.456 9.49695 120.783 9.33565 120.611 9.15137C120.467 8.99759 120.549 8.87136 120.792 8.87098C121.036 8.8706 121.235 8.94984 121.236 9.0471C121.236 9.43447 123.184 9.14003 123.598 8.69C123.948 8.30887 124.111 8.27148 124.452 8.4947C124.683 8.64628 124.756 8.92533 124.614 9.11462C124.387 9.41544 124.547 9.44328 125.882 9.33433C126.723 9.26573 127.774 9.21037 128.22 9.211C128.666 9.21181 128.911 9.13283 128.765 9.0356C128.618 8.93856 128.802 8.85854 129.174 8.85796C129.545 8.85739 129.935 8.96272 130.041 9.09224C130.192 9.2758 130.401 9.27057 130.992 9.06853C131.408 8.92613 132.166 8.8537 132.674 8.90776C133.183 8.96182 133.892 8.88532 134.248 8.73755C134.646 8.57275 135.005 8.54128 135.177 8.65581C135.56 8.90988 137.644 8.81673 138.241 8.5191C138.608 8.33587 138.487 8.278 137.738 8.27917C136.852 8.28054 136.809 8.23763 137.319 7.85569C137.809 7.4883 137.909 7.47532 138.055 7.7603C138.147 7.94168 138.605 8.08932 139.071 8.0886C139.538 8.08787 140.192 8.19864 140.525 8.33478C140.859 8.47168 142.359 8.60074 143.884 8.62382C146.246 8.65955 146.826 8.59889 147.953 8.19752C149.156 7.76964 150.843 7.69125 150.245 8.09104C150.107 8.184 150.194 8.25983 150.439 8.25945C150.684 8.25907 150.989 8.15247 151.116 8.02277C151.3 7.83398 151.353 7.8339 151.382 8.02236C151.439 8.3906 154.492 8.31404 155.01 7.93133C155.365 7.66952 155.573 7.65299 156.131 7.84326C156.681 8.03015 156.865 8.02798 157.056 7.83296C157.221 7.66306 157.408 7.6507 157.672 7.79242C157.879 7.90426 158.77 7.9877 159.65 7.97785C161.003 7.96274 161.231 7.89868 161.119 7.56483C161.047 7.3476 161.316 7.0567 161.719 6.91828C162.365 6.69636 162.416 6.72342 162.156 7.15097C161.989 7.42663 162.075 7.68888 162.357 7.76027C162.629 7.82902 162.851 7.79267 162.851 7.67939C162.851 7.5595 163.377 7.50817 164.109 7.55661C164.8 7.60228 165.367 7.6538 165.367 7.67077C165.367 7.68773 165.959 7.74072 166.684 7.78823C167.847 7.86447 167.971 7.82733 167.745 7.47104C167.506 7.09629 167.545 7.08888 168.292 7.36613C169.295 7.73818 170.169 7.75002 170.168 7.39168C170.168 7.2422 170.408 7.05842 170.703 6.98294C171.063 6.89077 171.142 6.9487 170.946 7.15994C170.731 7.39119 170.907 7.47367 171.611 7.47257C172.37 7.47139 172.46 7.41791 172.045 7.21271C171.625 7.00507 171.749 6.95398 172.674 6.95255C173.347 6.9515 173.826 7.05858 173.827 7.20994C173.827 7.55716 174.577 7.5396 174.907 7.1847C175.051 7.02897 175.433 6.90792 175.756 6.91553C176.214 6.9265 176.218 6.95025 175.77 7.0254C175.456 7.07829 175.199 7.20216 175.199 7.30093C175.199 7.40687 175.573 7.39724 176.113 7.27708C176.616 7.16527 177.028 7.14315 177.028 7.22797C177.029 7.59121 179.548 7.43178 180.986 6.97753C182.453 6.51342 182.515 6.50956 182.516 6.88053C182.516 7.36704 184.103 7.40454 184.766 6.93377C185.024 6.75034 185.238 6.70797 185.246 6.83878C185.254 6.97543 185.856 7.07345 186.681 7.07217C187.661 7.07065 188.031 6.99373 187.873 6.82471C187.575 6.50641 190.759 6.39214 191.229 6.70432C191.411 6.82524 191.799 6.86329 192.091 6.78838C192.478 6.68919 192.485 6.58512 192.119 6.40398C191.819 6.25534 191.789 6.11156 192.044 6.04594C192.279 5.98564 192.585 6.11466 192.723 6.33235L192.976 6.72819L194.332 6.32778C195.92 5.85896 196.43 5.82104 196.081 6.19707C195.942 6.3462 196.075 6.50886 196.375 6.55873C196.676 6.60878 196.52 6.6569 196.03 6.66577C195.486 6.67566 195.308 6.74756 195.573 6.8497C195.812 6.94188 196.67 6.97372 197.479 6.92044C198.651 6.84322 198.931 6.74119 198.851 6.4201C198.791 6.18193 198.984 6.03555 199.322 6.06292C199.636 6.08844 199.896 6.00322 199.9 5.87352C199.905 5.71649 200.055 5.73191 200.35 5.91995C200.594 6.07508 200.8 6.11717 200.808 6.01349C200.815 5.9098 200.995 5.93723 201.206 6.07432C201.418 6.21141 202.441 6.36929 203.48 6.42498C205.077 6.51091 205.514 6.45707 206.313 6.07657C207.169 5.66921 207.234 5.66289 207.006 6.01065C206.819 6.29671 206.988 6.40464 207.669 6.43375C209.105 6.49485 210.076 6.48882 211.556 6.4098C212.31 6.36942 213.545 6.31944 214.3 6.29885C215.551 6.26449 215.6 6.23896 214.86 6.00882C214.092 5.77005 214.099 5.75101 214.974 5.65521C215.571 5.59 215.899 5.64585 215.9 5.81324C215.9 5.96234 216.182 6.0275 216.564 5.9664C216.929 5.90815 217.479 5.92389 217.786 6.00145C218.093 6.0792 219.183 6.12501 220.209 6.10344C221.235 6.08186 223.051 6.04379 224.246 6.01894C225.625 5.99022 226.419 5.88758 226.418 5.7381C226.418 5.59446 227.043 5.5015 228.019 5.49999C228.899 5.49862 229.619 5.58742 229.62 5.69712C229.62 5.80683 229.835 5.84175 230.097 5.77442C230.36 5.7071 230.87 5.75267 231.231 5.87558C231.685 6.0302 232.278 6.04436 233.155 5.92123C233.852 5.82345 235.216 5.77665 236.186 5.81718C237.43 5.86916 237.855 5.82741 237.626 5.67564C237.427 5.54344 237.575 5.48289 238.009 5.51897C238.397 5.55117 239.046 5.40747 239.45 5.19949C240.174 4.82664 240.181 4.8272 239.902 5.24591C239.7 5.55028 239.815 5.67017 240.309 5.6694C240.689 5.66882 241.135 5.57745 241.301 5.46655C241.466 5.35545 241.89 5.30974 242.242 5.3648C242.598 5.42042 242.882 5.3508 242.882 5.20848C242.881 4.72216 244.229 4.71874 245.001 5.20312C245.619 5.59066 246.07 5.66498 247.568 5.62628C248.59 5.59981 249.488 5.46741 249.622 5.32337C249.753 5.18255 250.168 5.11574 250.545 5.17472C250.922 5.2337 251.548 5.17392 251.937 5.04193C252.545 4.83571 252.607 4.86144 252.379 5.22654C252.234 5.45994 252.175 5.65098 252.248 5.65087C252.713 5.65015 254.979 5.06322 255.312 4.85743C255.566 4.70039 255.61 4.79495 255.431 5.11379L255.148 5.61903L259.148 5.54044C261.348 5.49706 263.352 5.37727 263.602 5.27396C263.852 5.17065 264.179 4.77052 264.331 4.3848C264.482 3.99908 264.864 3.6475 265.18 3.60366C265.621 3.54227 265.644 3.64271 265.28 4.03837C265.02 4.32115 264.909 4.59427 265.033 4.64516C265.157 4.69605 265.053 4.89659 264.802 5.09057C264.448 5.36407 264.503 5.44334 265.047 5.4425C265.433 5.4419 265.749 5.36186 265.749 5.26459C265.749 5.16733 266.109 5.09646 266.549 5.10727C266.989 5.1179 267.79 5.06595 268.33 4.99197C268.918 4.91132 269.558 4.95387 269.931 5.09863C270.934 5.48877 272.332 5.37916 272.914 4.86478L273.448 4.3927L273.486 4.91724C273.524 5.43914 273.536 5.44119 276.153 5.34665C277.6 5.29445 279.746 5.24588 280.925 5.23877C282.707 5.22808 283.118 5.1577 283.379 4.8178C283.657 4.45526 283.74 4.44477 284.12 4.72372C284.454 4.96845 284.744 4.99401 285.438 4.83987C286.05 4.70414 286.328 4.70333 286.328 4.83735C286.328 4.94461 286.637 5.03197 287.015 5.03139C287.392 5.0308 287.701 5.11194 287.701 5.21166C287.701 5.50063 296.238 5.30359 297.144 4.99361C297.773 4.77887 297.947 4.77652 298.114 4.98079C298.263 5.16284 298.639 5.11155 299.512 4.79012C300.169 4.54819 300.426 4.50124 300.083 4.68574C299.312 5.10145 299.777 5.33937 300.724 5.01387C301.29 4.81902 301.423 4.82259 301.435 5.03312C301.445 5.20691 301.668 5.17244 302.116 4.92745C302.483 4.72707 302.919 4.61914 303.085 4.6873C303.252 4.75566 303.678 4.66395 304.033 4.48357C304.506 4.24325 304.742 4.21876 304.917 4.39209C305.049 4.52214 305.397 4.57797 305.689 4.51587C305.982 4.45397 305.731 4.56896 305.131 4.7714C304.428 5.00887 304.22 5.18507 304.547 5.26769C304.826 5.33813 305.508 5.17968 306.063 4.91529C307.136 4.40486 308.544 4.25376 308.136 4.69284C307.899 4.94844 308.6 5.37487 309.255 5.37386C309.439 5.37357 309.68 5.18224 309.791 4.9489C309.989 4.5337 310 4.53293 310.312 4.91359C310.602 5.26696 310.954 5.29864 314.144 5.25694C316.076 5.23169 317.708 5.19316 317.771 5.17138C318.116 5.05115 321.932 5.0784 322.857 5.20759C323.549 5.30435 324.183 5.27641 324.607 5.13061C325.048 4.97893 325.376 4.96674 325.58 5.09441C326.148 5.44848 327.886 5.50836 328.501 5.19506C329.003 4.9398 328.971 4.91384 328.289 5.02027C327.793 5.09776 327.489 5.05544 327.489 4.90841C327.488 4.48674 329.209 4.58699 329.502 5.02574C329.732 5.36958 329.849 5.39032 330.226 5.15279C330.474 4.9969 330.679 4.96623 330.684 5.08479C330.695 5.4073 332.013 5.55134 332.983 5.33588C333.474 5.22673 333.944 5.21752 334.089 5.31418C334.392 5.51579 338.053 5.45657 338.913 5.23601C339.317 5.13246 339.412 5.15286 339.197 5.29702C338.988 5.43683 339.247 5.51032 339.927 5.50399C340.941 5.4945 344.183 5.64366 344.183 5.69983C344.183 5.71491 345.161 5.75203 346.355 5.7826C347.55 5.81317 348.529 5.78356 348.529 5.71683C348.53 5.65029 349.456 5.58665 350.587 5.57584C352.101 5.56105 352.644 5.62826 352.644 5.83014C352.644 6.00941 352.953 6.07056 353.537 6.00689C354.028 5.95316 354.526 6.00611 354.644 6.12449C354.762 6.24287 354.875 6.18521 354.895 5.99649C354.927 5.68428 354.996 5.67984 355.649 5.94819C356.327 6.22612 356.79 6.26593 360.193 6.33925C360.949 6.35561 362.012 6.42634 362.555 6.49656C363.099 6.56697 363.671 6.53912 363.827 6.43502C364.007 6.31466 364.51 6.30766 365.207 6.41572C365.971 6.53423 366.372 6.51721 366.527 6.35938C366.65 6.23478 366.766 6.28116 366.786 6.46266C366.806 6.64415 366.977 6.79544 367.166 6.79911C368.609 6.82684 371.31 7.04583 371.969 7.18844C372.62 7.32975 372.77 7.2822 372.775 6.93121C372.781 6.58398 372.868 6.55519 373.226 6.78254C373.591 7.01477 373.67 7.01747 373.676 6.79748C373.679 6.65063 373.812 6.58389 373.971 6.64905C374.131 6.71421 374.645 6.68231 375.115 6.57791C376.098 6.35923 376.128 6.39292 375.524 7.04946C375.176 7.42795 375.22 7.53344 375.727 7.53265C376.083 7.5321 376.496 7.4504 376.644 7.35102C376.947 7.1481 378.321 7.30525 378.795 7.59707C378.966 7.70161 379.66 7.81721 380.338 7.85348C381.016 7.88994 381.865 8.04018 382.224 8.18759C382.75 8.40336 383.051 8.41063 383.769 8.22459C384.26 8.09754 384.661 7.93669 384.661 7.86713C384.66 7.69315 385.601 7.77217 386.833 8.04943C387.617 8.22578 387.863 8.22766 387.862 8.05669C387.862 7.92248 388.23 7.96922 388.78 8.17327C390.141 8.67841 390.445 8.35805 389.364 7.55653C388.636 7.01591 388.517 6.74484 388.849 6.38467C389.145 6.06225 389.12 5.89434 388.769 5.84663C388.487 5.80842 388.062 5.5661 387.823 5.30804C387.584 5.05017 386.994 4.79717 386.511 4.7459C386.029 4.69462 385.532 4.54421 385.409 4.4117C385.163 4.14818 376.766 3.06283 376.015 3.19745C375.917 3.21494 375.679 3.12333 375.484 2.99394C375.289 2.86474 373.208 2.61331 370.858 2.43543C368.509 2.25737 366.072 2.06304 365.443 2.00332C364.814 1.9436 363.168 1.84926 361.784 1.79392C360.401 1.73839 358.87 1.64538 358.382 1.58714C357.895 1.52871 356.351 1.45777 354.952 1.42941C353.553 1.40086 351.894 1.32257 351.265 1.25531C350.636 1.18805 348.372 1.10655 346.234 1.07405C344.096 1.04156 342.346 1.0028 342.346 0.988099C342.346 0.973396 341.471 0.929892 340.402 0.891589C339.211 0.848953 338.459 0.900639 338.459 1.02486C338.459 1.16228 338.253 1.1577 337.821 1.01058C337.47 0.891052 335.515 0.782308 333.476 0.769075C331.437 0.755653 329.769 0.697545 329.769 0.639864C329.769 0.582371 326.424 0.51782 322.337 0.496456C318.249 0.475282 314.596 0.454563 314.219 0.450436C313.842 0.44631 312.195 0.475256 310.56 0.514552C308.926 0.553848 307.073 0.533916 306.444 0.470236C305.815 0.406557 304.632 0.417065 303.815 0.493358C302.997 0.569839 302.328 0.562206 302.328 0.47625C302.328 0.390294 301.762 0.367987 301.071 0.426554C299.298 0.576525 283.244 0.632742 281.189 0.496254C280.253 0.433995 279.383 0.426109 279.256 0.478521ZM319.706 4.26791C319.71 4.34236 319.417 4.35695 319.056 4.3004C318.695 4.24384 318.517 4.06994 318.662 3.91402C318.876 3.68353 318.997 3.6775 319.312 3.88153C319.525 4.01956 319.702 4.19327 319.706 4.26791ZM231.939 4.12727C231.958 4.2049 232.043 4.4174 232.128 4.59917C232.213 4.78094 232.119 4.88835 231.92 4.83795C231.374 4.69987 231.014 3.98733 231.489 3.9866C231.717 3.98624 231.919 4.04964 231.939 4.12727ZM284.955 3.98671C284.955 4.03252 284.749 4.12256 284.498 4.18704C284.246 4.25152 284.041 4.21433 284.04 4.10462C284.04 3.99492 284.246 3.90468 284.497 3.90429C284.749 3.9039 284.955 3.94091 284.955 3.98671ZM266.891 4.68563C267.047 4.78906 266.956 4.87403 266.69 4.87444C266.424 4.87486 266.205 4.79037 266.205 4.6867C266.205 4.58302 266.295 4.49806 266.407 4.49788C266.518 4.49771 266.735 4.5822 266.891 4.68563ZM226.875 5.01939C226.875 5.0652 226.669 5.15524 226.418 5.21972C226.166 5.2842 225.96 5.24701 225.96 5.1373C225.96 5.0276 226.166 4.93736 226.417 4.93697C226.669 4.93658 226.874 4.97359 226.875 5.01939ZM229.495 5.04605C229.343 5.10887 228.948 5.11626 228.618 5.0623C228.253 5.00274 228.362 4.95789 228.894 4.94802C229.377 4.93916 229.646 4.98323 229.495 5.04605ZM231.219 5.11802C231.375 5.22145 231.169 5.3066 230.762 5.30723C230.355 5.30786 230.149 5.22335 230.305 5.11944C230.46 5.01552 230.666 4.93038 230.762 4.93023C230.858 4.93008 231.064 5.01458 231.219 5.11802ZM236.021 5.08851C236.022 5.18012 235.558 5.30393 234.993 5.36362C233.999 5.46827 233.994 5.46262 234.851 5.1972C235.886 4.87684 236.021 4.86419 236.021 5.08851ZM219.557 5.21925C219.558 5.26506 219.352 5.3551 219.1 5.41958C218.849 5.48406 218.643 5.44687 218.643 5.33717C218.643 5.22746 218.848 5.13722 219.1 5.13683C219.352 5.13644 219.557 5.17345 219.557 5.21925ZM198.396 5.47133C198.245 5.53415 197.85 5.54155 197.52 5.48759C197.155 5.42802 197.263 5.38318 197.796 5.3733C198.278 5.36445 198.548 5.40852 198.396 5.47133ZM203.407 6.13914C203.261 6.2896 203.153 6.24509 203.131 6.02553C203.111 5.82688 203.218 5.7155 203.37 5.77784C203.522 5.84019 203.539 6.00284 203.407 6.13914ZM364.078 5.94849C364.078 6.42275 363.359 6.40276 363.263 5.92581C363.208 5.65615 363.361 5.50662 363.623 5.57295C363.873 5.63627 364.077 5.80523 364.078 5.94849ZM174.054 6.33778C174.21 6.44121 174.119 6.52618 173.853 6.52659C173.586 6.527 173.368 6.44252 173.368 6.33884C173.368 6.23517 173.458 6.1502 173.569 6.15003C173.681 6.14986 173.898 6.23434 174.054 6.33778ZM199.28 6.40247C199.42 6.55249 199.719 6.67493 199.943 6.67458C200.601 6.67356 200.412 6.3468 199.688 6.23351C199.245 6.16407 199.11 6.22008 199.28 6.40247ZM377.761 6.13403C377.25 6.38854 377.278 6.4639 377.935 6.61425C379.031 6.86551 378.958 7.21774 377.859 6.97704C377.389 6.87409 376.842 6.85081 376.643 6.9252C376.444 6.99959 376.417 6.90501 376.583 6.71474C376.748 6.52466 376.883 6.24868 376.883 6.10165C376.883 5.95462 377.217 5.83384 377.625 5.8332C378.253 5.83223 378.274 5.87857 377.761 6.13403ZM149.442 6.97693C149.297 7.12739 149.188 7.08288 149.166 6.86332C149.146 6.66467 149.254 6.55329 149.406 6.61563C149.558 6.67798 149.574 6.84063 149.442 6.97693ZM369.109 6.30655C369.109 6.35236 368.903 6.44241 368.652 6.50689C368.4 6.57137 368.194 6.53417 368.194 6.42447C368.194 6.31476 368.4 6.22453 368.651 6.22414C368.903 6.22375 369.109 6.26075 369.109 6.30655ZM370.481 6.4098C370.481 6.51347 370.275 6.59862 370.024 6.59901C369.772 6.5994 369.566 6.51489 369.566 6.41122C369.566 6.30754 369.772 6.2224 370.023 6.22201C370.275 6.22162 370.481 6.30612 370.481 6.4098ZM148.216 7.1319C148.216 7.33925 148.03 7.50919 147.802 7.50954C147.574 7.50989 147.495 7.34037 147.626 7.13281C147.757 6.92526 147.943 6.75532 148.04 6.75517C148.136 6.75502 148.215 6.92455 148.216 7.1319ZM150.96 7.12764C150.96 7.23131 150.869 7.31628 150.758 7.31645C150.647 7.31662 150.429 7.23213 150.274 7.1287C150.118 7.02527 150.209 6.9403 150.475 6.93989C150.741 6.93947 150.959 7.02396 150.96 7.12764ZM146.699 7.54669C146.554 7.69715 146.445 7.65264 146.423 7.43308C146.403 7.23443 146.511 7.12305 146.663 7.18539C146.815 7.24774 146.831 7.41039 146.699 7.54669ZM383.746 7.77147C383.746 7.90983 383.438 8.02341 383.06 8.024C382.337 8.02512 382.168 7.85875 382.679 7.64759C383.183 7.4387 383.745 7.50399 383.746 7.77147ZM84.8615 11.0129C84.6957 11.1236 84.6584 11.2547 84.7783 11.3039C84.8982 11.3531 85.118 11.2623 85.2669 11.102C85.5755 10.7694 85.312 10.7114 84.8615 11.0129ZM39.9201 13.5615C39.5924 13.6971 39.3793 13.7086 39.3791 13.5906C39.379 13.4833 39.5159 13.3389 39.6837 13.2696C39.8509 13.2002 40.0947 13.187 40.2247 13.2405C40.3546 13.2939 40.2176 13.4383 39.9201 13.5615ZM14.2273 14.7627C14.2274 14.8017 13.8677 14.9508 13.4275 15.0938C12.7025 15.3292 12.6865 15.3227 13.2545 15.0228C13.8518 14.7079 14.2271 14.6076 14.2273 14.7627ZM20.963 15.6235C20.8877 16.0387 20.1749 16.1533 20.1743 15.7504C20.1739 15.5256 20.5791 15.2471 20.9075 15.2466C20.9757 15.2465 21.0006 15.4161 20.963 15.6235Z" fill="#FCCE00"/>
</svg>
