<svg width="32" height="32" viewBox="0 0 32 32" fill="none" xmlns="http://www.w3.org/2000/svg">
<g id="Icon/Outline/people">
<path id="Mask" fill-rule="evenodd" clip-rule="evenodd" d="M24 13.3343C24 12.5996 23.4026 12.001 22.6666 12.001C21.9306 12.001 21.3333 12.5996 21.3333 13.3343C21.3333 14.069 21.9306 14.6676 22.6666 14.6676C23.4026 14.6676 24 14.069 24 13.3343ZM26.6666 13.3343C26.6666 15.5396 24.872 17.3343 22.6666 17.3343C20.4613 17.3343 18.6666 15.5396 18.6666 13.3343C18.6666 11.129 20.4613 9.33431 22.6666 9.33431C24.872 9.33431 26.6666 11.129 26.6666 13.3343ZM14.6666 9.33431C14.6666 7.86364 13.4706 6.66764 12 6.66764C10.5293 6.66764 9.33329 7.86364 9.33329 9.33431C9.33329 10.805 10.5293 12.001 12 12.001C13.4706 12.001 14.6666 10.805 14.6666 9.33431ZM17.3333 9.33431C17.3333 12.2756 14.9413 14.6676 12 14.6676C9.05863 14.6676 6.66663 12.2756 6.66663 9.33431C6.66663 6.39298 9.05863 4.00098 12 4.00098C14.9413 4.00098 17.3333 6.39298 17.3333 9.33431ZM18.5866 20.0623C19.7453 19.1663 21.172 18.6676 22.6666 18.6676C26.3426 18.6676 29.3333 21.6583 29.3333 25.3343C29.3333 26.0703 28.7373 26.6676 28 26.6676C27.2626 26.6676 26.6666 26.0703 26.6666 25.3343C26.6666 23.129 24.872 21.3343 22.6666 21.3343C21.756 21.3343 20.8906 21.6463 20.192 22.1996C20.9173 23.5276 21.3333 25.0503 21.3333 26.6676C21.3333 27.4036 20.7373 28.001 20 28.001C19.2626 28.001 18.6666 27.4036 18.6666 26.6676C18.6666 22.9916 15.676 20.001 12 20.001C8.32396 20.001 5.33329 22.9916 5.33329 26.6676C5.33329 27.4036 4.73729 28.001 3.99996 28.001C3.26263 28.001 2.66663 27.4036 2.66663 26.6676C2.66663 21.521 6.85463 17.3343 12 17.3343C14.5693 17.3343 16.8973 18.3783 18.5866 20.0623Z" fill="#008E62"/>
<mask id="mask0" style="mask-type:alpha" maskUnits="userSpaceOnUse" x="2" y="4" width="28" height="25">
<path id="Mask_2" fill-rule="evenodd" clip-rule="evenodd" d="M24 13.3343C24 12.5996 23.4026 12.001 22.6666 12.001C21.9306 12.001 21.3333 12.5996 21.3333 13.3343C21.3333 14.069 21.9306 14.6676 22.6666 14.6676C23.4026 14.6676 24 14.069 24 13.3343ZM26.6666 13.3343C26.6666 15.5396 24.872 17.3343 22.6666 17.3343C20.4613 17.3343 18.6666 15.5396 18.6666 13.3343C18.6666 11.129 20.4613 9.33431 22.6666 9.33431C24.872 9.33431 26.6666 11.129 26.6666 13.3343ZM14.6666 9.33431C14.6666 7.86364 13.4706 6.66764 12 6.66764C10.5293 6.66764 9.33329 7.86364 9.33329 9.33431C9.33329 10.805 10.5293 12.001 12 12.001C13.4706 12.001 14.6666 10.805 14.6666 9.33431ZM17.3333 9.33431C17.3333 12.2756 14.9413 14.6676 12 14.6676C9.05863 14.6676 6.66663 12.2756 6.66663 9.33431C6.66663 6.39298 9.05863 4.00098 12 4.00098C14.9413 4.00098 17.3333 6.39298 17.3333 9.33431ZM18.5866 20.0623C19.7453 19.1663 21.172 18.6676 22.6666 18.6676C26.3426 18.6676 29.3333 21.6583 29.3333 25.3343C29.3333 26.0703 28.7373 26.6676 28 26.6676C27.2626 26.6676 26.6666 26.0703 26.6666 25.3343C26.6666 23.129 24.872 21.3343 22.6666 21.3343C21.756 21.3343 20.8906 21.6463 20.192 22.1996C20.9173 23.5276 21.3333 25.0503 21.3333 26.6676C21.3333 27.4036 20.7373 28.001 20 28.001C19.2626 28.001 18.6666 27.4036 18.6666 26.6676C18.6666 22.9916 15.676 20.001 12 20.001C8.32396 20.001 5.33329 22.9916 5.33329 26.6676C5.33329 27.4036 4.73729 28.001 3.99996 28.001C3.26263 28.001 2.66663 27.4036 2.66663 26.6676C2.66663 21.521 6.85463 17.3343 12 17.3343C14.5693 17.3343 16.8973 18.3783 18.5866 20.0623Z" fill="white"/>
</mask>
<g mask="url(#mask0)">
<g id="&#240;&#159;&#142;&#168; Color">
<rect id="Base" y="0.000976562" width="32" height="32" fill="#008E62"/>
</g>
</g>
</g>
</svg>
