<svg width="32" height="32" viewBox="0 0 32 32" fill="none" xmlns="http://www.w3.org/2000/svg">
<g id="Icon/Outline/file-text">
<path id="Union" fill-rule="evenodd" clip-rule="evenodd" d="M16 18.6676H12C11.264 18.6676 10.6666 18.0703 10.6666 17.3343C10.6666 16.5983 11.264 16.001 12 16.001H16C16.736 16.001 17.3333 16.5983 17.3333 17.3343C17.3333 18.0703 16.736 18.6676 16 18.6676ZM10.6666 22.6676C10.6666 21.9316 11.264 21.3343 12 21.3343H20C20.7373 21.3343 21.3333 21.9316 21.3333 22.6676C21.3333 23.4036 20.7373 24.001 20 24.001H12C11.264 24.001 10.6666 23.4036 10.6666 22.6676Z" fill="#008E62"/>
<path id="Exclude" fill-rule="evenodd" clip-rule="evenodd" d="M23.259 26.6676H8.74037C8.33237 26.6676 8.00037 26.3689 8.00037 26.0009V6.0009C8.00037 5.6329 8.33237 5.33423 8.74037 5.33423H16.0004V9.53423C16.0004 11.6302 17.623 13.3342 19.619 13.3342H24.0004V26.0009C24.0004 26.3689 23.6684 26.6676 23.259 26.6676ZM18.667 6.63843L22.323 10.6678H19.619C19.0937 10.6678 18.667 10.1598 18.667 9.53443V6.63843ZM26.3204 11.1051L19.0617 3.10506C18.8084 2.82639 18.4511 2.66772 18.0737 2.66772H8.74041C6.86174 2.66772 5.33374 4.16372 5.33374 6.00106V26.0011C5.33374 27.8384 6.86174 29.3344 8.74041 29.3344H23.2591C25.1377 29.3344 26.6671 27.8384 26.6671 26.0011V12.0011C26.6671 11.6691 26.5431 11.3504 26.3204 11.1051Z" fill="#008E62"/>
</g>
</svg>
