<svg width="32" height="32" viewBox="0 0 32 32" fill="none" xmlns="http://www.w3.org/2000/svg">
<path fill-rule="evenodd" clip-rule="evenodd" d="M20 1.33305C20 0.979765 19.8596 0.640946 19.6095 0.391133C19.3595 0.14132 19.0203 0.000976563 18.6667 0.000976562C18.3131 0.000976563 17.9739 0.14132 17.7239 0.391133C17.4738 0.640946 17.3334 0.979765 17.3334 1.33305V3.99721C17.3334 4.3505 17.4738 4.68932 17.7239 4.93913C17.9739 5.18894 18.3131 5.32929 18.6667 5.32929C19.0203 5.32929 19.3595 5.18894 19.6095 4.93913C19.8596 4.68932 20 4.3505 20 3.99721V1.33305ZM14.276 1.72335C14.0246 1.4807 13.6878 1.34644 13.3382 1.34947C12.9886 1.35251 12.6542 1.4926 12.4069 1.73958C12.1597 1.98656 12.0195 2.32066 12.0165 2.66992C12.0134 3.01919 12.1478 3.35568 12.3907 3.60691L13.724 4.93899C13.847 5.06621 13.9942 5.1677 14.1568 5.23751C14.3195 5.30732 14.4945 5.34407 14.6715 5.3456C14.8485 5.34714 15.0241 5.31344 15.188 5.24646C15.3518 5.17948 15.5007 5.08057 15.6259 4.9555C15.7511 4.83043 15.8501 4.6817 15.9171 4.51799C15.9842 4.35428 16.0179 4.17887 16.0164 4.002C16.0148 3.82513 15.9781 3.65034 15.9082 3.48782C15.8383 3.3253 15.7367 3.17831 15.6094 3.05543L14.276 1.72335ZM24.9427 3.60691C25.1856 3.35568 25.32 3.01919 25.3169 2.66992C25.3139 2.32066 25.1737 1.98656 24.9265 1.73958C24.6793 1.4926 24.3448 1.35251 23.9952 1.34947C23.6456 1.34644 23.3088 1.4807 23.0574 1.72335L21.724 3.05543C21.5967 3.17831 21.4951 3.3253 21.4252 3.48782C21.3554 3.65034 21.3186 3.82513 21.317 4.002C21.3155 4.17887 21.3492 4.35428 21.4163 4.51799C21.4833 4.6817 21.5823 4.83043 21.7075 4.9555C21.8327 5.08057 21.9816 5.17948 22.1454 5.24646C22.3093 5.31344 22.4849 5.34714 22.6619 5.3456C22.8389 5.34407 23.0139 5.30732 23.1766 5.23751C23.3393 5.1677 23.4864 5.06621 23.6094 4.93899L24.9427 3.60691ZM13.08 7.1902C12.468 6.57744 11.6534 6.06326 10.748 5.88343C9.79737 5.69294 8.73071 5.8821 7.89471 6.71864C7.63604 6.97573 7.44137 7.25414 7.29737 7.54453C7.04276 7.4342 6.77733 7.35072 6.50537 7.29543C5.55471 7.10495 4.48804 7.29543 3.65204 8.13064C2.81471 8.96719 2.62537 10.0315 2.81604 10.9813C2.86937 11.2557 2.95471 11.5208 3.06404 11.7739C2.75748 11.9254 2.47815 12.1266 2.23737 12.3693C1.40004 13.2059 1.21071 14.2702 1.40137 15.22C1.58271 16.1258 2.09737 16.9383 2.70804 17.5511L2.75737 17.5991C2.56965 17.7211 2.39535 17.8627 2.23737 18.0213C1.40004 18.8579 1.21071 19.9222 1.40137 20.872C1.58271 21.7778 2.09737 22.5903 2.70804 23.2018L9.30804 29.7956C11.9987 32.4837 16.2107 32.6156 19.8134 30.728C22.5934 31.3541 25.6787 30.6654 28.276 28.0692C30.576 25.77 32 22.1454 32 19.1349C32 15.9992 30.5267 13.3377 28.0187 10.8241L27.2374 10.0249L27.2267 10.0142C26.6147 9.40411 25.8 8.88993 24.8947 8.70877C23.944 8.51828 22.8774 8.70743 22.0414 9.54398C21.8747 9.71049 21.7334 9.88499 21.6147 10.0662L21.564 10.0142H21.5614C20.9507 9.40278 20.136 8.8886 19.232 8.70877C18.2814 8.51828 17.2147 8.70743 16.3787 9.54398C16.212 9.70916 16.072 9.88366 15.956 10.0635L13.0787 7.18887L13.08 7.1902ZM14.9654 14.7244L10.2494 10.0142C9.9187 9.68385 9.72671 9.32152 9.67204 9.04711C9.62671 8.82066 9.67204 8.70743 9.77871 8.6022C9.88404 8.49563 9.99737 8.45034 10.224 8.49563C10.4974 8.54892 10.8614 8.74207 11.192 9.07242L16.848 14.7231L16.8494 14.7244L19.6774 17.5498C19.8012 17.6735 19.9481 17.7717 20.1099 17.8387C20.2717 17.9057 20.4451 17.9403 20.6202 17.9403C20.7954 17.9404 20.9688 17.906 21.1306 17.8391C21.2924 17.7722 21.4395 17.6741 21.5634 17.5504C21.6873 17.4268 21.7855 17.2799 21.8526 17.1183C21.9197 16.9567 21.9542 16.7834 21.9543 16.6085C21.9544 16.4335 21.9199 16.2602 21.853 16.0986C21.786 15.9369 21.6878 15.79 21.564 15.6662L18.7334 12.8422C18.4014 12.5092 18.2107 12.1469 18.156 11.8738C18.1107 11.6473 18.156 11.5341 18.2627 11.4289C18.368 11.3223 18.4814 11.277 18.708 11.3223C18.9814 11.3769 19.3454 11.5687 19.676 11.9004L19.68 11.9031L22.4934 14.6965L23.4387 15.6582L23.448 15.6675C24.4214 16.64 24.8054 18.3437 24.38 20.4697C23.96 22.561 22.7934 24.7989 21.0907 26.5C20.4529 27.1416 19.7356 27.6989 18.956 28.1584C15.964 29.9074 12.9027 29.621 11.1907 27.9133L4.59071 21.3195C4.26004 20.9879 4.06804 20.6255 4.01337 20.3511C3.96804 20.1247 4.01337 20.0114 4.12004 19.9062C4.22671 19.7996 4.33871 19.7544 4.56537 19.7996C4.84004 19.8543 5.20271 20.0461 5.53471 20.3778L8.36271 23.2018C8.48492 23.332 8.63207 23.4363 8.79543 23.5086C8.95879 23.5809 9.13502 23.6196 9.31366 23.6225C9.4923 23.6254 9.66969 23.5924 9.83531 23.5254C10.0009 23.4585 10.1514 23.359 10.2778 23.2328C10.4042 23.1067 10.5039 22.9564 10.571 22.791C10.6381 22.6256 10.6713 22.4484 10.6685 22.2699C10.6657 22.0914 10.6271 21.9153 10.5548 21.7521C10.4826 21.5888 10.3783 21.4417 10.248 21.3195L7.42137 18.4902L4.59337 15.6662C4.26137 15.3332 4.06937 14.9709 4.01471 14.6978C3.96937 14.4713 4.01471 14.3581 4.12137 14.2515C4.22804 14.1463 4.34004 14.0997 4.56671 14.145C4.84137 14.1996 5.20404 14.3914 5.53604 14.7231L10.2494 19.432C10.3732 19.5558 10.5201 19.6539 10.6819 19.721C10.8437 19.788 11.0171 19.8225 11.1922 19.8226C11.3674 19.8226 11.5408 19.7882 11.7026 19.7213C11.8644 19.6544 12.0115 19.5563 12.1354 19.4327C12.2593 19.309 12.3575 19.1621 12.4246 19.0005C12.4917 18.8389 12.5262 18.6656 12.5263 18.4907C12.5264 18.3157 12.4919 18.1425 12.425 17.9808C12.358 17.8191 12.2598 17.6722 12.136 17.5484L7.42137 12.8422L6.00804 11.4302C5.67471 11.0972 5.48404 10.7349 5.42937 10.4618C5.38404 10.2353 5.42937 10.1221 5.53604 10.0155C5.64137 9.9103 5.75471 9.86368 5.98137 9.90897C6.25471 9.96358 6.61871 10.1554 6.94937 10.4871L8.36404 11.8991L13.0787 16.6093C13.3302 16.852 13.667 16.9862 14.0166 16.9832C14.3662 16.9802 14.7006 16.8401 14.9478 16.5931C15.195 16.3461 15.3352 16.012 15.3383 15.6627C15.3413 15.3135 15.2069 14.977 14.964 14.7258L14.9654 14.7244ZM26.3907 26.1856C25.388 27.1873 24.3294 27.7868 23.2787 28.0745C25.1854 26.0498 26.4987 23.4788 26.9974 20.9905C27.5134 18.409 27.1907 15.6396 25.3414 13.7866L24.3947 12.8236L24.3854 12.8142C24.052 12.4812 23.8654 12.1255 23.8147 11.8645C23.7734 11.6513 23.8147 11.5408 23.928 11.4275C24.0334 11.321 24.1467 11.2757 24.3734 11.321C24.6454 11.3743 25.0067 11.5661 25.3374 11.8938L26.1174 12.6917L26.1267 12.701C28.3414 14.9202 29.3334 16.945 29.3334 19.1349C29.3334 21.4528 28.18 24.3966 26.3894 26.1856H26.3907Z" fill="#008E62"/>
</svg>
