<svg width="32" height="32" viewBox="0 0 32 32" fill="none" xmlns="http://www.w3.org/2000/svg">
<path fill-rule="evenodd" clip-rule="evenodd" d="M4.96537 11.2705L9.72003 9.59314C8.73835 10.9147 7.89525 12.3337 7.20403 13.8278L4.96537 11.2705ZM1.6627 11.5465L6.0667 16.5785L5.42937 18.1731C5.33237 18.4152 5.30846 18.6803 5.3606 18.9358C5.41273 19.1912 5.53863 19.4258 5.7227 19.6105L6.1427 20.0291C3.8707 22.5891 2.61737 25.2678 1.40137 28.9131C1.32302 29.1481 1.31165 29.4002 1.36853 29.6412C1.42541 29.8822 1.5483 30.1026 1.72341 30.2778C1.89852 30.4529 2.11895 30.5758 2.35997 30.6326C2.601 30.6895 2.85311 30.6782 3.08803 30.5998C6.73337 29.3838 9.41203 28.1305 11.972 25.8585L12.3907 26.2771C12.5752 26.4614 12.8097 26.5876 13.0652 26.64C13.3207 26.6923 13.5859 26.6686 13.828 26.5718L15.4227 25.9345L20.4547 30.3385C20.6186 30.482 20.8152 30.5832 21.0273 30.6332C21.2394 30.6832 21.4605 30.6804 21.6713 30.6252C21.882 30.5699 22.0761 30.4638 22.2363 30.3162C22.3966 30.1686 22.5183 29.984 22.5907 29.7785L26.572 18.4985C29.2164 15.3693 30.6671 11.4047 30.6667 7.30781V2.66781C30.6667 2.31418 30.5262 1.97505 30.2762 1.725C30.0261 1.47495 29.687 1.33447 29.3334 1.33447H24.6934C20.5971 1.3339 16.633 2.78407 13.504 5.42781L2.22403 9.41047C2.01876 9.48296 1.83435 9.60461 1.68692 9.76479C1.5395 9.92497 1.43354 10.1188 1.37829 10.3294C1.32305 10.54 1.32021 10.7609 1.37002 10.9728C1.41983 11.1847 1.52077 11.3812 1.66403 11.5451L1.6627 11.5465ZM4.91337 27.0878C5.7507 25.0665 6.68937 23.4585 8.03203 21.9185L10.0827 23.9691C8.5427 25.3118 6.9347 26.2505 4.91337 27.0878ZM13.6547 23.7705L12.9427 23.0585L8.9427 19.0585L8.2307 18.3465L9.17737 15.9798C10.0461 13.8087 11.266 11.7951 12.788 10.0198L13.556 9.12247C14.9331 7.51597 16.6415 6.22645 18.564 5.34244C20.4864 4.45843 22.5774 4.00086 24.6934 4.00114H28V7.30781C28.0003 9.42376 27.5427 11.5147 26.6587 13.4372C25.7747 15.3596 24.4852 17.068 22.8787 18.4451L21.9814 19.2131C20.206 20.7352 18.1925 21.955 16.0214 22.8238L13.6547 23.7705ZM20.7307 27.0358L18.1734 24.7985C19.6675 24.1073 21.0865 23.2642 22.408 22.2825L20.7307 27.0358ZM20 10.6678C20 10.3142 20.1405 9.97505 20.3906 9.725C20.6406 9.47495 20.9797 9.33447 21.3334 9.33447C21.687 9.33447 22.0261 9.47495 22.2762 9.725C22.5262 9.97505 22.6667 10.3142 22.6667 10.6678C22.6667 11.0214 22.5262 11.3606 22.2762 11.6106C22.0261 11.8607 21.687 12.0011 21.3334 12.0011C20.9797 12.0011 20.6406 11.8607 20.3906 11.6106C20.1405 11.3606 20 11.0214 20 10.6678ZM21.3334 6.66781C20.2725 6.66781 19.2551 7.08923 18.5049 7.83938C17.7548 8.58952 17.3334 9.60694 17.3334 10.6678C17.3334 11.7287 17.7548 12.7461 18.5049 13.4962C19.2551 14.2464 20.2725 14.6678 21.3334 14.6678C22.3942 14.6678 23.4116 14.2464 24.1618 13.4962C24.9119 12.7461 25.3334 11.7287 25.3334 10.6678C25.3334 9.60694 24.9119 8.58952 24.1618 7.83938C23.4116 7.08923 22.3942 6.66781 21.3334 6.66781Z" fill="#008E62"/>
</svg>
