<svg width="182" height="48" viewBox="0 0 182 48" fill="none" xmlns="http://www.w3.org/2000/svg">
<g clip-path="url(#clip0)">
<path fill-rule="evenodd" clip-rule="evenodd" d="M172.093 5.41357C173.206 5.41357 174.109 6.35284 174.109 7.51063C174.109 8.66919 173.206 9.60754 172.093 9.60754C170.978 9.60754 170.076 8.66919 170.076 7.51063C170.076 6.35284 170.978 5.41357 172.093 5.41357ZM176.645 15.6048V4.08313H170.941C169.562 4.08313 168.032 4.12906 167.164 5.41592C166.521 6.37889 166.474 7.93344 167.046 8.94321C167.307 9.40955 167.667 9.78499 168.128 10.0748C168.421 10.257 168.823 10.4106 169.33 10.531C168.453 10.8366 167.832 11.3981 167.418 12.2772L165.753 15.6048H169.622L171.45 12.0919C171.682 11.6365 171.888 11.3403 172.07 11.2033C172.316 11.0268 172.597 10.9388 172.909 10.9388H173.21V15.6048H176.645Z" fill="#FCCE00"/>
<path fill-rule="evenodd" clip-rule="evenodd" d="M60.9416 11.0224L63.9759 11.9743C63.7726 12.8583 63.4516 13.5989 63.0121 14.1906C62.5725 14.784 62.0316 15.2315 61.3796 15.5325C60.7301 15.8327 59.9042 15.9856 58.8996 15.9856C57.6797 15.9849 56.6876 15.8016 55.9131 15.4348C55.1419 15.0657 54.4771 14.4173 53.915 13.4932C53.3556 12.5677 53.0745 11.3811 53.0745 9.93823C53.0745 8.01341 53.5671 6.53219 54.5516 5.49692C55.5391 4.46323 56.9345 3.94519 58.7388 3.94519C60.1498 3.94519 61.2589 4.24062 62.0678 4.83474C62.8729 5.42815 63.4748 6.34003 63.8658 7.57155L60.8161 8.27282C60.7099 7.92058 60.5977 7.66275 60.4808 7.50099C60.2844 7.22712 60.0473 7.01508 59.7685 6.86849C59.4862 6.71874 59.1738 6.64675 58.8272 6.64675C58.039 6.64675 57.4371 6.97498 57.0201 7.62832C56.7061 8.11351 56.5468 8.87823 56.5468 9.91667C56.5468 11.2073 56.7346 12.0889 57.1118 12.5685C57.4895 13.0457 58.0191 13.2842 58.7026 13.2842C59.3645 13.2842 59.8642 13.092 60.2028 12.7046C60.5423 12.3195 60.7876 11.7574 60.9416 11.0232V11.0224Z" fill="#FCCE00"/>
<path fill-rule="evenodd" clip-rule="evenodd" d="M90.649 18.3341H87.8814V15.8108H78.8022V4.23016H82.2365V12.9644H86.0165V4.23016H89.4528V13.1427H90.649V18.3341Z" fill="#FCCE00"/>
<path fill-rule="evenodd" clip-rule="evenodd" d="M102.678 4.15741V15.6921H99.4561V9.35829L95.3354 15.6921H92.0854V4.15741H95.3215V10.5404L99.4743 4.15741H102.678Z" fill="#FCCE00"/>
<path fill-rule="evenodd" clip-rule="evenodd" d="M111.031 11.2314L109.818 7.07919L108.601 11.2314H111.031ZM111.759 13.7329H107.87L107.311 15.6362H103.809L107.988 4.08313H111.746L115.908 15.6362H112.315L111.759 13.7329Z" fill="#FCCE00"/>
<path fill-rule="evenodd" clip-rule="evenodd" d="M127.441 15.7247H123.988V6.94538H121.283V10.5253C121.283 11.996 121.209 13.077 121.059 13.7683C120.908 14.4589 120.557 14.967 120.004 15.2887C119.452 15.6112 118.562 15.7745 117.329 15.7745C116.953 15.7745 116.52 15.7311 116.032 15.6471V13.2866H116.549C117.016 13.2866 117.347 13.1778 117.539 12.9642C117.733 12.7497 117.829 12.3569 117.829 11.7847V4.08313H127.441V15.7247Z" fill="#FCCE00"/>
<path fill-rule="evenodd" clip-rule="evenodd" d="M141.731 3.9361H145.19V8.00606H148.978V3.9361H152.452V15.5923H148.978V10.8719H145.19V15.5923H141.731V3.9361Z" fill="#FCCE00"/>
<path fill-rule="evenodd" clip-rule="evenodd" d="M160.757 11.1821L159.553 7.0585L158.344 11.1821H160.757ZM161.48 13.6661H157.617L157.063 15.5563H153.585L157.736 4.08313H161.466L165.601 15.5563H162.031L161.48 13.6661Z" fill="#FCCE00"/>
<path fill-rule="evenodd" clip-rule="evenodd" d="M71.0415 7.27071C72.4264 7.27071 73.5508 8.43893 73.5508 9.88106C73.5508 11.3216 72.4264 12.4898 71.0415 12.4898C69.6553 12.4898 68.5314 11.3216 68.5314 9.88106C68.5314 8.43893 69.6553 7.27071 71.0415 7.27071ZM71.0415 3.94519C67.5442 3.94519 65.3201 6.24295 65.3201 9.88106C65.3201 13.5184 67.7097 15.8288 71.2064 15.8288C74.7027 15.8288 76.7818 13.3518 76.7818 9.71536C76.7818 6.07802 74.5383 3.94519 71.0415 3.94519Z" fill="#FCCE00"/>
<path fill-rule="evenodd" clip-rule="evenodd" d="M134.642 9.90166C135.785 9.90166 136.712 10.8645 136.712 12.0533C136.712 13.2414 135.785 14.2058 134.642 14.2058C133.5 14.2058 132.573 13.2421 132.573 12.0533C132.573 10.8645 133.5 9.90166 134.642 9.90166ZM133.121 15.6856C135.644 15.6856 140.164 16.1049 140.07 12.1208C139.977 8.13671 135.893 8.45201 133.121 8.42028V3.86334H129.613V15.6856H133.121Z" fill="#FCCE00"/>
<path fill-rule="evenodd" clip-rule="evenodd" d="M170.102 35.7046L167.929 28.3024L165.747 35.7046H170.102ZM171.404 40.1626H164.436L163.435 43.5568H157.157L164.649 22.9624H171.381L178.84 43.5568H172.4L171.404 40.1626ZM156.685 43.5568H149.759L147.34 38.2544C146.78 36.9937 146.344 36.2082 146.029 35.8916C145.717 35.575 145.282 35.417 144.731 35.417V43.5568H138.587V22.9624H144.731V30.8722C145.264 30.8434 145.681 30.647 145.978 30.2826C146.279 29.9182 146.742 28.8686 147.376 27.1378C147.84 25.8584 148.303 24.9378 148.776 24.3818C149.244 23.825 150.009 23.4276 151.065 23.1836C152.125 22.9382 153.784 22.8192 156.046 22.8192V27.1614H155.734C154.683 27.1614 153.905 27.3678 153.4 27.78C152.896 28.1922 152.478 28.8592 152.154 29.7844C151.825 30.7096 151.477 31.3948 151.102 31.85C150.727 32.3052 150.212 32.6702 149.563 32.9386C150.448 33.2398 151.223 33.7582 151.881 34.4918C152.543 35.23 153.243 36.3751 153.983 37.929L156.685 43.5568ZM118.512 22.9624H134.97V27.3632H124.683V30.6424H134.219V34.8414H124.683V38.8972H135.275V43.5568H118.512V22.9624ZM97.0474 22.9624H115.755V28.0536H109.473V43.5568H103.329V28.0536H97.0474V22.9624ZM94.3501 43.5568H88.2065V28.0248H81.4518V43.5568H75.3076V22.9624H94.3501V43.5568ZM64.6006 35.7046L62.4279 28.3024L60.246 35.7046H64.6006ZM65.9027 40.1626H58.9345L57.9334 43.5568H51.6558L59.1475 22.9624H65.8796L73.3389 43.5568H66.8993L65.9027 40.1626Z" fill="#CE0C36"/>
<path fill-rule="evenodd" clip-rule="evenodd" d="M1.21387 -0.543274H48.4002V48.542H1.21387V-0.543274Z" fill="#FEFEFE"/>
<path fill-rule="evenodd" clip-rule="evenodd" d="M44.3598 34.079C42.4694 37.4785 39.9486 39.6332 37.2474 41.2577C33.9761 43.2199 30.7083 40.7288 26.3494 40.7288C22.934 40.7288 19.5836 42.3799 15.8879 41.1811C10.04 39.2835 5.60049 32.0511 5.60049 25.5108C5.60078 18.9495 6.97249 13.7213 12.5999 10.3402C17.5324 7.37378 24.2622 10.9551 24.2622 10.9551C24.2625 10.9547 19.4523 5.70576 12.8744 8.07163C5.41576 10.7523 2.54297 18.0798 2.54297 25.6614C2.54297 33.1844 7.86702 42.5963 15.2792 45.1487C20.6832 46.6225 20.6114 44.5964 26.2776 44.5964C31.9438 44.5961 33.3219 47.0737 37.1774 45.3378C42.2374 42.8277 45.0925 39.2917 47.0701 34.026C46.605 34.0554 45.0858 34.0791 44.3598 34.079Z" fill="#008E62"/>
<path fill-rule="evenodd" clip-rule="evenodd" d="M27.764 8.81661C27.8208 8.58991 28.1185 7.56148 27.7136 6.4135C27.3434 5.11131 26.0431 3.65661 24.7203 3.54911C24.7346 3.59141 25.2419 3.57619 26.1374 4.3146C26.9519 5.02108 28.1528 6.46914 27.764 8.81661ZM27.3523 10.6474C27.567 10.0791 27.6345 9.3929 27.5997 9.19619C27.5998 9.19272 26.9339 8.8205 26.3484 8.21191C25.7273 7.58162 25.185 6.71521 24.5592 5.18126C24.0116 3.9525 23.1723 3.38157 22.5735 3.12217C21.9539 2.86654 21.5716 2.92101 21.387 2.9672C21.8082 2.79889 23.6162 2.20983 25.8006 3.0115C26.8438 3.40589 27.8909 4.1534 28.4457 5.26225C28.9948 6.35341 29.0483 7.81277 27.9709 9.2107C27.9787 9.22578 27.645 9.98642 27.4478 10.8573C27.4091 10.815 27.3663 10.7746 27.3215 10.7384C27.3325 10.711 27.3413 10.6796 27.3523 10.6474Z" fill="#008E62"/>
<path fill-rule="evenodd" clip-rule="evenodd" d="M34.193 5.25801C31.6937 6.20724 29.9763 8.4119 30.072 8.40265C33.7768 4.75703 36.9988 4.80889 38.7197 4.97137C40.5361 5.26537 40.8524 5.666 40.9608 5.74376C39.8243 4.32528 36.617 4.16423 34.193 5.25801ZM38.9751 9.90615C33.6215 14.8976 29.7495 9.33568 29.6444 9.19272C29.3154 9.30942 28.2753 10.1008 27.6606 11.036L27.2708 10.9326C28.2899 9.87953 29.3421 8.14309 29.3598 8.15321C31.0362 3.59152 33.6686 2.39045 35.8323 2.09047C38.0538 1.85902 39.8084 2.53469 41.0731 3.29752C43.4325 4.81379 44.4894 6.91535 44.8262 7.91746C44.5699 7.49016 43.4124 6.24724 38.9751 9.90615Z" fill="#008E62"/>
<path fill-rule="evenodd" clip-rule="evenodd" d="M28.4907 20.7261H34.1313V14.8245H38.9808V20.7261H44.6533V25.7694H38.9808V31.6344H34.1313V25.7694H28.4907V20.7261Z" fill="#008E62"/>
<path fill-rule="evenodd" clip-rule="evenodd" d="M28.5574 27.1625C28.5574 24.1598 27.9987 23.6264 26.578 23.6264C25.9723 23.6261 25.5529 23.6977 25.1092 23.8426L25.1094 29.6821C25.1343 30.1907 25.669 30.5551 26.6255 30.5551C27.9518 30.555 28.5574 29.7814 28.5574 27.1625ZM21.5257 29.6593V23.8425C21.1055 23.6977 20.6649 23.6264 20.0604 23.6264C18.6385 23.6261 18.0795 24.1603 18.0795 27.1625C18.0795 29.7814 18.709 30.5551 20.0127 30.5551C20.9901 30.555 21.5257 30.1628 21.5257 29.6593ZM21.5257 15.925H25.1094V20.6744C25.553 20.5494 26.0179 20.5268 26.578 20.5268C30.5132 20.5265 31.9785 22.0038 31.9785 27.0694C31.9785 32.0794 30.2115 33.6042 27.391 33.6042C26.3438 33.6042 25.645 33.3372 25.1092 33.0506L25.1094 37.9178H21.5257V33.0503C21.012 33.3371 20.3138 33.6042 19.244 33.6042C16.4256 33.6042 14.6565 32.0795 14.6565 27.0694C14.6565 22.0035 16.1233 20.5268 20.0604 20.5268C20.6179 20.5265 21.0824 20.5494 21.5257 20.6747V15.925Z" fill="#CE0C36"/>
</g>
<defs>
<clipPath id="clip0">
<rect width="182" height="48" fill="white"/>
</clipPath>
</defs>
</svg>
