<svg width="134" height="128" viewBox="0 0 134 128" fill="none" xmlns="http://www.w3.org/2000/svg">
<path fill-rule="evenodd" clip-rule="evenodd" d="M123.396 93.3211C117.889 103.211 110.546 109.479 102.677 114.205C93.1479 119.913 83.6284 112.666 70.9307 112.666C60.9817 112.666 51.2217 117.469 40.4559 113.982C23.4209 108.461 10.4884 87.4215 10.4884 68.3953C10.4892 49.308 14.4851 34.0986 30.8779 24.2625C45.2466 15.6331 64.8506 26.0515 64.8506 26.0515C64.8515 26.0502 50.8392 10.7807 31.6774 17.6632C9.95022 25.4616 1.58167 46.7779 1.58167 68.8335C1.58167 90.7185 17.0909 118.099 38.683 125.524C54.425 129.811 54.2158 123.917 70.7215 123.917C87.2276 123.916 91.242 131.124 102.473 126.074C117.213 118.772 125.53 108.485 131.291 93.1668C129.936 93.2524 125.511 93.3214 123.396 93.3211Z" fill="#008E62"/>
<path fill-rule="evenodd" clip-rule="evenodd" d="M75.0517 19.83C75.2172 19.1705 76.0843 16.1787 74.9049 12.8391C73.8265 9.05092 70.0387 4.81905 66.1852 4.50632C66.227 4.62939 67.7046 4.5851 70.3132 6.73321C72.686 8.78842 76.1842 13.001 75.0517 19.83ZM73.8524 25.156C74.4778 23.5027 74.6745 21.5065 74.5731 20.9342C74.5735 20.9241 72.6336 19.8413 70.9281 18.0708C69.1188 16.2372 67.539 13.7168 65.7159 9.2544C64.1208 5.67981 61.6758 4.01894 59.9315 3.2643C58.1265 2.52067 57.0129 2.67912 56.4751 2.81348C57.7023 2.32387 62.9689 0.610229 69.3321 2.94235C72.3712 4.08969 75.4212 6.26426 77.0375 9.48999C78.637 12.6643 78.7928 16.9097 75.6545 20.9764C75.6771 21.0203 74.705 23.233 74.1306 25.7666C74.0179 25.6435 73.8933 25.5259 73.7628 25.4207C73.7948 25.341 73.8203 25.2496 73.8524 25.156Z" fill="#008E62"/>
<path fill-rule="evenodd" clip-rule="evenodd" d="M93.7797 9.47833C86.4991 12.2397 81.4961 18.6533 81.7748 18.6264C92.567 8.02094 101.953 8.17181 106.966 8.64447C112.257 9.49973 113.179 10.6652 113.494 10.8914C110.184 6.76495 100.841 6.29644 93.7797 9.47833ZM107.71 23.0002C92.1148 37.5208 80.8355 21.3407 80.5292 20.9248C79.5708 21.2643 76.541 23.5665 74.7504 26.287L73.6147 25.9862C76.5837 22.9228 79.6486 17.8713 79.7001 17.9007C84.5838 4.63036 92.2518 1.13634 98.555 0.263685C105.026 -0.409644 110.137 1.55594 113.822 3.7751C120.695 8.18608 123.774 14.2997 124.755 17.2149C124.008 15.9719 120.636 12.3561 107.71 23.0002Z" fill="#008E62"/>
<path fill-rule="evenodd" clip-rule="evenodd" d="M77.1687 54.4764H93.5999V37.3081H107.727V54.4764H124.251V69.1476H107.727V86.2096H93.5999V69.1476H77.1687V54.4764Z" fill="#008E62"/>
<path fill-rule="evenodd" clip-rule="evenodd" d="M77.363 73.1992C77.363 64.4641 75.7354 62.9123 71.5968 62.9123C69.8325 62.9116 68.6105 63.1197 67.3182 63.5413L67.3187 80.5288C67.3913 82.0085 68.9488 83.0686 71.7352 83.0686C75.5988 83.0682 77.363 80.8178 77.363 73.1992ZM56.8793 80.4627V63.5409C55.6552 63.1197 54.3716 62.9123 52.6106 62.9123C48.4687 62.9116 46.8403 64.4654 46.8403 73.1992C46.8403 80.8178 48.674 83.0686 52.4718 83.0686C55.319 83.0682 56.8793 81.9272 56.8793 80.4627ZM56.8793 40.5083H67.3187V54.3246C68.6108 53.9611 69.9651 53.8954 71.5968 53.8954C83.0602 53.8945 87.3286 58.1922 87.3286 72.9283C87.3286 87.5028 82.1814 91.9386 73.9651 91.9386C70.9146 91.9386 68.879 91.1619 67.3182 90.3282L67.3187 104.487H56.8793V90.3273C55.3826 91.1616 53.3487 91.9386 50.2326 91.9386C42.0223 91.9386 36.8689 87.5031 36.8689 72.9283C36.8689 58.1913 41.1417 53.8954 52.6106 53.8954C54.2348 53.8945 55.588 53.961 56.8793 54.3255V40.5083Z" fill="#CE0C36"/>
</svg>
