<svg width="56" height="56" viewBox="0 0 56 56" fill="none" xmlns="http://www.w3.org/2000/svg">
<g clip-path="url(#clip0)">
<path d="M14.0001 20.5332H15.8668C16.1143 20.5332 16.3517 20.4348 16.5267 20.2598C16.7018 20.0848 16.8001 19.8474 16.8001 19.5998C16.8001 19.3523 16.7018 19.1149 16.5267 18.9399C16.3517 18.7648 16.1143 18.6665 15.8668 18.6665H14.0001C13.7526 18.6665 13.5152 18.7648 13.3401 18.9399C13.1651 19.1149 13.0668 19.3523 13.0668 19.5998C13.0668 19.8474 13.1651 20.0848 13.3401 20.2598C13.5152 20.4348 13.7526 20.5332 14.0001 20.5332Z" fill="#008E62"/>
<path d="M19.6 20.5332H31.7333C31.9808 20.5332 32.2182 20.4348 32.3933 20.2598C32.5683 20.0848 32.6666 19.8474 32.6666 19.5998C32.6666 19.3523 32.5683 19.1149 32.3933 18.9399C32.2182 18.7648 31.9808 18.6665 31.7333 18.6665H19.6C19.3524 18.6665 19.115 18.7648 18.94 18.9399C18.765 19.1149 18.6666 19.3523 18.6666 19.5998C18.6666 19.8474 18.765 20.0848 18.94 20.2598C19.115 20.4348 19.3524 20.5332 19.6 20.5332Z" fill="#008E62"/>
<path d="M14.0001 25.2002H31.7334C31.981 25.2002 32.2184 25.1018 32.3934 24.9268C32.5684 24.7518 32.6668 24.5144 32.6668 24.2668C32.6668 24.0193 32.5684 23.7819 32.3934 23.6069C32.2184 23.4318 31.981 23.3335 31.7334 23.3335H14.0001C13.7526 23.3335 13.5152 23.4318 13.3401 23.6069C13.1651 23.7819 13.0668 24.0193 13.0668 24.2668C13.0668 24.5144 13.1651 24.7518 13.3401 24.9268C13.5152 25.1018 13.7526 25.2002 14.0001 25.2002Z" fill="#008E62"/>
<path d="M28.9334 28H14.0001C13.7526 28 13.5152 28.0983 13.3401 28.2734C13.1651 28.4484 13.0668 28.6858 13.0668 28.9333C13.0668 29.1809 13.1651 29.4183 13.3401 29.5933C13.5152 29.7683 13.7526 29.8667 14.0001 29.8667H28.9334C29.181 29.8667 29.4184 29.7683 29.5934 29.5933C29.7684 29.4183 29.8668 29.1809 29.8668 28.9333C29.8668 28.6858 29.7684 28.4484 29.5934 28.2734C29.4184 28.0983 29.181 28 28.9334 28Z" fill="#008E62"/>
<path d="M28 34.507C27.8788 34.5041 27.7583 34.5253 27.6454 34.5695C27.5325 34.6137 27.4296 34.68 27.3427 34.7645C27.2558 34.849 27.1866 34.95 27.1392 35.0615C27.0918 35.1731 27.0671 35.293 27.0667 35.4142C27.0228 35.7558 26.3788 36.3998 24.2667 36.3998C21.6533 36.3998 21.476 34.8337 21.4667 34.5332V34.521C21.4658 34.2735 21.3666 34.0365 21.191 33.862C21.0153 33.6876 20.7776 33.5901 20.5301 33.591C20.2825 33.5918 20.0455 33.691 19.8711 33.8667C19.6966 34.0423 19.5991 34.28 19.6 34.5276C19.6166 34.7772 19.5797 35.0276 19.4918 35.2619C19.4039 35.4962 19.2671 35.709 19.0904 35.8862C18.9138 36.0634 18.7013 36.2009 18.4673 36.2894C18.2333 36.378 17.9831 36.4157 17.7333 36.3998C15.9105 36.3998 15.8667 33.7277 15.8667 33.5998C15.8667 33.3523 15.7683 33.1149 15.5933 32.9399C15.4183 32.7648 15.1809 32.6665 14.9333 32.6665C14.6858 32.6665 14.4484 32.7648 14.2734 32.9399C14.0983 33.1149 14 33.3523 14 33.5998C14 35.2136 14.7803 38.2665 17.7333 38.2665C18.2842 38.2905 18.8331 38.1848 19.3356 37.9578C19.8382 37.7309 20.2804 37.389 20.6267 36.9598C21.1112 37.4159 21.6844 37.7673 22.3106 37.9921C22.9369 38.2169 23.6027 38.3103 24.2667 38.2665C28.8801 38.2665 28.9333 35.5813 28.9333 35.4665C28.9346 35.2161 28.8375 34.9753 28.6629 34.7958C28.4884 34.6164 28.2503 34.5127 28 34.507Z" fill="#008E62"/>
<path d="M44.7999 9.3335C43.5078 9.3335 42.2446 9.71667 41.1702 10.4346C40.0958 11.1525 39.2584 12.1728 38.7639 13.3666C38.2694 14.5604 38.1401 15.8741 38.3921 17.1414C38.6442 18.4088 39.2665 19.5729 40.1802 20.4866C41.0939 21.4003 42.258 22.0225 43.5253 22.2746C44.7927 22.5267 46.1063 22.3973 47.3001 21.9028C48.4939 21.4084 49.5143 20.571 50.2322 19.4966C50.9501 18.4222 51.3333 17.159 51.3333 15.8668C51.3313 14.1347 50.6423 12.4741 49.4175 11.2492C48.1927 10.0244 46.5321 9.33547 44.7999 9.3335ZM44.7999 20.5335C43.877 20.5335 42.9747 20.2598 42.2073 19.747C41.4398 19.2342 40.8417 18.5054 40.4885 17.6527C40.1353 16.8 40.0429 15.8617 40.2229 14.9564C40.403 14.0512 40.8475 13.2196 41.5001 12.567C42.1528 11.9144 42.9843 11.4699 43.8895 11.2898C44.7948 11.1098 45.7331 11.2022 46.5858 11.5554C47.4385 11.9086 48.1673 12.5067 48.6801 13.2742C49.1929 14.0416 49.4666 14.9439 49.4666 15.8668C49.4651 17.1041 48.973 18.2902 48.0981 19.165C47.2233 20.0399 46.0372 20.532 44.7999 20.5335Z" fill="#FCCE00"/>
<path d="M52.9284 7.73831C52.6481 7.4613 52.3137 7.24494 51.9462 7.10267C51.5786 6.96041 51.1858 6.8953 50.792 6.91137L50.5671 6.92257C50.3823 6.92952 50.1993 6.88404 50.0392 6.79138C49.8792 6.69873 49.7486 6.56269 49.6627 6.39897L49.56 6.19924C49.5245 6.13111 49.4751 6.07324 49.4349 6.01257C49.3124 4.37397 48.5736 2.84265 47.3672 1.72701C46.1608 0.611369 44.5765 -0.00571317 42.9333 3.98672e-05H19.6C19.3525 9.27288e-05 19.1151 0.0984605 18.9401 0.273507L6.80679 12.4068C6.63175 12.5818 6.53338 12.8192 6.53333 13.0667V49.4667C6.5353 51.1988 7.22427 52.8595 8.44908 54.0843C9.67389 55.3091 11.3345 55.9981 13.0667 56H42.9333C44.6655 55.9981 46.3261 55.3091 47.5509 54.0843C48.7757 52.8595 49.4647 51.1988 49.4667 49.4667V41.3364C49.7119 41.3398 49.9553 41.2942 50.1826 41.2022C50.4099 41.1102 50.6166 40.9738 50.7904 40.8008C50.9643 40.6279 51.1019 40.422 51.1951 40.1952C51.2883 39.9684 51.3353 39.7253 51.3333 39.48V24.7884C52.0299 24.6903 52.6647 24.3352 53.1128 23.7929C53.561 23.2507 53.7902 22.5604 53.7553 21.8578L53.7441 21.6328C53.7358 21.4479 53.7807 21.2645 53.8733 21.1043C53.9659 20.944 54.1024 20.8136 54.2668 20.7284L54.4665 20.6258C54.8168 20.4448 55.1255 20.1927 55.3728 19.8857C55.6201 19.5786 55.8007 19.2234 55.9029 18.8426C56.0052 18.4618 56.0268 18.0639 55.9666 17.6743C55.9063 17.2846 55.7654 16.9119 55.5529 16.5798L55.4297 16.3931C55.3298 16.2372 55.2768 16.056 55.2768 15.8709C55.2768 15.6858 55.3298 15.5046 55.4297 15.3487L55.5511 15.162C55.7655 14.8299 55.9081 14.4565 55.9696 14.0659C56.0311 13.6753 56.0101 13.2762 55.908 12.8942C55.806 12.5122 55.625 12.1558 55.3769 11.848C55.1288 11.5401 54.819 11.2876 54.4675 11.1067L54.2659 11.0022C54.1019 10.9174 53.9657 10.7874 53.8732 10.6276C53.7808 10.4679 53.736 10.285 53.7441 10.1006L53.7553 9.87191C53.7729 9.47838 53.7084 9.0855 53.5661 8.7182C53.4237 8.35091 53.2066 8.01722 52.9284 7.73831ZM18.6667 3.18644V7.46671C18.6652 8.70393 18.173 9.89005 17.2982 10.7649C16.4233 11.6398 15.2372 12.1319 14 12.1334H9.71972L18.6667 3.18644ZM47.6 49.4667C47.5985 50.7039 47.1064 51.8901 46.2315 52.7649C45.3567 53.6397 44.1705 54.1319 42.9333 54.1334H13.0667C11.8294 54.1319 10.6433 53.6397 9.76846 52.7649C8.89362 51.8901 8.40147 50.7039 8.39999 49.4667V14H14C15.7321 13.9981 17.3928 13.3091 18.6176 12.0843C19.8424 10.8595 20.5313 9.19885 20.5333 7.46671V1.86671H42.9333C43.8424 1.86425 44.7323 2.12894 45.4922 2.6279C46.2522 3.12685 46.8488 3.83808 47.208 4.67324C46.611 4.63881 46.0183 4.79327 45.514 5.11471L45.3273 5.23697C45.1711 5.33638 44.9898 5.38919 44.8047 5.38919C44.6195 5.38919 44.4382 5.33638 44.282 5.23697L44.0953 5.11471C43.7631 4.90048 43.3898 4.7581 42.9993 4.69671C42.6089 4.63532 42.2099 4.65628 41.828 4.75823C41.4461 4.86019 41.0897 5.04089 40.7818 5.28874C40.4739 5.53658 40.2212 5.84609 40.04 6.19737L39.9345 6.40177C39.8481 6.56431 39.7178 6.6993 39.5584 6.79138C39.399 6.88346 39.2169 6.92891 39.0329 6.92257L38.8052 6.91137C38.4117 6.89632 38.0192 6.96191 37.652 7.10411C37.2847 7.24632 36.9505 7.46214 36.6697 7.73831C36.3911 8.01768 36.1737 8.35199 36.0314 8.71996C35.889 9.08793 35.8248 9.4815 35.8428 9.87564L35.854 10.1006C35.8623 10.2855 35.8175 10.4689 35.7248 10.6292C35.6322 10.7894 35.4957 10.9198 35.3313 11.005L35.1316 11.1076C34.7813 11.2886 34.4727 11.5407 34.2253 11.8477C33.978 12.1548 33.7974 12.51 33.6952 12.8908C33.593 13.2716 33.5713 13.6695 33.6315 14.0591C33.6918 14.4488 33.8327 14.8215 34.0452 15.1536L34.1684 15.3403C34.2683 15.4962 34.3214 15.6774 34.3214 15.8625C34.3214 16.0476 34.2683 16.2288 34.1684 16.3847L34.0471 16.5714C33.8326 16.9037 33.6902 17.2771 33.6288 17.6678C33.5675 18.0585 33.5886 18.4576 33.6909 18.8396C33.7931 19.2216 33.9742 19.578 34.2225 19.8858C34.4708 20.1936 34.7808 20.446 35.1325 20.6267L35.3341 20.7312C35.4981 20.816 35.6343 20.946 35.7268 21.1058C35.8192 21.2655 35.864 21.4484 35.8559 21.6328L35.8447 21.8615C35.811 22.5636 36.0406 23.2529 36.4886 23.7945C36.9367 24.3361 37.5707 24.6909 38.2667 24.7894V39.48C38.2645 39.8616 38.3805 40.2345 38.5988 40.5475C38.817 40.8605 39.1268 41.0983 39.4856 41.2282C39.6961 41.3066 39.9189 41.3468 40.1436 41.3467C40.4115 41.3463 40.6762 41.2877 40.9192 41.1749C41.1623 41.0621 41.3778 40.8978 41.5511 40.6934L44.8 36.9059L47.6 40.1726V49.4667ZM49.4667 39.48L46.2196 35.6935C46.0395 35.4966 45.8203 35.3393 45.576 35.2317C45.3318 35.1241 45.0678 35.0685 44.8009 35.0685C44.534 35.0685 44.2701 35.1241 44.0258 35.2317C43.7816 35.3393 43.5624 35.4966 43.3823 35.6935L40.1333 39.48V25.6742C40.3254 26.0016 40.5816 26.2868 40.8866 26.5127C41.1917 26.7386 41.5392 26.9006 41.9084 26.9888C42.2776 27.077 42.6608 27.0897 43.035 27.0261C43.4092 26.9625 43.7667 26.8239 44.086 26.6187L44.2727 26.4955C44.4289 26.3961 44.6102 26.3433 44.7953 26.3433C44.9805 26.3433 45.1618 26.3961 45.318 26.4955L45.5047 26.6178C45.8241 26.8251 46.1823 26.9654 46.5576 27.0301C46.9328 27.0949 47.3173 27.0828 47.6878 26.9946C48.0582 26.9064 48.4069 26.7438 48.7127 26.5169C49.0184 26.2899 49.275 26.0032 49.4667 25.6742V39.48ZM54.0997 13.3747C54.1352 13.5047 54.1429 13.6408 54.1221 13.774C54.1014 13.9072 54.0527 14.0344 53.9793 14.1475L53.858 14.3342C53.5662 14.7909 53.4111 15.3215 53.4111 15.8634C53.4111 16.4054 53.5662 16.936 53.858 17.3927L53.9812 17.5794C54.0536 17.6928 54.1016 17.8202 54.1219 17.9532C54.1423 18.0863 54.1347 18.2221 54.0995 18.3521C54.0644 18.482 54.0025 18.6032 53.9179 18.7078C53.8332 18.8125 53.7276 18.8983 53.6079 18.9598L53.4081 19.0643C52.9269 19.314 52.5272 19.6961 52.2561 20.1657C51.985 20.6352 51.854 21.1724 51.8784 21.714L51.8896 21.939C51.8967 22.0732 51.8755 22.2074 51.8272 22.3328C51.779 22.4583 51.7048 22.5721 51.6096 22.667C51.5164 22.7639 51.4031 22.8392 51.2776 22.8876C51.1522 22.936 51.0176 22.9562 50.8835 22.947L50.6548 22.9358C50.1132 22.9078 49.5751 23.0372 49.1054 23.3083C48.6357 23.5794 48.2545 23.9807 48.0079 24.4636L47.9015 24.6662C47.8402 24.786 47.7545 24.8917 47.65 24.9764C47.5454 25.0611 47.4243 25.1231 47.2944 25.1582C47.1645 25.1934 47.0286 25.201 46.8956 25.1806C46.7626 25.1601 46.6353 25.1121 46.522 25.0395L46.3307 24.9182C45.874 24.6268 45.3436 24.4719 44.8019 24.4719C44.2601 24.4719 43.7297 24.6268 43.2731 24.9182L43.0808 25.0414C42.9674 25.1138 42.8401 25.1617 42.7072 25.1821C42.5742 25.2025 42.4384 25.1948 42.3085 25.1597C42.1787 25.1245 42.0576 25.0626 41.953 24.978C41.8484 24.8933 41.7627 24.7878 41.7013 24.668L41.5968 24.4692C41.3577 24.0072 40.9962 23.6197 40.5517 23.3493C40.1073 23.0788 39.5971 22.9358 39.0768 22.9358C39.0329 22.9358 38.99 22.9358 38.9471 22.9358L38.7203 22.947C38.5861 22.9554 38.4516 22.9348 38.3261 22.8865C38.2006 22.8381 38.0871 22.7633 37.9932 22.667C37.8981 22.5724 37.824 22.4589 37.7758 22.3338C37.7275 22.2086 37.7062 22.0748 37.7132 21.9408L37.7244 21.7122C37.7485 21.171 37.6174 20.6342 37.3466 20.165C37.0757 19.6959 36.6763 19.314 36.1956 19.0643L35.994 18.9588C35.874 18.8976 35.7682 18.8119 35.6834 18.7072C35.5986 18.6026 35.5366 18.4814 35.5014 18.3514C35.4663 18.2213 35.4587 18.0854 35.4792 17.9523C35.4998 17.8192 35.5479 17.6918 35.6207 17.5784L35.742 17.3918C36.0338 16.9351 36.1889 16.4045 36.1889 15.8625C36.1889 15.3206 36.0338 14.7899 35.742 14.3332L35.6188 14.1419C35.5464 14.0284 35.4984 13.9011 35.478 13.7681C35.4577 13.635 35.4653 13.4992 35.5004 13.3692C35.5356 13.2393 35.5975 13.1181 35.6821 13.0135C35.7668 12.9088 35.8724 12.823 35.9921 12.7615L36.1919 12.657C36.6731 12.4073 37.0728 12.0251 37.3439 11.5556C37.6149 11.0861 37.746 10.5488 37.7216 10.0072L37.7104 9.78231C37.7033 9.6481 37.7245 9.51389 37.7727 9.38844C37.821 9.263 37.8952 9.14914 37.9904 9.05431C38.0855 8.95992 38.1991 8.8863 38.3241 8.83811C38.4491 8.78991 38.5827 8.76819 38.7165 8.77431L38.9452 8.78551C39.4861 8.8092 40.0225 8.67801 40.4913 8.40736C40.9602 8.13671 41.3421 7.73785 41.5921 7.25764L41.6985 7.05511C41.7598 6.93529 41.8455 6.82962 41.95 6.74487C42.0546 6.66013 42.1757 6.59819 42.3056 6.56303C42.4355 6.52788 42.5713 6.52028 42.7044 6.54073C42.8374 6.56118 42.9646 6.60922 43.078 6.68177L43.2693 6.80311C43.7259 7.09473 44.2564 7.24968 44.7981 7.24968C45.3399 7.24968 45.8703 7.09473 46.3269 6.80311L46.5192 6.68084C46.6326 6.60843 46.7598 6.5605 46.8928 6.54013C47.0258 6.51976 47.1616 6.52739 47.2915 6.56254C47.4213 6.59769 47.5424 6.65957 47.647 6.74423C47.7515 6.82889 47.8373 6.93446 47.8987 7.05417L48.0032 7.25297C48.2547 7.73253 48.6371 8.1309 49.106 8.40184C49.5748 8.67278 50.1109 8.80517 50.652 8.78364L50.8788 8.77244C51.013 8.76398 51.1474 8.78462 51.2729 8.83295C51.3984 8.88127 51.512 8.95615 51.6059 9.05244C51.701 9.14699 51.775 9.26053 51.8233 9.38565C51.8715 9.51077 51.8928 9.64466 51.8859 9.77857L51.8747 10.0072C51.8505 10.5484 51.9816 11.0852 52.2525 11.5544C52.5234 12.0235 52.9227 12.4054 53.4035 12.6551L53.6051 12.7606C53.7266 12.8217 53.8336 12.9081 53.9189 13.0141C54.0042 13.12 54.0659 13.243 54.0997 13.3747Z" fill="#008E62"/>
<path d="M21.4666 40.1333H19.6C19.3524 40.1333 19.115 40.2316 18.94 40.4067C18.765 40.5817 18.6666 40.8191 18.6666 41.0666C18.6666 41.3142 18.765 41.5516 18.94 41.7266C19.115 41.9016 19.3524 42 19.6 42H21.4666C21.7142 42 21.9516 41.9016 22.1266 41.7266C22.3016 41.5516 22.4 41.3142 22.4 41.0666C22.4 40.8191 22.3016 40.5817 22.1266 40.4067C21.9516 40.2316 21.7142 40.1333 21.4666 40.1333Z" fill="#008E62"/>
<path d="M15.8668 40.1333H14.0001C13.7526 40.1333 13.5152 40.2316 13.3401 40.4067C13.1651 40.5817 13.0668 40.8191 13.0668 41.0666C13.0668 41.3142 13.1651 41.5516 13.3401 41.7266C13.5152 41.9016 13.7526 42 14.0001 42H15.8668C16.1143 42 16.3517 41.9016 16.5267 41.7266C16.7018 41.5516 16.8001 41.3142 16.8001 41.0666C16.8001 40.8191 16.7018 40.5817 16.5267 40.4067C16.3517 40.2316 16.1143 40.1333 15.8668 40.1333Z" fill="#008E62"/>
<path d="M27.0666 40.1333H25.1999C24.9524 40.1333 24.715 40.2316 24.54 40.4067C24.3649 40.5817 24.2666 40.8191 24.2666 41.0666C24.2666 41.3142 24.3649 41.5516 24.54 41.7266C24.715 41.9016 24.9524 42 25.1999 42H27.0666C27.3141 42 27.5515 41.9016 27.7266 41.7266C27.9016 41.5516 27.9999 41.3142 27.9999 41.0666C27.9999 40.8191 27.9016 40.5817 27.7266 40.4067C27.5515 40.2316 27.3141 40.1333 27.0666 40.1333Z" fill="#008E62"/>
<path d="M32.6667 40.1333H30.8C30.5525 40.1333 30.3151 40.2316 30.1401 40.4067C29.965 40.5817 29.8667 40.8191 29.8667 41.0666C29.8667 41.3142 29.965 41.5516 30.1401 41.7266C30.3151 41.9016 30.5525 42 30.8 42H32.6667C32.9142 42 33.1516 41.9016 33.3267 41.7266C33.5017 41.5516 33.6 41.3142 33.6 41.0666C33.6 40.8191 33.5017 40.5817 33.3267 40.4067C33.1516 40.2316 32.9142 40.1333 32.6667 40.1333Z" fill="#008E62"/>
</g>
<defs>
<clipPath id="clip0">
<rect width="56" height="56" fill="white"/>
</clipPath>
</defs>
</svg>
