<svg width="56" height="56" viewBox="0 0 56 56" fill="none" xmlns="http://www.w3.org/2000/svg">
<g clip-path="url(#clip0)">
<path d="M6.19409 37.8803H11.7541C13.1713 37.8803 14.3244 36.7272 14.3244 35.31V31.562C14.3244 30.1447 13.1713 28.9917 11.7541 28.9917H6.19409C4.77681 28.9917 3.62378 30.1447 3.62378 31.562V35.31C3.62378 36.7272 4.77681 37.8803 6.19409 37.8803ZM11.7541 36.2397H9.79439V34.2564H12.6837V35.31C12.6837 35.8226 12.2666 36.2397 11.7541 36.2397ZM12.6837 31.562V32.6157H9.79439V30.6323H11.7541C12.2666 30.6323 12.6837 31.0495 12.6837 31.562ZM5.2644 31.562C5.2644 31.0495 5.68145 30.6323 6.19409 30.6323H8.15376V36.2397H6.19409C5.68145 36.2397 5.2644 35.8225 5.2644 35.31V31.562Z" fill="#FCCE00"/>
<path d="M4.44409 45.1279H15.316C15.7691 45.1279 16.1363 44.7608 16.1363 44.3076C16.1363 43.8545 15.7691 43.4873 15.316 43.4873H4.44409C3.99095 43.4873 3.62378 43.8545 3.62378 44.3076C3.62378 44.7606 3.99095 45.1279 4.44409 45.1279Z" fill="#008E62"/>
<path d="M18.1199 44.3076C18.1199 44.7608 18.487 45.1279 18.9402 45.1279H26.1881C26.6413 45.1279 27.0085 44.7608 27.0085 44.3076C27.0085 43.8545 26.6413 43.4873 26.1881 43.4873H18.9402C18.487 43.4873 18.1199 43.8545 18.1199 44.3076Z" fill="#008E62"/>
<path d="M29.812 43.4873C29.3589 43.4873 28.9917 43.8545 28.9917 44.3076C28.9917 44.7608 29.3589 45.1279 29.812 45.1279H35.2479C35.7011 45.1279 36.0683 44.7608 36.0683 44.3076C36.0683 43.8545 35.7011 43.4873 35.2479 43.4873H29.812Z" fill="#008E62"/>
<path d="M3.62378 50.6809C3.62378 51.6157 4.38426 52.3762 5.31909 52.3762H10.817C11.7519 52.3762 12.5124 51.6157 12.5124 50.6809V48.8069C12.5124 47.8721 11.7519 47.1116 10.817 47.1116H5.31909C4.38426 47.1116 3.62378 47.8721 3.62378 48.8069V50.6809ZM5.2644 48.8069C5.2644 48.7768 5.28901 48.7522 5.31909 48.7522H10.817C10.8471 48.7522 10.8717 48.7768 10.8717 48.8069V50.6809C10.8717 50.711 10.8471 50.7356 10.817 50.7356H5.31909C5.28901 50.7356 5.2644 50.711 5.2644 50.6809V48.8069Z" fill="#008E62"/>
<path d="M14.4958 48.8069V50.6809C14.4958 51.6157 15.2563 52.3762 16.1912 52.3762H19.8771C20.8119 52.3762 21.5724 51.6157 21.5724 50.6809V48.8069C21.5724 47.8721 20.8119 47.1116 19.8771 47.1116H16.1912C15.2563 47.1116 14.4958 47.8721 14.4958 48.8069ZM19.9318 48.8069V50.6809C19.9318 50.711 19.9072 50.7356 19.8771 50.7356H16.1912C16.1611 50.7356 16.1365 50.711 16.1365 50.6809V48.8069C16.1365 48.7768 16.1611 48.7522 16.1912 48.7522H19.8771C19.9073 48.7522 19.9318 48.7768 19.9318 48.8069Z" fill="#008E62"/>
<path d="M51.5557 0H19.3957C18.9425 0 18.5754 0.367172 18.5754 0.820312C18.5754 1.27345 18.9425 1.64062 19.3957 1.64062H51.5557C53.1017 1.64062 54.3594 2.89833 54.3594 4.44423V5.43594H12.5125V4.44423C12.5125 2.89833 13.7702 1.64062 15.3161 1.64062H17.2995C17.7527 1.64062 18.1198 1.27345 18.1198 0.820312C18.1198 0.367172 17.7527 0 17.2995 0H15.3161C12.8656 0 10.8719 1.99369 10.8719 4.44423V25.3678H4.44423C1.99369 25.3678 0 27.3614 0 29.8119V51.5558C0 54.0063 1.9938 56 4.44434 56H5.77861C6.23175 56 6.59892 55.6328 6.59892 55.1797C6.59892 54.7265 6.23175 54.3594 5.77861 54.3594H4.44434C2.89833 54.3594 1.64062 53.1017 1.64062 51.5558V29.8119C1.64062 28.266 2.89833 27.0083 4.44423 27.0083H40.6839C42.2298 27.0083 43.4875 28.266 43.4875 29.8119L43.4876 51.5558C43.4876 53.1017 42.2299 54.3594 40.6839 54.3594H9.05975C8.60661 54.3594 8.23944 54.7265 8.23944 55.1797C8.23944 55.6328 8.60661 56 9.05975 56H40.6839C43.1344 56 45.1282 54.0063 45.1282 51.5558L45.1281 30.6322H51.5559C54.0064 30.6322 56.0001 28.6385 56.0001 26.188V4.44423C56 1.99369 54.0063 0 51.5557 0V0ZM54.3594 7.07656V10.8719H12.5125V7.07656H54.3594ZM51.5558 28.9916H45.0509C44.6648 26.9317 42.8541 25.3677 40.6839 25.3677H12.5125V12.5125H54.3594V26.188C54.3594 27.7339 53.1017 28.9916 51.5558 28.9916Z" fill="#008E62"/>
<path d="M45.0588 23.3844C42.6083 23.3844 40.6145 21.3907 40.6145 18.9402C40.6145 16.4896 42.6083 14.4958 45.0588 14.4958C47.5094 14.4958 49.5032 16.4896 49.5032 18.9402C49.5032 21.3907 47.5094 23.3844 45.0588 23.3844ZM45.0588 16.1365C43.5128 16.1365 42.2551 17.3942 42.2551 18.9402C42.2551 20.4861 43.5128 21.7438 45.0588 21.7438C46.6049 21.7438 47.8626 20.4861 47.8626 18.9402C47.8626 17.3942 46.6049 16.1365 45.0588 16.1365Z" fill="#008E62"/>
<path d="M34.1869 37.8803C31.7364 37.8803 29.7427 35.8866 29.7427 33.436C29.7427 30.9855 31.7364 28.9917 34.1869 28.9917C36.6375 28.9917 38.6313 30.9855 38.6313 33.436C38.6313 35.8866 36.6376 37.8803 34.1869 37.8803ZM34.1869 30.6323C32.641 30.6323 31.3833 31.89 31.3833 33.436C31.3833 34.9819 32.641 36.2397 34.1869 36.2397C35.7329 36.2397 36.9906 34.9819 36.9906 33.436C36.9906 31.89 35.7329 30.6323 34.1869 30.6323Z" fill="#008E62"/>
<path d="M21.6891 18.1199H16.1912C15.2563 18.1199 14.4958 18.8804 14.4958 19.8152V21.6891C14.4958 22.6239 15.2563 23.3844 16.1912 23.3844H21.6891C22.6239 23.3844 23.3844 22.6239 23.3844 21.6891V19.8152C23.3844 18.8804 22.6239 18.1199 21.6891 18.1199ZM21.7438 21.6891C21.7438 21.7192 21.7192 21.7438 21.6891 21.7438H16.1912C16.1611 21.7438 16.1365 21.7192 16.1365 21.6891V19.8152C16.1365 19.7851 16.1611 19.7605 16.1912 19.7605H21.6891C21.7192 19.7605 21.7438 19.7851 21.7438 19.8152V21.6891Z" fill="#008E62"/>
<path d="M30.7488 18.1199H27.063C26.1282 18.1199 25.3677 18.8804 25.3677 19.8152V21.6891C25.3677 22.6239 26.1282 23.3844 27.063 23.3844H30.7488C31.6837 23.3844 32.4441 22.6239 32.4441 21.6891V19.8152C32.4441 18.8804 31.6837 18.1199 30.7488 18.1199ZM30.8035 21.6891C30.8035 21.7192 30.7789 21.7438 30.7488 21.7438H27.063C27.0329 21.7438 27.0083 21.7192 27.0083 21.6891V19.8152C27.0083 19.7851 27.0329 19.7605 27.063 19.7605H30.7488C30.7789 19.7605 30.8035 19.7851 30.8035 19.8152V21.6891Z" fill="#008E62"/>
</g>
<defs>
<clipPath id="clip0">
<rect width="56" height="56" fill="white"/>
</clipPath>
</defs>
</svg>
