<svg width="56" height="56" viewBox="0 0 56 56" fill="none" xmlns="http://www.w3.org/2000/svg">
<path d="M13.0667 33.7699H26.1333V24.4365H13.0667V33.7699ZM14.9333 31.9032V29.1032H24.2667V31.9032H14.9333ZM24.2667 26.3032V27.2365H14.9333V26.3032H24.2667Z" fill="#008E62"/>
<path d="M13.0667 37.5032V48.7032H26.1333V37.5032H13.0667ZM18.6667 39.3698V42.1698H14.9333V39.3698H18.6667ZM14.9333 44.0365H18.6667V46.8365H14.9333V44.0365ZM20.5333 46.8365V44.0365H24.2667V46.8365H20.5333ZM24.2667 42.1698H20.5333V39.3698H24.2667V42.1698Z" fill="#FCCE00"/>
<path d="M29.8667 33.7699H42.9334V24.4365H29.8667V33.7699ZM31.7334 31.9032V30.9699H41.0667V31.9032H31.7334ZM41.0667 26.3032V29.1032H31.7334V26.3032H41.0667Z" fill="#008E62"/>
<path d="M55.0667 44.9698C54.5505 44.9698 54.1333 45.388 54.1333 45.9032V46.8365H53.2V45.9032C53.2 45.388 52.7828 44.9698 52.2667 44.9698C51.7505 44.9698 51.3333 45.388 51.3333 45.9032V46.8365H50.4V27.9794C50.8863 28.1978 51.4015 28.3182 51.9176 28.3182C52.9191 28.3182 53.914 27.9113 54.6495 27.1198C55.3588 26.3564 55.7181 25.3232 55.636 24.2844C55.5529 23.2465 55.0349 22.2824 54.2155 21.6402L30.5405 3.12196L28 0.763428L25.5201 3.07063L1.78547 21.6402C0.965067 22.2824 0.447067 23.2465 0.364933 24.2844C0.2828 25.3232 0.642133 26.3564 1.35147 27.1198C2.46587 28.3201 4.17107 28.6225 5.60093 27.9804V46.8374H4.66667V45.9041C4.66667 45.3889 4.24947 44.9708 3.73333 44.9708C3.2172 44.9708 2.8 45.3889 2.8 45.9041V46.8374H1.86667V45.9041C1.86667 45.3889 1.44947 44.9708 0.933333 44.9708C0.4172 44.9708 0 45.3889 0 45.9041V54.3041C0 54.8193 0.4172 55.2374 0.933333 55.2374C1.44947 55.2374 1.86667 54.8193 1.86667 54.3041V53.3708H2.8V54.3041C2.8 54.8193 3.2172 55.2374 3.73333 55.2374C4.24947 55.2374 4.66667 54.8193 4.66667 54.3041V53.3708H5.6V55.2374H29.8667H42.9333H50.4V53.3708H51.3333V54.3041C51.3333 54.8193 51.7505 55.2374 52.2667 55.2374C52.7828 55.2374 53.2 54.8193 53.2 54.3041V53.3708H54.1333V54.3041C54.1333 54.8193 54.5505 55.2374 55.0667 55.2374C55.5828 55.2374 56 54.8193 56 54.3041V45.9041C56 45.388 55.5828 44.9698 55.0667 44.9698ZM2.71787 25.8486C2.35853 25.4613 2.184 24.9582 2.226 24.4318C2.268 23.9054 2.51907 23.436 2.93627 23.1102L26.7307 4.49023L28.0009 3.30956L29.33 4.54063L53.0647 23.1102C53.4809 23.436 53.7329 23.9054 53.7749 24.4318C53.8169 24.9582 53.6415 25.4622 53.2831 25.8486C52.6223 26.5598 51.5461 26.6494 50.7761 26.0568L50.4 25.7674L28 8.50076L5.964 25.4874L5.96307 25.4884L5.2248 26.0568C4.45387 26.6494 3.37867 26.5598 2.71787 25.8486ZM1.86667 51.5032V48.7032H2.8V51.5032H1.86667ZM4.66667 51.5032V48.7032H5.6V51.5032H4.66667ZM31.7333 53.3698V39.3698H41.0667V53.3698H31.7333ZM48.5333 53.3698H42.9333V37.5032H29.8667V53.3698H7.46667V26.6849L28 10.8565L48.5333 26.6849V53.3698ZM50.4 51.5032V48.7032H51.3333V51.5032H50.4ZM53.2 51.5032V48.7032H54.1333V51.5032H53.2Z" fill="#008E62"/>
</svg>
