<svg width="56" height="56" viewBox="0 0 56 56" fill="none" xmlns="http://www.w3.org/2000/svg">
<g clip-path="url(#clip0)">
<path d="M55.2668 24.5502C54.7936 24.3503 54.263 24.4655 53.9153 24.844C52.4254 26.4656 50.5119 28.7237 49.8574 30.2725C49.0049 32.2905 48.9473 34.1477 49.6142 35.196C49.4099 35.5673 49.1971 35.9341 48.975 36.2954C48.7901 34.6862 47.9738 32.3523 47.2837 30.5956C47.099 30.1257 46.6503 29.8314 46.1495 29.8479C45.6451 29.8636 45.2188 30.184 45.0638 30.6645C44.4234 32.6475 43.6704 35.3458 43.7199 36.9394C43.7781 38.8212 44.3477 40.3326 45.1935 41.0836C45.1561 41.1209 45.1191 41.1591 45.0816 41.1961C44.3736 41.4172 43.8648 41.8358 43.6557 42.4355C43.6456 42.4642 43.6378 42.4932 43.6293 42.5222C43.5612 42.5796 43.4925 42.6367 43.4236 42.6936C43.3196 42.0848 43.1261 41.4321 42.8385 40.7608C42.2105 39.295 40.389 37.1669 38.9715 35.6397C38.6281 35.2697 38.1062 35.159 37.6424 35.3578C37.1786 35.5565 36.8988 36.0107 36.93 36.5146C37.0579 38.5943 37.3424 41.3811 37.9704 42.8467C38.4108 43.8746 38.9716 44.7145 39.5767 45.3095C39.4291 45.3908 39.281 45.4706 39.1325 45.5484C38.6137 45.626 38.2263 45.7774 37.9367 45.9593V45.0971C37.9367 44.1313 37.1508 43.3455 36.185 43.3455H35.1786C35.2078 42.7905 34.966 42.2559 34.5006 41.903L32.3069 40.2403C31.5726 39.6838 31.1341 38.8014 31.1341 37.88V34.7153C33.6985 33.9577 35.9281 32.2949 37.4049 29.9548L37.509 29.7897H39.3918C41.5486 29.7897 43.6826 29.0717 45.4006 27.768L51.5695 23.087C54.7236 20.6937 55.9558 16.5776 54.6353 12.8448C53.3733 9.27712 49.9828 6.84987 46.1983 6.80481C45.3439 6.79475 44.5134 6.79332 43.7202 6.80021V3.19456C43.7202 2.2104 42.9195 1.40978 41.9353 1.40978H22.0886C21.6367 1.40978 21.2704 1.77607 21.2704 2.2279C21.2704 2.67973 21.6366 3.04603 22.0886 3.04603H41.9352C42.0172 3.04603 42.0839 3.11275 42.0839 3.19467V13.0576C42.0839 17.2555 40.8997 21.3508 38.6594 24.9008L36.0211 29.0814C34.2579 31.8754 31.2388 33.5394 27.9376 33.5394C27.9223 33.5394 27.9069 33.5394 27.8913 33.5393C24.5722 33.5237 21.5489 31.8287 19.8039 29.0052L17.2303 24.8409C15.0623 21.3328 13.9164 17.2986 13.9164 13.1747V3.19456C13.9164 3.11264 13.9831 3.04592 14.0651 3.04592H18.2547C18.7066 3.04592 19.0729 2.67962 19.0729 2.22779C19.0729 1.77596 18.7067 1.40967 18.2547 1.40967H14.0651C13.081 1.40967 12.2802 2.21029 12.2802 3.19445V6.79989C11.4877 6.79289 10.6573 6.79442 9.80213 6.80459C6.01765 6.84965 2.62702 9.2769 1.36516 12.8446C0.0446767 16.5774 1.27679 20.6934 4.43094 23.0868L10.5998 27.7677C12.3179 29.0715 14.4519 29.7895 16.6086 29.7895H18.3653L18.4121 29.8652C19.8463 32.1857 22.018 33.854 24.529 34.6499V37.8797C24.529 38.801 24.0906 39.6835 23.3562 40.2401L21.1624 41.9028C20.697 42.2555 20.4551 42.7903 20.4845 43.3452H19.8154C18.8496 43.3452 18.0638 44.1311 18.0638 45.0969V45.9591C17.7738 45.777 17.386 45.6255 16.8664 45.5479C16.7185 45.4705 16.5708 45.3904 16.4234 45.3094C17.0286 44.7144 17.5895 43.8744 18.0299 42.8465C18.6578 41.3809 18.9423 38.5941 19.0702 36.5143C19.1013 36.0104 18.8216 35.5564 18.3578 35.3576C17.8938 35.1589 17.3722 35.2694 17.0288 35.6395C15.6114 37.1664 13.7899 39.2945 13.1617 40.7605C12.874 41.4317 12.6806 42.0847 12.5765 42.6936C12.5075 42.6366 12.4389 42.5791 12.3707 42.5214C12.3623 42.4927 12.3545 42.4638 12.3446 42.4351C12.1354 41.8353 11.6266 41.4169 10.9186 41.1957C10.8811 41.1587 10.8443 41.1204 10.8068 41.0832C11.6524 40.3321 12.2221 38.8205 12.2803 36.939C12.3298 35.3454 11.5768 32.6472 10.9365 30.6642C10.7814 30.1838 10.3551 29.8634 9.85069 29.8477C9.34997 29.831 8.9011 30.1255 8.71647 30.5955C8.02632 32.3524 7.20983 34.6869 7.0251 36.296C6.80285 35.9347 6.59033 35.5674 6.38591 35.1959C7.05277 34.1476 6.99524 32.2904 6.14255 30.2723C5.48816 28.7234 3.57475 26.4654 2.08485 24.8438C1.73715 24.4654 1.20657 24.3499 0.733302 24.55C0.260036 24.7501 -0.0270732 25.2109 0.00202053 25.7237C0.126271 27.9225 0.41163 30.8685 1.06591 32.4172C2.01583 34.6655 3.51055 36.0684 4.83935 36.0684C4.89119 36.0684 4.94271 36.0652 4.994 36.061C5.67257 37.2848 6.44432 38.4614 7.29361 39.5638C7.32544 39.6051 7.3611 39.6413 7.39861 39.6747C7.63147 40.3013 7.95369 40.8015 8.3435 41.135C7.9095 41.2152 7.4568 41.3346 6.99261 41.4965C5.48685 42.0216 3.23766 43.6913 1.61607 44.9994C1.22308 45.3164 1.07652 45.8292 1.24266 46.3058C1.45747 46.9795 2.15069 47.1597 2.78922 47.0986C4.812 47.0986 7.33496 46.9862 8.73627 46.4975H8.73638C10.2437 45.972 11.3862 45.1753 11.9813 44.3161C12.1962 44.486 12.4132 44.6527 12.6314 44.8146C12.7816 45.3271 13.0471 45.7337 13.4233 45.9945C11.9189 46.5463 9.71518 48.1833 8.11874 49.4711C7.72586 49.7882 7.57941 50.3009 7.74555 50.7775C7.96036 51.4511 8.65369 51.6313 9.29201 51.5701C11.3148 51.5701 13.8378 51.4578 15.2391 50.9691C16.3397 50.5853 17.315 50.0149 17.9852 49.3628C18.0121 49.3367 18.0377 49.3107 18.0632 49.2847V52.8383C18.0632 53.8041 18.8491 54.59 19.8149 54.59H30.2612C30.713 54.59 31.0793 54.2237 31.0793 53.7719C31.0793 53.32 30.7131 52.9537 30.2612 52.9537H19.8149C19.7512 52.9537 19.6994 52.9019 19.6994 52.8382V45.0965C19.6994 45.0328 19.7511 44.9809 19.8149 44.9809H36.1843C36.2479 44.9809 36.2998 45.0328 36.2998 45.0965V52.8382C36.2998 52.9019 36.248 52.9537 36.1843 52.9537H34.2084C33.7566 52.9537 33.3903 53.32 33.3903 53.7719C33.3903 54.2237 33.7565 54.59 34.2084 54.59H36.1843C37.15 54.59 37.9359 53.8041 37.9359 52.8383V49.2847C37.9614 49.3107 37.987 49.3367 38.0139 49.3628C38.6841 50.0149 39.6594 50.5853 40.7601 50.9691H40.76C42.1615 51.4578 44.6843 51.5701 46.7071 51.5701C47.3454 51.6314 48.0391 51.4509 48.2536 50.7775C48.4197 50.3009 48.2733 49.7882 47.8803 49.4711C46.2839 48.1834 44.0803 46.5463 42.5759 45.9946C42.9523 45.7336 43.2178 45.3267 43.368 44.8137C43.5863 44.6517 43.8035 44.4861 44.0181 44.3165C44.6133 45.1756 45.7558 45.9721 47.2629 46.4977H47.263C48.6645 46.9863 51.1873 47.0987 53.21 47.0987C53.8483 47.1599 54.5421 46.9793 54.7566 46.3059C54.9227 45.8294 54.7761 45.3166 54.3832 44.9996C52.7616 43.6914 50.5124 42.0217 49.0065 41.4966C48.5424 41.3348 48.0897 41.2153 47.6557 41.1351C48.0359 40.8098 48.3515 40.3257 48.5829 39.7208C48.5857 39.7172 48.5891 39.7141 48.592 39.7105C49.4869 38.565 50.2966 37.339 51.0051 36.0611C51.0565 36.0654 51.1081 36.0685 51.1601 36.0685C52.4889 36.0685 53.9835 34.6656 54.9335 32.4173C55.5879 30.8686 55.8733 27.9226 55.9974 25.7239C56.0271 25.211 55.7401 24.7502 55.2668 24.5502ZM39.861 26.0622C41.0505 25.9709 42.2064 25.5359 43.1587 24.8134L45.6362 22.9334C45.9962 22.6602 46.0666 22.1471 45.7934 21.7871C45.5204 21.4273 45.0074 21.3568 44.6473 21.6299L42.1697 23.51C41.8057 23.7862 41.401 24.0047 40.9738 24.1613C42.7746 20.7445 43.7199 16.9421 43.7199 13.0574V12.1457C44.4938 12.1384 45.3023 12.1392 46.1344 12.1491C47.6873 12.1676 49.0785 13.1634 49.5963 14.6272C50.138 16.1586 49.6325 17.8472 48.3384 18.8292L47.4534 19.5008C47.0934 19.7739 47.023 20.2871 47.2961 20.6471C47.4571 20.8592 47.7012 20.9707 47.9484 20.9707C48.1207 20.9707 48.2945 20.9165 48.4422 20.8043L49.3273 20.1327C51.1909 18.7187 51.9187 16.287 51.1386 14.0817C50.3931 11.974 48.3897 10.54 46.1538 10.5133C45.3155 10.5033 44.5004 10.5023 43.7198 10.5097V8.43636C44.5059 8.42936 45.3298 8.43067 46.1785 8.44084C49.2797 8.47781 52.0583 10.4669 53.0924 13.3904C54.1745 16.4493 53.1648 19.8223 50.5801 21.7836L44.4112 26.4645C42.9759 27.5537 41.1931 28.1535 39.3913 28.1535H38.5411L39.861 26.0622ZM14.9496 24.1316C14.5494 23.9769 14.1706 23.7682 13.8304 23.5101L7.66166 18.8292C6.36765 17.8473 5.86211 16.1587 6.40385 14.6272C6.92163 13.1635 8.31277 12.1677 9.86557 12.1492C10.6976 12.1394 11.5061 12.1386 12.2802 12.1459V13.1746C12.2801 16.9997 13.199 20.7523 14.9496 24.1316ZM16.6085 28.1534C14.8067 28.1534 13.024 27.5536 11.5887 26.4644L5.4198 21.7835C2.83505 19.8222 1.82541 16.4493 2.90746 13.3903C3.94171 10.4668 6.72016 8.4777 9.82138 8.44073C10.6707 8.43067 11.4946 8.42925 12.2801 8.43625V10.5096C11.499 10.5022 10.684 10.5031 9.84599 10.5131C7.61015 10.5397 5.60683 11.9738 4.86133 14.0814C4.08116 16.2867 4.80905 18.7185 6.67258 20.1325L12.8413 24.8134C13.7657 25.5148 14.8983 25.9502 16.0575 26.0554L17.354 28.1534H16.6085ZM14.6656 41.4049C15.0081 40.6058 15.9629 39.2995 17.3389 37.7354C17.1556 39.8107 16.8683 41.4032 16.5261 42.2022C15.7229 44.0764 14.6101 44.7626 14.3718 44.6605C14.1326 44.558 13.8623 43.2796 14.6656 41.4049ZM8.62197 36.8258C8.64888 35.9571 9.06079 34.3922 9.77063 32.4336C10.3579 34.4325 10.672 36.0199 10.6451 36.8885C10.5821 38.9193 9.80322 39.9639 9.5404 39.9638C9.53941 39.9638 9.53832 39.9638 9.53744 39.9638C9.27746 39.9558 8.55897 38.8644 8.62197 36.8258ZM2.5731 31.7806C2.20527 30.9101 1.9034 29.1617 1.72107 26.8875C3.22454 28.6034 4.26765 30.0386 4.63547 30.9092C5.47941 32.9068 5.20291 34.2938 4.90366 34.4202C4.6043 34.5464 3.41725 33.7781 2.5731 31.7806ZM8.19793 44.9528C7.37718 45.2391 5.76893 45.4153 3.68566 45.4544C5.34127 44.1899 6.71065 43.328 7.53151 43.0417C8.35466 42.7547 9.05543 42.656 9.59486 42.656C10.3175 42.656 10.7506 42.8335 10.7996 42.9741C10.8853 43.2196 10.1237 44.2814 8.19793 44.9528ZM16.8448 48.1904C16.3494 48.6724 15.5681 49.1221 14.7009 49.4244H14.7008C13.8802 49.7107 12.2717 49.8869 10.1887 49.926C11.8444 48.6615 13.2139 47.7994 14.0346 47.5133C14.9037 47.2203 15.6832 47.0796 16.4809 47.1469C17.0374 47.2031 17.2782 47.3756 17.3026 47.4456C17.327 47.5156 17.2458 47.8005 16.8448 48.1904ZM22.1241 43.2927C22.1064 43.2402 22.13 43.2225 22.1506 43.2068L24.3444 41.5441C25.4844 40.68 26.1651 39.3102 26.1651 37.8798V35.0362C26.7277 35.1249 27.3016 35.1727 27.8836 35.1755C27.9019 35.1755 27.9194 35.1756 27.9377 35.1756C28.4649 35.1756 28.9856 35.1381 29.4977 35.0671V37.8798C29.4977 39.3103 30.1784 40.6802 31.3184 41.5441L33.5121 43.2068C33.5328 43.2225 33.5563 43.2402 33.5387 43.2927C33.521 43.3452 33.4917 43.3452 33.4657 43.3452H22.1972C22.1711 43.3452 22.1417 43.3452 22.1241 43.2927ZM46.2295 32.4336C46.9393 34.3922 47.3511 35.9571 47.3781 36.8258C47.4412 38.8644 46.7228 39.9558 46.4628 39.9638C46.4618 39.9638 46.4608 39.9638 46.4598 39.9638C46.1969 39.9638 45.418 38.9191 45.3551 36.8884C45.3281 36.0199 45.6422 34.4325 46.2295 32.4336ZM39.474 42.2022C39.1318 41.4032 38.8445 39.8107 38.6612 37.7354C40.0373 39.2995 40.9922 40.6059 41.3345 41.4049C42.1376 43.2796 41.8674 44.558 41.6283 44.6605C41.3901 44.7633 40.2771 44.0763 39.474 42.2022ZM41.2993 49.4244C40.4321 49.1221 39.6507 48.6724 39.1553 48.1904C38.7543 47.8005 38.6731 47.5157 38.6975 47.4456C38.7219 47.3755 38.9627 47.2031 39.5192 47.1469C40.3166 47.0796 41.0968 47.2204 41.9656 47.5133C42.7862 47.7994 44.1557 48.6615 45.8114 49.926C43.7287 49.887 42.1199 49.7107 41.2993 49.4244ZM52.3144 45.4543C50.2315 45.4153 48.6229 45.239 47.8021 44.9527H47.8022C45.8764 44.2813 45.1148 43.2195 45.2005 42.9739C45.286 42.7283 46.5427 42.3701 48.4685 43.0416C49.2895 43.3279 50.6587 44.1899 52.3144 45.4543ZM53.427 31.7806C52.5832 33.7778 51.3972 34.5476 51.0964 34.4202C50.7972 34.2938 50.5207 32.9068 51.3645 30.9092C51.7325 30.0386 52.7756 28.6034 54.279 26.8875C54.0967 29.1616 53.7948 30.9101 53.427 31.7806Z" fill="#008E62"/>
<path d="M27.7404 23.4633C31.6689 23.4633 34.8649 20.2672 34.8649 16.3388C34.8649 12.4104 31.6689 9.21436 27.7404 9.21436C23.812 9.21436 20.616 12.4104 20.616 16.3388C20.616 20.2672 23.812 23.4633 27.7404 23.4633ZM27.7404 10.8505C30.7667 10.8505 33.2288 13.3125 33.2288 16.3388C33.2288 19.3651 30.7667 21.8272 27.7404 21.8272C24.7141 21.8272 22.2521 19.3651 22.2521 16.3388C22.2521 13.3125 24.7141 10.8505 27.7404 10.8505Z" fill="#FCCE00"/>
<path d="M25.1314 17.4924L24.9152 18.7523C24.8355 19.2172 25.023 19.6781 25.4045 19.9553C25.786 20.2326 26.2822 20.2685 26.6999 20.0491L27.8314 19.4542L28.9628 20.049C29.3785 20.2678 29.8756 20.2334 30.2582 19.9553C30.6398 19.6781 30.8273 19.2172 30.7476 18.7524L30.5314 17.4924L31.4469 16.6001C31.7845 16.271 31.9037 15.7878 31.7582 15.3394C31.6125 14.8908 31.232 14.57 30.7652 14.5022L29.5001 14.3184L28.9344 13.172C28.7258 12.7492 28.3032 12.4864 27.8317 12.4863C27.8316 12.4863 27.8316 12.4863 27.8315 12.4863C27.36 12.4863 26.9373 12.749 26.7285 13.172L26.1628 14.3184L24.8977 14.5022C24.431 14.57 24.0506 14.8908 23.9048 15.3393C23.7592 15.7878 23.8784 16.2709 24.2161 16.6001L25.1314 17.4924ZM26.6091 15.9068C27.01 15.8485 27.3563 15.597 27.5353 15.2339L27.8313 14.6341L28.1274 15.2343C28.3066 15.5973 28.6528 15.8486 29.0533 15.9068L29.7153 16.003L29.2364 16.4697C28.9464 16.7522 28.814 17.1593 28.8825 17.5585L28.9956 18.2178L28.4038 17.9067C28.2245 17.8125 28.0279 17.7653 27.8312 17.7653C27.6346 17.7653 27.438 17.8123 27.2587 17.9066L26.6668 18.2179L26.7799 17.5586C26.8481 17.1597 26.7161 16.7527 26.4262 16.47L25.9471 16.0031L26.6091 15.9068Z" fill="#FCCE00"/>
</g>
<defs>
<clipPath id="clip0">
<rect width="56" height="56" fill="white"/>
</clipPath>
</defs>
</svg>
