<svg width="56" height="56" viewBox="0 0 56 56" fill="none" xmlns="http://www.w3.org/2000/svg">
<path d="M48.4945 25.499H31.6576C31.2043 25.499 30.8373 25.8665 30.8373 26.3193C30.8373 26.7726 31.2043 27.1396 31.6576 27.1396H48.4945C48.9478 27.1396 49.3148 26.7726 49.3148 26.3193C49.3148 25.8665 48.9474 25.499 48.4945 25.499Z" fill="#008E62"/>
<path d="M48.4945 29.895H31.6576C31.2043 29.895 30.8373 30.262 30.8373 30.7153C30.8373 31.1682 31.2043 31.5356 31.6576 31.5356H48.4945C48.9478 31.5356 49.3148 31.1682 49.3148 30.7153C49.3148 30.262 48.9474 29.895 48.4945 29.895Z" fill="#008E62"/>
<path d="M48.4945 34.2905H31.6576C31.2043 34.2905 30.8373 34.658 30.8373 35.1108C30.8373 35.5641 31.2043 35.9312 31.6576 35.9312H48.4945C48.9478 35.9312 49.3148 35.5641 49.3148 35.1108C49.3148 34.658 48.9474 34.2905 48.4945 34.2905Z" fill="#008E62"/>
<path d="M48.4945 38.6865H31.6576C31.2043 38.6865 30.8373 39.054 30.8373 39.5068C30.8373 39.9597 31.2043 40.3271 31.6576 40.3271H48.4945C48.9478 40.3271 49.3148 39.9597 49.3148 39.5068C49.3148 39.054 48.9474 38.6865 48.4945 38.6865Z" fill="#008E62"/>
<path d="M10.3957 15.7419C11.4515 15.6091 12.5016 15.542 13.5176 15.542C19.1351 15.542 22.8538 17.4996 24.5705 18.666C24.7115 18.7621 24.8721 18.8083 25.0306 18.8083C25.2934 18.8083 25.5515 18.6823 25.71 18.449C25.9646 18.0743 25.8672 17.5641 25.4925 17.3091C23.6203 16.0367 19.5743 13.9014 13.5176 13.9014C12.4337 13.9014 11.3148 13.9731 10.1915 14.1141C9.74206 14.1705 9.42334 14.5807 9.47973 15.0302C9.53613 15.4796 9.945 15.7983 10.3957 15.7419Z" fill="#008E62"/>
<path d="M10.3957 21.1218C11.4515 20.989 12.5016 20.9219 13.5176 20.9219C19.1351 20.9219 22.8538 22.8791 24.5705 24.0459C24.7115 24.142 24.8721 24.1877 25.0306 24.1877C25.2934 24.1877 25.5515 24.0621 25.71 23.8289C25.9646 23.4537 25.8672 22.9436 25.4925 22.689C23.6203 21.4162 19.5743 19.2812 13.5176 19.2812C12.4337 19.2812 11.3148 19.3526 10.1915 19.4936C9.74206 19.5504 9.42334 19.9606 9.47973 20.41C9.53613 20.8595 9.945 21.1782 10.3957 21.1218Z" fill="#008E62"/>
<path d="M25.0305 29.5676C25.2933 29.5676 25.5509 29.442 25.7098 29.2083C25.9645 28.8336 25.8671 28.3235 25.4924 28.0688C23.6198 26.7961 19.5742 24.6611 13.5175 24.6611C12.4336 24.6611 11.3142 24.7325 10.1914 24.8735C9.74152 24.9299 9.42322 25.34 9.47962 25.7899C9.53601 26.2394 9.94489 26.5577 10.3956 26.5013C11.4514 26.3688 12.5015 26.3018 13.5175 26.3018C19.135 26.3018 22.8537 28.259 24.5704 29.4258C24.7114 29.5219 24.8716 29.5676 25.0305 29.5676Z" fill="#008E62"/>
<path d="M25.4925 33.4488C23.9886 32.4264 20.7522 30.6405 15.9752 30.1624C15.5236 30.1167 15.1224 30.4461 15.0775 30.8969C15.0322 31.3476 15.3612 31.7497 15.812 31.7949C20.228 32.2367 23.1948 33.8709 24.5705 34.8058C24.7115 34.9019 24.8717 34.9476 25.0307 34.9476C25.2934 34.9476 25.551 34.822 25.71 34.5883C25.9646 34.2136 25.8672 33.7035 25.4925 33.4488Z" fill="#008E62"/>
<path d="M12.0277 30.0846C11.424 30.1192 10.8062 30.176 10.1914 30.2533C9.74152 30.3097 9.42322 30.7199 9.47962 31.1693C9.53174 31.5842 9.88508 31.8875 10.2922 31.8875C10.3264 31.8875 10.361 31.8854 10.3956 31.8811C10.9741 31.8085 11.5552 31.7551 12.1226 31.7222C12.575 31.6961 12.9202 31.3082 12.8942 30.8557C12.8681 30.4037 12.4797 30.0568 12.0277 30.0846Z" fill="#008E62"/>
<path d="M48.1365 15.5054H32.0156C31.3658 15.5054 30.8373 16.0339 30.8373 16.6837V21.0399C30.8373 21.6893 31.3658 22.2178 32.0156 22.2178H34.239C34.6923 22.2178 35.0593 21.8504 35.0593 21.3975C35.0593 20.9446 34.6923 20.5772 34.239 20.5772H32.4779V17.146H47.6742V20.5772H38.056C37.6027 20.5772 37.2357 20.9446 37.2357 21.3975C37.2357 21.8504 37.6027 22.2178 38.056 22.2178H48.1365C48.7863 22.2178 49.3148 21.6893 49.3148 21.0399V16.6837C49.3148 16.0339 48.7863 15.5054 48.1365 15.5054Z" fill="#FCCE00"/>
<path d="M54.6694 14.957H52.9724V11.9637C52.9724 11.0742 52.2487 10.3504 51.3591 10.3504H28.305C27.6799 9.83177 25.9163 8.49791 23.0943 7.36699C19.8806 6.07927 14.6114 4.82018 7.76134 6.13567C7.03331 6.27538 6.50481 6.91496 6.50481 7.65623V10.3504H4.31731C3.60595 10.3504 3.02746 10.9294 3.02746 11.6403V14.957H1.33044C0.596862 14.957 0 15.5539 0 16.2874V48.1335C0 48.867 0.596862 49.4643 1.33044 49.4643H23.152C23.2955 49.4643 23.4323 49.5327 23.5177 49.648C23.9116 50.177 24.5401 50.4931 25.1998 50.4931H30.8001C31.4593 50.4931 32.0883 50.177 32.4822 49.648C32.5676 49.5331 32.7048 49.4643 32.8479 49.4643H54.6694C55.403 49.4643 55.9999 48.867 55.9999 48.1335V16.2874C55.9999 15.5539 55.403 14.957 54.6694 14.957ZM28.8203 11.9911H51.3318V44.9641H28.8203V11.9911ZM8.14543 7.73271C14.5293 6.52318 19.4234 7.67632 22.409 8.85978C24.9477 9.86637 26.5776 11.0648 27.1796 11.5506V44.1272C25.0165 42.6583 20.3621 40.1863 13.5343 40.1863C11.8663 40.1863 10.0676 40.3341 8.14543 40.6797V7.73271ZM4.66808 11.9911H6.50481V40.7921C6.50481 41.2527 6.70775 41.6863 7.06194 41.9816C7.41527 42.2755 7.87627 42.3968 8.32786 42.3139C14.6537 41.1535 19.5025 42.3148 22.456 43.4936C23.6694 43.9781 24.6661 44.4989 25.4416 44.9637H4.66808V11.9911ZM54.3593 47.8237H32.8479C32.1887 47.8237 31.5598 48.1394 31.1658 48.6684C31.0804 48.7837 30.9432 48.8525 30.8001 48.8525H25.1998C25.0562 48.8525 24.9195 48.7837 24.8341 48.6688C24.4401 48.1394 23.8112 47.8237 23.152 47.8237H1.64062V16.5976H3.02746V45.3149C3.02746 46.0259 3.60638 46.6048 4.31731 46.6048H51.3591C52.2487 46.6048 52.9724 45.881 52.9724 44.9911V16.5976H54.3593V47.8237Z" fill="#008E62"/>
</svg>
