<svg width="56" height="56" viewBox="0 0 56 56" fill="none" xmlns="http://www.w3.org/2000/svg">
<g clip-path="url(#clip0)">
<path d="M22.5783 55.6347C22.7657 55.3587 22.7836 54.9022 22.4757 54.5991L17.7603 49.8848C17.5823 49.6819 17.0004 49.4952 16.5996 49.8842L11.8844 54.5994C11.4055 55.0294 11.6991 56.0187 12.4646 55.9997H21.896C22.1518 55.977 22.3721 55.9272 22.5783 55.6347ZM17.1797 51.6243L19.9152 54.3591H14.4449L17.1797 51.6243Z" fill="#008E62"/>
<path d="M6.43847 55.984C6.57989 55.9479 6.71092 55.9048 6.85836 55.7595L14.3811 48.2366C14.7015 47.9163 14.7015 47.3969 14.3811 47.0766C14.0607 46.7562 13.5414 46.7562 13.221 47.0766L5.93852 54.3592H4.23632C2.80516 54.3592 1.64087 53.1949 1.64087 51.7637V24.3859L4.92976 27.6748C4.16797 29.01 3.7682 30.5142 3.7682 32.0643C3.7682 36.9626 7.7537 40.9477 12.6526 40.9477C14.203 40.9477 15.7069 40.548 17.0411 39.7864L18.7758 41.5218L15.9439 44.3538C15.6235 44.6742 15.6235 45.1936 15.9439 45.5139C16.1041 45.674 16.3141 45.7542 16.524 45.7542C16.7339 45.7542 16.9439 45.6741 17.1041 45.5139L20.516 42.1019C20.8309 41.787 20.8354 41.2802 20.5313 40.9587C20.526 40.9533 20.5215 40.9474 20.5161 40.942L17.7414 38.1661C17.4633 37.8879 17.027 37.8464 16.7012 38.0668C15.5029 38.8782 14.1029 39.3071 12.6526 39.3071C8.65823 39.3071 5.40882 36.058 5.40882 32.0643C5.40882 30.6144 5.83779 29.214 6.64935 28.0145C6.86963 27.6889 6.82796 27.2528 6.55003 26.9748L1.40068 21.8254C0.966681 21.3596 -0.00193965 21.6115 0.00024784 22.406V51.7637C0.00024784 54.0995 1.90052 55.9998 4.23632 55.9998H6.27835C6.29464 55.9996 6.3513 55.9991 6.43847 55.984Z" fill="#008E62"/>
<path d="M55.9998 19.699C55.9998 19.246 55.6326 18.8787 55.1795 18.8787C54.7264 18.8787 54.3592 19.246 54.3592 19.699V31.09L49.3889 26.1197C49.0258 25.7566 49.0258 25.1658 49.3887 24.8027C50.391 23.7998 50.3908 22.1683 49.3882 21.1656L47.6259 19.403C47.45 19.2272 47.3531 18.9933 47.3531 18.7445C47.3531 18.4958 47.45 18.2618 47.6259 18.086L54.3592 11.3518V15.8543C54.3592 16.3073 54.7264 16.6746 55.1795 16.6746C55.6326 16.6746 55.9998 16.3073 55.9998 15.8543V4.23608C55.9998 1.90027 54.0995 0 51.7637 0H45.7022C45.2491 0 44.8819 0.36728 44.8819 0.820309V7.97559C44.8819 9.72646 44.2002 11.3725 42.9619 12.6106L36.1394 19.4331C36.1393 19.4332 36.1391 19.4332 36.1391 19.4333C36.1391 19.4335 36.139 19.4336 36.1389 19.4336L28.0301 27.5424C27.7956 27.7769 27.7255 28.1294 27.8522 28.4357L30.4856 34.8062C30.697 35.3189 30.5802 35.9035 30.188 36.2956L18.9202 47.5634C18.5998 47.8838 18.5998 48.4032 18.9202 48.7234L25.9563 55.7595C26.0924 55.8844 26.2813 56.0033 26.5364 55.9998H51.7635C54.0993 55.9998 55.9996 54.0995 55.9996 51.7637V19.699H55.9998ZM54.3592 41.1329L37.6831 24.4566C37.3626 24.1362 36.8433 24.1362 36.5229 24.4566C36.2026 24.777 36.2026 25.2964 36.5229 25.6166L48.3647 37.4586L44.0097 41.8136C43.2155 40.1715 42.2369 38.474 41.0298 36.7433C38.5544 33.1938 34.1658 30.2929 30.0595 27.8331L36.7192 21.1735L54.3591 38.8133V41.1329H54.3592ZM50.6845 39.7784L45.3844 45.0787C45.1876 44.5308 44.9723 43.9745 44.734 43.4097L49.5248 38.6189L50.6845 39.7784ZM44.1222 13.7706C45.67 12.2227 46.5225 10.1646 46.5225 7.97559V1.64062H51.7637C53.1949 1.64062 54.3592 2.80491 54.3592 4.23608V9.0315L46.4656 16.9259C45.9799 17.4118 45.7124 18.0576 45.7124 18.7446C45.7124 19.4317 45.9799 20.0776 46.4657 20.5632L48.228 22.3255C48.5911 22.6887 48.5912 23.2795 48.2282 23.6426C47.2259 24.6455 47.2261 26.277 48.2286 27.2797L54.3592 33.4102V36.4917L37.8794 20.0134L44.1222 13.7706ZM31.3482 37.4558C32.2105 36.5937 32.4672 35.3082 32.0022 34.1801L30.2083 29.8406C33.8625 32.0772 37.5795 34.6635 39.6845 37.6817C40.9672 39.5209 41.9795 41.3185 42.778 43.0455L39.012 46.8114L36.1687 43.968C35.5483 43.3477 34.7232 43.006 33.8452 43.006H31.4488C31.0099 43.006 30.5967 42.8346 30.2854 42.5232L28.2831 40.5209L31.3482 37.4558ZM26.8763 54.3592L20.6606 48.1434L27.1227 41.6812L29.1251 43.6836C29.7463 44.3047 30.5714 44.6468 31.4485 44.6468H33.8449C34.2846 44.6468 34.6977 44.8178 35.0082 45.1284L37.8516 47.9718L31.4642 54.3593H26.8763V54.3592ZM33.7844 54.3592L43.4759 44.6677C43.7049 45.2443 43.9111 45.8118 44.0951 46.368L36.1039 54.3592H33.7844ZM44.6252 48.1581C45.2393 50.4965 45.4835 52.5991 45.5356 54.3592H38.4242L44.6252 48.1581ZM51.7637 54.3592H47.1769C47.1183 52.257 46.8021 49.6905 45.9563 46.827L51.8447 40.9385L54.3592 43.453V51.7636C54.3592 53.1949 53.1949 54.3592 51.7637 54.3592Z" fill="#008E62"/>
<path d="M12.6522 26.3511C9.50235 26.3511 6.9397 28.9137 6.9397 32.0636C6.9397 35.2135 9.50235 37.7761 12.6522 37.7761C15.8021 37.7761 18.3647 35.2135 18.3647 32.0636C18.3647 28.9137 15.8021 26.3511 12.6522 26.3511ZM12.6522 36.1354C10.407 36.1354 8.58032 34.3089 8.58032 32.0636C8.58032 29.8184 10.4069 27.9917 12.6522 27.9917C14.8974 27.9917 16.7241 29.8184 16.7241 32.0636C16.7241 34.3089 14.8974 36.1354 12.6522 36.1354Z" fill="#FCCE00"/>
<path d="M0.0051328 17.8469C0.0318202 18.018 0.0754606 18.1778 0.24171 18.3462L7.74338 25.8467C8.01584 26.1191 8.44119 26.1655 8.76549 25.9576C9.92825 25.2137 11.2727 24.8205 12.6535 24.8205C16.6473 24.8205 19.8964 28.07 19.8964 32.0644C19.8964 33.4443 19.5031 34.7884 18.7593 35.9513C18.5517 36.2758 18.5977 36.7011 18.8702 36.9734L21.6778 39.7811C21.838 39.9412 22.048 40.0214 22.2579 40.0214C22.4679 40.0214 22.6778 39.9413 22.8381 39.7811L27.224 35.3951C27.4584 35.1606 27.5286 34.8082 27.402 34.5019L24.7693 28.1306C24.5573 27.618 24.6735 27.0338 25.0661 26.642L41.0304 10.6766C41.7517 9.95527 42.1489 8.99606 42.1489 7.97581V0.820309C42.1489 0.36728 41.7817 0 41.3286 0H4.23716C1.90125 0 0.000976562 1.90027 0.000976562 4.23608V17.7655C0.000976562 17.7927 0.00239843 17.8199 0.0051328 17.8469ZM25.6762 34.6222L22.2576 38.0408L20.4785 36.2617C21.1728 34.9737 21.5369 33.5357 21.5369 32.0642C21.5369 27.1653 17.5518 23.1798 12.6534 23.1798C11.1812 23.1798 9.74286 23.5439 8.45486 24.2381L1.6416 17.4259V12.5958C4.45985 13.2602 7.27329 13.624 10.0287 13.679C10.317 14.3156 10.647 14.9549 11.0277 15.5945C13.4374 19.64 18.2741 22.8094 23.5459 25.9181C22.9816 26.7447 22.8595 27.8066 23.2526 28.7572L25.6762 34.6222ZM1.6416 9.20617C3.64676 9.71848 6.137 10.1902 8.88296 10.348C9.01519 10.8987 9.17641 11.4557 9.36836 12.0168C6.84203 11.914 4.20698 11.5377 1.6416 10.9095V9.20617ZM10.4705 1.64062H18.3179V4.24264C18.3179 5.44117 18.5938 6.59682 19.1119 7.63981C17.6419 8.0212 16.0947 8.32056 14.4954 8.52936C13.0428 8.71868 11.6139 8.78289 10.2381 8.75806C9.7982 6.08801 10.0363 3.62019 10.4705 1.64062ZM14.7076 10.1562C16.5644 9.91382 18.3572 9.55442 20.0476 9.08826C20.2259 9.33206 21.085 10.1785 21.347 10.44C18.149 11.4067 14.6483 11.9543 11.1222 12.0378C10.9133 11.4888 10.737 10.9433 10.5922 10.4033C11.9258 10.4119 13.3054 10.339 14.7076 10.1562ZM24.6959 24.6913C19.4928 21.6352 14.6999 18.5533 12.4374 14.755C12.2193 14.3887 12.0206 14.0224 11.8363 13.6565C15.5872 13.507 19.2956 12.853 22.6541 11.7469L30.147 19.2398L24.6959 24.6913ZM39.8699 9.51635L33.6269 15.7598L27.5589 9.69179C30.2254 8.30678 32.5679 6.59605 34.5335 4.59373C35.4412 3.66427 36.2631 2.67235 36.9829 1.64062H40.508V7.97559C40.5078 8.55768 40.2813 9.10489 39.8699 9.51635ZM34.9435 1.64062C34.4548 2.26394 33.9256 2.86791 33.3611 3.44596C31.4058 5.43778 29.0455 7.12674 26.3391 8.47226L25.1046 7.23786C27.805 5.97032 30.1353 4.3624 32.0431 2.44649C32.3054 2.18257 32.5601 1.91263 32.8031 1.64073H34.9435V1.64062ZM23.8774 5.99482C23.465 5.50373 23.2398 4.89025 23.2398 4.24264V1.64062H30.5207C28.6906 3.38722 26.46 4.84912 23.8774 5.99482ZM21.5992 1.64062V4.24264C21.5804 5.4241 22.1702 6.72358 23.109 7.56227L32.4667 16.92L31.307 18.0797L21.7187 8.49151C20.5836 7.35642 19.9584 5.84749 19.9584 4.24264V1.64062H21.5992ZM4.23716 1.64062H8.79415C8.38848 3.64064 8.18165 6.06449 8.56391 8.68368C5.91683 8.4984 3.53049 8.01497 1.6416 7.51042V4.23608C1.6416 2.80491 2.806 1.64062 4.23716 1.64062Z" fill="#008E62"/>
<path d="M13.9891 31.3178H13.4726V30.8013C13.4726 30.3482 13.1055 29.981 12.6523 29.981C12.1992 29.981 11.832 30.3482 11.832 30.8013V31.3178H11.3154C10.8623 31.3178 10.4951 31.6851 10.4951 32.1382C10.4951 32.5912 10.8623 32.9585 11.3154 32.9585H11.832V33.4749C11.832 33.928 12.1992 34.2952 12.6523 34.2952C13.1055 34.2952 13.4726 33.928 13.4726 33.4749V32.9585H13.9891C14.4422 32.9585 14.8094 32.5912 14.8094 32.1382C14.8094 31.6851 14.4421 31.3178 13.9891 31.3178Z" fill="#FCCE00"/>
<path d="M49.1265 5.07764H51.4032C51.8564 5.07764 52.2235 4.71036 52.2235 4.25732C52.2235 3.80429 51.8564 3.43701 51.4032 3.43701H49.1265C48.6733 3.43701 48.3062 3.80429 48.3062 4.25732C48.3062 4.71036 48.6733 5.07764 49.1265 5.07764Z" fill="#008E62"/>
</g>
<defs>
<clipPath id="clip0">
<rect width="56" height="56" fill="white"/>
</clipPath>
</defs>
</svg>
