<svg width="56" height="56" viewBox="0 0 56 56" fill="none" xmlns="http://www.w3.org/2000/svg">
<g clip-path="url(#clip0)">
<path d="M35.1503 17.004C35.49 16.7043 35.5226 16.186 35.2229 15.8462C34.9232 15.5064 34.4049 15.4739 34.0651 15.7735L29.3764 19.9088C28.5918 20.6007 27.4084 20.6008 26.6238 19.9088L17.1703 11.5714C15.0306 9.68418 14.6271 6.48205 16.2318 4.12311C17.1291 2.80413 18.4918 1.9453 20.0687 1.70499C21.6456 1.46436 23.2024 1.87825 24.4519 2.86986L26.3696 4.39185C27.3295 5.15377 28.6707 5.15366 29.6306 4.39185L31.5482 2.86997C32.7977 1.87836 34.3543 1.46447 35.9314 1.7051C37.5083 1.94551 38.871 2.80435 39.7682 4.12322C41.373 6.48227 40.9695 9.6844 38.8298 11.5716L36.5321 13.5979C36.1923 13.8976 36.1597 14.416 36.4594 14.7558C36.759 15.0954 37.2774 15.1281 37.6173 14.8284L39.915 12.8021C42.6734 10.3692 43.1935 6.24153 41.1247 3.20051C39.9849 1.52485 38.1821 0.388638 36.1787 0.083256C34.1753 -0.222344 32.1157 0.325199 30.5283 1.5849L28.6107 3.10677C28.2511 3.39214 27.749 3.39203 27.3894 3.10677L25.4717 1.58479C23.8843 0.324871 21.825 -0.222672 19.8214 0.0829279C17.818 0.388309 16.0152 1.52452 14.8752 3.20018C12.8065 6.2412 13.3266 10.369 16.0851 12.8018L25.5385 21.1392C26.2402 21.758 27.1201 22.0673 28.0001 22.0673C28.88 22.0673 29.76 21.7579 30.4616 21.1392L35.1503 17.004Z" fill="#FCCE00"/>
<path d="M23.9624 39.1802L23.1322 38.6079V28.6118C23.1322 27.063 21.8722 25.803 20.3234 25.803C19.9067 25.803 19.5113 25.8949 19.1553 26.0584V25.0661C19.1553 23.5173 17.8953 22.2573 16.3465 22.2573C15.9297 22.2573 15.5342 22.3492 15.1783 22.5127V21.157C15.1783 19.6082 13.9183 18.3481 12.3695 18.3481C11.0331 18.3481 9.91246 19.2866 9.63005 20.539C9.25641 20.3548 8.83651 20.2509 8.39255 20.2509C6.84377 20.2509 5.58374 21.5109 5.58374 23.0597V27.772C5.58374 28.225 5.95103 28.5923 6.40407 28.5923C6.85711 28.5923 7.2244 28.225 7.2244 27.772V23.0597C7.2244 22.4156 7.74843 21.8915 8.39255 21.8915C9.03667 21.8915 9.5607 22.4156 9.5607 23.0597V33.5345C9.5607 34.7013 10.0568 35.8195 10.9218 36.6026L17.3825 42.5768C17.5405 42.7238 17.7409 42.7964 17.941 42.7964C18.1608 42.7964 18.3802 42.7084 18.5418 42.5348C18.8503 42.203 18.8315 41.6839 18.4998 41.3754L14.0392 37.2268L14.5695 36.666C15.2224 35.9756 16.2641 35.866 17.0466 36.4054L23.0312 40.531C24.1629 41.311 24.8384 42.5975 24.8384 43.9721V53.5392C24.8384 53.9916 24.4705 54.3595 24.0181 54.3595H16.156C15.7037 54.3595 15.3357 53.9916 15.3357 53.5392V52.1457C15.3357 50.8538 14.8581 49.6146 13.9908 48.6569L8.70996 42.8254C7.75204 41.7676 7.2244 40.3989 7.2244 38.9718V31.3028C7.2244 30.8498 6.85711 30.4825 6.40407 30.4825C5.95103 30.4825 5.58374 30.8498 5.58374 31.3028V38.9717C5.58374 40.8068 6.2621 42.5665 7.49391 43.9266L12.7748 49.758C13.3683 50.4135 13.6952 51.2614 13.6952 52.1456V53.5391C13.6952 54.8961 14.7991 56.0001 16.1562 56.0001H24.0182C25.3752 56.0001 26.4792 54.8961 26.4792 53.5391V43.972C26.4791 42.0579 25.5382 40.2665 23.9624 39.1802ZM20.3234 27.4435C20.9676 27.4435 21.4916 27.9676 21.4916 28.6117V37.4768L19.1553 35.8662V28.6118C19.1552 27.9676 19.6792 27.4435 20.3234 27.4435ZM11.2014 33.5345V21.1568C11.2014 20.5127 11.7254 19.9887 12.3695 19.9887C13.0136 19.9887 13.5377 20.5127 13.5377 21.1568V35.3806C13.4832 35.4315 13.4295 35.4836 13.3776 35.5385L12.8303 36.1171L12.0228 35.3862C11.5007 34.9137 11.2014 34.2387 11.2014 33.5345ZM15.1783 34.5085V25.0661C15.1783 24.422 15.7023 23.898 16.3465 23.898C16.9906 23.898 17.5146 24.422 17.5146 25.0661V34.784C16.7738 34.4208 15.9505 34.3336 15.1783 34.5085Z" fill="#008E62"/>
<path d="M47.6076 20.2509C47.1637 20.2509 46.7438 20.3548 46.3701 20.539C46.0877 19.2866 44.967 18.3481 43.6307 18.3481C42.0819 18.3481 40.8219 19.6082 40.8219 21.157V22.5128C40.4658 22.3493 40.0704 22.2574 39.6537 22.2574C38.1049 22.2574 36.8449 23.5174 36.8449 25.0662V26.0585C36.4889 25.895 36.0935 25.8031 35.6767 25.8031C34.128 25.8031 32.8679 27.0631 32.8679 28.6119V35.6474C32.8679 36.1004 33.2352 36.4677 33.6883 36.4677C34.1413 36.4677 34.5086 36.1004 34.5086 35.6474V28.6119C34.5086 27.9678 35.0326 27.4437 35.6767 27.4437C36.3209 27.4437 36.8449 27.9678 36.8449 28.6119V35.8665L32.0378 39.1804C30.4619 40.2667 29.521 42.0581 29.521 43.9723V53.5394C29.521 54.8965 30.6249 56.0004 31.982 56.0004H39.844C41.2011 56.0004 42.305 54.8965 42.305 53.5394V52.146C42.305 51.2618 42.6318 50.4139 43.2254 49.7584L48.5063 43.9269C49.7381 42.5667 50.4164 40.807 50.4164 38.972V23.0597C50.4164 21.5109 49.1563 20.2509 47.6076 20.2509ZM42.4625 21.1568C42.4625 20.5127 42.9865 19.9887 43.6307 19.9887C44.2748 19.9887 44.7988 20.5127 44.7988 21.1568V23.0596V33.5344C44.7988 34.2386 44.4994 34.9136 43.9774 35.3862L43.1699 36.1171L42.6225 35.5384C42.5707 35.4835 42.517 35.4315 42.4625 35.3805V21.1568ZM38.4854 25.0661C38.4854 24.422 39.0095 23.898 39.6536 23.898C40.2977 23.898 40.8217 24.422 40.8217 25.0661V34.5085C40.0494 34.3336 39.2262 34.4208 38.4854 34.7839V25.0661ZM48.7758 38.9717C48.7758 40.3988 48.2481 41.7675 47.2902 42.8254L42.0093 48.6568C41.142 49.6145 40.6644 50.8536 40.6644 52.1456V53.5391C40.6644 53.9915 40.2964 54.3594 39.844 54.3594H31.982C31.5296 54.3594 31.1617 53.9915 31.1617 53.5391V43.972C31.1617 42.5974 31.8373 41.311 32.969 40.5309L38.9536 36.4052C39.2862 36.176 39.6655 36.064 40.042 36.064C40.5513 36.064 41.0553 36.269 41.4307 36.6658L41.961 37.2266L37.5004 41.3752C37.1687 41.6838 37.1498 42.2028 37.4584 42.5346C37.6199 42.7083 37.8392 42.7963 38.0592 42.7963C38.2593 42.7963 38.4597 42.7235 38.6177 42.5766L45.0784 36.6025C45.9433 35.8194 46.4395 34.7013 46.4395 33.5344V23.0596C46.4395 22.4155 46.9635 21.8914 47.6076 21.8914C48.2517 21.8914 48.7758 22.4155 48.7758 23.0596V38.9717Z" fill="#008E62"/>
</g>
<defs>
<clipPath id="clip0">
<rect width="56" height="56" fill="white"/>
</clipPath>
</defs>
</svg>
