<svg width="32" height="32" viewBox="0 0 32 32" fill="none" xmlns="http://www.w3.org/2000/svg">
<rect width="32" height="32" rx="16" fill="#25D366"/>
<path fill-rule="evenodd" clip-rule="evenodd" d="M23.4642 8.50708C21.6223 6.66306 19.1728 5.64708 16.5632 5.646C11.1859 5.646 6.80958 10.0222 6.80742 15.4009C6.8067 17.1204 7.25587 18.7988 8.10962 20.2782L6.72559 25.3335L11.8973 23.9769C13.3223 24.7542 14.9266 25.1638 16.5592 25.1643H16.5633C21.94 25.1643 26.3168 20.7877 26.3189 15.4088C26.32 12.8019 25.3061 10.351 23.4642 8.50708ZM16.5632 23.5168H16.5598C15.1049 23.5161 13.678 23.1251 12.4328 22.3865L12.1369 22.2107L9.06792 23.0158L9.88707 20.0236L9.69421 19.7168C8.88251 18.4258 8.45389 16.9336 8.45461 15.4015C8.45629 10.9309 12.0939 7.29367 16.5665 7.29367C18.7323 7.29439 20.7682 8.1389 22.2991 9.67158C23.8299 11.2043 24.6725 13.2415 24.6718 15.4082C24.6699 19.8792 21.0326 23.5168 16.5632 23.5168ZM21.0109 17.4438C20.7672 17.3217 19.5687 16.7322 19.3452 16.6508C19.122 16.5694 18.9593 16.5289 18.7969 16.7728C18.6343 17.0168 18.1673 17.5659 18.025 17.7285C17.8827 17.8912 17.7407 17.9116 17.4969 17.7895C17.2531 17.6676 16.4677 17.4101 15.5365 16.5796C14.812 15.9333 14.3228 15.135 14.1805 14.8911C14.0385 14.6469 14.1793 14.5277 14.2874 14.3936C14.5513 14.0659 14.8156 13.7224 14.8968 13.5598C14.9781 13.3971 14.9374 13.2547 14.8764 13.1327C14.8156 13.0108 14.3281 11.811 14.125 11.3227C13.927 10.8476 13.7262 10.9118 13.5764 10.9043C13.4344 10.8972 13.2718 10.8958 13.1092 10.8958C12.9468 10.8958 12.6827 10.9567 12.4592 11.2009C12.2358 11.4449 11.6061 12.0346 11.6061 13.2344C11.6061 14.4342 12.4796 15.5933 12.6014 15.756C12.7233 15.9187 14.3204 18.3809 16.7656 19.4366C17.3472 19.688 17.8011 19.8378 18.1552 19.9502C18.7392 20.1357 19.2705 20.1095 19.6906 20.0468C20.159 19.9767 21.1326 19.457 21.336 18.8877C21.539 18.3183 21.539 17.8303 21.478 17.7285C21.4172 17.6268 21.2546 17.5659 21.0109 17.4438Z" fill="white"/>
</svg>
