<?xml version="1.0" standalone="no"?>
<!DOCTYPE svg PUBLIC "-//W3C//DTD SVG 1.1//EN" "http://www.w3.org/Graphics/SVG/1.1/DTD/svg11.dtd" >
<svg xmlns="http://www.w3.org/2000/svg" xmlns:xlink="http://www.w3.org/1999/xlink" version="1.1">
<metadata>
Created by FontForge 20170731 at Fri Nov 26 02:12:57 2021
 By Aleksey,,,
Copyright (c) 2015 by Ramiz Guseynov. All rights reserved.
</metadata>
<defs>
<font id="DecimaRound-Regular" horiz-adv-x="626" >
  <font-face 
    font-family="Decima Round"
    font-weight="400"
    font-stretch="normal"
    units-per-em="2048"
    panose-1="2 0 5 6 0 0 0 2 0 4"
    ascent="1616"
    descent="-432"
    x-height="1026"
    cap-height="1432"
    bbox="-139 -442 1958 1866"
    underline-thickness="102"
    underline-position="-307"
    unicode-range="U+0020-FB04"
  />
<missing-glyph horiz-adv-x="450" 
 />
    <glyph glyph-name="f_f_j" unicode="ffj" horiz-adv-x="1675" 
d="M596 1425l-10 -16q41 -18 41 -66q0 -30 -21 -51q-20 -20 -49 -20q-11 0 -29 6q-43 18 -77 18q-48 0 -82 -34q-33 -33 -33 -99v-151h432v131q0 141 80 221t194 80q75 0 138 -29q41 -18 41 -65q0 -31 -21 -52q-20 -20 -49 -20q-11 0 -29 6q-46 19 -78 19q-46 0 -81 -35
q-33 -33 -33 -99v-151h510q32 0 53 -21q23 -23 23 -51v-1038q0 -141 -80 -221t-195 -80q-76 0 -137 28q-41 18 -41 66q0 31 22 53q23 23 50 23q10 0 28 -6q46 -19 78 -19q47 0 82 35q33 33 33 98v985h-424v-817q0 -33 -25 -55q-26 -23 -57 -23t-57 23q-25 22 -25 55v817
h-432v-817q0 -32 -23 -55t-55 -23t-55 23t-23 55v817h-86q-28 0 -51 23q-20 20 -20 53q0 31 22 53q23 23 53 23h86v131q0 141 80 221t195 80q74 0 137 -29zM1325 1268q0 44 31 75t76 31q44 0 75 -31t31 -75q0 -45 -31 -76t-75 -31q-45 0 -76 31t-31 76z" />
    <glyph glyph-name="f_j" unicode="fj" horiz-adv-x="1083" 
d="M516 -358l-12 -11q-41 18 -41 66q0 31 22 53q23 23 50 23q10 0 28 -6q46 -19 78 -19q47 0 82 35q33 33 33 98v985h-424v-817q0 -32 -23 -55t-55 -23t-55 23t-23 55v817h-86q-28 0 -51 23q-21 21 -21 53q0 30 23 53t53 23h86v131q0 141 80 221t195 80q74 0 137 -29
q41 -18 41 -65q0 -30 -21 -51t-49 -21q-10 0 -28 6q-46 19 -78 19q-47 0 -82 -35q-33 -33 -33 -98v-152h510q33 0 53 -20q23 -23 23 -52v-1038q0 -141 -80 -221t-195 -80q-74 0 -137 29zM731 1274q0 45 31 76q30 30 76 30q45 0 75 -30q31 -31 31 -76t-31 -76t-75 -31
q-45 0 -76 31t-31 76z" />
    <glyph glyph-name="f_f" unicode="ff" horiz-adv-x="1183" 
d="M1188 1425l-12 -20q41 -18 41 -66q0 -30 -21 -51q-20 -20 -49 -20q-11 0 -29 6q-44 18 -78 18q-47 0 -82 -35q-32 -32 -32 -98v-151h204q33 0 54 -21q22 -22 22 -51q0 -31 -20 -51q-21 -21 -51 -21h-205v-817q0 -33 -25 -55q-26 -23 -57 -23t-57 23q-25 22 -25 55v817
h-432v-817q0 -32 -23 -55t-55 -23t-55 23t-23 55v817h-86q-28 0 -51 23q-21 21 -21 53q0 30 23 53t53 23h86v131q0 141 80 221t195 80q74 0 137 -29q41 -18 41 -65q0 -30 -21 -51t-49 -21q-10 0 -28 6q-46 19 -78 19q-47 0 -82 -35q-33 -33 -33 -98v-152h432v131
q0 141 80 221t195 80q74 0 137 -29z" />
    <glyph glyph-name="fi" unicode="fi" horiz-adv-x="1062" 
d="M596 1425l-8 -12q41 -18 41 -65q0 -31 -21 -52q-20 -20 -49 -20q-11 0 -29 6q-43 18 -77 18q-48 0 -82 -34q-33 -33 -33 -99v-151h489q33 0 54 -21q22 -22 22 -51v-891q0 -34 -24 -55q-26 -23 -58 -23q-31 0 -57 23q-25 22 -25 55v817h-403v-817q0 -32 -23 -55t-55 -23
t-55 23t-23 55v817h-86q-28 0 -51 23q-20 20 -20 53q0 31 22 53q23 23 53 23h86v131q0 141 80 221t195 80q74 0 137 -29zM713 1272q0 46 30 76t76 30t76 -30q31 -31 31 -76t-31 -76t-76 -31t-76 31q-30 30 -30 76z" />
    <glyph glyph-name="fl" unicode="fl" horiz-adv-x="1038" 
d="M897 1374l-16 -1329q0 -32 -23 -55t-55 -23t-55 23t-23 55v1212q-124 39 -242 39q-72 0 -110 -32q-41 -35 -41 -101v-151h205q32 0 53 -21q22 -22 22 -51q0 -31 -20 -51q-21 -21 -51 -21h-205v-817q0 -32 -23 -55t-55 -23t-55 23t-23 55v817h-86q-28 0 -51 23
q-20 20 -20 53q0 31 22 53q23 23 53 23h86v131q0 140 84 221q83 80 209 80q130 0 275 -37q21 37 67 37q33 0 55 -22q23 -23 23 -56z" />
    <glyph glyph-name="f_f_i" unicode="ffi" horiz-adv-x="1654" 
d="M1188 1425l-14 -18q40 -18 40 -66q0 -31 -20 -51t-49 -20q-11 0 -29 6q-44 18 -78 18q-48 0 -82 -34q-32 -32 -32 -99v-151h489q32 0 53 -21q23 -23 23 -51v-891q0 -32 -23 -55t-55 -23t-55 23t-23 55v817h-403v-817q0 -33 -25 -55q-26 -23 -57 -23t-57 23q-25 22 -25 55
v817h-432v-817q0 -32 -23 -55t-55 -23t-55 23t-23 55v817h-86q-28 0 -51 23q-21 21 -21 53q0 30 23 53t53 23h86v131q0 141 80 221t195 80q74 0 137 -29q41 -18 41 -65q0 -30 -21 -51t-49 -21q-10 0 -28 6q-46 19 -78 19q-47 0 -82 -35q-33 -33 -33 -98v-152h432v131
q0 141 80 221t195 80q74 0 137 -29zM1298 1266q0 44 31 75t76 31t76 -31q30 -30 30 -75q0 -46 -30 -76q-31 -31 -76 -31t-76 31t-31 76z" />
    <glyph glyph-name="f_f_l" unicode="ffl" horiz-adv-x="1630" 
d="M596 1425l-10 -20q41 -18 41 -66q0 -30 -21 -51q-20 -20 -49 -20q-11 0 -29 6q-43 18 -77 18q-47 0 -82 -35q-33 -33 -33 -98v-151h432v131q0 140 84 221q83 80 209 80q129 0 274 -37q21 37 68 37q31 0 57 -23q25 -22 25 -55v-1315q0 -33 -25 -55q-26 -23 -57 -23t-57 23
q-25 22 -25 55v1213q-121 38 -242 38q-72 0 -110 -32q-41 -35 -41 -101v-151h205q32 0 53 -21q22 -22 22 -51q0 -31 -20 -51q-21 -21 -51 -21h-205v-817q0 -33 -25 -55q-26 -23 -57 -23t-57 23q-25 22 -25 55v817h-432v-817q0 -32 -23 -55t-55 -23t-55 23t-23 55v817h-86
q-28 0 -51 23q-20 20 -20 53q0 31 22 53q23 23 53 23h86v131q0 141 80 221t195 80q74 0 137 -29z" />
    <glyph glyph-name=".notdef" horiz-adv-x="450" 
 />
    <glyph glyph-name=".null" horiz-adv-x="0" 
 />
    <glyph glyph-name="nonmarkingreturn" horiz-adv-x="681" 
 />
    <glyph glyph-name="space" unicode=" " horiz-adv-x="450" 
 />
    <glyph glyph-name="exclam" unicode="!" horiz-adv-x="528" 
d="M315 0h-102q-23 0 -37 14t-14 37v99q0 20 16 36q15 15 37 15h98q22 0 37 -15q17 -17 17 -36v-99q0 -22 -15 -37q-14 -14 -37 -14zM344 1370v-942q0 -32 -25 -57t-59 -25t-59 25t-25 59v940q0 37 25 62q24 24 59 24t59 -24q25 -25 25 -62z" />
    <glyph glyph-name="quotedbl" unicode="&#x22;" horiz-adv-x="694" 
d="M299 1374l-55 -373q-6 -55 -58 -55q-23 0 -43 17q-18 15 -18 41v370q0 37 25 62q24 24 61 24q41 0 68 -24q26 -23 20 -62zM575 1372l-55 -373q-6 -55 -57 -55q-23 0 -43 17q-19 16 -19 40v371q0 37 25 62q24 24 61 24q41 0 68 -24q26 -23 20 -62z" />
    <glyph glyph-name="numbersign" unicode="#" horiz-adv-x="1073" 
d="M541 1372l-49 -352h235l53 371q3 26 25 45q21 18 49 18q76 0 76 -86l-49 -348h129q32 0 55 -23q22 -22 22 -55q0 -32 -22 -57t-55 -25h-154l-43 -307h131q32 0 55 -23t23 -55q0 -31 -23 -57q-22 -25 -55 -25h-153l-50 -348q-3 -29 -24 -47t-49 -18q-34 0 -56 22
q-20 20 -20 53v6v7l45 325h-236l-49 -348q-3 -29 -24 -47t-49 -18q-34 0 -56 22q-20 20 -20 53v6v7l45 325h-127q-33 0 -55 25q-23 26 -23 59q0 32 23 55t55 23h149l45 307h-129q-33 0 -55 25t-22 59q0 33 22 55q23 23 55 23h152l53 371q3 26 25 45q21 18 49 18q76 0 76 -86
zM467 858l-43 -307h235l46 307h-238z" />
    <glyph glyph-name="dollar" unicode="$" horiz-adv-x="1073" 
d="M614 1491v-68q115 -21 191 -94q77 -74 98 -170q6 -18 6 -37q0 -37 -24 -61q-25 -25 -60 -25q-69 0 -84 72q-15 70 -71 117q-54 45 -129 45q-89 0 -150 -58t-61 -141q0 -57 35 -104q34 -46 86 -80q49 -32 116 -68q75 -40 129 -74q71 -44 117 -88q50 -47 86 -127
q35 -78 35 -172q0 -127 -86 -233q-85 -105 -236 -129v-64q0 -33 -22 -55t-55 -22q-34 0 -56 22t-22 55v64q-144 21 -230 121t-86 225q0 34 25 59t59 25q33 0 56 -23q21 -21 24 -55q6 -88 68 -141q60 -51 166 -51q102 0 163 61q62 62 62 158q0 88 -62 153q-64 67 -149 109
q-112 55 -178 92q-92 51 -152 135q-61 85 -61 207q0 131 84 232q83 100 213 127v61q0 32 22 57t56 25q33 0 55 -25t22 -57z" />
    <glyph glyph-name="percent" unicode="%" horiz-adv-x="1470" 
d="M586 1237v-381q0 -84 -68 -149q-67 -64 -164 -64q-99 0 -166 64t-67 153v373q0 87 67 151q69 66 166 66t164 -64q68 -65 68 -149zM444 866v344q0 41 -24 68q-26 29 -68 29q-39 0 -63 -27q-25 -28 -25 -68v-346q0 -39 25 -67q24 -27 65 -27q42 0 66 27t24 67zM1348 561
v-381q0 -84 -68 -149q-67 -64 -164 -64q-99 0 -166 64t-67 153v373q0 88 67 152q68 65 166 65t164 -63q68 -65 68 -150zM1206 190v345q0 40 -24 67q-26 29 -68 29q-39 0 -63 -27q-25 -28 -25 -67v-347q0 -39 25 -67q24 -27 65 -27q42 0 66 27t24 67zM1130 1352l-696 -1372
q-12 -27 -45 -27q-23 0 -39 16q-14 14 -14 37q0 13 6 25l696 1370q14 26 45 26q25 0 39 -14q15 -15 15 -37q0 -10 -7 -24z" />
    <glyph glyph-name="ampersand" unicode="&#x26;" horiz-adv-x="1118" 
d="M479 836l525 -11q32 0 57 -22q24 -21 24 -55q0 -35 -24 -56q-25 -22 -57 -22h-121v-324q0 -156 -111 -264q-112 -109 -272 -109q-163 0 -271 111t-108 268v158q0 150 129 252q-47 38 -82 110q-33 67 -33 142v57q0 159 105 270t274 111q170 0 272 -102q101 -101 101 -213
q0 -37 -25 -62q-24 -24 -57 -24q-71 0 -86 73q-15 75 -70 121q-56 47 -129 47q-95 0 -153 -61t-58 -156v-57q0 -67 43 -125q42 -57 127 -57zM500 131l2 -2q95 0 153 61q60 63 60 152v324h-256q-67 0 -117 -50q-49 -49 -49 -112v-158q0 -91 59 -153t148 -62z" />
    <glyph glyph-name="quotesingle" unicode="'" horiz-adv-x="425" 
d="M299 1374l-55 -373q-6 -55 -58 -55q-23 0 -43 17q-18 15 -18 41v370q0 37 25 62q24 24 61 24q41 0 68 -24q26 -23 20 -62z" />
    <glyph glyph-name="parenleft" unicode="(" horiz-adv-x="669" 
d="M174 -12l-2 1083q0 89 37 162q38 75 92 117t111 67q58 25 100 25q38 0 63 -25t25 -57q0 -28 -18 -49q-20 -23 -47 -29q-77 -15 -132 -70t-55 -139v-1087q0 -85 55 -140q53 -53 134 -69q27 -6 47 -29q18 -21 18 -49q0 -33 -24 -57q-25 -25 -64 -25q-42 0 -100 25
q-57 25 -111 67t-92 117q-37 73 -37 162z" />
    <glyph glyph-name="parenright" unicode=")" horiz-adv-x="671" 
d="M498 1079l-2 -1091q0 -89 -37 -162q-38 -75 -92 -117t-111 -67q-58 -25 -100 -25q-39 0 -64 25q-24 24 -24 59q0 28 18 49q20 23 47 29q77 15 133 71t56 140v1087q0 84 -56 140t-131 71q-27 6 -47 29q-18 21 -18 49q0 35 24 59q25 25 64 25q42 0 100 -25q57 -25 111 -67
t92 -117q37 -73 37 -162z" />
    <glyph glyph-name="asterisk" unicode="*" horiz-adv-x="704" 
d="M188 1309l105 -60l-17 127q-3 27 19 49q21 21 55 21q35 0 56 -21t18 -49l-18 -131l114 55q20 5 23 5q28 0 49 -21q22 -22 22 -51q0 -24 -14 -41q-17 -20 -37 -23l-129 -24l88 -86q17 -17 17 -43q0 -28 -21 -49q-23 -23 -51 -23q-36 0 -55 31l-64 115l-59 -111
q-15 -31 -56 -31q-28 0 -51 23q-20 20 -20 49q0 27 14 41l86 94l-121 19q-21 3 -37 22q-14 17 -14 47q0 28 23 51q21 21 49 21q14 0 26 -6z" />
    <glyph glyph-name="plus" unicode="+" horiz-adv-x="1198" 
d="M199 684h321v313q0 33 23 56q22 22 55 22t55 -22q23 -23 23 -56v-313h317q34 0 56 -22t22 -56q0 -33 -22 -55q-23 -23 -56 -23h-317v-325q0 -33 -23 -56q-22 -22 -55 -22t-55 22q-23 23 -23 56v325h-321q-33 0 -56 23q-22 22 -22 55q0 34 22 56t56 22z" />
    <glyph glyph-name="comma" unicode="," horiz-adv-x="471" 
d="M266 -199h-4q-15 -49 -65 -49q-20 0 -37 17q-15 15 -15 36q0 7 5 27l49 168h-15q-23 0 -37 14t-14 37v99q0 19 17 36q15 15 36 15h99q22 0 37 -15q16 -16 16 -36v-107q0 -20 -8 -51z" />
    <glyph glyph-name="hyphen" unicode="-" horiz-adv-x="765" 
d="M113 600l-4 -2q0 34 24 55q26 23 62 23h372q36 0 62 -23q24 -21 24 -55q0 -33 -22 -55q-21 -21 -62 -21h-372q-39 0 -62 23q-22 22 -22 55z" />
    <glyph glyph-name="period" unicode="." horiz-adv-x="466" 
d="M283 0h-103q-23 0 -37 14t-14 37v99q0 20 16 36q15 15 37 15h99q21 0 36 -15q17 -17 17 -36v-99q0 -22 -15 -37q-14 -14 -36 -14z" />
    <glyph glyph-name="slash" unicode="/" horiz-adv-x="733" 
d="M700 1346l-651 -1690q-17 -51 -76 -51q-34 0 -55 24q-20 23 -20 58q0 16 4 28l645 1686q20 51 74 51q34 0 59 -25t25 -57q0 -3 -1 -6.5t-2 -8.5t-2 -9z" />
    <glyph glyph-name="zero" unicode="0" horiz-adv-x="1073" 
d="M909 1077l-4 -723q0 -157 -106 -266q-108 -111 -267 -111t-264 111q-104 110 -104 268v719q0 158 104 268q105 111 264 111q161 0 269 -111t108 -266zM735 352v719q0 89 -59 154q-57 63 -146 63q-84 0 -141 -63q-59 -65 -59 -154v-719q0 -89 59 -151t146 -62q82 0 141 62
t59 151z" />
    <glyph glyph-name="one" unicode="1" horiz-adv-x="1073" 
d="M248 1221v-4q-28 0 -51 20q-25 22 -25 55q0 62 68 80l278 72q30 6 41 6q34 0 62 -25q26 -23 26 -57v-1212h246q32 0 55 -23t23 -55t-23 -55q-21 -21 -55 -21h-662q-32 0 -55 23q-22 22 -22 55t22 55q23 23 55 23h244v1114l-194 -47q-28 -4 -33 -4z" />
    <glyph glyph-name="two" unicode="2" horiz-adv-x="1073" 
d="M559 1454l-4 -2q164 0 270 -106q109 -109 109 -271q0 -92 -33 -168q-36 -84 -88 -141q-55 -61 -119 -119q-21 -19 -129 -112q-57 -49 -119 -111q-51 -51 -88 -123q-32 -63 -32 -143h557q33 0 55 -25q23 -26 23 -57q0 -33 -23 -56q-22 -22 -55 -22h-650q-33 0 -55 22
t-22 56v69q0 139 63 250q65 115 154 195q76 68 178 153q91 76 154 162t63 185q0 83 -61 141q-62 59 -148 59q-83 0 -141 -55t-64 -143q-3 -39 -24 -60q-22 -22 -60 -22q-37 0 -61 24q-25 25 -25 62q0 142 111 250t264 108z" />
    <glyph glyph-name="three" unicode="3" horiz-adv-x="1073" 
d="M424 885v4q0 43 29 86l223 293h-418q-34 0 -55 24q-23 26 -23 60q0 32 23 55t55 23h535q84 0 84 -80v-33q0 -38 -23 -68l-225 -295q126 -27 207 -123q79 -94 79 -239v-234q0 -158 -110 -268t-277 -110t-276 106q-111 108 -111 252q0 36 25 61t61 25q37 0 60 -23
q21 -21 24 -59q6 -91 66 -145t153 -54q90 0 152 62q61 61 61 151v234q0 107 -61 162t-156 55h-18q-40 0 -62 22t-22 56z" />
    <glyph glyph-name="four" unicode="4" horiz-adv-x="1073" 
d="M137 506l418 891q27 55 80 55q34 0 59 -22t25 -56q0 -18 -8 -37l-406 -868h359v297q0 35 24 59q25 25 60 25q34 0 59 -25q24 -24 24 -59v-297h58q32 0 55 -23t23 -55t-23 -55t-55 -23h-58v-243q0 -36 -24 -60t-59 -24q-36 0 -60 24t-24 60v243h-463q-39 0 -62 23
q-22 22 -22 55v29q0 47 20 86z" />
    <glyph glyph-name="five" unicode="5" horiz-adv-x="1073" 
d="M303 711l-41 2q-67 21 -67 80q0 22 2 36l47 519q9 79 86 79h481q33 0 55 -22q23 -23 23 -55t-23 -58q-21 -24 -55 -24h-399l-35 -357q64 52 184 52q152 0 258 -109q105 -108 105 -264v-234q0 -157 -111 -268t-276 -111q-167 0 -277 107t-110 252q0 37 24 61q25 25 62 25
q36 0 59 -23q21 -21 24 -59q6 -91 66 -145t154 -54t153 62q60 63 60 166v206q0 106 -62 168t-153 62q-96 0 -168 -78q-14 -20 -43 -20q-7 0 -23 4z" />
    <glyph glyph-name="six" unicode="6" horiz-adv-x="1073" 
d="M543 1454l-8 4q172 0 274 -102t102 -203q0 -36 -22 -61t-60 -25q-71 0 -92 82q-15 53 -63 98q-50 47 -137 47q-92 0 -150 -67q-57 -66 -57 -180v-201l10 10q1 1 29 25q18 16 47 30q29 15 67 25q44 12 88 12q152 0 258 -106q109 -109 109 -271v-213q0 -157 -111 -268
q-110 -110 -276 -110q-167 0 -277 110t-110 268v693q0 174 108 288q109 115 271 115zM545 788l-4 -2q-94 0 -156 -59q-61 -58 -61 -154v-215q0 -91 63 -151q65 -62 156 -62q88 0 153 62q64 61 64 151v213q0 94 -62 156q-61 61 -153 61z" />
    <glyph glyph-name="seven" unicode="7" horiz-adv-x="1073" 
d="M367 66l2 8q0 172 98 424q108 279 199 479q101 223 104 303h-547q-33 0 -55 25q-23 26 -23 59q0 32 23 55t55 23h631q39 0 64 -25q24 -24 24 -63v-64q0 -74 -61 -229q-59 -149 -136 -313q-68 -145 -137 -351q-63 -188 -69 -331q-3 -36 -27 -60t-59 -24q-38 0 -62 24
t-24 60z" />
    <glyph glyph-name="eight" unicode="8" horiz-adv-x="1073" 
d="M907 1096l4 -78q0 -170 -129 -275q148 -115 148 -301v-88q0 -155 -111 -266t-278 -111q-168 0 -279 111q-110 110 -110 268v86q0 185 149 301q-131 98 -131 277v74q0 152 104 256t265 104q160 0 264 -104t104 -254zM758 352l4 86q0 92 -62 154q-61 61 -155 61
q-95 0 -156 -61t-61 -154v-86q0 -92 61 -153q62 -62 154 -62q91 0 153 62t62 153zM743 1014v69q0 91 -57 148q-59 59 -141 59q-90 0 -144 -57q-55 -58 -55 -148v-67q0 -83 55 -141t146 -58q86 0 141 55t55 140z" />
    <glyph glyph-name="nine" unicode="9" horiz-adv-x="1073" 
d="M530 -20l-8 -11q-169 0 -272 103q-100 100 -100 202q0 37 22 62q21 24 59 24q72 0 93 -81q15 -52 65 -99q48 -45 139 -45q93 0 152 68t59 182v201q-1 -1 -4.5 -5t-5.5 -6q-6 -6 -27 -24t-47 -31q-25 -12 -67 -24q-47 -13 -88 -13q-151 0 -258 107q-109 109 -109 270v213
q0 157 111 268t276 111q166 0 277 -111q110 -110 110 -266v-692q0 -177 -106 -289q-108 -114 -271 -114zM512 639l2 2q96 0 158 59q61 58 61 154v215q0 92 -63 152q-64 61 -156 61q-90 0 -154 -61q-63 -60 -63 -152v-213q0 -95 61 -156t154 -61z" />
    <glyph glyph-name="colon" unicode=":" horiz-adv-x="466" 
d="M283 0h-103q-23 0 -37 14t-14 37v99q0 20 16 36q15 15 37 15h99q21 0 36 -15q17 -17 17 -36v-99q0 -22 -15 -37q-14 -14 -36 -14zM279 825l-103 -4q-20 0 -37 17q-14 14 -14 36v99q0 21 16 37t37 16h98q23 0 37 -14q17 -17 17 -37v-98q0 -22 -15 -37t-36 -15z" />
    <glyph glyph-name="semicolon" unicode=";" horiz-adv-x="471" 
d="M266 -199h-4q-15 -49 -65 -49q-20 0 -37 17q-15 15 -15 36q0 7 5 27l49 168h-15q-23 0 -37 14t-14 37v99q0 19 17 36q15 15 36 15h99q22 0 37 -15q16 -16 16 -36v-107q0 -20 -8 -51zM283 825l-103 -4q-20 0 -37 17q-14 14 -14 36v99q0 21 16 37t37 16h99q22 0 36 -14
q17 -17 17 -37v-98q0 -22 -15 -37t-36 -15z" />
    <glyph glyph-name="less" unicode="&#x3c;" horiz-adv-x="1198" 
d="M166 684l805 326q15 6 30 6q33 0 56 -23q22 -22 22 -55q0 -56 -47 -74l-694 -270l694 -270q47 -18 47 -74q0 -33 -22 -55q-23 -23 -56 -23q-17 0 -32 6l-803 330q-60 25 -60 88t60 88z" />
    <glyph glyph-name="equal" unicode="=" horiz-adv-x="1198" 
d="M997 694h-798q-34 0 -56 25t-22 57q0 33 22 58q21 24 56 24h798q35 0 56 -24q22 -25 22 -58q0 -32 -22 -57t-56 -25zM997 342h-798q-34 0 -56 25t-22 57t22 57t56 25h798q34 0 56 -25t22 -57t-22 -57t-56 -25z" />
    <glyph glyph-name="greater" unicode="&#x3e;" horiz-adv-x="1198" 
d="M229 1014l803 -326q60 -25 60 -88t-60 -88l-803 -330q-15 -6 -30 -6q-33 0 -56 23q-22 22 -22 55q0 56 47 74l694 270l-694 270q-47 18 -47 74q0 33 22 55q23 23 56 23q15 0 30 -6z" />
    <glyph glyph-name="question" unicode="?" horiz-adv-x="966" 
d="M487 0h-102q-23 0 -37 14t-14 37v99q0 20 16 36q15 15 37 15h98q22 0 37 -15q17 -17 17 -36v-99q0 -22 -15 -37q-14 -14 -37 -14zM84 1133v-9q0 100 102 211t277 111q164 0 278 -105q113 -104 113 -272q0 -87 -31 -160q-32 -75 -75 -121q-15 -16 -46 -48.5t-47 -49.5
q-47 -50 -84 -117q-36 -64 -45 -149q-3 -34 -26 -57q-25 -25 -60 -25q-34 0 -59 25t-25 59q0 161 119 307q7 10 66 76q49 55 67 82q22 34 41 80q23 57 23 110q0 87 -62 146t-149 59q-77 0 -135 -43q-59 -44 -74 -113q-18 -81 -84 -81q-35 0 -59 24q-25 25 -25 60z" />
    <glyph glyph-name="at" unicode="@" horiz-adv-x="1384" 
d="M1061 342l-2 338q0 96 -58 154q-59 59 -147 59q-91 0 -145 -57q-56 -59 -56 -154v-338q0 -93 58 -154t143 -61q88 0 147 59q60 60 60 154zM1061 59l-10 35q-8 -10 -25 -31q-15 -18 -72 -49q-55 -30 -118 -30q-149 0 -250 96q-99 95 -99 237v383q0 146 99 240
q101 96 250 96q148 0 221 -104q0 160 -105 262t-260 102q-162 0 -266 -98t-104 -244v-811q0 -144 92 -239t239 -101q35 -3 56 -24q22 -22 22 -55q0 -34 -24 -58t-66 -24q-200 0 -340 143q-141 144 -141 356v811q0 211 153 355q154 145 379 145q220 0 373 -141
q154 -142 154 -346v-906q0 -32 -23 -55q-22 -22 -55 -22q-34 0 -56 22q-21 21 -24 55z" />
    <glyph glyph-name="A" unicode="A" horiz-adv-x="1034" 
d="M737 616l-200 662h-39l-201 -662h440zM453 1446h129q65 0 80 -55l243 -760q6 -18 6 -37v-531q0 -35 -24 -59t-60 -24q-35 0 -59 24q-25 25 -25 59v400h-452v-400q0 -34 -25 -59q-24 -24 -59 -24q-36 0 -60 24t-24 59v531q0 19 6 37l244 760q15 55 80 55z" />
    <glyph glyph-name="B" unicode="B" horiz-adv-x="1024" 
d="M532 1272l-194 -2v-441h207q77 0 123 43q45 42 45 119v119q0 69 -49 115q-50 47 -132 47zM338 674l-2 -516h186q95 0 146 51q53 53 53 131v147q0 72 -45 129q-46 58 -141 58h-197zM244 1430l278 4q162 0 258 -93q97 -94 97 -227v-113q0 -137 -117 -245q131 -107 131 -267
v-147q0 -153 -109 -248q-107 -94 -274 -94h-264q-33 0 -56 23q-22 22 -22 55v1274q0 33 22 55q23 23 56 23z" />
    <glyph glyph-name="C" unicode="C" horiz-adv-x="1024" 
d="M758 340l-8 -4q3 38 24 59q23 23 60 23q36 0 61 -25t25 -61q0 -144 -111 -252q-110 -107 -277 -107q-170 0 -282 109q-111 108 -111 270v719q0 158 113 268q114 111 283 111q142 0 245 -80q102 -79 129 -194q6 -24 6 -39q0 -38 -24 -62t-60 -24q-71 0 -86 73
q-15 71 -73 117q-59 47 -135 47q-98 0 -158 -63q-62 -65 -62 -168v-684q0 -111 64 -172q65 -62 166 -62q88 0 147 56q58 55 64 145z" />
    <glyph glyph-name="D" unicode="D" horiz-adv-x="1071" 
d="M541 0l-297 4q-33 0 -56 23q-22 22 -22 55v1274q0 33 22 55q23 23 56 23h297q162 0 276 -111q113 -110 113 -266v-680q0 -156 -113 -266q-114 -111 -276 -111zM754 379v684q0 90 -64 151q-65 62 -155 62h-201v-1110h201q91 0 155 61t64 152z" />
    <glyph glyph-name="E" unicode="E" horiz-adv-x="962" 
d="M819 0l-571 -4q-33 0 -55 22q-23 23 -23 56v1274q0 32 23 55q22 22 55 22h559q33 0 55 -22q23 -23 23 -55t-23 -58q-21 -24 -55 -24h-467v-437h418q32 0 57 -22t25 -55q0 -34 -25 -56t-57 -22h-418v-514h483q34 0 56 -25t22 -57q0 -34 -24 -55q-26 -23 -58 -23z" />
    <glyph glyph-name="F" unicode="F" horiz-adv-x="925" 
d="M336 676l-2 -617q0 -34 -25 -59t-59 -25q-35 0 -60 25q-24 24 -24 59v1291q0 33 22 55t56 22h559q33 0 55 -22q23 -23 23 -55t-23 -58q-21 -24 -55 -24h-467v-437h418q32 0 57 -22t25 -55q0 -34 -25 -56t-57 -22h-418z" />
    <glyph glyph-name="G" unicode="G" horiz-adv-x="1089" 
d="M956 647l-6 -287q0 -155 -112 -264q-113 -110 -291 -110q-185 0 -295 110q-111 111 -111 269v718q0 156 111 267q110 110 299 110q169 0 280 -102t111 -213q0 -38 -24 -62t-60 -24q-71 0 -86 74q-15 69 -80 116t-141 47q-108 0 -172 -61t-64 -154v-723q0 -90 64 -151
q65 -62 172 -62q101 0 166 62q63 60 63 151v224h-143q-33 0 -55 22q-23 23 -23 55q0 33 23 56q22 22 55 22h231q88 0 88 -90z" />
    <glyph glyph-name="H" unicode="H" horiz-adv-x="1116" 
d="M952 1370v-1307q0 -35 -24 -59t-60 -24q-35 0 -59 24q-25 25 -25 59v613h-444v-613q0 -34 -25 -59q-24 -24 -59 -24t-59 24q-25 25 -25 59v1307q0 35 25 60q24 24 59 24t59 -24q25 -25 25 -60v-534h444v534q0 35 25 60q24 24 59 24q36 0 60 -24t24 -60z" />
    <glyph glyph-name="I" unicode="I" horiz-adv-x="503" 
d="M340 1370v-1307q0 -35 -27 -59t-61 -24q-35 0 -59 24q-25 25 -25 59v1307q0 35 25 60q24 24 59 24q34 0 61 -24t27 -60z" />
    <glyph glyph-name="J" unicode="J" horiz-adv-x="927" 
d="M264 453l6 -156q0 -65 49 -111q50 -47 115 -47q69 0 119 47q49 46 49 111v1069q0 34 25 59t59 25t62 -25q26 -23 26 -59v-1059q0 -139 -98 -233q-102 -97 -242 -97t-239 99t-99 235v142q0 34 25 59t59 25q35 0 60 -25q24 -24 24 -59z" />
    <glyph glyph-name="K" unicode="K" horiz-adv-x="1017" 
d="M336 739l-6 -678q0 -34 -25 -59t-59 -25q-35 0 -60 25q-24 24 -24 59v1307q0 35 24 59q25 25 60 25q34 0 59 -25t25 -59v-596l450 645q21 35 66 35q32 0 57 -22t25 -56q0 -28 -21 -55l-403 -555l426 -641q22 -39 22 -62q0 -33 -24 -57t-60 -24q-47 0 -73 45z" />
    <glyph glyph-name="L" unicode="L" horiz-adv-x="854" 
d="M336 162l401 -2q34 0 56 -25t22 -57q0 -33 -22 -55q-23 -23 -56 -23h-485q-34 0 -59 25t-25 59v1286q0 35 25 60q24 24 59 24t59 -24q25 -25 25 -60v-1208z" />
    <glyph glyph-name="M" unicode="M" horiz-adv-x="1306" 
d="M553 672l-231 483q6 -255 6 -438v-654q0 -34 -25 -59q-24 -24 -59 -24q-36 0 -60 24t-24 59v1278q0 51 28 82t74 31q70 0 105 -72l284 -600l281 600q35 72 104 72q46 0 74 -31q29 -32 29 -82v-1278q0 -34 -25 -59q-24 -24 -59 -24q-36 0 -60 24t-24 59v652l6 442
l-227 -485q-35 -72 -99 -72q-63 0 -98 72z" />
    <glyph glyph-name="N" unicode="N" horiz-adv-x="1116" 
d="M764 51l-451 1034q11 -229 11 -337v-687q0 -33 -23 -59q-22 -25 -55 -25q-34 0 -56 25t-22 59v1285q0 46 25 77t69 31q65 0 96 -72l451 -1040q-10 167 -10 334v694q0 35 22 60q21 24 56 24q34 0 55 -24q22 -25 22 -60v-1284q0 -46 -24 -76t-70 -30q-66 0 -96 71z" />
    <glyph glyph-name="O" unicode="O" horiz-adv-x="1099" 
d="M956 1077v-721q0 -151 -110 -264q-109 -112 -293 -112q-186 0 -297 114t-111 264v719q0 150 111 264q110 113 297 113q183 0 293 -113t110 -264zM782 354l-2 727q0 86 -61 150q-60 63 -168 63q-110 0 -170 -63q-62 -65 -62 -150v-723q0 -88 62 -153q61 -64 170 -64
t170 64t61 149z" />
    <glyph glyph-name="P" unicode="P" horiz-adv-x="985" 
d="M336 498l-4 -437q0 -34 -25 -59t-59 -25q-35 0 -60 25q-24 24 -24 59v1291q0 33 22 55q23 23 56 23h311q137 0 233 -93q97 -94 97 -225v-295q0 -135 -95 -227t-233 -92h-219zM705 809v305q0 65 -46 111q-45 45 -116 45h-211v-617h211q71 0 116 45q46 46 46 111z" />
    <glyph glyph-name="Q" unicode="Q" horiz-adv-x="1095" 
d="M956 1077l-2 -721q0 -135 -90 -239l66 -64q26 -23 26 -59q0 -27 -22 -49q-21 -21 -49 -21t-56 25l-77 76q-83 -45 -199 -45q-186 0 -297 114t-111 264v719q0 150 111 264q110 113 297 113q183 0 293 -113t110 -264zM780 350v731q0 86 -61 150q-60 63 -168 63
q-110 0 -170 -63q-62 -65 -62 -150v-727q0 -88 62 -153q61 -64 170 -64q49 0 76 8l-41 43q-25 25 -25 58q0 30 21 51q22 22 49 22q28 0 57 -26l60 -60q32 49 32 117z" />
    <glyph glyph-name="R" unicode="R" horiz-adv-x="1015" 
d="M709 834l-4 280q0 63 -48 111q-47 47 -110 47h-213v-592h213q71 0 117 43q45 42 45 111zM692 549l189 -447q8 -16 8 -39q0 -36 -25 -61t-59 -25q-60 0 -84 56l-203 487h-190v-459q0 -34 -25 -59t-59 -25q-35 0 -60 25q-24 24 -24 59v1291q0 33 22 55q23 23 56 23h311
q137 0 233 -93q97 -94 97 -225v-272q0 -97 -50 -174t-137 -117z" />
    <glyph glyph-name="S" unicode="S" horiz-adv-x="1007" 
d="M496 -20l-17 2q-181 0 -291 104t-110 250q0 37 24 61q25 25 62 25q36 0 59 -23q22 -22 25 -59q6 -93 67 -145q63 -54 168 -54q104 0 166 62t62 159q0 79 -45 136q-47 59 -113 96q-136 75 -147 82q-96 56 -148 92q-65 45 -113 127q-45 77 -45 184q0 160 115 269
q114 108 277 108q142 0 245 -80q102 -79 129 -194q6 -24 6 -39q0 -38 -24 -62t-60 -24q-71 0 -86 73q-15 71 -73 117q-59 47 -135 47q-88 0 -150 -59q-61 -58 -61 -141q0 -84 63 -144q60 -57 156 -106q108 -55 184 -101q93 -56 156 -153t63 -234q0 -151 -110 -264
q-109 -112 -299 -112z" />
    <glyph glyph-name="T" unicode="T" horiz-adv-x="841" 
d="M100 1434l637 -2q33 0 56 -23q22 -22 22 -55t-22 -58q-21 -24 -56 -24h-235v-1209q0 -34 -25 -59q-24 -24 -59 -24q-36 0 -60 24t-24 59v1209h-234q-34 0 -55 24q-22 25 -22 60q0 33 22 55q23 23 55 23z" />
    <glyph glyph-name="U" unicode="U" horiz-adv-x="1095" 
d="M942 1370l4 -1012q0 -156 -104 -266t-285 -110q-182 0 -289 110q-106 109 -106 268v1012q0 36 24 60t60 24q35 0 59 -24q25 -25 25 -60v-1014q0 -88 59 -153q58 -64 166 -64q104 0 162 64q57 63 57 149v1016q0 35 25 60q24 24 59 24q36 0 60 -24t24 -60z" />
    <glyph glyph-name="V" unicode="V" horiz-adv-x="1034" 
d="M743 842v528q0 35 25 60q24 24 59 24q36 0 60 -24t24 -60v-530q0 -19 -6 -37l-243 -748q-15 -55 -80 -55h-129q-65 0 -80 55l-244 748q-6 18 -6 37v530q0 36 24 60t60 24q35 0 59 -24q25 -25 25 -60v-528l207 -682h39z" />
    <glyph glyph-name="W" unicode="W" horiz-adv-x="1419" 
d="M827 764l164 -604h21l84 682v528q0 36 24 60t60 24q35 0 59 -24q25 -25 25 -60v-526q0 -13 -4 -49l-105 -738q-6 -55 -80 -55h-139q-65 0 -80 55l-143 549h-13l-141 -549q-15 -55 -80 -55h-139q-74 0 -80 55l-104 738q-4 36 -4 49v526q0 36 24 60t60 24q35 0 59 -24
t24 -60v-528l84 -682h25l162 604q15 55 80 55h75q67 0 82 -55z" />
    <glyph glyph-name="X" unicode="X" horiz-adv-x="995" 
d="M745 41l-253 530l-252 -532q-27 -62 -86 -62q-33 0 -52 25q-18 24 -18 59q0 28 12 52l307 626l-286 592q-8 19 -8 37q0 36 26 59q28 25 62 25q52 0 79 -55l230 -486l219 486q27 55 80 55q34 0 59 -25t25 -59q0 -18 -8 -37l-287 -583l307 -635q12 -24 12 -52
q0 -33 -24 -57t-58 -24q-59 0 -86 61z" />
    <glyph glyph-name="Y" unicode="Y" horiz-adv-x="960" 
d="M567 678l-8 -615q0 -35 -24 -59t-60 -24q-35 0 -59 24q-25 25 -25 59v615l-321 643q-13 26 -13 51q0 33 25 58q24 24 59 24q56 0 86 -61l256 -541l246 541q27 61 86 61q35 0 59 -24q25 -25 25 -58q0 -27 -12 -51z" />
    <glyph glyph-name="Z" unicode="Z" horiz-adv-x="956" 
d="M104 201l601 1069h-521q-34 0 -55 24q-23 26 -23 60q0 32 23 55t55 23h613q42 0 67 -25t25 -61v-41q0 -49 -23 -93l-592 -1056h539q33 0 55 -25q23 -26 23 -57q0 -33 -23 -56q-22 -22 -55 -22h-639q-44 0 -68 24t-24 62v27q0 50 22 92z" />
    <glyph glyph-name="bracketleft" unicode="[" horiz-adv-x="669" 
d="M174 -287l-2 1637q0 38 23 61t61 23h256q34 0 59 -25t25 -59q0 -33 -25 -58q-24 -24 -59 -24h-168v-1473h168q35 0 59 -24q25 -25 25 -58q0 -34 -25 -59t-59 -25h-256q-38 0 -61 23q-21 21 -21 61z" />
    <glyph glyph-name="backslash" unicode="\" horiz-adv-x="733" 
d="M678 -340l-651 1690q-4 20 -4 24q0 34 24 58t59 24q54 0 74 -51l645 -1686q4 -12 4 -28q0 -35 -20 -58q-21 -24 -55 -24q-59 0 -76 51z" />
    <glyph glyph-name="bracketright" unicode="]" horiz-adv-x="669" 
d="M496 1350l-2 -1641q0 -40 -21 -61q-23 -23 -61 -23h-256q-35 0 -60 25q-24 24 -24 59q0 36 24 60t60 24h168v1473h-168q-36 0 -60 24t-24 60q0 35 24 59q25 25 60 25h256q38 0 61 -23t23 -61z" />
    <glyph glyph-name="asciicircum" unicode="^" horiz-adv-x="983" 
d="M575 1393l240 -621q6 -15 6 -33q0 -29 -22 -51q-20 -20 -56 -20q-56 0 -71 45l-178 514l-181 -514q-15 -45 -71 -45q-34 0 -56 22t-22 53q0 16 6 31l238 619q21 55 84 55q62 0 83 -55z" />
    <glyph glyph-name="underscore" unicode="_" horiz-adv-x="1005" 
d="M-76 -223h-4q0 26 23 49q20 20 55 20h1003q36 0 56 -20q22 -22 22 -49q0 -32 -20 -49q-22 -19 -55 -19h-1004q-33 0 -55 19q-21 18 -21 49z" />
    <glyph glyph-name="grave" unicode="`" horiz-adv-x="311" 
d="M311 1196l-4 -2q0 -29 -18 -47q-19 -19 -47 -19q-21 0 -49 25l-164 152q-31 31 -31 63q0 31 22 53q23 23 54 23q34 0 65 -31l150 -166q22 -28 22 -51z" />
    <glyph glyph-name="a" unicode="a" horiz-adv-x="958" 
d="M436 127l-6 2q97 0 164 64q68 65 68 135v170q-138 0 -234 -13q-92 -12 -135 -67t-43 -117q0 -76 49 -125t137 -49zM307 782l4 -4q-17 -51 -80 -51q-33 0 -53 23q-18 21 -18 55q0 70 92 156t231 86q163 0 252 -95q90 -96 90 -239v-654q0 -34 -24 -55q-25 -22 -58 -22
t-55 22q-21 21 -24 55l-2 45q-3 -4 -27 -32q-18 -21 -86 -56q-63 -32 -152 -32q-129 0 -221 86t-92 229q0 112 76 203q77 92 221 116q46 10 111 13q94 4 118 4l49 2v72q0 83 -49 135q-50 53 -133 53q-123 0 -170 -115z" />
    <glyph glyph-name="b" unicode="b" horiz-adv-x="993" 
d="M711 340l-2 340q0 96 -58 154q-59 59 -141 59q-92 0 -150 -64q-57 -63 -57 -147v-344q0 -84 55 -148q54 -63 152 -63q89 0 145 59t56 154zM301 78l-4 -21q-3 -33 -25 -55t-55 -22t-55 22q-23 23 -23 55v1315q0 32 23 55t55 23t55 -23t23 -55v-438l10 10q1 1 29 25
q18 16 47 30q28 14 65 25q41 12 80 12q144 0 242 -94t98 -233v-402q0 -137 -96 -233q-94 -94 -238 -94q-72 0 -131 24q-56 23 -79 49z" />
    <glyph glyph-name="c" unicode="c" horiz-adv-x="950" 
d="M840 272l-6 -8q0 -96 -95 -196q-95 -99 -258 -99q-162 0 -264 99q-100 97 -100 251v365q0 153 102 252q101 98 270 98q154 0 246 -92t92 -190q0 -34 -22 -56t-55 -22q-31 0 -52 18t-24 47q-12 68 -64 111t-125 43q-90 0 -147 -57t-57 -148v-360q0 -96 57 -150
q58 -55 147 -55q76 0 129 47t68 117q15 63 80 63q33 0 55 -22q23 -23 23 -56z" />
    <glyph glyph-name="d" unicode="d" horiz-adv-x="993" 
d="M283 684l-2 -348q0 -96 55 -154q54 -57 145 -57q96 0 152 65q55 64 55 148v344q0 84 -57 147q-60 66 -150 66q-84 0 -141 -57t-57 -154zM690 55l-8 33q-8 -10 -25 -31t-75 -49q-64 -31 -136 -31q-142 0 -237 95q-96 96 -96 233v402q0 139 98 233q101 96 242 96
q79 0 135 -26q58 -27 80 -52l18 -26v438q0 33 25 55q26 23 57 23t57 -23q25 -22 25 -55v-1315q0 -33 -25 -55q-26 -23 -57 -23q-32 0 -55 23t-23 55z" />
    <glyph glyph-name="e" unicode="e" horiz-adv-x="962" 
d="M281 608h397v84q0 90 -55 148q-56 59 -144 59q-87 0 -143 -59q-55 -58 -55 -148v-84zM735 461l-459 -2v-133q0 -89 56 -148q54 -57 145 -57q155 0 199 147q18 64 74 64q32 0 55 -23q22 -22 22 -55t-18 -76q-19 -45 -55 -90q-39 -48 -109 -78q-71 -30 -162 -30
q-166 0 -264 98t-98 250v364q0 151 98 252q97 100 262 100q159 0 256 -100q99 -102 99 -252v-137q0 -39 -29 -68q-26 -26 -72 -26z" />
    <glyph glyph-name="f" unicode="f" horiz-adv-x="591" 
d="M596 1425l-14 -14q41 -18 41 -65q0 -31 -21 -52q-20 -20 -49 -20q-11 0 -29 6q-44 18 -78 18q-47 0 -81 -34q-33 -33 -33 -99v-151h205q32 0 53 -21q22 -22 22 -51q0 -31 -20 -51q-21 -21 -51 -21h-205v-817q0 -32 -23 -55t-55 -23t-55 23t-23 55v817h-86q-28 0 -51 23
q-20 20 -20 53q0 31 22 53q23 23 53 23h86v131q0 141 80 221t195 80q74 0 137 -29z" />
    <glyph glyph-name="g" unicode="g" horiz-adv-x="888" 
d="M766 1120l-2 -10q35 0 55 -20q23 -23 23 -50q0 -28 -21 -49q-20 -20 -49 -20q-39 0 -59 -33l-23 -37q60 -72 60 -172v-135q0 -106 -70 -191t-172 -112v-53q0 -39 35 -60l172 -117q133 -89 133 -204q0 -89 -68 -148q-69 -60 -149 -80q-79 -20 -172 -20q-170 0 -283 67
t-113 183q0 31 23 57q22 25 55 25q59 0 80 -78q30 -115 230 -115q235 0 235 115q0 47 -41 74l-219 143q-86 56 -86 147v72q-99 29 -168 113q-68 83 -68 186v135q0 125 97 219q95 92 227 92q86 0 156 -40l41 55q46 61 141 61zM590 590l-2 133q0 69 -47 119q-46 49 -115 49
q-71 0 -117 -49q-45 -48 -45 -119v-133q0 -69 47 -119q46 -49 117 -49q69 0 115 49q47 50 47 119z" />
    <glyph glyph-name="h" unicode="h" horiz-adv-x="1003" 
d="M711 59l6 637q0 85 -51 142q-53 59 -144 59q-84 0 -149 -59q-64 -58 -64 -146v-633q0 -33 -22 -55t-56 -22q-33 0 -55 22t-22 55v1315q0 34 22 56t55 22q34 0 56 -22t22 -56v-450q9 12 27 30q21 21 80 54q57 32 129 32q151 0 239 -94q90 -96 90 -239v-648q0 -34 -24 -55
q-25 -22 -57 -22q-33 0 -58 22q-24 21 -24 55z" />
    <glyph glyph-name="i" unicode="i" horiz-adv-x="471" 
d="M129 1284q0 45 31 76t76 31q44 0 75 -31t31 -76t-31 -76q-30 -30 -75 -30q-46 0 -76 30q-31 31 -31 76zM315 965v-906q0 -33 -22 -55t-55 -22q-34 0 -56 22t-22 55v906q0 33 22 55t56 22q33 0 55 -22t22 -55z" />
    <glyph glyph-name="j" unicode="j" horiz-adv-x="491" 
d="M152 1284q0 46 30 76q31 31 76 31t76 -31t31 -76t-31 -76q-30 -30 -76 -30t-76 30t-30 76zM-76 -358l4 2q-41 18 -41 65q0 30 23 53t49 23q11 0 29 -6q46 -19 78 -19q46 0 81 35q33 33 33 99v1073q0 32 23 55q22 22 55 22t55 -22q23 -23 23 -55v-1053q0 -141 -80 -221
t-195 -80q-74 0 -137 29z" />
    <glyph glyph-name="k" unicode="k" horiz-adv-x="868" 
d="M682 18l-381 506v-467q0 -33 -25 -55t-57 -22q-33 0 -55 22q-23 23 -23 55v1315q0 32 23 55t55 23q31 0 57 -23q25 -22 25 -55v-821l358 453q28 38 68 38q33 0 55 -22q23 -23 23 -55q0 -28 -25 -56l-301 -368l326 -426q22 -31 22 -58q0 -33 -22 -55t-53 -22q-42 0 -70 38
z" />
    <glyph glyph-name="l" unicode="l" horiz-adv-x="446" 
d="M305 1374v-1315q0 -34 -24 -55q-25 -22 -58 -22q-32 0 -57 22t-25 55v1315q0 34 25 56t57 22q33 0 58 -22q24 -21 24 -56z" />
    <glyph glyph-name="m" unicode="m" horiz-adv-x="1435" 
d="M301 967l-25 -52q6 8 29 31q20 20 76 53t117 33q68 0 125 -31q52 -28 75 -61l21 -29q6 8 31 33q20 21 88 55q65 33 139 33q134 0 219 -88q86 -89 86 -235v-656q0 -33 -22 -55q-23 -23 -56 -23q-32 0 -55 23t-23 55v658q0 87 -43 133q-44 47 -112 47q-70 0 -123 -53
t-53 -133v-652q0 -32 -23 -55t-55 -23t-55 23t-23 55v678q0 65 -43 111q-42 45 -111 45q-70 0 -129 -62q-57 -60 -57 -131v-639q0 -32 -23 -55t-55 -23t-55 23t-23 55v908q0 31 23 57q21 24 55 24q33 0 55 -22t25 -55z" />
    <glyph glyph-name="n" unicode="n" horiz-adv-x="1003" 
d="M711 59v627q0 87 -52 145q-54 60 -141 60q-83 0 -149 -60q-64 -58 -64 -145v-633q0 -33 -22 -55q-23 -23 -56 -23q-32 0 -55 23q-22 22 -22 55v908q0 32 22 57q21 24 55 24t56 -22q21 -21 24 -55l2 -45q3 4 13 14.5t16 17.5q18 21 80 56q57 32 129 32q144 0 235 -94
q92 -95 92 -239v-648q0 -34 -24 -55q-25 -22 -57 -22q-33 0 -58 22q-24 21 -24 55z" />
    <glyph glyph-name="o" unicode="o" horiz-adv-x="974" 
d="M487 1044q164 0 265 -98q100 -97 100 -252v-364q0 -155 -100 -252q-101 -98 -265 -98q-163 0 -264 98q-100 97 -100 252v364q0 155 100 252q101 98 264 98zM487 125v-4q90 0 148 55q57 54 57 152v360q0 91 -57 148q-59 59 -148 59q-90 0 -147 -57t-57 -148v-360
q0 -96 57 -150q58 -55 147 -55z" />
    <glyph glyph-name="p" unicode="p" horiz-adv-x="993" 
d="M711 340l-4 342q0 95 -56 154t-145 59q-95 0 -150 -64t-55 -147v-344q0 -96 55 -154q54 -57 152 -57q93 0 147 57q56 59 56 154zM291 963l-2 -45q1 1 2 2.5l3 4.5t3 5q4 6 29 31q18 18 47 36q30 19 67 29q44 12 90 12q144 0 238 -94q96 -96 96 -233v-402q0 -138 -98 -229
q-100 -92 -242 -92q-68 0 -129 22q-58 21 -80 43l-20 23v-385q0 -33 -23 -56q-22 -22 -55 -22t-55 22q-23 23 -23 56v1274q0 32 23 55q22 22 55 22q65 0 74 -79z" />
    <glyph glyph-name="q" unicode="q" horiz-adv-x="993" 
d="M283 684l-2 -346q0 -96 55 -154q54 -57 145 -57q89 0 148 59t59 152v344q0 83 -55 147q-57 66 -150 66q-91 0 -145 -57q-55 -58 -55 -154zM694 924l8 32q3 32 23 56q19 22 53 22t56 -22t22 -56v-1273q0 -34 -25 -56t-57 -22t-57 22t-25 56v395q-9 -9 -24 -27t-76 -45
q-59 -26 -135 -26q-144 0 -238 94q-96 96 -96 233v402q0 137 96 233q94 94 238 94q74 0 135 -28q57 -26 80 -56z" />
    <glyph glyph-name="r" unicode="r" horiz-adv-x="622" 
d="M573 891l-6 -2q-4 0 -32 4t-43 4q-77 0 -136 -68t-59 -165v-607q0 -32 -23 -55q-22 -22 -55 -22t-55 22q-23 23 -23 55v908q0 31 23 57q22 25 55 25q32 0 55 -23t23 -55v-37q83 115 227 115q31 0 68 -11q53 -18 53 -69q0 -36 -20 -56t-52 -20z" />
    <glyph glyph-name="s" unicode="s" horiz-adv-x="901" 
d="M459 -20l-17 14q-165 0 -258 96q-92 95 -92 184q0 33 23 56q22 22 55 22q29 0 53 -18q26 -20 29 -45q12 -68 61 -111t133 -43q77 0 129 43t52 109q0 58 -52 98q-57 44 -124 66q-66 22 -148 55q-71 29 -125 92q-51 60 -51 154q0 132 96 213q94 79 234 79q148 0 233 -88
q86 -89 86 -174q0 -32 -20 -55q-22 -25 -51 -25q-38 0 -56 21t-33 61q-14 45 -59 80q-44 35 -102 35q-66 0 -111 -39t-45 -98q0 -56 51 -92q55 -39 125 -62q87 -29 148 -57q72 -34 125 -105q51 -68 51 -172q0 -122 -99 -208q-100 -86 -241 -86z" />
    <glyph glyph-name="t" unicode="t" horiz-adv-x="667" 
d="M344 877l-4 -627q0 -131 102 -131q45 0 90 28q24 17 46 17q28 0 47 -19q18 -18 18 -47q0 -34 -27 -61q-67 -64 -188 -64q-107 0 -178 68q-70 67 -70 190v637h-86q-28 0 -51 23q-20 20 -20 53q0 31 22 53q23 23 53 23h86v209q0 31 23 57q22 25 55 25t55 -25q23 -26 23 -57
v-209h205q32 0 53 -21q23 -23 23 -51q0 -30 -21 -51q-20 -20 -51 -20h-205z" />
    <glyph glyph-name="u" unicode="u" horiz-adv-x="1003" 
d="M293 967l-6 -637q0 -205 194 -205q86 0 150 61q63 60 63 148v633q0 31 23 57q22 25 55 25t55 -25q23 -26 23 -57v-904q0 -32 -23 -55q-22 -22 -55 -22t-55 22t-25 55l-2 41q-6 -6 -10 -12t-29 -31q-18 -18 -47 -36q-30 -19 -67 -29q-43 -12 -91 -12q-150 0 -233 92
q-84 93 -84 243v648q0 32 25 57t57 25t57 -25t25 -57z" />
    <glyph glyph-name="v" unicode="v" horiz-adv-x="933" 
d="M313 72l-188 512q-19 52 -19 104v277q0 33 25 55t57 22q33 0 58 -22q24 -21 24 -55v-326l174 -510h41l174 510v326q0 33 25 55t57 22q33 0 58 -22q24 -21 24 -55v-275q0 -52 -18 -102l-182 -516q-28 -72 -105 -72h-106q-71 0 -99 72z" />
    <glyph glyph-name="w" unicode="w" horiz-adv-x="1267" 
d="M754 612l125 -462h20l86 493v322q0 33 25 55t57 22t57 -22t25 -55v-289q0 -52 -8 -88l-107 -508q-18 -80 -96 -80h-88q-77 0 -98 80l-109 420h-10l-109 -420q-21 -80 -98 -80h-88q-78 0 -96 80l-107 506q-8 36 -8 88v291q0 32 23 55q22 22 55 22t55 -22q23 -23 23 -55
v-322l86 -493h20l123 462q18 72 92 72h55q77 0 95 -72z" />
    <glyph glyph-name="x" unicode="x" horiz-adv-x="802" 
d="M61 117l246 407l-235 385q-19 36 -19 58q0 32 23 55q22 22 55 22q45 0 68 -38l202 -338l203 338q20 38 68 38q33 0 55 -22q23 -23 23 -55q0 -22 -19 -58l-237 -385l247 -407q21 -34 21 -62q0 -32 -23 -55t-53 -23q-50 0 -70 39l-215 361l-215 -361q-23 -39 -69 -39
q-31 0 -54 23q-22 22 -22 55q0 29 20 62z" />
    <glyph glyph-name="y" unicode="y" horiz-adv-x="952" 
d="M883 918l-455 -1262q-15 -49 -72 -49q-32 0 -55 20q-25 22 -25 51q0 13 13 50l106 303l-315 884q-12 37 -12 52q0 34 24 55q25 22 58 22q58 0 73 -53l260 -749l256 749q15 53 74 53q34 0 57 -20q25 -22 25 -55q0 -13 -12 -51z" />
    <glyph glyph-name="z" unicode="z" horiz-adv-x="854" 
d="M743 852l-477 -711h428q34 0 54 -20q22 -22 22 -51q0 -32 -20 -52t-52 -20h-534q-45 0 -70 25q-24 24 -24 61q0 36 36 86l467 704h-397q-28 0 -51 23q-21 21 -21 53q0 31 23 54q22 22 53 22h506q45 0 70 -25q24 -24 24 -61q0 -33 -37 -88z" />
    <glyph glyph-name="braceleft" unicode="{" horiz-adv-x="686" 
d="M117 463l-6 -6q-76 18 -76 80q0 31 22 53t56 28q75 15 75 89v366q0 114 62 203q62 88 135 129q71 39 139 39q39 0 64 -25q24 -24 24 -57q0 -28 -18 -49q-20 -23 -47 -29q-76 -15 -131 -70q-56 -56 -56 -139v-348q0 -121 -118 -190q118 -63 118 -185v-366q0 -84 56 -140
q53 -53 133 -69q27 -6 47 -29q18 -21 18 -49q0 -33 -24 -57q-25 -25 -64 -25q-66 0 -137 39q-73 40 -135 129q-61 88 -61 203v385q0 72 -76 90z" />
    <glyph glyph-name="bar" unicode="|" horiz-adv-x="507" 
d="M332 1374v-1683q0 -33 -23 -56q-22 -22 -55 -22t-55 22q-23 23 -23 56v1683q0 33 23 56q22 22 55 22t55 -22q23 -23 23 -56z" />
    <glyph glyph-name="braceright" unicode="}" horiz-adv-x="686" 
d="M569 463h-6q-76 -18 -76 -90v-385q0 -115 -61 -203q-62 -89 -135 -129q-71 -39 -137 -39q-39 0 -64 25q-24 24 -24 59q0 28 18 49q20 23 47 29q80 16 133 69q55 55 55 140v366q0 121 119 185q-119 70 -119 190v348q0 85 -55 140q-56 56 -131 71q-27 6 -47 29
q-18 21 -18 49q0 35 24 59q25 25 64 25q68 0 139 -39q73 -41 135 -129q62 -89 62 -203v-366q0 -73 75 -88q33 -6 56 -29q22 -22 22 -53q0 -62 -76 -80z" />
    <glyph glyph-name="asciitilde" unicode="~" horiz-adv-x="1198" 
d="M815 610q74 0 92 70q15 55 74 55q33 0 55 -22q23 -23 23 -56q0 -70 -68 -135t-172 -65q-87 0 -239 61q-154 62 -195 62q-77 0 -92 -70q-15 -55 -74 -55q-33 0 -55 22q-23 23 -23 55q0 71 68 136t172 65q85 0 231 -61q148 -62 203 -62z" />
    <glyph glyph-name="exclamdown" unicode="&#xa1;" horiz-adv-x="528" 
d="M217 1024h94q23 0 37 -14q17 -17 17 -37v-99q0 -21 -15 -36t-37 -15h-98q-22 0 -37 15q-14 14 -14 36v99q0 21 16 37q14 14 37 14zM344 594v-942q0 -37 -25 -62q-24 -24 -59 -24t-59 24q-25 25 -25 62v940q0 34 25 59t59 25t59 -25t25 -57z" />
    <glyph glyph-name="cent" unicode="&#xa2;" horiz-adv-x="1073" 
d="M614 1083l-10 -73q121 -21 195 -107q73 -85 73 -168q0 -33 -22 -55q-23 -23 -55 -23q-30 0 -52 19q-21 18 -24 47q-12 68 -64 111t-125 43q-89 0 -147 -58q-57 -57 -57 -147v-330q0 -95 57 -149q59 -56 147 -56q76 0 129 47t68 117q15 64 80 64q32 0 55 -23t23 -55
q0 -83 -74 -172t-201 -113v-59q0 -33 -22 -58q-21 -24 -56 -24q-34 0 -55 24q-22 25 -22 58v61q-127 24 -205 117q-76 91 -76 225v334q0 132 76 223q77 92 209 119v61q0 34 22 56t56 22q33 0 55 -22t22 -56z" />
    <glyph glyph-name="sterling" unicode="&#xa3;" horiz-adv-x="1073" 
d="M799 1108l-4 18q0 65 -47 115q-46 49 -111 49q-69 0 -119 -47q-49 -46 -49 -117v-395h199q33 0 55 -22t22 -56q0 -33 -22 -55q-20 -20 -55 -20h-199v-420h442q33 0 56 -23q22 -22 22 -55t-22 -55q-21 -21 -56 -21h-684q-32 0 -55 23q-22 22 -22 55t22 55q23 23 55 23h68
v420h-68q-33 0 -55 22t-22 55q0 34 22 56t55 22h68v385q0 138 98 236t238 98q139 0 237 -98q99 -99 99 -236v-12q0 -34 -25 -59t-59 -25q-35 0 -60 25q-24 24 -24 59z" />
    <glyph glyph-name="currency" unicode="&#xa4;" horiz-adv-x="1073" 
d="M291 596q0 -119 69 -197q71 -80 179 -80q107 0 178 80q69 78 69 197t-69 197q-70 79 -178 79q-109 0 -179 -79q-69 -78 -69 -197zM141 600l-4 -4q0 129 70 248l-53 63q-25 25 -25 58q0 28 21 49q22 22 49 22q29 0 53 -24l55 -64q107 76 230 76t233 -78l57 66q24 24 54 24
q29 0 49 -20t20 -49q0 -34 -24 -58l-58 -65q70 -119 70 -246t-70 -246l58 -65q24 -24 24 -58q0 -28 -18 -49q-17 -20 -47 -20t-54 24l-57 64q-107 -76 -233 -76q-123 0 -230 76l-55 -64q-24 -24 -53 -24t-49 20q-21 21 -21 51q0 33 25 58l53 61q-70 122 -70 250z" />
    <glyph glyph-name="yen" unicode="&#xa5;" horiz-adv-x="1073" 
d="M870 401l-256 -4v-338q0 -35 -24 -59q-25 -25 -60 -25q-34 0 -59 25t-25 59v338h-251q-33 0 -56 23q-22 22 -22 55t22 55q23 23 56 23h251v119l-12 24h-239q-33 0 -56 23q-22 22 -22 55t22 55q23 23 56 23h159l-229 461q-12 24 -12 51q0 33 24 57q25 25 60 25
q56 0 86 -62l256 -528l245 528q27 62 86 62q35 0 60 -25q24 -24 24 -57q0 -27 -12 -51l-229 -461h157q35 0 56 -21q22 -22 22 -55t-22 -55q-23 -23 -56 -23h-235l-12 -24v-119h247q36 0 56 -20q22 -22 22 -56q0 -33 -22 -55q-23 -23 -56 -23z" />
    <glyph glyph-name="brokenbar" unicode="&#xa6;" horiz-adv-x="507" 
d="M332 1374v-626q0 -33 -23 -56q-22 -22 -55 -22t-55 22q-23 23 -23 56v626q0 33 23 56q22 22 55 22t55 -22q23 -23 23 -56zM332 317v-626q0 -33 -23 -56q-22 -22 -55 -22t-55 22q-23 23 -23 56v626q0 33 23 56q22 22 55 22t55 -22q23 -23 23 -56z" />
    <glyph glyph-name="section" unicode="&#xa7;" horiz-adv-x="1044" 
d="M522 -20l-4 -7q-149 0 -239 84q-89 83 -89 170q0 35 25 60q24 24 59 24q67 0 82 -61q24 -113 164 -113q76 0 113 37t37 80q0 50 -56 94q-52 41 -135 80q-100 47 -160 80q-79 44 -135 117q-55 73 -55 172q0 143 104 231q-40 58 -40 148q0 107 92 190q93 84 239 84
q153 0 238 -82q86 -83 86 -168q0 -34 -25 -59t-59 -25q-67 0 -82 62q-24 112 -158 112q-76 0 -116 -37q-39 -36 -39 -79q0 -52 55 -95q52 -41 135 -80q113 -53 160 -79q79 -44 135 -117q55 -73 55 -170q0 -141 -106 -234q43 -70 43 -147q0 -107 -90 -191q-87 -81 -234 -81z
M735 614l6 2q0 65 -55 111q-56 47 -172 102q-115 55 -158 80q-53 -44 -53 -106q0 -69 55 -115q52 -44 170 -98q110 -51 154 -80q53 44 53 104z" />
    <glyph glyph-name="dieresis" unicode="&#xa8;" horiz-adv-x="514" 
d="M0 1284h-2q0 39 29 68q28 28 67 28q41 0 72 -28t31 -68q0 -39 -31 -67q-32 -29 -70 -29t-67 29t-29 67zM313 1284h-2q0 40 31 68t72 28q39 0 67 -28q29 -29 29 -68q0 -38 -29 -67t-67 -29t-70 29q-31 28 -31 67z" />
    <glyph glyph-name="copyright" unicode="&#xa9;" horiz-adv-x="1423" 
d="M1141 530l-2 371q0 173 -125 295q-126 123 -301 123q-179 0 -305 -123q-127 -124 -127 -295v-371q0 -170 127 -294q126 -123 305 -123q175 0 301 123q127 124 127 294zM1278 885v-340q0 -234 -166 -400q-165 -165 -401 -165q-239 0 -404 165q-166 166 -166 400v340
q0 233 166 399t404 166q235 0 401 -166t166 -399zM719 293l-2 -12q-124 0 -197 73q-74 74 -74 189v334q0 107 74 184q73 76 197 76q113 0 184 -80q70 -79 70 -168q0 -28 -21 -49t-51 -21q-27 0 -49 19t-25 43q-9 51 -39 86q-28 32 -73 32q-60 0 -95 -38q-36 -39 -36 -99
v-299q0 -64 36 -100q37 -37 97 -37q99 0 123 119q3 25 24 43t49 18q30 0 50 -20t20 -49q0 -90 -70 -166q-72 -78 -192 -78z" />
    <glyph glyph-name="ordfeminine" unicode="&#xaa;" horiz-adv-x="698" 
d="M340 903v-2q48 0 84 31q35 30 35 84v80l-121 -9q-39 -3 -70 -28q-30 -24 -30 -60q0 -42 30 -69t72 -27zM463 846l6 -4q-41 -62 -141 -62q-86 0 -148 62q-61 61 -61 151q0 85 63 142t156 63l127 8v29q0 42 -27 72t-67 30q-65 0 -86 -53q-15 -37 -58 -37q-26 0 -45 19
q-18 18 -18 45q0 18 6 30q27 50 80 80q54 31 117 31q106 0 163 -63q60 -66 60 -172v-371q0 -26 -19 -45t-45 -19t-45 19q-18 18 -18 45zM543 571h-363q-24 0 -43 19q-18 18 -18 43t18 43t43 18h363q25 0 43 -18t18 -43t-18 -43q-19 -19 -43 -19z" />
    <glyph glyph-name="guillemotleft" unicode="&#xab;" horiz-adv-x="1075" 
d="M496 821l-179 -229l177 -225q18 -24 18 -54q0 -29 -20 -49t-50 -20q-41 0 -63 32l-209 269q-16 22 -16 49t18 51l207 266q23 33 63 33q30 0 50 -20q22 -22 22 -50q0 -29 -18 -53zM860 819l-178 -229l176 -225q19 -25 19 -54q0 -28 -21 -49q-20 -20 -49 -20q-42 0 -64 32
l-208 269q-17 24 -17 49q0 26 19 51l206 266q23 33 64 33q29 0 49 -20q23 -23 23 -50q0 -28 -19 -53z" />
    <glyph glyph-name="logicalnot" unicode="&#xac;" horiz-adv-x="1198" 
d="M1077 770l-2 -428q0 -32 -22 -57t-56 -25q-33 0 -55 25t-22 57v346h-719q-34 0 -56 25t-22 57t22 57t56 25h798q34 0 56 -25t22 -57z" />
    <glyph glyph-name="registered" unicode="&#xae;" horiz-adv-x="1218" 
d="M961 954v303q0 138 -105 240t-248 102q-147 0 -250 -100q-104 -101 -104 -239v-306q0 -138 104 -239q106 -103 250 -103q142 0 248 103q105 102 105 239zM1075 1243l-2 -278q0 -193 -135 -328t-328 -135q-194 0 -329 135q-136 136 -136 328v278q0 192 136 328
q135 135 329 135q195 0 330 -135t135 -328zM688 1163l2 113q0 19 -14 33t-31 14h-113v-203h113q18 0 31 13q12 12 12 30zM707 809l-89 192h-83v-180q0 -20 -19 -39q-18 -18 -39 -18t-39 18t-18 41v545q0 24 16 43t43 19h170q64 0 111 -44t47 -108v-102q0 -40 -21 -80
q-21 -41 -51 -62l80 -184q4 -16 4 -21q0 -20 -18 -38q-19 -19 -39 -19q-40 0 -55 37z" />
    <glyph glyph-name="macron" unicode="&#xaf;" horiz-adv-x="548" 
d="M0 1270v-8q0 30 23 53q22 22 55 22h389q35 0 55 -20q23 -23 23 -51q0 -29 -23 -52q-20 -20 -55 -20h-389q-32 0 -55 23t-23 53z" />
    <glyph glyph-name="degree" unicode="&#xb0;" horiz-adv-x="802" 
d="M102 1157q0 123 88 211t211 88t211 -88t88 -211t-88 -211t-211 -88t-211 88t-88 211zM236 1157q0 -68 49 -117t116 -49q70 0 119 49t49 117t-49 117t-119 49q-67 0 -116 -49t-49 -117z" />
    <glyph glyph-name="plusminus" unicode="&#xb1;" horiz-adv-x="1198" 
d="M199 782h321v183q0 32 23 55q22 22 55 22t55 -22q23 -23 23 -55v-183h317q34 0 56 -22t22 -55q0 -34 -22 -56t-56 -22h-317v-183q0 -32 -23 -55q-22 -22 -55 -22t-55 22q-23 23 -23 55v183h-321q-34 0 -56 22t-22 56q0 33 22 55t56 22zM997 141h-798q-34 0 -56 25t-22 57
q0 33 22 58q21 24 56 24h798q35 0 56 -24q22 -25 22 -58q0 -32 -22 -57t-56 -25z" />
    <glyph glyph-name="twosuperior" unicode="&#xb2;" horiz-adv-x="634" 
d="M104 1522l-4 -4q0 67 62 129q61 61 162 61q102 0 163 -61q62 -62 62 -156q0 -70 -47 -135q-45 -63 -103 -105q-55 -41 -108 -96q-53 -56 -62 -108h271q28 0 47 -19q18 -18 18 -45t-18 -45t-47 -18h-350q-72 0 -72 69q0 95 51 172q55 83 113 127q55 42 112 105
q52 58 52 106q0 38 -25 60t-57 22q-80 0 -95 -76q-9 -49 -61 -49q-26 0 -45 19t-19 47z" />
    <glyph glyph-name="threesuperior" unicode="&#xb3;" 
d="M88 1094l4 -4q0 27 19 49t47 22q23 0 45 -16q21 -15 24 -41q9 -68 90 -68q37 0 62 25q24 24 24 63v133q0 62 -69 62h-41q-57 0 -57 61q0 35 18 56l98 123h-182q-29 0 -47 18q-19 19 -19 47t19 47t47 19h305q28 0 47 -19t19 -47q0 -23 -13 -39l-114 -149q133 -41 133 -179
v-133q0 -88 -68 -153q-67 -64 -162 -64q-105 0 -167 62t-62 125z" />
    <glyph glyph-name="acute" unicode="&#xb4;" horiz-adv-x="311" 
d="M0 1196l-4 -2q0 23 22 51l150 166q31 31 65 31q33 0 54 -21q22 -22 22 -51q0 -33 -30 -63l-164 -152q-28 -25 -49 -25q-29 0 -48 19q-18 18 -18 47z" />
    <glyph glyph-name="mu" unicode="&#xb5;" horiz-adv-x="1021" 
d="M895 -12l-8 2q-53 0 -99 37q-45 37 -57 79q-95 -126 -248 -126q-118 0 -190 69v-358q0 -33 -23 -56q-22 -22 -55 -22t-55 22q-23 23 -23 56v1274q0 32 23 55q22 22 55 22t55 -22q23 -23 23 -55v-639q0 -85 51 -142t141 -57q97 0 158 61q62 62 62 166v609q0 34 24 55
q25 22 57 22q33 0 58 -22q24 -21 24 -55v-754q0 -52 47 -70q58 -21 58 -73q0 -33 -23 -56q-22 -22 -55 -22z" />
    <glyph glyph-name="paragraph" unicode="&#xb6;" horiz-adv-x="1009" 
d="M717 -309l-6 1593h-127v-1589q0 -32 -23 -55t-55 -23t-55 23t-23 55v948q-148 24 -254 133q-104 107 -104 258q0 170 118 285q120 117 289 117h297q49 0 74 -31q24 -30 24 -70v-1644q0 -34 -22 -56t-55 -22q-34 0 -56 22t-22 56z" />
    <glyph glyph-name="periodcentered" unicode="&#xb7;" horiz-adv-x="466" 
d="M283 496h-103q-23 0 -37 14t-14 37v98q0 21 16 37q14 14 37 14h99q22 0 36 -14q17 -17 17 -37v-98q0 -22 -15 -37q-14 -14 -36 -14z" />
    <glyph glyph-name="cedilla" unicode="&#xb8;" horiz-adv-x="327" 
d="M0 -315v-2q0 20 16 36q17 17 37 17h94q18 0 31 16q12 15 12 35q0 18 -12 33q-11 14 -31 14h-49q-53 0 -53 55v111h119v-57q67 0 115 -45q49 -46 49 -111t-49 -111q-48 -45 -113 -45h-113q-20 0 -37 17q-16 16 -16 37z" />
    <glyph glyph-name="onesuperior" unicode="&#xb9;" horiz-adv-x="458" 
d="M336 1638v-659q0 -27 -23 -47q-22 -19 -49 -19t-49 19q-20 17 -20 47v584l-82 -27q-12 -6 -29 -6q-22 0 -41 16q-18 15 -18 43q0 46 53 64l145 47q18 6 41 6q28 0 49 -18q23 -20 23 -50z" />
    <glyph glyph-name="ordmasculine" unicode="&#xba;" horiz-adv-x="698" 
d="M586 1239v-238q0 -90 -66 -153q-65 -62 -166 -62q-104 0 -172 62q-67 61 -67 153v238q0 93 67 154t172 61q102 0 166 -61q66 -63 66 -154zM459 1001l2 238q0 38 -31 66t-76 28q-42 0 -73 -28t-31 -66v-238q0 -36 31 -67t73 -31q43 0 74 31t31 67zM539 578h-363
q-25 0 -43 18t-18 43t18 43t43 18h363q25 0 43 -18t18 -43t-18 -43t-43 -18z" />
    <glyph glyph-name="guillemotright" unicode="&#xbb;" horiz-adv-x="1075" 
d="M754 594l-179 229q-18 24 -18 54q0 26 23 49q20 20 49 20q40 0 63 -33l207 -266q19 -25 19 -51q0 -25 -17 -49l-209 -268q-23 -33 -63 -33q-29 0 -49 20q-21 21 -21 49q0 29 19 54zM385 596l-178 229q-19 25 -19 54q0 26 23 49q20 20 49 20q41 0 64 -33l206 -266
q19 -25 19 -51q0 -25 -17 -49l-208 -268q-23 -33 -64 -33q-29 0 -49 20q-21 21 -21 49q0 29 19 54z" />
    <glyph glyph-name="onequarter" unicode="&#xbc;" horiz-adv-x="1288" 
d="M993 1376l-696 -1372q-15 -27 -45 -27q-22 0 -39 17q-14 14 -14 37q0 12 6 24l696 1370q12 27 45 27q25 0 39 -14t14 -37q0 -13 -6 -25zM377 1382v-659q0 -27 -23 -47q-22 -19 -49 -19t-49 19q-20 17 -20 47v584l-82 -27q-12 -6 -29 -6q-22 0 -41 16q-18 15 -18 43
q0 46 53 64l145 47q18 6 41 6q28 0 49 -18q23 -20 23 -50zM649 250l217 495q17 39 62 39q29 0 49 -20t20 -49q0 -17 -6 -29l-182 -407h156v88q0 29 20 49q22 22 49 22q29 0 49 -20q23 -23 23 -49v-88h18q28 0 50 -19q20 -17 20 -47q0 -27 -18 -45t-48 -18h-18v-95
q0 -29 -20 -49t-50 -20q-29 0 -49 20t-20 49v95h-266q-28 0 -46 18t-18 47q0 14 8 33z" />
    <glyph glyph-name="onehalf" unicode="&#xbd;" horiz-adv-x="1284" 
d="M983 1376l-696 -1372q-12 -27 -45 -27q-22 0 -39 17q-15 15 -15 37q0 10 7 24l696 1370q15 27 45 27q25 0 39 -14t14 -37q0 -13 -6 -25zM377 1382v-659q0 -27 -23 -47q-22 -19 -49 -19t-49 19q-20 17 -20 47v584l-82 -27q-12 -6 -29 -6q-22 0 -41 16q-18 15 -18 43
q0 46 53 64l145 47q18 6 41 6q28 0 49 -18q23 -20 23 -50zM733 602h-6q0 68 61 129q62 62 162 62q102 0 164 -62t62 -156q0 -68 -48 -135q-45 -62 -102 -104q-56 -40 -108 -96q-53 -56 -62 -109h270q30 0 48 -18t18 -47q0 -30 -18 -48t-46 -18h-350q-71 0 -71 70
q0 95 51 172q56 85 112 127q61 46 113 104q51 57 51 107q0 38 -24 59q-26 23 -58 23q-79 0 -94 -76q-9 -49 -61 -49q-27 0 -45 18q-19 19 -19 47z" />
    <glyph glyph-name="threequarters" unicode="&#xbe;" horiz-adv-x="1421" 
d="M1141 1376l-697 -1372q-15 -27 -45 -27q-22 0 -39 17q-14 14 -14 37q0 12 6 24l697 1370q12 27 45 27q25 0 39 -14t14 -37q0 -13 -6 -25zM797 248l217 495q17 39 61 39q29 0 49 -20q21 -21 21 -49q0 -17 -6 -29l-183 -408h156v89q0 28 21 49q22 22 49 22q29 0 49 -20
q22 -22 22 -49v-88h19q27 0 49 -19q20 -17 20 -47q0 -27 -18 -45t-47 -18h-19v-95q0 -29 -20 -49t-49 -20t-49 20q-21 21 -21 49v95h-266q-27 0 -45 18q-19 19 -19 47q0 12 9 33zM100 827l4 -4q0 27 19 49q20 23 47 23q23 0 45 -16t25 -41q9 -68 90 -68q36 0 61 25t25 63
v133q0 62 -70 62h-41q-57 0 -57 61q0 34 18 55l99 123h-183q-28 0 -47 19q-18 18 -18 47t18 47t47 18h305q30 0 48 -18t18 -47q0 -24 -12 -39l-115 -150q133 -41 133 -178v-133q0 -89 -67 -153t-162 -64q-107 0 -168 61q-62 62 -62 125z" />
    <glyph glyph-name="questiondown" unicode="&#xbf;" horiz-adv-x="966" 
d="M477 1026l98 -4q23 0 37 -14q15 -15 15 -37v-99q0 -21 -15 -36t-37 -15h-98q-20 0 -37 17q-14 14 -14 36v99q0 23 14 37q16 16 37 16zM877 -111l-7 -6q0 -102 -100 -211q-101 -110 -276 -110q-166 0 -279 104t-113 273q0 86 31 159t76 121q15 17 46 49.5t46 48.5
q47 49 84 117q38 68 47 152q3 35 27 59q25 25 59 25q35 0 60 -25q24 -24 24 -57q0 -161 -119 -307q-11 -16 -65 -76q-53 -59 -68 -82q-22 -34 -41 -80q-20 -50 -20 -111q0 -85 61 -143q60 -57 150 -57q77 0 135 43q59 44 74 114q18 82 84 82q35 0 59 -24q25 -25 25 -58z" />
    <glyph glyph-name="Agrave" unicode="&#xc0;" horiz-adv-x="1034" 
d="M737 616l-200 662h-39l-201 -662h440zM453 1446h129q65 0 80 -55l243 -760q6 -18 6 -37v-531q0 -35 -24 -59t-60 -24q-35 0 -59 24q-25 25 -25 59v400h-452v-400q0 -34 -25 -59q-24 -24 -59 -24q-36 0 -60 24t-24 59v531q0 19 6 37l244 760q15 55 80 55zM592 1606l-6 -2
q0 -29 -19 -48q-18 -18 -45 -18q-21 0 -49 25l-164 151q-30 30 -30 64q0 31 22 53t53 22q36 0 66 -30l149 -166q23 -30 23 -51z" />
    <glyph glyph-name="Aacute" unicode="&#xc1;" horiz-adv-x="1034" 
d="M737 616l-200 662h-39l-201 -662h440zM453 1446h129q65 0 80 -55l243 -760q6 -18 6 -37v-531q0 -35 -24 -59t-60 -24q-35 0 -59 24q-25 25 -25 59v400h-452v-400q0 -34 -25 -59q-24 -24 -59 -24q-36 0 -60 24t-24 59v531q0 19 6 37l244 760q15 55 80 55zM428 1606l-6 -2
q0 23 22 51l150 166q30 30 65 30q34 0 54 -20q22 -22 22 -51q0 -34 -30 -64l-164 -151q-28 -25 -49 -25q-27 0 -46 19q-18 18 -18 47z" />
    <glyph glyph-name="Acircumflex" unicode="&#xc2;" horiz-adv-x="1034" 
d="M737 616l-200 662h-39l-201 -662h440zM453 1446h129q65 0 80 -55l243 -760q6 -18 6 -37v-531q0 -35 -24 -59t-60 -24q-35 0 -59 24q-25 25 -25 59v400h-452v-400q0 -34 -25 -59q-24 -24 -59 -24q-36 0 -60 24t-24 59v531q0 19 6 37l244 760q15 55 80 55zM770 1604
q0 -25 -18 -43q-19 -19 -43 -19q-20 0 -50 23l-147 131l-147 -131q-30 -23 -50 -23q-24 0 -43 19q-18 18 -18 43t20 45l158 163q34 37 80 37q43 0 80 -37l156 -163q22 -19 22 -45z" />
    <glyph glyph-name="Atilde" unicode="&#xc3;" horiz-adv-x="1034" 
d="M737 616l-200 662h-39l-201 -662h440zM453 1446h129q65 0 80 -55l243 -760q6 -18 6 -37v-531q0 -35 -24 -59t-60 -24q-35 0 -59 24q-25 25 -25 59v400h-452v-400q0 -34 -25 -59q-24 -24 -59 -24q-36 0 -60 24t-24 59v531q0 19 6 37l244 760q15 55 80 55zM387 1776v-4
q54 0 133 -46q77 -45 111 -45q40 0 55 41q15 50 66 50q28 0 47 -19q18 -18 18 -49q0 -61 -49 -107q-48 -45 -125 -45q-52 0 -131 43t-111 43q-40 0 -55 -41q-15 -49 -65 -49q-29 0 -48 19q-18 18 -18 49q0 61 49 110q50 50 123 50z" />
    <glyph glyph-name="Adieresis" unicode="&#xc4;" horiz-adv-x="1034" 
d="M737 616l-200 662h-39l-201 -662h440zM453 1446h129q65 0 80 -55l243 -760q6 -18 6 -37v-531q0 -35 -24 -59t-60 -24q-35 0 -59 24q-25 25 -25 59v400h-452v-400q0 -34 -25 -59q-24 -24 -59 -24q-36 0 -60 24t-24 59v531q0 19 6 37l244 760q15 55 80 55zM262 1694h-2
q0 38 29 67t67 29q40 0 72 -29q31 -28 31 -67q0 -40 -31 -68q-32 -29 -70 -29t-67 29t-29 68zM575 1694h-2q0 39 31 67q32 29 72 29q38 0 67 -29t29 -67q0 -39 -29 -68t-67 -29t-70 29q-31 28 -31 68z" />
    <glyph glyph-name="Aring" unicode="&#xc5;" horiz-adv-x="1034" 
d="M737 616l-200 662h-39l-201 -662h440zM453 1446h129q65 0 80 -55l243 -760q6 -18 6 -37v-531q0 -35 -24 -59t-60 -24q-35 0 -59 24q-25 25 -25 59v400h-452v-400q0 -34 -25 -59q-24 -24 -59 -24q-36 0 -60 24t-24 59v531q0 19 6 37l244 760q15 55 80 55zM451 1692
q0 -29 18 -47q19 -19 47 -19t47 19t19 47t-19 47q-18 18 -47 18t-47 -18t-18 -47zM342 1690q0 71 51 122q52 52 123 52t123 -52q51 -51 51 -122q0 -72 -51 -123t-123 -51t-123 51t-51 123z" />
    <glyph glyph-name="AE" unicode="&#xc6;" horiz-adv-x="1320" 
d="M496 1272l-199 -656h321v656h-122zM795 836l323 -9q33 0 58 -22q24 -21 24 -55q0 -35 -24 -56q-25 -22 -58 -22h-319v-514h385q33 0 55 -25q23 -26 23 -57q0 -34 -25 -56t-57 -22h-478q-34 0 -59 25t-25 59v379h-327v-400q0 -34 -25 -59t-59 -25q-35 0 -60 25
q-24 24 -24 59v531q0 19 6 37l240 747q15 56 80 56h714q33 0 56 -23q22 -22 22 -55t-22 -58q-21 -24 -56 -24h-368v-436z" />
    <glyph glyph-name="Ccedilla" unicode="&#xc7;" horiz-adv-x="1024" 
d="M420 -315l-6 -4q0 20 16 36q17 17 37 17h94q18 0 31 16q12 15 12 35q0 18 -12 33q-11 14 -31 14h-49q-53 0 -53 55v97q-147 21 -234 122q-88 101 -88 246v719q0 158 113 268q114 111 282 111q143 0 246 -80q102 -79 129 -194q6 -24 6 -39q0 -38 -24 -62t-60 -24
q-71 0 -86 73q-15 71 -73 117q-59 47 -135 47q-98 0 -158 -63q-62 -65 -62 -168v-684q0 -111 64 -172q65 -62 166 -62q88 0 147 56q58 55 64 145q3 38 24 59q23 23 60 23q36 0 61 -25t25 -61q0 -131 -99 -236q-97 -103 -245 -118v-39q66 0 114 -45q49 -46 49 -111t-49 -111
q-48 -45 -112 -45h-113q-20 0 -37 17q-14 14 -14 37z" />
    <glyph glyph-name="Egrave" unicode="&#xc8;" horiz-adv-x="962" 
d="M819 0l-571 -4q-33 0 -55 22q-23 23 -23 56v1274q0 32 23 55q22 22 55 22h559q33 0 55 -22q23 -23 23 -55t-23 -58q-21 -24 -55 -24h-467v-437h418q32 0 57 -22t25 -55q0 -34 -25 -56t-57 -22h-418v-514h483q34 0 56 -25t22 -57q0 -34 -24 -55q-26 -23 -58 -23zM688 1602
l-4 -3q0 -29 -18 -47t-48 -18q-21 0 -49 25l-163 151q-31 31 -31 64q0 31 22 53t54 22q35 0 65 -30l150 -166q22 -28 22 -51z" />
    <glyph glyph-name="Eacute" unicode="&#xc9;" horiz-adv-x="962" 
d="M819 0l-571 -4q-33 0 -55 22q-23 23 -23 56v1274q0 32 23 55q22 22 55 22h559q33 0 55 -22q23 -23 23 -55t-23 -58q-21 -24 -55 -24h-467v-437h418q32 0 57 -22t25 -55q0 -34 -25 -56t-57 -22h-418v-514h483q34 0 56 -25t22 -57q0 -34 -24 -55q-26 -23 -58 -23zM379 1602
l-6 -3q0 24 22 52l150 166q30 30 65 30q34 0 54 -20q22 -22 22 -51q0 -33 -31 -64l-163 -151q-28 -25 -50 -25q-27 0 -45 18t-18 48z" />
    <glyph glyph-name="Ecircumflex" unicode="&#xca;" horiz-adv-x="962" 
d="M819 0l-571 -4q-33 0 -55 22q-23 23 -23 56v1274q0 32 23 55q22 22 55 22h559q33 0 55 -22q23 -23 23 -55t-23 -58q-21 -24 -55 -24h-467v-437h418q32 0 57 -22t25 -55q0 -34 -25 -56t-57 -22h-418v-514h483q34 0 56 -25t22 -57q0 -34 -24 -55q-26 -23 -58 -23zM791 1599
q0 -24 -19 -43q-18 -18 -43 -18q-19 0 -49 23l-148 131l-147 -131q-30 -23 -49 -23q-25 0 -43 18q-19 19 -19 43q0 25 21 46l158 163q34 37 79 37q43 0 80 -37l156 -163q23 -20 23 -46z" />
    <glyph glyph-name="Edieresis" unicode="&#xcb;" horiz-adv-x="962" 
d="M819 0l-571 -4q-33 0 -55 22q-23 23 -23 56v1274q0 32 23 55q22 22 55 22h559q33 0 55 -22q23 -23 23 -55t-23 -58q-21 -24 -55 -24h-467v-437h418q32 0 57 -22t25 -55q0 -34 -25 -56t-57 -22h-418v-514h483q34 0 56 -25t22 -57q0 -34 -24 -55q-26 -23 -58 -23zM285 1690
h-2q0 39 28 67q29 29 68 29q40 0 72 -29q30 -27 30 -67q0 -41 -30 -68q-32 -29 -70 -29q-39 0 -68 29q-28 28 -28 68zM598 1690h-2q0 39 31 67q32 29 71 29t68 -29t29 -67q0 -39 -29 -68t-68 -29q-37 0 -69 29q-31 28 -31 68z" />
    <glyph glyph-name="Igrave" unicode="&#xcc;" horiz-adv-x="499" 
d="M338 1370v-1307q0 -35 -27 -59t-61 -24q-36 0 -60 24t-24 59v1307q0 36 24 60t60 24q34 0 61 -24t27 -60zM307 1606l-4 -2q0 -30 -18 -48t-47 -18q-22 0 -50 25l-163 151q-31 31 -31 64q0 31 22 53t54 22q35 0 65 -30l150 -166q22 -28 22 -51z" />
    <glyph glyph-name="Iacute" unicode="&#xcd;" horiz-adv-x="499" 
d="M338 1370v-1307q0 -35 -27 -59t-61 -24q-36 0 -60 24t-24 59v1307q0 36 24 60t60 24q34 0 61 -24t27 -60zM197 1606l-4 -2q0 23 22 51l150 166q30 30 65 30q33 0 53 -20q23 -23 23 -51q0 -33 -31 -64l-164 -151q-28 -25 -49 -25q-28 0 -47 19q-18 18 -18 47z" />
    <glyph glyph-name="Icircumflex" unicode="&#xce;" horiz-adv-x="499" 
d="M338 1370v-1307q0 -35 -27 -59t-61 -24q-36 0 -60 24t-24 59v1307q0 36 24 60t60 24q34 0 61 -24t27 -60zM508 1604q0 -24 -19 -43t-43 -19q-19 0 -49 23l-147 131l-148 -131q-30 -23 -49 -23q-24 0 -43 19q-18 18 -18 43t20 45l158 163q34 37 80 37q43 0 80 -37
l155 -163q23 -20 23 -45z" />
    <glyph glyph-name="Idieresis" unicode="&#xcf;" horiz-adv-x="499" 
d="M338 1370v-1307q0 -35 -27 -59t-61 -24q-36 0 -60 24t-24 59v1307q0 36 24 60t60 24q34 0 61 -24t27 -60zM-4 1694h-2q0 38 29 67t67 29q40 0 72 -29q31 -28 31 -67q0 -40 -31 -68q-32 -29 -70 -29t-67 29t-29 68zM309 1694h-2q0 39 31 67q32 29 72 29q38 0 67 -29
t29 -67q0 -39 -29 -68t-67 -29t-70 29q-31 28 -31 68z" />
    <glyph glyph-name="Eth" unicode="&#xd0;" horiz-adv-x="1087" 
d="M41 836h139v598h377q163 0 277 -111q112 -109 112 -266v-680q0 -157 -112 -266q-114 -111 -277 -111h-377v676h-139v160zM770 375v684q0 91 -63 151q-65 62 -156 62h-201v-436h205v-160h-205v-514h201q92 0 156 61q63 60 63 152z" />
    <glyph glyph-name="Ntilde" unicode="&#xd1;" horiz-adv-x="1116" 
d="M764 51l-451 1034q11 -229 11 -337v-687q0 -33 -23 -59q-22 -25 -55 -25q-34 0 -56 25t-22 59v1285q0 46 25 77t69 31q65 0 96 -72l451 -1040q-10 167 -10 334v694q0 35 22 60q21 24 56 24q34 0 55 -24q22 -25 22 -60v-1284q0 -46 -24 -76t-70 -30q-66 0 -96 71z
M440 1774v-5q56 0 133 -45t111 -45q40 0 55 41q15 49 66 49q29 0 47 -18t18 -49q0 -61 -49 -107q-48 -45 -125 -45q-52 0 -131 43t-110 43q-41 0 -56 -41q-15 -49 -65 -49q-28 0 -47 19t-19 49q0 61 49 110q50 50 123 50z" />
    <glyph glyph-name="Ograve" unicode="&#xd2;" horiz-adv-x="1099" 
d="M956 1077v-721q0 -151 -110 -264q-109 -112 -293 -112q-186 0 -297 114t-111 264v719q0 150 111 264q110 113 297 113q183 0 293 -113t110 -264zM782 354l-2 727q0 86 -61 150q-60 63 -168 63q-110 0 -170 -63q-62 -65 -62 -150v-723q0 -88 62 -153q61 -64 170 -64
t170 64t61 149zM664 1608l-7 -2q0 -29 -18 -47q-19 -19 -45 -19q-21 0 -49 25l-164 151q-31 31 -31 64q0 30 23 53q22 22 53 22q36 0 66 -30l149 -166q23 -30 23 -51z" />
    <glyph glyph-name="Oacute" unicode="&#xd3;" horiz-adv-x="1099" 
d="M956 1077v-721q0 -151 -110 -264q-109 -112 -293 -112q-186 0 -297 114t-111 264v719q0 150 111 264q110 113 297 113q183 0 293 -113t110 -264zM782 354l-2 727q0 86 -61 150q-60 63 -168 63q-110 0 -170 -63q-62 -65 -62 -150v-723q0 -88 62 -153q61 -64 170 -64
t170 64t61 149zM438 1608l-6 -2q0 21 23 51l149 166q30 30 66 30q33 0 53 -20q22 -22 22 -51q0 -34 -30 -64l-164 -151q-28 -25 -49 -25q-26 0 -45 19t-19 47z" />
    <glyph glyph-name="Ocircumflex" unicode="&#xd4;" horiz-adv-x="1099" 
d="M956 1077v-721q0 -151 -110 -264q-109 -112 -293 -112q-186 0 -297 114t-111 264v719q0 150 111 264q110 113 297 113q183 0 293 -113t110 -264zM782 354l-2 727q0 86 -61 150q-60 63 -168 63q-110 0 -170 -63q-62 -65 -62 -150v-723q0 -88 62 -153q61 -64 170 -64
t170 64t61 149zM807 1606q0 -24 -19 -43t-43 -19q-19 0 -49 23l-147 131l-148 -131q-30 -23 -49 -23q-24 0 -43 19q-18 18 -18 43t20 45l158 164q33 36 80 36q44 0 80 -36l155 -164q23 -20 23 -45z" />
    <glyph glyph-name="Otilde" unicode="&#xd5;" horiz-adv-x="1099" 
d="M956 1077v-721q0 -151 -110 -264q-109 -112 -293 -112q-186 0 -297 114t-111 264v719q0 150 111 264q110 113 297 113q183 0 293 -113t110 -264zM782 354l-2 727q0 86 -61 150q-60 63 -168 63q-110 0 -170 -63q-62 -65 -62 -150v-723q0 -88 62 -153q61 -64 170 -64
t170 64t61 149zM418 1778v-4q56 0 133 -45q79 -46 111 -46q40 0 55 41q15 50 65 50q28 0 47 -19t19 -49q0 -61 -49 -107q-48 -45 -125 -45q-52 0 -131 43t-111 43q-40 0 -55 -41q-15 -49 -66 -49q-28 0 -47 19q-18 18 -18 49q0 62 49 111t123 49z" />
    <glyph glyph-name="Odieresis" unicode="&#xd6;" horiz-adv-x="1099" 
d="M956 1077v-721q0 -151 -110 -264q-109 -112 -293 -112q-186 0 -297 114t-111 264v719q0 150 111 264q110 113 297 113q183 0 293 -113t110 -264zM782 354l-2 727q0 86 -61 150q-60 63 -168 63q-110 0 -170 -63q-62 -65 -62 -150v-723q0 -88 62 -153q61 -64 170 -64
t170 64t61 149zM291 1696h-2q0 39 28 67q29 29 68 29q40 0 72 -29q30 -27 30 -67q0 -41 -30 -68q-32 -29 -70 -29q-39 0 -68 29q-28 28 -28 68zM604 1696h-2q0 39 31 67q32 29 72 29q38 0 67 -29t29 -67q0 -39 -29 -68t-67 -29t-70 29q-31 28 -31 68z" />
    <glyph glyph-name="multiply" unicode="&#xd7;" horiz-adv-x="1060" 
d="M172 358l238 244l-236 236q-22 22 -22 55t24 57q25 25 57 25q31 0 56 -25l237 -235l238 239q23 23 57 23q33 0 58 -25q24 -24 24 -55q0 -28 -24 -55l-238 -240l244 -246q24 -24 24 -55q0 -33 -24 -57q-25 -25 -58 -25q-32 0 -55 23l-244 245l-243 -241q-25 -25 -56 -25
q-30 0 -55 25q-24 24 -24 57t22 55z" />
    <glyph glyph-name="Oslash" unicode="&#xd8;" horiz-adv-x="1099" 
d="M961 1384l-66 -114q57 -89 57 -195v-721q0 -151 -110 -264t-293 -113q-174 0 -289 103l-37 -68q-18 -35 -47 -35q-21 0 -37 13q-14 11 -14 35q0 10 6 22l62 115q-54 91 -54 194v719q0 150 111 264q110 113 297 113q168 0 282 -102l37 67q18 35 47 35q22 0 37 -12
q17 -14 17 -33q0 -11 -6 -23zM782 385v670l-442 -826q64 -104 209 -104q109 0 172 72q61 70 61 188zM309 1047v-670l439 821q-64 102 -203 102q-114 0 -174 -69q-62 -71 -62 -184z" />
    <glyph glyph-name="Ugrave" unicode="&#xd9;" horiz-adv-x="1095" 
d="M942 1370l4 -1012q0 -156 -104 -266t-285 -110q-182 0 -289 110q-106 109 -106 268v1012q0 36 24 60t60 24q35 0 59 -24q25 -25 25 -60v-1014q0 -88 59 -153q58 -64 166 -64q104 0 162 64q57 63 57 149v1016q0 35 25 60q24 24 59 24q36 0 60 -24t24 -60zM659 1608l-4 -2
q0 -29 -18 -47q-19 -19 -47 -19q-21 0 -49 25l-164 151q-31 31 -31 64q0 30 23 53q22 22 53 22q35 0 65 -30l150 -166q22 -28 22 -51z" />
    <glyph glyph-name="Uacute" unicode="&#xda;" horiz-adv-x="1095" 
d="M942 1370l4 -1012q0 -156 -104 -266t-285 -110q-182 0 -289 110q-106 109 -106 268v1012q0 36 24 60t60 24q35 0 59 -24q25 -25 25 -60v-1014q0 -88 59 -153q58 -64 166 -64q104 0 162 64q57 63 57 149v1016q0 35 25 60q24 24 59 24q36 0 60 -24t24 -60zM477 1608l-6 -2
q0 21 23 51l149 166q30 30 66 30q33 0 53 -20q22 -22 22 -51q0 -34 -30 -64l-164 -151q-28 -25 -49 -25q-26 0 -45 19t-19 47z" />
    <glyph glyph-name="Ucircumflex" unicode="&#xdb;" horiz-adv-x="1095" 
d="M942 1370l4 -1012q0 -156 -104 -266t-285 -110q-182 0 -289 110q-106 109 -106 268v1012q0 36 24 60t60 24q35 0 59 -24q25 -25 25 -60v-1014q0 -88 59 -153q58 -64 166 -64q104 0 162 64q57 63 57 149v1016q0 35 25 60q24 24 59 24q36 0 60 -24t24 -60zM809 1606
q0 -25 -18 -43q-19 -19 -43 -19q-20 0 -50 23l-147 131l-148 -131q-30 -23 -49 -23q-24 0 -43 19q-18 18 -18 43t20 45l158 164q33 36 80 36q44 0 80 -36l155 -164q23 -20 23 -45z" />
    <glyph glyph-name="Udieresis" unicode="&#xdc;" horiz-adv-x="1095" 
d="M942 1370l4 -1012q0 -156 -104 -266t-285 -110q-182 0 -289 110q-106 109 -106 268v1012q0 36 24 60t60 24q35 0 59 -24q25 -25 25 -60v-1014q0 -88 59 -153q58 -64 166 -64q104 0 162 64q57 63 57 149v1016q0 35 25 60q24 24 59 24q36 0 60 -24t24 -60zM299 1696h-2
q0 38 29 67t67 29q40 0 72 -29q31 -28 31 -67q0 -40 -31 -68q-32 -29 -70 -29t-67 29t-29 68zM612 1696h-2q0 39 31 67q32 29 72 29q38 0 67 -29t29 -67q0 -39 -29 -68t-67 -29t-70 29q-31 28 -31 68z" />
    <glyph glyph-name="Yacute" unicode="&#xdd;" horiz-adv-x="960" 
d="M567 678l-8 -615q0 -35 -24 -59t-60 -24q-35 0 -59 24q-25 25 -25 59v615l-321 643q-13 26 -13 51q0 33 25 58q24 24 59 24q56 0 86 -61l256 -541l246 541q27 61 86 61q35 0 59 -24q25 -25 25 -58q0 -27 -12 -51zM352 1606l-4 -2q0 21 23 51l149 166q30 30 66 30
q33 0 53 -20q23 -23 23 -51q0 -33 -31 -64l-164 -151q-28 -25 -49 -25q-28 0 -47 19t-19 47z" />
    <glyph glyph-name="Thorn" unicode="&#xde;" horiz-adv-x="985" 
d="M336 1370l-6 -147h219q137 0 233 -93q97 -94 97 -225v-297q0 -133 -95 -225t-233 -92h-219v-228q0 -34 -25 -59q-24 -24 -59 -24q-36 0 -60 24t-24 59v1307q0 36 24 60t60 24q34 0 61 -24t27 -60zM702 602v295q0 68 -47 115t-110 47h-213v-613h213q64 0 110 46
q47 47 47 110z" />
    <glyph glyph-name="germandbls" unicode="&#xdf;" horiz-adv-x="1075" 
d="M387 248l-25 -6q0 34 25 59t57 25q60 0 78 -72q40 -131 148 -131q57 0 100 43t43 100q0 60 -33 107q-37 53 -82 90q-35 29 -98 84q-46 40 -82 108q-33 62 -33 146q0 95 66 164t160 90v14q0 99 -60 168q-59 68 -147 68t-150 -68q-61 -67 -61 -166v-1014q0 -32 -23 -55
q-22 -22 -55 -22t-55 22q-23 23 -23 55v1016q0 158 107 268q108 111 266 111t262 -104q105 -105 105 -256v-43q0 -95 -70 -113q-148 -41 -148 -129q0 -45 35 -92q36 -48 82 -86q50 -41 98 -86q50 -47 84 -113q35 -68 35 -147q0 -127 -88 -215t-217 -88q-141 0 -221 92
t-80 176z" />
    <glyph glyph-name="agrave" unicode="&#xe0;" horiz-adv-x="958" 
d="M436 127l-6 2q97 0 164 64q68 65 68 135v170q-138 0 -234 -13q-92 -12 -135 -67t-43 -117q0 -76 49 -125t137 -49zM307 782l4 -4q-17 -51 -80 -51q-33 0 -53 23q-18 21 -18 55q0 70 92 156t231 86q163 0 252 -95q90 -96 90 -239v-654q0 -34 -24 -55q-25 -22 -58 -22
t-55 22q-21 21 -24 55l-2 45q-3 -4 -27 -32q-18 -21 -86 -56q-63 -32 -152 -32q-129 0 -221 86t-92 229q0 112 76 203q77 92 221 116q46 10 111 13q94 4 118 4l49 2v72q0 83 -49 135q-50 53 -133 53q-123 0 -170 -115zM600 1194l-4 -2q0 -29 -18 -47q-19 -19 -48 -19
q-21 0 -49 25l-164 152q-30 30 -30 63q0 31 22 53q23 23 53 23q35 0 66 -31l150 -166q22 -28 22 -51z" />
    <glyph glyph-name="aacute" unicode="&#xe1;" horiz-adv-x="958" 
d="M436 127l-6 2q97 0 164 64q68 65 68 135v170q-138 0 -234 -13q-92 -12 -135 -67t-43 -117q0 -76 49 -125t137 -49zM307 782l4 -4q-17 -51 -80 -51q-33 0 -53 23q-18 21 -18 55q0 70 92 156t231 86q163 0 252 -95q90 -96 90 -239v-654q0 -34 -24 -55q-25 -22 -58 -22
t-55 22q-21 21 -24 55l-2 45q-3 -4 -27 -32q-18 -21 -86 -56q-63 -32 -152 -32q-129 0 -221 86t-92 229q0 112 76 203q77 92 221 116q46 10 111 13q94 4 118 4l49 2v72q0 83 -49 135q-50 53 -133 53q-123 0 -170 -115zM395 1194l-4 -2q0 21 23 51l149 166q31 31 66 31
q32 0 53 -21q23 -23 23 -51q0 -32 -31 -63l-164 -152q-28 -25 -49 -25q-28 0 -47 19t-19 47z" />
    <glyph glyph-name="acircumflex" unicode="&#xe2;" horiz-adv-x="958" 
d="M436 127l-6 2q97 0 164 64q68 65 68 135v170q-138 0 -234 -13q-92 -12 -135 -67t-43 -117q0 -76 49 -125t137 -49zM307 782l4 -4q-17 -51 -80 -51q-33 0 -53 23q-18 21 -18 55q0 70 92 156t231 86q163 0 252 -95q90 -96 90 -239v-654q0 -34 -24 -55q-25 -22 -58 -22
t-55 22q-21 21 -24 55l-2 45q-3 -4 -27 -32q-18 -21 -86 -56q-63 -32 -152 -32q-129 0 -221 86t-92 229q0 112 76 203q77 92 221 116q46 10 111 13q94 4 118 4l49 2v72q0 83 -49 135q-50 53 -133 53q-123 0 -170 -115zM741 1192q0 -25 -18 -43q-19 -19 -43 -19q-19 0 -49 23
l-148 131l-147 -131q-30 -23 -49 -23q-24 0 -43 19t-19 43t21 45l157 164q34 37 80 37q43 0 80 -37l156 -164q22 -19 22 -45z" />
    <glyph glyph-name="atilde" unicode="&#xe3;" horiz-adv-x="958" 
d="M436 127l-6 2q97 0 164 64q68 65 68 135v170q-138 0 -234 -13q-92 -12 -135 -67t-43 -117q0 -76 49 -125t137 -49zM307 782l4 -4q-17 -51 -80 -51q-33 0 -53 23q-18 21 -18 55q0 70 92 156t231 86q163 0 252 -95q90 -96 90 -239v-654q0 -34 -24 -55q-25 -22 -58 -22
t-55 22q-21 21 -24 55l-2 45q-3 -4 -27 -32q-18 -21 -86 -56q-63 -32 -152 -32q-129 0 -221 86t-92 229q0 112 76 203q77 92 221 116q46 10 111 13q94 4 118 4l49 2v72q0 83 -49 135q-50 53 -133 53q-123 0 -170 -115zM352 1364v-4q56 0 133 -45t111 -45q40 0 55 41
q15 49 66 49q28 0 47 -19q18 -18 18 -49q0 -60 -49 -106q-48 -45 -125 -45q-52 0 -131 43t-110 43q-41 0 -56 -41q-15 -49 -65 -49q-29 0 -47 18q-19 19 -19 49q0 62 49 111t123 49z" />
    <glyph glyph-name="adieresis" unicode="&#xe4;" horiz-adv-x="958" 
d="M436 127l-6 2q97 0 164 64q68 65 68 135v170q-138 0 -234 -13q-92 -12 -135 -67t-43 -117q0 -76 49 -125t137 -49zM307 782l4 -4q-17 -51 -80 -51q-33 0 -53 23q-18 21 -18 55q0 70 92 156t231 86q163 0 252 -95q90 -96 90 -239v-654q0 -34 -24 -55q-25 -22 -58 -22
t-55 22q-21 21 -24 55l-2 45q-3 -4 -27 -32q-18 -21 -86 -56q-63 -32 -152 -32q-129 0 -221 86t-92 229q0 112 76 203q77 92 221 116q46 10 111 13q94 4 118 4l49 2v72q0 83 -49 135q-50 53 -133 53q-123 0 -170 -115zM227 1282h-2q0 39 29 68q28 28 68 28t71 -28t31 -68
t-31 -68t-69 -28q-40 0 -68 28q-29 29 -29 68zM541 1282h-2q0 41 30 68q31 28 72 28q40 0 68 -28t28 -68t-28 -68t-68 -28q-39 0 -70 28q-30 27 -30 68z" />
    <glyph glyph-name="aring" unicode="&#xe5;" horiz-adv-x="958" 
d="M436 127l-6 2q97 0 164 64q68 65 68 135v170q-138 0 -234 -13q-92 -12 -135 -67t-43 -117q0 -76 49 -125t137 -49zM307 782l4 -4q-17 -51 -80 -51q-33 0 -53 23q-18 21 -18 55q0 70 92 156t231 86q163 0 252 -95q90 -96 90 -239v-654q0 -34 -24 -55q-25 -22 -58 -22
t-55 22q-21 21 -24 55l-2 45q-3 -4 -27 -32q-18 -21 -86 -56q-63 -32 -152 -32q-129 0 -221 86t-92 229q0 112 76 203q77 92 221 116q46 10 111 13q94 4 118 4l49 2v72q0 83 -49 135q-50 53 -133 53q-123 0 -170 -115zM414 1280q0 -29 18 -47q19 -19 47 -19t47 19t19 47
t-19 47t-47 19t-47 -19q-18 -18 -18 -47zM305 1278q0 72 51 123t123 51t123 -51t51 -123t-51 -123t-123 -51t-123 51t-51 123z" />
    <glyph glyph-name="ae" unicode="&#xe6;" horiz-adv-x="1435" 
d="M637 326l-4 143q-138 3 -209 -6q-93 -12 -135 -57q-43 -46 -43 -105q0 -75 47 -125q46 -49 127 -49q100 0 158 55q59 56 59 144zM791 616h372v74q0 91 -51 148q-53 59 -135 59t-135 -59q-51 -57 -51 -148v-74zM977 123l-6 4q45 0 80 12q34 12 53 37q21 28 29 47
q7 16 18 53q15 56 74 56q32 0 53 -21q22 -22 22 -51q0 -80 -86 -180q-85 -98 -241 -98q-55 0 -105 12q-48 12 -77 31q-36 24 -50 36q-21 18 -30 33l-9 12q-7 -11 -28 -36q-19 -22 -88 -56t-150 -34q-150 0 -250 86q-98 85 -98 231q0 109 74 195t219 110q36 7 92 10
q82 4 109 4h47v82q0 86 -45 140q-46 55 -125 55q-123 0 -170 -115q-17 -51 -80 -51q-33 0 -53 23q-19 22 -19 55q0 70 92 156t232 86q76 0 143 -31q61 -28 88 -62l23 -30q6 6 10 12q6 9 31 31q24 21 53 37q30 17 74 28q47 12 94 12q150 0 240 -100q92 -103 92 -252v-127
q0 -38 -29 -67q-27 -27 -72 -27h-417v-143q0 -91 51 -148t135 -57z" />
    <glyph glyph-name="ccedilla" unicode="&#xe7;" horiz-adv-x="950" 
d="M346 -315l-8 -11q0 21 16 37q17 17 37 17h94q18 0 31 16q12 15 12 35q0 18 -12 33q-11 14 -31 14h-49q-53 0 -53 55v101q-124 27 -197 118t-73 222v364q0 153 102 252q101 98 270 98q154 0 246 -92t92 -190q0 -34 -22 -56t-56 -22q-30 0 -51 18t-24 47q-12 68 -64 111
t-125 43q-90 0 -147 -57q-58 -58 -58 -148v-360q0 -95 58 -150t147 -55q76 0 129 47t68 117q15 63 80 63q33 0 55 -22q23 -23 23 -56q0 -96 -88 -190q-89 -95 -240 -104v-37q67 0 115 -45q49 -46 49 -111t-49 -111q-48 -45 -113 -45h-113q-20 0 -37 17q-14 14 -14 37z" />
    <glyph glyph-name="egrave" unicode="&#xe8;" horiz-adv-x="962" 
d="M281 608h397v84q0 90 -55 148q-56 59 -144 59q-87 0 -143 -59q-55 -58 -55 -148v-84zM735 461l-459 -2v-133q0 -89 56 -148q54 -57 145 -57q155 0 199 147q18 64 74 64q32 0 55 -23q22 -22 22 -55t-18 -76q-19 -45 -55 -90q-39 -48 -109 -78q-71 -30 -162 -30
q-166 0 -264 98t-98 250v364q0 151 98 252q97 100 262 100q159 0 256 -100q99 -102 99 -252v-137q0 -39 -29 -68q-26 -26 -72 -26zM582 1194l-4 -2q0 -28 -19 -47t-47 -19q-21 0 -49 25l-164 152q-31 31 -31 63q0 30 23 53t53 23q35 0 66 -31l149 -166q23 -30 23 -51z" />
    <glyph glyph-name="eacute" unicode="&#xe9;" horiz-adv-x="962" 
d="M281 608h397v84q0 90 -55 148q-56 59 -144 59q-87 0 -143 -59q-55 -58 -55 -148v-84zM735 461l-459 -2v-133q0 -89 56 -148q54 -57 145 -57q155 0 199 147q18 64 74 64q32 0 55 -23q22 -22 22 -55t-18 -76q-19 -45 -55 -90q-39 -48 -109 -78q-71 -30 -162 -30
q-166 0 -264 98t-98 250v364q0 151 98 252q97 100 262 100q159 0 256 -100q99 -102 99 -252v-137q0 -39 -29 -68q-26 -26 -72 -26zM379 1194l-6 -2q0 23 22 51l150 166q31 31 65 31q33 0 54 -21q22 -22 22 -51q0 -32 -31 -63l-163 -152q-28 -25 -50 -25q-26 0 -45 19
q-18 18 -18 47z" />
    <glyph glyph-name="ecircumflex" unicode="&#xea;" horiz-adv-x="962" 
d="M281 608h397v84q0 90 -55 148q-56 59 -144 59q-87 0 -143 -59q-55 -58 -55 -148v-84zM735 461l-459 -2v-133q0 -89 56 -148q54 -57 145 -57q155 0 199 147q18 64 74 64q32 0 55 -23q22 -22 22 -55t-18 -76q-19 -45 -55 -90q-39 -48 -109 -78q-71 -30 -162 -30
q-166 0 -264 98t-98 250v364q0 151 98 252q97 100 262 100q159 0 256 -100q99 -102 99 -252v-137q0 -39 -29 -68q-26 -26 -72 -26zM735 1192q0 -25 -18 -43q-19 -19 -43 -19q-19 0 -49 23l-148 131l-147 -131q-30 -23 -49 -23q-24 0 -43 19t-19 43t21 45l157 164
q34 37 80 37q43 0 80 -37l156 -164q22 -19 22 -45z" />
    <glyph glyph-name="edieresis" unicode="&#xeb;" horiz-adv-x="962" 
d="M281 608h397v84q0 90 -55 148q-56 59 -144 59q-87 0 -143 -59q-55 -58 -55 -148v-84zM735 461l-459 -2v-133q0 -89 56 -148q54 -57 145 -57q155 0 199 147q18 64 74 64q32 0 55 -23q22 -22 22 -55t-18 -76q-19 -45 -55 -90q-39 -48 -109 -78q-71 -30 -162 -30
q-166 0 -264 98t-98 250v364q0 151 98 252q97 100 262 100q159 0 256 -100q99 -102 99 -252v-137q0 -39 -29 -68q-26 -26 -72 -26zM229 1282h-2q0 39 29 68q28 28 68 28t71 -28t31 -68t-31 -68t-69 -28q-40 0 -68 28q-29 29 -29 68zM543 1282h-2q0 41 30 68q31 28 72 28
q40 0 68 -28t28 -68t-28 -68t-68 -28q-39 0 -70 28q-30 27 -30 68z" />
    <glyph glyph-name="igrave" unicode="&#xec;" horiz-adv-x="471" 
d="M315 965v-906q0 -33 -22 -55t-55 -22q-34 0 -56 22t-22 55v906q0 33 22 55t56 22q33 0 55 -22t22 -55zM295 1196l-4 -2q0 -28 -19 -47t-47 -19q-21 0 -49 25l-164 152q-30 30 -30 63q0 31 22 53q23 23 53 23q35 0 66 -31l149 -166q23 -30 23 -51z" />
    <glyph glyph-name="iacute" unicode="&#xed;" horiz-adv-x="471" 
d="M315 965v-906q0 -33 -22 -55t-55 -22q-34 0 -56 22t-22 55v906q0 33 22 55t56 22q33 0 55 -22t22 -55zM160 1196l-4 -2q0 23 22 51l150 166q31 31 65 31q32 0 53 -21q23 -23 23 -51q0 -32 -31 -63l-164 -152q-28 -25 -49 -25q-28 0 -47 19q-18 18 -18 47z" />
    <glyph glyph-name="icircumflex" unicode="&#xee;" horiz-adv-x="471" 
d="M315 965v-906q0 -33 -22 -55t-55 -22q-34 0 -56 22t-22 55v906q0 33 22 55t56 22q33 0 55 -22t22 -55zM489 1194q0 -25 -18 -43t-43 -18q-21 0 -49 22l-148 131l-147 -131q-28 -22 -49 -22q-25 0 -43 18q-19 19 -19 43t21 45l158 164q34 37 79 37q43 0 80 -37l156 -164
q22 -19 22 -45z" />
    <glyph glyph-name="idieresis" unicode="&#xef;" horiz-adv-x="471" 
d="M315 965v-906q0 -33 -22 -55t-55 -22q-34 0 -56 22t-22 55v906q0 33 22 55t56 22q33 0 55 -22t22 -55zM-18 1284h-2q0 40 28 68t68 28t71 -28t31 -68q0 -39 -31 -67q-32 -29 -69 -29q-39 0 -68 29q-28 28 -28 67zM295 1284h-2q0 40 31 68t71 28t68 -28q29 -29 29 -68
q0 -38 -29 -67t-68 -29q-37 0 -69 29q-31 28 -31 67z" />
    <glyph glyph-name="eth" unicode="&#xf0;" horiz-adv-x="974" 
d="M336 1321v2q-31 22 -31 55q0 28 19 47t47 19q18 0 39 -12q101 -55 208 -162l117 41q20 4 25 4q27 0 49 -19q20 -17 20 -45q0 -50 -53 -65l-65 -23q141 -197 141 -420v-417q0 -151 -100 -248q-101 -98 -265 -98q-163 0 -264 98q-100 97 -100 248v299q0 145 98 243
q99 99 250 99q65 0 123 -25q57 -24 78 -49l22 -25q-18 109 -127 246l-176 -59q-12 -4 -24 -4q-47 0 -62 41q-4 16 -4 20q0 49 51 66l119 41q-53 47 -135 102zM692 326l-4 288q0 91 -59 150q-57 57 -148 57q-86 0 -143 -57t-57 -150v-290q0 -88 59 -144q58 -55 147 -55
q88 0 146 55q59 56 59 146z" />
    <glyph glyph-name="ntilde" unicode="&#xf1;" horiz-adv-x="1003" 
d="M711 59v627q0 87 -52 145q-54 60 -141 60q-83 0 -149 -60q-64 -58 -64 -145v-633q0 -33 -22 -55q-23 -23 -56 -23q-32 0 -55 23q-22 22 -22 55v908q0 32 22 57q21 24 55 24t56 -22q21 -21 24 -55l2 -45q3 4 13 14.5t16 17.5q18 21 80 56q57 32 129 32q144 0 235 -94
q92 -95 92 -239v-648q0 -34 -24 -55q-25 -22 -57 -22q-33 0 -58 22q-24 21 -24 55zM383 1358v-4q56 0 133 -45t111 -45q40 0 55 41q15 49 66 49q28 0 47 -19q18 -18 18 -49q0 -60 -49 -106q-48 -45 -125 -45q-52 0 -131 43t-111 43q-40 0 -55 -41q-15 -50 -66 -50
q-28 0 -47 19q-18 18 -18 49q0 62 49 111t123 49z" />
    <glyph glyph-name="ograve" unicode="&#xf2;" horiz-adv-x="974" 
d="M487 1044q164 0 265 -98q100 -97 100 -252v-364q0 -155 -100 -252q-101 -98 -265 -98q-163 0 -264 98q-100 97 -100 252v364q0 155 100 252q101 98 264 98zM487 125v-4q90 0 148 55q57 54 57 152v360q0 91 -57 148q-59 59 -148 59q-90 0 -147 -57t-57 -148v-360
q0 -96 57 -150q58 -55 147 -55zM602 1192l-4 -2q0 -29 -18 -47q-19 -19 -48 -19q-21 0 -49 25l-164 151q-30 30 -30 64q0 31 22 53q23 23 54 23q34 0 65 -31l150 -166q22 -28 22 -51z" />
    <glyph glyph-name="oacute" unicode="&#xf3;" horiz-adv-x="974" 
d="M487 1044q164 0 265 -98q100 -97 100 -252v-364q0 -155 -100 -252q-101 -98 -265 -98q-163 0 -264 98q-100 97 -100 252v364q0 155 100 252q101 98 264 98zM487 125v-4q90 0 148 55q57 54 57 152v360q0 91 -57 148q-59 59 -148 59q-90 0 -147 -57t-57 -148v-360
q0 -96 57 -150q58 -55 147 -55zM395 1192l-6 -2q0 21 23 51l149 166q31 31 66 31q32 0 53 -21q22 -22 22 -51q0 -33 -30 -63l-164 -152q-28 -25 -49 -25q-26 0 -45 19t-19 47z" />
    <glyph glyph-name="ocircumflex" unicode="&#xf4;" horiz-adv-x="974" 
d="M487 1044q164 0 265 -98q100 -97 100 -252v-364q0 -155 -100 -252q-101 -98 -265 -98q-163 0 -264 98q-100 97 -100 252v364q0 155 100 252q101 98 264 98zM487 125v-4q90 0 148 55q57 54 57 152v360q0 91 -57 148q-59 59 -148 59q-90 0 -147 -57t-57 -148v-360
q0 -96 57 -150q58 -55 147 -55zM739 1190q0 -25 -18 -43q-19 -19 -43 -19q-19 0 -49 23l-148 131l-147 -131q-30 -23 -49 -23q-24 0 -43 19t-19 43t21 45l157 164q34 37 80 37q43 0 80 -37l156 -164q22 -19 22 -45z" />
    <glyph glyph-name="otilde" unicode="&#xf5;" horiz-adv-x="974" 
d="M487 1044q164 0 265 -98q100 -97 100 -252v-364q0 -155 -100 -252q-101 -98 -265 -98q-163 0 -264 98q-100 97 -100 252v364q0 155 100 252q101 98 264 98zM487 125v-4q90 0 148 55q57 54 57 152v360q0 91 -57 148q-59 59 -148 59q-90 0 -147 -57t-57 -148v-360
q0 -96 57 -150q58 -55 147 -55zM356 1362v-4q56 0 133 -45t111 -45q40 0 55 41q15 49 66 49q28 0 47 -19q18 -18 18 -49q0 -60 -49 -106q-48 -45 -125 -45q-52 0 -131 43t-110 43q-41 0 -56 -41q-15 -49 -65 -49q-29 0 -47 18q-19 19 -19 49q0 62 49 111t123 49z" />
    <glyph glyph-name="odieresis" unicode="&#xf6;" horiz-adv-x="974" 
d="M487 1044q164 0 265 -98q100 -97 100 -252v-364q0 -155 -100 -252q-101 -98 -265 -98q-163 0 -264 98q-100 97 -100 252v364q0 155 100 252q101 98 264 98zM487 125v-4q90 0 148 55q57 54 57 152v360q0 91 -57 148q-59 59 -148 59q-90 0 -147 -57t-57 -148v-360
q0 -96 57 -150q58 -55 147 -55zM231 1280h-2q0 39 29 68q28 28 68 28t71 -28t31 -68t-31 -68t-69 -28q-40 0 -68 28q-29 29 -29 68zM545 1280h-2q0 41 30 68q31 28 72 28q40 0 68 -28t28 -68t-28 -68t-68 -28q-39 0 -70 28q-30 27 -30 68z" />
    <glyph glyph-name="divide" unicode="&#xf7;" horiz-adv-x="1198" 
d="M199 684h798q34 0 56 -22t22 -56q0 -33 -22 -55q-23 -23 -56 -23h-798q-33 0 -56 23q-22 22 -22 55q0 34 22 56t56 22zM494 932q0 46 30 76t76 30t76 -30q31 -31 31 -76t-31 -76t-76 -31t-76 31q-30 30 -30 76zM494 279q0 45 30 75q31 31 76 31t76 -31t31 -75
q0 -45 -31 -76t-76 -31t-76 31q-30 30 -30 76z" />
    <glyph glyph-name="oslash" unicode="&#xf8;" horiz-adv-x="974" 
d="M799 987l-35 -61q86 -95 86 -234v-364q0 -155 -100 -252q-102 -99 -265 -99q-112 0 -206 54l-25 -45q-16 -25 -43 -25q-21 0 -33 12t-12 35q0 13 6 25l33 59q-84 96 -84 236v364q0 155 100 252q101 98 264 98q117 0 205 -55l25 45q16 25 43 25q22 0 35 -13q12 -12 12 -32
q0 -13 -6 -25zM485 115l-2 -2q93 0 152 59t59 154v368q0 37 -14 78l-332 -612q51 -45 137 -45zM274 324l-2 2q0 -43 13 -80l331 610q-53 47 -135 47q-88 0 -147 -59q-60 -60 -60 -152v-368z" />
    <glyph glyph-name="ugrave" unicode="&#xf9;" horiz-adv-x="1003" 
d="M293 967l-6 -637q0 -205 194 -205q86 0 150 61q63 60 63 148v633q0 31 23 57q22 25 55 25t55 -25q23 -26 23 -57v-904q0 -32 -23 -55q-22 -22 -55 -22t-55 22t-25 55l-2 41q-6 -6 -10 -12t-29 -31q-18 -18 -47 -36q-30 -19 -67 -29q-43 -12 -91 -12q-150 0 -233 92
q-84 93 -84 243v648q0 32 25 57t57 25t57 -25t25 -57zM616 1194l-4 -2q0 -29 -18 -47q-19 -19 -47 -19q-21 0 -49 25l-164 152q-31 31 -31 63q0 30 23 53t53 23q34 0 65 -31l150 -166q22 -28 22 -51z" />
    <glyph glyph-name="uacute" unicode="&#xfa;" horiz-adv-x="1003" 
d="M293 967l-6 -637q0 -205 194 -205q86 0 150 61q63 60 63 148v633q0 31 23 57q22 25 55 25t55 -25q23 -26 23 -57v-904q0 -32 -23 -55q-22 -22 -55 -22t-55 22t-25 55l-2 41q-6 -6 -10 -12t-29 -31q-18 -18 -47 -36q-30 -19 -67 -29q-43 -12 -91 -12q-150 0 -233 92
q-84 93 -84 243v648q0 32 25 57t57 25t57 -25t25 -57zM387 1194l-4 -2q0 21 23 51l149 166q31 31 66 31q32 0 53 -21q22 -22 22 -51q0 -33 -30 -63l-164 -152q-28 -25 -49 -25q-28 0 -47 19t-19 47z" />
    <glyph glyph-name="ucircumflex" unicode="&#xfb;" horiz-adv-x="1003" 
d="M293 967l-6 -637q0 -205 194 -205q86 0 150 61q63 60 63 148v633q0 31 23 57q22 25 55 25t55 -25q23 -26 23 -57v-904q0 -32 -23 -55q-22 -22 -55 -22t-55 22t-25 55l-2 41q-6 -6 -10 -12t-29 -31q-18 -18 -47 -36q-30 -19 -67 -29q-43 -12 -91 -12q-150 0 -233 92
q-84 93 -84 243v648q0 32 25 57t57 25t57 -25t25 -57zM754 1192q0 -24 -19 -43t-43 -19q-19 0 -49 23l-147 131l-148 -131q-30 -23 -49 -23q-24 0 -43 19q-18 18 -18 43t20 45l158 164q34 37 80 37q42 0 79 -37l156 -164q23 -20 23 -45z" />
    <glyph glyph-name="udieresis" unicode="&#xfc;" horiz-adv-x="1003" 
d="M293 967l-6 -637q0 -205 194 -205q86 0 150 61q63 60 63 148v633q0 31 23 57q22 25 55 25t55 -25q23 -26 23 -57v-904q0 -32 -23 -55q-22 -22 -55 -22t-55 22t-25 55l-2 41q-6 -6 -10 -12t-29 -31q-18 -18 -47 -36q-30 -19 -67 -29q-43 -12 -91 -12q-150 0 -233 92
q-84 93 -84 243v648q0 32 25 57t57 25t57 -25t25 -57zM242 1282h-2q0 40 28 68t68 28q41 0 72 -28q30 -27 30 -68t-30 -68q-31 -28 -70 -28q-40 0 -68 28t-28 68zM555 1282h-2q0 40 31 68t71 28t68 -28q29 -29 29 -68t-29 -68q-28 -28 -68 -28q-38 0 -69 28t-31 68z" />
    <glyph glyph-name="yacute" unicode="&#xfd;" horiz-adv-x="952" 
d="M883 918l-455 -1262q-15 -49 -72 -49q-32 0 -55 20q-25 22 -25 51q0 13 13 50l106 303l-315 884q-12 37 -12 52q0 34 24 55q25 22 58 22q58 0 73 -53l260 -749l256 749q15 53 74 53q34 0 57 -20q25 -22 25 -55q0 -13 -12 -51zM389 1192l-6 -2q0 21 23 51l149 166
q31 31 66 31q32 0 53 -21q22 -22 22 -51q0 -33 -30 -63l-164 -152q-28 -25 -49 -25q-26 0 -45 19t-19 47z" />
    <glyph glyph-name="thorn" unicode="&#xfe;" horiz-adv-x="993" 
d="M711 340l-2 340q0 95 -56 154t-145 59q-95 0 -150 -64t-55 -147v-344q0 -85 57 -148t150 -63q82 0 141 59q60 60 60 154zM303 1370l-4 -432q5 7 23 29q16 19 75 45q64 28 135 28q144 0 238 -94q96 -96 96 -233v-402q0 -139 -98 -233t-242 -94q-62 0 -123 22
q-54 19 -81 43l-25 23v-381q0 -33 -23 -56q-22 -22 -55 -22t-55 22q-23 23 -23 56v1683q0 33 23 56q22 22 55 22q35 0 60 -25q24 -24 24 -57z" />
    <glyph glyph-name="ydieresis" unicode="&#xff;" horiz-adv-x="952" 
d="M883 918l-455 -1262q-15 -49 -72 -49q-32 0 -55 20q-25 22 -25 51q0 13 13 50l106 303l-315 884q-12 37 -12 52q0 34 24 55q25 22 58 22q58 0 73 -53l260 -749l256 749q15 53 74 53q34 0 57 -20q25 -22 25 -55q0 -13 -12 -51zM231 1280h-2q0 39 29 68q28 28 68 28t71 -28
t31 -68t-31 -68t-69 -28q-40 0 -68 28q-29 29 -29 68zM545 1280h-2q0 41 30 68q31 28 72 28q40 0 68 -28t28 -68t-28 -68t-68 -28q-39 0 -70 28q-30 27 -30 68z" />
    <glyph glyph-name="Amacron" unicode="&#x100;" horiz-adv-x="1034" 
d="M737 616l-200 662h-39l-201 -662h440zM453 1446h129q65 0 80 -55l243 -760q6 -18 6 -37v-531q0 -35 -24 -59t-60 -24q-35 0 -59 24q-25 25 -25 59v400h-452v-400q0 -34 -25 -59q-24 -24 -59 -24q-36 0 -60 24t-24 59v531q0 19 6 37l244 760q15 55 80 55zM240 1679v-8
q0 31 22 53q23 23 55 23h390q34 0 55 -21q22 -22 22 -51t-22 -51q-20 -20 -55 -20h-390q-33 0 -55 22t-22 53z" />
    <glyph glyph-name="amacron" unicode="&#x101;" horiz-adv-x="958" 
d="M436 127l-6 2q97 0 164 64q68 65 68 135v170q-138 0 -234 -13q-92 -12 -135 -67t-43 -117q0 -76 49 -125t137 -49zM307 782l4 -4q-17 -51 -80 -51q-33 0 -53 23q-18 21 -18 55q0 70 92 156t231 86q163 0 252 -95q90 -96 90 -239v-654q0 -34 -24 -55q-25 -22 -58 -22
t-55 22q-21 21 -24 55l-2 45q-3 -4 -27 -32q-18 -21 -86 -56q-63 -32 -152 -32q-129 0 -221 86t-92 229q0 112 76 203q77 92 221 116q46 10 111 13q94 4 118 4l49 2v72q0 83 -49 135q-50 53 -133 53q-123 0 -170 -115zM211 1268v-8q0 31 22 53t56 22h389q35 0 55 -20
q23 -23 23 -51q0 -29 -23 -52q-20 -20 -55 -20h-389q-34 0 -56 22t-22 54z" />
    <glyph glyph-name="Abreve" unicode="&#x102;" horiz-adv-x="1034" 
d="M737 616l-200 662h-39l-201 -662h440zM453 1446h129q65 0 80 -55l243 -760q6 -18 6 -37v-531q0 -35 -24 -59t-60 -24q-35 0 -59 24q-25 25 -25 59v400h-452v-400q0 -34 -25 -59q-24 -24 -59 -24q-36 0 -60 24t-24 59v531q0 19 6 37l244 760q15 55 80 55zM516 1681
q94 0 121 93q18 61 78 61q69 0 69 -78q0 -67 -71 -135t-197 -68t-197 68t-71 135q0 78 69 78q60 0 78 -61q27 -93 121 -93z" />
    <glyph glyph-name="abreve" unicode="&#x103;" horiz-adv-x="958" 
d="M436 127l-6 2q97 0 164 64q68 65 68 135v170q-138 0 -234 -13q-92 -12 -135 -67t-43 -117q0 -76 49 -125t137 -49zM307 782l4 -4q-17 -51 -80 -51q-33 0 -53 23q-18 21 -18 55q0 70 92 156t231 86q163 0 252 -95q90 -96 90 -239v-654q0 -34 -24 -55q-25 -22 -58 -22
t-55 22q-21 21 -24 55l-2 45q-3 -4 -27 -32q-18 -21 -86 -56q-63 -32 -152 -32q-129 0 -221 86t-92 229q0 112 76 203q77 92 221 116q46 10 111 13q94 4 118 4l49 2v72q0 83 -49 135q-50 53 -133 53q-123 0 -170 -115zM479 1270q94 0 121 92q18 61 78 61q70 0 70 -77
q0 -67 -72 -136q-70 -67 -197 -67q-126 0 -196 67q-72 69 -72 136q0 77 70 77q59 0 77 -61q27 -92 121 -92z" />
    <glyph glyph-name="Aogonek" unicode="&#x104;" horiz-adv-x="1034" 
d="M453 1446l127 2q64 0 79 -55l244 -760q6 -18 6 -37v-530q0 -42 -41 -72q-38 -25 -86 -86q-45 -57 -45 -98q0 -52 47 -52h50q73 0 73 -61q0 -29 -18 -47q-19 -19 -55 -19h-72q-74 0 -117 43t-43 103q0 45 21 86q21 40 55 67q54 43 55 43q23 16 43 25q-33 20 -33 65v400
h-452v-400q0 -34 -25 -59q-24 -24 -59 -24q-36 0 -60 24t-24 59v531q0 19 6 37l244 760q15 55 80 55zM735 618l-200 662h-39l-201 -662h440z" />
    <glyph glyph-name="aogonek" unicode="&#x105;" horiz-adv-x="958" 
d="M313 780v-10q-17 -51 -80 -51q-34 0 -53 22q-18 21 -18 56q0 69 92 155t231 86q164 0 252 -94q90 -96 90 -239v-654q0 -32 -20 -55q-19 -19 -39 -37t-49 -47q-21 -21 -35 -49q-16 -32 -16 -58q0 -51 47 -51h49q74 0 74 -61q0 -28 -19 -47t-55 -19h-72q-74 0 -117 43
t-43 103q0 58 37 110q38 53 68 74q33 23 61 37q-28 25 -28 63l-2 45q-3 -4 -27 -32q-18 -21 -86 -56q-63 -32 -152 -32q-129 0 -221 86t-92 229q0 112 76 203q77 92 221 116q46 10 111 13q94 4 118 4l50 2v72q0 82 -50 135t-133 53q-123 0 -170 -115zM436 117l-6 2
q98 0 164 63q68 65 68 135v170q-146 0 -234 -12q-92 -12 -135 -67t-43 -117q0 -76 49 -125t137 -49z" />
    <glyph glyph-name="Cacute" unicode="&#x106;" horiz-adv-x="1034" 
d="M758 340l-8 -4q3 38 24 59q23 23 60 23q36 0 61 -25t25 -61q0 -144 -111 -252q-110 -107 -277 -107q-170 0 -282 109q-111 108 -111 270v719q0 158 113 268q114 111 283 111q142 0 245 -80q102 -79 129 -194q6 -24 6 -39q0 -38 -24 -62t-60 -24q-71 0 -86 73
q-15 71 -73 117q-59 47 -135 47q-98 0 -158 -63q-62 -65 -62 -168v-684q0 -111 64 -172q65 -62 166 -62q88 0 147 56q58 55 64 145zM401 1602l-4 -3q0 22 23 52l149 166q30 30 66 30q33 0 53 -20q23 -23 23 -51q0 -33 -31 -64l-164 -151q-28 -25 -49 -25q-29 0 -47 18
q-19 19 -19 48z" />
    <glyph glyph-name="cacute" unicode="&#x107;" horiz-adv-x="950" 
d="M840 272l-6 -8q0 -96 -95 -196q-95 -99 -258 -99q-162 0 -264 99q-100 97 -100 251v365q0 153 102 252q101 98 270 98q154 0 246 -92t92 -190q0 -34 -22 -56t-55 -22q-31 0 -52 18t-24 47q-12 68 -64 111t-125 43q-90 0 -147 -57t-57 -148v-360q0 -96 57 -150
q58 -55 147 -55q76 0 129 47t68 117q15 63 80 63q33 0 55 -22q23 -23 23 -56zM369 1188l-7 -2q0 21 23 51l150 166q31 31 65 31q32 0 53 -21q23 -23 23 -51q0 -33 -31 -64l-164 -151q-28 -25 -49 -25q-26 0 -45 19q-18 18 -18 47z" />
    <glyph glyph-name="Ccircumflex" unicode="&#x108;" horiz-adv-x="1034" 
d="M758 340l-8 -4q3 38 24 59q23 23 60 23q36 0 61 -25t25 -61q0 -144 -111 -252q-110 -107 -277 -107q-170 0 -282 109q-111 108 -111 270v719q0 158 113 268q114 111 283 111q142 0 245 -80q102 -79 129 -194q6 -24 6 -39q0 -38 -24 -62t-60 -24q-71 0 -86 73
q-15 71 -73 117q-59 47 -135 47q-98 0 -158 -63q-62 -65 -62 -168v-684q0 -111 64 -172q65 -62 166 -62q88 0 147 56q58 55 64 145zM782 1599q0 -25 -18 -43t-43 -18q-19 0 -49 23l-148 131l-147 -131q-30 -23 -49 -23q-25 0 -43 18q-19 19 -19 43q0 25 21 46l157 163
q34 37 80 37q43 0 80 -37l156 -163q22 -19 22 -46z" />
    <glyph glyph-name="ccircumflex" unicode="&#x109;" horiz-adv-x="950" 
d="M840 272l-6 -8q0 -96 -95 -196q-95 -99 -258 -99q-162 0 -264 99q-100 97 -100 251v365q0 153 102 252q101 98 270 98q154 0 246 -92t92 -190q0 -34 -22 -56t-55 -22q-31 0 -52 18t-24 47q-12 68 -64 111t-125 43q-90 0 -147 -57t-57 -148v-360q0 -96 57 -150
q58 -55 147 -55q76 0 129 47t68 117q15 63 80 63q33 0 55 -22q23 -23 23 -56zM737 1186q0 -25 -18 -43q-19 -19 -43 -19q-19 0 -49 23l-148 131l-147 -131q-30 -23 -49 -23q-24 0 -43 19t-19 43t21 45l157 164q34 37 80 37q43 0 80 -37l156 -164q22 -19 22 -45z" />
    <glyph glyph-name="Cdotaccent" unicode="&#x10a;" horiz-adv-x="1034" 
d="M758 340l-8 -4q3 38 24 59q23 23 60 23q36 0 61 -25t25 -61q0 -144 -111 -252q-110 -107 -277 -107q-170 0 -282 109q-111 108 -111 270v719q0 158 113 268q114 111 283 111q142 0 245 -80q102 -79 129 -194q6 -24 6 -39q0 -38 -24 -62t-60 -24q-71 0 -86 73
q-15 71 -73 117q-59 47 -135 47q-98 0 -158 -63q-62 -65 -62 -168v-684q0 -111 64 -172q65 -62 166 -62q88 0 147 56q58 55 64 145zM434 1690q0 44 31 75t76 31q44 0 75 -31t31 -75q0 -45 -31 -76t-75 -31q-45 0 -76 31t-31 76z" />
    <glyph glyph-name="cdotaccent" unicode="&#x10b;" horiz-adv-x="950" 
d="M840 272l-6 -8q0 -96 -95 -196q-95 -99 -258 -99q-162 0 -264 99q-100 97 -100 251v365q0 153 102 252q101 98 270 98q154 0 246 -92t92 -190q0 -34 -22 -56t-55 -22q-31 0 -52 18t-24 47q-12 68 -64 111t-125 43q-90 0 -147 -57t-57 -148v-360q0 -96 57 -150
q58 -55 147 -55q76 0 129 47t68 117q15 63 80 63q33 0 55 -22q23 -23 23 -56zM375 1276q0 45 31 76q30 30 75 30q46 0 76 -30q31 -31 31 -76t-31 -76t-76 -31q-44 0 -75 31t-31 76z" />
    <glyph glyph-name="Ccaron" unicode="&#x10c;" horiz-adv-x="1034" 
d="M758 340l-8 -4q3 38 24 59q23 23 60 23q36 0 61 -25t25 -61q0 -144 -111 -252q-110 -107 -277 -107q-170 0 -282 109q-111 108 -111 270v719q0 158 113 268q114 111 283 111q142 0 245 -80q102 -79 129 -194q6 -24 6 -39q0 -38 -24 -62t-60 -24q-71 0 -86 73
q-15 71 -73 117q-59 47 -135 47q-98 0 -158 -63q-62 -65 -62 -168v-684q0 -111 64 -172q65 -62 166 -62q88 0 147 56q58 55 64 145zM793 1786q0 -25 -23 -45l-156 -164q-37 -37 -79 -37q-46 0 -80 37l-158 164q-21 21 -21 45t19 43q18 18 43 18q21 0 49 -22l148 -131
l147 131q28 22 49 22q25 0 43 -18q19 -19 19 -43z" />
    <glyph glyph-name="ccaron" unicode="&#x10d;" horiz-adv-x="950" 
d="M840 272l-6 -8q0 -96 -95 -196q-95 -99 -258 -99q-162 0 -264 99q-100 97 -100 251v365q0 153 102 252q101 98 270 98q154 0 246 -92t92 -190q0 -34 -22 -56t-55 -22q-31 0 -52 18t-24 47q-12 68 -64 111t-125 43q-90 0 -147 -57t-57 -148v-360q0 -96 57 -150
q58 -55 147 -55q76 0 129 47t68 117q15 63 80 63q33 0 55 -22q23 -23 23 -56zM741 1372q0 -26 -22 -45l-156 -164q-37 -37 -80 -37q-46 0 -80 37l-157 164q-21 21 -21 45t19 43t43 19q19 0 49 -23l147 -131l148 131q30 23 49 23q24 0 43 -19q18 -18 18 -43z" />
    <glyph glyph-name="Dcaron" unicode="&#x10e;" horiz-adv-x="1071" 
d="M541 0l-297 4q-33 0 -56 23q-22 22 -22 55v1274q0 33 22 55q23 23 56 23h297q162 0 276 -111q113 -110 113 -266v-680q0 -156 -113 -266q-114 -111 -276 -111zM754 379v684q0 90 -64 151q-65 62 -155 62h-201v-1110h201q91 0 155 61t64 152zM764 1794q0 -25 -23 -45
l-155 -164q-37 -37 -80 -37q-46 0 -80 37l-158 164q-20 20 -20 45t18 43t43 18q21 0 49 -22l148 -131l147 131q28 22 49 22q25 0 43 -18q19 -19 19 -43z" />
    <glyph glyph-name="dcaron" unicode="&#x10f;" horiz-adv-x="1013" 
d="M283 684l-2 -348q0 -96 55 -154q54 -57 145 -57q96 0 152 65q55 64 55 148v344q0 84 -57 147q-60 66 -150 66q-84 0 -141 -57t-57 -154zM690 55l-8 33q-8 -10 -25 -31t-75 -49q-64 -31 -136 -31q-142 0 -237 95q-96 96 -96 233v402q0 139 98 233q101 96 242 96
q79 0 135 -26q58 -27 80 -52l18 -26v438q0 33 25 55q26 23 57 23t57 -23q25 -22 25 -55v-1315q0 -33 -25 -55q-26 -23 -57 -23q-32 0 -55 23t-23 55zM985 1102q-29 0 -47 18t-18 47q0 18 12 39l110 195q30 47 74 47q32 0 53 -21q23 -23 23 -51q0 -29 -18 -53l-130 -184
q-24 -37 -59 -37z" />
    <glyph glyph-name="Dcroat" unicode="&#x110;" horiz-adv-x="1087" 
d="M23 758q0 31 22 53q23 23 55 23h78v522q0 32 23 55t55 23h297q162 0 276 -111q113 -110 113 -266v-680q0 -156 -113 -266q-114 -111 -276 -111h-297q-32 0 -55 23t-23 55v604h-78q-32 0 -55 23q-22 22 -22 53zM770 375v680q0 91 -63 151q-65 62 -156 62h-201v-441h142
q35 0 55 -20q22 -22 22 -51t-22 -51q-21 -21 -55 -21h-142v-522h201q92 0 156 61q63 60 63 152z" />
    <glyph glyph-name="dcroat" unicode="&#x111;" horiz-adv-x="993" 
d="M436 1223l-8 -4q0 29 23 49q21 18 55 18h176v82q0 33 25 55q26 23 57 23t57 -23q25 -22 25 -55v-82h45q34 0 55 -18q23 -20 23 -49q0 -32 -21 -50t-55 -18h-45v-1094q0 -33 -25 -55t-57 -22q-33 0 -55 22q-23 23 -23 55v37q-17 -22 -24 -31q-17 -20 -76 -49
q-62 -30 -135 -30q-144 0 -238 94q-96 96 -96 233v402q0 139 98 233q101 96 242 96q67 0 123 -26q58 -27 82 -51l24 -27v217h-176q-33 0 -55 19q-21 18 -21 49zM274 680l-2 -348q0 -95 56 -154q54 -57 145 -57q96 0 152 65q55 64 55 148v344q0 84 -57 147q-60 66 -150 66
q-84 0 -141 -57q-58 -58 -58 -154z" />
    <glyph glyph-name="Emacron" unicode="&#x112;" horiz-adv-x="962" 
d="M819 0l-571 -4q-33 0 -55 22q-23 23 -23 56v1274q0 32 23 55q22 22 55 22h559q33 0 55 -22q23 -23 23 -55t-23 -58q-21 -24 -55 -24h-467v-437h418q32 0 57 -22t25 -55q0 -34 -25 -56t-57 -22h-418v-514h483q34 0 56 -25t22 -57q0 -34 -24 -55q-26 -23 -58 -23zM256 1675
v-8q0 30 23 53t55 23h389q34 0 55 -21q23 -23 23 -51t-23 -51q-21 -21 -55 -21h-389q-32 0 -55 23t-23 53z" />
    <glyph glyph-name="emacron" unicode="&#x113;" horiz-adv-x="962" 
d="M281 608h397v84q0 90 -55 148q-56 59 -144 59q-87 0 -143 -59q-55 -58 -55 -148v-84zM735 461l-459 -2v-133q0 -89 56 -148q54 -57 145 -57q155 0 199 147q18 64 74 64q32 0 55 -23q22 -22 22 -55t-18 -76q-19 -45 -55 -90q-39 -48 -109 -78q-71 -30 -162 -30
q-166 0 -264 98t-98 250v364q0 151 98 252q97 100 262 100q159 0 256 -100q99 -102 99 -252v-137q0 -39 -29 -68q-26 -26 -72 -26zM203 1268v-8q0 31 22 53t56 22h389q35 0 55 -20q23 -23 23 -51q0 -29 -23 -52q-20 -20 -55 -20h-389q-34 0 -56 22t-22 54z" />
    <glyph glyph-name="Ebreve" unicode="&#x114;" horiz-adv-x="962" 
d="M819 0l-571 -4q-33 0 -55 22q-23 23 -23 56v1274q0 32 23 55q22 22 55 22h559q33 0 55 -22q23 -23 23 -55t-23 -58q-21 -24 -55 -24h-467v-437h418q32 0 57 -22t25 -55q0 -34 -25 -56t-57 -22h-418v-514h483q34 0 56 -25t22 -57q0 -34 -24 -55q-26 -23 -58 -23zM537 1677
q93 0 120 92q18 62 78 62q70 0 70 -78q0 -66 -72 -135q-71 -68 -196 -68q-126 0 -197 68q-72 69 -72 135q0 78 70 78q60 0 78 -62q27 -92 121 -92z" />
    <glyph glyph-name="ebreve" unicode="&#x115;" horiz-adv-x="962" 
d="M281 608h397v84q0 90 -55 148q-56 59 -144 59q-87 0 -143 -59q-55 -58 -55 -148v-84zM735 461l-459 -2v-133q0 -89 56 -148q54 -57 145 -57q155 0 199 147q18 64 74 64q32 0 55 -23q22 -22 22 -55t-18 -76q-19 -45 -55 -90q-39 -48 -109 -78q-71 -30 -162 -30
q-166 0 -264 98t-98 250v364q0 151 98 252q97 100 262 100q159 0 256 -100q99 -102 99 -252v-137q0 -39 -29 -68q-26 -26 -72 -26zM475 1270q94 0 121 92q18 61 78 61q69 0 69 -77q0 -68 -71 -136q-70 -67 -197 -67q-126 0 -196 67q-72 69 -72 136q0 77 69 77q60 0 78 -61
q27 -92 121 -92z" />
    <glyph glyph-name="Edotaccent" unicode="&#x116;" horiz-adv-x="962" 
d="M819 0l-571 -4q-33 0 -55 22q-23 23 -23 56v1274q0 32 23 55q22 22 55 22h559q33 0 55 -22q23 -23 23 -55t-23 -58q-21 -24 -55 -24h-467v-437h418q32 0 57 -22t25 -55q0 -34 -25 -56t-57 -22h-418v-514h483q34 0 56 -25t22 -57q0 -34 -24 -55q-26 -23 -58 -23zM442 1690
q0 44 31 75t76 31t76 -31q30 -30 30 -75q0 -46 -30 -76q-31 -31 -76 -31t-76 31t-31 76z" />
    <glyph glyph-name="edotaccent" unicode="&#x117;" horiz-adv-x="962" 
d="M281 608h397v84q0 90 -55 148q-56 59 -144 59q-87 0 -143 -59q-55 -58 -55 -148v-84zM735 461l-459 -2v-133q0 -89 56 -148q54 -57 145 -57q155 0 199 147q18 64 74 64q32 0 55 -23q22 -22 22 -55t-18 -76q-19 -45 -55 -90q-39 -48 -109 -78q-71 -30 -162 -30
q-166 0 -264 98t-98 250v364q0 151 98 252q97 100 262 100q159 0 256 -100q99 -102 99 -252v-137q0 -39 -29 -68q-26 -26 -72 -26zM379 1282q0 45 31 76t75 31q45 0 76 -31t31 -76t-31 -76q-30 -30 -76 -30q-45 0 -75 30q-31 31 -31 76z" />
    <glyph glyph-name="Eogonek" unicode="&#x118;" horiz-adv-x="962" 
d="M754 0h-512q-33 0 -56 23q-22 22 -22 55v1274q0 33 22 55q23 23 56 23h559q32 0 55 -23t23 -55t-23 -58q-21 -24 -55 -24h-467v-436h418q31 0 57 -23q25 -22 25 -55q0 -34 -25 -56t-57 -22h-418v-514h483q33 0 55 -25q23 -26 23 -57q0 -41 -35 -68q-35 -28 -84 -94
q-49 -67 -49 -110q0 -52 47 -52h49q74 0 74 -61q0 -29 -18 -47q-19 -19 -56 -19h-71q-74 0 -117 43t-43 103q0 65 41 121q42 57 80 77z" />
    <glyph glyph-name="eogonek" unicode="&#x119;" horiz-adv-x="962" 
d="M739 461l-460 2v-133q0 -90 55 -148q54 -57 145 -57q156 0 199 147q18 64 74 64q32 0 55 -23q22 -22 22 -55q0 -48 -36 -113q-35 -63 -109 -112q-49 -32 -100 -105q-49 -70 -49 -118q0 -52 47 -52h49q74 0 74 -61q0 -28 -19 -47t-55 -19h-72q-74 0 -117 43t-43 103
q0 123 125 205q-8 -2 -37 -2q-166 0 -264 98t-98 250v364q0 151 98 252q97 100 262 100q159 0 256 -100q99 -102 99 -252v-137q0 -39 -29 -68q-26 -26 -72 -26zM279 610h397v84q0 90 -55 148q-56 59 -144 59q-87 0 -143 -59q-55 -58 -55 -148v-84z" />
    <glyph glyph-name="Ecaron" unicode="&#x11a;" horiz-adv-x="962" 
d="M819 0l-571 -4q-33 0 -55 22q-23 23 -23 56v1274q0 32 23 55q22 22 55 22h559q33 0 55 -22q23 -23 23 -55t-23 -58q-21 -24 -55 -24h-467v-437h418q32 0 57 -22t25 -55q0 -34 -25 -56t-57 -22h-418v-514h483q34 0 56 -25t22 -57q0 -34 -24 -55q-26 -23 -58 -23zM784 1786
q0 -26 -22 -45l-156 -164q-37 -37 -80 -37q-46 0 -80 37l-157 164q-21 21 -21 45t19 43q18 18 43 18q21 0 49 -22l147 -131l148 131q28 22 49 22q25 0 43 -18t18 -43z" />
    <glyph glyph-name="ecaron" unicode="&#x11b;" horiz-adv-x="962" 
d="M281 608h397v84q0 90 -55 148q-56 59 -144 59q-87 0 -143 -59q-55 -58 -55 -148v-84zM735 461l-459 -2v-133q0 -89 56 -148q54 -57 145 -57q155 0 199 147q18 64 74 64q32 0 55 -23q22 -22 22 -55t-18 -76q-19 -45 -55 -90q-39 -48 -109 -78q-71 -30 -162 -30
q-166 0 -264 98t-98 250v364q0 151 98 252q97 100 262 100q159 0 256 -100q99 -102 99 -252v-137q0 -39 -29 -68q-26 -26 -72 -26zM735 1378q0 -26 -22 -45l-156 -164q-36 -36 -80 -36q-47 0 -80 36l-157 164q-21 21 -21 45t19 43t43 19q19 0 49 -23l147 -131l148 131
q30 23 49 23q24 0 43 -19q18 -18 18 -43z" />
    <glyph glyph-name="Gcircumflex" unicode="&#x11c;" horiz-adv-x="1089" 
d="M956 647l-6 -287q0 -155 -112 -264q-113 -110 -291 -110q-185 0 -295 110q-111 111 -111 269v718q0 156 111 267q110 110 299 110q169 0 280 -102t111 -213q0 -38 -24 -62t-60 -24q-71 0 -86 74q-15 69 -80 116t-141 47q-108 0 -172 -61t-64 -154v-723q0 -90 64 -151
q65 -62 172 -62q101 0 166 62q63 60 63 151v224h-143q-33 0 -55 22q-23 23 -23 55q0 33 23 56q22 22 55 22h231q88 0 88 -90zM799 1608q0 -24 -19 -43t-43 -19q-19 0 -49 23l-147 131l-148 -131q-30 -23 -49 -23q-24 0 -43 19q-18 18 -18 43t20 45l158 164q33 36 80 36
q44 0 80 -36l155 -164q23 -20 23 -45z" />
    <glyph glyph-name="gcircumflex" unicode="&#x11d;" horiz-adv-x="888" 
d="M766 1120l-2 -10q35 0 55 -20q23 -23 23 -50q0 -28 -21 -49q-20 -20 -49 -20q-39 0 -59 -33l-23 -37q60 -72 60 -172v-135q0 -106 -70 -191t-172 -112v-53q0 -39 35 -60l172 -117q133 -89 133 -204q0 -89 -68 -148q-69 -60 -149 -80q-79 -20 -172 -20q-170 0 -283 67
t-113 183q0 31 23 57q22 25 55 25q59 0 80 -78q30 -115 230 -115q235 0 235 115q0 47 -41 74l-219 143q-86 56 -86 147v72q-99 29 -168 113q-68 83 -68 186v135q0 125 97 219q95 92 227 92q86 0 156 -40l41 55q46 61 141 61zM590 590l-2 133q0 69 -47 119q-46 49 -115 49
q-71 0 -117 -49q-45 -48 -45 -119v-133q0 -69 47 -119q46 -49 117 -49q69 0 115 49q47 50 47 119zM698 1184q0 -25 -18 -43q-19 -19 -43 -19q-19 0 -49 23l-148 131l-147 -131q-30 -23 -49 -23q-24 0 -43 19t-19 43t21 45l157 164q34 37 80 37q43 0 80 -37l156 -164
q22 -19 22 -45z" />
    <glyph glyph-name="Gbreve" unicode="&#x11e;" horiz-adv-x="1089" 
d="M956 647l-6 -287q0 -155 -112 -264q-113 -110 -291 -110q-185 0 -295 110q-111 111 -111 269v718q0 156 111 267q110 110 299 110q169 0 280 -102t111 -213q0 -38 -24 -62t-60 -24q-71 0 -86 74q-15 69 -80 116t-141 47q-108 0 -172 -61t-64 -154v-723q0 -90 64 -151
q65 -62 172 -62q101 0 166 62q63 60 63 151v224h-143q-33 0 -55 22q-23 23 -23 55q0 33 23 56q22 22 55 22h231q88 0 88 -90zM547 1686q94 0 121 92q18 61 77 61q70 0 70 -78q0 -66 -72 -135q-70 -67 -196 -67q-127 0 -197 67q-71 68 -71 135q0 78 69 78q60 0 78 -61
q27 -92 121 -92z" />
    <glyph glyph-name="gbreve" unicode="&#x11f;" horiz-adv-x="888" 
d="M766 1120l-2 -10q35 0 55 -20q23 -23 23 -50q0 -28 -21 -49q-20 -20 -49 -20q-39 0 -59 -33l-23 -37q60 -72 60 -172v-135q0 -106 -70 -191t-172 -112v-53q0 -39 35 -60l172 -117q133 -89 133 -204q0 -89 -68 -148q-69 -60 -149 -80q-79 -20 -172 -20q-170 0 -283 67
t-113 183q0 31 23 57q22 25 55 25q59 0 80 -78q30 -115 230 -115q235 0 235 115q0 47 -41 74l-219 143q-86 56 -86 147v72q-99 29 -168 113q-68 83 -68 186v135q0 125 97 219q95 92 227 92q86 0 156 -40l41 55q46 61 141 61zM590 590l-2 133q0 69 -47 119q-46 49 -115 49
q-71 0 -117 -49q-45 -48 -45 -119v-133q0 -69 47 -119q46 -49 117 -49q69 0 115 49q47 50 47 119zM432 1262q94 0 121 92q18 61 78 61q69 0 69 -78q0 -67 -71 -135q-70 -67 -197 -67q-126 0 -196 67q-72 69 -72 135q0 78 69 78q60 0 78 -61q27 -92 121 -92z" />
    <glyph glyph-name="Gdotaccent" unicode="&#x120;" horiz-adv-x="1089" 
d="M956 647l-6 -287q0 -155 -112 -264q-113 -110 -291 -110q-185 0 -295 110q-111 111 -111 269v718q0 156 111 267q110 110 299 110q169 0 280 -102t111 -213q0 -38 -24 -62t-60 -24q-71 0 -86 74q-15 69 -80 116t-141 47q-108 0 -172 -61t-64 -154v-723q0 -90 64 -151
q65 -62 172 -62q101 0 166 62q63 60 63 151v224h-143q-33 0 -55 22q-23 23 -23 55q0 33 23 56q22 22 55 22h231q88 0 88 -90zM446 1698q0 45 31 76q30 30 76 30t76 -30t30 -76t-30 -76q-31 -31 -76 -31t-76 31t-31 76z" />
    <glyph glyph-name="gdotaccent" unicode="&#x121;" horiz-adv-x="888" 
d="M766 1120l-2 -10q35 0 55 -20q23 -23 23 -50q0 -28 -21 -49q-20 -20 -49 -20q-39 0 -59 -33l-23 -37q60 -72 60 -172v-135q0 -106 -70 -191t-172 -112v-53q0 -39 35 -60l172 -117q133 -89 133 -204q0 -89 -68 -148q-69 -60 -149 -80q-79 -20 -172 -20q-170 0 -283 67
t-113 183q0 31 23 57q22 25 55 25q59 0 80 -78q30 -115 230 -115q235 0 235 115q0 47 -41 74l-219 143q-86 56 -86 147v72q-99 29 -168 113q-68 83 -68 186v135q0 125 97 219q95 92 227 92q86 0 156 -40l41 55q46 61 141 61zM590 590l-2 133q0 69 -47 119q-46 49 -115 49
q-71 0 -117 -49q-45 -48 -45 -119v-133q0 -69 47 -119q46 -49 117 -49q69 0 115 49q47 50 47 119zM328 1274q0 46 30 76t76 30t76 -30q31 -31 31 -76t-31 -76t-76 -31t-76 31q-30 30 -30 76z" />
    <glyph glyph-name="Gcommaaccent" unicode="&#x122;" horiz-adv-x="1089" 
d="M956 647l-6 -287q0 -155 -112 -264q-113 -110 -291 -110q-185 0 -295 110q-111 111 -111 269v718q0 156 111 267q110 110 299 110q169 0 280 -102t111 -213q0 -38 -24 -62t-60 -24q-71 0 -86 74q-15 69 -80 116t-141 47q-108 0 -172 -61t-64 -154v-723q0 -90 64 -151
q65 -62 172 -62q101 0 166 62q63 60 63 151v224h-143q-33 0 -55 22q-23 23 -23 55q0 33 23 56q22 22 55 22h231q88 0 88 -90zM379 -430q-29 0 -47 18q-19 19 -19 47q0 16 13 39l110 195q30 47 74 47q33 0 53 -20q23 -23 23 -52q0 -28 -19 -53l-129 -184q-24 -37 -59 -37z
" />
    <glyph glyph-name="gcommaaccent" unicode="&#x123;" horiz-adv-x="888" 
d="M766 1120l-2 -10q35 0 55 -20q23 -23 23 -50q0 -28 -21 -49q-20 -20 -49 -20q-39 0 -59 -33l-23 -37q60 -72 60 -172v-135q0 -106 -70 -191t-172 -112v-53q0 -39 35 -60l172 -117q133 -89 133 -204q0 -89 -68 -148q-69 -60 -149 -80q-79 -20 -172 -20q-170 0 -283 67
t-113 183q0 31 23 57q22 25 55 25q59 0 80 -78q30 -115 230 -115q235 0 235 115q0 47 -41 74l-219 143q-86 56 -86 147v72q-99 29 -168 113q-68 83 -68 186v135q0 125 97 219q95 92 227 92q86 0 156 -40l41 55q46 61 141 61zM590 590l-2 133q0 69 -47 119q-46 49 -115 49
q-71 0 -117 -49q-45 -48 -45 -119v-133q0 -69 47 -119q46 -49 117 -49q69 0 115 49q47 50 47 119zM565 1438v-4q28 0 47 -19t19 -47q0 -16 -13 -39l-110 -194q-31 -48 -74 -48q-30 0 -53 23t-23 53q0 29 19 54l129 184q24 37 59 37z" />
    <glyph glyph-name="Hcircumflex" unicode="&#x124;" horiz-adv-x="1116" 
d="M952 1370v-1307q0 -35 -24 -59t-60 -24q-35 0 -59 24q-25 25 -25 59v613h-444v-613q0 -34 -25 -59q-24 -24 -59 -24t-59 24q-25 25 -25 59v1307q0 35 25 60q24 24 59 24t59 -24q25 -25 25 -60v-534h444v534q0 35 25 60q24 24 59 24q36 0 60 -24t24 -60zM819 1604
q0 -25 -18 -43q-19 -19 -43 -19q-19 0 -49 23l-148 131l-147 -131q-30 -23 -49 -23q-24 0 -43 19t-19 43t21 45l157 163q34 37 80 37q43 0 80 -37l156 -163q22 -19 22 -45z" />
    <glyph glyph-name="hcircumflex" unicode="&#x125;" horiz-adv-x="1003" 
d="M711 59l6 637q0 85 -51 142q-53 59 -144 59q-84 0 -149 -59q-64 -58 -64 -146v-633q0 -33 -22 -55t-56 -22q-33 0 -55 22t-22 55v1315q0 34 22 56t55 22q34 0 56 -22t22 -56v-450q9 12 27 30q21 21 80 54q57 32 129 32q151 0 239 -94q90 -96 90 -239v-648q0 -34 -24 -55
q-25 -22 -57 -22q-33 0 -58 22q-24 21 -24 55zM727 1606q0 -25 -18 -43q-19 -19 -43 -19q-20 0 -50 23l-147 131l-147 -131q-30 -23 -50 -23q-24 0 -43 19q-18 18 -18 43t20 45l158 164q33 36 80 36q44 0 80 -36l156 -164q22 -19 22 -45z" />
    <glyph glyph-name="Hbar" unicode="&#x126;" horiz-adv-x="1126" 
d="M63 1118v-8q0 30 23 53t55 23h25v178q0 35 24 59q25 25 60 25q34 0 59 -25t25 -59v-178h444v178q0 34 25 59t59 25q35 0 60 -25q24 -24 24 -59v-178h29q34 0 55 -21q23 -23 23 -51t-23 -51q-21 -21 -55 -21h-29v-981q0 -35 -24 -59q-25 -25 -60 -25q-34 0 -59 25t-25 59
v613h-444v-613q0 -34 -25 -59t-59 -25q-35 0 -60 25q-24 24 -24 59v981h-25q-32 0 -55 23t-23 53zM340 823h444v213h-444v-213z" />
    <glyph glyph-name="hbar" unicode="&#x127;" horiz-adv-x="1003" 
d="M479 1153l-178 2v-229q9 12 27 30q21 21 80 54q57 32 131 32q151 0 239 -94q90 -96 90 -239v-648q0 -34 -24 -55q-25 -22 -58 -22q-32 0 -57 22q-24 21 -24 55v635q0 83 -50 142t-143 59q-85 0 -150 -59q-63 -57 -63 -146v-633q0 -32 -23 -55q-22 -22 -55 -22t-55 22
q-23 23 -23 55v1094h-45q-34 0 -55 18q-20 17 -20 50q0 30 22 49q21 18 55 18h45v82q0 32 23 55t55 23q33 0 56 -23q22 -22 22 -55v-82h176q34 0 55 -18q23 -20 23 -49q0 -33 -20 -50q-21 -18 -56 -18z" />
    <glyph glyph-name="Itilde" unicode="&#x128;" horiz-adv-x="499" 
d="M338 1370v-1307q0 -35 -27 -59t-61 -24q-36 0 -60 24t-24 59v1307q0 36 24 60t60 24q34 0 61 -24t27 -60zM121 1776v-4q54 0 133 -46q77 -45 111 -45q40 0 55 41q15 50 65 50q28 0 47 -19t19 -49q0 -61 -49 -107q-48 -45 -125 -45q-52 0 -131 43t-111 43q-40 0 -55 -41
q-15 -49 -66 -49q-28 0 -47 19q-18 18 -18 49q0 61 49 110q50 50 123 50z" />
    <glyph glyph-name="itilde" unicode="&#x129;" horiz-adv-x="471" 
d="M315 965v-906q0 -33 -22 -55t-55 -22q-34 0 -56 22t-22 55v906q0 33 22 55t56 22q33 0 55 -22t22 -55zM106 1366v-4q57 0 134 -45t110 -45q41 0 56 41q15 49 65 49q28 0 47 -19t19 -49q0 -59 -50 -106q-48 -45 -125 -45q-52 0 -131 43t-110 43q-40 0 -55 -41
q-15 -49 -66 -49q-29 0 -47 18q-19 19 -19 49q0 61 50 111q49 49 122 49z" />
    <glyph glyph-name="Imacron" unicode="&#x12a;" horiz-adv-x="499" 
d="M338 1370v-1307q0 -35 -27 -59t-61 -24q-36 0 -60 24t-24 59v1307q0 36 24 60t60 24q34 0 61 -24t27 -60zM-20 1679v-8q0 31 22 53q23 23 55 23h389q35 0 56 -21q22 -22 22 -51t-22 -51q-20 -20 -56 -20h-389q-33 0 -55 22t-22 53z" />
    <glyph glyph-name="imacron" unicode="&#x12b;" horiz-adv-x="471" 
d="M315 965v-906q0 -33 -22 -55t-55 -22q-34 0 -56 22t-22 55v906q0 33 22 55t56 22q33 0 55 -22t22 -55zM-39 1270v-8q0 30 23 53q22 22 55 22h389q35 0 55 -20q23 -23 23 -51q0 -29 -23 -52q-20 -20 -55 -20h-389q-32 0 -55 23t-23 53z" />
    <glyph glyph-name="Ibreve" unicode="&#x12c;" horiz-adv-x="499" 
d="M338 1370v-1307q0 -35 -27 -59t-61 -24q-36 0 -60 24t-24 59v1307q0 36 24 60t60 24q34 0 61 -24t27 -60zM252 1681q94 0 121 93q18 61 78 61q69 0 69 -78q0 -67 -71 -135t-197 -68t-197 68t-71 135q0 78 69 78q60 0 78 -61q27 -93 121 -93z" />
    <glyph glyph-name="ibreve" unicode="&#x12d;" horiz-adv-x="471" 
d="M315 965v-906q0 -33 -22 -55t-55 -22q-34 0 -56 22t-22 55v906q0 33 22 55t56 22q33 0 55 -22t22 -55zM238 1272q93 0 120 92q18 61 78 61q70 0 70 -77q0 -67 -72 -136q-70 -67 -196 -67q-127 0 -197 67q-72 69 -72 136q0 77 70 77q60 0 78 -61q27 -92 121 -92z" />
    <glyph glyph-name="Iogonek" unicode="&#x12e;" horiz-adv-x="503" 
d="M340 1370v-1309q0 -27 -23 -57q-1 -1 -6 -6.5t-13 -13.5l-17 -17q-11 -11 -28.5 -28t-23.5 -23q-21 -21 -39 -51t-18 -58q0 -51 47 -51h49q74 0 74 -61q0 -29 -18 -47q-19 -19 -56 -19h-71q-74 0 -117 43t-43 103q0 58 37 110q39 54 67 74q30 21 62 37q-35 24 -35 67
v1307q0 35 25 60q24 24 59 24q34 0 61 -24t27 -60z" />
    <glyph glyph-name="iogonek" unicode="&#x12f;" horiz-adv-x="471" 
d="M315 965l7 -904q0 -34 -15 -49l-22 -24q-21 -24 -33 -39q-14 -18 -31 -43q-16 -24 -26 -51q-9 -24 -9 -45q0 -52 47 -52h50q73 0 73 -61q0 -29 -18 -47q-19 -19 -55 -19h-72q-74 0 -117 43t-43 103q0 125 154 211q-45 17 -45 71v906q0 33 22 55t56 22q33 0 55 -22t22 -55
zM135 1286q0 45 31 76t76 31q44 0 75 -31t31 -76t-31 -76q-30 -30 -75 -30q-46 0 -76 30q-31 31 -31 76z" />
    <glyph glyph-name="Idotaccent" unicode="&#x130;" horiz-adv-x="499" 
d="M338 1370v-1307q0 -35 -27 -59t-61 -24q-36 0 -60 24t-24 59v1307q0 36 24 60t60 24q34 0 61 -24t27 -60zM145 1694q0 44 31 75t76 31t76 -31q30 -30 30 -75q0 -46 -30 -76q-31 -31 -76 -31t-76 31t-31 76z" />
    <glyph glyph-name="dotlessi" unicode="&#x131;" horiz-adv-x="471" 
d="M315 965v-906q0 -33 -22 -55t-55 -22q-34 0 -56 22t-22 55v906q0 33 22 55t56 22q33 0 55 -22t22 -55z" />
    <glyph glyph-name="IJ" unicode="&#x132;" horiz-adv-x="1427" 
d="M338 1370v-1307q0 -35 -27 -59t-61 -24q-36 0 -60 24t-24 59v1307q0 36 24 60t60 24q34 0 61 -24t27 -60zM764 453l6 -156q0 -65 49 -111q50 -47 115 -47q69 0 119 47q49 46 49 111v1069q0 35 24 59q25 25 60 25q33 0 61 -25q27 -24 27 -59v-1059q0 -139 -98 -233
q-102 -97 -242 -97q-141 0 -240 99q-98 98 -98 235v142q0 34 25 59t59 25t59 -25t25 -59z" />
    <glyph glyph-name="ij" unicode="&#x133;" horiz-adv-x="962" 
d="M129 1284q0 45 31 76t76 31q44 0 75 -31t31 -76t-31 -76q-30 -30 -75 -30q-46 0 -76 30q-31 31 -31 76zM315 965v-906q0 -33 -22 -55t-55 -22q-34 0 -56 22t-22 55v906q0 33 22 55t56 22q33 0 55 -22t22 -55zM623 1284q0 46 30 76q31 31 76 31t76 -31t31 -76t-31 -76
q-30 -30 -76 -30t-76 30t-30 76zM395 -358l4 2q-41 18 -41 65q0 30 23 53t49 23q11 0 29 -6q46 -19 78 -19q46 0 81 35q33 33 33 99v1073q0 32 23 55q22 22 55 22t55 -22q23 -23 23 -55v-1053q0 -141 -80 -221t-195 -80q-74 0 -137 29z" />
    <glyph glyph-name="Jcircumflex" unicode="&#x134;" horiz-adv-x="927" 
d="M264 453l6 -156q0 -65 49 -111q50 -47 115 -47q69 0 119 47q49 46 49 111v1069q0 34 25 59t59 25t62 -25q26 -23 26 -59v-1059q0 -139 -98 -233q-102 -97 -242 -97t-239 99t-99 235v142q0 34 25 59t59 25q35 0 60 -25q24 -24 24 -59zM938 1599q0 -25 -18 -43t-43 -18
q-20 0 -50 23l-147 131l-148 -131q-30 -23 -49 -23q-25 0 -43 18t-18 43q0 26 20 46l158 163q34 37 80 37q43 0 80 -37l155 -163q23 -20 23 -46z" />
    <glyph glyph-name="jcircumflex" unicode="&#x135;" horiz-adv-x="491" 
d="M-76 -358l4 2q-41 18 -41 65q0 30 23 53t49 23q11 0 29 -6q46 -19 78 -19q46 0 81 35q33 33 33 99v1073q0 32 23 55q22 22 55 22t55 -22q23 -23 23 -55v-1053q0 -141 -80 -221t-195 -80q-74 0 -137 29zM514 1196q0 -25 -18 -43t-43 -18q-22 0 -50 22l-147 131l-147 -131
q-28 -22 -50 -22q-25 0 -43 18t-18 43t20 45l158 164q34 37 80 37q43 0 80 -37l156 -164q22 -19 22 -45z" />
    <glyph glyph-name="Kcommaaccent" unicode="&#x136;" horiz-adv-x="1017" 
d="M336 739l-6 -678q0 -34 -25 -59t-59 -25q-35 0 -60 25q-24 24 -24 59v1307q0 35 24 59q25 25 60 25q34 0 59 -25t25 -59v-596l450 645q21 35 66 35q32 0 57 -22t25 -56q0 -28 -21 -55l-403 -555l426 -641q22 -39 22 -62q0 -33 -24 -57t-60 -24q-47 0 -73 45zM391 -436
q-29 0 -47 18t-18 47q0 18 12 39l111 195q30 47 73 47q32 0 53 -21q23 -23 23 -51q0 -29 -18 -53l-129 -184q-24 -37 -60 -37z" />
    <glyph glyph-name="kcommaaccent" unicode="&#x137;" horiz-adv-x="868" 
d="M682 18l-381 506v-467q0 -33 -25 -55t-57 -22q-33 0 -55 22q-23 23 -23 55v1315q0 32 23 55t55 23q31 0 57 -23q25 -22 25 -55v-821l358 453q28 38 68 38q33 0 55 -22q23 -23 23 -55q0 -28 -25 -56l-301 -368l326 -426q22 -31 22 -58q0 -33 -22 -55t-53 -22q-42 0 -70 38
zM332 -436q-29 0 -47 18q-19 19 -19 47q0 16 13 39l110 195q30 47 74 47q32 0 53 -21q23 -23 23 -51t-19 -53l-129 -184q-24 -37 -59 -37z" />
    <glyph glyph-name="kgreenlandic" unicode="&#x138;" horiz-adv-x="868" 
d="M682 18l-381 510v-467q0 -33 -25 -55t-57 -22q-33 0 -55 22q-23 23 -23 55v908q0 32 23 55t55 23t57 -25t25 -57v-414l358 453q28 38 68 38q33 0 55 -22q23 -23 23 -55q0 -28 -25 -56l-301 -368l326 -426q22 -31 22 -58q0 -33 -22 -55t-53 -22q-42 0 -70 38z" />
    <glyph glyph-name="Lacute" unicode="&#x139;" horiz-adv-x="854" 
d="M336 162l401 -2q34 0 56 -25t22 -57q0 -33 -22 -55q-23 -23 -56 -23h-485q-34 0 -59 25t-25 59v1286q0 35 25 60q24 24 59 24t59 -24q25 -25 25 -60v-1208zM193 1604l-7 -2q0 21 23 51l149 166q30 30 66 30q33 0 53 -20q23 -23 23 -51q0 -33 -31 -64l-164 -151
q-28 -25 -49 -25q-27 0 -45 18t-18 48z" />
    <glyph glyph-name="lacute" unicode="&#x13a;" horiz-adv-x="446" 
d="M305 1374v-1315q0 -34 -24 -55q-25 -22 -58 -22q-32 0 -57 22t-25 55v1315q0 34 25 56t57 22q33 0 58 -22q24 -21 24 -56zM158 1597l-6 -2q0 24 22 52l150 165q31 31 65 31q33 0 53 -20q23 -23 23 -51q0 -33 -31 -64l-164 -152q-27 -24 -49 -24q-27 0 -45 18t-18 47z" />
    <glyph glyph-name="Lcommaaccent" unicode="&#x13b;" horiz-adv-x="854" 
d="M336 162l401 -2q34 0 56 -25t22 -57q0 -33 -22 -55q-23 -23 -56 -23h-485q-34 0 -59 25t-25 59v1286q0 35 25 60q24 24 59 24t59 -24q25 -25 25 -60v-1208zM326 -436q-29 0 -47 18q-19 19 -19 47q0 18 12 39l111 195q30 47 74 47q32 0 53 -21q22 -22 22 -51t-18 -53
l-129 -184q-24 -37 -59 -37z" />
    <glyph glyph-name="lcommaaccent" unicode="&#x13c;" horiz-adv-x="446" 
d="M305 1374v-1315q0 -34 -24 -55q-25 -22 -58 -22q-32 0 -57 22t-25 55v1315q0 34 25 56t57 22q33 0 58 -22q24 -21 24 -56zM80 -434q-29 0 -47 18q-19 19 -19 47q0 16 13 39l110 195q30 47 74 47q32 0 53 -21q23 -23 23 -51t-19 -53l-129 -184q-24 -37 -59 -37z" />
    <glyph glyph-name="Lcaron" unicode="&#x13d;" horiz-adv-x="854" 
d="M336 162l401 -2q34 0 56 -25t22 -57q0 -33 -22 -55q-23 -23 -56 -23h-485q-34 0 -59 25t-25 59v1286q0 35 25 60q24 24 59 24t59 -24q25 -25 25 -60v-1208zM584 1108q-29 0 -47 18q-19 19 -19 48q0 17 12 38l111 195q30 47 74 47q33 0 53 -20q23 -23 23 -52
q0 -28 -19 -53l-129 -184q-24 -37 -59 -37z" />
    <glyph glyph-name="lcaron" unicode="&#x13e;" horiz-adv-x="446" 
d="M305 1374v-1315q0 -34 -24 -55q-25 -22 -58 -22q-32 0 -57 22t-25 55v1315q0 34 25 56t57 22q33 0 58 -22q24 -21 24 -56zM457 1110q-29 0 -47 18q-19 19 -19 48q0 17 12 38l111 195q30 47 74 47q33 0 53 -20q23 -23 23 -52q0 -28 -19 -53l-129 -184q-24 -37 -59 -37z
" />
    <glyph glyph-name="Ldot" unicode="&#x13f;" horiz-adv-x="854" 
d="M336 162l401 -2q34 0 56 -25t22 -57q0 -33 -22 -55q-23 -23 -56 -23h-485q-34 0 -59 25t-25 59v1286q0 35 25 60q24 24 59 24t59 -24q25 -25 25 -60v-1208zM721 494h-98q-23 0 -37 14q-15 15 -15 37v98q0 22 15 37q14 14 37 14h98q23 0 37 -14t14 -37v-98q0 -23 -14 -37
t-37 -14z" />
    <glyph glyph-name="ldot" unicode="&#x140;" horiz-adv-x="722" 
d="M305 1374v-1315q0 -34 -24 -55q-25 -22 -58 -22q-32 0 -57 22t-25 55v1315q0 34 25 56t57 22q33 0 58 -22q24 -21 24 -56zM631 496h-103q-22 0 -36 14q-15 15 -15 37v98q0 20 17 37q14 14 36 14h99q23 0 37 -14q16 -16 16 -37v-98q0 -23 -14 -37t-37 -14z" />
    <glyph glyph-name="Lslash" unicode="&#x141;" horiz-adv-x="862" 
d="M344 162l401 -4q34 0 56 -25t22 -57q0 -34 -22 -56t-56 -22h-485q-34 0 -59 25t-25 59v450l-26 -14q-21 -12 -44 -12q-42 0 -63 37q-10 17 -10 35q0 45 43 69l100 58v663q0 34 25 59t59 25t59 -25t25 -59v-567l197 112q22 11 43 11q27 0 49 -19t22 -49q0 -46 -43 -70
l-268 -153v-471z" />
    <glyph glyph-name="lslash" unicode="&#x142;" horiz-adv-x="526" 
d="M332 1374l-2 -483l61 35q21 12 43 12q28 0 49 -18q23 -20 23 -52q0 -40 -43 -67l-131 -76v-666q0 -32 -23 -55q-22 -22 -55 -22t-55 22q-23 23 -23 55v576l-39 -23q-21 -12 -43 -12q-26 0 -49 23q-20 20 -20 49q0 44 41 65l110 62v575q0 33 23 56q22 22 55 22t55 -22
q23 -23 23 -56z" />
    <glyph glyph-name="Nacute" unicode="&#x143;" horiz-adv-x="1116" 
d="M764 51l-451 1034q11 -229 11 -337v-687q0 -33 -23 -59q-22 -25 -55 -25q-34 0 -56 25t-22 59v1285q0 46 25 77t69 31q65 0 96 -72l451 -1040q-10 167 -10 334v694q0 35 22 60q21 24 56 24q34 0 55 -24q22 -25 22 -60v-1284q0 -46 -24 -76t-70 -30q-66 0 -96 71z
M457 1604l-6 -2q0 23 22 51l150 166q30 30 65 30q33 0 53 -20q23 -23 23 -51q0 -33 -31 -64l-164 -151q-28 -25 -49 -25q-27 0 -45 18t-18 48z" />
    <glyph glyph-name="nacute" unicode="&#x144;" horiz-adv-x="1003" 
d="M711 59v627q0 87 -52 145q-54 60 -141 60q-83 0 -149 -60q-64 -58 -64 -145v-633q0 -33 -22 -55q-23 -23 -56 -23q-32 0 -55 23q-22 22 -22 55v908q0 32 22 57q21 24 55 24t56 -22q21 -21 24 -55l2 -45q3 4 13 14.5t16 17.5q18 21 80 56q57 32 129 32q144 0 235 -94
q92 -95 92 -239v-648q0 -34 -24 -55q-25 -22 -57 -22q-33 0 -58 22q-24 21 -24 55zM418 1188l-4 -2q0 23 22 51l150 166q31 31 65 31q33 0 54 -21q22 -22 22 -51q0 -33 -31 -64l-164 -151q-28 -25 -49 -25q-28 0 -47 19q-18 18 -18 47z" />
    <glyph glyph-name="Ncommaaccent" unicode="&#x145;" horiz-adv-x="1116" 
d="M764 51l-451 1034q11 -229 11 -337v-687q0 -33 -23 -59q-22 -25 -55 -25q-34 0 -56 25t-22 59v1285q0 46 25 77t69 31q65 0 96 -72l451 -1040q-10 167 -10 334v694q0 35 22 60q21 24 56 24q34 0 55 -24q22 -25 22 -60v-1284q0 -46 -24 -76t-70 -30q-66 0 -96 71z
M438 -436q-29 0 -47 18t-18 47q0 18 12 39l111 195q30 47 73 47q33 0 54 -21q22 -22 22 -51t-18 -53l-129 -184q-24 -37 -60 -37z" />
    <glyph glyph-name="ncommaaccent" unicode="&#x146;" horiz-adv-x="1003" 
d="M711 59v627q0 87 -52 145q-54 60 -141 60q-83 0 -149 -60q-64 -58 -64 -145v-633q0 -33 -22 -55q-23 -23 -56 -23q-32 0 -55 23q-22 22 -22 55v908q0 32 22 57q21 24 55 24t56 -22q21 -21 24 -55l2 -45q3 4 13 14.5t16 17.5q18 21 80 56q57 32 129 32q144 0 235 -94
q92 -95 92 -239v-648q0 -34 -24 -55q-25 -22 -57 -22q-33 0 -58 22q-24 21 -24 55zM358 -442q-29 0 -47 18t-18 47q0 18 12 39l111 195q30 47 73 47q33 0 54 -21q22 -22 22 -51t-18 -53l-129 -185q-23 -36 -60 -36z" />
    <glyph glyph-name="Ncaron" unicode="&#x147;" horiz-adv-x="1116" 
d="M764 51l-451 1034q11 -229 11 -337v-687q0 -33 -23 -59q-22 -25 -55 -25q-34 0 -56 25t-22 59v1285q0 46 25 77t69 31q65 0 96 -72l451 -1040q-10 167 -10 334v694q0 35 22 60q21 24 56 24q34 0 55 -24q22 -25 22 -60v-1284q0 -46 -24 -76t-70 -30q-66 0 -96 71z
M819 1788q0 -26 -22 -45l-156 -164q-37 -37 -80 -37q-46 0 -80 37l-157 164q-21 21 -21 45t19 43q18 18 43 18q21 0 49 -22l147 -131l148 131q28 22 49 22q25 0 43 -18t18 -43z" />
    <glyph glyph-name="ncaron" unicode="&#x148;" horiz-adv-x="1003" 
d="M711 59v627q0 87 -52 145q-54 60 -141 60q-83 0 -149 -60q-64 -58 -64 -145v-633q0 -33 -22 -55q-23 -23 -56 -23q-32 0 -55 23q-22 22 -22 55v908q0 32 22 57q21 24 55 24t56 -22q21 -21 24 -55l2 -45q3 4 13 14.5t16 17.5q18 21 80 56q57 32 129 32q144 0 235 -94
q92 -95 92 -239v-648q0 -34 -24 -55q-25 -22 -57 -22q-33 0 -58 22q-24 21 -24 55zM772 1372q0 -26 -22 -45l-156 -164q-37 -37 -80 -37q-46 0 -80 37l-158 164q-20 20 -20 45t18 43q19 19 43 19q20 0 50 -23l147 -131l148 131q30 23 49 23q24 0 43 -19q18 -18 18 -43z" />
    <glyph glyph-name="napostrophe" unicode="&#x149;" horiz-adv-x="1003" 
d="M711 59v627q0 87 -52 145q-54 60 -141 60q-83 0 -149 -60q-64 -58 -64 -145v-633q0 -33 -22 -55q-23 -23 -56 -23q-32 0 -55 23q-22 22 -22 55v908q0 32 22 57q21 24 55 24t56 -22q21 -21 24 -55l2 -45q3 4 13 14.5t16 17.5q18 21 80 56q57 32 129 32q144 0 235 -94
q92 -95 92 -239v-648q0 -34 -24 -55q-25 -22 -57 -22q-33 0 -58 22q-24 21 -24 55zM35 1102q-29 0 -47 18q-19 19 -19 47q0 16 13 39l110 195q30 47 74 47q32 0 53 -21q23 -23 23 -51t-19 -53l-129 -184q-24 -37 -59 -37z" />
    <glyph glyph-name="Eng" unicode="&#x14a;" horiz-adv-x="1116" 
d="M952 1370l-6 -1446q0 -144 -74 -221q-73 -76 -206 -76h-43q-27 0 -50 23q-20 20 -20 49q0 27 22 49q23 23 50 23h43q54 0 84 34t30 103v96l-471 1081q11 -229 11 -337v-687q0 -33 -23 -59q-22 -25 -55 -25q-34 0 -56 25t-22 59v1285q0 47 24 77q25 31 70 31q65 0 96 -72
l451 -1040q-10 167 -10 334v694q0 35 22 60q21 24 55 24q35 0 56 -24q22 -25 22 -60z" />
    <glyph glyph-name="eng" unicode="&#x14b;" horiz-adv-x="1003" 
d="M870 707l-12 -779q0 -141 -80 -221t-194 -80h-25q-26 0 -49 23q-21 21 -21 49q0 26 23 49t49 23h25q46 0 80 34t34 99v784q0 89 -51 146q-53 59 -141 59q-85 0 -150 -59q-63 -57 -63 -146v-633q0 -32 -23 -55t-55 -23t-55 23t-23 55v908q0 31 23 57q21 24 55 24
q33 0 55 -22t25 -55l2 -35l10 10q1 1 29 25q20 17 47 34q23 14 66 27q40 12 86 12q141 0 237 -96t96 -237z" />
    <glyph glyph-name="Omacron" unicode="&#x14c;" horiz-adv-x="1099" 
d="M956 1077v-721q0 -151 -110 -264q-109 -112 -293 -112q-186 0 -297 114t-111 264v719q0 150 111 264q110 113 297 113q183 0 293 -113t110 -264zM782 354l-2 727q0 86 -61 150q-60 63 -168 63q-110 0 -170 -63q-62 -65 -62 -150v-723q0 -88 62 -153q61 -64 170 -64
t170 64t61 149zM272 1681v-8q0 30 23 53t55 23h389q36 0 56 -20q22 -22 22 -52q0 -29 -22 -51q-20 -20 -56 -20h-389q-33 0 -55 22q-23 23 -23 53z" />
    <glyph glyph-name="omacron" unicode="&#x14d;" horiz-adv-x="974" 
d="M487 1044q164 0 265 -98q100 -97 100 -252v-364q0 -155 -100 -252q-101 -98 -265 -98q-163 0 -264 98q-100 97 -100 252v364q0 155 100 252q101 98 264 98zM487 125v-4q90 0 148 55q57 54 57 152v360q0 91 -57 148q-59 59 -148 59q-90 0 -147 -57t-57 -148v-360
q0 -96 57 -150q58 -55 147 -55zM211 1266v-9q0 32 22 54t56 22h389q35 0 55 -20q23 -23 23 -51q0 -29 -23 -52q-20 -20 -55 -20h-389q-34 0 -56 22t-22 54z" />
    <glyph glyph-name="Obreve" unicode="&#x14e;" horiz-adv-x="1099" 
d="M956 1077v-721q0 -151 -110 -264q-109 -112 -293 -112q-186 0 -297 114t-111 264v719q0 150 111 264q110 113 297 113q183 0 293 -113t110 -264zM782 354l-2 727q0 86 -61 150q-60 63 -168 63q-110 0 -170 -63q-62 -65 -62 -150v-723q0 -88 62 -153q61 -64 170 -64
t170 64t61 149zM549 1683q94 0 121 93q18 61 78 61q69 0 69 -78q0 -66 -72 -135q-71 -68 -196 -68q-126 0 -197 68t-71 135q0 78 69 78q60 0 78 -61q27 -93 121 -93z" />
    <glyph glyph-name="obreve" unicode="&#x14f;" horiz-adv-x="974" 
d="M487 1044q164 0 265 -98q100 -97 100 -252v-364q0 -155 -100 -252q-101 -98 -265 -98q-163 0 -264 98q-100 97 -100 252v364q0 155 100 252q101 98 264 98zM487 125v-4q90 0 148 55q57 54 57 152v360q0 91 -57 148q-59 59 -148 59q-90 0 -147 -57t-57 -148v-360
q0 -96 57 -150q58 -55 147 -55zM485 1268q94 0 121 92q18 61 78 61q70 0 70 -78q0 -66 -72 -135q-70 -67 -197 -67q-126 0 -196 67q-72 69 -72 135q0 78 70 78q60 0 78 -61q27 -92 120 -92z" />
    <glyph glyph-name="Ohungarumlaut" unicode="&#x150;" horiz-adv-x="1099" 
d="M956 1077v-721q0 -151 -110 -264q-109 -112 -293 -112q-186 0 -297 114t-111 264v719q0 150 111 264q110 113 297 113q183 0 293 -113t110 -264zM782 354l-2 727q0 86 -61 150q-60 63 -168 63q-110 0 -170 -63q-62 -65 -62 -150v-723q0 -88 62 -153q61 -64 170 -64
t170 64t61 149zM305 1604l-2 -2q0 25 19 47l135 149q27 27 61 27q28 0 47 -19t19 -45q0 -30 -27 -57l-147 -137q-24 -21 -48 -21q-23 0 -40 17t-17 41zM621 1602l-3 -3q0 26 19 48l135 149q27 27 62 27q28 0 47 -19q18 -18 18 -45q0 -30 -27 -57l-147 -137q-24 -21 -47 -21
q-24 0 -41 17q-16 16 -16 41z" />
    <glyph glyph-name="ohungarumlaut" unicode="&#x151;" horiz-adv-x="974" 
d="M487 1044q164 0 265 -98q100 -97 100 -252v-364q0 -155 -100 -252q-101 -98 -265 -98q-163 0 -264 98q-100 97 -100 252v364q0 155 100 252q101 98 264 98zM487 125v-4q90 0 148 55q57 54 57 152v360q0 91 -57 148q-59 59 -148 59q-90 0 -147 -57t-57 -148v-360
q0 -96 57 -150q58 -55 147 -55zM240 1188l-2 -2q0 26 18 47l135 149q27 27 62 27q29 0 47 -18t18 -45q0 -32 -26 -58l-148 -137q-24 -21 -47 -21q-24 0 -41 17q-16 16 -16 41zM555 1186l-2 -2q0 26 18 47l136 149q27 27 61 27q29 0 47 -18q19 -19 19 -46q0 -30 -27 -57
l-148 -137q-24 -21 -47 -21q-24 0 -41 17q-16 16 -16 41z" />
    <glyph glyph-name="OE" unicode="&#x152;" horiz-adv-x="1333" 
d="M799 164l381 -8q33 0 55 -25t22 -57q0 -34 -22 -56t-55 -22h-670q-164 0 -277 113q-112 112 -112 270v670q0 156 115 268q113 110 276 110h653q34 0 56 -22t22 -55t-22 -58q-21 -24 -56 -24h-366v-437h317q33 0 55 -22q23 -23 23 -55q0 -33 -23 -56q-22 -22 -55 -22h-317
v-512zM295 375v-4q0 -94 63 -154q64 -61 160 -61h105v1108h-105q-96 0 -160 -64q-63 -63 -63 -156v-669z" />
    <glyph glyph-name="oe" unicode="&#x153;" horiz-adv-x="1460" 
d="M469 125l-2 -2q87 0 139 55q53 56 53 152v360q0 90 -55 148q-56 59 -137 59q-85 0 -139 -57q-56 -59 -56 -148v-360q0 -91 56 -150q54 -57 141 -57zM817 606h373v84q0 91 -51 148q-53 59 -135 59q-83 0 -136 -59q-51 -57 -51 -148v-84zM1237 459l-428 -4v-133
q0 -91 51 -148t135 -57q89 0 129 43t58 108q15 56 73 56q33 0 54 -21q22 -22 22 -51q0 -32 -18 -76q-17 -42 -56 -90q-40 -50 -104 -78q-70 -31 -149 -31q-174 0 -265 123q-102 -123 -272 -123q-157 0 -252 99q-94 98 -94 252v364q0 151 96 252q94 98 252 98q175 0 272 -124
q97 124 265 124q149 0 239 -100q92 -103 92 -252v-137q0 -40 -28 -68q-26 -26 -72 -26z" />
    <glyph glyph-name="Racute" unicode="&#x154;" horiz-adv-x="1032" 
d="M709 834l-4 280q0 63 -48 111q-47 47 -110 47h-213v-592h213q71 0 117 43q45 42 45 111zM692 549l189 -447q8 -16 8 -39q0 -36 -25 -61t-59 -25q-60 0 -84 56l-203 487h-190v-459q0 -34 -25 -59t-59 -25q-35 0 -60 25q-24 24 -24 59v1291q0 33 22 55q23 23 56 23h311
q137 0 233 -93q97 -94 97 -225v-272q0 -97 -50 -174t-137 -117zM375 1604l-4 -2q0 23 22 51l150 166q30 30 65 30q34 0 54 -20q22 -22 22 -51q0 -33 -31 -64l-164 -151q-28 -25 -49 -25q-29 0 -47 18t-18 48z" />
    <glyph glyph-name="racute" unicode="&#x155;" horiz-adv-x="622" 
d="M573 891l-6 -2q-4 0 -32 4t-43 4q-77 0 -136 -68t-59 -165v-607q0 -32 -23 -55q-22 -22 -55 -22t-55 22q-23 23 -23 55v908q0 31 23 57q22 25 55 25q32 0 55 -23t23 -55v-37q83 115 227 115q31 0 68 -11q53 -18 53 -69q0 -36 -20 -56t-52 -20zM293 1194l-4 -2q0 23 22 51
l150 166q31 31 65 31q33 0 54 -21q22 -22 22 -51q0 -32 -31 -63l-163 -152q-28 -25 -50 -25q-28 0 -47 19q-18 18 -18 47z" />
    <glyph glyph-name="Rcommaaccent" unicode="&#x156;" horiz-adv-x="1032" 
d="M709 834l-4 280q0 63 -48 111q-47 47 -110 47h-213v-592h213q71 0 117 43q45 42 45 111zM692 549l189 -447q8 -16 8 -39q0 -36 -25 -61t-59 -25q-60 0 -84 56l-203 487h-190v-459q0 -34 -25 -59t-59 -25q-35 0 -60 25q-24 24 -24 59v1291q0 33 22 55q23 23 56 23h311
q137 0 233 -93q97 -94 97 -225v-272q0 -97 -50 -174t-137 -117zM377 -436q-29 0 -47 18q-19 19 -19 47q0 16 13 39l110 195q30 47 74 47q32 0 53 -21q23 -23 23 -51t-19 -53l-129 -184q-24 -37 -59 -37z" />
    <glyph glyph-name="rcommaaccent" unicode="&#x157;" horiz-adv-x="622" 
d="M573 891l-6 -2q-4 0 -32 4t-43 4q-77 0 -136 -68t-59 -165v-607q0 -32 -23 -55q-22 -22 -55 -22t-55 22q-23 23 -23 55v908q0 31 23 57q22 25 55 25q32 0 55 -23t23 -55v-37q83 115 227 115q31 0 68 -11q53 -18 53 -69q0 -36 -20 -56t-52 -20zM82 -436q-29 0 -47 18
q-19 19 -19 47q0 16 13 39l110 195q30 47 74 47q32 0 53 -21q23 -23 23 -51t-19 -53l-129 -184q-24 -37 -59 -37z" />
    <glyph glyph-name="Rcaron" unicode="&#x158;" horiz-adv-x="1032" 
d="M709 834l-4 280q0 63 -48 111q-47 47 -110 47h-213v-592h213q71 0 117 43q45 42 45 111zM692 549l189 -447q8 -16 8 -39q0 -36 -25 -61t-59 -25q-60 0 -84 56l-203 487h-190v-459q0 -34 -25 -59t-59 -25q-35 0 -60 25q-24 24 -24 59v1291q0 33 22 55q23 23 56 23h311
q137 0 233 -93q97 -94 97 -225v-272q0 -97 -50 -174t-137 -117zM750 1790q0 -25 -23 -45l-156 -164q-37 -37 -79 -37q-46 0 -80 37l-158 164q-21 21 -21 45t19 43q18 18 43 18q21 0 49 -22l148 -131l147 131q28 22 49 22q25 0 43 -18q19 -19 19 -43z" />
    <glyph glyph-name="rcaron" unicode="&#x159;" horiz-adv-x="622" 
d="M573 891l-6 -2q-4 0 -32 4t-43 4q-77 0 -136 -68t-59 -165v-607q0 -32 -23 -55q-22 -22 -55 -22t-55 22q-23 23 -23 55v908q0 31 23 57q22 25 55 25q32 0 55 -23t23 -55v-37q83 115 227 115q31 0 68 -11q53 -18 53 -69q0 -36 -20 -56t-52 -20zM645 1378q0 -26 -22 -45
l-156 -164q-36 -36 -80 -36q-47 0 -80 36l-157 164q-21 21 -21 45q0 25 18 43q19 19 43 19q20 0 50 -23l147 -131l148 131q30 23 49 23q24 0 43 -19q18 -18 18 -43z" />
    <glyph glyph-name="Sacute" unicode="&#x15a;" horiz-adv-x="1007" 
d="M496 -20l-17 2q-181 0 -291 104t-110 250q0 37 24 61q25 25 62 25q36 0 59 -23q22 -22 25 -59q6 -93 67 -145q63 -54 168 -54q104 0 166 62t62 159q0 79 -45 136q-47 59 -113 96q-136 75 -147 82q-96 56 -148 92q-65 45 -113 127q-45 77 -45 184q0 160 115 269
q114 108 277 108q142 0 245 -80q102 -79 129 -194q6 -24 6 -39q0 -38 -24 -62t-60 -24q-71 0 -86 73q-15 71 -73 117q-59 47 -135 47q-88 0 -150 -59q-61 -58 -61 -141q0 -84 63 -144q60 -57 156 -106q108 -55 184 -101q93 -56 156 -153t63 -234q0 -151 -110 -264
q-109 -112 -299 -112zM403 1608l-6 -2q0 21 23 51l149 166q30 30 66 30q33 0 53 -20q23 -23 23 -51q0 -33 -31 -64l-164 -151q-28 -25 -49 -25q-26 0 -45 19t-19 47z" />
    <glyph glyph-name="sacute" unicode="&#x15b;" horiz-adv-x="901" 
d="M459 -20l-17 14q-165 0 -258 96q-92 95 -92 184q0 33 23 56q22 22 55 22q29 0 53 -18q26 -20 29 -45q12 -68 61 -111t133 -43q77 0 129 43t52 109q0 58 -52 98q-57 44 -124 66q-66 22 -148 55q-71 29 -125 92q-51 60 -51 154q0 132 96 213q94 79 234 79q148 0 233 -88
q86 -89 86 -174q0 -32 -20 -55q-22 -25 -51 -25q-38 0 -56 21t-33 61q-14 45 -59 80q-44 35 -102 35q-66 0 -111 -39t-45 -98q0 -56 51 -92q55 -39 125 -62q87 -29 148 -57q72 -34 125 -105q51 -68 51 -172q0 -122 -99 -208q-100 -86 -241 -86zM377 1210l-4 -2q0 24 22 52
l150 165q31 31 65 31t54 -20q22 -22 22 -52q0 -32 -31 -63l-163 -152q-27 -24 -50 -24q-29 0 -47 18t-18 47z" />
    <glyph glyph-name="Scircumflex" unicode="&#x15c;" horiz-adv-x="1007" 
d="M496 -20l-17 2q-181 0 -291 104t-110 250q0 37 24 61q25 25 62 25q36 0 59 -23q22 -22 25 -59q6 -93 67 -145q63 -54 168 -54q104 0 166 62t62 159q0 79 -45 136q-47 59 -113 96q-136 75 -147 82q-96 56 -148 92q-65 45 -113 127q-45 77 -45 184q0 160 115 269
q114 108 277 108q142 0 245 -80q102 -79 129 -194q6 -24 6 -39q0 -38 -24 -62t-60 -24q-71 0 -86 73q-15 71 -73 117q-59 47 -135 47q-88 0 -150 -59q-61 -58 -61 -141q0 -84 63 -144q60 -57 156 -106q108 -55 184 -101q93 -56 156 -153t63 -234q0 -151 -110 -264
q-109 -112 -299 -112zM752 1606q0 -24 -19 -43t-43 -19q-19 0 -49 23l-147 131l-148 -131q-30 -23 -49 -23q-24 0 -43 19q-18 18 -18 43t20 45l158 164q33 36 80 36q43 0 79 -36l156 -164q23 -20 23 -45z" />
    <glyph glyph-name="scircumflex" unicode="&#x15d;" horiz-adv-x="901" 
d="M459 -20l-17 14q-165 0 -258 96q-92 95 -92 184q0 33 23 56q22 22 55 22q29 0 53 -18q26 -20 29 -45q12 -68 61 -111t133 -43q77 0 129 43t52 109q0 58 -52 98q-57 44 -124 66q-66 22 -148 55q-71 29 -125 92q-51 60 -51 154q0 132 96 213q94 79 234 79q148 0 233 -88
q86 -89 86 -174q0 -32 -20 -55q-22 -25 -51 -25q-38 0 -56 21t-33 61q-14 45 -59 80q-44 35 -102 35q-66 0 -111 -39t-45 -98q0 -56 51 -92q55 -39 125 -62q87 -29 148 -57q72 -34 125 -105q51 -68 51 -172q0 -122 -99 -208q-100 -86 -241 -86zM700 1208q0 -25 -18 -43
t-43 -18q-21 0 -49 22l-148 131l-147 -131q-28 -22 -49 -22q-25 0 -43 18q-19 19 -19 43t21 45l157 164q34 37 80 37q43 0 80 -37l156 -164q22 -19 22 -45z" />
    <glyph glyph-name="Scedilla" unicode="&#x15e;" horiz-adv-x="1007" 
d="M371 -315h-21q0 19 17 36t36 17h95q17 0 30 16t13 35q0 17 -13 33q-11 14 -30 14h-49q-54 0 -54 55v97q-147 21 -233 121t-86 227q0 37 24 61q25 25 62 25q36 0 59 -23q22 -22 25 -59q6 -93 67 -145q63 -54 168 -54q104 0 166 62t62 159q0 79 -45 136q-47 59 -113 96
q-15 8 -44 24t-55 30t-49 28q-89 52 -147 92q-65 45 -113 127q-45 77 -45 184q0 160 115 269q114 108 276 108q143 0 246 -80q102 -79 129 -194q6 -24 6 -39q0 -38 -24 -62t-60 -24q-71 0 -86 73q-15 71 -73 117q-59 47 -135 47q-88 0 -150 -59q-61 -58 -61 -141
q0 -84 63 -144q60 -57 156 -106q108 -55 184 -101q93 -56 156 -153t63 -234q0 -143 -100 -252q-101 -110 -271 -122v-39q67 0 115 -45q49 -46 49 -111t-49 -111q-48 -45 -112 -45h-113q-20 0 -37 17q-14 14 -14 37z" />
    <glyph glyph-name="scedilla" unicode="&#x15f;" horiz-adv-x="901" 
d="M340 -315l-16 12q0 21 16 37t37 16h94q17 0 31 17q12 15 12 34q0 18 -12 33q-11 14 -31 14h-49q-53 0 -53 56v96q-130 21 -205 111q-74 89 -74 165q0 33 23 56q22 22 55 22q29 0 53 -18q26 -20 29 -45q12 -68 61 -111t133 -43q77 0 129 43t52 109q0 58 -52 98
q-57 44 -124 66q-66 22 -148 55q-71 29 -125 92q-51 60 -51 154q0 132 96 213q95 80 234 80q147 0 233 -89t86 -174q0 -32 -20 -55q-21 -24 -52 -24q-38 0 -55 20q-18 21 -33 61q-14 45 -59 80q-44 35 -102 35q-66 0 -111 -39t-45 -98q0 -56 51 -92q55 -39 125 -62
q87 -29 148 -57q72 -34 124 -104t52 -173q0 -112 -84 -196q-83 -83 -209 -98v-39q66 0 114 -45q50 -47 50 -111t-50 -111q-48 -45 -112 -45h-113q-20 0 -37 17q-16 16 -16 37z" />
    <glyph glyph-name="Scaron" unicode="&#x160;" horiz-adv-x="1007" 
d="M496 -20l-17 2q-181 0 -291 104t-110 250q0 37 24 61q25 25 62 25q36 0 59 -23q22 -22 25 -59q6 -93 67 -145q63 -54 168 -54q104 0 166 62t62 159q0 79 -45 136q-47 59 -113 96q-136 75 -147 82q-96 56 -148 92q-65 45 -113 127q-45 77 -45 184q0 160 115 269
q114 108 277 108q142 0 245 -80q102 -79 129 -194q6 -24 6 -39q0 -38 -24 -62t-60 -24q-71 0 -86 73q-15 71 -73 117q-59 47 -135 47q-88 0 -150 -59q-61 -58 -61 -141q0 -84 63 -144q60 -57 156 -106q108 -55 184 -101q93 -56 156 -153t63 -234q0 -151 -110 -264
q-109 -112 -299 -112zM762 1792q0 -25 -23 -45l-155 -164q-37 -37 -80 -37q-46 0 -80 37l-158 164q-20 20 -20 45t18 43t43 18q21 0 49 -22l148 -131l147 131q28 22 49 22q25 0 43 -18q19 -19 19 -43z" />
    <glyph glyph-name="scaron" unicode="&#x161;" horiz-adv-x="901" 
d="M459 -20l-17 14q-165 0 -258 96q-92 95 -92 184q0 33 23 56q22 22 55 22q29 0 53 -18q26 -20 29 -45q12 -68 61 -111t133 -43q77 0 129 43t52 109q0 58 -52 98q-57 44 -124 66q-66 22 -148 55q-71 29 -125 92q-51 60 -51 154q0 132 96 213q94 79 234 79q148 0 233 -88
q86 -89 86 -174q0 -32 -20 -55q-22 -25 -51 -25q-38 0 -56 21t-33 61q-14 45 -59 80q-44 35 -102 35q-66 0 -111 -39t-45 -98q0 -56 51 -92q55 -39 125 -62q87 -29 148 -57q72 -34 125 -105q51 -68 51 -172q0 -122 -99 -208q-100 -86 -241 -86zM713 1395q0 -25 -23 -45
l-155 -164q-37 -37 -80 -37q-46 0 -80 37l-158 164q-20 20 -20 45t18 43t43 18q21 0 49 -22l148 -131l147 131q28 22 49 22q25 0 43 -18q19 -19 19 -43z" />
    <glyph glyph-name="Tcommaaccent" unicode="&#x162;" horiz-adv-x="841" 
d="M100 1434l637 -2q33 0 56 -23q22 -22 22 -55t-22 -58q-21 -24 -56 -24h-235v-1209q0 -34 -25 -59q-24 -24 -59 -24q-36 0 -60 24t-24 59v1209h-234q-34 0 -55 24q-22 25 -22 60q0 33 22 55q23 23 55 23zM281 -436q-30 0 -48 18t-18 47q0 18 12 39l111 195q30 47 74 47
q32 0 53 -21q22 -22 22 -51t-18 -53l-129 -184q-24 -37 -59 -37z" />
    <glyph glyph-name="tcommaaccent" unicode="&#x163;" horiz-adv-x="667" 
d="M344 877l-4 -627q0 -131 102 -131q45 0 90 28q24 17 46 17q28 0 47 -19q18 -18 18 -47q0 -34 -27 -61q-67 -64 -188 -64q-107 0 -178 68q-70 67 -70 190v637h-86q-28 0 -51 23q-20 20 -20 53q0 31 22 53q23 23 53 23h86v209q0 31 23 57q22 25 55 25t55 -25q23 -26 23 -57
v-209h205q32 0 53 -21q23 -23 23 -51q0 -30 -21 -51q-20 -20 -51 -20h-205zM289 -438q-29 0 -47 18q-19 19 -19 47q0 16 13 39l110 195q30 47 74 47q32 0 53 -21q23 -23 23 -51t-19 -53l-129 -184q-24 -37 -59 -37z" />
    <glyph glyph-name="Tcaron" unicode="&#x164;" horiz-adv-x="841" 
d="M100 1434l637 -2q33 0 56 -23q22 -22 22 -55t-22 -58q-21 -24 -56 -24h-235v-1209q0 -34 -25 -59q-24 -24 -59 -24q-36 0 -60 24t-24 59v1209h-234q-34 0 -55 24q-22 25 -22 60q0 33 22 55q23 23 55 23zM674 1788q0 -25 -23 -45l-155 -164q-37 -37 -80 -37q-46 0 -80 37
l-158 164q-20 20 -20 45t18 43t43 18q21 0 49 -22l148 -131l147 131q28 22 49 22q25 0 43 -18q19 -19 19 -43z" />
    <glyph glyph-name="tcaron" unicode="&#x165;" horiz-adv-x="667" 
d="M344 877l-4 -627q0 -131 102 -131q45 0 90 28q24 17 46 17q28 0 47 -19q18 -18 18 -47q0 -34 -27 -61q-67 -64 -188 -64q-107 0 -178 68q-70 67 -70 190v637h-86q-28 0 -51 23q-20 20 -20 53q0 31 22 53q23 23 53 23h86v209q0 31 23 57q22 25 55 25t55 -25q23 -26 23 -57
v-209h205q32 0 53 -21q23 -23 23 -51q0 -30 -21 -51q-20 -20 -51 -20h-205zM514 1106q-29 0 -47 18t-18 47q0 18 12 39l110 195q30 47 74 47q33 0 53 -20q23 -23 23 -52q0 -28 -19 -53l-129 -184q-24 -37 -59 -37z" />
    <glyph glyph-name="Tbar" unicode="&#x166;" horiz-adv-x="841" 
d="M109 758l-5 -10q0 30 23 53q22 22 55 22h146v441h-234q-34 0 -55 24q-23 26 -23 60q0 32 23 55q22 22 55 22h641q34 0 56 -22t22 -55t-22 -58q-21 -24 -56 -24h-235v-441h147q35 0 55 -20q23 -23 23 -51q0 -29 -23 -52q-20 -20 -55 -20h-147v-621q0 -34 -25 -59t-59 -25
q-35 0 -60 25q-24 24 -24 59v621h-146q-32 0 -55 23q-22 22 -22 53z" />
    <glyph glyph-name="tbar" unicode="&#x167;" horiz-adv-x="667" 
d="M29 573l-9 -4q0 29 23 52q20 20 55 20h78v231h-86q-28 0 -51 23q-21 21 -21 53q0 30 23 53t53 23h86v209q0 31 23 57q22 25 55 25t55 -25q23 -26 23 -57v-209h205q33 0 53 -20q22 -22 22 -52q0 -31 -20 -51t-51 -20h-205v-232h149q36 0 56 -20q22 -22 22 -51
q0 -32 -20 -52t-55 -20h-150v-248q0 -131 102 -131q44 0 91 29q22 16 45 16q29 0 47 -18t18 -48q0 -34 -27 -61q-66 -63 -188 -63q-108 0 -178 67t-70 191v262h-78q-35 0 -55 20t-20 51z" />
    <glyph glyph-name="Utilde" unicode="&#x168;" horiz-adv-x="1095" 
d="M942 1370l4 -1012q0 -156 -104 -266t-285 -110q-182 0 -289 110q-106 109 -106 268v1012q0 36 24 60t60 24q35 0 59 -24q25 -25 25 -60v-1014q0 -88 59 -153q58 -64 166 -64q104 0 162 64q57 63 57 149v1016q0 35 25 60q24 24 59 24q36 0 60 -24t24 -60zM432 1778v-4
q56 0 133 -45q79 -46 111 -46q40 0 55 41q15 50 66 50q28 0 47 -19q18 -18 18 -49q0 -61 -49 -107q-48 -45 -125 -45q-52 0 -131 43t-111 43q-40 0 -55 -41q-15 -49 -65 -49q-28 0 -47 19t-19 49q0 62 49 111t123 49z" />
    <glyph glyph-name="utilde" unicode="&#x169;" horiz-adv-x="1003" 
d="M293 967l-6 -637q0 -205 194 -205q86 0 150 61q63 60 63 148v633q0 31 23 57q22 25 55 25t55 -25q23 -26 23 -57v-904q0 -32 -23 -55q-22 -22 -55 -22t-55 22t-25 55l-2 41q-6 -6 -10 -12t-29 -31q-18 -18 -47 -36q-30 -19 -67 -29q-43 -12 -91 -12q-150 0 -233 92
q-84 93 -84 243v648q0 32 25 57t57 25t57 -25t25 -57zM365 1364v-4q56 0 133 -45t110 -45q41 0 56 41q15 49 65 49q28 0 47 -19t19 -49q0 -59 -50 -106q-48 -45 -124 -45q-53 0 -132 43t-110 43q-40 0 -55 -41q-15 -49 -66 -49q-29 0 -47 18t-18 49q0 62 49 111t123 49z" />
    <glyph glyph-name="Umacron" unicode="&#x16a;" horiz-adv-x="1095" 
d="M942 1370l4 -1012q0 -156 -104 -266t-285 -110q-182 0 -289 110q-106 109 -106 268v1012q0 36 24 60t60 24q35 0 59 -24q25 -25 25 -60v-1014q0 -88 59 -153q58 -64 166 -64q104 0 162 64q57 63 57 149v1016q0 35 25 60q24 24 59 24q36 0 60 -24t24 -60zM285 1681v-8
q0 31 22 53q23 23 55 23h390q35 0 55 -20q22 -22 22 -52q0 -29 -22 -51q-20 -20 -55 -20h-390q-33 0 -55 22t-22 53z" />
    <glyph glyph-name="umacron" unicode="&#x16b;" horiz-adv-x="1003" 
d="M293 967l-6 -637q0 -205 194 -205q86 0 150 61q63 60 63 148v633q0 31 23 57q22 25 55 25t55 -25q23 -26 23 -57v-904q0 -32 -23 -55q-22 -22 -55 -22t-55 22t-25 55l-2 41q-6 -6 -10 -12t-29 -31q-18 -18 -47 -36q-30 -19 -67 -29q-43 -12 -91 -12q-150 0 -233 92
q-84 93 -84 243v648q0 32 25 57t57 25t57 -25t25 -57zM219 1268v-8q0 30 23 53q22 22 55 22h389q35 0 55 -20q23 -23 23 -51q0 -29 -23 -52q-20 -20 -55 -20h-389q-33 0 -55 22q-23 23 -23 54z" />
    <glyph glyph-name="Ubreve" unicode="&#x16c;" horiz-adv-x="1095" 
d="M942 1370l4 -1012q0 -156 -104 -266t-285 -110q-182 0 -289 110q-106 109 -106 268v1012q0 36 24 60t60 24q35 0 59 -24q25 -25 25 -60v-1014q0 -88 59 -153q58 -64 166 -64q104 0 162 64q57 63 57 149v1016q0 35 25 60q24 24 59 24q36 0 60 -24t24 -60zM553 1683
q94 0 121 93q18 61 78 61q69 0 69 -78q0 -67 -71 -135t-197 -68t-197 68t-71 135q0 78 69 78q60 0 78 -61q27 -93 121 -93z" />
    <glyph glyph-name="ubreve" unicode="&#x16d;" horiz-adv-x="1003" 
d="M293 967l-6 -637q0 -205 194 -205q86 0 150 61q63 60 63 148v633q0 31 23 57q22 25 55 25t55 -25q23 -26 23 -57v-904q0 -32 -23 -55q-22 -22 -55 -22t-55 22t-25 55l-2 41q-6 -6 -10 -12t-29 -31q-18 -18 -47 -36q-30 -19 -67 -29q-43 -12 -91 -12q-150 0 -233 92
q-84 93 -84 243v648q0 32 25 57t57 25t57 -25t25 -57zM496 1270q93 0 120 92q18 61 78 61q70 0 70 -77q0 -67 -72 -136q-70 -67 -196 -67q-127 0 -197 67q-72 69 -72 136q0 77 70 77q60 0 78 -61q27 -92 121 -92z" />
    <glyph glyph-name="Uring" unicode="&#x16e;" horiz-adv-x="1095" 
d="M942 1370l4 -1012q0 -156 -104 -266t-285 -110q-182 0 -289 110q-106 109 -106 268v1012q0 36 24 60t60 24q35 0 59 -24q25 -25 25 -60v-1014q0 -88 59 -153q58 -64 166 -64q104 0 162 64q57 63 57 149v1016q0 35 25 60q24 24 59 24q36 0 60 -24t24 -60zM487 1694
q0 -28 19 -47t47 -19t47 19q18 18 18 47t-18 47t-47 18t-47 -18q-19 -19 -19 -47zM379 1692q0 72 51 123t123 51t123 -51t51 -123t-51 -123t-123 -51t-123 51t-51 123z" />
    <glyph glyph-name="uring" unicode="&#x16f;" horiz-adv-x="1003" 
d="M293 967l-6 -637q0 -205 194 -205q86 0 150 61q63 60 63 148v633q0 31 23 57q22 25 55 25t55 -25q23 -26 23 -57v-904q0 -32 -23 -55q-22 -22 -55 -22t-55 22t-25 55l-2 41q-6 -6 -10 -12t-29 -31q-18 -18 -47 -36q-30 -19 -67 -29q-43 -12 -91 -12q-150 0 -233 92
q-84 93 -84 243v648q0 32 25 57t57 25t57 -25t25 -57zM428 1280q0 -29 18 -47q19 -19 48 -19q28 0 47 19q18 18 18 47t-18 47q-19 19 -47 19q-29 0 -48 -19q-18 -18 -18 -47zM319 1278q0 71 52 123q51 51 123 51q71 0 122 -51q52 -52 52 -123t-52 -123q-51 -51 -122 -51
q-72 0 -123 51q-52 52 -52 123z" />
    <glyph glyph-name="Uhungarumlaut" unicode="&#x170;" horiz-adv-x="1095" 
d="M942 1370l4 -1012q0 -156 -104 -266t-285 -110q-182 0 -289 110q-106 109 -106 268v1012q0 36 24 60t60 24q35 0 59 -24q25 -25 25 -60v-1014q0 -88 59 -153q58 -64 166 -64q104 0 162 64q57 63 57 149v1016q0 35 25 60q24 24 59 24q36 0 60 -24t24 -60zM332 1604l-2 -2
q0 26 18 47l135 149q27 27 62 27q28 0 47 -19q18 -18 18 -45q0 -31 -26 -57l-148 -137q-24 -21 -47 -21q-24 0 -41 17q-16 16 -16 41zM647 1602l-2 -3q0 26 19 48l135 149q27 27 61 27q28 0 47 -19t19 -45q0 -30 -27 -57l-147 -137q-24 -21 -47 -21q-24 0 -41 17t-17 41z
" />
    <glyph glyph-name="uhungarumlaut" unicode="&#x171;" horiz-adv-x="1003" 
d="M293 967l-6 -637q0 -205 194 -205q86 0 150 61q63 60 63 148v633q0 31 23 57q22 25 55 25t55 -25q23 -26 23 -57v-904q0 -32 -23 -55q-22 -22 -55 -22t-55 22t-25 55l-2 41q-6 -6 -10 -12t-29 -31q-18 -18 -47 -36q-30 -19 -67 -29q-43 -12 -91 -12q-150 0 -233 92
q-84 93 -84 243v648q0 32 25 57t57 25t57 -25t25 -57zM262 1190l-2 -2q0 25 19 47l135 149q27 27 61 27q29 0 47 -18q19 -19 19 -45q0 -31 -27 -58l-147 -137q-23 -20 -48 -20q-24 0 -40 16q-17 17 -17 41zM578 1188l-3 -2q0 25 19 47l135 149q27 27 62 27q29 0 47 -18
t18 -45q0 -31 -27 -58l-147 -137q-24 -21 -47 -21q-24 0 -41 17q-16 16 -16 41z" />
    <glyph glyph-name="Uogonek" unicode="&#x172;" horiz-adv-x="1095" 
d="M942 1370l2 -1010q0 -191 -143 -301q-54 -44 -111 -118q-61 -79 -61 -129q0 -52 47 -52h49q74 0 74 -61q0 -28 -19 -47t-55 -19h-72q-73 0 -116 43t-43 103q0 115 129 207q-54 -4 -66 -4q-182 0 -289 110q-106 109 -106 268v1012q0 36 24 60t60 24q35 0 59 -24
q25 -25 25 -60v-1014q0 -88 59 -153q58 -64 166 -64q104 0 162 64q57 63 57 149v1016q0 35 25 60q24 24 59 24q36 0 60 -24t24 -60z" />
    <glyph glyph-name="uogonek" unicode="&#x173;" horiz-adv-x="1003" 
d="M293 967l-10 -639q0 -205 194 -205q86 0 150 61q63 60 63 148v633q0 31 23 57q22 25 55 25t55 -25q23 -26 23 -57v-908q0 -34 -25 -59l-20 -16l-37 -37q-11 -11 -39 -43q-25 -28 -35 -49q-12 -24 -12 -46q0 -51 47 -51h49q74 0 74 -61q0 -28 -19 -47t-55 -19h-72
q-73 0 -116 43t-43 103q0 44 22 90q20 40 56 69q45 35 55 41q35 20 41 23q-22 22 -25 61l-2 45q-6 -6 -10 -12t-29 -31q-18 -18 -47 -36q-30 -19 -67 -29q-43 -12 -91 -12q-150 0 -233 92q-84 93 -84 243v648q0 32 25 57t57 25t57 -25t25 -57z" />
    <glyph glyph-name="Wcircumflex" unicode="&#x174;" horiz-adv-x="1419" 
d="M827 764l164 -604h21l84 682v528q0 36 24 60t60 24q35 0 59 -24q25 -25 25 -60v-526q0 -13 -4 -49l-105 -738q-6 -55 -80 -55h-139q-65 0 -80 55l-143 549h-13l-141 -549q-15 -55 -80 -55h-139q-74 0 -80 55l-104 738q-4 36 -4 49v526q0 36 24 60t60 24q35 0 59 -24
t24 -60v-528l84 -682h25l162 604q15 55 80 55h75q67 0 82 -55zM961 1604q0 -24 -19 -43t-43 -19q-19 0 -49 23l-148 131l-147 -131q-30 -23 -49 -23q-24 0 -43 19t-19 43t21 45l158 163q34 37 79 37q43 0 80 -37l156 -163q23 -20 23 -45z" />
    <glyph glyph-name="wcircumflex" unicode="&#x175;" horiz-adv-x="1267" 
d="M754 612l125 -462h20l86 493v322q0 33 25 55t57 22t57 -22t25 -55v-289q0 -52 -8 -88l-107 -508q-18 -80 -96 -80h-88q-77 0 -98 80l-109 420h-10l-109 -420q-21 -80 -98 -80h-88q-78 0 -96 80l-107 506q-8 36 -8 88v291q0 32 23 55q22 22 55 22t55 -22q23 -23 23 -55
v-322l86 -493h20l123 462q18 72 92 72h55q77 0 95 -72zM893 1194q0 -24 -19 -43q-18 -18 -43 -18q-21 0 -49 22l-147 131l-148 -131q-28 -22 -49 -22q-25 0 -43 18t-18 43t20 45l158 164q34 37 80 37q43 0 80 -37l155 -164q23 -20 23 -45z" />
    <glyph glyph-name="Ycircumflex" unicode="&#x176;" horiz-adv-x="960" 
d="M567 678l-8 -615q0 -35 -24 -59t-60 -24q-35 0 -59 24q-25 25 -25 59v615l-321 643q-13 26 -13 51q0 33 25 58q24 24 59 24q56 0 86 -61l256 -541l246 541q27 61 86 61q35 0 59 -24q25 -25 25 -58q0 -27 -12 -51zM725 1604q0 -25 -18 -43q-19 -19 -43 -19q-20 0 -50 23
l-147 131l-148 -131q-30 -23 -49 -23q-24 0 -43 19q-18 18 -18 43t20 45l158 163q34 37 80 37q43 0 80 -37l155 -163q23 -20 23 -45z" />
    <glyph glyph-name="ycircumflex" unicode="&#x177;" horiz-adv-x="952" 
d="M883 918l-455 -1262q-15 -49 -72 -49q-32 0 -55 20q-25 22 -25 51q0 13 13 50l106 303l-315 884q-12 37 -12 52q0 34 24 55q25 22 58 22q58 0 73 -53l260 -749l256 749q15 53 74 53q34 0 57 -20q25 -22 25 -55q0 -13 -12 -51zM745 1190q0 -25 -18 -43q-19 -19 -43 -19
q-19 0 -49 23l-148 131l-147 -131q-30 -23 -49 -23q-24 0 -43 19t-19 43t21 45l158 164q34 37 79 37q43 0 80 -37l156 -164q22 -19 22 -45z" />
    <glyph glyph-name="Ydieresis" unicode="&#x178;" horiz-adv-x="960" 
d="M567 678l-8 -615q0 -35 -24 -59t-60 -24q-35 0 -59 24q-25 25 -25 59v615l-321 643q-13 26 -13 51q0 33 25 58q24 24 59 24q56 0 86 -61l256 -541l246 541q27 61 86 61q35 0 59 -24q25 -25 25 -58q0 -27 -12 -51zM217 1694h-2q0 38 29 67t67 29q40 0 72 -29
q31 -28 31 -67q0 -40 -31 -68q-32 -29 -70 -29t-67 29t-29 68zM530 1694h-2q0 39 31 67q32 29 72 29q38 0 67 -29t29 -67q0 -39 -29 -68t-67 -29t-70 29q-31 28 -31 68z" />
    <glyph glyph-name="Zacute" unicode="&#x179;" horiz-adv-x="956" 
d="M104 201l601 1069h-521q-34 0 -55 24q-23 26 -23 60q0 32 23 55t55 23h613q42 0 67 -25t25 -61v-41q0 -49 -23 -93l-592 -1056h539q33 0 55 -25q23 -26 23 -57q0 -33 -23 -56q-22 -22 -55 -22h-639q-44 0 -68 24t-24 62v27q0 50 22 92zM416 1604l-6 -2q0 23 22 51
l150 166q30 30 65 30q33 0 53 -20q23 -23 23 -51q0 -33 -31 -64l-164 -151q-28 -25 -49 -25q-27 0 -45 18t-18 48z" />
    <glyph glyph-name="zacute" unicode="&#x17a;" horiz-adv-x="854" 
d="M743 852l-477 -711h428q34 0 54 -20q22 -22 22 -51q0 -32 -20 -52t-52 -20h-534q-45 0 -70 25q-24 24 -24 61q0 36 36 86l467 704h-397q-28 0 -51 23q-21 21 -21 53q0 31 23 54q22 22 53 22h506q45 0 70 -25q24 -24 24 -61q0 -33 -37 -88zM360 1190l-4 -2q0 21 23 51
l149 166q31 31 66 31q32 0 53 -21q23 -23 23 -51q0 -33 -31 -64l-164 -151q-28 -25 -49 -25q-28 0 -47 19t-19 47z" />
    <glyph glyph-name="Zdotaccent" unicode="&#x17b;" horiz-adv-x="956" 
d="M104 201l601 1069h-521q-34 0 -55 24q-23 26 -23 60q0 32 23 55t55 23h613q42 0 67 -25t25 -61v-41q0 -49 -23 -93l-592 -1056h539q33 0 55 -25q23 -26 23 -57q0 -33 -23 -56q-22 -22 -55 -22h-639q-44 0 -68 24t-24 62v27q0 50 22 92zM401 1692q0 44 31 75t76 31t76 -31
q30 -30 30 -75q0 -46 -30 -76q-31 -31 -76 -31t-76 31t-31 76z" />
    <glyph glyph-name="zdotaccent" unicode="&#x17c;" horiz-adv-x="854" 
d="M743 852l-477 -711h428q34 0 54 -20q22 -22 22 -51q0 -32 -20 -52t-52 -20h-534q-45 0 -70 25q-24 24 -24 61q0 36 36 86l467 704h-397q-28 0 -51 23q-21 21 -21 53q0 31 23 54q22 22 53 22h506q45 0 70 -25q24 -24 24 -61q0 -33 -37 -88zM326 1278q0 46 30 76t76 30
t76 -30q31 -31 31 -76t-31 -76t-76 -31t-76 31q-30 30 -30 76z" />
    <glyph glyph-name="Zcaron" unicode="&#x17d;" horiz-adv-x="956" 
d="M104 201l601 1069h-521q-34 0 -55 24q-23 26 -23 60q0 32 23 55t55 23h613q42 0 67 -25t25 -61v-41q0 -49 -23 -93l-592 -1056h539q33 0 55 -25q23 -26 23 -57q0 -33 -23 -56q-22 -22 -55 -22h-639q-44 0 -68 24t-24 62v27q0 50 22 92zM782 1788q0 -26 -22 -45l-156 -164
q-37 -37 -80 -37q-46 0 -80 37l-157 164q-21 21 -21 45t19 43q18 18 43 18q21 0 49 -22l147 -131l148 131q28 22 49 22q25 0 43 -18t18 -43z" />
    <glyph glyph-name="zcaron" unicode="&#x17e;" horiz-adv-x="854" 
d="M743 852l-477 -711h428q34 0 54 -20q22 -22 22 -51q0 -32 -20 -52t-52 -20h-534q-45 0 -70 25q-24 24 -24 61q0 36 36 86l467 704h-397q-28 0 -51 23q-21 21 -21 53q0 31 23 54q22 22 53 22h506q45 0 70 -25q24 -24 24 -61q0 -33 -37 -88zM711 1374q0 -25 -23 -45
l-156 -164q-37 -37 -79 -37q-46 0 -80 37l-158 164q-20 20 -20 45t18 43q19 19 43 19q19 0 49 -23l148 -131l147 131q30 23 49 23q24 0 43 -19t19 -43z" />
    <glyph glyph-name="florin" unicode="&#x192;" horiz-adv-x="1073" 
d="M205 -358l-10 -13q-41 18 -41 66q0 31 22 53q23 23 49 23q8 0 29 -7q44 -18 78 -18q47 0 82 35q32 32 32 98v985h-210q-29 0 -52 23q-20 20 -20 53q0 31 22 53q23 23 54 23h211v131q0 142 79 221q80 80 195 80q74 0 137 -29q41 -18 41 -65q0 -31 -20 -51q-21 -21 -49 -21
q-11 0 -29 6q-46 19 -78 19q-47 0 -82 -35q-33 -33 -33 -98v-152h238q32 0 53 -21q23 -23 23 -51q0 -30 -21 -51q-20 -20 -51 -20h-238v-965q0 -142 -79 -221q-80 -80 -195 -80q-74 0 -137 29z" />
    <glyph glyph-name="AEacute" unicode="&#x1fc;" horiz-adv-x="1320" 
d="M496 1272l-199 -656h321v656h-122zM795 836l323 -9q33 0 58 -22q24 -21 24 -55q0 -35 -24 -56q-25 -22 -58 -22h-319v-514h385q33 0 55 -25q23 -26 23 -57q0 -34 -25 -56t-57 -22h-478q-34 0 -59 25t-25 59v379h-327v-400q0 -34 -25 -59t-59 -25q-35 0 -60 25
q-24 24 -24 59v531q0 19 6 37l240 747q15 56 80 56h714q33 0 56 -23q22 -22 22 -55t-22 -58q-21 -24 -56 -24h-368v-436zM674 1597l-6 -2q0 24 22 52l150 165q31 31 65 31q33 0 53 -20q23 -23 23 -51q0 -33 -31 -64l-164 -152q-27 -24 -49 -24q-27 0 -45 18t-18 47z" />
    <glyph glyph-name="aeacute" unicode="&#x1fd;" horiz-adv-x="1435" 
d="M637 326l-4 143q-138 3 -209 -6q-93 -12 -135 -57q-43 -46 -43 -105q0 -75 47 -125q46 -49 127 -49q100 0 158 55q59 56 59 144zM791 616h372v74q0 91 -51 148q-53 59 -135 59t-135 -59q-51 -57 -51 -148v-74zM977 123l-6 4q45 0 80 12q34 12 53 37q21 28 29 47
q7 16 18 53q15 56 74 56q32 0 53 -21q22 -22 22 -51q0 -80 -86 -180q-85 -98 -241 -98q-55 0 -105 12q-48 12 -77 31q-36 24 -50 36q-21 18 -30 33l-9 12q-7 -11 -28 -36q-19 -22 -88 -56t-150 -34q-150 0 -250 86q-98 85 -98 231q0 109 74 195t219 110q36 7 92 10
q82 4 109 4h47v82q0 86 -45 140q-46 55 -125 55q-123 0 -170 -115q-17 -51 -80 -51q-33 0 -53 23q-19 22 -19 55q0 70 92 156t232 86q76 0 143 -31q61 -28 88 -62l23 -30q6 6 10 12q6 9 31 31q24 21 53 37q30 17 74 28q47 12 94 12q150 0 240 -100q92 -103 92 -252v-127
q0 -38 -29 -67q-27 -27 -72 -27h-417v-143q0 -91 51 -148t135 -57zM600 1198l-6 -2q0 23 22 51l150 166q31 31 65 31q33 0 54 -21q22 -22 22 -51q0 -33 -30 -63l-164 -152q-27 -24 -49 -24q-28 0 -46 18t-18 47z" />
    <glyph glyph-name="Oslashacute" unicode="&#x1fe;" horiz-adv-x="1099" 
d="M961 1384l-66 -114q57 -89 57 -195v-721q0 -151 -110 -264t-293 -113q-174 0 -289 103l-37 -68q-18 -35 -47 -35q-21 0 -37 13q-14 11 -14 35q0 10 6 22l62 115q-54 91 -54 194v719q0 150 111 264q110 113 297 113q168 0 282 -102l37 67q18 35 47 35q22 0 37 -12
q17 -14 17 -33q0 -11 -6 -23zM782 385v670l-442 -826q64 -104 209 -104q109 0 172 72q61 70 61 188zM309 1047v-670l439 821q-64 102 -203 102q-114 0 -174 -69q-62 -71 -62 -184zM455 1602l-4 -3q0 24 22 52l150 166q30 30 65 30q33 0 53 -20q23 -23 23 -51q0 -33 -31 -64
l-164 -151q-28 -25 -49 -25q-29 0 -47 18t-18 48z" />
    <glyph glyph-name="oslashacute" unicode="&#x1ff;" horiz-adv-x="974" 
d="M799 987l-35 -61q86 -95 86 -234v-364q0 -155 -100 -252q-102 -99 -265 -99q-112 0 -206 54l-25 -45q-16 -25 -43 -25q-21 0 -33 12t-12 35q0 13 6 25l33 59q-84 96 -84 236v364q0 155 100 252q101 98 264 98q117 0 205 -55l25 45q16 25 43 25q22 0 35 -13q12 -12 12 -32
q0 -13 -6 -25zM485 115l-2 -2q93 0 152 59t59 154v368q0 37 -14 78l-332 -612q51 -45 137 -45zM274 324l-2 2q0 -43 13 -80l331 610q-53 47 -135 47q-88 0 -147 -59q-60 -60 -60 -152v-368zM362 1194l-4 -2q0 21 23 51l149 166q31 31 66 31q32 0 53 -21q23 -23 23 -51
q0 -32 -31 -63l-164 -152q-28 -25 -49 -25q-28 0 -47 19t-19 47z" />
    <glyph glyph-name="Scommaaccent" unicode="&#x218;" horiz-adv-x="1007" 
d="M496 -20l-17 2q-181 0 -291 104t-110 250q0 37 24 61q25 25 62 25q36 0 59 -23q22 -22 25 -59q6 -93 67 -145q63 -54 168 -54q104 0 166 62t62 159q0 79 -45 136q-47 59 -113 96q-136 75 -147 82q-96 56 -148 92q-65 45 -113 127q-45 77 -45 184q0 160 115 269
q114 108 277 108q142 0 245 -80q102 -79 129 -194q6 -24 6 -39q0 -38 -24 -62t-60 -24q-71 0 -86 73q-15 71 -73 117q-59 47 -135 47q-88 0 -150 -59q-61 -58 -61 -141q0 -84 63 -144q60 -57 156 -106q108 -55 184 -101q93 -56 156 -153t63 -234q0 -151 -110 -264
q-109 -112 -299 -112zM360 -432q-29 0 -47 18t-18 47q0 18 12 39l111 195q30 47 74 47q33 0 53 -20q22 -22 22 -52q0 -29 -18 -53l-129 -184q-24 -37 -60 -37z" />
    <glyph glyph-name="scommaaccent" unicode="&#x219;" horiz-adv-x="901" 
d="M459 -20l-17 14q-165 0 -258 96q-92 95 -92 184q0 33 23 56q22 22 55 22q29 0 53 -18q26 -20 29 -45q12 -68 61 -111t133 -43q77 0 129 43t52 109q0 58 -52 98q-57 44 -124 66q-66 22 -148 55q-71 29 -125 92q-51 60 -51 154q0 132 96 213q94 79 234 79q148 0 233 -88
q86 -89 86 -174q0 -32 -20 -55q-22 -25 -51 -25q-38 0 -56 21t-33 61q-14 45 -59 80q-44 35 -102 35q-66 0 -111 -39t-45 -98q0 -56 51 -92q55 -39 125 -62q87 -29 148 -57q72 -34 125 -105q51 -68 51 -172q0 -122 -99 -208q-100 -86 -241 -86zM305 -420q-28 0 -47 19
q-18 18 -18 47q0 18 12 39l110 194q30 47 74 47q33 0 53 -20q23 -23 23 -51q0 -30 -18 -54l-129 -184q-24 -37 -60 -37z" />
    <glyph glyph-name="dotlessj" unicode="&#x237;" horiz-adv-x="491" 
d="M-76 -358l4 2q-41 18 -41 65q0 30 23 53t49 23q11 0 29 -6q46 -19 78 -19q46 0 81 35q33 33 33 99v1073q0 32 23 55q22 22 55 22t55 -22q23 -23 23 -55v-1053q0 -141 -80 -221t-195 -80q-74 0 -137 29z" />
    <glyph glyph-name="circumflex" unicode="&#x2c6;" horiz-adv-x="516" 
d="M516 1194q0 -25 -18 -43t-43 -18q-21 0 -49 22l-148 131l-147 -131q-28 -22 -50 -22q-25 0 -43 18t-18 43t20 45l158 164q34 37 80 37q43 0 80 -37l156 -164q22 -19 22 -45z" />
    <glyph glyph-name="caron" unicode="&#x2c7;" horiz-adv-x="516" 
d="M516 1380q0 -26 -22 -45l-156 -164q-36 -36 -80 -36q-47 0 -80 36l-158 164q-20 20 -20 45t18 43q19 19 43 19q20 0 50 -23l147 -131l148 131q30 23 49 23q24 0 43 -19q18 -18 18 -43z" />
    <glyph glyph-name="breve" unicode="&#x2d8;" horiz-adv-x="536" 
d="M268 1272q94 0 121 92q18 61 78 61q70 0 70 -77q0 -67 -72 -136q-70 -67 -197 -67q-126 0 -196 67q-72 69 -72 136q0 77 70 77q59 0 77 -61q27 -92 121 -92z" />
    <glyph glyph-name="dotaccent" unicode="&#x2d9;" horiz-adv-x="212" 
d="M0 1284q0 45 31 76t75 31q45 0 76 -31t31 -76t-31 -76q-30 -30 -76 -30q-45 0 -75 30q-31 31 -31 76z" />
    <glyph glyph-name="ring" unicode="&#x2da;" horiz-adv-x="348" 
d="M109 1282q0 -29 18 -47t47 -18t47 18q19 19 19 47t-19 47t-47 19t-47 -19q-18 -18 -18 -47zM0 1280q0 72 51 123t123 51t123 -51t51 -123t-51 -123t-123 -51t-123 51t-51 123z" />
    <glyph glyph-name="ogonek" unicode="&#x2db;" horiz-adv-x="307" 
d="M180 0l121 2q-32 -21 -47 -33q-30 -23 -74 -73q-47 -53 -47 -86q0 -52 47 -52h49q74 0 74 -61q0 -29 -18 -47q-19 -19 -56 -19h-71q-74 0 -117 43t-43 103q0 67 45 121q48 57 92 77z" />
    <glyph glyph-name="tilde" unicode="&#x2dc;" horiz-adv-x="606" 
d="M174 1366v-4q56 0 133 -45t111 -45q40 0 55 41q15 49 66 49q28 0 47 -19q18 -18 18 -49q0 -60 -49 -106q-48 -45 -125 -45q-52 0 -131 43t-111 43q-40 0 -55 -41q-15 -49 -65 -49q-30 0 -48 18t-18 49q0 62 49 111t123 49z" />
    <glyph glyph-name="hungarumlaut" unicode="&#x2dd;" horiz-adv-x="595" 
d="M0 1192l-2 -2q0 26 18 47l136 149q27 27 61 27q29 0 47 -18q19 -19 19 -45q0 -31 -27 -58l-148 -137q-23 -20 -47 -20q-25 0 -41 16t-16 41zM315 1190l-2 -2q0 25 19 47l135 149q27 27 61 27q29 0 47 -18q19 -19 19 -45q0 -31 -27 -58l-147 -137q-23 -20 -47 -20
q-25 0 -41 16q-17 17 -17 41z" />
    <glyph glyph-name="afii10023" unicode="&#x401;" horiz-adv-x="962" 
d="M819 0l-571 -4q-33 0 -55 22q-23 23 -23 56v1274q0 32 23 55q22 22 55 22h559q33 0 55 -22q23 -23 23 -55t-23 -58q-21 -24 -55 -24h-467v-437h418q32 0 57 -22t25 -55q0 -34 -25 -56t-57 -22h-418v-514h483q34 0 56 -25t22 -57q0 -34 -24 -55q-26 -23 -58 -23zM270 1690
h-2q0 38 29 67t68 29t71 -29q31 -28 31 -67q0 -40 -31 -68q-32 -29 -69 -29q-39 0 -68 29t-29 68zM584 1690h-2q0 40 30 67q32 29 72 29q39 0 68 -29q28 -28 28 -67q0 -40 -28 -68q-29 -29 -68 -29q-38 0 -70 29q-30 27 -30 68z" />
    <glyph glyph-name="afii10051" unicode="&#x402;" horiz-adv-x="1116" 
d="M100 1434l609 2q32 0 55 -23q22 -22 22 -55t-22 -58q-21 -24 -55 -24h-248v-377q65 41 221 41q141 0 233 -92q93 -93 93 -246v-301q0 -146 -76 -225q-77 -80 -209 -80h-33q-37 0 -59 22q-23 23 -23 54q0 26 23 49q22 22 49 22h43q52 0 82 37q31 39 31 105v303
q0 89 -50 139q-49 49 -135 49q-61 0 -104 -14q-47 -15 -66 -31l-18 -14v-654q0 -34 -25 -59q-24 -24 -59 -24q-36 0 -60 24t-24 59v1209h-195q-34 0 -55 24q-22 25 -22 60q0 33 22 55q23 23 55 23z" />
    <glyph glyph-name="afii10052" unicode="&#x403;" horiz-adv-x="831" 
d="M164 63v1291q0 33 22 55q23 23 56 23h491q32 0 55 -23t23 -55t-23 -58q-21 -24 -55 -24h-397v-1209q0 -34 -25 -59q-24 -24 -59 -24t-62 24q-26 23 -26 59zM428 1606l-6 -2q0 23 22 51l150 166q30 30 65 30q34 0 54 -20q22 -22 22 -51q0 -34 -30 -64l-164 -151
q-28 -25 -49 -25q-27 0 -46 19q-18 18 -18 47z" />
    <glyph glyph-name="afii10053" unicode="&#x404;" horiz-adv-x="1034" 
d="M758 340l-8 -8q3 38 24 59q23 23 60 23q36 0 61 -25t25 -61q0 -144 -111 -252q-110 -107 -277 -107q-170 0 -282 109q-111 108 -111 270v719q0 158 113 268q114 111 283 111q142 0 245 -80q102 -79 129 -195q6 -24 6 -38q0 -38 -24 -62t-60 -24q-71 0 -86 73
q-15 71 -73 117q-59 47 -135 47q-98 0 -158 -63q-62 -65 -62 -168v-226h304q33 0 55 -22t22 -55q0 -34 -22 -56t-55 -22h-304v-299q0 -111 64 -172q65 -62 166 -62q88 0 147 56q58 55 64 145z" />
    <glyph glyph-name="afii10054" unicode="&#x405;" horiz-adv-x="1007" 
d="M496 -20l-17 2q-181 0 -291 104t-110 250q0 37 24 61q25 25 62 25q36 0 59 -23q22 -22 25 -59q6 -93 67 -145q63 -54 168 -54q104 0 166 62t62 159q0 79 -45 136q-47 59 -113 96q-136 75 -147 82q-96 56 -148 92q-65 45 -113 127q-45 77 -45 184q0 160 115 269
q114 108 277 108q142 0 245 -80q102 -79 129 -194q6 -24 6 -39q0 -38 -24 -62t-60 -24q-71 0 -86 73q-15 71 -73 117q-59 47 -135 47q-88 0 -150 -59q-61 -58 -61 -141q0 -84 63 -144q60 -57 156 -106q108 -55 184 -101q93 -56 156 -153t63 -234q0 -151 -110 -264
q-109 -112 -299 -112z" />
    <glyph glyph-name="afii10055" unicode="&#x406;" horiz-adv-x="499" 
d="M340 1370v-1307q0 -35 -27 -59t-61 -24q-35 0 -59 24q-25 25 -25 59v1307q0 35 25 60q24 24 59 24q34 0 61 -24t27 -60z" />
    <glyph glyph-name="afii10056" unicode="&#x407;" horiz-adv-x="503" 
d="M340 1370v-1307q0 -35 -27 -59t-61 -24q-35 0 -59 24q-25 25 -25 59v1307q0 35 25 60q24 24 59 24q34 0 61 -24t27 -60zM-4 1694h-2q0 38 29 67t67 29q40 0 72 -29q31 -28 31 -67q0 -40 -31 -68q-32 -29 -70 -29t-67 29t-29 68zM309 1694h-2q0 39 31 67q32 29 72 29
q38 0 67 -29t29 -67q0 -39 -29 -68t-67 -29t-70 29q-31 28 -31 68z" />
    <glyph glyph-name="afii10057" unicode="&#x408;" horiz-adv-x="927" 
d="M264 453l6 -156q0 -65 49 -111q50 -47 115 -47q69 0 119 47q49 46 49 111v1069q0 34 25 59t59 25t62 -25q26 -23 26 -59v-1059q0 -139 -98 -233q-102 -97 -242 -97t-239 99t-99 235v142q0 34 25 59t59 25q35 0 60 -25q24 -24 24 -59z" />
    <glyph glyph-name="afii10058" unicode="&#x409;" horiz-adv-x="1552" 
d="M88 -12l-2 -4q-38 0 -63 22t-25 55q0 67 80 82q49 9 86 52t43 127q8 127 26 514q15 322 27 510q3 35 27 59q25 25 59 25h438q35 0 60 -25q24 -24 24 -59v-515h248q139 0 234 -92q96 -93 96 -227v-197q0 -134 -94 -225q-95 -92 -234 -92h-334q-34 0 -59 25t-25 59v1188
h-276q-44 -878 -55 -996q-12 -132 -88 -208q-78 -78 -193 -78zM1274 313v203q0 64 -47 111q-45 45 -115 45h-240v-514h240q70 0 115 45q47 47 47 110z" />
    <glyph glyph-name="afii10059" unicode="&#x40a;" horiz-adv-x="1572" 
d="M1143 0l-334 -2q-34 0 -59 25t-25 59v592h-387v-613q0 -34 -25 -59t-59 -25t-59 25t-25 59v1307q0 34 25 59t59 25t59 -25t25 -59v-534h387v534q0 34 25 59t59 25t59 -25t25 -59v-534h248q137 0 233 -93t96 -227v-197q0 -134 -94 -225q-95 -92 -233 -92zM1296 315v203
q0 64 -47 111q-45 45 -114 45h-240v-514h240q69 0 114 45q47 47 47 110z" />
    <glyph glyph-name="afii10060" unicode="&#x40b;" horiz-adv-x="1116" 
d="M842 63l-11 525q0 90 -49 139t-135 49q-61 0 -104 -14q-47 -15 -66 -31l-18 -14v-654q0 -34 -25 -59q-24 -24 -59 -24q-36 0 -60 24t-24 59v1209h-195q-34 0 -55 24q-23 26 -23 60q0 32 23 55t55 23h615q32 0 55 -23q22 -22 22 -55t-22 -58q-21 -24 -55 -24h-248v-377
q65 41 221 41q142 0 234 -92t92 -246v-537q0 -34 -25 -59q-24 -24 -59 -24q-36 0 -60 24t-24 59z" />
    <glyph glyph-name="afii10061" unicode="&#x40c;" horiz-adv-x="1036" 
d="M401 676l-67 2v-612q0 -35 -25 -60q-24 -24 -59 -24q-36 0 -60 24t-24 60v1306q0 36 24 60t60 24q35 0 59 -24q25 -25 25 -60v-534h69l381 583q21 35 66 35q35 0 59 -24q25 -25 25 -58q0 -28 -21 -55l-378 -555l401 -641q22 -39 22 -62q0 -34 -26 -57q-27 -24 -64 -24
q-47 0 -73 45zM473 1608l-4 -2q0 21 23 51l149 166q30 30 66 30q33 0 53 -20q22 -22 22 -51q0 -34 -30 -64l-164 -151q-28 -25 -49 -25q-28 0 -47 19t-19 47z" />
    <glyph glyph-name="afii10062" unicode="&#x40e;" horiz-adv-x="970" 
d="M492 1669l-7 -4q96 0 123 102q18 62 76 62q35 0 53 -21q19 -22 19 -55q0 -70 -70 -137q-71 -68 -197 -68q-125 0 -196 68q-70 67 -70 139q0 33 19 55q20 23 53 23q61 0 76 -61q21 -103 121 -103zM901 1327l-520 -1288q-24 -62 -86 -62q-33 0 -55 25q-21 24 -21 57
q0 28 12 52l177 428l-324 790q-8 19 -8 37q0 35 24 59q25 25 60 25q59 0 80 -55l254 -668l258 668q21 55 79 55q34 0 56 -25t22 -61q0 -18 -8 -37z" />
    <glyph glyph-name="afii10145" unicode="&#x40f;" horiz-adv-x="1116" 
d="M473 0h-221q-31 0 -57 23q-25 22 -25 55v1290q0 34 25 59t59 25t59 -25t25 -59v-1212h444v1212q0 34 25 59t59 25q35 0 60 -25q24 -24 24 -59v-1290q0 -33 -22 -55q-23 -23 -56 -23h-231v-246q0 -32 -25 -57t-59 -25t-59 25t-25 57v246z" />
    <glyph glyph-name="afii10017" unicode="&#x410;" horiz-adv-x="1034" 
d="M737 616l-200 662h-39l-201 -662h440zM453 1446h129q65 0 80 -55l243 -760q6 -18 6 -37v-531q0 -35 -24 -59t-60 -24q-35 0 -59 24q-25 25 -25 59v400h-452v-400q0 -34 -25 -59q-24 -24 -59 -24q-36 0 -60 24t-24 59v531q0 19 6 37l244 760q15 55 80 55z" />
    <glyph glyph-name="afii10018" unicode="&#x411;" horiz-adv-x="985" 
d="M709 317v220q0 63 -47 110q-45 45 -115 45h-211v-530h211q70 0 115 45q47 47 47 110zM244 1432l491 -2q33 0 56 -23q22 -22 22 -55t-22 -58q-21 -24 -56 -24h-401v-418h219q138 0 233 -92q97 -94 97 -228v-213q0 -133 -95 -225t-233 -92h-311q-33 0 -56 23q-22 22 -22 55
v1274q0 33 22 55q23 23 56 23z" />
    <glyph glyph-name="afii10019" unicode="&#x412;" horiz-adv-x="1024" 
d="M532 1272l-194 -2v-441h207q77 0 123 43q45 42 45 119v119q0 69 -49 115q-50 47 -132 47zM338 674l-2 -516h186q95 0 146 51q53 53 53 131v147q0 72 -45 129q-46 58 -141 58h-197zM244 1430l278 4q162 0 258 -93q97 -94 97 -227v-113q0 -137 -117 -245q131 -107 131 -267
v-147q0 -153 -109 -248q-107 -94 -274 -94h-264q-33 0 -56 23q-22 22 -22 55v1274q0 33 22 55q23 23 56 23z" />
    <glyph glyph-name="afii10020" unicode="&#x413;" horiz-adv-x="823" 
d="M164 63v1291q0 33 22 55q23 23 56 23h491q32 0 55 -23t23 -55t-23 -58q-21 -24 -55 -24h-397v-1209q0 -34 -25 -59q-24 -24 -59 -24t-62 24q-26 23 -26 59z" />
    <glyph glyph-name="afii10021" unicode="&#x414;" horiz-adv-x="1085" 
d="M901 162h41q34 0 59 -25t25 -57v-328q0 -32 -25 -57t-59 -25t-59 25t-25 57v246h-635v-246q0 -33 -24 -57q-25 -25 -60 -25q-34 0 -59 25t-25 57v328q0 32 25 57t59 25q31 0 49 35q20 39 23 86l59 1067q3 35 27 59q25 25 59 25h463q38 0 60 -25t22 -59v-1188zM381 276
l-2 -2q0 -26 -6 -53q-5 -24 -13 -43l-6 -16h379v1110h-297z" />
    <glyph glyph-name="afii10022" unicode="&#x415;" horiz-adv-x="962" 
d="M819 0l-571 -4q-33 0 -55 22q-23 23 -23 56v1274q0 32 23 55q22 22 55 22h559q33 0 55 -22q23 -23 23 -55t-23 -58q-21 -24 -55 -24h-467v-437h418q32 0 57 -22t25 -55q0 -34 -25 -56t-57 -22h-418v-514h483q34 0 56 -25t22 -57q0 -34 -24 -55q-26 -23 -58 -23z" />
    <glyph glyph-name="afii10024" unicode="&#x416;" horiz-adv-x="1355" 
d="M811 676h-55v-613q0 -34 -25 -59q-24 -24 -57 -24q-34 0 -58 24t-24 59v613h-51l-297 -635q-27 -61 -86 -61q-36 0 -58 22q-20 20 -20 55q0 31 14 56l322 645l-305 579q-11 18 -11 37q0 35 21 56q22 22 55 22q53 0 80 -55l285 -563h51v534q0 35 24 59q25 25 60 25
q34 0 59 -25t25 -59v-534h51l285 563q27 55 80 55q33 0 55 -22q20 -20 20 -56q0 -20 -10 -37l-303 -577l319 -647q15 -27 15 -56q0 -34 -21 -55q-22 -22 -57 -22q-59 0 -86 61z" />
    <glyph glyph-name="afii10025" unicode="&#x417;" horiz-adv-x="1001" 
d="M432 836l80 6q83 0 127 59q43 58 43 127v57q0 96 -57 156q-59 62 -154 62q-67 0 -123 -50q-54 -48 -69 -118q-15 -74 -86 -74q-36 0 -60 24t-24 62q0 15 6 39q27 115 129 194q103 80 245 80q165 0 269 -110t104 -271v-57q0 -74 -33 -141q-37 -75 -81 -111
q129 -102 129 -252v-158q0 -158 -113 -268t-279 -110q-161 0 -270 106q-111 108 -111 252q0 36 25 61t61 25q37 0 60 -23q21 -21 24 -59q6 -88 64 -143q59 -56 149 -56q89 0 154 62q66 63 66 151v158q0 65 -50 115q-49 49 -116 49h-109q-33 0 -55 22q-23 23 -23 56
q0 32 23 55t55 23z" />
    <glyph glyph-name="afii10026" unicode="&#x418;" horiz-adv-x="1116" 
d="M803 1108l-451 -1059q-31 -72 -96 -72q-45 0 -70 31q-24 30 -24 78v1284q0 35 22 60q21 24 56 24q34 0 55 -24q22 -25 22 -60v-694l-10 -352l451 1058q31 72 96 72q45 0 70 -31q24 -30 24 -75v-1285q0 -34 -22 -59q-21 -24 -56 -24q-34 0 -55 24q-22 25 -22 59v687z" />
    <glyph glyph-name="afii10027" unicode="&#x419;" horiz-adv-x="1116" 
d="M555 1669l-6 -4q96 0 123 102q18 62 76 62q35 0 53 -21t18 -55q0 -71 -69 -137q-71 -68 -197 -68t-197 68q-69 66 -69 139q0 34 18 55q20 23 53 23q61 0 76 -61q21 -103 121 -103zM797 1104l-451 -1059q-31 -72 -96 -72q-45 0 -70 31q-24 30 -24 78v1284q0 34 22 59
t55 25q34 0 56 -25t22 -59v-694l-10 -353l451 1059q31 72 96 72q45 0 70 -31q24 -30 24 -76v-1284q0 -34 -22 -59t-56 -25q-33 0 -55 25q-23 26 -23 59v686z" />
    <glyph glyph-name="afii10028" unicode="&#x41a;" horiz-adv-x="1036" 
d="M401 676l-67 2v-612q0 -35 -25 -60q-24 -24 -59 -24q-36 0 -60 24t-24 60v1306q0 36 24 60t60 24q35 0 59 -24q25 -25 25 -60v-534h69l381 583q21 35 66 35q35 0 59 -24q25 -25 25 -58q0 -28 -21 -55l-378 -555l401 -641q22 -39 22 -62q0 -34 -26 -57q-27 -24 -64 -24
q-47 0 -73 45z" />
    <glyph glyph-name="afii10029" unicode="&#x41b;" horiz-adv-x="1058" 
d="M88 -12l-4 -2q-39 0 -64 22q-24 21 -24 55q0 67 80 82q49 9 86 52t43 127q8 127 26 514q15 322 27 510q3 35 27 59q25 25 59 25h463q37 0 59 -25q23 -26 23 -59v-1287q0 -34 -25 -59t-59 -25q-35 0 -60 25q-24 24 -24 59v1209h-297q-44 -878 -55 -996q-12 -132 -88 -208
q-78 -78 -193 -78z" />
    <glyph glyph-name="afii10030" unicode="&#x41c;" horiz-adv-x="1306" 
d="M553 672l-231 483q6 -255 6 -438v-654q0 -34 -25 -59q-24 -24 -59 -24q-36 0 -60 24t-24 59v1278q0 51 28 82t74 31q70 0 105 -72l284 -600l281 600q35 72 104 72q46 0 74 -31q29 -32 29 -82v-1278q0 -34 -25 -59q-24 -24 -59 -24q-36 0 -60 24t-24 59v652l6 442
l-227 -485q-35 -72 -99 -72q-63 0 -98 72z" />
    <glyph glyph-name="afii10031" unicode="&#x41d;" horiz-adv-x="1116" 
d="M952 1370v-1307q0 -35 -24 -59t-60 -24q-35 0 -59 24q-25 25 -25 59v613h-444v-613q0 -34 -25 -59q-24 -24 -59 -24t-59 24q-25 25 -25 59v1307q0 35 25 60q24 24 59 24t59 -24q25 -25 25 -60v-534h444v534q0 35 25 60q24 24 59 24q36 0 60 -24t24 -60z" />
    <glyph glyph-name="afii10032" unicode="&#x41e;" horiz-adv-x="1099" 
d="M956 1077v-721q0 -151 -110 -264q-109 -112 -293 -112q-186 0 -297 114t-111 264v719q0 150 111 264q110 113 297 113q183 0 293 -113t110 -264zM782 354l-2 727q0 86 -61 150q-60 63 -168 63q-110 0 -170 -63q-62 -65 -62 -150v-723q0 -88 62 -153q61 -64 170 -64
t170 64t61 149z" />
    <glyph glyph-name="afii10033" unicode="&#x41f;" horiz-adv-x="1116" 
d="M780 63l-8 1213h-444v-1213q0 -34 -25 -59q-24 -24 -59 -24q-36 0 -60 24t-24 59v1291q0 34 24 55q26 23 60 23h626q33 0 56 -23q22 -22 22 -55v-1291q0 -35 -24 -59t-60 -24q-35 0 -59 24q-25 25 -25 59z" />
    <glyph glyph-name="afii10034" unicode="&#x420;" horiz-adv-x="985" 
d="M336 498l-4 -437q0 -34 -25 -59t-59 -25q-35 0 -60 25q-24 24 -24 59v1291q0 33 22 55q23 23 56 23h311q137 0 233 -93q97 -94 97 -225v-295q0 -135 -95 -227t-233 -92h-219zM705 809v305q0 65 -46 111q-45 45 -116 45h-211v-617h211q71 0 116 45q46 46 46 111z" />
    <glyph glyph-name="afii10035" unicode="&#x421;" horiz-adv-x="1024" 
d="M758 340l-8 -4q3 38 24 59q23 23 60 23q36 0 61 -25t25 -61q0 -144 -111 -252q-110 -107 -277 -107q-170 0 -282 109q-111 108 -111 270v719q0 158 113 268q114 111 283 111q142 0 245 -80q102 -79 129 -194q6 -24 6 -39q0 -38 -24 -62t-60 -24q-71 0 -86 73
q-15 71 -73 117q-59 47 -135 47q-98 0 -158 -63q-62 -65 -62 -168v-684q0 -111 64 -172q65 -62 166 -62q88 0 147 56q58 55 64 145z" />
    <glyph glyph-name="afii10036" unicode="&#x422;" horiz-adv-x="841" 
d="M100 1434l637 -2q33 0 56 -23q22 -22 22 -55t-22 -58q-21 -24 -56 -24h-235v-1209q0 -34 -25 -59q-24 -24 -59 -24q-36 0 -60 24t-24 59v1209h-234q-34 0 -55 24q-22 25 -22 60q0 33 22 55q23 23 55 23z" />
    <glyph glyph-name="afii10037" unicode="&#x423;" horiz-adv-x="970" 
d="M907 1331l-520 -1288q-24 -61 -86 -61q-34 0 -55 24t-21 57q0 26 13 52l176 428l-324 790q-8 19 -8 37q0 36 24 60t60 24q59 0 80 -55l254 -668l258 668q21 55 80 55q34 0 55 -24q22 -25 22 -62q0 -18 -8 -37z" />
    <glyph glyph-name="afii10038" unicode="&#x424;" horiz-adv-x="1351" 
d="M590 274l4 908q-126 0 -211 -70q-86 -71 -86 -215v-336q0 -143 84 -215t209 -72zM766 1182l4 -908q125 0 209 72t84 215v336q0 144 -86 215q-85 70 -211 70zM598 1335v74q0 34 25 59t59 25t59 -25t25 -59v-74q210 -9 332 -125q123 -117 123 -299v-366q0 -180 -123 -297
q-122 -116 -332 -125v-74q0 -34 -25 -59t-59 -25t-59 25t-25 59v74q-210 9 -332 125q-123 117 -123 299v364q0 182 123 299q122 116 332 125z" />
    <glyph glyph-name="afii10039" unicode="&#x425;" horiz-adv-x="1034" 
d="M745 41l-243 524l-248 -524q-27 -61 -86 -61q-33 0 -57 24q-25 25 -25 57q0 28 12 52l310 632l-285 586q-8 19 -8 37q0 35 24 59q25 25 60 25q53 0 80 -55l221 -484l221 484q27 55 80 55q34 0 59 -25t25 -59q0 -18 -8 -37l-285 -586l309 -632q12 -24 12 -52
q0 -33 -24 -57t-58 -24q-59 0 -86 61z" />
    <glyph glyph-name="afii10040" unicode="&#x426;" horiz-adv-x="1122" 
d="M164 80l8 1292q0 35 25 60q24 24 59 24t59 -24q25 -25 25 -60v-1214h410v1214q0 36 24 60t60 24q35 0 59 -24q25 -25 25 -60v-1212h36q36 0 60 -21t24 -55v-328q0 -33 -24 -57q-25 -25 -60 -25q-34 0 -59 25t-25 57v246h-628q-33 0 -56 23q-22 22 -22 55z" />
    <glyph glyph-name="afii10041" unicode="&#x427;" horiz-adv-x="1024" 
d="M688 63l4 469q-101 -40 -258 -40q-141 0 -233 92t-92 245v537q0 35 24 59q25 25 60 25q34 0 59 -25q24 -24 24 -59v-522q0 -87 50 -137t135 -50q59 0 114 15q58 16 84 30l29 15v653q0 35 25 60q24 24 59 24t59 -24q25 -25 25 -60v-1307q0 -34 -25 -59q-24 -24 -59 -24
t-59 24q-25 25 -25 59z" />
    <glyph glyph-name="afii10042" unicode="&#x428;" horiz-adv-x="1423" 
d="M1174 0h-916q-34 0 -59 25t-25 59v1286q0 35 25 60q24 24 59 24t59 -24q25 -25 25 -60v-1212h285v1212q0 36 24 60t60 24q35 0 59 -24q25 -25 25 -60v-1212h295v1212q0 36 24 60t60 24q35 0 59 -24t24 -60v-1286q0 -35 -24 -59q-25 -25 -59 -25z" />
    <glyph glyph-name="afii10043" unicode="&#x429;" horiz-adv-x="1464" 
d="M1214 0h-954q-34 0 -59 25t-25 59v1286q0 35 25 60q24 24 59 24t59 -24q25 -25 25 -60v-1212h285v1212q0 36 24 60t60 24q35 0 59 -24q25 -25 25 -60v-1212h295v1212q0 36 24 60t60 24q35 0 59 -24q25 -25 25 -60v-1212h36q36 0 60 -21t24 -55v-328q0 -33 -24 -57
q-25 -25 -60 -25q-32 0 -57 25t-25 57v246z" />
    <glyph glyph-name="afii10044" unicode="&#x42a;" horiz-adv-x="1120" 
d="M844 317v203q0 64 -47 111q-45 45 -115 45h-270v-514h270q70 0 115 45q47 47 47 110zM240 78l-2 1190h-150q-34 0 -55 24q-23 26 -23 60q0 32 23 55t55 23h242q32 0 55 -23t23 -55v-518h278q138 0 234 -93t96 -227v-197q0 -134 -94 -225q-95 -92 -234 -92h-371
q-32 0 -55 23q-22 22 -22 55z" />
    <glyph glyph-name="afii10045" unicode="&#x42b;" horiz-adv-x="1402" 
d="M578 0l-328 -2q-35 0 -60 25q-24 24 -24 59v1286q0 35 24 59q25 25 60 25q34 0 59 -25t25 -59v-534h241q138 0 234 -93t96 -227v-197q0 -134 -94 -225q-95 -92 -233 -92zM731 315v203q0 64 -47 111q-45 45 -115 45h-233v-514h233q70 0 115 45q47 47 47 110zM1241 1366
v-1307q0 -35 -27 -59q-28 -25 -61 -25q-34 0 -59 25t-25 59v1307q0 34 25 59t59 25q33 0 61 -25q27 -24 27 -59z" />
    <glyph glyph-name="afii10046" unicode="&#x42c;" horiz-adv-x="1044" 
d="M614 0l-364 -2q-35 0 -60 25q-24 24 -24 59v1286q0 35 24 59q25 25 60 25q34 0 59 -25t25 -59v-534h278q138 0 234 -93t96 -227v-197q0 -134 -94 -225q-95 -92 -234 -92zM768 315v203q0 64 -47 111q-45 45 -115 45h-270v-514h270q70 0 115 45q47 47 47 110z" />
    <glyph glyph-name="afii10047" unicode="&#x42d;" horiz-adv-x="1034" 
d="M279 340l-9 2q6 -88 64 -143q59 -56 147 -56q101 0 166 62q64 61 64 172v299h-303q-34 0 -56 22t-22 56q0 33 22 55t56 22h303v226q0 103 -62 168q-60 63 -157 63q-77 0 -136 -47q-58 -46 -73 -117q-15 -73 -86 -73q-36 0 -60 24t-24 62q0 15 6 39q27 115 129 194
q103 80 246 80q168 0 282 -111q113 -110 113 -266v-719q0 -162 -111 -270q-110 -107 -282 -107q-167 0 -277 107t-110 252q0 37 24 61q25 25 62 25q36 0 59 -23q22 -22 25 -59z" />
    <glyph glyph-name="afii10048" unicode="&#x42e;" horiz-adv-x="1443" 
d="M334 676l-2 -613q0 -34 -25 -59q-24 -24 -59 -24q-36 0 -60 24t-24 59v1307q0 36 24 60t60 24q35 0 59 -24q25 -25 25 -60v-534h194v241q0 150 105 264q104 113 282 113q177 0 281 -113t104 -264v-721q0 -151 -104 -264q-103 -112 -279 -112q-177 0 -282 114t-105 264
v318h-194zM1133 354l-5 727q0 85 -59 150q-57 63 -160 63q-102 0 -159 -63q-60 -66 -60 -150v-723q0 -87 60 -153q58 -64 163 -64q102 0 160 64q60 66 60 149z" />
    <glyph glyph-name="afii10049" unicode="&#x42f;" horiz-adv-x="1015" 
d="M307 1116l-4 -282q0 -69 45 -111q46 -43 117 -43h213v592h-213q-66 0 -111 -45q-47 -47 -47 -111zM121 104l188 445q-87 40 -137 117q-49 76 -49 176v272q0 132 96 225t234 93h311q32 0 55 -23t23 -55v-1291q0 -34 -25 -59q-24 -24 -59 -24q-36 0 -60 24t-24 59v459h-191
l-202 -487q-24 -55 -84 -55q-36 0 -60 24t-24 62q0 22 8 38z" />
    <glyph glyph-name="afii10065" unicode="&#x430;" horiz-adv-x="958" 
d="M436 127l-6 2q97 0 164 64q68 65 68 135v170q-138 0 -234 -13q-92 -12 -135 -67t-43 -117q0 -76 49 -125t137 -49zM307 782l4 -4q-17 -51 -80 -51q-33 0 -53 23q-18 21 -18 55q0 70 92 156t231 86q163 0 252 -95q90 -96 90 -239v-654q0 -34 -24 -55q-25 -22 -58 -22
t-55 22q-21 21 -24 55l-2 45q-3 -4 -27 -32q-18 -21 -86 -56q-63 -32 -152 -32q-129 0 -221 86t-92 229q0 112 76 203q77 92 221 116q46 10 111 13q94 4 118 4l49 2v72q0 83 -49 135q-50 53 -133 53q-123 0 -170 -115z" />
    <glyph glyph-name="afii10066" unicode="&#x431;" horiz-adv-x="995" 
d="M303 909l-2 6q15 15 27 25q20 17 80 43q66 29 133 29q139 0 233 -101q96 -104 96 -252v-327q0 -155 -100 -252q-101 -98 -264 -98t-264 98t-101 252v534q0 258 127 394q125 134 305 161q41 6 93 21q49 14 73 14q29 0 47 -18q19 -19 19 -52q0 -47 -47 -71
q-27 -15 -135 -33q-320 -59 -320 -373zM506 131q89 0 147 55t58 152v324q0 89 -58 147q-59 59 -147 59q-90 0 -148 -61q-57 -60 -57 -160v-311q0 -96 57 -150q58 -55 148 -55z" />
    <glyph glyph-name="afii10067" unicode="&#x432;" horiz-adv-x="972" 
d="M526 879l-223 -2v-275h215q79 0 125 37q45 36 45 109q0 57 -43 94t-119 37zM303 457v-314h209q195 0 195 156q0 158 -189 158h-215zM223 1022h297q164 0 246 -70q84 -72 84 -202q0 -42 -12 -80q-12 -36 -31 -62q-16 -22 -37 -39q-9 -7 -31 -24l-14 -6q10 -5 16 -9
q27 -18 35 -24q25 -18 43 -43q21 -29 35 -68q16 -46 16 -94q0 -299 -387 -299h-260q-32 0 -55 23t-23 55v864q0 32 23 55t55 23z" />
    <glyph glyph-name="afii10068" unicode="&#x433;" horiz-adv-x="745" 
d="M223 1024l422 -2q32 0 53 -21q23 -23 23 -51q0 -30 -21 -51q-20 -20 -51 -20h-348v-818q0 -33 -22 -55t-56 -22q-33 0 -55 22q-23 23 -23 55v885q0 32 23 55t55 23z" />
    <glyph glyph-name="afii10069" unicode="&#x434;" horiz-adv-x="1054" 
d="M412 877q-27 -597 -80 -730h383v730h-303zM260 946h-4q0 32 23 55t55 23h454q33 0 56 -23q22 -22 22 -55v-799h37q33 0 55 -22q23 -23 23 -53v-224q0 -33 -20 -53q-22 -22 -56 -22q-33 0 -55 22q-21 21 -21 53v152h-618v-152q0 -32 -21 -53q-22 -22 -55 -22t-55 22
q-21 21 -21 53v224q0 30 23 53q22 22 55 22q45 0 66 86q54 200 57 713z" />
    <glyph glyph-name="afii10070" unicode="&#x435;" horiz-adv-x="962" 
d="M281 608h397v84q0 90 -55 148q-56 59 -144 59q-87 0 -143 -59q-55 -58 -55 -148v-84zM735 461l-459 -2v-133q0 -89 56 -148q54 -57 145 -57q155 0 199 147q18 64 74 64q32 0 55 -23q22 -22 22 -55t-18 -76q-19 -45 -55 -90q-39 -48 -109 -78q-71 -30 -162 -30
q-166 0 -264 98t-98 250v364q0 151 98 252q97 100 262 100q159 0 256 -100q99 -102 99 -252v-137q0 -39 -29 -68q-26 -26 -72 -26z" />
    <glyph glyph-name="afii10072" unicode="&#x436;" horiz-adv-x="1175" 
d="M705 467l-46 -2v-408q0 -33 -22 -55t-55 -22q-34 0 -56 22t-22 55v408h-37l-258 -449q-20 -39 -70 -39q-28 0 -51 23q-20 20 -20 55q0 29 20 62l258 424l-244 374q-18 34 -18 58q0 33 22 55q21 21 56 21q44 0 67 -39l238 -392h41v351q0 33 22 55q23 23 56 23q32 0 55 -23
t23 -55v-351h41l237 392q23 39 68 39q34 0 55 -21q22 -22 22 -55q0 -23 -18 -58l-244 -374l258 -424q21 -35 21 -62q0 -34 -21 -55q-20 -20 -51 -20q-49 0 -69 38z" />
    <glyph glyph-name="afii10073" unicode="&#x437;" horiz-adv-x="903" 
d="M489 457l-65 -4q-27 0 -49 22q-23 23 -23 53q0 31 23 54q22 22 53 22h39q151 0 151 144q0 64 -47 108q-46 43 -122 43q-140 0 -189 -113q-27 -59 -76 -59q-37 0 -57 23q-18 21 -18 49q0 70 90 157q89 86 252 86q146 0 241 -86q94 -85 94 -200q0 -149 -110 -213
q123 -79 123 -242q0 -135 -101 -229q-103 -95 -264 -95q-164 0 -258 99q-94 98 -94 196q0 34 22 56t56 22q65 0 80 -63q15 -71 67 -117q51 -45 129 -45q89 0 144 49t55 133q0 150 -146 150z" />
    <glyph glyph-name="afii10074" unicode="&#x438;" horiz-adv-x="1013" 
d="M870 965v-906q0 -33 -22 -55t-55 -22q-34 0 -56 22t-22 55v439l6 266l-389 -705q-16 -30 -25 -41q-8 -11 -31 -24q-21 -12 -53 -12q-35 0 -57 22q-21 21 -21 55v906q0 32 23 55q22 22 55 22q34 0 56 -22t22 -55v-441l-6 -266l389 707q16 30 25 41q9 12 30 24t54 12
q35 0 57 -22q20 -20 20 -55z" />
    <glyph glyph-name="afii10075" unicode="&#x439;" horiz-adv-x="1013" 
d="M506 1262l-6 -5q96 0 123 103q18 61 75 61q37 0 54 -20q18 -21 18 -55q0 -71 -70 -138t-196 -67q-127 0 -197 67q-69 66 -69 140q0 34 18 55q19 22 53 22q61 0 76 -61q21 -102 121 -102zM864 961v-906q0 -33 -22 -55q-23 -23 -56 -23q-32 0 -55 23q-22 22 -22 55v439
l6 266l-389 -705q-16 -30 -25 -41q-8 -11 -31 -24t-53 -13q-34 0 -57 23q-21 21 -21 55v906q0 32 23 55q22 22 55 22t55 -22q23 -23 23 -55v-441l-6 -266l389 707q17 31 24 40q10 13 31 25t53 12q36 0 58 -22q20 -20 20 -55z" />
    <glyph glyph-name="afii10076" unicode="&#x43a;" horiz-adv-x="868" 
d="M358 467l-57 4v-408q0 -33 -25 -55t-57 -22q-33 0 -55 22q-23 23 -23 55v908q0 32 23 55t55 23t57 -25t25 -57v-353h66l305 392q28 38 71 38q68 0 68 -69q0 -30 -33 -66l-291 -364l318 -430q22 -31 22 -58q0 -33 -22 -55t-53 -22q-42 0 -70 38z" />
    <glyph glyph-name="afii10077" unicode="&#x43b;" horiz-adv-x="1015" 
d="M96 117l-6 -2q102 15 117 133q32 234 51 694q3 33 25 55q23 23 55 23h450q33 0 56 -23q22 -22 22 -55v-887q0 -33 -22 -55q-23 -23 -56 -23q-32 0 -55 23q-22 22 -22 55v817h-310q-23 -491 -53 -682q-15 -95 -80 -151q-64 -55 -166 -55q-33 0 -51 18t-18 47q0 53 63 68z
" />
    <glyph glyph-name="afii10078" unicode="&#x43c;" horiz-adv-x="1128" 
d="M477 459l-188 329q6 -170 6 -350v-379q0 -34 -21 -55q-22 -22 -55 -22t-55 22q-21 21 -21 55v906q0 33 25 55t61 22q47 0 68 -18q22 -19 43 -59l225 -406l226 406q19 35 24 41q8 11 31 24q21 12 53 12q37 0 62 -22q24 -21 24 -55v-906q0 -35 -20 -55q-22 -22 -56 -22
q-33 0 -55 22q-20 20 -20 55v379q0 353 8 353l-193 -332q-35 -53 -86 -53t-86 53z" />
    <glyph glyph-name="afii10079" unicode="&#x43d;" horiz-adv-x="1013" 
d="M870 965v-906q0 -34 -24 -55q-25 -22 -58 -22q-32 0 -57 22q-24 21 -24 55v408h-408v-408q0 -32 -23 -55q-22 -22 -55 -22t-55 22q-23 23 -23 55v906q0 32 23 55q22 22 55 22t55 -22q23 -23 23 -55v-351h408v351q0 34 24 55q25 22 57 22q33 0 58 -22q24 -21 24 -55z" />
    <glyph glyph-name="afii10080" unicode="&#x43e;" horiz-adv-x="974" 
d="M487 1044q164 0 265 -98q100 -97 100 -252v-364q0 -155 -100 -252q-101 -98 -265 -98q-163 0 -264 98q-100 97 -100 252v364q0 155 100 252q101 98 264 98zM487 125v-4q90 0 148 55q57 54 57 152v360q0 91 -57 148q-59 59 -148 59q-90 0 -147 -57t-57 -148v-360
q0 -96 57 -150q58 -55 147 -55z" />
    <glyph glyph-name="afii10081" unicode="&#x43f;" horiz-adv-x="1013" 
d="M223 1024h568q31 0 57 -23q24 -21 24 -55v-885q0 -34 -24 -55q-25 -22 -57 -22q-33 0 -58 22q-24 21 -24 55v818h-408v-818q0 -33 -22 -55t-56 -22q-33 0 -55 22q-23 23 -23 55v885q0 32 23 55t55 23z" />
    <glyph glyph-name="afii10082" unicode="&#x440;" horiz-adv-x="993" 
d="M711 340l-2 340q0 95 -56 154t-145 59q-95 0 -150 -64t-55 -147v-344q0 -85 57 -148t150 -63q82 0 141 59q60 60 60 154zM293 961l2 -25q3 3 6.5 7t8.5 11t9 11q14 17 78 45t135 28q144 0 238 -94q96 -96 96 -233v-402q0 -139 -98 -233t-242 -94q-62 0 -123 22
q-54 19 -81 43l-25 23v-381q0 -33 -23 -56q-22 -22 -55 -22t-55 22q-23 23 -23 56v1274q0 32 23 55q22 22 55 22q65 0 74 -79z" />
    <glyph glyph-name="afii10083" unicode="&#x441;" horiz-adv-x="950" 
d="M840 272l-6 -8q0 -96 -95 -196q-95 -99 -258 -99q-162 0 -264 99q-100 97 -100 251v365q0 153 102 252q101 98 270 98q154 0 246 -92t92 -190q0 -34 -22 -56t-55 -22q-31 0 -52 18t-24 47q-12 68 -64 111t-125 43q-90 0 -147 -57t-57 -148v-360q0 -96 57 -150
q58 -55 147 -55q76 0 129 47t68 117q15 63 80 63q33 0 55 -22q23 -23 23 -56z" />
    <glyph glyph-name="afii10084" unicode="&#x442;" horiz-adv-x="772" 
d="M94 1024l580 -8q32 0 53 -21q23 -23 23 -51q0 -30 -21 -51t-51 -21h-213v-817q0 -33 -25 -55q-26 -23 -57 -23t-57 23q-25 22 -25 55v817h-211q-28 0 -51 23q-21 21 -21 53q0 30 23 53t53 23z" />
    <glyph glyph-name="afii10085" unicode="&#x443;" horiz-adv-x="964" 
d="M229 -369l-65 -4q-28 0 -51 23q-21 21 -21 53q0 30 23 53t53 23h49q90 0 127 100l57 154l-333 889q-9 24 -9 43q0 32 25 57t57 25q60 0 82 -54l269 -749l266 749q22 54 80 54q33 0 55 -25t22 -57q0 -10 -10 -43l-409 -1090q-29 -79 -97 -141q-66 -60 -170 -60z" />
    <glyph glyph-name="afii10086" unicode="&#x444;" horiz-adv-x="1202" 
d="M283 348v-4q0 -89 65 -145t172 -56v734q-107 0 -172 -56t-65 -143v-330zM920 674l-2 2q0 88 -64 143t-172 58v-734q107 0 172 56q66 57 66 145v330zM680 1372l-2 -352q178 -3 289 -105q110 -101 110 -253v-310q0 -157 -108 -256q-106 -97 -289 -100v-309q0 -34 -25 -56
t-57 -22t-57 22t-25 56v309q-182 0 -291 100q-110 101 -110 258v310q0 157 110 258q109 100 291 100v350q0 33 25 55q26 23 57 23t57 -23q25 -22 25 -55z" />
    <glyph glyph-name="afii10087" unicode="&#x445;" horiz-adv-x="802" 
d="M61 117l246 407l-235 385q-19 36 -19 58q0 32 23 55q22 22 55 22q45 0 68 -38l202 -338l203 338q20 38 68 38q33 0 55 -22q23 -23 23 -55q0 -22 -19 -58l-237 -385l247 -407q21 -34 21 -62q0 -32 -23 -55t-53 -23q-50 0 -70 39l-215 361l-215 -361q-23 -39 -69 -39
q-31 0 -54 23q-22 22 -22 55q0 29 20 62z" />
    <glyph glyph-name="afii10088" unicode="&#x446;" horiz-adv-x="1052" 
d="M831 0l-612 2q-32 0 -55 23t-23 55v885q0 32 23 55q22 22 55 22t55 -22q23 -23 23 -55v-818h408v818q0 34 24 55q25 22 57 22q33 0 58 -22q24 -21 24 -55v-818h37q34 0 56 -22t22 -53v-224q0 -33 -20 -53q-22 -22 -56 -22q-33 0 -55 22q-21 21 -21 53v152z" />
    <glyph glyph-name="afii10089" unicode="&#x447;" horiz-adv-x="983" 
d="M272 965l-8 -369q0 -72 41 -119q39 -45 117 -45q68 0 129 21q60 20 92 43l29 22v447q0 33 22 55t56 22q33 0 55 -22t22 -55v-906q0 -33 -22 -55t-55 -22q-34 0 -56 22t-22 55v301q-113 -73 -258 -73q-138 0 -221 86q-84 87 -84 231v361q0 34 24 55q25 22 57 22
q33 0 58 -22q24 -21 24 -55z" />
    <glyph glyph-name="afii10090" unicode="&#x448;" horiz-adv-x="1294" 
d="M1071 0h-848q-32 0 -55 23t-23 55v885q0 32 23 55q22 22 55 22q34 0 56 -22t22 -55v-818h264v818q0 33 25 55t57 22q33 0 58 -22q24 -21 24 -55v-818h264v818q0 32 23 55q22 22 55 22t55 -22q23 -23 23 -55v-885q0 -32 -23 -55t-55 -23z" />
    <glyph glyph-name="afii10091" unicode="&#x449;" horiz-adv-x="1333" 
d="M1112 0l-889 2q-32 0 -55 23t-23 55v885q0 32 23 55q22 22 55 22q34 0 56 -22t22 -55v-818h264v818q0 33 25 55t57 22q33 0 58 -22q24 -21 24 -55v-818h264v818q0 32 23 55q22 22 55 22t55 -22q23 -23 23 -55v-818h37q33 0 55 -22q23 -23 23 -53v-224q0 -32 -21 -53
q-22 -22 -55 -22t-55 22q-21 21 -21 53v152z" />
    <glyph glyph-name="afii10092" unicode="&#x44a;" horiz-adv-x="1017" 
d="M776 307l-2 -4q0 64 -43 113t-125 49h-203v-320h203q83 0 127 50q43 49 43 112zM242 76l-2 811h-156q-30 0 -51 18t-21 49q0 29 23 52q20 20 53 20h242q73 0 73 -74v-336h209q152 0 238 -92t86 -217t-86 -217t-238 -92h-288q-33 0 -58 22q-24 21 -24 56z" />
    <glyph glyph-name="afii10093" unicode="&#x44b;" horiz-adv-x="1259" 
d="M668 307l-2 -4q0 64 -43 113t-125 49h-195v-320h195q83 0 127 50q43 49 43 112zM301 961l2 -345h201q151 0 237 -92t86 -217t-86 -217t-237 -92h-281q-33 0 -55 22q-23 23 -23 56v885q0 32 23 55q22 22 55 22q34 0 56 -22t22 -55zM1116 967v-906q0 -34 -24 -55
q-25 -22 -58 -22q-32 0 -57 22t-25 55v906q0 33 25 55t57 22q33 0 58 -22q24 -21 24 -55z" />
    <glyph glyph-name="afii10094" unicode="&#x44c;" horiz-adv-x="917" 
d="M676 307l-2 -4q0 64 -43 113t-125 49h-203v-320h203q83 0 127 50q43 49 43 112zM301 961l2 -345h209q152 0 238 -92t86 -217t-86 -217t-238 -92h-289q-33 0 -55 22q-23 23 -23 56v885q0 32 23 55q22 22 55 22q34 0 56 -22t22 -55z" />
    <glyph glyph-name="afii10095" unicode="&#x44d;" horiz-adv-x="950" 
d="M113 258h-9q0 32 23 55t55 23q65 0 80 -64q14 -62 68 -106q52 -43 129 -43q89 0 147 55t58 152v125h-283q-29 0 -51 22q-21 21 -21 53q0 31 23 54q22 22 53 22h283v88q0 90 -58 148q-59 59 -147 59q-135 0 -178 -119q-21 -65 -78 -65q-33 0 -55 22q-23 23 -23 56
q0 69 90 159t238 90q169 0 270 -98q102 -99 102 -252v-364q0 -155 -100 -252q-101 -98 -264 -98q-164 0 -258 94t-94 184z" />
    <glyph glyph-name="afii10096" unicode="&#x44e;" horiz-adv-x="1308" 
d="M303 965v-353h170v82q0 154 98 252t258 98t258 -98q99 -99 99 -252v-364q0 -153 -99 -252q-98 -98 -258 -98t-258 98t-98 252v135h-170v-406q0 -33 -22 -55t-56 -22q-33 0 -55 22q-23 23 -23 55v906q0 32 23 55q22 22 55 22q34 0 56 -22t22 -55zM829 125l-4 -4
q91 0 146 55t55 152v360q0 90 -55 148q-56 59 -144 59q-89 0 -143 -57q-55 -58 -55 -148v-360q0 -95 55 -150t145 -55z" />
    <glyph glyph-name="afii10097" unicode="&#x44f;" horiz-adv-x="946" 
d="M473 369l-213 -355q-23 -39 -72 -39q-30 0 -53 23q-22 22 -22 55q0 29 20 62l170 270q-93 27 -160 109q-65 80 -65 200q0 140 98 234t244 94h303q32 0 55 -23t23 -55v-885q0 -32 -23 -55q-22 -22 -55 -22t-55 22q-23 23 -23 55v310h-172zM238 692l2 -2q0 -79 49 -131
q48 -51 147 -51h207v371h-207q-93 0 -147 -54q-51 -51 -51 -133z" />
    <glyph glyph-name="afii10071" unicode="&#x451;" horiz-adv-x="962" 
d="M281 608h397v84q0 90 -55 148q-56 59 -144 59q-87 0 -143 -59q-55 -58 -55 -148v-84zM735 461l-459 -2v-133q0 -89 56 -148q54 -57 145 -57q155 0 199 147q18 64 74 64q32 0 55 -23q22 -22 22 -55t-18 -76q-19 -45 -55 -90q-39 -48 -109 -78q-71 -30 -162 -30
q-166 0 -264 98t-98 250v364q0 151 98 252q97 100 262 100q159 0 256 -100q99 -102 99 -252v-137q0 -39 -29 -68q-26 -26 -72 -26zM229 1282h-2q0 39 29 68q28 28 68 28t71 -28t31 -68t-31 -68t-69 -28q-40 0 -68 28q-29 29 -29 68zM543 1282h-2q0 41 30 68q31 28 72 28
q40 0 68 -28t28 -68t-28 -68t-68 -28q-39 0 -70 28q-30 27 -30 68z" />
    <glyph glyph-name="afii10099" unicode="&#x452;" horiz-adv-x="1003" 
d="M711 -90l-13 776q0 80 -55 141q-56 62 -137 62q-84 0 -150 -60q-63 -57 -63 -145v-618q0 -33 -23 -56q-22 -22 -55 -22t-55 22q-23 23 -23 56v1093h-45q-33 0 -55 19q-21 18 -21 49q0 29 23 49q21 18 55 18h45v82q0 33 23 56q22 22 55 22t55 -22q23 -23 23 -56v-82h176
q34 0 55 -18q23 -20 23 -49q0 -31 -21 -49q-22 -19 -55 -19h-176v-225q9 9 27 24q21 18 79 43q66 29 132 29q134 0 235 -96q98 -94 98 -238v-762q0 -141 -80 -221t-194 -80h-25q-26 0 -49 23q-20 20 -20 49q0 27 22 49q23 23 49 23h25q45 0 80 35t35 98z" />
    <glyph glyph-name="afii10100" unicode="&#x453;" horiz-adv-x="733" 
d="M223 1024l422 -2q32 0 53 -21q23 -23 23 -51q0 -30 -21 -51q-20 -20 -51 -20h-348v-818q0 -33 -22 -55t-56 -22q-33 0 -55 22q-23 23 -23 55v885q0 32 23 55t55 23zM324 1194l-7 -2q0 21 23 51l149 166q31 31 66 31q32 0 53 -21q23 -23 23 -51q0 -32 -31 -63l-164 -152
q-28 -25 -49 -25q-26 0 -45 19q-18 18 -18 47z" />
    <glyph glyph-name="afii10101" unicode="&#x454;" horiz-adv-x="950" 
d="M838 258l-9 -16q0 -91 -94 -185t-258 -94q-163 0 -264 98q-100 97 -100 252v365q0 153 102 252q101 98 270 98q150 0 238 -88q90 -90 90 -160q0 -33 -22 -55q-23 -23 -56 -23q-57 0 -78 66q-43 119 -178 119q-89 0 -147 -58t-58 -147v-88h283q32 0 53 -21q23 -23 23 -51
q0 -30 -21 -51q-20 -20 -51 -20h-282v-125q0 -96 57 -150q58 -55 147 -55q77 0 129 43q53 44 68 108t80 64q32 0 55 -23t23 -55z" />
    <glyph glyph-name="afii10102" unicode="&#x455;" horiz-adv-x="901" 
d="M459 -20l-17 14q-165 0 -258 96q-92 95 -92 184q0 33 23 56q22 22 55 22q29 0 53 -18q26 -20 29 -45q12 -68 61 -111t133 -43q77 0 129 43t52 109q0 58 -52 98q-57 44 -124 66q-66 22 -148 55q-71 29 -125 92q-51 60 -51 154q0 132 96 213q94 79 234 79q148 0 233 -88
q86 -89 86 -174q0 -32 -20 -55q-22 -25 -51 -25q-38 0 -56 21t-33 61q-14 45 -59 80q-44 35 -102 35q-66 0 -111 -39t-45 -98q0 -56 51 -92q55 -39 125 -62q87 -29 148 -57q72 -34 125 -105q51 -68 51 -172q0 -122 -99 -208q-100 -86 -241 -86z" />
    <glyph glyph-name="afii10103" unicode="&#x456;" horiz-adv-x="471" 
d="M129 1284q0 45 31 76t76 31q44 0 75 -31t31 -76t-31 -76q-30 -30 -75 -30q-46 0 -76 30q-31 31 -31 76zM315 965v-906q0 -33 -22 -55t-55 -22q-34 0 -56 22t-22 55v906q0 33 22 55t56 22q33 0 55 -22t22 -55z" />
    <glyph glyph-name="afii10104" unicode="&#x457;" horiz-adv-x="471" 
d="M315 965v-906q0 -33 -22 -55t-55 -22q-34 0 -56 22t-22 55v906q0 33 22 55t56 22q33 0 55 -22t22 -55zM-20 1284h-3q0 39 29 68q28 28 68 28t71 -28t31 -68q0 -39 -31 -67q-32 -29 -69 -29q-39 0 -68 29q-28 28 -28 67zM293 1284h-2q0 40 31 68t71 28t68 -28t28 -68
q0 -39 -28 -67q-29 -29 -68 -29q-37 0 -69 29q-31 28 -31 67z" />
    <glyph glyph-name="afii10105" unicode="&#x458;" horiz-adv-x="491" 
d="M152 1284q0 46 30 76q31 31 76 31t76 -31t31 -76t-31 -76q-30 -30 -76 -30t-76 30t-30 76zM-76 -358l4 2q-41 18 -41 65q0 30 23 53t49 23q11 0 29 -6q46 -19 78 -19q46 0 81 35q33 33 33 99v1073q0 32 23 55q22 22 55 22t55 -22q23 -23 23 -55v-1053q0 -141 -80 -221
t-195 -80q-74 0 -137 29z" />
    <glyph glyph-name="afii10106" unicode="&#x459;" horiz-adv-x="1445" 
d="M92 117l-6 2q102 15 117 133q32 234 51 694q3 33 25 55q23 23 55 23h422q32 0 55 -23t23 -55v-330h200q152 0 238 -92t86 -217t-86 -217t-238 -92h-280q-34 0 -56 22t-22 56v796h-279q-23 -491 -53 -682q-15 -95 -80 -151q-64 -55 -166 -55q-33 0 -51 18t-18 47
q0 53 63 68zM1198 309l-2 -4q0 64 -43 113t-125 49h-194v-320h194q83 0 127 50q43 49 43 112z" />
    <glyph glyph-name="afii10107" unicode="&#x45a;" horiz-adv-x="1441" 
d="M836 965l2 -344h200q151 0 238 -93q86 -92 86 -217t-86 -217t-238 -92h-280q-33 0 -56 23q-22 22 -22 55v387h-373v-408q0 -33 -22 -55t-56 -22q-33 0 -55 22t-22 55v906q0 33 22 55t55 22q34 0 56 -22t22 -55v-351h373v351q0 33 22 55t56 22q33 0 55 -22q23 -23 23 -55z
M1202 313l-2 -4q0 64 -43 113t-125 49h-194v-319h194q84 0 127 49t43 112z" />
    <glyph glyph-name="afii10108" unicode="&#x45b;" horiz-adv-x="1003" 
d="M479 1153l-182 2v-225q9 9 27 24q21 18 79 43q66 29 132 29q134 0 235 -96q98 -94 98 -238v-633q0 -34 -24 -55q-25 -22 -58 -22q-32 0 -57 22q-24 21 -24 55v621q0 79 -56 141t-137 62q-84 0 -150 -60q-63 -57 -63 -145v-619q0 -32 -23 -55q-22 -22 -55 -22t-55 22
q-23 23 -23 55v1094h-45q-34 0 -55 18q-20 17 -20 50q0 30 22 49q21 18 55 18h45v82q0 32 23 55t55 23q33 0 56 -23q22 -22 22 -55v-82h176q34 0 55 -18q23 -20 23 -49q0 -33 -20 -50q-21 -18 -56 -18z" />
    <glyph glyph-name="afii10109" unicode="&#x45c;" horiz-adv-x="868" 
d="M358 467l-57 4v-408q0 -33 -25 -55t-57 -22q-33 0 -55 22q-23 23 -23 55v908q0 32 23 55t55 23t57 -25t25 -57v-353h66l305 392q28 38 71 38q68 0 68 -69q0 -30 -33 -66l-291 -364l318 -430q22 -31 22 -58q0 -33 -22 -55t-53 -22q-42 0 -70 38zM401 1200l-4 -2
q0 21 23 51l149 166q31 31 66 31q32 0 53 -21q23 -23 23 -51q0 -32 -31 -63l-164 -152q-27 -24 -49 -24q-29 0 -47 18q-19 19 -19 47z" />
    <glyph glyph-name="afii10110" unicode="&#x45e;" horiz-adv-x="964" 
d="M229 -369l-65 -4q-28 0 -51 23q-21 21 -21 53q0 30 23 53t53 23h49q90 0 127 100l57 154l-333 889q-9 24 -9 43q0 32 25 57t57 25q60 0 82 -54l269 -749l266 749q22 54 80 54q33 0 55 -25t22 -57q0 -10 -10 -43l-409 -1090q-29 -79 -97 -141q-66 -60 -170 -60zM475 1268
q94 0 121 92q18 61 78 61q69 0 69 -78q0 -67 -71 -135q-70 -67 -197 -67q-126 0 -196 67q-72 69 -72 135q0 78 69 78q60 0 78 -61q27 -92 121 -92z" />
    <glyph glyph-name="afii10193" unicode="&#x45f;" horiz-adv-x="1013" 
d="M432 0h-209q-32 0 -55 23t-23 55v885q0 32 23 55q22 22 55 22q34 0 56 -22t22 -55v-818h408v818q0 34 24 55q25 22 58 22q32 0 57 -22q24 -21 24 -55v-885q0 -34 -24 -55q-26 -23 -57 -23h-207v-152q0 -32 -21 -53q-22 -22 -55 -22t-55 22q-21 21 -21 53v152z" />
    <glyph glyph-name="afii10146" unicode="&#x462;" horiz-adv-x="1099" 
d="M0 1184v-10q0 30 23 53q22 22 55 22h139v113q0 34 25 59t59 25t59 -25t25 -59v-113h227q36 0 56 -20q22 -22 22 -51q0 -30 -22 -52q-20 -20 -56 -20h-227v-275h279q138 0 233 -92q96 -93 96 -227v-197q0 -134 -94 -225q-95 -92 -233 -92h-365q-34 0 -59 25t-25 59v1026
h-139q-33 0 -55 22q-23 23 -23 54zM823 307v203q0 64 -47 111q-45 45 -114 45h-271v-514h271q69 0 114 45q47 47 47 110z" />
    <glyph glyph-name="afii10194" unicode="&#x463;" horiz-adv-x="997" 
d="M588 885l-207 6v-270h209q150 0 237 -93q86 -92 86 -217t-86 -217t-237 -92h-289q-31 0 -57 23q-25 22 -25 55v805h-137q-30 0 -51 18t-21 49t21 49q22 19 51 19h137v350q0 33 25 55q26 23 57 23t57 -23q25 -22 25 -55v-350h205q29 0 51 -19q20 -17 20 -49t-20 -49
q-21 -18 -51 -18zM754 313l-2 -4q0 64 -43 113t-125 49h-203v-319h203q84 0 127 49t43 112z" />
    <glyph glyph-name="afii10147" unicode="&#x472;" horiz-adv-x="1099" 
d="M956 1077v-721q0 -151 -110 -264q-109 -112 -293 -112q-186 0 -297 114t-111 264v719q0 150 111 264q110 113 297 113q183 0 293 -113t110 -264zM786 354v308q-40 -46 -104 -46q-52 0 -137 46q-83 45 -113 45q-31 0 -63 -19q-29 -17 -43 -35l-13 -18v-277q0 -89 64 -153
t174 -64q108 0 172 64q63 63 63 149zM432 868l-2 -2q56 0 133 -45t115 -45q32 0 61 19q28 18 37 34l10 19v233q0 87 -63 150t-172 63q-111 0 -174 -63q-64 -64 -64 -150v-260q59 47 119 47z" />
    <glyph glyph-name="afii10195" unicode="&#x473;" horiz-adv-x="974" 
d="M487 1044q164 0 265 -98q100 -97 100 -252v-364q0 -155 -100 -252q-101 -98 -265 -98q-163 0 -264 98q-100 97 -100 252v364q0 155 100 252q101 98 264 98zM487 125l-6 -2q95 0 152 57q59 59 59 150v119q-9 -9 -47 -21q-37 -12 -65 -12q-46 0 -111 26q-67 27 -98 27
q-47 0 -95 -39v-98q0 -90 60 -150q57 -57 151 -57zM272 690l-2 -121q55 37 113 37q46 0 111 -26q68 -27 98 -27q46 0 94 39v96q0 89 -59 148t-148 59q-90 0 -147 -57q-60 -60 -60 -148z" />
    <glyph glyph-name="afii10148" unicode="&#x474;" horiz-adv-x="1058" 
d="M743 842l-2 346q0 139 58 203q59 65 147 65q92 0 92 -65q0 -62 -80 -80q-29 -9 -38 -37q-9 -27 -9 -98v-336q0 -19 -6 -37l-243 -748q-15 -55 -80 -55h-129q-65 0 -80 55l-244 748q-6 18 -6 37v530q0 36 24 60t60 24q35 0 59 -24q25 -25 25 -60v-528l207 -682h39z" />
    <glyph glyph-name="afii10196" unicode="&#x475;" horiz-adv-x="931" 
d="M805 813l-2 -127q0 -40 -19 -102l-166 -516q-21 -72 -102 -72h-106q-71 0 -99 72l-174 512q-18 49 -18 104v277q0 34 24 55q25 22 58 22q32 0 57 -22t25 -55v-326l166 -510h40l158 510v164q0 132 49 184q50 53 138 53q40 0 61 -18q23 -20 23 -45q0 -59 -76 -74
q-37 -9 -37 -86z" />
    <glyph glyph-name="afii10050" unicode="&#x490;" horiz-adv-x="854" 
d="M748 1272l-412 2v-1208q0 -35 -25 -60q-24 -24 -59 -24t-62 24q-26 23 -26 60v1290q0 33 22 55q23 23 56 23h428v151q0 32 22 57t56 25t59 -25q24 -24 24 -57v-237q0 -35 -24 -56q-23 -20 -59 -20z" />
    <glyph glyph-name="afii10098" unicode="&#x491;" horiz-adv-x="729" 
d="M709 950v-2q-3 -34 -25 -53q-21 -18 -51 -18h-332v-818q0 -33 -22 -55t-56 -22q-33 0 -55 22q-23 23 -23 55v885q0 32 23 55t55 23h342v127q0 33 19 55q20 23 53 23q35 0 53 -21q19 -22 19 -55v-201z" />
    <glyph glyph-name="uni04D8" unicode="&#x4d8;" horiz-adv-x="1099" 
d="M549 141h-2q105 0 170 62t65 153v271h-465v-273q0 -90 64 -151q65 -62 168 -62zM559 1454l-4 -2q171 0 283 -109q110 -107 110 -268v-719q0 -159 -117 -270t-290 -111q-174 0 -291 111t-117 268v328q0 45 29 74q28 28 74 28h538v289q0 93 -61 154t-164 61q-75 0 -137 -47
q-61 -46 -76 -117q-15 -73 -86 -73q-36 0 -60 24t-24 62q0 15 6 39q27 113 135 196q107 82 252 82z" />
    <glyph glyph-name="afii10846" unicode="&#x4d9;" horiz-adv-x="962" 
d="M682 416h-401v-84q0 -90 55 -148q56 -59 145 -59q90 0 146 59q55 58 55 148v84zM223 563l453 -4v133q0 90 -55 148q-54 57 -144 57q-154 0 -198 -147q-18 -64 -74 -64q-32 0 -55 23t-23 55q0 34 18 78q17 42 56 90q39 49 108 78q71 30 164 30q166 0 264 -98
q99 -99 99 -248v-364q0 -150 -99 -252q-98 -101 -260 -101q-156 0 -256 103q-98 101 -98 252v137q0 39 29 68q26 26 71 26z" />
    <glyph glyph-name="Wgrave" unicode="&#x1e80;" horiz-adv-x="1419" 
d="M827 764l164 -604h21l84 682v528q0 36 24 60t60 24q35 0 59 -24q25 -25 25 -60v-526q0 -13 -4 -49l-105 -738q-6 -55 -80 -55h-139q-65 0 -80 55l-143 549h-13l-141 -549q-15 -55 -80 -55h-139q-74 0 -80 55l-104 738q-4 36 -4 49v526q0 36 24 60t60 24q35 0 59 -24
t24 -60v-528l84 -682h25l162 604q15 55 80 55h75q67 0 82 -55zM788 1606l-4 -2q0 -30 -18 -48t-47 -18q-21 0 -49 25l-164 151q-31 31 -31 64q0 30 23 53q22 22 53 22q35 0 65 -30l150 -166q22 -28 22 -51z" />
    <glyph glyph-name="wgrave" unicode="&#x1e81;" horiz-adv-x="1267" 
d="M754 612l125 -462h20l86 493v322q0 33 25 55t57 22t57 -22t25 -55v-289q0 -52 -8 -88l-107 -508q-18 -80 -96 -80h-88q-77 0 -98 80l-109 420h-10l-109 -420q-21 -80 -98 -80h-88q-78 0 -96 80l-107 506q-8 36 -8 88v291q0 32 23 55q22 22 55 22t55 -22q23 -23 23 -55
v-322l86 -493h20l123 462q18 72 92 72h55q77 0 95 -72zM739 1196l-6 -2q0 -29 -18 -47q-19 -19 -45 -19q-21 0 -49 25l-164 152q-31 31 -31 63q0 30 23 53t53 23q34 0 65 -31l150 -166q22 -28 22 -51z" />
    <glyph glyph-name="Wacute" unicode="&#x1e82;" horiz-adv-x="1419" 
d="M827 764l164 -604h21l84 682v528q0 36 24 60t60 24q35 0 59 -24q25 -25 25 -60v-526q0 -13 -4 -49l-105 -738q-6 -55 -80 -55h-139q-65 0 -80 55l-143 549h-13l-141 -549q-15 -55 -80 -55h-139q-74 0 -80 55l-104 738q-4 36 -4 49v526q0 36 24 60t60 24q35 0 59 -24
t24 -60v-528l84 -682h25l162 604q15 55 80 55h75q67 0 82 -55zM639 1606l-6 -2q0 23 22 51l150 166q30 30 65 30q34 0 54 -20q22 -22 22 -51q0 -33 -31 -64l-163 -151q-28 -25 -50 -25q-26 0 -45 19q-18 18 -18 47z" />
    <glyph glyph-name="wacute" unicode="&#x1e83;" horiz-adv-x="1267" 
d="M754 612l125 -462h20l86 493v322q0 33 25 55t57 22t57 -22t25 -55v-289q0 -52 -8 -88l-107 -508q-18 -80 -96 -80h-88q-77 0 -98 80l-109 420h-10l-109 -420q-21 -80 -98 -80h-88q-78 0 -96 80l-107 506q-8 36 -8 88v291q0 32 23 55q22 22 55 22t55 -22q23 -23 23 -55
v-322l86 -493h20l123 462q18 72 92 72h55q77 0 95 -72zM580 1196l-7 -2q0 21 23 51l149 166q31 31 66 31q32 0 53 -21q23 -23 23 -51q0 -32 -31 -63l-164 -152q-28 -25 -49 -25q-26 0 -45 19q-18 18 -18 47z" />
    <glyph glyph-name="Wdieresis" unicode="&#x1e84;" horiz-adv-x="1419" 
d="M827 764l164 -604h21l84 682v528q0 36 24 60t60 24q35 0 59 -24q25 -25 25 -60v-526q0 -13 -4 -49l-105 -738q-6 -55 -80 -55h-139q-65 0 -80 55l-143 549h-13l-141 -549q-15 -55 -80 -55h-139q-74 0 -80 55l-104 738q-4 36 -4 49v526q0 36 24 60t60 24q35 0 59 -24
t24 -60v-528l84 -682h25l162 604q15 55 80 55h75q67 0 82 -55zM451 1694h-2q0 39 28 67q29 29 68 29t71 -29q31 -28 31 -67q0 -40 -31 -68q-32 -29 -69 -29q-39 0 -68 29q-28 28 -28 68zM764 1694h-2q0 39 31 67q32 29 71 29t68 -29t29 -67q0 -39 -29 -68t-68 -29
q-37 0 -69 29q-31 28 -31 68z" />
    <glyph glyph-name="wdieresis" unicode="&#x1e85;" horiz-adv-x="1267" 
d="M754 612l125 -462h20l86 493v322q0 33 25 55t57 22t57 -22t25 -55v-289q0 -52 -8 -88l-107 -508q-18 -80 -96 -80h-88q-77 0 -98 80l-109 420h-10l-109 -420q-21 -80 -98 -80h-88q-78 0 -96 80l-107 506q-8 36 -8 88v291q0 32 23 55q22 22 55 22t55 -22q23 -23 23 -55
v-322l86 -493h20l123 462q18 72 92 72h55q77 0 95 -72zM379 1284h-2q0 39 29 68q28 28 67 28q41 0 72 -28q30 -27 30 -68q0 -40 -30 -67q-32 -29 -70 -29t-67 29t-29 67zM692 1284h-2q0 40 31 68t72 28q39 0 67 -28q29 -29 29 -68q0 -38 -29 -67t-67 -29t-70 29
q-31 28 -31 67z" />
    <glyph glyph-name="Ygrave" unicode="&#x1ef2;" horiz-adv-x="960" 
d="M567 678l-8 -615q0 -35 -24 -59t-60 -24q-35 0 -59 24q-25 25 -25 59v615l-321 643q-13 26 -13 51q0 33 25 58q24 24 59 24q56 0 86 -61l256 -541l246 541q27 61 86 61q35 0 59 -24q25 -25 25 -58q0 -27 -12 -51zM586 1606l-4 -2q0 -29 -19 -48q-18 -18 -47 -18
q-21 0 -49 25l-164 151q-31 31 -31 64q0 30 23 53q22 22 53 22q36 0 66 -30l149 -166q23 -30 23 -51z" />
    <glyph glyph-name="ygrave" unicode="&#x1ef3;" horiz-adv-x="952" 
d="M883 918l-455 -1262q-15 -49 -72 -49q-32 0 -55 20q-25 22 -25 51q0 13 13 50l106 303l-315 884q-12 37 -12 52q0 34 24 55q25 22 58 22q58 0 73 -53l260 -749l256 749q15 53 74 53q34 0 57 -20q25 -22 25 -55q0 -13 -12 -51zM608 1192l-4 -2q0 -29 -18 -47
q-19 -19 -47 -19q-22 0 -50 25l-163 151q-31 31 -31 64q0 31 22 53q23 23 54 23q34 0 65 -31l150 -166q22 -28 22 -51z" />
    <glyph glyph-name="endash" unicode="&#x2013;" horiz-adv-x="1028" 
d="M113 600l-4 -2q0 34 24 55q26 23 62 23h634q36 0 62 -23q24 -21 24 -55q0 -33 -22 -55q-21 -21 -62 -21h-634q-39 0 -62 23q-22 22 -22 55z" />
    <glyph glyph-name="emdash" unicode="&#x2014;" horiz-adv-x="1474" 
d="M0 600l-4 -2q0 34 24 55q26 23 62 23h1307q35 0 61 -23q25 -22 25 -55q0 -32 -23 -55q-21 -21 -61 -21h-1307q-38 0 -61 23t-23 55z" />
    <glyph glyph-name="quoteleft" unicode="&#x2018;" horiz-adv-x="425" 
d="M109 1087l114 328q15 41 53 41q27 0 43 -16q17 -17 17 -41q0 -2 -0.5 -6t-1.5 -11.5t-2 -13.5l-58 -324q-7 -29 -30 -47q-24 -18 -54 -18q-36 0 -61 25t-25 59q0 3 1 6.5t2 8.5t2 9z" />
    <glyph glyph-name="quoteright" unicode="&#x2019;" horiz-adv-x="425" 
d="M319 1343l-116 -327q-12 -41 -53 -41q-28 0 -44 16t-16 41q0 2 0.5 6t1.5 11.5t2 13.5l58 323q7 31 30 48q24 18 54 18q34 0 61 -27t27 -57z" />
    </font>
</defs>
</svg>
