<?xml version="1.0" standalone="no"?>
<!DOCTYPE svg PUBLIC "-//W3C//DTD SVG 1.1//EN" "http://www.w3.org/Graphics/SVG/1.1/DTD/svg11.dtd" >
<svg xmlns="http://www.w3.org/2000/svg" xmlns:xlink="http://www.w3.org/1999/xlink" version="1.1">
<metadata>
Created by FontForge 20170731 at Fri Nov 26 02:12:56 2021
 By Aleksey,,,
Copyright (c) 2015 by Ramiz Guseynov. All rights reserved.
</metadata>
<defs>
<font id="DecimaRound-Italic" horiz-adv-x="983" >
  <font-face 
    font-family="Decima Round"
    font-weight="400"
    font-style="italic"
    font-stretch="normal"
    units-per-em="2048"
    panose-1="2 0 5 6 0 0 0 2 0 4"
    ascent="1616"
    descent="-432"
    x-height="1022"
    cap-height="1432"
    bbox="-166 -457 2036 1855"
    underline-thickness="102"
    underline-position="-307"
    unicode-range="U+0020-FB04"
  />
<missing-glyph horiz-adv-x="450" 
 />
    <glyph glyph-name="f_f_j" unicode="ffj" horiz-adv-x="1654" 
d="M793 1423h-19q35 -21 35 -55q0 -32 -25 -57t-57 -25q-15 0 -49 12q-37 13 -62 13q-101 0 -122 -142l-21 -145h426l19 131q44 299 307 299q87 0 141 -31q35 -21 35 -55q0 -32 -25 -57t-57 -25q-15 0 -49 12q-37 13 -62 13q-102 0 -123 -142l-20 -145h487q38 0 56 -18
t18 -50q0 -16 -2 -26l-145 -1022q-18 -132 -76 -199q-81 -96 -227 -96q-84 0 -144 31q-35 15 -35 49q0 38 25 63t59 25q11 0 29 -6q43 -19 74 -19q47 0 88 35q40 34 49 98l139 985h-413l-166 -1183q-3 -33 -29 -56q-25 -22 -61 -22q-35 0 -54 22q-17 20 -14 56l166 1183
h-426l-166 -1183q-3 -33 -29 -56q-25 -22 -61 -22q-34 0 -53 22q-18 21 -15 56l166 1183h-82q-30 0 -49 19q-18 18 -18 47q0 35 24 59q25 25 64 25h82l18 131q44 299 307 299q88 0 142 -31zM1487 1270h2q0 49 37 86t88 37q41 0 65 -27q25 -28 25 -68q0 -49 -37 -86
q-36 -36 -86 -36q-42 0 -68 26t-26 68z" />
    <glyph glyph-name="f_j" unicode="fj" horiz-adv-x="1083" 
d="M793 1423h-11q35 -21 35 -55q0 -33 -24 -57q-25 -25 -58 -25q-15 0 -49 12q-37 13 -61 13q-102 0 -123 -142l-21 -145h488q37 0 55 -18t18 -50q0 -16 -2 -26l-145 -1022q-18 -132 -76 -199q-81 -96 -227 -96q-83 0 -143 31q-35 15 -35 49q0 39 24 63q25 25 60 25
q10 0 28 -6q43 -19 74 -19q47 0 88 35q40 34 49 98l140 985h-414l-166 -1183q-3 -33 -29 -56q-25 -22 -61 -22q-34 0 -53 22q-18 21 -15 56l166 1183h-82q-30 0 -49 19q-18 18 -18 47q0 35 24 59q25 25 64 25h82l18 131q44 299 307 299q88 0 142 -31zM903 1270h2q0 49 37 86
t88 37q42 0 66 -27t24 -68q0 -49 -37 -86q-36 -36 -86 -36q-41 0 -67 26q-27 27 -27 68z" />
    <glyph glyph-name="f_f" unicode="ff" horiz-adv-x="1183" 
d="M1384 1423h-12q35 -21 35 -55q0 -32 -25 -57t-57 -25q-13 0 -51 12q-41 13 -64 13q-102 0 -123 -142l-20 -145h188q36 0 54 -18t18 -45q0 -38 -24 -62q-25 -25 -64 -25h-192l-166 -1183q-3 -33 -29 -56q-25 -22 -61 -22q-35 0 -54 22q-17 20 -14 56l166 1183h-432
l-166 -1183q-3 -33 -29 -56q-25 -22 -61 -22q-35 0 -54 22q-17 20 -14 56l166 1183h-82q-30 0 -49 19q-18 18 -18 47q0 35 24 59q25 25 64 25h81l19 131q44 299 307 299q87 0 141 -31q35 -21 35 -55q0 -33 -24 -57q-25 -25 -58 -25q-15 0 -49 12q-37 13 -61 13
q-102 0 -123 -142l-21 -145h433l18 131q44 299 307 299q87 0 141 -31z" />
    <glyph glyph-name="fi" unicode="fi" horiz-adv-x="1062" 
d="M770 227l80 652h-395l-166 -1184q-3 -32 -29 -55t-61 -23q-34 0 -54 23q-17 20 -14 55l166 1184h-82q-31 0 -49 18q-19 19 -19 47q0 35 25 60q24 24 64 24h81l19 131q44 299 307 299q87 0 141 -31q35 -21 35 -55q0 -33 -24 -57q-25 -25 -58 -25q-12 0 -49 13
q-34 12 -61 12q-102 0 -123 -141l-21 -146h471q36 0 58 -22q21 -21 18 -56l-102 -712q-4 -32 -4 -39q0 -43 51 -49q72 -9 72 -68q0 -37 -25 -62q-24 -24 -70 -24q-88 0 -137 43t-49 127q0 7 4 61zM879 1272h2q0 49 37 86t88 37q41 0 65 -27q25 -28 25 -68q0 -49 -37 -86
q-36 -36 -86 -36q-42 0 -68 26t-26 68z" />
    <glyph glyph-name="fl" unicode="fl" horiz-adv-x="1062" 
d="M768 227l139 1053q-124 37 -245 37q-139 0 -160 -143l-21 -146h189q35 0 53 -18t18 -45q0 -38 -24 -62t-64 -24h-192l-166 -1184q-3 -32 -29 -55t-61 -23q-33 0 -53 23q-18 21 -15 55l166 1184h-82q-31 0 -49 18t-18 47q0 36 24 60t64 24h82l18 131q44 299 313 299
q148 0 279 -45q23 45 80 45q34 0 53 -22t16 -56l-157 -1142q-4 -32 -4 -39q0 -43 51 -49q71 -9 71 -68q0 -38 -24 -62t-70 -24q-88 0 -137 43t-49 127q0 7 4 61z" />
    <glyph glyph-name="f_f_i" unicode="ffi" horiz-adv-x="1662" 
d="M1493 1192l27 182h184l-27 -182h-184zM793 1423l-21 2q35 -21 35 -55q0 -32 -25 -57t-57 -25q-15 0 -49 12q-37 13 -62 13q-101 0 -122 -142l-21 -145h434l19 131q44 299 307 299q87 0 141 -31q35 -21 35 -55q0 -32 -25 -57t-57 -25q-15 0 -49 12q-37 13 -62 13
q-101 0 -122 -142l-21 -145h471q35 0 57 -22t19 -56l-102 -712q-1 -6 -2 -14.5t-2 -14.5t-1 -10q0 -44 52 -50q71 -9 71 -67q0 -38 -24 -62t-70 -24q-88 0 -137 43t-49 127q0 7 4 61l92 649h-395l-166 -1183q-3 -33 -29 -56q-25 -22 -61 -22q-35 0 -54 22q-17 20 -14 56
l166 1183h-434l-166 -1183q-3 -33 -29 -56q-25 -22 -61 -22q-34 0 -53 22q-18 21 -15 56l166 1183h-82q-30 0 -49 19q-18 18 -18 47q0 35 24 59q25 25 64 25h82l18 131q44 299 307 299q88 0 142 -31zM1464 1272h2q0 49 37 86t88 37q42 0 66 -27t24 -68q0 -50 -36 -86
t-86 -36q-42 0 -68 26q-27 27 -27 68z" />
    <glyph glyph-name="f_f_l" unicode="ffl" horiz-adv-x="1654" 
d="M793 1423l-15 4q35 -21 35 -55q0 -32 -25 -57t-57 -25q-12 0 -49 13q-35 12 -61 12q-102 0 -123 -141l-21 -146h430l19 131q44 299 313 299q148 0 279 -45q23 45 79 45q35 0 54 -22t16 -56l-158 -1142q-4 -32 -4 -39q0 -43 51 -49q72 -9 72 -68q0 -38 -24 -62t-70 -24
q-88 0 -137 43t-49 127q0 7 4 61l147 1053q-131 35 -250 35q-136 0 -157 -146l-21 -145h189q35 0 53 -18t18 -45q0 -38 -24 -62q-25 -25 -64 -25h-192l-166 -1183q-3 -33 -29 -56q-25 -22 -61 -22q-35 0 -54 22q-17 20 -14 56l166 1183h-430l-166 -1183q-3 -33 -29 -56
q-25 -22 -61 -22q-34 0 -53 22q-18 21 -15 56l166 1183h-82q-30 0 -49 19q-18 18 -18 47q0 35 24 59q25 25 64 25h82l18 131q44 299 307 299q88 0 142 -31z" />
    <glyph glyph-name=".notdef" horiz-adv-x="450" 
 />
    <glyph glyph-name=".null" horiz-adv-x="0" 
 />
    <glyph glyph-name="nonmarkingreturn" horiz-adv-x="681" 
 />
    <glyph glyph-name="space" unicode=" " horiz-adv-x="450" 
 />
    <glyph glyph-name="exclam" unicode="!" horiz-adv-x="528" 
d="M315 0l-98 -2q-22 0 -35 16t-10 37l14 99q3 20 19 36q15 15 37 15h98q23 0 35 -15q13 -16 10 -36l-14 -99q-3 -21 -19 -37q-14 -14 -37 -14zM541 1368l-133 -942q-3 -32 -31 -57t-62 -25q-33 0 -55 25q-21 24 -18 59l133 940q3 37 31 62q27 24 61 24t55 -24
q22 -25 19 -62z" />
    <glyph glyph-name="quotedbl" unicode="&#x22;" horiz-adv-x="694" 
d="M492 1374l-84 -373q-9 -55 -62 -55q-22 0 -39 17q-15 15 -12 41l24 370q3 38 33 62t68 24t59 -24q22 -25 13 -62zM764 1372l-84 -373q-9 -55 -62 -55q-21 0 -38 17q-16 16 -13 40l25 371q3 38 33 62t67 24q39 0 60 -24t12 -62z" />
    <glyph glyph-name="numbersign" unicode="#" horiz-adv-x="1073" 
d="M662 1372l-76 -352h235l74 371q3 26 25 45q21 18 49 18q76 0 73 -86l-67 -348h129q32 0 55 -23q22 -22 19 -55t-27 -57q-25 -25 -57 -25h-154l-59 -307h131q32 0 55 -23q21 -21 18 -55t-26 -57q-25 -25 -58 -25h-153l-68 -348q-7 -31 -26 -47q-21 -18 -49 -18
q-34 0 -56 22q-21 21 -18 53q4 12 4 13l61 325h-235l-68 -348q-7 -31 -26 -47q-21 -18 -50 -18q-33 0 -55 22q-21 21 -18 53q4 12 4 13l61 325h-127q-33 0 -55 25q-21 24 -18 59t26 55q26 23 60 23h149l62 307h-130q-33 0 -55 25q-21 24 -18 59t26 55q26 23 60 23h151
l74 371q3 26 25 45q21 18 49 18q77 0 74 -86zM553 858l-59 -307h235l62 307h-238z" />
    <glyph glyph-name="dollar" unicode="$" horiz-adv-x="1073" 
d="M666 1432l2 65q6 35 32 55q30 23 62 23q34 0 53 -25t16 -57l-10 -78q109 -21 180 -104q70 -82 70 -178q0 -47 -24 -74q-26 -29 -70 -29q-68 0 -74 72q-3 71 -55 117q-51 45 -135 45q-90 0 -164 -62t-74 -155q0 -59 41 -109q38 -47 98 -82q13 -8 38 -22.5t47.5 -27.5
t43.5 -26q71 -44 129 -90q59 -47 99 -125q41 -80 41 -180q0 -130 -103 -254q-101 -122 -282 -143l-13 -74q-6 -34 -30 -55q-26 -23 -58 -23q-34 0 -53 25q-17 23 -14 57l10 78q-125 24 -197 108q-69 81 -69 189q0 50 22 92q21 41 74 41q72 0 72 -98q0 -82 53 -129t151 -47
q114 0 185 71t71 166q0 84 -55 148q-56 66 -131 108q-89 51 -153 92q-75 49 -132 127q-55 76 -55 183q0 150 103 256q102 105 258 129z" />
    <glyph glyph-name="percent" unicode="%" horiz-adv-x="1470" 
d="M758 1239l-58 -375q-12 -88 -86 -153q-73 -64 -176 -64q-90 0 -145 55t-55 134l2 28l53 373q12 88 84 154q69 63 176 63q89 0 147 -55q60 -57 60 -133zM561 874l51 345q2 10 2 22q0 35 -20 55q-23 23 -62 23q-40 0 -67 -27t-33 -67l-49 -344q-2 -10 -2 -25q0 -35 20 -55
q21 -21 58 -21q40 0 67 27q29 29 35 67zM1427 569l-57 -374q-12 -89 -86 -154q-73 -64 -176 -64q-89 0 -145 56t-56 133l2 29l54 372q12 88 84 154q69 63 176 63q89 0 147 -55q60 -57 60 -133zM1231 205l51 344q2 10 2 22q0 36 -20 56q-22 22 -62 22q-41 0 -67 -26
q-27 -27 -33 -68l-49 -344q-2 -10 -2 -25q0 -35 20 -55t57 -20q42 0 68 26q29 29 35 68zM1319 1372l-889 -1372q-15 -27 -49 -27q-23 0 -37 17q-11 14 -8 37q0 11 8 24l889 1370q21 27 49 27q26 0 37 -14q13 -16 10 -37q-6 -21 -10 -25z" />
    <glyph glyph-name="ampersand" unicode="&#x26;" horiz-adv-x="1118" 
d="M596 836l522 -9q34 0 53 -22q20 -23 17 -55q-3 -34 -31 -56t-61 -22h-121l-45 -324q-21 -161 -135 -266t-291 -105q-161 0 -260 111q-97 109 -76 268l22 158q21 149 166 252q-43 40 -67 111t-15 141l9 57q24 163 141 271t289 108q173 0 258 -102q86 -103 71 -213
q-6 -39 -32 -62q-27 -24 -62 -24q-33 0 -51 18q-20 20 -23 53q-6 75 -55 121q-50 47 -123 47q-95 0 -159 -61q-65 -62 -80 -156l-8 -57q-9 -67 28 -125q37 -57 119 -57zM516 133v-2q101 0 166 62q66 63 78 151l45 324h-256q-67 0 -123 -50q-55 -49 -64 -112l-22 -158
q-12 -92 37 -153q50 -62 139 -62z" />
    <glyph glyph-name="quotesingle" unicode="'" horiz-adv-x="423" 
d="M492 1374l-84 -373q-9 -55 -62 -55q-22 0 -39 17q-15 15 -12 41l24 370q3 38 33 62t68 24t59 -24q22 -25 13 -62z" />
    <glyph glyph-name="parenleft" unicode="(" horiz-adv-x="669" 
d="M172 -12l154 1081q15 112 90 203q74 88 153 129q77 39 144 39q37 0 59 -25t19 -57q-3 -27 -25 -49q-23 -23 -53 -29q-79 -15 -142 -70q-63 -54 -75 -139l-152 -1087q-12 -84 35 -140q45 -53 121 -69q26 -6 43 -29q15 -21 12 -49q-3 -32 -31 -57t-67 -25q-103 0 -205 102
q-101 101 -80 271z" />
    <glyph glyph-name="parenright" unicode=")" horiz-adv-x="671" 
d="M649 1079l-151 -1093q-15 -112 -90 -203q-73 -88 -154 -129q-77 -39 -143 -39q-36 0 -58 25q-21 24 -18 59q3 28 24 49q23 23 50 29q79 15 141 71t74 140l151 1087q12 85 -33 139q-48 57 -123 72q-63 15 -57 80q3 34 31 59t67 25q109 0 209 -100q101 -101 80 -271z" />
    <glyph glyph-name="asterisk" unicode="*" horiz-adv-x="704" 
d="M371 1309l104 -60l2 127q0 27 25 49q24 21 57 21t51 -21q20 -23 11 -49l-37 -131l121 55q20 5 24 5q29 0 47 -21q20 -23 17 -51q-3 -23 -21 -41q-20 -20 -39 -23l-133 -24l76 -86q16 -16 10 -43q-3 -28 -27 -49q-26 -23 -55 -23q-34 0 -49 31l-47 115l-74 -111
q-22 -31 -61 -31q-29 0 -49 23q-18 21 -15 49q3 25 19 41l100 94l-119 19q-22 3 -35 22q-11 17 -8 47q3 28 29 51q24 21 51 21q16 0 25 -6z" />
    <glyph glyph-name="plus" unicode="+" horiz-adv-x="1198" 
d="M293 684l315 8l45 314q3 33 31 55t61 22q36 0 54 -24q19 -25 16 -58l-45 -313h317q36 0 54 -24q19 -25 16 -58q-3 -32 -31 -57t-61 -25h-317l-46 -325q-3 -35 -30 -56q-28 -22 -62 -22q-35 0 -53 24q-17 23 -14 58l45 325h-322q-31 0 -51 23q-17 20 -14 55t30 56
q28 22 62 22z" />
    <glyph glyph-name="comma" unicode="," horiz-adv-x="471" 
d="M238 -199v2q-21 -49 -68 -49q-21 0 -37 13q-14 11 -14 30q0 22 8 35l76 168h-19q-20 0 -32 12q-13 13 -13 31q0 6 2 12v11l13 86q9 51 57 51h98q47 0 47 -43q0 -7 -2 -13v-8l-14 -96q-3 -33 -12 -51z" />
    <glyph glyph-name="hyphen" unicode="-" horiz-adv-x="765" 
d="M195 588q0 35 28 63q27 27 68 27h373q35 0 53 -21t18 -49q0 -38 -26 -61q-28 -25 -68 -25h-373q-73 0 -73 66z" />
    <glyph glyph-name="period" unicode="." horiz-adv-x="466" 
d="M283 0l-99 -2q-21 0 -34 16q-14 17 -11 37l15 99q3 21 18 36t37 15h98q23 0 35 -15q13 -16 10 -36l-14 -99q-3 -21 -19 -37q-14 -14 -36 -14z" />
    <glyph glyph-name="slash" unicode="/" horiz-adv-x="733" 
d="M889 1346l-883 -1690q-20 -51 -80 -51q-35 0 -53 24q-17 23 -14 58q3 22 6 28l880 1686q26 51 80 51q37 0 56 -25t16 -57l-4 -12z" />
    <glyph glyph-name="zero" unicode="0" horiz-adv-x="1073" 
d="M1059 1077l-103 -725q-21 -162 -135 -270q-113 -107 -282 -107q-145 0 -238 93q-92 92 -92 229q0 5 4 59l100 719q21 162 133 271q111 108 281 108q145 0 240 -92q96 -93 96 -229q0 -6 -4 -56zM786 350l99 719q2 14 2 45q0 72 -49 121t-125 49q-90 0 -154 -61
q-66 -63 -78 -154l-102 -719v-8v-18v-21q0 -70 49 -119t127 -49q89 0 154 62t77 153z" />
    <glyph glyph-name="one" unicode="1" horiz-adv-x="1073" 
d="M418 1221l-6 -9q-26 0 -45 19t-19 47q0 69 80 90l289 72q30 6 41 6q31 0 55 -21q25 -22 25 -51q0 -10 -2 -20l-170 -1200h245q31 0 50 -19q18 -18 18 -49q0 -39 -27 -63q-28 -25 -63 -25h-662q-33 0 -51 18t-18 47q0 40 28 68q27 27 66 27h244l157 1114l-200 -47
q-32 -4 -35 -4z" />
    <glyph glyph-name="two" unicode="2" horiz-adv-x="1073" 
d="M750 1454l-2 -2q150 0 245 -92q94 -91 94 -236q0 -129 -71 -241q-71 -111 -176 -191q-114 -86 -211 -155q-107 -76 -191 -172q-83 -95 -98 -199h549q76 0 76 -70q0 -41 -27 -65q-28 -25 -70 -25h-643q-29 0 -51 19q-20 17 -20 45q0 12 12 86q21 119 86 225t147 176
q83 71 174 141q123 95 166 129q72 57 123 136q49 76 49 159q0 73 -53 123q-52 49 -129 49q-82 0 -147 -53q-66 -54 -93 -145q-24 -82 -90 -82q-34 0 -55 18q-20 17 -20 49q0 134 118 252q121 121 308 121z" />
    <glyph glyph-name="three" unicode="3" horiz-adv-x="1073" 
d="M555 915l-4 -4q3 35 37 72l260 285h-408q-34 0 -55 18q-20 17 -20 49q0 42 26 68q27 27 70 27h530q74 0 74 -66q0 -3 -4 -49q-6 -40 -33 -70l-266 -295q111 -24 172 -100t61 -197q0 -13 -4 -67l-33 -242q-21 -149 -135 -260t-293 -111q-153 0 -254 93q-98 91 -98 221
q0 123 98 123q70 0 70 -91q0 -84 49 -133t152 -49q93 0 162 66q67 64 82 164l32 223q4 36 4 49q0 83 -49 123q-50 41 -131 41h-24q-36 0 -54 18t-18 45q0 3 4 49z" />
    <glyph glyph-name="four" unicode="4" horiz-adv-x="1073" 
d="M203 500l547 903q34 55 88 55q34 0 55 -18q20 -17 20 -49q0 -28 -14 -50l-539 -868h367l41 297q3 34 31 59t65 25q36 0 56 -20t20 -52q0 -20 -2 -30l-39 -283h57q32 0 50 -18t18 -50q0 -39 -25 -67q-24 -27 -65 -27h-57l-35 -244q-3 -35 -29 -61q-25 -25 -65 -25
q-33 0 -56 23q-20 20 -20 55q0 15 2 25l33 229h-457q-80 0 -80 64q0 16 2 26l4 29q6 42 27 72z" />
    <glyph glyph-name="five" unicode="5" horiz-adv-x="1073" 
d="M403 711l-53 18q-28 9 -37 21q-10 13 -10 36q0 21 8 54l119 518q18 80 96 80h482q32 0 51 -19q18 -18 18 -49q0 -41 -26 -67q-27 -27 -64 -27h-397l-86 -356q68 51 190 51q142 0 228 -86t86 -234q0 -29 -7 -73l-28 -220q-21 -163 -137 -270q-115 -106 -289 -106
q-158 0 -252 94t-94 217t96 123q35 0 53 -21q19 -22 19 -55q0 -89 49 -141q51 -54 145 -54t162 62q67 61 82 166l29 207q4 36 4 49q0 81 -54 129q-53 47 -135 47q-94 0 -157 -57q-47 -41 -70 -41q-5 0 -21 4z" />
    <glyph glyph-name="six" unicode="6" horiz-adv-x="1073" 
d="M739 1454l-2 -6q155 0 242 -84q86 -83 86 -172q0 -40 -25 -68q-23 -26 -63 -26q-38 0 -53 18q-16 19 -31 60q-40 106 -172 106q-96 0 -162 -63q-67 -64 -82 -160l-33 -219q2 2 12 11.5t17 16.5q18 18 86 45q73 29 141 29q139 0 228 -86q90 -87 90 -225l-6 -88l-27 -187
q-21 -161 -139 -270t-293 -109q-156 0 -252 93t-96 233v21v18v14v11v4l100 698q24 161 146 274q120 111 288 111zM651 778l2 -2q-95 0 -166 -59t-86 -154l-30 -215q-2 -14 -2 -31q0 -81 55 -133q56 -53 137 -53q98 0 166 62t80 153l31 213q2 18 2 43q0 76 -54 127
q-52 49 -135 49z" />
    <glyph glyph-name="seven" unicode="7" horiz-adv-x="1073" 
d="M344 78l-4 10q21 162 154 416q134 256 264 473q132 221 147 303h-536q-36 0 -54 18t-18 50q0 40 27 67t67 27h623q39 0 61 -25q23 -26 17 -63l-9 -64q-8 -69 -90 -229q-83 -162 -174 -313t-186 -351q-94 -199 -117 -331q-6 -38 -33 -62t-63 -24q-33 0 -55 22
q-23 23 -23 53q0 13 2 19v4z" />
    <glyph glyph-name="eight" unicode="8" horiz-adv-x="1073" 
d="M1065 1153l6 2q0 -69 -12 -143q-15 -83 -62 -154q-46 -70 -110 -110q108 -88 108 -238q0 -22 -4 -72l-12 -80q-27 -166 -137 -270t-295 -104q-155 0 -250 92q-96 93 -96 231q0 71 12 142q30 187 193 301q-97 82 -97 225q0 41 13 127q21 149 139 252q117 102 280 102
q146 0 234 -88q90 -90 90 -215zM811 356l10 90l2 31v2q0 76 -53 129q-54 54 -135 54q-89 0 -162 -64q-74 -65 -86 -154l-12 -86q-2 -14 -2 -30q0 -84 51 -135q52 -52 143 -52q96 0 164 62t80 153zM885 1022l8 72q2 12 2 28q0 78 -49 127t-127 49q-90 0 -150 -57
q-61 -58 -73 -147l-11 -68q-2 -14 -2 -31q0 -71 47 -121q46 -49 127 -49q92 0 154 56t74 141z" />
    <glyph glyph-name="nine" unicode="9" horiz-adv-x="1073" 
d="M532 -20l-2 -3q-154 0 -241 84q-86 83 -86 172q0 40 22 68q21 27 62 27q37 0 53 -19q16 -20 31 -59q40 -107 166 -107q101 0 170 66t84 160l32 219q-2 -2 -11.5 -11t-16.5 -16q-18 -18 -86 -45q-67 -27 -142 -27q-138 0 -227 86q-88 85 -88 226l6 88l27 186
q21 162 139 271q117 108 293 108q157 0 252 -92q96 -93 96 -234v-20v-18v-15v-10v-4l-100 -699q-24 -161 -144 -272q-119 -110 -289 -110zM616 647h-2q94 0 166 60q71 59 86 153l31 215q2 14 2 31q0 81 -55 133q-56 53 -137 53q-99 0 -166 -61q-68 -62 -80 -154l-31 -213
q-2 -18 -2 -43q0 -75 53 -125q52 -49 135 -49z" />
    <glyph glyph-name="colon" unicode=":" horiz-adv-x="466" 
d="M283 0l-99 -2q-21 0 -34 16q-14 17 -11 37l15 99q3 21 18 36t37 15h98q23 0 35 -15q13 -16 10 -36l-14 -99q-3 -21 -19 -37q-14 -14 -36 -14zM397 823l-104 -2q-21 0 -33 15q-11 14 -8 36l12 99q3 22 21 37q19 16 41 16h98q24 0 35 -14q13 -16 10 -37l-12 -99
q-3 -21 -21 -36t-39 -15z" />
    <glyph glyph-name="semicolon" unicode=";" horiz-adv-x="471" 
d="M238 -199q-21 -49 -74 -49q-19 0 -33 17q-11 14 -8 36q1 1 8 25l74 168h-15q-21 0 -34 16q-14 17 -11 37l15 99q3 21 18 36t37 15h98q23 0 35 -15q13 -16 10 -36l-16 -107q-3 -30 -14 -51zM401 825l-104 -2q-21 0 -33 15q-11 14 -8 36l12 99q3 22 21 37q19 16 41 16h98
q24 0 35 -14q13 -16 10 -37l-12 -98q-3 -22 -21 -37t-39 -15z" />
    <glyph glyph-name="less" unicode="&#x3c;" horiz-adv-x="1198" 
d="M260 684l852 326q15 6 31 6q33 0 53 -23q19 -22 16 -55q-6 -54 -57 -74l-733 -270l657 -270q43 -18 37 -74q-3 -33 -31 -55q-30 -23 -61 -23q-19 0 -31 6l-757 330q-54 25 -48 88q9 63 72 88z" />
    <glyph glyph-name="equal" unicode="=" horiz-adv-x="1198" 
d="M1094 694l-803 8q-31 0 -51 23q-18 21 -15 55t31 56t61 22h799q35 0 53 -24q20 -26 17 -58t-31 -57t-61 -25zM1040 350h-798q-35 0 -54 25q-17 23 -14 57q6 34 33 55q30 23 61 23h799q34 0 53 -25t13 -57q-3 -33 -31 -55q-30 -23 -62 -23z" />
    <glyph glyph-name="greater" unicode="&#x3e;" horiz-adv-x="1198" 
d="M371 1014l755 -326q59 -24 50 -88q-3 -28 -25 -53q-23 -26 -49 -35l-848 -330q-18 -6 -35 -6q-31 0 -51 23q-17 20 -14 55q6 54 57 74l731 270l-655 270q-43 18 -37 74q3 32 29 55t59 23q18 0 33 -6z" />
    <glyph glyph-name="question" unicode="?" horiz-adv-x="966" 
d="M487 0l-98 -2q-22 0 -35 16t-10 37l14 99q3 20 19 36q15 15 37 15h98q23 0 35 -15q13 -16 10 -36l-14 -99q-3 -21 -19 -37q-14 -14 -37 -14zM246 1120h-21q0 108 117 219t297 111q151 0 252 -88q100 -87 100 -234q0 -95 -39 -174q-41 -83 -98 -143q-58 -61 -119 -119
q-58 -55 -106 -125q-47 -69 -56 -137q-3 -34 -32 -57q-31 -25 -64 -25q-31 0 -49 21t-18 51q0 84 43 160q46 81 104 139l121 121q58 58 102 129q43 70 43 145q0 77 -51 125q-52 49 -131 49q-82 0 -143 -43q-60 -43 -88 -115q-27 -81 -93 -81q-31 0 -51 20t-20 51z" />
    <glyph glyph-name="at" unicode="@" horiz-adv-x="1384" 
d="M1108 342l47 334q2 14 2 37q0 78 -49 127t-129 49q-90 0 -154 -58q-65 -59 -80 -153l-47 -326q-4 -50 -4 -59q0 -71 49 -117q50 -47 125 -47q90 0 158 59q67 58 82 154zM1073 90v-8q-6 -8 -29 -31q-20 -20 -79 -49q-64 -31 -125 -31q-139 0 -222 80t-83 203q0 15 4 61
l53 371q21 145 127 240q107 96 246 96q167 0 225 -104q4 54 4 59q0 138 -88 223q-89 86 -227 86q-163 0 -279 -98t-137 -244l-115 -811q-4 -50 -4 -61q0 -122 80 -199q79 -76 211 -82q32 -3 49 -20q18 -18 18 -47q0 -38 -30 -62t-76 -24q-182 0 -299 120t-117 305
q0 59 8 111l113 774q35 220 191 361t405 141q200 0 332 -123q133 -124 133 -305q0 -7 -4 -61l-125 -906q-3 -32 -31 -57t-61 -25q-30 0 -49 19t-19 47v8v19v24z" />
    <glyph glyph-name="A" unicode="A" horiz-adv-x="1034" 
d="M821 616l-108 662h-39l-293 -662h440zM653 1446h125q63 0 72 -55l137 -760q3 -18 0 -37l-74 -531q-3 -34 -28 -59q-24 -24 -60 -24q-33 0 -57 24q-23 23 -20 59l55 400h-453l-55 -400q-3 -33 -29 -59q-24 -24 -59 -24q-33 0 -57 24t-21 59l74 531q3 17 12 37l350 760
q24 55 88 55z" />
    <glyph glyph-name="B" unicode="B" horiz-adv-x="1024" 
d="M721 1272l-207 -6l-61 -441h206q79 0 129 47q51 48 60 117l16 119l2 4v12v17q0 56 -41 94q-40 37 -104 37zM430 670l-72 -516h197q84 0 143 53q58 52 70 129l18 129v8v21v18q0 61 -36 109q-37 49 -123 49h-197zM444 1425l287 -8q145 0 225 -74t80 -192q0 -23 -4 -59
l-12 -107q-9 -73 -51 -135q-44 -66 -101 -105q99 -79 99 -213v-24v-25l-2 -10l-19 -143q-21 -154 -129 -248q-107 -94 -266 -94h-305q-38 0 -56 24q-17 23 -14 56l178 1273q3 34 29 60q24 24 61 24z" />
    <glyph glyph-name="C" unicode="C" horiz-adv-x="1015" 
d="M735 1454l-14 -4q136 0 240 -82t104 -211q0 -41 -27 -76q-25 -32 -69 -32q-33 0 -51 18q-20 20 -23 53q-6 76 -57 121q-53 47 -129 47q-99 0 -166 -61q-68 -62 -80 -154l-98 -692q-5 -45 -5 -62q0 -78 56 -131q54 -51 141 -51q98 0 160 53q63 54 84 146q9 36 35 59t61 23
q33 0 55 -19q21 -18 21 -49q0 -145 -127 -260q-125 -113 -295 -113q-159 0 -260 93q-98 91 -98 237q0 55 10 133l90 635q21 163 141 271t301 108z" />
    <glyph glyph-name="D" unicode="D" horiz-adv-x="1071" 
d="M561 0l-321 -2q-33 0 -52 22q-17 20 -14 56l178 1274q3 32 31 57t61 25h295q148 0 244 -93t96 -231q0 -1 -4 -51l-94 -680q-21 -164 -137 -271q-115 -106 -283 -106zM803 373l96 684q2 14 2 30q0 80 -55 132q-54 51 -137 51h-201l-156 -1110h201q94 0 164 61
q71 62 86 152z" />
    <glyph glyph-name="E" unicode="E" 
d="M819 0l-579 -4q-33 0 -52 22q-17 20 -14 56l178 1274q3 32 31 57t61 25h560q33 0 53 -23q17 -20 14 -55q-3 -32 -29 -58q-24 -24 -59 -24h-467l-61 -436h417q34 0 54 -23q19 -22 16 -55q-3 -34 -31 -56t-61 -22h-418l-74 -514h484q34 0 53 -25t16 -57q-3 -33 -30 -57
q-28 -25 -62 -25z" />
    <glyph glyph-name="F" unicode="F" horiz-adv-x="925" 
d="M430 676l-94 -608q-3 -35 -31 -60q-27 -24 -61 -24q-35 0 -56 24t-18 60l182 1290q3 33 31 55q30 23 61 23h560q33 0 53 -23q19 -22 16 -55t-31 -58q-27 -24 -61 -24h-467l-61 -436h417q35 0 54 -25t16 -57q-3 -33 -31 -58q-27 -24 -61 -24h-418z" />
    <glyph glyph-name="G" unicode="G" horiz-adv-x="1089" 
d="M762 1454h-4q133 0 237 -82q105 -82 105 -211q0 -44 -27 -74t-69 -30q-34 0 -52 18q-19 19 -22 53q-9 77 -62 121q-52 43 -131 43q-114 0 -184 -61q-72 -63 -84 -154l-98 -692q-4 -36 -4 -61q0 -79 55 -131t151 -52q104 0 172 62t80 151l33 224h-145q-36 0 -54 24
q-17 23 -14 57q6 35 33 56q28 22 61 22h232q88 0 76 -90l-43 -291q-21 -155 -138 -266q-116 -110 -301 -110q-166 0 -270 96q-102 94 -102 233q0 27 6 76l96 692q21 160 145 269q123 108 322 108z" />
    <glyph glyph-name="H" unicode="H" horiz-adv-x="1116" 
d="M1145 1370l-184 -1307q-3 -35 -29 -61q-25 -25 -66 -25q-33 0 -55 25q-21 24 -18 59l86 613h-445l-86 -613q-3 -36 -31 -61t-67 -25q-33 0 -55 25t-19 59l182 1307q3 36 31 61t68 25q33 0 55 -25q21 -24 18 -59l-73 -534h444l74 534q3 37 31 62q27 24 65 24q34 0 55 -24
q22 -25 19 -60z" />
    <glyph glyph-name="I" unicode="I" horiz-adv-x="499" 
d="M528 1370l-186 -1307q-3 -36 -31 -61t-67 -25q-36 0 -58 25q-21 24 -18 59l184 1307q3 37 31 62q27 24 68 24q38 0 59 -24t18 -60z" />
    <glyph glyph-name="J" unicode="J" horiz-adv-x="927" 
d="M326 453l-21 -154v-12v-19q0 -55 37 -92t109 -37q70 0 122 43q54 45 66 137l149 1049q3 37 31 62q27 24 68 24q38 0 59 -24q22 -25 19 -60l-150 -1059q-21 -149 -123 -241q-104 -93 -246 -93q-137 0 -223 80t-86 197q0 25 23 199q3 35 30 59q28 25 62 25q33 0 55 -25
t19 -59z" />
    <glyph glyph-name="K" unicode="K" horiz-adv-x="1017" 
d="M440 739l-94 -678q-3 -36 -31 -61t-67 -25q-36 0 -58 25q-21 24 -18 59l184 1307q3 36 31 61t68 25q35 0 57 -25q21 -24 18 -59l-84 -596l539 645q27 35 74 35q31 0 49 -18t18 -48q0 -36 -30 -71l-484 -565l336 -627q17 -31 17 -53q0 -36 -25 -64q-23 -26 -63 -26
q-52 0 -76 49z" />
    <glyph glyph-name="L" unicode="L" horiz-adv-x="854" 
d="M358 162l390 -6q34 0 53 -19q18 -18 18 -49q0 -41 -24 -65q-25 -25 -74 -25h-475q-36 0 -58 25q-21 24 -18 59l182 1286q3 37 31 62q27 24 68 24q38 0 59 -24t18 -60z" />
    <glyph glyph-name="M" unicode="M" horiz-adv-x="1306" 
d="M649 672l-168 483q-19 -159 -55 -438l-92 -654q-3 -34 -31 -59q-27 -24 -61 -24q-35 0 -56 24t-18 59l182 1278q9 52 39 82q31 31 78 31q69 0 94 -72l195 -608l362 608q47 72 123 72q47 0 72 -31t16 -82l-180 -1278q-3 -34 -31 -59q-27 -24 -61 -24q-35 0 -56 24t-18 59
l92 652l70 442l-295 -485q-47 -72 -111 -72q-69 0 -90 72z" />
    <glyph glyph-name="N" unicode="N" horiz-adv-x="1116" 
d="M772 51l-305 1043q-19 -204 -43 -377l-92 -656q-3 -35 -29 -61q-25 -25 -61 -25q-37 0 -56 25q-17 23 -14 61l180 1285q6 44 35 77q28 31 74 31q65 0 86 -72l303 -1063q14 202 43 398l94 653q3 36 29 62q24 24 63 24q36 0 54 -24q17 -23 14 -62l-180 -1284
q-6 -46 -33 -76t-74 -30q-67 0 -88 71z" />
    <glyph glyph-name="O" unicode="O" horiz-adv-x="1099" 
d="M1106 1075l-100 -721q-21 -152 -142 -264q-119 -110 -309 -110q-165 0 -266 96q-99 94 -99 231q0 31 7 66l98 706q21 153 141 264t314 111q170 0 264 -94q96 -96 96 -230q0 -9 -4 -55zM831 352l97 721v14v19q0 75 -54 129q-53 53 -147 53q-111 0 -180 -63
q-70 -64 -82 -150l-103 -723l-2 -12v-25q0 -72 56 -125q54 -51 153 -51q109 0 179 64q71 65 83 149z" />
    <glyph glyph-name="P" unicode="P" horiz-adv-x="985" 
d="M406 498l-74 -432q-3 -35 -31 -60q-27 -24 -61 -24q-35 0 -56 24t-18 60l182 1290q3 33 31 55q30 23 61 23h312q125 0 204 -76q80 -77 80 -197v-20v-19v-8l-41 -295q-18 -139 -118 -229q-103 -92 -246 -92h-225zM811 815l43 289v6v16v19q0 58 -39 94q-40 37 -100 37h-211
l-86 -612h211q74 0 123 43q50 44 59 108z" />
    <glyph glyph-name="Q" unicode="Q" horiz-adv-x="1095" 
d="M821 -61l-69 77q-85 -39 -197 -39q-164 0 -266 97q-99 94 -99 231q0 31 7 66l98 706q21 153 141 264t314 111q170 0 264 -94q96 -96 96 -230q0 -9 -4 -55l-100 -719q-18 -140 -123 -248l57 -65q18 -21 18 -47q0 -31 -24 -55q-25 -25 -57 -25q-37 0 -56 25zM831 352
l99 719v14v19q0 76 -53 129t-148 53q-111 0 -180 -63q-70 -64 -82 -150l-102 -723l-3 -12v-25q0 -72 56 -125q54 -51 153 -51q47 0 68 6l-35 41q-18 21 -18 49q0 36 24 60t60 24q35 0 55 -26l51 -62q46 55 55 123z" />
    <glyph glyph-name="R" unicode="R" horiz-adv-x="1032" 
d="M825 836l37 270q4 36 4 43q0 57 -39 90q-41 35 -100 35h-213l-82 -590h213q70 0 119 37t61 115zM731 43l-135 481h-190l-64 -458q-3 -37 -31 -62q-27 -24 -63 -24q-31 0 -55 18q-25 19 -25 53q0 15 2 25l182 1278q3 33 31 55q30 23 61 23h310q132 0 209 -74t77 -191
q0 -3 -4 -53l-37 -272q-15 -101 -73 -180q-60 -81 -154 -111l133 -447q4 -20 4 -28q0 -42 -26 -68t-68 -26q-69 0 -84 61z" />
    <glyph glyph-name="S" unicode="S" horiz-adv-x="1038" 
d="M715 1454l-8 -20q147 0 249 -91q99 -89 99 -196q0 -113 -97 -113q-34 0 -55 21t-24 55q-3 75 -58 121q-56 47 -137 47q-95 0 -164 -66q-67 -64 -67 -165q0 -70 55 -125q57 -57 131 -99q98 -55 154 -92q75 -48 131 -135q55 -85 55 -201q0 -162 -115 -295
q-113 -131 -332 -131q-174 0 -276 99q-100 97 -100 223q0 51 24 88t76 37q74 0 74 -84q0 -89 55 -144t152 -55q117 0 188 74q72 75 72 172q0 73 -37 131q-35 55 -96 94l-55 35t-70 45q-53 34 -125 84q-60 42 -97 111q-36 68 -36 159q0 174 127 295t307 121z" />
    <glyph glyph-name="T" unicode="T" horiz-adv-x="829" 
d="M301 1434l633 4q74 0 74 -68q0 -40 -27 -67t-70 -27h-231l-170 -1208q-3 -37 -31 -62q-27 -24 -67 -24q-37 0 -58 24t-18 60l170 1208h-227q-74 0 -74 69q0 43 26 66q28 25 70 25z" />
    <glyph glyph-name="U" unicode="U" horiz-adv-x="1114" 
d="M1153 1370l-141 -1020q-21 -162 -135 -270q-113 -107 -308 -107q-166 0 -270 93q-100 90 -100 225q0 11 4 61l143 1012q3 36 31 61t67 25q34 0 56 -25q21 -24 18 -59l-143 -1014l-2 -16v-33q0 -64 53 -117t152 -53q115 0 184 66q67 64 82 166l139 1003q3 37 31 62
q27 24 65 24q35 0 56 -24t18 -60z" />
    <glyph glyph-name="V" unicode="V" horiz-adv-x="1075" 
d="M881 848l71 516q3 36 31 61t64 25q35 0 57 -25q21 -24 18 -59l-75 -526q-3 -19 -13 -43l-348 -744q-24 -55 -86 -55h-129q-65 0 -74 55l-137 748q-3 19 0 47l74 520q3 37 31 62q27 24 63 24t57 -24q22 -25 19 -60l-76 -528l111 -682h39z" />
    <glyph glyph-name="W" unicode="W" horiz-adv-x="1419" 
d="M934 764l78 -604h20l180 682l76 528q3 35 31 60q27 24 63 24q37 0 58 -24t18 -60l-76 -526q-3 -24 -12 -51l-217 -738q-15 -55 -86 -55h-131q-68 0 -74 55l-65 549h-15l-217 -549q-21 -55 -86 -55h-133q-74 0 -74 55l-6 738q0 39 2 51l76 526q3 35 31 60q27 24 63 24
q39 0 60 -24t18 -60l-76 -528l-10 -682h25l243 604q21 55 86 55h76q68 0 74 -55z" />
    <glyph glyph-name="X" unicode="X" horiz-adv-x="1013" 
d="M764 41l-182 532l-320 -534q-38 -62 -94 -62q-30 0 -51 21t-21 51q0 29 23 62l397 639l-199 573q-6 21 -6 37q0 38 29 67q27 27 68 27q55 0 73 -55l156 -496l287 496q34 55 86 55q35 0 55 -20t20 -56q0 -25 -14 -47l-364 -598l219 -620q6 -18 6 -37q0 -40 -25 -68
t-63 -28q-59 0 -80 61z" />
    <glyph glyph-name="Y" unicode="Y" horiz-adv-x="919" 
d="M651 678l-94 -615q-3 -34 -31 -59q-27 -24 -61 -24t-55 24q-22 25 -19 59l86 615l-229 643q-8 21 -8 43q0 37 26 63q27 27 68 27q59 0 80 -61l182 -529l319 529q37 61 95 61q31 0 51 -20t20 -52q0 -30 -16 -59z" />
    <glyph glyph-name="Z" unicode="Z" horiz-adv-x="997" 
d="M141 201l738 1067h-517q-34 0 -55 18q-20 17 -20 49q0 42 26 68q27 27 68 27h612q42 0 64 -25q20 -23 14 -62l-6 -40q-6 -47 -35 -91l-725 -1056h535q34 0 53 -19q18 -18 18 -49q0 -36 -24 -63t-64 -27h-639q-41 0 -63 25t-19 61l4 27q6 46 35 90z" />
    <glyph glyph-name="bracketleft" unicode="[" horiz-adv-x="669" 
d="M133 -287l219 1637q15 84 94 84h256q34 0 56 -25q21 -24 18 -59q-3 -33 -31 -58q-27 -24 -61 -24h-168l-207 -1473h168q34 0 55 -24q22 -25 19 -58q-3 -34 -31 -59t-61 -25h-256q-38 0 -58 23q-18 21 -12 61z" />
    <glyph glyph-name="backslash" unicode="\" horiz-adv-x="733" 
d="M629 -340l-410 1690q-3 14 0 26q3 33 31 58q27 24 61 24q53 0 68 -51l407 -1686q3 -15 0 -30q-3 -33 -28 -58q-24 -24 -60 -24q-57 0 -69 51z" />
    <glyph glyph-name="bracketright" unicode="]" horiz-adv-x="669" 
d="M684 1350l-219 -1641q-15 -84 -94 -84h-256q-34 0 -56 25q-21 24 -18 59t31 60q27 24 61 24h168l207 1473h-168q-34 0 -55 24q-22 25 -19 60q3 34 31 59t61 25h256q38 0 58 -23q18 -21 12 -61z" />
    <glyph glyph-name="asciicircum" unicode="^" 
d="M770 1393l156 -625q3 -16 0 -31q-3 -29 -31 -51q-26 -20 -61 -20q-57 0 -66 45l-104 514l-254 -514q-20 -45 -78 -45q-32 0 -51 22q-18 21 -15 53q3 16 13 33l323 619q27 55 92 55q61 0 76 -55z" />
    <glyph glyph-name="underscore" unicode="_" horiz-adv-x="1005" 
d="M-106 -223q3 27 28 49q23 20 58 20h1001q34 0 51 -20q18 -21 15 -49q-3 -29 -29 -49q-25 -19 -57 -19h-1002q-32 0 -51 19q-17 17 -14 49z" />
    <glyph glyph-name="grave" unicode="`" horiz-adv-x="454" 
d="M555 1198l-2 -2q0 -68 -66 -68q-27 0 -49 25l-153 160q-23 26 -23 55q0 32 23 55q21 21 55 21q39 0 61 -31l134 -164q20 -23 20 -51z" />
    <glyph glyph-name="a" unicode="a" horiz-adv-x="1001" 
d="M932 147v3q61 -15 61 -66q0 -35 -26 -61q-27 -27 -68 -27q-111 0 -166 108q-94 -116 -252 -116q-141 0 -231 90t-90 227q0 8 4 70l41 295q21 164 139 270q116 104 281 104q137 0 262 -51q76 -27 76 -84q0 -23 -2 -35l-87 -620q-4 -32 -4 -39q0 -53 62 -68zM510 127h6
q77 0 141 61q65 62 74 146l72 524q-62 41 -178 41q-102 0 -172 -61q-71 -62 -86 -162l-45 -328l-3 -6v-16v-19q0 -86 50 -133t141 -47z" />
    <glyph glyph-name="b" unicode="b" 
d="M758 340l45 322q4 46 4 63q0 75 -47 125q-46 49 -123 49q-94 0 -160 -63q-68 -65 -80 -148l-71 -522q57 -45 182 -45q107 0 172 65q66 66 78 154zM168 150l166 1228q3 34 28 56t62 22q35 0 53 -24q20 -26 17 -58l-64 -430q5 5 29 25q20 17 80 43q59 26 127 26
q137 0 217 -92t80 -217q0 -9 -1 -20.5t-2 -28t-2 -27.5l-45 -344q-18 -144 -131 -235q-115 -92 -284 -92q-60 0 -125 12t-99 24l-32 13q-76 27 -76 84q0 23 2 35z" />
    <glyph glyph-name="c" unicode="c" horiz-adv-x="937" 
d="M623 1044l-5 -8q142 0 228 -86t86 -178q0 -40 -21 -67q-23 -29 -61 -29q-31 0 -49 18t-21 47q-3 66 -49 109t-123 43q-93 0 -153 -57q-62 -59 -74 -148l-51 -360q-2 -12 -2 -37q0 -84 49 -127t135 -43q162 0 215 164q21 63 82 63q31 0 49 -18q19 -19 19 -47
q0 -98 -105 -203t-276 -105q-147 0 -238 91q-90 90 -90 221q0 7 4 57l47 348q21 155 129 254q107 98 275 98z" />
    <glyph glyph-name="d" unicode="d" 
d="M369 696l-52 -352q-4 -36 -4 -49q0 -70 49 -119t132 -49q94 0 157 66q62 65 74 147l47 344q2 10 2 33q0 73 -47 129q-46 55 -129 55q-91 0 -154 -57t-75 -148zM690 84l-2 -4q-2 -2 -10.5 -11t-15.5 -16q-18 -18 -80 -45q-59 -26 -131 -26q-135 0 -218 92q-81 90 -81 217
q0 9 4 55l47 354q21 152 129 246q110 96 252 96q74 0 127 -26q52 -25 75 -55l19 -27l63 440q3 33 29 56q25 22 59 22t56 -25q21 -24 18 -57l-184 -1315q-3 -32 -29 -55t-59 -23t-51 21q-19 22 -19 55z" />
    <glyph glyph-name="e" unicode="e" horiz-adv-x="940" 
d="M377 692l-31 -203l309 109q127 47 127 147q0 69 -45 111q-46 43 -125 43q-87 0 -155 -59t-80 -148zM489 -20l-6 -3q-145 0 -235 84q-88 82 -88 213q0 4 4 54l51 364q21 150 135 252q112 100 277 100q143 0 227 -81q86 -83 86 -199q0 -218 -250 -307l-362 -127
q-4 -32 -4 -35q0 -78 47 -125q45 -45 127 -45q166 0 213 147q21 64 82 64q30 0 49 -19q18 -18 18 -47q0 -90 -100 -190t-271 -100z" />
    <glyph glyph-name="f" unicode="f" horiz-adv-x="591" 
d="M793 1423h-9q35 -21 35 -55q0 -33 -24 -57q-25 -25 -58 -25q-15 0 -49 12q-37 13 -61 13q-102 0 -123 -142l-21 -145h189q35 0 53 -18t18 -45q0 -38 -24 -62q-25 -25 -64 -25h-192l-166 -1183q-3 -33 -29 -56q-25 -22 -61 -22q-34 0 -53 22q-18 21 -15 56l166 1183h-82
q-30 0 -49 19q-18 18 -18 47q0 35 24 59q25 25 64 25h82l18 131q44 299 307 299q88 0 142 -31z" />
    <glyph glyph-name="g" unicode="g" 
d="M377 690l-31 -217q-4 -36 -4 -61q0 -77 49 -123q48 -45 144 -45q77 0 141 61q65 62 74 141l57 414q-47 47 -189 47q-94 0 -161 -61q-68 -62 -80 -156zM680 -45l33 240q-34 -43 -78 -70l-264 -158q-66 -41 -66 -104q0 -44 37 -74q39 -31 100 -31q95 0 160 56q66 57 78 141
zM965 879l-134 -934q-18 -142 -129 -236q-110 -94 -276 -94q-126 0 -205 61q-80 62 -80 168q0 151 150 228l117 55q-104 9 -166 86t-62 197q0 13 4 67l31 234q18 140 135 239t275 99q132 0 266 -52q76 -27 76 -84q0 -22 -2 -34z" />
    <glyph glyph-name="h" unicode="h" horiz-adv-x="1003" 
d="M506 1374l-70 -475q9 15 31 37q18 18 90 55q68 35 139 35q123 0 203 -80t80 -203q0 -37 -6 -81l-86 -615q-3 -32 -29 -55t-61 -23t-54 25q-17 23 -14 57l84 611q4 46 4 61q0 73 -45 121q-46 49 -119 49q-85 0 -159 -59t-86 -146l-89 -633q-3 -33 -28 -55q-26 -23 -62 -23
q-34 0 -53 25q-17 23 -14 57l184 1315q3 33 29 56q25 22 61 22q34 0 53 -22q20 -23 17 -56z" />
    <glyph glyph-name="i" unicode="i" horiz-adv-x="471" 
d="M299 1270h2q0 49 37 86t88 37q42 0 66 -27t24 -68q0 -49 -37 -86q-36 -36 -86 -36q-41 0 -67 26q-27 27 -27 68zM180 227l103 746q3 33 28 55q26 23 62 23q33 0 53 -23q19 -22 16 -55l-104 -735q-4 -32 -4 -39q0 -43 51 -49q72 -9 72 -68q0 -37 -25 -62q-24 -24 -70 -24
q-88 0 -137 43t-49 127q0 7 4 61z" />
    <glyph glyph-name="j" unicode="j" horiz-adv-x="491" 
d="M-125 -356l-6 -2q-35 15 -35 49q0 38 25 63t59 25q11 0 29 -6q43 -19 73 -19q48 0 89 35q40 34 49 98l151 1074q3 32 31 57q27 24 61 24q35 0 54 -22t16 -55l-149 -1057q-18 -132 -76 -199q-81 -96 -228 -96q-83 0 -143 31zM326 1268h2q0 49 37 86t88 37q41 0 65 -27
q25 -28 25 -68q0 -49 -37 -86q-36 -36 -86 -36q-42 0 -68 26t-26 68z" />
    <glyph glyph-name="k" unicode="k" horiz-adv-x="890" 
d="M686 18l-311 510l-64 -467q-3 -33 -28 -55t-62 -22q-34 0 -53 22q-17 20 -14 55l184 1315q3 33 29 56q25 22 61 22q34 0 53 -22q18 -21 15 -56l-117 -819l420 451q36 39 78 39q28 0 47 -19q18 -18 18 -47q0 -41 -33 -74l-356 -368l264 -428q14 -22 14 -50q0 -34 -20 -57
q-21 -24 -55 -24q-47 0 -70 38z" />
    <glyph glyph-name="l" unicode="l" horiz-adv-x="471" 
d="M176 227l156 1153q3 34 28 56t62 22q34 0 53 -22q20 -23 17 -56l-158 -1142q-4 -32 -4 -39q0 -43 51 -49q72 -9 72 -68q0 -37 -25 -62q-24 -24 -70 -24q-88 0 -137 43t-49 127q0 7 4 61z" />
    <glyph glyph-name="m" unicode="m" horiz-adv-x="1435" 
d="M434 967l-10 -68q6 6 10 12q6 9 31 31q27 24 51 37q34 19 68 29q41 12 80 12q46 0 86 -12q38 -11 61 -31q24 -20 37 -39q18 -26 22 -33l7 -14q12 15 34 37q20 20 90 59q67 37 140 37q117 0 188 -74q72 -75 72 -196q0 -32 -6 -84l-88 -629q-3 -33 -31 -55q-30 -23 -62 -23
q-34 0 -53 25q-17 23 -14 57l92 657q2 8 2 37q0 70 -37 107t-98 37q-72 0 -135 -54q-61 -52 -70 -133l-90 -651q-3 -33 -31 -55q-30 -23 -61 -23q-34 0 -53 25q-18 24 -15 57l94 678q3 9 3 25q0 59 -37 96t-99 37q-71 0 -139 -62q-69 -63 -78 -131l-88 -639q-3 -33 -28 -55
q-26 -23 -58 -23q-34 0 -53 25q-17 23 -14 57l127 908q3 33 28 55t60 22q34 0 51 -20t14 -55z" />
    <glyph glyph-name="n" unicode="n" horiz-adv-x="1003" 
d="M432 965l-4 -60q9 15 31 37q18 18 90 55q68 35 139 35q133 0 207 -80t74 -204q0 -38 -6 -82l-86 -615q-3 -33 -31 -55q-30 -23 -62 -23q-34 0 -53 25q-17 23 -14 57l84 611q6 50 6 69q0 66 -41 113q-39 45 -121 45q-86 0 -160 -59t-86 -146l-88 -633q-3 -34 -30 -55
q-30 -23 -62 -23q-34 0 -53 25q-17 23 -14 57l127 906q3 33 28 55t60 22q32 0 51 -22q17 -20 14 -55z" />
    <glyph glyph-name="o" unicode="o" horiz-adv-x="950" 
d="M621 1044v-2q149 0 237 -88q90 -90 90 -221q0 -7 -4 -57l-47 -348q-21 -154 -131 -252q-111 -99 -277 -99q-144 0 -235 91q-88 88 -88 221q0 7 4 57l47 348q21 153 129 252q107 98 275 98zM506 123h-2q98 0 158 57q61 58 73 150l51 360q2 12 2 37q0 77 -49 123
q-50 47 -133 47q-95 0 -155 -57q-62 -59 -74 -150l-51 -360q-2 -12 -2 -37q0 -77 49 -123q50 -47 133 -47z" />
    <glyph glyph-name="p" unicode="p" horiz-adv-x="993" 
d="M758 332l47 356q4 36 4 49q0 72 -49 121t-131 49q-93 0 -156 -63q-64 -64 -76 -154l-47 -344q-2 -10 -2 -49q0 -66 51 -117t136 -51q93 0 151 55q60 57 72 148zM428 938v-4q12 16 27 31q19 19 80 49q62 30 131 30q138 0 221 -86q82 -85 82 -210q0 -16 -4 -62l-47 -354
q-21 -151 -130 -246q-110 -96 -251 -96q-74 0 -127 26q-52 25 -76 56l-21 26l-57 -405q-3 -32 -29 -55t-57 -23q-33 0 -55 25t-19 57l180 1278q3 32 29 55t60 23q65 0 65 -74z" />
    <glyph glyph-name="q" unicode="q" 
d="M375 682l-47 -324q-4 -46 -4 -63q0 -75 47 -125q46 -49 123 -49q93 0 159 63q68 65 80 148l72 522q-57 45 -182 45q-109 0 -172 -63q-64 -64 -76 -154zM963 870l-168 -1185q-3 -33 -29 -56q-25 -22 -61 -22q-34 0 -52 24q-17 23 -14 58l53 387q-20 -20 -26 -25
q-20 -17 -80 -43q-59 -26 -127 -26q-137 0 -217 92t-80 217q0 14 4 76l45 344q18 145 133 237t287 92q63 0 127 -12q62 -12 98 -24l33 -15q76 -27 76 -84q0 -23 -2 -35z" />
    <glyph glyph-name="r" unicode="r" horiz-adv-x="622" 
d="M698 893v-8q-18 0 -30 2t-33 2q-76 0 -150 -68q-75 -69 -90 -186l-82 -584q-3 -34 -30 -55q-30 -23 -62 -23q-34 0 -53 25q-17 23 -14 57l127 908q3 33 28 55t60 22q34 0 51 -20t14 -55l-6 -52q46 58 113 95q65 36 135 36q32 0 65 -10q43 -15 43 -59q0 -33 -24 -57
q-25 -25 -62 -25z" />
    <glyph glyph-name="s" unicode="s" horiz-adv-x="901" 
d="M473 -20l-12 -7q-165 0 -248 86q-82 85 -82 179t78 94q27 0 49 -19t25 -45q3 -65 49 -108t129 -43q88 0 147 47q58 46 58 123q0 63 -68 110q-69 47 -147 74q-79 27 -148 96q-67 67 -67 170q0 137 104 219q107 84 250 84q139 0 221 -82q84 -84 84 -165q0 -37 -21 -64
t-61 -27q-68 0 -80 80q-9 53 -51 86t-111 33q-65 0 -116 -39q-54 -42 -54 -104q0 -50 45 -86q48 -38 111 -62q74 -27 129 -57q67 -36 111 -94q45 -60 45 -152q0 -143 -105 -235q-106 -92 -264 -92z" />
    <glyph glyph-name="t" unicode="t" horiz-adv-x="780" 
d="M764 231v-2q0 -106 -86 -180t-203 -74q-113 0 -184 68q-72 69 -72 174q0 26 4 72l86 585h-80q-30 0 -49 19q-18 18 -18 47q0 38 26 61q28 25 64 25h80l30 209q3 32 29 55t60 23q31 0 53 -25t16 -57l-31 -207h269q29 0 47 -18t18 -45q0 -38 -24 -62q-25 -25 -62 -25h-268
l-82 -579q-8 -44 -8 -72q0 -45 31 -73q30 -27 79 -27q119 0 140 121q3 25 22 41t47 16q30 0 47 -20q19 -22 19 -50z" />
    <glyph glyph-name="u" unicode="u" horiz-adv-x="1003" 
d="M715 59l-4 56q-9 -15 -31 -37q-21 -20 -88 -55q-65 -33 -139 -33q-133 0 -207 80t-74 206q0 38 6 82l86 615q3 33 31 55q30 23 61 23q35 0 54 -25t16 -57l-84 -611q-6 -50 -6 -69q0 -66 41 -113q39 -45 121 -45q85 0 159 59t86 146l88 633q3 33 31 55q30 23 62 23
q34 0 53 -25t16 -57l-127 -906q-3 -33 -28 -55t-58 -22q-32 0 -51 22q-17 20 -14 55z" />
    <glyph glyph-name="v" unicode="v" horiz-adv-x="974" 
d="M717 889l-8 -8q-50 18 -50 69q0 31 23 54q22 22 53 22q83 0 146 -72q61 -70 61 -178q0 -164 -37 -334q-44 -201 -153 -331q-110 -131 -301 -131q-132 0 -211 79q-80 80 -80 213q0 34 4 80l86 611q3 33 31 55t61 22q34 0 53 -22q20 -23 17 -55l-86 -633q-4 -54 -4 -60
q0 -64 40 -104q41 -41 111 -41q99 0 172 82q77 86 103 215q47 220 47 344q0 95 -78 123z" />
    <glyph glyph-name="w" unicode="w" horiz-adv-x="1458" 
d="M1280 766l-12 -6q0 95 -78 123q-49 18 -49 69q0 32 22 54t54 22q81 0 147 -72q63 -69 63 -178q0 -164 -41 -336q-47 -201 -153 -331q-107 -131 -283 -131q-73 0 -135 36q-63 37 -98 99q-119 -131 -287 -131q-118 0 -194 79q-78 81 -78 209q0 34 4 80l86 611q3 33 31 55
t61 22q34 0 53 -22q20 -23 17 -55l-86 -633q-1 -11 -2 -24t-2 -22t-1 -14q0 -64 37 -104q36 -39 97 -39q93 0 161 74t86 211l76 553q3 33 31 55t61 22q35 0 54 -22t16 -55l-90 -654q-2 -14 -2 -49q0 -60 39 -96q40 -37 92 -37q90 0 158 80t98 213q47 205 47 344z" />
    <glyph glyph-name="x" unicode="x" horiz-adv-x="868" 
d="M113 111l307 413l-187 391q-10 23 -10 50q0 32 25 57t59 25q43 0 64 -46l164 -350l249 359q24 37 70 37q28 0 47 -19t19 -45q0 -33 -27 -68l-293 -399l191 -405q12 -27 12 -50q0 -32 -25 -57q-24 -24 -57 -24q-44 0 -64 45l-168 362l-272 -371q-26 -36 -70 -36
q-29 0 -47 18t-18 45q0 26 31 68z" />
    <glyph glyph-name="y" unicode="y" 
d="M190 475l64 488q3 33 31 55t61 22q35 0 53 -24q20 -26 17 -58l-70 -493q-4 -36 -4 -62q0 -76 49 -122q48 -45 137 -45q84 0 148 61t76 147l73 521q3 33 31 55t62 22q35 0 53 -24q19 -25 16 -57l-145 -1024q-21 -146 -131 -236q-112 -92 -275 -92q-128 0 -207 61t-79 168
q0 157 157 234l107 51q-103 12 -166 90q-62 77 -62 195q0 13 4 67zM678 -49l35 237q-23 -30 -80 -67l-264 -158q-66 -41 -66 -104q0 -44 37 -74q39 -31 100 -31q95 0 160 56q66 57 78 141z" />
    <glyph glyph-name="z" unicode="z" horiz-adv-x="815" 
d="M582 -47l34 235q-26 -29 -86 -67l-258 -162q-63 -40 -63 -104q0 -42 37 -72q39 -31 98 -31q96 0 160 58q66 60 78 143zM834 901l-3 4q-9 -40 -24 -61l-354 -389q139 -3 225 -80t86 -191q0 -7 -4 -61l-25 -180q-18 -143 -129 -234q-112 -92 -274 -92q-121 0 -203 61
t-82 162q0 140 154 232q36 21 139 80q28 16 79.5 45t72.5 41q57 34 67 47q-39 28 -108 28h-129q-29 0 -48 19q-18 18 -18 53q0 62 39 107l340 382h-387q-30 0 -49 19t-19 47q0 32 25 57t61 25h506q68 0 68 -66q0 -8 -6 -55z" />
    <glyph glyph-name="braceleft" unicode="{" horiz-adv-x="686" 
d="M180 463l2 -6q-70 18 -61 80q9 66 86 81q79 15 88 89l53 366q15 112 90 203q73 88 154 129q77 39 143 39q38 0 60 -25q21 -24 18 -57q-3 -27 -25 -49q-23 -23 -53 -29q-77 -15 -141 -70t-76 -139l-47 -348q-18 -119 -145 -190q107 -67 92 -187l-51 -366q-12 -85 34 -140
q45 -53 121 -69q26 -6 43 -29q16 -22 13 -49q-3 -32 -31 -57t-68 -25q-107 0 -209 102q-101 101 -80 271l54 385q9 72 -64 90z" />
    <glyph glyph-name="bar" unicode="|" horiz-adv-x="507" 
d="M524 1374l-239 -1683q-3 -34 -31 -56t-61 -22q-35 0 -54 25q-17 23 -14 57l237 1683q3 34 31 56t62 22q35 0 53 -24q19 -25 16 -58z" />
    <glyph glyph-name="braceright" unicode="}" horiz-adv-x="686" 
d="M633 463l6 2q-77 -21 -86 -92l-53 -385q-15 -114 -92 -203q-76 -89 -156 -129q-77 -39 -143 -39q-36 0 -58 25q-21 24 -18 59q3 28 24 49q23 23 49 29q83 16 142 69q62 56 74 140l51 366q15 120 145 185q-110 70 -92 188l47 348q12 85 -33 139q-48 57 -123 72
q-63 15 -57 80q3 34 31 59t67 25q109 0 209 -100q101 -101 80 -271l-53 -366q-9 -73 61 -88q32 -6 52 -29q17 -20 14 -53q-9 -62 -88 -80z" />
    <glyph glyph-name="asciitilde" unicode="~" horiz-adv-x="1198" 
d="M899 610h-4q77 0 104 70q21 55 82 55q35 0 54 -22t16 -56q-9 -70 -86 -135t-180 -65q-88 0 -234 61q-148 62 -186 62q-78 0 -105 -70q-24 -55 -79 -55q-33 0 -52 22q-17 20 -14 55q9 71 86 136t182 65q85 0 222 -61q139 -62 194 -62z" />
    <glyph glyph-name="exclamdown" unicode="&#xa1;" horiz-adv-x="528" 
d="M360 1024l93 -2q23 0 34 -14q14 -17 11 -37l-13 -99q-3 -22 -20 -36q-18 -15 -39 -15h-98q-21 0 -33 15q-11 14 -8 36l12 99q3 23 20 37q19 16 41 16zM424 592l-133 -942q-6 -38 -33 -62t-61 -24q-35 0 -56 24q-20 23 -14 62l131 940q3 34 31 59t61 25q34 0 56 -25
q21 -24 18 -57z" />
    <glyph glyph-name="cent" unicode="&#xa2;" horiz-adv-x="1073" 
d="M805 1092l-14 -84q106 -21 170 -97q61 -73 61 -155q0 -43 -25 -74t-65 -31q-65 0 -68 66t-47 110q-43 43 -117 43q-89 0 -155 -57q-68 -59 -80 -147l-45 -330q-2 -8 -2 -37q0 -77 49 -123q48 -45 131 -45q82 0 141 47q60 48 78 117q6 26 31 45q24 18 53 18q31 0 49 -18
q19 -19 19 -47q0 -82 -84 -178t-232 -123l-12 -76q-3 -33 -31 -55q-30 -23 -61 -23q-30 0 -49 19t-19 47v12v12l11 70q-113 21 -175 98q-61 76 -61 189q0 7 4 57l47 334q18 131 107 223t223 119l10 74q3 32 31 57t61 25q30 0 49 -19t19 -47q0 -10 -2 -16z" />
    <glyph glyph-name="sterling" unicode="&#xa3;" horiz-adv-x="1073" 
d="M942 1094l-6 -7q0 5 4 29t4 31q0 57 -43 100t-102 43q-69 0 -125 -47q-55 -46 -64 -117l-55 -395h199q28 0 49 -18q20 -17 20 -47q0 -42 -26 -68q-27 -27 -68 -27h-199l-59 -419h442q31 0 50 -19q18 -18 18 -49q0 -40 -27 -64t-63 -24h-684q-33 0 -51 18q-19 19 -19 47
q0 39 29 68q27 27 65 27h68l59 419h-67q-32 0 -51 19t-19 47q0 39 29 68q26 26 65 26h68l53 385q18 146 123 240q104 94 260 94q128 0 213 -82q86 -83 86 -203q0 -23 -4 -59q-3 -35 -33 -59q-31 -25 -63 -25q-34 0 -55 18t-21 50z" />
    <glyph glyph-name="currency" unicode="&#xa4;" horiz-adv-x="1073" 
d="M221 600h-2q0 131 74 246l-57 63q-25 25 -25 58q0 29 20 49q22 22 50 22q33 0 57 -24l59 -64q101 76 240 76q131 0 235 -78l66 66q21 24 55 24q29 0 49 -20q21 -21 21 -49t-23 -58l-65 -65q78 -113 78 -246t-78 -246l65 -65q23 -30 23 -58q0 -29 -19 -51q-17 -20 -49 -20
q-34 0 -55 24l-66 64q-101 -76 -235 -76q-139 0 -240 76l-59 -64q-24 -24 -57 -24q-30 0 -50 20t-20 51q0 33 25 58l57 61q-74 118 -74 250zM367 600h-2q0 -118 75 -199q76 -82 191 -82q108 0 184 82q78 84 78 199q0 117 -76 199t-184 82q-115 0 -191 -82q-75 -81 -75 -199z
" />
    <glyph glyph-name="yen" unicode="&#xa5;" horiz-adv-x="1073" 
d="M911 401h-260l-47 -338q-3 -36 -31 -61t-63 -25q-34 0 -55 21t-21 55q0 19 2 31l45 317h-252q-30 0 -49 19q-18 18 -18 49q0 43 26 66q27 24 68 24h252l16 119l-8 24h-240q-30 0 -49 19q-18 18 -18 47q0 41 27 68q26 26 67 26h164l-168 461q-6 18 -6 41q0 37 29 66
q28 28 67 28q53 0 74 -61l182 -529l320 529q37 61 96 61q32 0 49 -20q18 -21 18 -52t-18 -61l-295 -461h158q33 0 51 -18t18 -47q0 -42 -26 -68t-64 -26h-235l-17 -25l-16 -119h248q33 0 51 -18t18 -47q0 -42 -26 -68q-27 -27 -64 -27z" />
    <glyph glyph-name="brokenbar" unicode="&#xa6;" horiz-adv-x="507" 
d="M524 1374l-92 -618q-3 -33 -31 -58q-27 -24 -61 -24q-32 0 -51 22q-18 21 -15 56l88 626q3 34 31 56t62 22q35 0 53 -24q19 -25 16 -58zM371 326l-90 -635q-3 -34 -31 -56t-62 -22t-53 25q-17 23 -14 57l88 627q3 32 31 57q27 24 61 24t53 -22q20 -23 17 -55z" />
    <glyph glyph-name="section" unicode="&#xa7;" horiz-adv-x="1044" 
d="M528 -20l-10 2q-145 0 -227 73t-82 158q0 41 31 72q30 30 69 30q59 0 74 -65q10 -34 20 -51q12 -21 46 -39q36 -19 86 -19q81 0 122 41t41 86q0 46 -49 86q-46 38 -117 74q-79 40 -135 74q-67 40 -116 104q-50 65 -50 148q0 167 142 276q-25 45 -25 100q0 128 98 226
t265 98q141 0 221 -74t80 -157q0 -44 -27 -74q-28 -31 -67 -31q-62 0 -74 62q-18 112 -142 112q-82 0 -129 -41q-45 -39 -45 -86q0 -45 50 -86q45 -37 116 -73q101 -52 140 -74q67 -38 118 -105q49 -64 49 -147q0 -166 -141 -277q25 -58 25 -112q0 -121 -99 -215
q-101 -96 -258 -96zM748 518l-3 -2q70 46 70 123q0 59 -49 102q-52 45 -152 97q-92 47 -141 80q-70 -52 -70 -123q0 -59 54 -107q48 -42 151 -94q104 -52 140 -76z" />
    <glyph glyph-name="dieresis" unicode="&#xa8;" horiz-adv-x="520" 
d="M182 1272l6 -2q0 44 31 80q28 32 78 32q39 0 63 -24q25 -25 25 -64q0 -41 -37 -75q-36 -33 -80 -33q-37 0 -61 24q-25 25 -25 62zM502 1268h-2q0 43 35 78q34 34 79 34q40 0 64 -24t24 -62q0 -46 -34 -80q-32 -32 -78 -32q-40 0 -64 24t-24 62z" />
    <glyph glyph-name="copyright" unicode="&#xa9;" horiz-adv-x="1423" 
d="M1247 530l-2 371q0 173 -125 295q-126 123 -301 123q-179 0 -305 -123q-127 -124 -127 -295v-371q0 -170 127 -294q126 -123 305 -123q175 0 301 123q127 124 127 294zM1384 885v-340q0 -235 -165 -400t-402 -165q-238 0 -403 165q-166 166 -166 400v340q0 233 166 399
t403 166q236 0 402 -166q165 -165 165 -399zM825 293l-2 -12q-123 0 -196 73q-74 74 -74 189v334q0 107 74 184q73 76 196 76q114 0 185 -80q69 -78 69 -168q0 -29 -20 -49q-21 -21 -51 -21q-28 0 -50 19q-21 18 -24 43q-9 51 -39 86q-28 32 -74 32q-59 0 -94 -38
q-37 -40 -37 -99v-299q0 -63 37 -100t96 -37q99 0 123 119q3 24 25 43q21 18 49 18q29 0 49 -20t20 -49q0 -91 -69 -166q-72 -78 -193 -78z" />
    <glyph glyph-name="ordfeminine" unicode="&#xaa;" horiz-adv-x="714" 
d="M707 944l-5 -8q0 -18 19 -31q27 -18 35 -26q16 -16 16 -45q0 -33 -22 -52q-21 -18 -56 -18q-58 0 -98 61q-69 -63 -172 -63q-85 0 -141 59t-56 148q0 49 2 65l17 166q9 106 90 178q79 70 188 70q97 0 176 -33q60 -22 54 -80l-43 -338q0 -14 -2 -26t-2 -27zM453 879v-2
q45 0 82 34t43 78l45 320q-46 18 -103 18q-58 0 -98 -37q-41 -38 -47 -92l-21 -172q-4 -46 -4 -57q0 -40 29 -66q27 -24 74 -24zM672 567h-422q-22 0 -37 15q-14 14 -14 36q0 30 20 50t49 20h422q23 0 37 -14t14 -37q0 -29 -20 -49q-21 -21 -49 -21z" />
    <glyph glyph-name="guillemotleft" unicode="&#xab;" horiz-adv-x="1075" 
d="M610 821l-211 -227l146 -225q10 -17 10 -41q0 -33 -25 -58q-24 -24 -57 -24q-37 0 -57 33l-172 268q-11 18 -11 37q0 34 27 61l244 266q29 33 67 33q29 0 47 -18q19 -19 19 -45q0 -30 -27 -60zM975 821l-209 -227l145 -225q11 -18 11 -41q0 -33 -25 -58q-24 -24 -57 -24
q-38 0 -58 33l-172 268q-10 17 -10 37q0 34 27 61l243 266q29 33 68 33q27 0 45 -18t18 -45q0 -31 -26 -60z" />
    <glyph glyph-name="logicalnot" unicode="&#xac;" horiz-adv-x="1198" 
d="M1184 770l-64 -436q-3 -34 -30 -55q-30 -23 -62 -23q-34 0 -53 25q-17 23 -14 57l49 346h-719q-34 0 -53 25q-18 24 -15 57q3 32 31 57t61 25h799q33 0 53 -23t17 -55z" />
    <glyph glyph-name="registered" unicode="&#xae;" horiz-adv-x="1218" 
d="M1102 954v303q0 138 -105 240t-247 102q-147 0 -250 -100q-105 -102 -105 -239v-306q0 -137 105 -239q106 -103 250 -103q141 0 247 103q105 102 105 239zM1217 1243l-3 -278q0 -193 -135 -328t-327 -135q-195 0 -330 135t-135 328v278q0 193 135 328t330 135
q194 0 329 -135q136 -136 136 -328zM829 1163l2 113q0 19 -14 33t-31 14h-112v-203h112q18 0 31 13q12 12 12 30zM848 809l-88 192h-84v-180q0 -20 -19 -39q-18 -18 -39 -18q-20 0 -38 18q-19 19 -19 41v545q0 23 17 43q16 19 43 19h170q63 0 110 -44t47 -108v-102
q0 -41 -20 -80q-21 -41 -51 -62l79 -184q5 -20 5 -21q0 -19 -19 -38t-39 -19q-40 0 -55 37z" />
    <glyph glyph-name="macron" unicode="&#xaf;" horiz-adv-x="548" 
d="M178 1262q0 33 27 57t63 24h389q32 0 50 -18t18 -47q0 -33 -27 -57q-28 -25 -63 -25h-389q-31 0 -49 18q-19 19 -19 48z" />
    <glyph glyph-name="degree" unicode="&#xb0;" horiz-adv-x="802" 
d="M264 1157q0 123 88 211t211 88t211 -88t88 -211t-88 -211t-211 -88t-211 88t-88 211zM397 1157q0 -68 49 -117t117 -49q70 0 119 49t49 117t-49 117t-119 49q-68 0 -117 -49t-49 -117z" />
    <glyph glyph-name="plusminus" unicode="&#xb1;" horiz-adv-x="1198" 
d="M307 782l314 17l26 182q3 33 31 55q30 23 61 23q35 0 54 -25t16 -57l-27 -182h318q34 0 53 -25t16 -57q-3 -34 -30 -58t-62 -24h-317l-25 -182q-3 -34 -30 -58t-62 -24q-32 0 -51 22q-17 20 -14 55l24 183h-321q-33 0 -52 22q-17 20 -14 56q3 33 31 55t61 22zM1008 158
l-803 8q-32 0 -51 22q-18 21 -15 56q3 33 31 55q30 23 61 23h799q34 0 53 -25q20 -26 17 -57q-3 -33 -31 -58q-27 -24 -61 -24z" />
    <glyph glyph-name="twosuperior" unicode="&#xb2;" horiz-adv-x="634" 
d="M317 1522l-4 -2q9 67 80 129q70 61 172 61q101 0 156 -61q56 -62 41 -156q-9 -68 -66 -135q-57 -66 -116 -105q-62 -41 -123 -96t-76 -108h270q27 0 43 -19t13 -45q-3 -28 -25 -47q-21 -18 -49 -18h-350q-35 0 -50 18t-12 51q12 93 76 172q68 83 131 127q71 49 127 105
q60 60 66 106q6 37 -17 60q-22 22 -55 22q-81 0 -105 -76q-18 -49 -71 -49q-27 0 -43 19t-13 47z" />
    <glyph glyph-name="threesuperior" unicode="&#xb3;" horiz-adv-x="626" 
d="M242 1094l6 -4q3 28 24 49q22 22 50 22q24 0 43 -16q17 -14 20 -41q0 -68 80 -68q37 0 65 25q30 26 35 63l19 133q9 62 -62 62h-41q-55 0 -49 61q6 35 27 56l116 123h-182q-27 0 -45 18q-17 17 -14 47q3 29 24 47q22 19 50 19h305q27 0 43 -19q15 -18 12 -45
q-3 -24 -18 -39l-136 -149q130 -41 109 -178l-18 -134q-12 -88 -89 -153q-76 -64 -172 -64q-106 0 -159 62q-52 61 -43 123z" />
    <glyph glyph-name="acute" unicode="&#xb4;" horiz-adv-x="454" 
d="M238 1188h-2q0 31 28 59l172 166q36 31 68 31q28 0 47 -19q18 -18 18 -45q0 -44 -39 -73l-186 -152q-28 -25 -53 -25q-22 0 -39 17q-14 14 -14 41z" />
    <glyph glyph-name="mu" unicode="&#xb5;" horiz-adv-x="1021" 
d="M893 -12h-14q-53 0 -95 39t-45 79q-114 -126 -266 -126q-117 0 -180 69l-51 -358q-3 -33 -29 -56q-25 -22 -57 -22q-35 0 -54 25q-17 23 -14 57l180 1274q3 33 31 55q30 23 61 23q35 0 54 -25t16 -57l-90 -639q-2 -10 -2 -35q0 -71 43 -117q42 -45 121 -45q96 0 166 61
q71 62 86 166l86 609q3 34 30 55q28 22 62 22q35 0 53 -24q19 -25 16 -57l-106 -752v-8v-13q0 -35 39 -49q49 -18 49 -65q0 -37 -25 -62q-24 -24 -65 -24z" />
    <glyph glyph-name="paragraph" unicode="&#xb6;" horiz-adv-x="1009" 
d="M672 -309l219 1577h-127l-223 -1590q-3 -33 -31 -55t-61 -22q-36 0 -54 24q-17 23 -14 58l133 948q-132 21 -219 114q-86 92 -86 226q0 190 133 323t336 133h297q50 0 72 -28t16 -68l-232 -1644q-3 -35 -30 -56q-28 -22 -62 -22q-35 0 -53 24q-17 23 -14 58z" />
    <glyph glyph-name="periodcentered" unicode="&#xb7;" horiz-adv-x="466" 
d="M352 496l-98 -2q-22 0 -35 16t-10 37l14 98q3 21 19 37q14 14 37 14h98q24 0 35 -14q13 -16 10 -37l-14 -98q-3 -21 -19 -37q-14 -14 -37 -14z" />
    <glyph glyph-name="cedilla" unicode="&#xb8;" horiz-adv-x="303" 
d="M-66 -322l-4 3q0 27 19 43t41 16h88q25 0 41 16t16 37q0 17 -12 29t-33 12h-41q-47 0 -47 43q0 17 2 23l14 100h119l-8 -57q60 0 102 -39q43 -40 43 -99q0 -69 -51 -120q-54 -54 -135 -54h-108q-21 0 -33 15q-13 16 -13 32z" />
    <glyph glyph-name="onesuperior" unicode="&#xb9;" horiz-adv-x="458" 
d="M567 1638l-98 -659q-3 -28 -29 -47q-25 -19 -53 -19t-47 19q-17 17 -14 47l82 584l-86 -27q-12 -6 -29 -6q-21 0 -37 16q-15 15 -12 43q6 46 61 64l154 47q18 6 41 6q28 0 49 -18t18 -50z" />
    <glyph glyph-name="ordmasculine" unicode="&#xba;" horiz-adv-x="698" 
d="M758 1225l-37 -230q-12 -94 -80 -153q-69 -60 -180 -60q-94 0 -154 54q-59 53 -59 133q0 13 4 49l31 217q15 94 86 156q70 61 182 61q94 0 151 -51q60 -54 60 -129q0 -11 -4 -47zM592 995l31 209q4 36 4 37q0 35 -27 59q-28 25 -68 25q-49 0 -79 -27q-32 -29 -35 -67
l-29 -199q-4 -36 -4 -49q0 -33 25 -61q24 -27 65 -27q48 0 80 29q31 28 37 71zM610 569h-362q-22 0 -37 15q-14 14 -14 37q0 29 20 49t49 20h363q23 0 37 -14t14 -37q0 -28 -21 -49t-49 -21z" />
    <glyph glyph-name="guillemotright" unicode="&#xbb;" horiz-adv-x="1075" 
d="M836 594l-144 229q-12 18 -12 39q0 35 25 60q24 24 57 24q39 0 59 -33l170 -266q10 -17 10 -43q0 -33 -22 -55l-246 -268q-29 -33 -69 -33q-27 0 -46 16q-18 15 -18 43q0 33 29 62zM469 596l-143 229q-13 19 -13 39q0 35 25 60q24 24 57 24q40 0 60 -33l170 -266
q10 -17 10 -43q0 -32 -23 -55l-245 -268q-29 -33 -70 -33q-26 0 -45 16t-19 43q0 33 29 62z" />
    <glyph glyph-name="onequarter" unicode="&#xbc;" horiz-adv-x="1288" 
d="M1186 1376l-889 -1372q-15 -27 -49 -27q-23 0 -37 17q-11 14 -8 37q0 11 8 24l889 1370q21 27 49 27q26 0 37 -14q13 -16 10 -37q-6 -21 -10 -25zM571 1382l-100 -659q-3 -28 -29 -47q-25 -19 -53 -19q-26 0 -45 19q-17 17 -14 47l82 584l-86 -27q-12 -6 -29 -6
q-21 0 -37 16q-15 15 -12 43q6 46 61 64l154 47q18 6 41 6q28 0 49 -18t18 -50zM678 250l293 500q23 38 67 38q30 0 47 -20q18 -21 15 -49q-6 -21 -10 -29l-240 -407h156l12 88q3 26 29 49q25 22 53 22q30 0 47 -20t14 -49l-12 -88h18q28 0 43 -21q16 -22 13 -49
q-3 -26 -25 -45q-21 -18 -49 -18h-19l-14 -95q-3 -29 -26 -49t-54 -20q-30 0 -47 20t-14 49l14 95h-266q-27 0 -45 18q-17 17 -14 47q4 15 14 33z" />
    <glyph glyph-name="onehalf" unicode="&#xbd;" horiz-adv-x="1284" 
d="M1176 1376l-889 -1372q-15 -27 -49 -27q-23 0 -37 17q-11 14 -8 37q0 11 8 24l889 1370q21 27 49 27q26 0 37 -14q13 -16 10 -37q-6 -21 -10 -25zM571 1382l-100 -659q-3 -28 -29 -47q-25 -19 -53 -19q-26 0 -45 19q-17 17 -14 47l82 584l-86 -27q-12 -6 -29 -6
q-21 0 -37 16q-15 15 -12 43q6 46 61 64l154 47q18 6 41 6q28 0 49 -18t18 -50zM811 602l-4 -2q9 67 80 129t172 62q99 0 155 -62t41 -156q-9 -70 -65 -135q-54 -62 -117 -104q-61 -40 -123 -96q-60 -55 -76 -109h271q28 0 43 -18t12 -45q-3 -30 -24 -48t-50 -18h-350
q-34 0 -49 18t-12 52q12 93 76 172q68 83 131 127q74 51 127 104q59 59 65 107q6 37 -16 59q-23 23 -56 23q-80 0 -104 -76q-18 -49 -72 -49q-28 0 -43 18t-12 47z" />
    <glyph glyph-name="threequarters" unicode="&#xbe;" horiz-adv-x="1421" 
d="M1333 1376l-889 -1372q-15 -27 -49 -27q-23 0 -37 17q-11 14 -8 37q0 11 8 24l889 1370q21 27 49 27q26 0 37 -14q13 -16 10 -37q-6 -21 -10 -25zM831 248l293 500q23 38 68 38q30 0 47 -20t14 -49q-6 -21 -10 -29l-239 -407h155l12 88q3 26 29 49q25 22 53 22
q30 0 47 -20q18 -21 15 -49l-12 -88h18q28 0 43 -21t12 -49q-3 -27 -24 -45t-49 -18h-19l-14 -95q-3 -28 -27 -49q-23 -20 -53 -20t-47 20q-18 21 -15 49l15 95h-266q-28 0 -46 18q-17 17 -14 47q4 15 14 33zM223 831l13 -6q3 31 24 52q20 20 49 20q24 0 43 -16
q18 -15 21 -41q0 -68 80 -68q37 0 65 25t31 61l18 133q3 27 -12 45q-16 19 -49 19h-41q-58 0 -49 61q3 34 24 55l117 123h-182q-26 0 -45 19q-18 18 -15 47q3 28 25 47q21 18 49 18h305q28 0 43 -18q16 -19 13 -45q-3 -19 -17 -37l-137 -149q130 -41 109 -179l-19 -133
q-12 -89 -88 -153t-172 -64q-107 0 -160 62q-52 61 -43 122z" />
    <glyph glyph-name="questiondown" unicode="&#xbf;" horiz-adv-x="966" 
d="M623 1024l98 -2q24 0 35 -14q13 -16 10 -37l-14 -99q-3 -20 -19 -36q-15 -15 -37 -15h-98q-21 0 -35 17q-13 16 -10 36l14 99q3 21 19 37q14 14 37 14zM864 -100v-11q0 -107 -116 -217t-297 -110q-148 0 -252 90q-101 88 -101 233q0 90 41 174q41 83 99 144
q68 71 118 119q62 59 109 127q46 66 55 139q3 33 35 59q31 25 66 25q31 0 49 -21t18 -51q0 -84 -43 -160q-48 -84 -100 -139q-78 -82 -119 -121q-59 -56 -104 -129q-43 -70 -43 -145t53 -125q52 -49 133 -49q82 0 143 43t88 114q27 82 92 82q34 0 54 -20q22 -22 22 -51z" />
    <glyph glyph-name="Agrave" unicode="&#xc0;" horiz-adv-x="1034" 
d="M821 616l-108 662h-39l-293 -662h440zM653 1446h125q63 0 72 -55l137 -760q3 -18 0 -37l-74 -531q-3 -34 -28 -59q-24 -24 -60 -24q-33 0 -57 24q-23 23 -20 59l55 400h-453l-55 -400q-3 -33 -29 -59q-24 -24 -59 -24q-33 0 -57 24t-21 59l74 531q3 17 12 37l350 760
q24 55 88 55zM801 1608l-2 -2q0 -68 -66 -68q-27 0 -49 25l-154 159q-22 25 -22 56q0 33 22 55q20 20 56 20q40 0 61 -30l133 -164q21 -24 21 -51z" />
    <glyph glyph-name="Aacute" unicode="&#xc1;" horiz-adv-x="1034" 
d="M821 616l-108 662h-39l-293 -662h440zM653 1446h125q63 0 72 -55l137 -760q3 -18 0 -37l-74 -531q-3 -34 -28 -59q-24 -24 -60 -24q-33 0 -57 24q-23 23 -20 59l55 400h-453l-55 -400q-3 -33 -29 -59q-24 -24 -59 -24q-33 0 -57 24t-21 59l74 531q3 17 12 37l350 760
q24 55 88 55zM647 1597h-2q0 31 29 60l172 166q34 30 67 30q30 0 48 -18t18 -45q0 -45 -39 -74l-186 -151q-28 -25 -54 -25q-22 0 -38 16q-15 15 -15 41z" />
    <glyph glyph-name="Acircumflex" unicode="&#xc2;" horiz-adv-x="1034" 
d="M821 616l-108 662h-39l-293 -662h440zM653 1446h125q63 0 72 -55l137 -760q3 -18 0 -37l-74 -531q-3 -34 -28 -59q-24 -24 -60 -24q-33 0 -57 24q-23 23 -20 59l55 400h-453l-55 -400q-3 -33 -29 -59q-24 -24 -59 -24q-33 0 -57 24t-21 59l74 531q3 17 12 37l350 760
q24 55 88 55zM475 1583l-2 -4q0 26 29 55l170 158q37 37 86 37q46 0 73 -37l144 -164q14 -17 14 -39q0 -28 -20 -45q-21 -18 -49 -18q-21 0 -43 22l-129 131l-162 -133q-26 -20 -51 -20q-22 0 -41 16t-19 41z" />
    <glyph glyph-name="Atilde" unicode="&#xc3;" horiz-adv-x="1034" 
d="M821 616l-108 662h-39l-293 -662h440zM653 1446h125q63 0 72 -55l137 -760q3 -18 0 -37l-74 -531q-3 -34 -28 -59q-24 -24 -60 -24q-33 0 -57 24q-23 23 -20 59l55 400h-453l-55 -400q-3 -33 -29 -59q-24 -24 -59 -24q-33 0 -57 24t-21 59l74 531q3 17 12 37l350 760
q24 55 88 55zM629 1776q56 0 127 -45t104 -45q41 0 62 40q21 50 71 50q58 0 58 -58q0 -62 -62 -112t-137 -50q-52 0 -125 43t-104 43q-41 0 -62 -40q-21 -50 -72 -50q-55 0 -55 56q0 62 60 116q58 52 135 52z" />
    <glyph glyph-name="Adieresis" unicode="&#xc4;" horiz-adv-x="1034" 
d="M821 616l-108 662h-39l-293 -662h440zM653 1446h125q63 0 72 -55l137 -760q3 -18 0 -37l-74 -531q-3 -34 -28 -59q-24 -24 -60 -24q-33 0 -57 24q-23 23 -20 59l55 400h-453l-55 -400q-3 -33 -29 -59q-24 -24 -59 -24q-33 0 -57 24t-21 59l74 531q3 17 12 37l350 760
q24 55 88 55zM492 1681l6 -2q0 45 30 80q29 33 78 33q39 0 64 -25q24 -24 24 -63q0 -42 -37 -76q-36 -33 -79 -33q-37 0 -62 25q-24 24 -24 61zM811 1677h-2q0 43 35 78t80 35q38 0 63 -25t25 -61q0 -45 -35 -80q-33 -33 -78 -33q-38 0 -63 25t-25 61z" />
    <glyph glyph-name="Aring" unicode="&#xc5;" horiz-adv-x="1034" 
d="M821 616l-108 662h-39l-293 -662h440zM653 1446h125q63 0 72 -55l137 -760q3 -18 0 -37l-74 -531q-3 -34 -28 -59q-24 -24 -60 -24q-33 0 -57 24q-23 23 -20 59l55 400h-453l-55 -400q-3 -33 -29 -59q-24 -24 -59 -24q-33 0 -57 24t-21 59l74 531q3 17 12 37l350 760
q24 55 88 55zM741 1626l-4 -6q36 0 56 20t20 56q0 24 -16 43q-15 18 -43 18q-32 0 -52 -20t-20 -49q0 -24 16 -43t43 -19zM733 1513l2 -2q-71 0 -119 45q-49 46 -49 113q0 76 56 129t133 53q70 0 116 -43q48 -45 48 -108q0 -74 -54 -131q-53 -56 -133 -56z" />
    <glyph glyph-name="AE" unicode="&#xc6;" horiz-adv-x="1343" 
d="M676 1272l-291 -656h322l92 656h-123zM913 836l316 -9q34 0 53 -22t16 -55q-3 -35 -30 -56q-28 -22 -62 -22h-319l-72 -514h385q34 0 53 -25q20 -26 17 -57q-3 -34 -31 -56t-61 -22h-478q-33 0 -55 25q-21 24 -18 59l53 379h-328l-55 -400q-3 -33 -29 -59
q-25 -25 -59 -25q-32 0 -57 25q-24 24 -21 59l74 531q3 17 12 37l344 747q24 56 88 56h715q33 0 53 -23q18 -21 15 -55q-3 -32 -29 -58q-24 -24 -60 -24h-368z" />
    <glyph glyph-name="Ccedilla" unicode="&#xc7;" horiz-adv-x="1015" 
d="M735 1454l-14 -6q136 0 240 -82t104 -211q0 -41 -27 -76q-25 -32 -69 -32q-33 0 -51 18q-20 20 -23 53q-6 76 -57 121q-53 47 -129 47q-99 0 -166 -61q-68 -62 -80 -154l-98 -692q-5 -45 -5 -62q0 -78 56 -131q54 -51 141 -51q98 0 160 53q63 54 84 146q9 36 35 59t61 23
q33 0 55 -19q21 -18 21 -49q0 -139 -113 -246t-270 -122l-4 -39q60 0 102 -39q43 -40 43 -99q0 -69 -51 -120q-54 -54 -135 -54h-109q-21 0 -33 15t-12 32q0 27 19 43q20 17 41 17h88q25 0 41 16t16 37q0 17 -12 29t-33 12h-41q-47 0 -47 43q0 17 2 23l12 86
q-130 21 -207 110t-77 215q0 55 10 133l90 635q21 163 141 271t301 108z" />
    <glyph glyph-name="Egrave" unicode="&#xc8;" 
d="M819 0l-579 -4q-33 0 -52 22q-17 20 -14 56l178 1274q3 32 31 57t61 25h560q33 0 53 -23q17 -20 14 -55q-3 -32 -29 -58q-24 -24 -59 -24h-467l-61 -436h417q34 0 54 -23q19 -22 16 -55q-3 -34 -31 -56t-61 -22h-418l-74 -514h484q34 0 53 -25t16 -57q-3 -33 -30 -57
q-28 -25 -62 -25zM791 1604l-3 -2q0 -68 -65 -68q-27 0 -49 25l-154 159q-22 25 -22 56q0 33 22 55q20 20 55 20q41 0 62 -30l133 -164q21 -24 21 -51z" />
    <glyph glyph-name="Eacute" unicode="&#xc9;" 
d="M819 0l-579 -4q-33 0 -52 22q-17 20 -14 56l178 1274q3 32 31 57t61 25h560q33 0 53 -23q17 -20 14 -55q-3 -32 -29 -58q-24 -24 -59 -24h-467l-61 -436h417q34 0 54 -23q19 -22 16 -55q-3 -34 -31 -56t-61 -22h-418l-74 -514h484q34 0 53 -25t16 -57q-3 -33 -30 -57
q-28 -25 -62 -25zM659 1593h-2q0 31 29 60l172 166q34 30 68 30q29 0 47 -18t18 -45q0 -45 -39 -74l-186 -151q-28 -25 -53 -25q-23 0 -39 16q-15 15 -15 41z" />
    <glyph glyph-name="Ecircumflex" unicode="&#xca;" 
d="M819 0l-579 -4q-33 0 -52 22q-17 20 -14 56l178 1274q3 32 31 57t61 25h560q33 0 53 -23q17 -20 14 -55q-3 -32 -29 -58q-24 -24 -59 -24h-467l-61 -436h417q34 0 54 -23q19 -22 16 -55q-3 -34 -31 -56t-61 -22h-418l-74 -514h484q34 0 53 -25t16 -57q-3 -33 -30 -57
q-28 -25 -62 -25zM492 1579l-3 -4q0 26 29 55l170 158q37 37 86 37q47 0 74 -37l143 -164q15 -18 15 -39q0 -27 -21 -45t-49 -18q-21 0 -43 22l-129 131l-162 -133q-26 -20 -51 -20q-22 0 -41 16q-18 15 -18 41z" />
    <glyph glyph-name="Edieresis" unicode="&#xcb;" 
d="M819 0l-579 -4q-33 0 -52 22q-17 20 -14 56l178 1274q3 32 31 57t61 25h560q33 0 53 -23q17 -20 14 -55q-3 -32 -29 -58q-24 -24 -59 -24h-467l-61 -436h417q34 0 54 -23q19 -22 16 -55q-3 -34 -31 -56t-61 -22h-418l-74 -514h484q34 0 53 -25t16 -57q-3 -33 -30 -57
q-28 -25 -62 -25zM508 1677l6 -2q0 44 31 80q29 33 78 33q38 0 63 -25t25 -63q0 -42 -37 -76q-36 -33 -80 -33q-37 0 -62 25q-24 24 -24 61zM827 1673h-2q0 43 35 78t80 35q39 0 64 -25q24 -24 24 -61q0 -45 -35 -80q-33 -33 -78 -33q-38 0 -63 25t-25 61z" />
    <glyph glyph-name="Igrave" unicode="&#xcc;" horiz-adv-x="499" 
d="M528 1370l-186 -1307q-3 -36 -31 -61t-67 -25q-36 0 -58 25q-21 24 -18 59l184 1307q3 37 31 62q27 24 68 24q38 0 59 -24t18 -60zM535 1608l-3 -2q0 -68 -65 -68q-27 0 -49 25l-154 159q-22 25 -22 56q0 33 22 55q20 20 55 20q41 0 62 -30l133 -164q21 -24 21 -51z" />
    <glyph glyph-name="Iacute" unicode="&#xcd;" horiz-adv-x="499" 
d="M528 1370l-186 -1307q-3 -36 -31 -61t-67 -25q-36 0 -58 25q-21 24 -18 59l184 1307q3 37 31 62q27 24 68 24q38 0 59 -24t18 -60zM418 1597q0 32 28 60l172 166q34 30 68 30q27 0 45 -18q19 -19 19 -45q0 -45 -39 -74l-187 -151q-28 -25 -53 -25q-23 0 -39 16
q-14 14 -14 41z" />
    <glyph glyph-name="Icircumflex" unicode="&#xce;" horiz-adv-x="499" 
d="M528 1370l-186 -1307q-3 -36 -31 -61t-67 -25q-36 0 -58 25q-21 24 -18 59l184 1307q3 37 31 62q27 24 68 24q38 0 59 -24t18 -60zM211 1583l-2 -4q0 26 29 55l170 158q37 37 86 37q46 0 73 -37l144 -164q14 -17 14 -39q0 -28 -20 -45q-21 -18 -50 -18q-21 0 -43 22
l-129 131l-161 -133q-26 -20 -52 -20q-22 0 -41 16q-18 15 -18 41z" />
    <glyph glyph-name="Idieresis" unicode="&#xcf;" horiz-adv-x="499" 
d="M528 1370l-186 -1307q-3 -36 -31 -61t-67 -25q-36 0 -58 25q-21 24 -18 59l184 1307q3 37 31 62q27 24 68 24q38 0 59 -24t18 -60zM227 1681l6 -2q0 44 31 80q29 33 78 33q39 0 64 -25q24 -24 24 -63q0 -42 -37 -76q-36 -33 -80 -33q-36 0 -61 25t-25 61zM547 1677h-2
q0 43 35 78t79 35q39 0 64 -25t25 -61q0 -45 -35 -80q-33 -33 -78 -33q-39 0 -64 25q-24 24 -24 61z" />
    <glyph glyph-name="Eth" unicode="&#xd0;" horiz-adv-x="1087" 
d="M575 0l-321 -6q-32 0 -51 22q-18 21 -15 56l84 604h-77q-35 0 -54 22q-17 20 -14 54q3 30 29 53q25 22 59 22h78l74 523q3 33 30 57q28 25 62 25h295q147 0 243 -93q97 -94 97 -231q0 -1 -4 -51l-95 -680q-21 -164 -137 -271q-115 -106 -283 -106zM817 369l94 680
q2 14 2 30q0 79 -55 131t-137 52h-201l-61 -441h141q36 0 53 -20q20 -23 17 -51q-3 -29 -29 -52q-23 -20 -59 -20h-142l-73 -522h200q94 0 164 61q71 62 86 152z" />
    <glyph glyph-name="Ntilde" unicode="&#xd1;" horiz-adv-x="1116" 
d="M772 51l-305 1043q-19 -204 -43 -377l-92 -656q-3 -35 -29 -61q-25 -25 -61 -25q-37 0 -56 25q-17 23 -14 61l180 1285q6 44 35 77q28 31 74 31q65 0 86 -72l303 -1063q14 202 43 398l94 653q3 36 29 62q24 24 63 24q36 0 54 -24q17 -23 14 -62l-180 -1284
q-6 -46 -33 -76t-74 -30q-67 0 -88 71zM678 1774q56 0 127 -45q73 -46 104 -46q41 0 62 41q21 50 71 50q58 0 58 -58q0 -62 -62 -112t-137 -50q-52 0 -125 43t-104 43q-41 0 -62 -41q-21 -49 -71 -49q-56 0 -56 56q0 62 60 116q58 52 135 52z" />
    <glyph glyph-name="Ograve" unicode="&#xd2;" horiz-adv-x="1099" 
d="M1106 1075l-100 -721q-21 -152 -142 -264q-119 -110 -309 -110q-165 0 -266 96q-99 94 -99 231q0 31 7 66l98 706q21 153 141 264t314 111q170 0 264 -94q96 -96 96 -230q0 -9 -4 -55zM831 352l97 721v14v19q0 75 -54 129q-53 53 -147 53q-111 0 -180 -63
q-70 -64 -82 -150l-103 -723l-2 -12v-25q0 -72 56 -125q54 -51 153 -51q109 0 179 64q71 65 83 149zM813 1602l-2 -3q0 -67 -66 -67q-28 0 -49 24l-153 160q-23 26 -23 56q0 32 23 55q20 20 55 20q40 0 61 -30l134 -164q20 -23 20 -51z" />
    <glyph glyph-name="Oacute" unicode="&#xd3;" horiz-adv-x="1099" 
d="M1106 1075l-100 -721q-21 -152 -142 -264q-119 -110 -309 -110q-165 0 -266 96q-99 94 -99 231q0 31 7 66l98 706q21 153 141 264t314 111q170 0 264 -94q96 -96 96 -230q0 -9 -4 -55zM831 352l97 721v14v19q0 75 -54 129q-53 53 -147 53q-111 0 -180 -63
q-70 -64 -82 -150l-103 -723l-2 -12v-25q0 -72 56 -125q54 -51 153 -51q109 0 179 64q71 65 83 149zM680 1591q0 31 29 60l172 166q34 30 67 30q27 0 45 -18q19 -19 19 -45q0 -45 -39 -74l-187 -151q-28 -25 -53 -25q-23 0 -39 16q-14 14 -14 41z" />
    <glyph glyph-name="Ocircumflex" unicode="&#xd4;" horiz-adv-x="1099" 
d="M1106 1075l-100 -721q-21 -152 -142 -264q-119 -110 -309 -110q-165 0 -266 96q-99 94 -99 231q0 31 7 66l98 706q21 153 141 264t314 111q170 0 264 -94q96 -96 96 -230q0 -9 -4 -55zM831 352l97 721v14v19q0 75 -54 129q-53 53 -147 53q-111 0 -180 -63
q-70 -64 -82 -150l-103 -723l-2 -12v-25q0 -72 56 -125q54 -51 153 -51q109 0 179 64q71 65 83 149zM506 1577l-2 -4q0 27 28 55l170 158q37 37 86 37q47 0 74 -37l144 -164q14 -17 14 -39q0 -27 -21 -45t-49 -18q-21 0 -43 22l-129 131l-162 -133q-26 -20 -51 -20
q-22 0 -41 16q-18 15 -18 41z" />
    <glyph glyph-name="Otilde" unicode="&#xd5;" horiz-adv-x="1099" 
d="M1106 1075l-100 -721q-21 -152 -142 -264q-119 -110 -309 -110q-165 0 -266 96q-99 94 -99 231q0 31 7 66l98 706q21 153 141 264t314 111q170 0 264 -94q96 -96 96 -230q0 -9 -4 -55zM831 352l97 721v14v19q0 75 -54 129q-53 53 -147 53q-111 0 -180 -63
q-70 -64 -82 -150l-103 -723l-2 -12v-25q0 -72 56 -125q54 -51 153 -51q109 0 179 64q71 65 83 149zM659 1769q56 0 127 -45t105 -45q40 0 61 41q21 49 72 49q57 0 57 -57q0 -64 -61 -113t-137 -49q-52 0 -125 43t-105 43q-40 0 -61 -41q-21 -49 -72 -49q-55 0 -55 56
q0 63 59 116q57 51 135 51z" />
    <glyph glyph-name="Odieresis" unicode="&#xd6;" horiz-adv-x="1099" 
d="M1106 1075l-100 -721q-21 -152 -142 -264q-119 -110 -309 -110q-165 0 -266 96q-99 94 -99 231q0 31 7 66l98 706q21 153 141 264t314 111q170 0 264 -94q96 -96 96 -230q0 -9 -4 -55zM831 352l97 721v14v19q0 75 -54 129q-53 53 -147 53q-111 0 -180 -63
q-70 -64 -82 -150l-103 -723l-2 -12v-25q0 -72 56 -125q54 -51 153 -51q109 0 179 64q71 65 83 149zM522 1675l6 -2q0 44 31 80q29 33 78 33q38 0 63 -25t25 -63q0 -42 -37 -76q-36 -33 -80 -33q-36 0 -61 25t-25 61zM842 1671h-2q0 44 34 78q35 35 80 35q39 0 64 -25
q24 -24 24 -61q0 -46 -34 -80q-33 -33 -78 -33q-39 0 -64 25q-24 24 -24 61z" />
    <glyph glyph-name="multiply" unicode="&#xd7;" horiz-adv-x="1060" 
d="M221 358l271 240l-203 236q-21 24 -15 57q3 32 31 57t62 25q31 0 53 -25l203 -235l272 239q23 23 59 23q34 0 56 -25q21 -24 18 -55q-3 -25 -33 -55l-270 -240l209 -246q21 -21 18 -55q-3 -33 -30 -57q-28 -25 -62 -25q-32 0 -55 23l-209 245l-279 -241q-28 -25 -57 -25
t-51 25t-19 57q8 34 31 57z" />
    <glyph glyph-name="Oslash" unicode="&#xd8;" horiz-adv-x="1099" 
d="M838 373l100 686l-559 -823q43 -107 192 -107q115 0 183 74q69 75 84 170zM469 1079l-100 -698l551 815q-18 45 -68 76q-51 31 -121 31q-107 0 -178 -68q-72 -69 -84 -156zM1155 1380l-84 -114q33 -67 33 -142q0 -9 -4 -55l-101 -719q-21 -153 -141 -264t-309 -111
q-175 0 -277 105l-47 -70q-21 -35 -49 -35q-18 0 -31 13q-12 12 -12 30t8 31l78 115q-31 67 -31 141q0 31 7 66l98 706q21 153 141 264t314 111q171 0 272 -104l47 69q21 35 53 35q19 0 31 -12t12 -29q0 -18 -8 -31z" />
    <glyph glyph-name="Ugrave" unicode="&#xd9;" horiz-adv-x="1114" 
d="M1153 1370l-141 -1020q-21 -162 -135 -270q-113 -107 -308 -107q-166 0 -270 93q-100 90 -100 225q0 11 4 61l143 1012q3 36 31 61t67 25q34 0 56 -25q21 -24 18 -59l-143 -1014l-2 -16v-33q0 -64 53 -117t152 -53q115 0 184 66q67 64 82 166l139 1003q3 37 31 62
q27 24 65 24q35 0 56 -24t18 -60zM844 1602l-2 -3q0 -67 -66 -67q-28 0 -49 24l-154 160q-22 25 -22 56q0 33 22 55q20 20 56 20q40 0 61 -30l133 -164q21 -24 21 -51z" />
    <glyph glyph-name="Uacute" unicode="&#xda;" horiz-adv-x="1114" 
d="M1153 1370l-141 -1020q-21 -162 -135 -270q-113 -107 -308 -107q-166 0 -270 93q-100 90 -100 225q0 11 4 61l143 1012q3 36 31 61t67 25q34 0 56 -25q21 -24 18 -59l-143 -1014l-2 -16v-33q0 -64 53 -117t152 -53q115 0 184 66q67 64 82 166l139 1003q3 37 31 62
q27 24 65 24q35 0 56 -24t18 -60zM729 1591q0 31 29 60l172 166q34 30 67 30q27 0 45 -18q19 -19 19 -45q0 -45 -39 -74l-186 -151q-28 -25 -54 -25q-23 0 -39 16q-14 14 -14 41z" />
    <glyph glyph-name="Ucircumflex" unicode="&#xdb;" horiz-adv-x="1114" 
d="M1153 1370l-141 -1020q-21 -162 -135 -270q-113 -107 -308 -107q-166 0 -270 93q-100 90 -100 225q0 11 4 61l143 1012q3 36 31 61t67 25q34 0 56 -25q21 -24 18 -59l-143 -1014l-2 -16v-33q0 -64 53 -117t152 -53q115 0 184 66q67 64 82 166l139 1003q3 37 31 62
q27 24 65 24q35 0 56 -24t18 -60zM522 1577l-2 -4q0 26 29 55l170 158q37 37 86 37q47 0 74 -37l143 -164q14 -17 14 -39q0 -28 -20 -45q-21 -18 -49 -18q-21 0 -43 22l-129 131l-162 -133q-26 -20 -51 -20q-22 0 -41 16t-19 41z" />
    <glyph glyph-name="Udieresis" unicode="&#xdc;" horiz-adv-x="1114" 
d="M1153 1370l-141 -1020q-21 -162 -135 -270q-113 -107 -308 -107q-166 0 -270 93q-100 90 -100 225q0 11 4 61l143 1012q3 36 31 61t67 25q34 0 56 -25q21 -24 18 -59l-143 -1014l-2 -16v-33q0 -64 53 -117t152 -53q115 0 184 66q67 64 82 166l139 1003q3 37 31 62
q27 24 65 24q35 0 56 -24t18 -60zM539 1675l6 -2q0 45 30 80q29 33 78 33q39 0 64 -25q24 -24 24 -63q0 -43 -36 -76t-80 -33q-37 0 -62 25q-24 24 -24 61zM858 1671h-2q0 43 35 78t80 35q38 0 63 -25t25 -61q0 -45 -35 -80q-33 -33 -78 -33q-38 0 -63 25t-25 61z" />
    <glyph glyph-name="Yacute" unicode="&#xdd;" horiz-adv-x="919" 
d="M651 678l-94 -615q-3 -34 -31 -59q-27 -24 -61 -24t-55 24q-22 25 -19 59l86 615l-229 643q-8 21 -8 43q0 37 26 63q27 27 68 27q59 0 80 -61l182 -529l319 529q37 61 95 61q31 0 51 -20t20 -52q0 -30 -16 -59zM610 1597h-2q0 31 29 60l172 166q35 30 68 30q29 0 47 -18
t18 -45q0 -45 -39 -74l-186 -151q-28 -25 -53 -25q-23 0 -39 16q-15 15 -15 41z" />
    <glyph glyph-name="Thorn" unicode="&#xde;" horiz-adv-x="985" 
d="M377 291l-35 -228q-3 -36 -31 -61t-67 -25q-34 0 -56 25q-21 24 -18 59l182 1307q3 37 31 62q27 24 68 24q34 0 55 -24t18 -60l-20 -143h219q126 0 205 -76q80 -77 80 -197v-20v-19v-8l-41 -295q-18 -138 -119 -229q-103 -92 -246 -92h-225zM791 606l43 289v6v17v18
q0 58 -39 94q-40 37 -101 37h-211l-86 -612h211q74 0 123 43q51 45 60 108z" />
    <glyph glyph-name="germandbls" unicode="&#xdf;" horiz-adv-x="1095" 
d="M150 59l139 1008q21 161 133 270q110 107 287 107q142 0 229 -90q86 -89 86 -219v-33q0 -23 -2 -33l-2 -14q-6 -56 -25 -88q-18 -30 -65 -39q-70 -16 -117 -51q-49 -37 -49 -93q0 -51 43 -106t94 -100q50 -44 94 -119q43 -73 43 -154q0 -140 -100 -233q-103 -95 -246 -95
q-132 0 -203 80q-69 78 -69 166q0 41 22 72t62 31q62 0 74 -72q18 -133 127 -133q70 0 116 49q47 50 47 123q0 48 -26 90q-25 40 -68 80q-27 25 -80 78q-40 40 -67 96q-27 55 -27 121q0 110 74 190q75 81 194 105q6 41 6 57q0 90 -45 141q-48 54 -131 54q-95 0 -163 -68
q-67 -67 -82 -168l-144 -1014q-3 -34 -30 -55q-30 -23 -62 -23q-34 0 -53 25q-17 23 -14 57z" />
    <glyph glyph-name="agrave" unicode="&#xe0;" horiz-adv-x="1001" 
d="M932 147v3q61 -15 61 -66q0 -35 -26 -61q-27 -27 -68 -27q-111 0 -166 108q-94 -116 -252 -116q-141 0 -231 90t-90 227q0 8 4 70l41 295q21 164 139 270q116 104 281 104q137 0 262 -51q76 -27 76 -84q0 -23 -2 -35l-87 -620q-4 -32 -4 -39q0 -53 62 -68zM510 127h6
q77 0 141 61q65 62 74 146l72 524q-62 41 -178 41q-102 0 -172 -61q-71 -62 -86 -162l-45 -328l-3 -6v-16v-19q0 -86 50 -133t141 -47zM778 1200l-2 -2q0 -68 -65 -68q-27 0 -49 25l-154 160q-23 26 -23 55q0 32 23 55q21 21 55 21q40 0 62 -31l133 -164q20 -23 20 -51z" />
    <glyph glyph-name="aacute" unicode="&#xe1;" horiz-adv-x="1001" 
d="M932 147v3q61 -15 61 -66q0 -35 -26 -61q-27 -27 -68 -27q-111 0 -166 108q-94 -116 -252 -116q-141 0 -231 90t-90 227q0 8 4 70l41 295q21 164 139 270q116 104 281 104q137 0 262 -51q76 -27 76 -84q0 -23 -2 -35l-87 -620q-4 -32 -4 -39q0 -53 62 -68zM510 127h6
q77 0 141 61q65 62 74 146l72 524q-62 41 -178 41q-102 0 -172 -61q-71 -62 -86 -162l-45 -328l-3 -6v-16v-19q0 -86 50 -133t141 -47zM608 1190h-2q0 30 29 59l172 166q36 31 67 31q29 0 48 -19q18 -18 18 -45q0 -44 -39 -73l-186 -152q-27 -24 -53 -24q-23 0 -39 16
q-15 15 -15 41z" />
    <glyph glyph-name="acircumflex" unicode="&#xe2;" horiz-adv-x="1001" 
d="M932 147v3q61 -15 61 -66q0 -35 -26 -61q-27 -27 -68 -27q-111 0 -166 108q-94 -116 -252 -116q-141 0 -231 90t-90 227q0 8 4 70l41 295q21 164 139 270q116 104 281 104q137 0 262 -51q76 -27 76 -84q0 -23 -2 -35l-87 -620q-4 -32 -4 -39q0 -53 62 -68zM510 127h6
q77 0 141 61q65 62 74 146l72 524q-62 41 -178 41q-102 0 -172 -61q-71 -62 -86 -162l-45 -328l-3 -6v-16v-19q0 -86 50 -133t141 -47zM434 1176l-2 -5q0 27 29 56l170 157q37 37 86 37q47 0 74 -37l143 -163q14 -17 14 -39q0 -28 -20 -45q-22 -19 -49 -19q-20 0 -43 23
l-129 131l-162 -133q-27 -21 -51 -21q-21 0 -41 17q-19 16 -19 41z" />
    <glyph glyph-name="atilde" unicode="&#xe3;" horiz-adv-x="1001" 
d="M932 147v3q61 -15 61 -66q0 -35 -26 -61q-27 -27 -68 -27q-111 0 -166 108q-94 -116 -252 -116q-141 0 -231 90t-90 227q0 8 4 70l41 295q21 164 139 270q116 104 281 104q137 0 262 -51q76 -27 76 -84q0 -23 -2 -35l-87 -620q-4 -32 -4 -39q0 -53 62 -68zM510 127h6
q77 0 141 61q65 62 74 146l72 524q-62 41 -178 41q-102 0 -172 -61q-71 -62 -86 -162l-45 -328l-3 -6v-16v-19q0 -86 50 -133t141 -47zM586 1368q56 0 127 -45t104 -45q41 0 62 41q21 49 71 49q58 0 58 -57q0 -63 -62 -113q-61 -49 -137 -49q-52 0 -125 43t-104 43
q-41 0 -62 -41q-21 -49 -72 -49q-55 0 -55 55q0 63 60 117q57 51 135 51z" />
    <glyph glyph-name="adieresis" unicode="&#xe4;" horiz-adv-x="1001" 
d="M932 147v3q61 -15 61 -66q0 -35 -26 -61q-27 -27 -68 -27q-111 0 -166 108q-94 -116 -252 -116q-141 0 -231 90t-90 227q0 8 4 70l41 295q21 164 139 270q116 104 281 104q137 0 262 -51q76 -27 76 -84q0 -23 -2 -35l-87 -620q-4 -32 -4 -39q0 -53 62 -68zM510 127h6
q77 0 141 61q65 62 74 146l72 524q-62 41 -178 41q-102 0 -172 -61q-71 -62 -86 -162l-45 -328l-3 -6v-16v-19q0 -86 50 -133t141 -47zM451 1274l6 -2q0 46 30 80q28 32 78 32q40 0 64 -24t24 -64q0 -41 -37 -75q-36 -33 -79 -33q-38 0 -62 24t-24 62zM770 1270h-2
q0 43 35 78q34 34 80 34q39 0 63 -24q25 -25 25 -62q0 -44 -35 -79q-33 -33 -78 -33q-39 0 -63 24q-25 25 -25 62z" />
    <glyph glyph-name="aring" unicode="&#xe5;" horiz-adv-x="1001" 
d="M932 147v3q61 -15 61 -66q0 -35 -26 -61q-27 -27 -68 -27q-111 0 -166 108q-94 -116 -252 -116q-141 0 -231 90t-90 227q0 8 4 70l41 295q21 164 139 270q116 104 281 104q137 0 262 -51q76 -27 76 -84q0 -23 -2 -35l-87 -620q-4 -32 -4 -39q0 -53 62 -68zM510 127h6
q77 0 141 61q65 62 74 146l72 524q-62 41 -178 41q-102 0 -172 -61q-71 -62 -86 -162l-45 -328l-3 -6v-16v-19q0 -86 50 -133t141 -47zM696 1219l-4 -7q35 0 56 21q20 20 20 55q0 24 -16 43t-43 19q-31 0 -52 -21q-20 -20 -20 -49q0 -24 16 -43q15 -18 43 -18zM688 1106
l2 -2q-71 0 -119 45q-49 46 -49 113q0 76 56 129t133 53q70 0 116 -43q47 -44 47 -109q0 -75 -53 -131q-52 -55 -133 -55z" />
    <glyph glyph-name="ae" unicode="&#xe6;" horiz-adv-x="1499" 
d="M518 125v-2q75 0 133 55q59 56 74 129l76 543q-62 47 -178 47q-102 0 -172 -61q-71 -62 -86 -162l-46 -328l-2 -6v-16v-19q0 -76 56 -129q54 -51 145 -51zM936 690l-27 -207l310 111q124 43 124 145q0 65 -49 111q-50 47 -125 47q-88 0 -153 -59t-80 -148zM1051 -23l-7 3
q-195 0 -280 131q-88 -131 -283 -131q-142 0 -231 92q-90 93 -90 231q0 8 4 70l41 295q21 164 139 270q116 104 281 104q156 0 321 -73q107 73 242 73q143 0 227 -81q86 -83 86 -199q0 -218 -250 -307l-362 -127q-4 -32 -4 -35q0 -76 47 -123t127 -47q167 0 213 147
q21 64 82 64q30 0 49 -19q18 -18 18 -47q0 -90 -100 -190q-101 -101 -270 -101z" />
    <glyph glyph-name="ccedilla" unicode="&#xe7;" horiz-adv-x="937" 
d="M332 -369l12 107h121q19 0 35 16t16 35q0 47 -37 47h-100l20 158q-107 27 -170 108q-61 79 -61 189q0 7 4 57l47 348q21 155 129 254t275 99q132 0 223 -88q92 -89 92 -205q0 -6 -4 -56h-156q2 8 2 35q0 76 -45 121q-47 47 -123 47q-96 0 -159 -57q-64 -58 -76 -150
l-51 -360q-2 -12 -2 -37q0 -78 51 -123q53 -47 135 -47q87 0 149 59q63 60 72 148h160q-21 -156 -123 -250q-103 -95 -252 -104l-4 -37q60 0 102 -39q43 -40 43 -99q0 -73 -57 -124q-58 -52 -129 -52h-139z" />
    <glyph glyph-name="egrave" unicode="&#xe8;" horiz-adv-x="940" 
d="M377 692l-31 -203l309 109q127 47 127 147q0 69 -45 111q-46 43 -125 43q-87 0 -155 -59t-80 -148zM489 -20l-6 -3q-145 0 -235 84q-88 82 -88 213q0 4 4 54l51 364q21 150 135 252q112 100 277 100q143 0 227 -81q86 -83 86 -199q0 -218 -250 -307l-362 -127
q-4 -32 -4 -35q0 -78 47 -125q45 -45 127 -45q166 0 213 147q21 64 82 64q30 0 49 -19q18 -18 18 -47q0 -90 -100 -190t-271 -100zM723 1196l-2 -2q0 -68 -66 -68q-27 0 -49 25l-153 160q-23 26 -23 55q0 32 23 55q21 21 55 21q39 0 61 -31l133 -164q21 -24 21 -51z" />
    <glyph glyph-name="eacute" unicode="&#xe9;" horiz-adv-x="940" 
d="M377 692l-31 -203l309 109q127 47 127 147q0 69 -45 111q-46 43 -125 43q-87 0 -155 -59t-80 -148zM489 -20l-6 -3q-145 0 -235 84q-88 82 -88 213q0 4 4 54l51 364q21 150 135 252q112 100 277 100q143 0 227 -81q86 -83 86 -199q0 -218 -250 -307l-362 -127
q-4 -32 -4 -35q0 -78 47 -125q45 -45 127 -45q166 0 213 147q21 64 82 64q30 0 49 -19q18 -18 18 -47q0 -90 -100 -190t-271 -100zM573 1186q0 30 29 59l172 166q36 31 68 31q26 0 45 -19q18 -18 18 -45q0 -44 -39 -73l-186 -152q-28 -25 -53 -25q-22 0 -39 17
q-15 15 -15 41z" />
    <glyph glyph-name="ecircumflex" unicode="&#xea;" horiz-adv-x="940" 
d="M377 692l-31 -203l309 109q127 47 127 147q0 69 -45 111q-46 43 -125 43q-87 0 -155 -59t-80 -148zM489 -20l-6 -3q-145 0 -235 84q-88 82 -88 213q0 4 4 54l51 364q21 150 135 252q112 100 277 100q143 0 227 -81q86 -83 86 -199q0 -218 -250 -307l-362 -127
q-4 -32 -4 -35q0 -78 47 -125q45 -45 127 -45q166 0 213 147q21 64 82 64q30 0 49 -19q18 -18 18 -47q0 -90 -100 -190t-271 -100zM385 1171l-2 -4q0 27 29 56l170 157q37 37 86 37q46 0 73 -37l144 -163q14 -17 14 -39q0 -28 -20 -45q-22 -19 -50 -19q-20 0 -43 23
l-129 131l-161 -133q-27 -21 -52 -21q-22 0 -41 16q-18 15 -18 41z" />
    <glyph glyph-name="edieresis" unicode="&#xeb;" horiz-adv-x="940" 
d="M377 692l-31 -203l309 109q127 47 127 147q0 69 -45 111q-46 43 -125 43q-87 0 -155 -59t-80 -148zM489 -20l-6 -3q-145 0 -235 84q-88 82 -88 213q0 4 4 54l51 364q21 150 135 252q112 100 277 100q143 0 227 -81q86 -83 86 -199q0 -218 -250 -307l-362 -127
q-4 -32 -4 -35q0 -78 47 -125q45 -45 127 -45q166 0 213 147q21 64 82 64q30 0 49 -19q18 -18 18 -47q0 -90 -100 -190t-271 -100zM403 1270l7 -2q0 46 30 80q28 32 78 32q40 0 64 -24t24 -64q0 -41 -37 -75q-36 -33 -80 -33q-37 0 -61 24q-25 25 -25 62zM723 1266h-2
q0 42 35 77t80 35q39 0 63 -24q25 -25 25 -62q0 -45 -35 -80q-32 -32 -78 -32q-39 0 -63 24q-25 25 -25 62z" />
    <glyph glyph-name="igrave" unicode="&#xec;" horiz-adv-x="471" 
d="M178 227l103 746q3 33 28 55q26 23 62 23q33 0 53 -23q19 -22 16 -55l-104 -735q-4 -32 -4 -39q0 -43 51 -49q72 -9 72 -68q0 -37 -25 -62q-24 -24 -70 -24q-88 0 -137 43t-49 127q0 7 4 61zM473 1204l-2 -2q0 -67 -65 -67q-29 0 -50 24l-153 160q-23 26 -23 55
q0 33 23 56q20 20 55 20q39 0 61 -31l134 -164q20 -23 20 -51z" />
    <glyph glyph-name="iacute" unicode="&#xed;" horiz-adv-x="471" 
d="M178 227l103 746q3 33 28 55q26 23 62 23q33 0 53 -23q19 -22 16 -55l-104 -735q-4 -32 -4 -39q0 -43 51 -49q72 -9 72 -68q0 -37 -25 -62q-24 -24 -70 -24q-88 0 -137 43t-49 127q0 7 4 61zM281 1194h-2q0 31 28 59l172 166q36 31 68 31q29 0 47 -18t18 -46
q0 -44 -39 -73l-186 -152q-27 -24 -53 -24q-23 0 -39 16q-14 14 -14 41z" />
    <glyph glyph-name="icircumflex" unicode="&#xee;" horiz-adv-x="471" 
d="M178 227l103 746q3 33 28 55q26 23 62 23q33 0 53 -23q19 -22 16 -55l-104 -735q-4 -32 -4 -39q0 -43 51 -49q72 -9 72 -68q0 -37 -25 -62q-24 -24 -70 -24q-88 0 -137 43t-49 127q0 7 4 61zM141 1180l-2 -4q0 26 29 55l170 158q36 36 86 36q48 0 74 -36l143 -164
q14 -17 14 -39q0 -28 -20 -45q-22 -19 -49 -19q-20 0 -43 23l-129 131l-162 -133q-27 -21 -51 -21q-21 0 -41 17q-19 16 -19 41z" />
    <glyph glyph-name="idieresis" unicode="&#xef;" horiz-adv-x="471" 
d="M178 227l103 746q3 33 28 55q26 23 62 23q33 0 53 -23q19 -22 16 -55l-104 -735q-4 -32 -4 -39q0 -43 51 -49q72 -9 72 -68q0 -37 -25 -62q-24 -24 -70 -24q-88 0 -137 43t-49 127q0 7 4 61zM150 1278l6 -2q0 46 30 80q29 33 78 33q39 0 64 -25q24 -24 24 -64
q0 -41 -37 -75q-36 -33 -79 -33q-37 0 -62 25q-24 24 -24 61zM469 1274h-2q0 43 35 78q34 34 80 34q39 0 63 -24q25 -25 25 -62q0 -44 -35 -79q-33 -33 -78 -33q-39 0 -63 24q-25 25 -25 62z" />
    <glyph glyph-name="eth" unicode="&#xf0;" horiz-adv-x="974" 
d="M723 1114l-188 -59q-20 -4 -25 -4q-59 0 -59 61q0 45 61 66l125 41q-79 79 -119 104q-24 15 -24 49q0 32 24 53q26 23 53 23q26 0 93 -49q65 -47 131 -123l123 41q20 4 24 4q24 0 43 -16t19 -43q0 -53 -64 -74l-72 -23q80 -139 80 -325q0 -79 -8 -131l-47 -383
q-18 -149 -129 -248q-110 -98 -275 -98q-150 0 -239 86q-88 85 -88 217q0 15 4 65l37 275q21 149 129 243q111 97 256 97q71 0 129 -25q56 -24 74 -45l18 -25q-3 116 -86 246zM731 324l41 288q2 6 2 37q0 77 -51 125q-52 49 -131 49q-97 0 -160 -57q-64 -58 -76 -154
l-34 -252q-5 -58 -5 -69q0 -76 50 -123q48 -45 129 -45q86 0 153 55t82 146z" />
    <glyph glyph-name="ntilde" unicode="&#xf1;" horiz-adv-x="1003" 
d="M432 965l-4 -60q9 15 31 37q18 18 90 55q68 35 139 35q133 0 207 -80t74 -204q0 -38 -6 -82l-86 -615q-3 -33 -31 -55q-30 -23 -62 -23q-34 0 -53 25q-17 23 -14 57l84 611q6 50 6 69q0 66 -41 113q-39 45 -121 45q-86 0 -160 -59t-86 -146l-88 -633q-3 -34 -30 -55
q-30 -23 -62 -23q-34 0 -53 25q-17 23 -14 57l127 906q3 33 28 55t60 22q32 0 51 -22q17 -20 14 -55zM571 1354q56 0 127 -45t105 -45q40 0 61 41q21 49 72 49q57 0 57 -58q0 -63 -61 -112t-137 -49q-52 0 -125 43t-105 43q-40 0 -61 -41q-21 -50 -72 -50q-55 0 -55 56
q0 64 59 117q57 51 135 51z" />
    <glyph glyph-name="ograve" unicode="&#xf2;" horiz-adv-x="974" 
d="M621 1044v-2q149 0 237 -88q90 -90 90 -221q0 -7 -4 -57l-47 -348q-21 -154 -131 -252q-111 -99 -277 -99q-144 0 -235 91q-88 88 -88 221q0 7 4 57l47 348q21 153 129 252q107 98 275 98zM506 123h-2q98 0 158 57q61 58 73 150l51 360q2 12 2 37q0 77 -49 123
q-50 47 -133 47q-95 0 -155 -57q-62 -59 -74 -150l-51 -360q-2 -12 -2 -37q0 -77 49 -123q50 -47 133 -47zM723 1196l-2 -2q0 -68 -66 -68q-27 0 -49 25l-153 160q-23 26 -23 55q0 32 23 55q21 21 55 21q39 0 61 -31l133 -164q21 -24 21 -51z" />
    <glyph glyph-name="oacute" unicode="&#xf3;" horiz-adv-x="974" 
d="M621 1044v-2q149 0 237 -88q90 -90 90 -221q0 -7 -4 -57l-47 -348q-21 -154 -131 -252q-111 -99 -277 -99q-144 0 -235 91q-88 88 -88 221q0 7 4 57l47 348q21 153 129 252q107 98 275 98zM506 123h-2q98 0 158 57q61 58 73 150l51 360q2 12 2 37q0 77 -49 123
q-50 47 -133 47q-95 0 -155 -57q-62 -59 -74 -150l-51 -360q-2 -12 -2 -37q0 -77 49 -123q50 -47 133 -47zM598 1186q0 30 29 59l172 166q36 31 67 31q26 0 45 -19t19 -45q0 -44 -39 -73l-186 -152q-28 -25 -54 -25q-22 0 -39 17q-14 14 -14 41z" />
    <glyph glyph-name="ocircumflex" unicode="&#xf4;" horiz-adv-x="974" 
d="M621 1044v-2q149 0 237 -88q90 -90 90 -221q0 -7 -4 -57l-47 -348q-21 -154 -131 -252q-111 -99 -277 -99q-144 0 -235 91q-88 88 -88 221q0 7 4 57l47 348q21 153 129 252q107 98 275 98zM506 123h-2q98 0 158 57q61 58 73 150l51 360q2 12 2 37q0 77 -49 123
q-50 47 -133 47q-95 0 -155 -57q-62 -59 -74 -150l-51 -360q-2 -12 -2 -37q0 -77 49 -123q50 -47 133 -47zM387 1171l-2 -4q0 27 29 56l170 157q37 37 86 37q46 0 73 -37l144 -163q14 -17 14 -39q0 -28 -20 -45q-22 -19 -50 -19q-20 0 -43 23l-129 131l-161 -133
q-27 -21 -52 -21q-21 0 -40 16t-19 41z" />
    <glyph glyph-name="otilde" unicode="&#xf5;" horiz-adv-x="974" 
d="M621 1044v-2q149 0 237 -88q90 -90 90 -221q0 -7 -4 -57l-47 -348q-21 -154 -131 -252q-111 -99 -277 -99q-144 0 -235 91q-88 88 -88 221q0 7 4 57l47 348q21 153 129 252q107 98 275 98zM506 123h-2q98 0 158 57q61 58 73 150l51 360q2 12 2 37q0 77 -49 123
q-50 47 -133 47q-95 0 -155 -57q-62 -59 -74 -150l-51 -360q-2 -12 -2 -37q0 -77 49 -123q50 -47 133 -47zM541 1364q56 0 127 -45t104 -45q41 0 62 41q21 49 71 49q58 0 58 -57q0 -63 -62 -113q-61 -49 -137 -49q-52 0 -125 43t-104 43q-41 0 -62 -41q-21 -49 -72 -49
q-55 0 -55 55q0 63 60 117q57 51 135 51z" />
    <glyph glyph-name="odieresis" unicode="&#xf6;" horiz-adv-x="974" 
d="M621 1044v-2q149 0 237 -88q90 -90 90 -221q0 -7 -4 -57l-47 -348q-21 -154 -131 -252q-111 -99 -277 -99q-144 0 -235 91q-88 88 -88 221q0 7 4 57l47 348q21 153 129 252q107 98 275 98zM506 123h-2q98 0 158 57q61 58 73 150l51 360q2 12 2 37q0 77 -49 123
q-50 47 -133 47q-95 0 -155 -57q-62 -59 -74 -150l-51 -360q-2 -12 -2 -37q0 -77 49 -123q50 -47 133 -47zM403 1270l7 -2q0 46 30 80q28 32 78 32q40 0 64 -24t24 -64q0 -41 -37 -75q-36 -33 -80 -33q-37 0 -61 24q-25 25 -25 62zM723 1266h-2q0 42 35 77t80 35
q39 0 63 -24q25 -25 25 -62q0 -45 -35 -80q-32 -32 -78 -32q-39 0 -63 24q-25 25 -25 62z" />
    <glyph glyph-name="divide" unicode="&#xf7;" horiz-adv-x="1198" 
d="M293 684l794 8q36 0 54 -24q19 -25 16 -58q-3 -32 -31 -57t-61 -25h-799q-31 0 -51 23q-17 20 -14 55t30 56q28 22 62 22zM618 940q9 45 44 76q36 31 79 31q46 0 74 -31t19 -76q-6 -45 -41 -76q-35 -30 -80 -30q-47 0 -74 30t-21 76zM528 287h-2q6 44 41 75q36 31 80 31
q46 0 74 -31q26 -29 20 -75t-43 -76q-39 -31 -82 -31q-44 0 -69 31t-19 76z" />
    <glyph glyph-name="oslash" unicode="&#xf8;" horiz-adv-x="974" 
d="M934 987l-45 -67q59 -77 59 -185q0 -7 -4 -57l-47 -348q-21 -155 -129 -254t-270 -99q-122 0 -211 62l-35 -53q-19 -25 -43 -25q-41 0 -41 39q0 19 12 37l43 63q-57 80 -57 187q0 7 4 57l45 348q21 154 131 252t277 98q120 0 202 -61l35 51q19 25 45 25q39 0 39 -39
q0 -14 -10 -31zM508 117v-2q95 0 160 59q63 57 75 154l54 368q2 12 2 37q0 26 -6 47l-422 -616q53 -47 137 -47zM319 289h3q0 -23 4 -43l419 614q-51 45 -135 45q-96 0 -159 -57q-64 -58 -76 -154l-53 -368q-3 -18 -3 -37z" />
    <glyph glyph-name="ugrave" unicode="&#xf9;" horiz-adv-x="1003" 
d="M715 59l-4 56q-9 -15 -31 -37q-21 -20 -88 -55q-65 -33 -139 -33q-133 0 -207 80t-74 206q0 38 6 82l86 615q3 33 31 55q30 23 61 23q35 0 54 -25t16 -57l-84 -611q-6 -50 -6 -69q0 -66 41 -113q39 -45 121 -45q85 0 159 59t86 146l88 633q3 33 31 55q30 23 62 23
q34 0 53 -25t16 -57l-127 -906q-3 -33 -28 -55t-58 -22q-32 0 -51 22q-17 20 -14 55zM709 1206l-2 -2q0 -67 -66 -67q-28 0 -49 24l-154 160q-22 25 -22 55q0 34 22 56q20 20 56 20q39 0 61 -31l133 -164q21 -24 21 -51z" />
    <glyph glyph-name="uacute" unicode="&#xfa;" horiz-adv-x="1003" 
d="M715 59l-4 56q-9 -15 -31 -37q-21 -20 -88 -55q-65 -33 -139 -33q-133 0 -207 80t-74 206q0 38 6 82l86 615q3 33 31 55q30 23 61 23q35 0 54 -25t16 -57l-84 -611q-6 -50 -6 -69q0 -66 41 -113q39 -45 121 -45q85 0 159 59t86 146l88 633q3 33 31 55q30 23 62 23
q34 0 53 -25t16 -57l-127 -906q-3 -33 -28 -55t-58 -22q-32 0 -51 22q-17 20 -14 55zM604 1196q0 30 29 59l172 166q36 31 67 31q28 0 46 -18t18 -45q0 -45 -39 -74l-186 -152q-27 -24 -54 -24q-23 0 -39 16q-14 14 -14 41z" />
    <glyph glyph-name="ucircumflex" unicode="&#xfb;" horiz-adv-x="1003" 
d="M715 59l-4 56q-9 -15 -31 -37q-21 -20 -88 -55q-65 -33 -139 -33q-133 0 -207 80t-74 206q0 38 6 82l86 615q3 33 31 55q30 23 61 23q35 0 54 -25t16 -57l-84 -611q-6 -50 -6 -69q0 -66 41 -113q39 -45 121 -45q85 0 159 59t86 146l88 633q3 33 31 55q30 23 62 23
q34 0 53 -25t16 -57l-127 -906q-3 -33 -28 -55t-58 -22q-32 0 -51 22q-17 20 -14 55zM397 1182l-2 -4q0 26 29 55l170 158q36 36 86 36q48 0 74 -36l143 -164q14 -17 14 -39q0 -28 -20 -45q-22 -19 -49 -19q-20 0 -43 23l-129 131l-162 -133q-27 -21 -51 -21q-21 0 -41 17
q-19 16 -19 41z" />
    <glyph glyph-name="udieresis" unicode="&#xfc;" horiz-adv-x="1003" 
d="M715 59l-4 56q-9 -15 -31 -37q-21 -20 -88 -55q-65 -33 -139 -33q-133 0 -207 80t-74 206q0 38 6 82l86 615q3 33 31 55q30 23 61 23q35 0 54 -25t16 -57l-84 -611q-6 -50 -6 -69q0 -66 41 -113q39 -45 121 -45q85 0 159 59t86 146l88 633q3 33 31 55q30 23 62 23
q34 0 53 -25t16 -57l-127 -906q-3 -33 -28 -55t-58 -22q-32 0 -51 22q-17 20 -14 55zM414 1280l6 -2q0 44 31 80q29 33 77 33q39 0 64 -25q24 -24 24 -63q0 -43 -36 -76t-80 -33q-37 0 -62 25q-24 24 -24 61zM733 1276h-2q0 43 35 78t80 35q38 0 63 -25t25 -61
q0 -45 -35 -80q-33 -33 -78 -33q-39 0 -63 24q-25 25 -25 62z" />
    <glyph glyph-name="yacute" unicode="&#xfd;" 
d="M190 475l64 488q3 33 31 55t61 22q35 0 53 -24q20 -26 17 -58l-70 -493q-4 -36 -4 -62q0 -76 49 -122q48 -45 137 -45q84 0 148 61t76 147l73 521q3 33 31 55t62 22q35 0 53 -24q19 -25 16 -57l-145 -1024q-21 -146 -131 -236q-112 -92 -275 -92q-128 0 -207 61t-79 168
q0 157 157 234l107 51q-103 12 -166 90q-62 77 -62 195q0 13 4 67zM678 -49l35 237q-23 -30 -80 -67l-264 -158q-66 -41 -66 -104q0 -44 37 -74q39 -31 100 -31q95 0 160 56q66 57 78 141zM586 1188h-2q0 31 28 59l172 166q36 31 68 31q28 0 47 -19t19 -45q0 -44 -39 -73
l-187 -152q-28 -25 -53 -25q-22 0 -39 17q-14 14 -14 41z" />
    <glyph glyph-name="thorn" unicode="&#xfe;" horiz-adv-x="993" 
d="M758 340l39 340q15 96 -31 154q-47 59 -135 59q-96 0 -160 -64q-66 -66 -78 -147l-47 -344q-12 -84 37 -148q48 -63 141 -63q84 0 152 59q67 58 82 154zM489 1370l-69 -436q2 2 10.5 12t15.5 17q18 18 82 45q67 28 140 28q143 0 225 -94t61 -233l-55 -402
q-21 -140 -131 -233q-110 -94 -254 -94q-61 0 -119 22q-53 20 -76 43l-20 23l-53 -381q-3 -34 -31 -56t-61 -22q-36 0 -54 24q-17 23 -14 58l238 1683q3 35 30 56q28 22 62 22q33 0 55 -25q21 -24 18 -57z" />
    <glyph glyph-name="ydieresis" unicode="&#xff;" 
d="M190 475l64 488q3 33 31 55t61 22q35 0 53 -24q20 -26 17 -58l-70 -493q-4 -36 -4 -62q0 -76 49 -122q48 -45 137 -45q84 0 148 61t76 147l73 521q3 33 31 55t62 22q35 0 53 -24q19 -25 16 -57l-145 -1024q-21 -146 -131 -236q-112 -92 -275 -92q-128 0 -207 61t-79 168
q0 157 157 234l107 51q-103 12 -166 90q-62 77 -62 195q0 13 4 67zM678 -49l35 237q-23 -30 -80 -67l-264 -158q-66 -41 -66 -104q0 -44 37 -74q39 -31 100 -31q95 0 160 56q66 57 78 141zM401 1272l7 -2q0 46 30 80q28 32 78 32q40 0 64 -24t24 -64q0 -41 -37 -75
q-36 -33 -80 -33q-37 0 -61 24q-25 25 -25 62zM721 1268h-2q0 43 35 78q34 34 80 34q39 0 63 -24q25 -25 25 -62q0 -45 -35 -80q-32 -32 -78 -32q-40 0 -64 24t-24 62z" />
    <glyph glyph-name="Amacron" unicode="&#x100;" horiz-adv-x="1034" 
d="M821 616l-108 662h-39l-293 -662h440zM653 1446h125q63 0 72 -55l137 -760q3 -18 0 -37l-74 -531q-3 -34 -28 -59q-24 -24 -60 -24q-33 0 -57 24q-23 23 -20 59l55 400h-453l-55 -400q-3 -33 -29 -59q-24 -24 -59 -24q-33 0 -57 24t-21 59l74 531q3 17 12 37l350 760
q24 55 88 55zM471 1671q0 34 27 58t63 24h389q31 0 49 -18q19 -19 19 -47q0 -34 -27 -58t-63 -24h-389q-32 0 -50 18t-18 47z" />
    <glyph glyph-name="amacron" unicode="&#x101;" horiz-adv-x="1001" 
d="M932 147v3q61 -15 61 -66q0 -35 -26 -61q-27 -27 -68 -27q-111 0 -166 108q-94 -116 -252 -116q-141 0 -231 90t-90 227q0 8 4 70l41 295q21 164 139 270q116 104 281 104q137 0 262 -51q76 -27 76 -84q0 -23 -2 -35l-87 -620q-4 -32 -4 -39q0 -53 62 -68zM510 127h6
q77 0 141 61q65 62 74 146l72 524q-62 41 -178 41q-102 0 -172 -61q-71 -62 -86 -162l-45 -328l-3 -6v-16v-19q0 -86 50 -133t141 -47zM395 1264q0 33 27 57q28 25 63 25h389q31 0 50 -19q18 -18 18 -47q0 -33 -27 -57q-28 -25 -63 -25h-389q-30 0 -49 19t-19 47z" />
    <glyph glyph-name="Abreve" unicode="&#x102;" horiz-adv-x="1034" 
d="M821 616l-108 662h-39l-293 -662h440zM653 1446h125q63 0 72 -55l137 -760q3 -18 0 -37l-74 -531q-3 -34 -28 -59q-24 -24 -60 -24q-33 0 -57 24q-23 23 -20 59l55 400h-453l-55 -400q-3 -33 -29 -59q-24 -24 -59 -24q-33 0 -57 24t-21 59l74 531q3 17 12 37l350 760
q24 55 88 55zM748 1681v-2q52 0 83 25q32 26 41 55q9 30 35 56q24 24 62 24q59 0 59 -61q0 -65 -80 -142t-211 -77q-123 0 -184 61t-61 131q0 41 22 66q21 24 55 24q39 0 54 -24t18 -56q3 -29 29 -55q25 -25 78 -25z" />
    <glyph glyph-name="abreve" unicode="&#x103;" horiz-adv-x="1001" 
d="M932 147v3q61 -15 61 -66q0 -35 -26 -61q-27 -27 -68 -27q-111 0 -166 108q-94 -116 -252 -116q-141 0 -231 90t-90 227q0 8 4 70l41 295q21 164 139 270q116 104 281 104q137 0 262 -51q76 -27 76 -84q0 -23 -2 -35l-87 -620q-4 -32 -4 -39q0 -53 62 -68zM510 127h6
q77 0 141 61q65 62 74 146l72 524q-62 41 -178 41q-102 0 -172 -61q-71 -62 -86 -162l-45 -328l-3 -6v-16v-19q0 -86 50 -133t141 -47zM705 1274v-2q53 0 83 24q32 25 41 56q9 29 35 55q25 25 62 25q59 0 59 -62q0 -64 -80 -141q-81 -78 -211 -78q-123 0 -184 61t-61 131
q0 41 22 66t55 25q38 0 54 -25q15 -24 18 -55q3 -30 29 -56q24 -24 78 -24z" />
    <glyph glyph-name="Aogonek" unicode="&#x104;" horiz-adv-x="1034" 
d="M653 1446l125 -4q63 0 72 -56l137 -759q3 -19 0 -37l-74 -531q-6 -42 -51 -71q-43 -27 -100 -88q-55 -58 -55 -101t41 -43h49q65 0 65 -53q0 -30 -24 -51t-60 -21h-71q-68 0 -105 37t-37 90q0 123 205 240q-28 22 -22 65l55 400h-453l-55 -400q-3 -34 -31 -59
q-27 -24 -61 -24q-35 0 -56 24t-18 59l74 531q3 17 12 37l350 760q24 55 88 55zM817 612l-108 662h-39l-293 -662h440z" />
    <glyph glyph-name="aogonek" unicode="&#x105;" horiz-adv-x="1001" 
d="M932 147h-6q61 -15 61 -65q0 -53 -47 -80q-49 -25 -119 -92q-67 -64 -67 -111q0 -43 41 -43h49q65 0 65 -53q0 -30 -24 -51t-60 -21h-71q-68 0 -105 37t-37 90q0 77 66 146q61 64 147 106q-58 27 -92 94q-94 -116 -252 -116q-141 0 -231 90t-90 227q0 8 4 70l41 295
q21 164 139 270q116 104 281 104q137 0 262 -51q76 -27 76 -84q0 -23 -2 -35l-87 -620q-4 -32 -4 -39q0 -53 62 -68zM504 125h6q77 0 141 61q65 62 74 146l72 524q-62 41 -179 41q-102 0 -172 -61q-71 -62 -86 -162l-45 -328l-2 -6v-16v-19q0 -87 49 -133q50 -47 142 -47z
" />
    <glyph glyph-name="Cacute" unicode="&#x106;" horiz-adv-x="1015" 
d="M735 1454l-14 -4q136 0 240 -82t104 -211q0 -41 -27 -76q-25 -32 -69 -32q-33 0 -51 18q-20 20 -23 53q-6 76 -57 121q-53 47 -129 47q-99 0 -166 -61q-68 -62 -80 -154l-98 -692q-5 -45 -5 -62q0 -78 56 -131q54 -51 141 -51q98 0 160 53q63 54 84 146q9 36 35 59t61 23
q33 0 55 -19q21 -18 21 -49q0 -145 -127 -260q-125 -113 -295 -113q-159 0 -260 93q-98 91 -98 237q0 55 10 133l90 635q21 163 141 271t301 108zM651 1593q0 31 29 60l172 166q34 30 68 30q27 0 45 -18t18 -45q0 -45 -39 -74l-186 -151q-28 -25 -53 -25q-23 0 -39 16
q-15 15 -15 41z" />
    <glyph glyph-name="cacute" unicode="&#x107;" horiz-adv-x="937" 
d="M623 1044l-5 -8q142 0 228 -86t86 -178q0 -40 -21 -67q-23 -29 -61 -29q-31 0 -49 18t-21 47q-3 66 -49 109t-123 43q-93 0 -153 -57q-62 -59 -74 -148l-51 -360q-2 -12 -2 -37q0 -84 49 -127t135 -43q162 0 215 164q21 63 82 63q31 0 49 -18q19 -19 19 -47
q0 -98 -105 -203t-276 -105q-147 0 -238 91q-90 90 -90 221q0 7 4 57l47 348q21 155 129 254q107 98 275 98zM537 1180h-2q0 31 28 59l172 166q36 31 68 31q28 0 47 -19q18 -18 18 -45q0 -45 -39 -74l-186 -151q-28 -25 -53 -25q-22 0 -39 17q-14 14 -14 41z" />
    <glyph glyph-name="Ccircumflex" unicode="&#x108;" horiz-adv-x="1015" 
d="M735 1454l-14 -4q136 0 240 -82t104 -211q0 -41 -27 -76q-25 -32 -69 -32q-33 0 -51 18q-20 20 -23 53q-6 76 -57 121q-53 47 -129 47q-99 0 -166 -61q-68 -62 -80 -154l-98 -692q-5 -45 -5 -62q0 -78 56 -131q54 -51 141 -51q98 0 160 53q63 54 84 146q9 36 35 59t61 23
q33 0 55 -19q21 -18 21 -49q0 -145 -127 -260q-125 -113 -295 -113q-159 0 -260 93q-98 91 -98 237q0 55 10 133l90 635q21 163 141 271t301 108zM485 1579l-2 -4q0 26 29 55l170 158q37 37 86 37q47 0 74 -37l143 -164q14 -17 14 -39q0 -28 -20 -45q-21 -18 -49 -18
q-21 0 -43 22l-129 131l-162 -133q-26 -20 -51 -20q-22 0 -41 16t-19 41z" />
    <glyph glyph-name="ccircumflex" unicode="&#x109;" horiz-adv-x="937" 
d="M623 1044l-5 -8q142 0 228 -86t86 -178q0 -40 -21 -67q-23 -29 -61 -29q-31 0 -49 18t-21 47q-3 66 -49 109t-123 43q-93 0 -153 -57q-62 -59 -74 -148l-51 -360q-2 -12 -2 -37q0 -84 49 -127t135 -43q162 0 215 164q21 63 82 63q31 0 49 -18q19 -19 19 -47
q0 -98 -105 -203t-276 -105q-147 0 -238 91q-90 90 -90 221q0 7 4 57l47 348q21 155 129 254q107 98 275 98zM387 1165l-2 -4q0 27 29 56l170 157q37 37 86 37q46 0 73 -37l144 -164q14 -17 14 -39q0 -28 -20 -45q-21 -18 -50 -18q-21 0 -43 22l-129 132l-161 -134
q-26 -20 -52 -20q-21 0 -40 16t-19 41z" />
    <glyph glyph-name="Cdotaccent" unicode="&#x10a;" horiz-adv-x="1015" 
d="M735 1454l-14 -4q136 0 240 -82t104 -211q0 -41 -27 -76q-25 -32 -69 -32q-33 0 -51 18q-20 20 -23 53q-6 76 -57 121q-53 47 -129 47q-99 0 -166 -61q-68 -62 -80 -154l-98 -692q-5 -45 -5 -62q0 -78 56 -131q54 -51 141 -51q98 0 160 53q63 54 84 146q9 36 35 59t61 23
q33 0 55 -19q21 -18 21 -49q0 -145 -127 -260q-125 -113 -295 -113q-159 0 -260 93q-98 91 -98 237q0 55 10 133l90 635q21 163 141 271t301 108zM645 1673l-2 2q0 47 37 84t86 37q41 0 65 -24q25 -25 25 -66q0 -49 -37 -86t-84 -37q-40 0 -65 25t-25 65z" />
    <glyph glyph-name="cdotaccent" unicode="&#x10b;" horiz-adv-x="937" 
d="M623 1044l-5 -8q142 0 228 -86t86 -178q0 -40 -21 -67q-23 -29 -61 -29q-31 0 -49 18t-21 47q-3 66 -49 109t-123 43q-93 0 -153 -57q-62 -59 -74 -148l-51 -360q-2 -12 -2 -37q0 -84 49 -127t135 -43q162 0 215 164q21 63 82 63q31 0 49 -18q19 -19 19 -47
q0 -98 -105 -203t-276 -105q-147 0 -238 91q-90 90 -90 221q0 7 4 57l47 348q21 155 129 254q107 98 275 98zM549 1260l-2 2q0 47 37 84q36 36 86 36q41 0 65 -24q25 -25 25 -66q0 -49 -37 -86t-84 -37q-41 0 -66 25q-24 24 -24 66z" />
    <glyph glyph-name="Ccaron" unicode="&#x10c;" horiz-adv-x="1015" 
d="M735 1454l-14 -4q136 0 240 -82t104 -211q0 -41 -27 -76q-25 -32 -69 -32q-33 0 -51 18q-20 20 -23 53q-6 76 -57 121q-53 47 -129 47q-99 0 -166 -61q-68 -62 -80 -154l-98 -692q-5 -45 -5 -62q0 -78 56 -131q54 -51 141 -51q98 0 160 53q63 54 84 146q9 36 35 59t61 23
q33 0 55 -19q21 -18 21 -49q0 -145 -127 -260q-125 -113 -295 -113q-159 0 -260 93q-98 91 -98 237q0 55 10 133l90 635q21 163 141 271t301 108zM1028 1774l2 -2q0 -27 -29 -56l-170 -157q-37 -37 -86 -37q-46 0 -73 37l-144 163q-14 17 -14 39q0 29 21 47q22 19 49 19
q20 0 43 -23l129 -131l162 133q27 21 51 21q23 0 41 -15t18 -38z" />
    <glyph glyph-name="ccaron" unicode="&#x10d;" horiz-adv-x="937" 
d="M623 1044l-5 -8q142 0 228 -86t86 -178q0 -40 -21 -67q-23 -29 -61 -29q-31 0 -49 18t-21 47q-3 66 -49 109t-123 43q-93 0 -153 -57q-62 -59 -74 -148l-51 -360q-2 -12 -2 -37q0 -84 49 -127t135 -43q162 0 215 164q21 63 82 63q31 0 49 -18q19 -19 19 -47
q0 -98 -105 -203t-276 -105q-147 0 -238 91q-90 90 -90 221q0 7 4 57l47 348q21 155 129 254q107 98 275 98zM930 1360l2 -2q0 -26 -29 -55l-170 -158q-37 -37 -86 -37q-47 0 -74 37l-143 164q-14 17 -14 39q0 30 20 47q21 18 49 18q21 0 43 -22l129 -131l162 133
q26 20 51 20q24 0 41 -14q19 -16 19 -39z" />
    <glyph glyph-name="Dcaron" unicode="&#x10e;" horiz-adv-x="1071" 
d="M561 0l-321 -2q-33 0 -52 22q-17 20 -14 56l178 1274q3 32 31 57t61 25h295q148 0 244 -93t96 -231q0 -1 -4 -51l-94 -680q-21 -164 -137 -271q-115 -106 -283 -106zM803 373l96 684q2 14 2 30q0 80 -55 132q-54 51 -137 51h-201l-156 -1110h201q94 0 164 61
q71 62 86 152zM1020 1776l2 -2q0 -27 -29 -56l-170 -157q-37 -37 -86 -37q-46 0 -73 37l-144 163q-14 17 -14 39q0 30 20 47q22 19 49 19q20 0 43 -23l130 -131l161 133q27 21 52 21q23 0 40 -14q19 -16 19 -39z" />
    <glyph glyph-name="dcaron" unicode="&#x10f;" horiz-adv-x="1024" 
d="M369 696l-52 -352q-4 -36 -4 -49q0 -70 49 -119t132 -49q94 0 157 66q62 65 74 147l47 344q2 10 2 33q0 73 -47 129q-46 55 -129 55q-91 0 -154 -57t-75 -148zM690 84l-2 -4q-2 -2 -10.5 -11t-15.5 -16q-18 -18 -80 -45q-59 -26 -131 -26q-135 0 -218 92q-81 90 -81 217
q0 9 4 55l47 354q21 152 129 246q110 96 252 96q74 0 127 -26q52 -25 75 -55l19 -27l63 440q3 33 29 56q25 22 59 22t56 -25q21 -24 18 -57l-184 -1315q-3 -32 -29 -55t-59 -23t-51 21q-19 22 -19 55zM1141 1106l-2 -2q-56 0 -56 59q0 23 17 47l137 195q35 47 80 47
q29 0 47 -18t18 -45q0 -35 -24 -62l-156 -184q-27 -37 -61 -37z" />
    <glyph glyph-name="Dcroat" unicode="&#x110;" horiz-adv-x="1087" 
d="M575 0l-321 -6q-32 0 -51 22q-18 21 -15 56l84 604h-77q-35 0 -54 22q-17 20 -14 54q3 30 29 53q25 22 59 22h78l74 523q3 33 30 57q28 25 62 25h295q147 0 243 -93q97 -94 97 -231q0 -1 -4 -51l-95 -680q-21 -164 -137 -271q-115 -106 -283 -106zM817 369l94 680
q2 14 2 30q0 79 -55 131t-137 52h-201l-61 -441h141q36 0 53 -20q20 -23 17 -51q-3 -29 -29 -52q-23 -20 -59 -20h-142l-73 -522h200q94 0 164 61q71 62 86 152z" />
    <glyph glyph-name="dcroat" unicode="&#x111;" horiz-adv-x="993" 
d="M1047 1153l-48 -8l-153 -1094q-3 -32 -29 -55t-59 -23t-51 21q-19 22 -19 55l2 31q-2 -2 -10.5 -11t-15.5 -16q-18 -18 -80 -45q-59 -26 -131 -26q-134 0 -217 92q-82 91 -82 217q0 9 4 55l47 354q21 152 129 246q110 96 252 96q74 0 127 -26q52 -25 75 -55l19 -27
l31 219h-174q-70 0 -70 57q0 34 27 58t63 24h174l12 84q3 33 29 56q25 22 59 22q35 0 56 -24t18 -58l-12 -84h47q68 0 68 -57q0 -33 -25 -55q-26 -23 -63 -23zM367 688l-52 -352q-4 -36 -4 -49q0 -70 49 -119t132 -49q95 0 157 65t74 148l47 344q2 10 2 33q0 73 -47 129
q-46 55 -129 55q-91 0 -154 -57t-75 -148z" />
    <glyph glyph-name="Emacron" unicode="&#x112;" 
d="M819 0l-579 -4q-33 0 -52 22q-17 20 -14 56l178 1274q3 32 31 57t61 25h560q33 0 53 -23q17 -20 14 -55q-3 -32 -29 -58q-24 -24 -59 -24h-467l-61 -436h417q34 0 54 -23q19 -22 16 -55q-3 -34 -31 -56t-61 -22h-418l-74 -514h484q34 0 53 -25t16 -57q-3 -33 -30 -57
q-28 -25 -62 -25zM465 1667q0 33 27 57q28 25 63 25h389q31 0 49 -18q19 -19 19 -48q0 -33 -27 -57t-63 -24h-390q-31 0 -49 18t-18 47z" />
    <glyph glyph-name="emacron" unicode="&#x113;" horiz-adv-x="940" 
d="M377 692l-31 -203l309 109q127 47 127 147q0 69 -45 111q-46 43 -125 43q-87 0 -155 -59t-80 -148zM489 -20l-6 -3q-145 0 -235 84q-88 82 -88 213q0 4 4 54l51 364q21 150 135 252q112 100 277 100q143 0 227 -81q86 -83 86 -199q0 -218 -250 -307l-362 -127
q-4 -32 -4 -35q0 -78 47 -125q45 -45 127 -45q166 0 213 147q21 64 82 64q30 0 49 -19q18 -18 18 -47q0 -90 -100 -190t-271 -100zM379 1260q0 33 27 57t63 24h389q31 0 49 -18q19 -19 19 -47q0 -33 -27 -57q-28 -25 -63 -25h-390q-31 0 -49 18t-18 48z" />
    <glyph glyph-name="Ebreve" unicode="&#x114;" 
d="M819 0l-579 -4q-33 0 -52 22q-17 20 -14 56l178 1274q3 32 31 57t61 25h560q33 0 53 -23q17 -20 14 -55q-3 -32 -29 -58q-24 -24 -59 -24h-467l-61 -436h417q34 0 54 -23q19 -22 16 -55q-3 -34 -31 -56t-61 -22h-418l-74 -514h484q34 0 53 -25t16 -57q-3 -33 -30 -57
q-28 -25 -62 -25zM764 1677v-2q53 0 84 25q32 26 41 55t35 55q25 25 61 25q59 0 59 -61q0 -66 -79 -142q-81 -78 -211 -78q-123 0 -185 62q-61 61 -61 131q0 40 22 65t56 25q37 0 53 -25q15 -24 18 -55q3 -29 29 -55q25 -25 78 -25z" />
    <glyph glyph-name="ebreve" unicode="&#x115;" horiz-adv-x="940" 
d="M377 692l-31 -203l309 109q127 47 127 147q0 69 -45 111q-46 43 -125 43q-87 0 -155 -59t-80 -148zM489 -20l-6 -3q-145 0 -235 84q-88 82 -88 213q0 4 4 54l51 364q21 150 135 252q112 100 277 100q143 0 227 -81q86 -83 86 -199q0 -218 -250 -307l-362 -127
q-4 -32 -4 -35q0 -78 47 -125q45 -45 127 -45q166 0 213 147q21 64 82 64q30 0 49 -19q18 -18 18 -47q0 -90 -100 -190t-271 -100zM651 1270v-2q54 0 84 24q32 25 41 56q9 29 35 55q24 24 61 24q60 0 60 -61q0 -64 -80 -141q-81 -78 -211 -78q-123 0 -184 61q-62 62 -62 131
q0 40 23 66q22 25 55 25q37 0 53 -25q16 -26 19 -55q3 -31 28 -56q24 -24 78 -24z" />
    <glyph glyph-name="Edotaccent" unicode="&#x116;" 
d="M819 0l-579 -4q-33 0 -52 22q-17 20 -14 56l178 1274q3 32 31 57t61 25h560q33 0 53 -23q17 -20 14 -55q-3 -32 -29 -58q-24 -24 -59 -24h-467l-61 -436h417q34 0 54 -23q19 -22 16 -55q-3 -34 -31 -56t-61 -22h-418l-74 -514h484q34 0 53 -25t16 -57q-3 -33 -30 -57
q-28 -25 -62 -25zM651 1673l-2 2q0 47 37 84t86 37q42 0 66 -24t24 -66q0 -49 -37 -86t-84 -37q-40 0 -65 25t-25 65z" />
    <glyph glyph-name="edotaccent" unicode="&#x117;" horiz-adv-x="940" 
d="M377 692l-31 -203l309 109q127 47 127 147q0 69 -45 111q-46 43 -125 43q-87 0 -155 -59t-80 -148zM489 -20l-6 -3q-145 0 -235 84q-88 82 -88 213q0 4 4 54l51 364q21 150 135 252q112 100 277 100q143 0 227 -81q86 -83 86 -199q0 -218 -250 -307l-362 -127
q-4 -32 -4 -35q0 -78 47 -125q45 -45 127 -45q166 0 213 147q21 64 82 64q30 0 49 -19q18 -18 18 -47q0 -90 -100 -190t-271 -100zM549 1266l-6 2q0 47 37 84t86 37q39 0 67 -25q27 -24 27 -66q0 -49 -37 -86q-36 -36 -84 -36q-42 0 -66 24t-24 66z" />
    <glyph glyph-name="Eogonek" unicode="&#x118;" 
d="M754 0l-514 -6q-36 0 -54 24q-17 23 -14 58l180 1274q3 33 31 55t61 22h560q34 0 53 -22t16 -55t-31 -58q-27 -24 -61 -24h-467l-61 -437h417q36 0 54 -24q19 -25 16 -57q-3 -33 -31 -58q-27 -24 -61 -24h-418l-72 -514h484q34 0 53 -25q18 -24 12 -57q-6 -41 -43 -68
q-57 -41 -108 -100q-56 -65 -56 -113q0 -39 41 -39h50q67 0 67 -53q0 -30 -24 -51t-62 -21h-72q-67 0 -104 37t-37 90q0 79 57 142t138 104z" />
    <glyph glyph-name="eogonek" unicode="&#x119;" horiz-adv-x="940" 
d="M489 -20l-6 -11q-145 0 -235 84q-88 82 -88 213q0 3 4 53l51 365q21 150 135 252q112 100 277 100q142 0 227 -82q86 -83 86 -198q0 -218 -250 -307l-362 -127q-4 -32 -4 -35q0 -78 47 -125q45 -45 127 -45q166 0 213 147q21 64 82 64q30 0 49 -19q18 -18 18 -47
q0 -53 -49 -123t-131 -116q-66 -38 -117 -101q-53 -65 -53 -123q0 -43 41 -43h49q66 0 66 -53q0 -29 -25 -51q-24 -21 -59 -21h-72q-67 0 -104 37t-37 90q0 129 151 224q-6 -2 -31 -2zM371 682l-31 -203l309 109q127 47 127 147q0 69 -45 111q-46 43 -125 43q-86 0 -155 -60
q-68 -59 -80 -147z" />
    <glyph glyph-name="Ecaron" unicode="&#x11a;" 
d="M819 0l-579 -4q-33 0 -52 22q-17 20 -14 56l178 1274q3 32 31 57t61 25h560q33 0 53 -23q17 -20 14 -55q-3 -32 -29 -58q-24 -24 -59 -24h-467l-61 -436h417q34 0 54 -23q19 -22 16 -55q-3 -34 -31 -56t-61 -22h-418l-74 -514h484q34 0 53 -25t16 -57q-3 -33 -30 -57
q-28 -25 -62 -25zM1032 1774l2 -2q0 -28 -28 -56l-170 -157q-37 -37 -86 -37q-47 0 -74 37l-144 163q-14 17 -14 39q0 29 21 47q22 19 49 19q20 0 43 -23l129 -131l162 133q27 21 51 21q23 0 41 -15t18 -38z" />
    <glyph glyph-name="ecaron" unicode="&#x11b;" horiz-adv-x="940" 
d="M377 692l-31 -203l309 109q127 47 127 147q0 69 -45 111q-46 43 -125 43q-87 0 -155 -59t-80 -148zM489 -20l-6 -3q-145 0 -235 84q-88 82 -88 213q0 4 4 54l51 364q21 150 135 252q112 100 277 100q143 0 227 -81q86 -83 86 -199q0 -218 -250 -307l-362 -127
q-4 -32 -4 -35q0 -78 47 -125q45 -45 127 -45q166 0 213 147q21 64 82 64q30 0 49 -19q18 -18 18 -47q0 -90 -100 -190t-271 -100zM930 1366l2 -2q0 -26 -29 -55l-170 -158q-37 -37 -86 -37q-47 0 -74 37l-143 164q-14 17 -14 39q0 30 20 47q21 18 49 18q21 0 43 -22
l129 -131l162 133q26 20 51 20q24 0 41 -14q19 -16 19 -39z" />
    <glyph glyph-name="Gcircumflex" unicode="&#x11c;" horiz-adv-x="1089" 
d="M762 1454h-4q133 0 237 -82q105 -82 105 -211q0 -44 -27 -74t-69 -30q-34 0 -52 18q-19 19 -22 53q-9 77 -62 121q-52 43 -131 43q-114 0 -184 -61q-72 -63 -84 -154l-98 -692q-4 -36 -4 -61q0 -79 55 -131t151 -52q104 0 172 62t80 151l33 224h-145q-36 0 -54 24
q-17 23 -14 57q6 35 33 56q28 22 61 22h232q88 0 76 -90l-43 -291q-21 -155 -138 -266q-116 -110 -301 -110q-166 0 -270 96q-102 94 -102 233q0 27 6 76l96 692q21 160 145 269q123 108 322 108zM504 1583l-2 -4q0 27 28 55l170 158q37 37 86 37q47 0 74 -37l144 -164
q14 -17 14 -39q0 -27 -21 -45t-49 -18q-21 0 -43 22l-129 131l-162 -133q-26 -20 -51 -20q-22 0 -41 16q-18 15 -18 41z" />
    <glyph glyph-name="gcircumflex" unicode="&#x11d;" 
d="M377 690l-31 -217q-4 -36 -4 -61q0 -77 49 -123q48 -45 144 -45q77 0 141 61q65 62 74 141l57 414q-47 47 -189 47q-94 0 -161 -61q-68 -62 -80 -156zM680 -45l33 240q-34 -43 -78 -70l-264 -158q-66 -41 -66 -104q0 -44 37 -74q39 -31 100 -31q95 0 160 56q66 57 78 141
zM965 879l-134 -934q-18 -142 -129 -236q-110 -94 -276 -94q-126 0 -205 61q-80 62 -80 168q0 151 150 228l117 55q-104 9 -166 86t-62 197q0 13 4 67l31 234q18 140 135 239t275 99q132 0 266 -52q76 -27 76 -84q0 -22 -2 -34zM408 1178l-2 -4q0 27 28 55l170 157
q37 37 86 37q47 0 74 -37l143 -163q15 -18 15 -39q0 -27 -21 -45q-22 -19 -49 -19q-20 0 -43 23l-129 131l-162 -133q-27 -21 -51 -21q-21 0 -41 17q-18 15 -18 41z" />
    <glyph glyph-name="Gbreve" unicode="&#x11e;" horiz-adv-x="1089" 
d="M762 1454h-4q133 0 237 -82q105 -82 105 -211q0 -44 -27 -74t-69 -30q-34 0 -52 18q-19 19 -22 53q-9 77 -62 121q-52 43 -131 43q-114 0 -184 -61q-72 -63 -84 -154l-98 -692q-4 -36 -4 -61q0 -79 55 -131t151 -52q104 0 172 62t80 151l33 224h-145q-36 0 -54 24
q-17 23 -14 57q6 35 33 56q28 22 61 22h232q88 0 76 -90l-43 -291q-21 -155 -138 -266q-116 -110 -301 -110q-166 0 -270 96q-102 94 -102 233q0 27 6 76l96 692q21 160 145 269q123 108 322 108zM774 1681v-2q53 0 84 25q32 26 41 55q9 30 35 56q24 24 61 24q60 0 60 -61
q0 -65 -80 -142t-211 -77q-123 0 -184 61q-62 62 -62 131q0 40 23 66q21 24 55 24q38 0 53 -24q16 -26 19 -56t28 -55t78 -25z" />
    <glyph glyph-name="gbreve" unicode="&#x11f;" 
d="M377 690l-31 -217q-4 -36 -4 -61q0 -77 49 -123q48 -45 144 -45q77 0 141 61q65 62 74 141l57 414q-47 47 -189 47q-94 0 -161 -61q-68 -62 -80 -156zM680 -45l33 240q-34 -43 -78 -70l-264 -158q-66 -41 -66 -104q0 -44 37 -74q39 -31 100 -31q95 0 160 56q66 57 78 141
zM965 879l-134 -934q-18 -142 -129 -236q-110 -94 -276 -94q-126 0 -205 61q-80 62 -80 168q0 151 150 228l117 55q-104 9 -166 86t-62 197q0 13 4 67l31 234q18 140 135 239t275 99q132 0 266 -52q76 -27 76 -84q0 -22 -2 -34zM649 1276v-2q54 0 84 24q32 25 41 56
q9 29 35 55q25 25 61 25q60 0 60 -62q0 -64 -80 -141q-81 -78 -211 -78q-123 0 -184 61q-62 62 -62 132q0 39 23 65q22 25 55 25q37 0 53 -25q16 -26 19 -55q3 -31 28 -56q24 -24 78 -24z" />
    <glyph glyph-name="Gdotaccent" unicode="&#x120;" horiz-adv-x="1089" 
d="M762 1454h-4q133 0 237 -82q105 -82 105 -211q0 -44 -27 -74t-69 -30q-34 0 -52 18q-19 19 -22 53q-9 77 -62 121q-52 43 -131 43q-114 0 -184 -61q-72 -63 -84 -154l-98 -692q-4 -36 -4 -61q0 -79 55 -131t151 -52q104 0 172 62t80 151l33 224h-145q-36 0 -54 24
q-17 23 -14 57q6 35 33 56q28 22 61 22h232q88 0 76 -90l-43 -291q-21 -155 -138 -266q-116 -110 -301 -110q-166 0 -270 96q-102 94 -102 233q0 27 6 76l96 692q21 160 145 269q123 108 322 108zM666 1677l-7 2q0 47 37 84t86 37q41 0 68 -24t27 -66q0 -49 -37 -86t-84 -37
q-41 0 -66 25q-24 24 -24 65z" />
    <glyph glyph-name="gdotaccent" unicode="&#x121;" 
d="M377 690l-31 -217q-4 -36 -4 -61q0 -77 49 -123q48 -45 144 -45q77 0 141 61q65 62 74 141l57 414q-47 47 -189 47q-94 0 -161 -61q-68 -62 -80 -156zM680 -45l33 240q-34 -43 -78 -70l-264 -158q-66 -41 -66 -104q0 -44 37 -74q39 -31 100 -31q95 0 160 56q66 57 78 141
zM965 879l-134 -934q-18 -142 -129 -236q-110 -94 -276 -94q-126 0 -205 61q-80 62 -80 168q0 151 150 228l117 55q-104 9 -166 86t-62 197q0 13 4 67l31 234q18 140 135 239t275 99q132 0 266 -52q76 -27 76 -84q0 -22 -2 -34zM555 1272l-6 2q0 47 37 84t86 37q39 0 67 -25
q27 -24 27 -65q0 -49 -37 -86t-84 -37q-41 0 -65 24q-25 25 -25 66z" />
    <glyph glyph-name="Gcommaaccent" unicode="&#x122;" horiz-adv-x="1089" 
d="M762 1454h-4q133 0 237 -82q105 -82 105 -211q0 -44 -27 -74t-69 -30q-34 0 -52 18q-19 19 -22 53q-9 77 -62 121q-52 43 -131 43q-114 0 -184 -61q-72 -63 -84 -154l-98 -692q-4 -36 -4 -61q0 -79 55 -131t151 -52q104 0 172 62t80 151l33 224h-145q-36 0 -54 24
q-17 23 -14 57q6 35 33 56q28 22 61 22h232q88 0 76 -90l-43 -291q-21 -155 -138 -266q-116 -110 -301 -110q-166 0 -270 96q-102 94 -102 233q0 27 6 76l96 692q21 160 145 269q123 108 322 108zM340 -434l-2 -2q-55 0 -55 59q0 25 16 47l137 195q35 47 80 47q29 0 47 -18
q19 -19 19 -46q0 -33 -25 -61l-156 -184q-27 -37 -61 -37z" />
    <glyph glyph-name="gcommaaccent" unicode="&#x123;" 
d="M377 690l-31 -217q-4 -36 -4 -61q0 -77 49 -123q48 -45 144 -45q77 0 141 61q65 62 74 141l57 414q-47 47 -189 47q-94 0 -161 -61q-68 -62 -80 -156zM680 -45l33 240q-34 -43 -78 -70l-264 -158q-66 -41 -66 -104q0 -44 37 -74q39 -31 100 -31q95 0 160 56q66 57 78 141
zM965 879l-134 -934q-18 -142 -129 -236q-110 -94 -276 -94q-126 0 -205 61q-80 62 -80 168q0 151 150 228l117 55q-104 9 -166 86t-62 197q0 13 4 67l31 234q18 140 135 239t275 99q132 0 266 -52q76 -27 76 -84q0 -22 -2 -34zM801 1452q55 0 55 -59q0 -25 -16 -47
l-138 -195q-35 -47 -79 -47q-27 0 -45 18q-19 19 -19 45q0 36 25 64l155 184q27 37 62 37z" />
    <glyph glyph-name="Hcircumflex" unicode="&#x124;" horiz-adv-x="1116" 
d="M1145 1370l-184 -1307q-3 -35 -29 -61q-25 -25 -66 -25q-33 0 -55 25q-21 24 -18 59l86 613h-445l-86 -613q-3 -36 -31 -61t-67 -25q-33 0 -55 25t-19 59l182 1307q3 36 31 61t68 25q33 0 55 -25q21 -24 18 -59l-73 -534h444l74 534q3 37 31 62q27 24 65 24q34 0 55 -24
q22 -25 19 -60zM518 1583l-2 -4q0 26 29 55l170 158q37 37 86 37q46 0 73 -37l144 -164q14 -17 14 -39q0 -28 -20 -45q-21 -18 -49 -18q-21 0 -43 22l-129 131l-162 -133q-26 -20 -51 -20q-22 0 -41 16t-19 41z" />
    <glyph glyph-name="hcircumflex" unicode="&#x125;" horiz-adv-x="1003" 
d="M496 1374l-70 -475q9 15 31 37q18 18 90 55q68 35 139 35q123 0 203 -80t80 -203q0 -37 -6 -81l-86 -615q-3 -32 -29 -55t-62 -23q-34 0 -53 25q-17 23 -14 57l84 611q4 46 4 61q0 73 -45 121q-46 49 -119 49q-86 0 -160 -59t-86 -146l-88 -633q-3 -33 -28 -55
q-26 -23 -62 -23q-34 0 -53 25q-17 23 -14 57l184 1315q3 33 29 56q25 22 61 22q34 0 53 -22q20 -23 17 -56zM461 1567l-2 -4q0 27 28 55l170 158q36 36 86 36q48 0 74 -36l144 -164q14 -17 14 -39q0 -27 -21 -45q-22 -19 -49 -19q-20 0 -43 23l-129 131l-162 -133
q-27 -21 -51 -21q-21 0 -41 17q-18 15 -18 41z" />
    <glyph glyph-name="Hbar" unicode="&#x126;" horiz-adv-x="1126" 
d="M1145 1370l-29 -180h39q30 0 49 -19t19 -47q0 -33 -27 -57q-28 -25 -63 -25h-39l-138 -981q-3 -36 -28 -61t-66 -25q-33 0 -55 25t-19 59l86 613h-444l-86 -613q-3 -36 -31 -61t-67 -25q-34 0 -56 25q-21 24 -18 59l137 981h-35q-32 0 -51 19q-18 18 -18 47q0 36 26 59
q28 25 68 25h35l24 178q3 36 31 61t68 25q33 0 55 -25q21 -24 18 -59l-24 -178h444l25 178q3 37 31 62q27 24 65 24q34 0 55 -24q22 -25 19 -60zM451 834h444l29 208h-445z" />
    <glyph glyph-name="hbar" unicode="&#x127;" horiz-adv-x="1003" 
d="M506 1374l-17 -104h164q68 0 68 -58q0 -33 -25 -55t-63 -22h-164l-33 -238q9 15 31 37q18 18 90 55q68 35 139 35q123 0 203 -80t80 -203q0 -39 -6 -82l-86 -614q-3 -32 -29 -55t-61 -23t-54 25q-17 23 -14 57l84 610q4 46 4 62q0 73 -45 121q-46 49 -119 49
q-84 0 -159 -60q-74 -59 -86 -145l-89 -633q-3 -33 -28 -55q-26 -23 -62 -23q-34 0 -53 25q-17 23 -14 57l153 1094h-59q-70 0 -70 57q0 34 27 58t63 24h58l12 84q3 33 29 56q25 22 61 22q34 0 53 -22q20 -23 17 -56z" />
    <glyph glyph-name="Itilde" unicode="&#x128;" horiz-adv-x="499" 
d="M528 1370l-186 -1307q-3 -36 -31 -61t-67 -25q-36 0 -58 25q-21 24 -18 59l184 1307q3 37 31 62q27 24 68 24q38 0 59 -24t18 -60zM365 1776q56 0 127 -45t104 -45q40 0 61 40q21 50 72 50q57 0 57 -58q0 -63 -61 -112q-62 -50 -137 -50q-52 0 -125 43t-105 43
q-40 0 -61 -40q-21 -50 -72 -50q-55 0 -55 56q0 63 59 116q58 52 136 52z" />
    <glyph glyph-name="itilde" unicode="&#x129;" horiz-adv-x="471" 
d="M178 227l103 746q3 33 28 55q26 23 62 23q33 0 53 -23q19 -22 16 -55l-104 -735q-4 -32 -4 -39q0 -43 51 -49q72 -9 72 -68q0 -37 -25 -62q-24 -24 -70 -24q-88 0 -137 43t-49 127q0 7 4 61zM285 1372q56 0 127 -45t104 -45q41 0 62 41q21 49 71 49q58 0 58 -57
q0 -63 -62 -113q-61 -49 -137 -49q-52 0 -125 43t-104 43q-41 0 -62 -41q-21 -49 -72 -49q-55 0 -55 55q0 63 60 117q57 51 135 51z" />
    <glyph glyph-name="Imacron" unicode="&#x12a;" horiz-adv-x="499" 
d="M528 1370l-186 -1307q-3 -36 -31 -61t-67 -25q-36 0 -58 25q-21 24 -18 59l184 1307q3 37 31 62q27 24 68 24q38 0 59 -24t18 -60zM213 1671q0 34 27 58t63 24h389q31 0 49 -18q19 -19 19 -47q0 -34 -27 -58t-63 -24h-389q-32 0 -50 18t-18 47z" />
    <glyph glyph-name="imacron" unicode="&#x12b;" horiz-adv-x="471" 
d="M178 227l103 746q3 33 28 55q26 23 62 23q33 0 53 -23q19 -22 16 -55l-104 -735q-4 -32 -4 -39q0 -43 51 -49q72 -9 72 -68q0 -37 -25 -62q-24 -24 -70 -24q-88 0 -137 43t-49 127q0 7 4 61zM129 1268q0 33 27 57q28 25 63 25h389q30 0 49 -19t19 -47q0 -33 -27 -57
q-28 -25 -63 -25h-389q-31 0 -50 19q-18 18 -18 47z" />
    <glyph glyph-name="Ibreve" unicode="&#x12c;" horiz-adv-x="499" 
d="M528 1370l-186 -1307q-3 -36 -31 -61t-67 -25q-36 0 -58 25q-21 24 -18 59l184 1307q3 37 31 62q27 24 68 24q38 0 59 -24t18 -60zM483 1681v-2q53 0 84 25q32 26 41 55q9 30 35 56q24 24 62 24q59 0 59 -61q0 -65 -80 -142t-211 -77q-123 0 -184 61q-62 62 -62 131
q0 40 23 66q21 24 55 24q38 0 53 -24q16 -26 19 -56q3 -29 29 -55q25 -25 77 -25z" />
    <glyph glyph-name="ibreve" unicode="&#x12d;" horiz-adv-x="471" 
d="M178 227l103 746q3 33 28 55q26 23 62 23q33 0 53 -23q19 -22 16 -55l-104 -735q-4 -32 -4 -39q0 -43 51 -49q72 -9 72 -68q0 -37 -25 -62q-24 -24 -70 -24q-88 0 -137 43t-49 127q0 7 4 61zM393 1278v-2q54 0 84 24q32 25 41 56q9 29 35 55q25 25 61 25q60 0 60 -62
q0 -64 -80 -141q-81 -78 -211 -78q-122 0 -184 62t-62 131q0 39 23 65q22 25 55 25q37 0 53 -25q16 -26 19 -55q3 -30 28 -55t78 -25z" />
    <glyph glyph-name="Iogonek" unicode="&#x12e;" horiz-adv-x="499" 
d="M530 1370l-190 -1309q-3 -27 -31 -55q-3 -2 -61 -49q-63 -50 -86 -82q-27 -37 -27 -76t41 -39h49q66 0 66 -53q0 -33 -25 -55q-24 -21 -57 -21h-72q-67 0 -104 37t-37 90q0 136 201 236q-33 23 -27 67l184 1307q3 37 31 62q27 24 68 24q38 0 59 -24t18 -60z" />
    <glyph glyph-name="iogonek" unicode="&#x12f;" horiz-adv-x="471" 
d="M178 227l105 738q3 33 28 55t62 22q34 0 53 -22t16 -55l-104 -736q-4 -32 -4 -39q0 -43 51 -49q72 -9 72 -67t-49 -76q-50 -20 -125 -86q-74 -65 -74 -113q0 -43 41 -43h49q66 0 66 -53q0 -29 -25 -51q-24 -21 -59 -21h-72q-68 0 -105 37q-36 36 -36 90q0 77 65 142
q61 61 152 104q-111 34 -111 162q0 7 4 61zM299 1268h2q0 49 37 86t88 37q42 0 66 -27t24 -68q0 -49 -37 -86q-36 -36 -86 -36q-41 0 -67 26q-27 27 -27 68z" />
    <glyph glyph-name="Idotaccent" unicode="&#x130;" horiz-adv-x="499" 
d="M528 1370l-186 -1307q-3 -36 -31 -61t-67 -25q-36 0 -58 25q-21 24 -18 59l184 1307q3 37 31 62q27 24 68 24q38 0 59 -24t18 -60zM373 1677l-6 2q0 48 36 84q37 37 86 37q41 0 68 -24t27 -66q0 -49 -37 -86t-84 -37q-41 0 -66 25q-24 24 -24 65z" />
    <glyph glyph-name="dotlessi" unicode="&#x131;" horiz-adv-x="471" 
d="M178 227l103 746q3 33 28 55q26 23 62 23q33 0 53 -23q19 -22 16 -55l-104 -735q-4 -32 -4 -39q0 -43 51 -49q72 -9 72 -68q0 -37 -25 -62q-24 -24 -70 -24q-88 0 -137 43t-49 127q0 7 4 61z" />
    <glyph glyph-name="IJ" unicode="&#x132;" horiz-adv-x="1427" 
d="M528 1370l-186 -1307q-3 -36 -31 -61t-67 -25q-36 0 -58 25q-21 24 -18 59l184 1307q3 37 31 62q27 24 68 24q38 0 59 -24t18 -60zM823 453l-20 -154v-12v-19q0 -55 37 -92t108 -37t123 43q54 45 66 137l149 1049q3 37 31 62q27 24 67 24q39 0 60 -24t18 -60l-149 -1059
q-21 -149 -123 -241q-104 -93 -246 -93q-137 0 -223 80t-86 197q0 32 22 199q3 34 31 59t62 25q33 0 55 -25q21 -24 18 -59z" />
    <glyph glyph-name="ij" unicode="&#x133;" horiz-adv-x="962" 
d="M299 1270h2q0 49 37 86t88 37q42 0 66 -27t24 -68q0 -49 -37 -86q-36 -36 -86 -36q-41 0 -67 26q-27 27 -27 68zM180 227l103 746q3 33 28 55q26 23 62 23q33 0 53 -23q19 -22 16 -55l-104 -735q-4 -32 -4 -39q0 -43 51 -49q72 -9 72 -68q0 -37 -25 -62q-24 -24 -70 -24
q-88 0 -137 43t-49 127q0 7 4 61zM346 -350l-6 -2q-35 15 -35 49q0 38 25 63t59 25q11 0 29 -6q43 -19 74 -19q47 0 88 35q40 34 49 99l151 1073q3 32 31 57t61 25q34 0 54 -23q19 -22 16 -55l-149 -1057q-18 -132 -76 -199q-81 -96 -228 -96q-83 0 -143 31zM797 1274h2
q0 49 37 86t88 37q41 0 65 -27q25 -28 25 -67q0 -49 -37 -86t-86 -37q-42 0 -68 26t-26 68z" />
    <glyph glyph-name="Jcircumflex" unicode="&#x134;" horiz-adv-x="927" 
d="M326 453l-21 -154v-12v-19q0 -55 37 -92t109 -37q70 0 122 43q54 45 66 137l149 1049q3 37 31 62q27 24 68 24q38 0 59 -24q22 -25 19 -60l-150 -1059q-21 -149 -123 -241q-104 -93 -246 -93q-137 0 -223 80t-86 197q0 25 23 199q3 35 30 59q28 25 62 25q33 0 55 -25
t19 -59zM633 1581l-2 -4q0 27 28 55l170 158q37 37 86 37q47 0 74 -37l144 -164q14 -17 14 -39q0 -27 -21 -45t-49 -18q-21 0 -43 22l-129 131l-162 -133q-26 -20 -51 -20q-22 0 -41 16q-18 15 -18 41z" />
    <glyph glyph-name="jcircumflex" unicode="&#x135;" horiz-adv-x="491" 
d="M-125 -356l-6 -2q-35 15 -35 49q0 38 25 63t59 25q11 0 29 -6q43 -19 73 -19q48 0 89 35q40 34 49 98l151 1074q3 32 31 57q27 24 61 24q35 0 54 -22t16 -55l-149 -1057q-18 -132 -76 -199q-81 -96 -228 -96q-83 0 -143 31zM145 1171l-2 -4q0 27 29 56l170 157
q37 37 86 37q47 0 74 -37l143 -163q14 -17 14 -39q0 -28 -20 -45q-22 -19 -49 -19q-20 0 -43 23l-129 131l-162 -133q-27 -21 -51 -21q-22 0 -41 16t-19 41z" />
    <glyph glyph-name="Kcommaaccent" unicode="&#x136;" horiz-adv-x="1017" 
d="M440 739l-94 -678q-3 -36 -31 -61t-67 -25q-36 0 -58 25q-21 24 -18 59l184 1307q3 36 31 61t68 25q35 0 57 -25q21 -24 18 -59l-84 -596l539 645q27 35 74 35q31 0 49 -18t18 -48q0 -36 -30 -71l-484 -565l336 -627q17 -31 17 -53q0 -36 -25 -64q-23 -26 -63 -26
q-52 0 -76 49zM356 -436l-2 -2q-55 0 -55 59q0 25 16 47l138 195q35 47 79 47q29 0 48 -19q18 -18 18 -45q0 -33 -25 -61l-155 -184q-27 -37 -62 -37z" />
    <glyph glyph-name="kcommaaccent" unicode="&#x137;" horiz-adv-x="890" 
d="M686 18l-311 510l-64 -467q-3 -33 -28 -55t-62 -22q-34 0 -53 22q-17 20 -14 55l184 1315q3 33 29 56q25 22 61 22q34 0 53 -22q18 -21 15 -56l-117 -819l420 451q36 39 78 39q28 0 47 -19q18 -18 18 -47q0 -41 -33 -74l-356 -368l264 -428q14 -22 14 -50q0 -34 -20 -57
q-21 -24 -55 -24q-47 0 -70 38zM276 -432l-2 -2q-55 0 -55 59q0 23 17 47l137 195q35 47 80 47q29 0 47 -18t18 -46q0 -34 -24 -61l-156 -184q-27 -37 -62 -37z" />
    <glyph glyph-name="kgreenlandic" unicode="&#x138;" horiz-adv-x="880" 
d="M686 18l-311 510l-64 -467q-3 -33 -28 -55t-62 -22q-34 0 -53 22q-17 20 -14 55l125 908q3 33 28 55q26 23 62 23q33 0 53 -23q17 -20 14 -55l-57 -412l409 440q36 39 78 39q29 0 47 -18q19 -19 19 -47q0 -41 -33 -74l-346 -358l264 -428q14 -22 14 -50q0 -34 -20 -57
q-21 -24 -55 -24q-47 0 -70 38z" />
    <glyph glyph-name="Lacute" unicode="&#x139;" horiz-adv-x="854" 
d="M358 162l390 -6q34 0 53 -19q18 -18 18 -49q0 -41 -24 -65q-25 -25 -74 -25h-475q-36 0 -58 25q-21 24 -18 59l182 1286q3 37 31 62q27 24 68 24q38 0 59 -24t18 -60zM479 1591q0 31 29 60l172 166q35 30 68 30q27 0 45 -18t18 -45q0 -45 -39 -74l-186 -151
q-28 -25 -54 -25q-22 0 -38 16q-15 15 -15 41z" />
    <glyph glyph-name="lacute" unicode="&#x13a;" horiz-adv-x="471" 
d="M176 227l156 1153q3 34 28 56t62 22q34 0 53 -22q20 -23 17 -56l-158 -1142q-4 -32 -4 -39q0 -43 51 -49q72 -9 72 -68q0 -37 -25 -62q-24 -24 -70 -24q-88 0 -137 43t-49 127q0 7 4 61zM395 1595h-2q0 31 29 60l172 166q34 30 68 30q29 0 47 -18t18 -45q0 -45 -39 -74
l-186 -151q-28 -25 -53 -25q-23 0 -39 16q-15 15 -15 41z" />
    <glyph glyph-name="Lcommaaccent" unicode="&#x13b;" horiz-adv-x="854" 
d="M358 162l390 -6q34 0 53 -19q18 -18 18 -49q0 -41 -24 -65q-25 -25 -74 -25h-475q-36 0 -58 25q-21 24 -18 59l182 1286q3 37 31 62q27 24 68 24q38 0 59 -24t18 -60zM276 -440l-2 -2q-55 0 -55 59q0 23 17 47l137 195q35 47 80 47q28 0 47 -19q18 -18 18 -45
q0 -34 -24 -61l-156 -184q-27 -37 -62 -37z" />
    <glyph glyph-name="lcommaaccent" unicode="&#x13c;" horiz-adv-x="471" 
d="M176 227l156 1153q3 34 28 56t62 22q34 0 53 -22q20 -23 17 -56l-158 -1142q-4 -32 -4 -39q0 -43 51 -49q72 -9 72 -68q0 -37 -25 -62q-24 -24 -70 -24q-88 0 -137 43t-49 127q0 7 4 61zM78 -428l-2 -2q-56 0 -56 59q0 23 17 47l137 195q35 47 80 47q29 0 47 -18t18 -45
q0 -35 -24 -62l-156 -184q-27 -37 -61 -37z" />
    <glyph glyph-name="Lcaron" unicode="&#x13d;" horiz-adv-x="854" 
d="M358 162l390 -6q34 0 53 -19q18 -18 18 -49q0 -41 -24 -65q-25 -25 -74 -25h-475q-36 0 -58 25q-21 24 -18 59l182 1286q3 37 31 62q27 24 68 24q38 0 59 -24t18 -60zM750 1104l-2 -2q-56 0 -56 59q0 23 17 47l137 195q35 47 80 47q29 0 47 -18t18 -46q0 -34 -24 -61
l-156 -184q-27 -37 -61 -37z" />
    <glyph glyph-name="lcaron" unicode="&#x13e;" horiz-adv-x="538" 
d="M176 227l156 1153q3 34 28 56t62 22q34 0 53 -22q20 -23 17 -56l-158 -1142q-4 -32 -4 -39q0 -43 51 -49q72 -9 72 -68q0 -37 -25 -62q-24 -24 -70 -24q-88 0 -137 43t-49 127q0 7 4 61zM594 1116l-2 -2q-55 0 -55 60q0 25 16 47l137 194q35 47 80 47q29 0 47 -18
q19 -19 19 -45q0 -34 -25 -62l-156 -184q-27 -37 -61 -37z" />
    <glyph glyph-name="Ldot" unicode="&#x13f;" horiz-adv-x="854" 
d="M358 162l390 -6q34 0 53 -19q18 -18 18 -49q0 -41 -24 -65q-25 -25 -74 -25h-475q-36 0 -58 25q-21 24 -18 59l182 1286q3 37 31 62q27 24 68 24q38 0 59 -24t18 -60zM782 489l-98 -2q-21 0 -35 17q-13 16 -10 37l14 98q3 21 19 37q14 14 37 14h98q24 0 35 -14
q13 -16 10 -37l-14 -98q-3 -21 -19 -37q-15 -15 -37 -15z" />
    <glyph glyph-name="ldot" unicode="&#x140;" horiz-adv-x="722" 
d="M176 227l156 1153q3 34 28 56t62 22q34 0 53 -22q20 -23 17 -56l-158 -1142q-4 -32 -4 -39q0 -43 51 -49q72 -9 72 -68q0 -37 -25 -62q-24 -24 -70 -24q-88 0 -137 43t-49 127q0 7 4 61zM698 502l-98 -2q-22 0 -35 16t-10 37l14 98q3 21 19 37q14 14 37 14h98
q24 0 35 -14q13 -16 10 -37l-14 -98q-3 -21 -19 -37q-14 -14 -37 -14z" />
    <glyph glyph-name="Lslash" unicode="&#x141;" horiz-adv-x="862" 
d="M367 162l387 -6q34 0 53 -19q18 -18 18 -49q0 -41 -24 -65q-25 -25 -74 -25h-475q-35 0 -57 25t-19 59l64 450l-29 -14q-21 -12 -43 -12q-27 0 -45 18q-19 19 -19 47q0 48 54 76l108 58l94 663q3 37 31 62q27 24 68 24q38 0 59 -24q22 -25 19 -60l-80 -565l211 110
q26 11 45 11q23 0 43 -17q18 -15 18 -43q0 -53 -53 -80l-289 -151z" />
    <glyph glyph-name="lslash" unicode="&#x142;" horiz-adv-x="497" 
d="M158 737l112 66l80 577q3 33 29 56q25 22 61 22q35 0 54 -22t16 -56l-68 -487l97 51q24 12 45 12q22 0 41 -16q18 -15 18 -43q0 -54 -51 -80l-172 -90l-68 -491q-4 -32 -4 -39q0 -44 51 -50q72 -9 72 -67q0 -37 -25 -62q-24 -24 -69 -24q-88 0 -137 43q-50 44 -50 127
q0 8 2 29.5t3 31.5l55 406l-39 -21q-24 -12 -45 -12q-25 0 -43 18q-19 19 -19 46q0 47 54 75z" />
    <glyph glyph-name="Nacute" unicode="&#x143;" horiz-adv-x="1116" 
d="M772 51l-305 1043q-19 -204 -43 -377l-92 -656q-3 -35 -29 -61q-25 -25 -61 -25q-37 0 -56 25q-17 23 -14 61l180 1285q6 44 35 77q28 31 74 31q65 0 86 -72l303 -1063q14 202 43 398l94 653q3 36 29 62q24 24 63 24q36 0 54 -24q17 -23 14 -62l-180 -1284
q-6 -46 -33 -76t-74 -30q-67 0 -88 71zM750 1595q0 32 28 60l172 166q34 30 68 30q27 0 45 -18t18 -45q0 -45 -39 -74l-186 -151q-28 -25 -53 -25q-23 0 -39 16q-14 14 -14 41z" />
    <glyph glyph-name="nacute" unicode="&#x144;" horiz-adv-x="1003" 
d="M432 965l-4 -60q9 15 31 37q18 18 90 55q68 35 139 35q133 0 207 -80t74 -204q0 -38 -6 -82l-86 -615q-3 -33 -31 -55q-30 -23 -62 -23q-34 0 -53 25q-17 23 -14 57l84 611q6 50 6 69q0 66 -41 113q-39 45 -121 45q-86 0 -160 -59t-86 -146l-88 -633q-3 -34 -30 -55
q-30 -23 -62 -23q-34 0 -53 25q-17 23 -14 57l127 906q3 33 28 55t60 22q32 0 51 -22q17 -20 14 -55zM616 1176q0 30 29 59l172 166q36 31 68 31q26 0 45 -19q18 -18 18 -45q0 -45 -39 -74l-186 -151q-28 -25 -53 -25q-22 0 -39 17q-15 15 -15 41z" />
    <glyph glyph-name="Ncommaaccent" unicode="&#x145;" horiz-adv-x="1116" 
d="M772 51l-305 1043q-19 -204 -43 -377l-92 -656q-3 -35 -29 -61q-25 -25 -61 -25q-37 0 -56 25q-17 23 -14 61l180 1285q6 44 35 77q28 31 74 31q65 0 86 -72l303 -1063q14 202 43 398l94 653q3 36 29 62q24 24 63 24q36 0 54 -24q17 -23 14 -62l-180 -1284
q-6 -46 -33 -76t-74 -30q-67 0 -88 71zM350 -436l-2 -2q-55 0 -55 59q0 25 16 47l137 195q35 47 80 47q28 0 47 -19t19 -45q0 -33 -25 -61l-155 -184q-27 -37 -62 -37z" />
    <glyph glyph-name="ncommaaccent" unicode="&#x146;" horiz-adv-x="1003" 
d="M432 965l-4 -60q9 15 31 37q18 18 90 55q68 35 139 35q133 0 207 -80t74 -204q0 -38 -6 -82l-86 -615q-3 -33 -31 -55q-30 -23 -62 -23q-34 0 -53 25q-17 23 -14 57l84 611q6 50 6 69q0 66 -41 113q-39 45 -121 45q-86 0 -160 -59t-86 -146l-88 -633q-3 -34 -30 -55
q-30 -23 -62 -23q-34 0 -53 25q-17 23 -14 57l127 906q3 33 28 55t60 22q32 0 51 -22q17 -20 14 -55zM303 -446l-2 -3q-55 0 -55 60q0 25 16 47l137 195q35 47 80 47q28 0 47 -19t19 -45q0 -33 -25 -61l-155 -185q-26 -36 -62 -36z" />
    <glyph glyph-name="Ncaron" unicode="&#x147;" horiz-adv-x="1116" 
d="M772 51l-305 1043q-19 -204 -43 -377l-92 -656q-3 -35 -29 -61q-25 -25 -61 -25q-37 0 -56 25q-17 23 -14 61l180 1285q6 44 35 77q28 31 74 31q65 0 86 -72l303 -1063q14 202 43 398l94 653q3 36 29 62q24 24 63 24q36 0 54 -24q17 -23 14 -62l-180 -1284
q-6 -46 -33 -76t-74 -30q-67 0 -88 71zM1061 1776l2 -2q0 -27 -29 -56l-170 -157q-37 -37 -86 -37q-46 0 -73 37l-144 163q-14 17 -14 39q0 30 20 47q22 19 49 19q20 0 43 -23l129 -131l162 133q27 21 51 21t41 -14q19 -16 19 -39z" />
    <glyph glyph-name="ncaron" unicode="&#x148;" horiz-adv-x="1003" 
d="M432 965l-4 -60q9 15 31 37q18 18 90 55q68 35 139 35q133 0 207 -80t74 -204q0 -38 -6 -82l-86 -615q-3 -33 -31 -55q-30 -23 -62 -23q-34 0 -53 25q-17 23 -14 57l84 611q6 50 6 69q0 66 -41 113q-39 45 -121 45q-86 0 -160 -59t-86 -146l-88 -633q-3 -34 -30 -55
q-30 -23 -62 -23q-34 0 -53 25q-17 23 -14 57l127 906q3 33 28 55t60 22q32 0 51 -22q17 -20 14 -55zM961 1356l2 -2q0 -27 -29 -56l-170 -157q-37 -37 -86 -37q-47 0 -74 37l-143 164q-15 18 -15 38q0 30 21 48t49 18q20 0 43 -23l129 -131l162 134q26 20 51 20
q24 0 41 -14q19 -16 19 -39z" />
    <glyph glyph-name="napostrophe" unicode="&#x149;" horiz-adv-x="1003" 
d="M432 965l-4 -60q9 15 31 37q18 18 90 55q68 35 139 35q133 0 207 -80t74 -204q0 -38 -6 -82l-86 -615q-3 -33 -31 -55q-30 -23 -62 -23q-34 0 -53 25q-17 23 -14 57l84 611q6 50 6 69q0 66 -41 113q-39 45 -121 45q-86 0 -160 -59t-86 -146l-88 -633q-3 -34 -30 -55
q-30 -23 -62 -23q-34 0 -53 25q-17 23 -14 57l127 906q3 33 28 55t60 22q32 0 51 -22q17 -20 14 -55zM193 1098l-3 -2q-55 0 -55 59q0 23 17 47l137 195q35 47 80 47q28 0 47 -19q18 -18 18 -45q0 -34 -24 -61l-156 -184q-27 -37 -61 -37z" />
    <glyph glyph-name="Eng" unicode="&#x14a;" horiz-adv-x="1116" 
d="M786 6l-319 1088q-19 -204 -43 -377l-92 -656q-3 -35 -29 -61q-25 -25 -61 -25q-37 0 -56 25q-17 23 -14 61l180 1285q6 44 35 77q28 31 74 31q65 0 86 -72l303 -1063q14 202 43 398l94 653q3 36 29 62q24 24 63 24q36 0 54 -24q17 -23 14 -62l-203 -1440
q-21 -145 -106 -221t-217 -76h-43q-27 0 -46 19q-18 18 -18 45q0 30 25 55t55 25h43q52 0 90 35t47 98z" />
    <glyph glyph-name="eng" unicode="&#x14b;" horiz-adv-x="1003" 
d="M698 -90l107 752q6 50 6 69q0 66 -41 113q-39 45 -121 45q-85 0 -160 -60q-74 -59 -86 -145l-88 -633q-3 -34 -30 -55q-30 -23 -62 -23q-34 0 -53 25q-17 23 -14 57l127 906q3 33 28 55t60 22q32 0 51 -22q17 -20 14 -55l-4 -48q9 15 31 37q20 20 90 56q67 34 139 34
q134 0 207 -79q74 -80 74 -205q0 -38 -6 -82l-105 -744q-18 -141 -110 -221t-205 -80h-25q-26 0 -45 19q-18 18 -18 45q0 31 24 55q25 25 56 25h24q46 0 86 37t49 100z" />
    <glyph glyph-name="Omacron" unicode="&#x14c;" horiz-adv-x="1099" 
d="M1106 1075l-100 -721q-21 -152 -142 -264q-119 -110 -309 -110q-165 0 -266 96q-99 94 -99 231q0 31 7 66l98 706q21 153 141 264t314 111q170 0 264 -94q96 -96 96 -230q0 -9 -4 -55zM831 352l97 721v14v19q0 75 -54 129q-53 53 -147 53q-111 0 -180 -63
q-70 -64 -82 -150l-103 -723l-2 -12v-25q0 -72 56 -125q54 -51 153 -51q109 0 179 64q71 65 83 149zM514 1665q0 33 27 57q28 25 63 25h389q31 0 49 -18q19 -19 19 -48q0 -33 -27 -57q-28 -25 -63 -25h-389q-31 0 -50 19q-18 18 -18 47z" />
    <glyph glyph-name="omacron" unicode="&#x14d;" horiz-adv-x="974" 
d="M621 1044v-2q149 0 237 -88q90 -90 90 -221q0 -7 -4 -57l-47 -348q-21 -154 -131 -252q-111 -99 -277 -99q-144 0 -235 91q-88 88 -88 221q0 7 4 57l47 348q21 153 129 252q107 98 275 98zM506 123h-2q98 0 158 57q61 58 73 150l51 360q2 12 2 37q0 77 -49 123
q-50 47 -133 47q-95 0 -155 -57q-62 -59 -74 -150l-51 -360q-2 -12 -2 -37q0 -77 49 -123q50 -47 133 -47zM385 1260q0 33 27 57t63 24h389q31 0 49 -18q19 -19 19 -47q0 -33 -27 -57q-28 -25 -63 -25h-389q-32 0 -50 18t-18 48z" />
    <glyph glyph-name="Obreve" unicode="&#x14e;" horiz-adv-x="1099" 
d="M1106 1075l-100 -721q-21 -152 -142 -264q-119 -110 -309 -110q-165 0 -266 96q-99 94 -99 231q0 31 7 66l98 706q21 153 141 264t314 111q170 0 264 -94q96 -96 96 -230q0 -9 -4 -55zM831 352l97 721v14v19q0 75 -54 129q-53 53 -147 53q-111 0 -180 -63
q-70 -64 -82 -150l-103 -723l-2 -12v-25q0 -72 56 -125q54 -51 153 -51q109 0 179 64q71 65 83 149zM778 1675v-2q53 0 84 25q32 26 41 55t35 55q25 25 61 25q60 0 60 -61q0 -65 -80 -142q-81 -78 -211 -78q-122 0 -184 62t-62 131q0 39 23 65q22 25 55 25q37 0 53 -25
q16 -26 19 -55q3 -30 28 -55t78 -25z" />
    <glyph glyph-name="obreve" unicode="&#x14f;" horiz-adv-x="974" 
d="M621 1044v-2q149 0 237 -88q90 -90 90 -221q0 -7 -4 -57l-47 -348q-21 -154 -131 -252q-111 -99 -277 -99q-144 0 -235 91q-88 88 -88 221q0 7 4 57l47 348q21 153 129 252q107 98 275 98zM506 123h-2q98 0 158 57q61 58 73 150l51 360q2 12 2 37q0 77 -49 123
q-50 47 -133 47q-95 0 -155 -57q-62 -59 -74 -150l-51 -360q-2 -12 -2 -37q0 -77 49 -123q50 -47 133 -47zM659 1270v-2q54 0 84 24q32 25 41 56q9 29 35 55q24 24 62 24q59 0 59 -61q0 -64 -80 -141q-81 -78 -211 -78q-123 0 -184 61q-62 62 -62 131q0 40 23 66
q22 25 55 25q38 0 54 -25q15 -24 18 -55q3 -30 29 -56q24 -24 77 -24z" />
    <glyph glyph-name="Ohungarumlaut" unicode="&#x150;" horiz-adv-x="1099" 
d="M1106 1075l-100 -721q-21 -152 -142 -264q-119 -110 -309 -110q-165 0 -266 96q-99 94 -99 231q0 31 7 66l98 706q21 153 141 264t314 111q170 0 264 -94q96 -96 96 -230q0 -9 -4 -55zM831 352l97 721v14v19q0 75 -54 129q-53 53 -147 53q-111 0 -180 -63
q-70 -64 -82 -150l-103 -723l-2 -12v-25q0 -72 56 -125q54 -51 153 -51q109 0 179 64q71 65 83 149zM592 1591h-4q0 27 24 51l156 150q30 27 63 27q26 0 43 -17t17 -41q0 -38 -35 -65l-168 -137q-24 -21 -49 -21q-22 0 -35 16q-12 15 -12 37zM903 1591h-2q0 24 27 51
l155 150q30 27 64 27q26 0 43 -17q16 -16 16 -41q0 -38 -35 -65l-167 -137q-24 -21 -50 -21q-20 0 -36 16q-15 15 -15 37z" />
    <glyph glyph-name="ohungarumlaut" unicode="&#x151;" horiz-adv-x="974" 
d="M621 1044v-2q149 0 237 -88q90 -90 90 -221q0 -7 -4 -57l-47 -348q-21 -154 -131 -252q-111 -99 -277 -99q-144 0 -235 91q-88 88 -88 221q0 7 4 57l47 348q21 153 129 252q107 98 275 98zM506 123h-2q98 0 158 57q61 58 73 150l51 360q2 12 2 37q0 77 -49 123
q-50 47 -133 47q-95 0 -155 -57q-62 -59 -74 -150l-51 -360q-2 -12 -2 -37q0 -77 49 -123q50 -47 133 -47zM453 1186h-4q0 27 24 51l156 149q30 27 63 27q27 0 43 -16q17 -17 17 -41q0 -39 -35 -66l-168 -137q-23 -20 -49 -20q-22 0 -35 16q-12 15 -12 37zM764 1186h-2
q0 25 26 51l156 149q30 27 64 27q27 0 43 -16t16 -41q0 -39 -35 -66l-168 -137q-23 -20 -49 -20q-21 0 -37 16q-14 14 -14 37z" />
    <glyph glyph-name="OE" unicode="&#x152;" horiz-adv-x="1333" 
d="M369 387v-4q-2 -12 -2 -39q0 -79 55 -131q54 -51 139 -51h105l155 1108h-104q-93 0 -166 -64t-88 -155zM1200 -4l-659 2q-154 0 -254 92q-99 91 -99 234q0 2 5 65l92 660q24 168 147 276q122 107 311 107h631q74 0 74 -68q0 -40 -25 -68q-23 -26 -63 -26h-367l-61 -436
h313q72 0 72 -68q0 -40 -25 -68q-23 -26 -63 -26h-318l-71 -514h377q34 0 53 -19q18 -18 18 -49q0 -40 -24 -67t-64 -27z" />
    <glyph glyph-name="oe" unicode="&#x153;" horiz-adv-x="1509" 
d="M506 125h-2q98 0 158 57q61 58 73 150l51 360q2 14 2 37q0 77 -49 123q-50 47 -133 47q-95 0 -155 -57q-62 -59 -74 -150l-51 -360q-2 -12 -2 -37q0 -77 49 -123q50 -47 133 -47zM944 692l-31 -205l310 111q125 43 125 143q0 64 -50 111t-124 47q-89 0 -154 -59
q-64 -58 -76 -148zM1049 -20l-7 -3q-170 0 -264 119q-113 -119 -295 -119q-144 0 -235 91q-88 88 -88 221q0 7 4 57l47 348q21 153 129 252q107 98 274 98q182 0 273 -129q123 129 305 129q143 0 227 -81q86 -83 86 -199q0 -218 -250 -307l-362 -127q-4 -20 -4 -25v-10
q0 -76 47 -123t123 -47q167 0 213 147q21 64 82 64q30 0 49 -19q18 -18 18 -47q0 -88 -102 -190q-100 -100 -270 -100z" />
    <glyph glyph-name="Racute" unicode="&#x154;" horiz-adv-x="1032" 
d="M825 836l37 270q4 36 4 43q0 57 -39 90q-41 35 -100 35h-213l-82 -590h213q70 0 119 37t61 115zM731 43l-135 481h-190l-64 -458q-3 -37 -31 -62q-27 -24 -63 -24q-31 0 -55 18q-25 19 -25 53q0 15 2 25l182 1278q3 33 31 55q30 23 61 23h310q132 0 209 -74t77 -191
q0 -3 -4 -53l-37 -272q-15 -101 -73 -180q-60 -81 -154 -111l133 -447q4 -20 4 -28q0 -42 -26 -68t-68 -26q-69 0 -84 61zM641 1599q0 31 29 60l172 166q34 30 67 30q27 0 45 -18q19 -19 19 -45q0 -45 -39 -74l-186 -151q-28 -25 -54 -25q-22 0 -39 17q-14 14 -14 40z" />
    <glyph glyph-name="racute" unicode="&#x155;" horiz-adv-x="622" 
d="M698 893v-8q-18 0 -30 2t-33 2q-76 0 -150 -68q-75 -69 -90 -186l-82 -584q-3 -34 -30 -55q-30 -23 -62 -23q-34 0 -53 25q-17 23 -14 57l127 908q3 33 28 55t60 22q34 0 51 -20t14 -55l-6 -52q46 58 113 95q65 36 135 36q32 0 65 -10q43 -15 43 -59q0 -33 -24 -57
q-25 -25 -62 -25zM479 1180h-2q0 30 29 59l172 166q36 31 67 31q29 0 48 -19q18 -18 18 -45q0 -45 -39 -74l-186 -151q-28 -25 -54 -25q-21 0 -38 17q-15 15 -15 41z" />
    <glyph glyph-name="Rcommaaccent" unicode="&#x156;" horiz-adv-x="1032" 
d="M825 836l37 270q4 36 4 43q0 57 -39 90q-41 35 -100 35h-213l-82 -590h213q70 0 119 37t61 115zM731 43l-135 481h-190l-64 -458q-3 -37 -31 -62q-27 -24 -63 -24q-31 0 -55 18q-25 19 -25 53q0 15 2 25l182 1278q3 33 31 55q30 23 61 23h310q132 0 209 -74t77 -191
q0 -3 -4 -53l-37 -272q-15 -101 -73 -180q-60 -81 -154 -111l133 -447q4 -20 4 -28q0 -42 -26 -68t-68 -26q-69 0 -84 61zM307 -432l-2 -2q-55 0 -55 59q0 25 16 47l137 195q35 47 80 47q29 0 47 -18q19 -19 19 -46q0 -33 -25 -61l-155 -184q-27 -37 -62 -37z" />
    <glyph glyph-name="rcommaaccent" unicode="&#x157;" horiz-adv-x="622" 
d="M698 893v-8q-18 0 -30 2t-33 2q-76 0 -150 -68q-75 -69 -90 -186l-82 -584q-3 -34 -30 -55q-30 -23 -62 -23q-34 0 -53 25q-17 23 -14 57l127 908q3 33 28 55t60 22q34 0 51 -20t14 -55l-6 -52q46 58 113 95q65 36 135 36q32 0 65 -10q43 -15 43 -59q0 -33 -24 -57
q-25 -25 -62 -25zM29 -442l-2 -2q-56 0 -56 59q0 23 17 47l137 195q35 47 80 47q28 0 47 -19q18 -18 18 -45q0 -34 -24 -61l-156 -185q-26 -36 -61 -36z" />
    <glyph glyph-name="Rcaron" unicode="&#x158;" horiz-adv-x="1032" 
d="M825 836l37 270q4 36 4 43q0 57 -39 90q-41 35 -100 35h-213l-82 -590h213q70 0 119 37t61 115zM731 43l-135 481h-190l-64 -458q-3 -37 -31 -62q-27 -24 -63 -24q-31 0 -55 18q-25 19 -25 53q0 15 2 25l182 1278q3 33 31 55q30 23 61 23h310q132 0 209 -74t77 -191
q0 -3 -4 -53l-37 -272q-15 -101 -73 -180q-60 -81 -154 -111l133 -447q4 -20 4 -28q0 -42 -26 -68t-68 -26q-69 0 -84 61zM1018 1780l2 -2q0 -27 -29 -56l-170 -157q-37 -37 -86 -37q-46 0 -73 37l-144 164q-14 17 -14 38q0 31 20 48q21 18 49 18q20 0 43 -23l129 -131
l162 133q27 21 51 21t41 -14q19 -16 19 -39z" />
    <glyph glyph-name="rcaron" unicode="&#x159;" horiz-adv-x="622" 
d="M698 893v-8q-18 0 -30 2t-33 2q-76 0 -150 -68q-75 -69 -90 -186l-82 -584q-3 -34 -30 -55q-30 -23 -62 -23q-34 0 -53 25q-17 23 -14 57l127 908q3 33 28 55t60 22q34 0 51 -20t14 -55l-6 -52q46 58 113 95q65 36 135 36q32 0 65 -10q43 -15 43 -59q0 -33 -24 -57
q-25 -25 -62 -25zM838 1360l2 -2q0 -26 -29 -55l-170 -158q-37 -37 -86 -37q-47 0 -74 37l-143 164q-14 17 -14 39q0 30 20 47q21 18 49 18q21 0 43 -22l129 -131l162 133q26 20 51 20q24 0 41 -14q19 -16 19 -39z" />
    <glyph glyph-name="Sacute" unicode="&#x15a;" horiz-adv-x="1038" 
d="M715 1454l-8 -20q147 0 249 -91q99 -89 99 -196q0 -113 -97 -113q-34 0 -55 21t-24 55q-3 75 -58 121q-56 47 -137 47q-95 0 -164 -66q-67 -64 -67 -165q0 -70 55 -125q57 -57 131 -99q98 -55 154 -92q75 -48 131 -135q55 -85 55 -201q0 -162 -115 -295
q-113 -131 -332 -131q-174 0 -276 99q-100 97 -100 223q0 51 24 88t76 37q74 0 74 -84q0 -89 55 -144t152 -55q117 0 188 74q72 75 72 172q0 73 -37 131q-35 55 -96 94l-55 35t-70 45q-53 34 -125 84q-60 42 -97 111q-36 68 -36 159q0 174 127 295t307 121zM637 1577
q0 30 29 59l172 166q36 31 67 31q27 0 45 -18q19 -19 19 -46q0 -44 -39 -73l-187 -152q-27 -24 -53 -24q-23 0 -39 16q-14 14 -14 41z" />
    <glyph glyph-name="sacute" unicode="&#x15b;" horiz-adv-x="901" 
d="M473 -20l-12 -7q-165 0 -248 86q-82 85 -82 179t78 94q27 0 49 -19t25 -45q3 -65 49 -108t129 -43q88 0 147 47q58 46 58 123q0 63 -68 110q-69 47 -147 74q-79 27 -148 96q-67 67 -67 170q0 137 104 219q107 84 250 84q139 0 221 -82q84 -84 84 -165q0 -37 -21 -64
t-61 -27q-68 0 -80 80q-9 53 -51 86t-111 33q-65 0 -116 -39q-54 -42 -54 -104q0 -50 45 -86q48 -38 111 -62q74 -27 129 -57q67 -36 111 -94q45 -60 45 -152q0 -143 -105 -235q-106 -92 -264 -92zM547 1182q0 31 28 59l173 166q36 31 67 31q26 0 45 -19t19 -45
q0 -45 -39 -74l-187 -151q-28 -25 -53 -25q-22 0 -39 17q-14 14 -14 41z" />
    <glyph glyph-name="Scircumflex" unicode="&#x15c;" horiz-adv-x="1038" 
d="M715 1454l-8 -20q147 0 249 -91q99 -89 99 -196q0 -113 -97 -113q-34 0 -55 21t-24 55q-3 75 -58 121q-56 47 -137 47q-95 0 -164 -66q-67 -64 -67 -165q0 -70 55 -125q57 -57 131 -99q98 -55 154 -92q75 -48 131 -135q55 -85 55 -201q0 -162 -115 -295
q-113 -131 -332 -131q-174 0 -276 99q-100 97 -100 223q0 51 24 88t76 37q74 0 74 -84q0 -89 55 -144t152 -55q117 0 188 74q72 75 72 172q0 73 -37 131q-35 55 -96 94l-55 35t-70 45q-53 34 -125 84q-60 42 -97 111q-36 68 -36 159q0 174 127 295t307 121zM479 1563l-2 -4
q0 26 29 55l170 158q36 36 86 36q48 0 74 -36l143 -164q14 -17 14 -39q0 -28 -20 -45q-22 -19 -49 -19q-20 0 -43 23l-129 131l-162 -133q-27 -21 -51 -21q-21 0 -41 17q-19 16 -19 41z" />
    <glyph glyph-name="scircumflex" unicode="&#x15d;" horiz-adv-x="901" 
d="M473 -20l-12 -7q-165 0 -248 86q-82 85 -82 179t78 94q27 0 49 -19t25 -45q3 -65 49 -108t129 -43q88 0 147 47q58 46 58 123q0 63 -68 110q-69 47 -147 74q-79 27 -148 96q-67 67 -67 170q0 137 104 219q107 84 250 84q139 0 221 -82q84 -84 84 -165q0 -37 -21 -64
t-61 -27q-68 0 -80 80q-9 53 -51 86t-111 33q-65 0 -116 -39q-54 -42 -54 -104q0 -50 45 -86q48 -38 111 -62q74 -27 129 -57q67 -36 111 -94q45 -60 45 -152q0 -143 -105 -235q-106 -92 -264 -92zM354 1167l-2 -4q0 27 29 56l170 157q37 37 86 37q47 0 74 -37l143 -164
q14 -17 14 -38q0 -29 -20 -46q-21 -18 -49 -18q-20 0 -43 23l-129 131l-162 -134q-26 -20 -51 -20q-22 0 -41 16t-19 41z" />
    <glyph glyph-name="Scedilla" unicode="&#x15e;" horiz-adv-x="1007" 
d="M360 -322l-12 -12q0 27 19 43q20 17 41 17h88q25 0 41 16t16 37q0 16 -12 28q-13 13 -33 13h-41q-47 0 -47 43q0 16 2 22l18 88q-137 21 -215 111q-75 87 -75 197q0 51 24 88t76 37q74 0 74 -84q0 -89 55 -144t151 -55q118 0 189 74q72 75 72 172q0 73 -37 131
q-35 54 -97 94l-55 35t-70 45q-39 25 -124 84q-61 42 -97 110q-37 70 -37 160q0 174 127 295t308 121q148 0 249 -90q99 -88 99 -197q0 -113 -96 -113q-35 0 -56 21t-24 55q-3 75 -58 121q-56 47 -137 47q-96 0 -164 -65q-67 -64 -67 -166q0 -70 55 -125q54 -54 131 -98
q85 -48 154 -93q75 -48 131 -135q55 -85 55 -200q0 -99 -41 -189q-41 -91 -139 -160q-97 -69 -238 -75l-8 -39q60 0 102 -39q43 -40 43 -99q0 -69 -51 -120q-54 -54 -135 -54h-108q-21 0 -33 15q-13 16 -13 32z" />
    <glyph glyph-name="scedilla" unicode="&#x15f;" horiz-adv-x="901" 
d="M293 -322l-14 -8q0 28 18 43q20 17 41 17h88q25 0 41 16t16 37q0 17 -12 29t-33 12h-41q-47 0 -47 43q0 16 2 22l15 91q-119 24 -179 102q-59 77 -59 154q0 94 78 94q27 0 49 -19t25 -45q3 -65 49 -108t129 -43q88 0 147 47q58 46 58 123q0 63 -68 110q-69 47 -147 74
q-79 27 -148 96q-68 68 -68 170q0 137 105 219q107 84 250 84q139 0 221 -82q84 -84 84 -165q0 -37 -21 -64t-61 -27q-68 0 -80 80q-9 53 -51 86t-111 33q-65 0 -116 -39q-54 -42 -54 -104q0 -50 45 -86q48 -38 111 -62q74 -27 129 -57q67 -36 111 -94q45 -60 45 -152
q0 -139 -99 -227q-101 -90 -247 -96l-7 -39q61 0 103 -39q43 -40 43 -99q0 -69 -51 -120q-54 -54 -136 -54h-108q-21 0 -33 15t-12 32z" />
    <glyph glyph-name="Scaron" unicode="&#x160;" horiz-adv-x="1038" 
d="M715 1454l-8 -20q147 0 249 -91q99 -89 99 -196q0 -113 -97 -113q-34 0 -55 21t-24 55q-3 75 -58 121q-56 47 -137 47q-95 0 -164 -66q-67 -64 -67 -165q0 -70 55 -125q57 -57 131 -99q98 -55 154 -92q75 -48 131 -135q55 -85 55 -201q0 -162 -115 -295
q-113 -131 -332 -131q-174 0 -276 99q-100 97 -100 223q0 51 24 88t76 37q74 0 74 -84q0 -89 55 -144t152 -55q117 0 188 74q72 75 72 172q0 73 -37 131q-35 55 -96 94l-55 35t-70 45q-53 34 -125 84q-60 42 -97 111q-36 68 -36 159q0 174 127 295t307 121zM1022 1757l2 -2
q0 -26 -29 -55l-170 -158q-37 -37 -86 -37q-46 0 -73 37l-144 164q-14 17 -14 39q0 30 20 47q21 18 50 18q21 0 43 -22l129 -131l161 133q26 20 52 20q24 0 41 -14q18 -15 18 -39z" />
    <glyph glyph-name="scaron" unicode="&#x161;" horiz-adv-x="901" 
d="M473 -20l-12 -7q-165 0 -248 86q-82 85 -82 179t78 94q27 0 49 -19t25 -45q3 -65 49 -108t129 -43q88 0 147 47q58 46 58 123q0 63 -68 110q-69 47 -147 74q-79 27 -148 96q-67 67 -67 170q0 137 104 219q107 84 250 84q139 0 221 -82q84 -84 84 -165q0 -37 -21 -64
t-61 -27q-68 0 -80 80q-9 53 -51 86t-111 33q-65 0 -116 -39q-54 -42 -54 -104q0 -50 45 -86q48 -38 111 -62q74 -27 129 -57q67 -36 111 -94q45 -60 45 -152q0 -143 -105 -235q-106 -92 -264 -92zM899 1362l2 -2q0 -26 -29 -55l-170 -158q-37 -37 -86 -37q-46 0 -73 37
l-144 164q-14 17 -14 39q0 29 21 47t49 18q21 0 43 -22l129 -131l161 133q26 20 52 20q24 0 41 -14q18 -15 18 -39z" />
    <glyph glyph-name="Tcommaaccent" unicode="&#x162;" horiz-adv-x="829" 
d="M301 1434l633 4q74 0 74 -68q0 -40 -27 -67t-70 -27h-231l-170 -1208q-3 -37 -31 -62q-27 -24 -67 -24q-37 0 -58 24t-18 60l170 1208h-227q-74 0 -74 69q0 43 26 66q28 25 70 25zM225 -430l-2 -2q-55 0 -55 59q0 25 16 47l138 195q35 47 79 47q30 0 48 -18t18 -45
q0 -34 -25 -62l-155 -184q-27 -37 -62 -37z" />
    <glyph glyph-name="tcommaaccent" unicode="&#x163;" horiz-adv-x="780" 
d="M764 231v-2q0 -106 -86 -180t-203 -74q-113 0 -184 68q-72 69 -72 174q0 26 4 72l86 585h-80q-30 0 -49 19q-18 18 -18 47q0 38 26 61q28 25 64 25h80l30 209q3 32 29 55t60 23q31 0 53 -25t16 -57l-31 -207h269q29 0 47 -18t18 -45q0 -38 -24 -62q-25 -25 -62 -25h-268
l-82 -579q-8 -44 -8 -72q0 -45 31 -73q30 -27 79 -27q119 0 140 121q3 25 22 41t47 16q30 0 47 -20q19 -22 19 -50zM238 -436l-2 -2q-56 0 -56 59q0 23 17 47l137 195q35 47 80 47q28 0 47 -19q18 -18 18 -45q0 -34 -24 -61l-156 -184q-27 -37 -61 -37z" />
    <glyph glyph-name="Tcaron" unicode="&#x164;" horiz-adv-x="829" 
d="M301 1434l633 4q74 0 74 -68q0 -40 -27 -67t-70 -27h-231l-170 -1208q-3 -37 -31 -62q-27 -24 -67 -24q-37 0 -58 24t-18 60l170 1208h-227q-74 0 -74 69q0 43 26 66q28 25 70 25zM922 1782l2 -2q0 -27 -29 -56l-170 -157q-37 -37 -86 -37q-47 0 -74 37l-143 164
q-14 17 -14 38q0 31 20 48q21 18 49 18q20 0 43 -23l129 -131l162 134q26 20 51 20q24 0 41 -14q19 -16 19 -39z" />
    <glyph glyph-name="tcaron" unicode="&#x165;" horiz-adv-x="780" 
d="M764 231v-2q0 -106 -86 -180t-203 -74q-113 0 -184 68q-72 69 -72 174q0 26 4 72l86 585h-80q-30 0 -49 19q-18 18 -18 47q0 38 26 61q28 25 64 25h80l30 209q3 32 29 55t60 23q31 0 53 -25t16 -57l-31 -207h269q29 0 47 -18t18 -45q0 -38 -24 -62q-25 -25 -62 -25h-268
l-82 -579q-8 -44 -8 -72q0 -45 31 -73q30 -27 79 -27q119 0 140 121q3 25 22 41t47 16q30 0 47 -20q19 -22 19 -50zM678 1108l-2 -2q-55 0 -55 59q0 25 16 47l137 195q35 47 80 47q29 0 47 -18q19 -19 19 -45q0 -34 -25 -62l-156 -184q-27 -37 -61 -37z" />
    <glyph glyph-name="Tbar" unicode="&#x166;" horiz-adv-x="829" 
d="M745 680l-149 2l-86 -616q-3 -37 -31 -62q-27 -24 -67 -24q-37 0 -58 24t-18 59l86 617h-148q-33 0 -51 18t-18 47q0 40 24 64q25 25 66 25h147l62 438h-228q-73 0 -73 69q0 43 26 66q28 25 70 25h631q74 0 74 -68q0 -41 -27 -68q-26 -26 -70 -26h-231l-62 -439h152
q70 0 70 -63q0 -38 -25 -63t-66 -25z" />
    <glyph glyph-name="tbar" unicode="&#x167;" horiz-adv-x="780" 
d="M590 498l-178 -6l-29 -201q-8 -44 -8 -72q0 -46 31 -74q29 -26 79 -26q119 0 140 121q3 25 22 41t47 16q29 0 47 -21q19 -22 19 -49q0 -106 -86 -180t-203 -74q-113 0 -184 68q-72 69 -72 174q0 26 4 72l31 207h-78q-29 0 -47 18q-19 19 -19 45q0 36 25 61t62 25h77
l35 234h-80q-31 0 -49 18t-18 47q0 39 26 62q27 24 64 24h80l30 209q3 32 29 55t59 23q32 0 54 -25t16 -57l-31 -207h269q29 0 47 -18t18 -45q0 -38 -24 -62t-62 -24h-268l-33 -234h176q29 0 47 -18q19 -19 19 -45q0 -33 -25 -58q-24 -24 -59 -24z" />
    <glyph glyph-name="Utilde" unicode="&#x168;" horiz-adv-x="1114" 
d="M1153 1370l-141 -1020q-21 -162 -135 -270q-113 -107 -308 -107q-166 0 -270 93q-100 90 -100 225q0 11 4 61l143 1012q3 36 31 61t67 25q34 0 56 -25q21 -24 18 -59l-143 -1014l-2 -16v-33q0 -64 53 -117t152 -53q115 0 184 66q67 64 82 166l139 1003q3 37 31 62
q27 24 65 24q35 0 56 -24t18 -60zM676 1769q56 0 127 -45t104 -45q41 0 62 41q21 49 71 49q58 0 58 -57q0 -63 -62 -113q-61 -49 -137 -49q-52 0 -125 43t-104 43q-41 0 -62 -41q-21 -49 -71 -49q-56 0 -56 56q0 62 60 116q57 51 135 51z" />
    <glyph glyph-name="utilde" unicode="&#x169;" horiz-adv-x="1003" 
d="M715 59l-4 56q-9 -15 -31 -37q-21 -20 -88 -55q-65 -33 -139 -33q-133 0 -207 80t-74 206q0 38 6 82l86 615q3 33 31 55q30 23 61 23q35 0 54 -25t16 -57l-84 -611q-6 -50 -6 -69q0 -66 41 -113q39 -45 121 -45q85 0 159 59t86 146l88 633q3 33 31 55q30 23 62 23
q34 0 53 -25t16 -57l-127 -906q-3 -33 -28 -55t-58 -22q-32 0 -51 22q-17 20 -14 55zM551 1374q56 0 127 -45t104 -45q41 0 62 41q21 49 71 49q58 0 58 -57q0 -63 -62 -113q-61 -49 -137 -49q-52 0 -125 43t-104 43q-41 0 -62 -41q-21 -49 -71 -49q-56 0 -56 55q0 63 60 117
q57 51 135 51z" />
    <glyph glyph-name="Umacron" unicode="&#x16a;" horiz-adv-x="1114" 
d="M1153 1370l-141 -1020q-21 -162 -135 -270q-113 -107 -308 -107q-166 0 -270 93q-100 90 -100 225q0 11 4 61l143 1012q3 36 31 61t67 25q34 0 56 -25q21 -24 18 -59l-143 -1014l-2 -16v-33q0 -64 53 -117t152 -53q115 0 184 66q67 64 82 166l139 1003q3 37 31 62
q27 24 65 24q35 0 56 -24t18 -60zM528 1665q0 33 27 57q28 25 63 25h390q31 0 49 -18t18 -48q0 -34 -26 -57q-28 -25 -64 -25h-389q-30 0 -49 19t-19 47z" />
    <glyph glyph-name="umacron" unicode="&#x16b;" horiz-adv-x="1003" 
d="M715 59l-4 56q-9 -15 -31 -37q-21 -20 -88 -55q-65 -33 -139 -33q-133 0 -207 80t-74 206q0 38 6 82l86 615q3 33 31 55q30 23 61 23q35 0 54 -25t16 -57l-84 -611q-6 -50 -6 -69q0 -66 41 -113q39 -45 121 -45q85 0 159 59t86 146l88 633q3 33 31 55q30 23 62 23
q34 0 53 -25t16 -57l-127 -906q-3 -33 -28 -55t-58 -22q-32 0 -51 22q-17 20 -14 55zM395 1270q0 33 27 57q28 25 63 25h389q31 0 50 -19q18 -18 18 -47q0 -33 -27 -57q-28 -25 -63 -25h-389q-30 0 -49 19t-19 47z" />
    <glyph glyph-name="Ubreve" unicode="&#x16c;" horiz-adv-x="1114" 
d="M1153 1370l-141 -1020q-21 -162 -135 -270q-113 -107 -308 -107q-166 0 -270 93q-100 90 -100 225q0 11 4 61l143 1012q3 36 31 61t67 25q34 0 56 -25q21 -24 18 -59l-143 -1014l-2 -16v-33q0 -64 53 -117t152 -53q115 0 184 66q67 64 82 166l139 1003q3 37 31 62
q27 24 65 24q35 0 56 -24t18 -60zM793 1675v-2q53 0 84 25q32 26 41 55q9 30 34 55t62 25q59 0 59 -61q0 -65 -80 -142q-81 -78 -211 -78q-122 0 -184 62q-61 61 -61 131q0 40 22 65t55 25q38 0 54 -25q15 -24 18 -55q3 -29 29 -55q25 -25 78 -25z" />
    <glyph glyph-name="ubreve" unicode="&#x16d;" horiz-adv-x="1003" 
d="M715 59l-4 56q-9 -15 -31 -37q-21 -20 -88 -55q-65 -33 -139 -33q-133 0 -207 80t-74 206q0 38 6 82l86 615q3 33 31 55q30 23 61 23q35 0 54 -25t16 -57l-84 -611q-6 -50 -6 -69q0 -66 41 -113q39 -45 121 -45q85 0 159 59t86 146l88 633q3 33 31 55q30 23 62 23
q34 0 53 -25t16 -57l-127 -906q-3 -33 -28 -55t-58 -22q-32 0 -51 22q-17 20 -14 55zM670 1280v-2q53 0 84 25q32 26 41 55q9 30 34 55t62 25q59 0 59 -62q0 -64 -80 -141q-81 -78 -211 -78q-122 0 -184 62q-61 61 -61 131q0 40 22 65t56 25q37 0 53 -25q15 -24 18 -55
q3 -29 29 -55q25 -25 78 -25z" />
    <glyph glyph-name="Uring" unicode="&#x16e;" horiz-adv-x="1114" 
d="M1153 1370l-141 -1020q-21 -162 -135 -270q-113 -107 -308 -107q-166 0 -270 93q-100 90 -100 225q0 11 4 61l143 1012q3 36 31 61t67 25q34 0 56 -25q21 -24 18 -59l-143 -1014l-2 -16v-33q0 -64 53 -117t152 -53q115 0 184 66q67 64 82 166l139 1003q3 37 31 62
q27 24 65 24q35 0 56 -24t18 -60zM788 1620l-4 -6q36 0 56 20t20 56q0 24 -16 43q-15 18 -43 18q-31 0 -51 -20q-21 -21 -21 -50q0 -24 16 -43q15 -18 43 -18zM780 1507l2 -2q-70 0 -118 45q-50 47 -50 113q0 76 56 129t133 53q71 0 117 -43q47 -44 47 -108q0 -74 -54 -131
q-53 -56 -133 -56z" />
    <glyph glyph-name="uring" unicode="&#x16f;" horiz-adv-x="1003" 
d="M715 59l-4 56q-9 -15 -31 -37q-21 -20 -88 -55q-65 -33 -139 -33q-133 0 -207 80t-74 206q0 38 6 82l86 615q3 33 31 55q30 23 61 23q35 0 54 -25t16 -57l-84 -611q-6 -50 -6 -69q0 -66 41 -113q39 -45 121 -45q85 0 159 59t86 146l88 633q3 33 31 55q30 23 62 23
q34 0 53 -25t16 -57l-127 -906q-3 -33 -28 -55t-58 -22q-32 0 -51 22q-17 20 -14 55zM664 1225l-5 -6q36 0 56 20t20 55q0 24 -16 43t-43 19q-30 0 -51 -21t-21 -49q0 -23 17 -43q15 -18 43 -18zM655 1112l2 -2q-70 0 -118 45q-50 47 -50 113q0 76 56 129t133 53
q71 0 117 -43q47 -44 47 -109q0 -74 -54 -131q-52 -55 -133 -55z" />
    <glyph glyph-name="Uhungarumlaut" unicode="&#x170;" horiz-adv-x="1114" 
d="M1153 1370l-141 -1020q-21 -162 -135 -270q-113 -107 -308 -107q-166 0 -270 93q-100 90 -100 225q0 11 4 61l143 1012q3 36 31 61t67 25q34 0 56 -25q21 -24 18 -59l-143 -1014l-2 -16v-33q0 -64 53 -117t152 -53q115 0 184 66q67 64 82 166l139 1003q3 37 31 62
q27 24 65 24q35 0 56 -24t18 -60zM604 1591h-4q0 26 25 51l155 150q30 27 64 27q26 0 43 -17q16 -16 16 -41q0 -38 -35 -65l-168 -137q-24 -21 -49 -21q-22 0 -35 16q-12 15 -12 37zM915 1591h-2q0 24 27 51l156 150q30 27 63 27q26 0 43 -17t17 -41q0 -38 -35 -65
l-168 -137q-24 -21 -49 -21q-21 0 -37 16q-15 15 -15 37z" />
    <glyph glyph-name="uhungarumlaut" unicode="&#x171;" horiz-adv-x="1003" 
d="M715 59l-4 56q-9 -15 -31 -37q-21 -20 -88 -55q-65 -33 -139 -33q-133 0 -207 80t-74 206q0 38 6 82l86 615q3 33 31 55q30 23 61 23q35 0 54 -25t16 -57l-84 -611q-6 -50 -6 -69q0 -66 41 -113q39 -45 121 -45q85 0 159 59t86 146l88 633q3 33 31 55q30 23 62 23
q34 0 53 -25t16 -57l-127 -906q-3 -33 -28 -55t-58 -22q-32 0 -51 22q-17 20 -14 55zM461 1196h-4q0 27 24 51l156 150q29 26 63 26q27 0 43 -16q17 -17 17 -41q0 -39 -35 -66l-168 -137q-23 -20 -49 -20q-22 0 -35 16q-12 15 -12 37zM772 1196h-2q0 24 27 51l155 150
q29 26 64 26q27 0 43 -16t16 -41q0 -39 -35 -66l-168 -137q-23 -20 -49 -20q-21 0 -37 16q-14 14 -14 37z" />
    <glyph glyph-name="Uogonek" unicode="&#x172;" horiz-adv-x="1114" 
d="M1153 1370l-141 -1028q-35 -232 -221 -326q-68 -37 -129 -100q-64 -67 -64 -125q0 -43 41 -43h49q66 0 66 -53q0 -29 -25 -51q-24 -21 -59 -21h-72q-67 0 -104 37t-37 90q0 132 170 227q-50 -4 -58 -4q-166 0 -270 93q-100 90 -100 225q0 11 4 61l143 1012q3 36 31 61
t67 25q34 0 56 -25q21 -24 18 -59l-143 -1014l-2 -16v-33q0 -64 53 -117t152 -53q115 0 184 66q67 64 82 166l139 1003q3 37 31 62q27 24 65 24q35 0 56 -24t18 -60z" />
    <glyph glyph-name="uogonek" unicode="&#x173;" horiz-adv-x="1003" 
d="M715 59v54q-9 -15 -31 -37q-23 -23 -88 -56q-63 -32 -139 -32q-133 0 -207 80t-74 206q0 38 6 82l86 615q3 33 31 55q30 23 61 23q35 0 54 -25t16 -57l-84 -611q-6 -50 -6 -69q0 -66 41 -113q39 -45 121 -45q86 0 160 59t86 146l88 633q3 34 30 55q28 22 62 22
q35 0 53 -24q19 -25 16 -57l-127 -906q-6 -46 -43 -67q-39 -23 -92 -82q-51 -57 -51 -107q0 -43 41 -43h49q66 0 66 -53q0 -29 -25 -51q-24 -21 -59 -21h-72q-67 0 -104 37t-37 90q0 79 55 140q54 60 135 98q-21 21 -18 61z" />
    <glyph glyph-name="Wcircumflex" unicode="&#x174;" horiz-adv-x="1419" 
d="M934 764l78 -604h20l180 682l76 528q3 35 31 60q27 24 63 24q37 0 58 -24t18 -60l-76 -526q-3 -24 -12 -51l-217 -738q-15 -55 -86 -55h-131q-68 0 -74 55l-65 549h-15l-217 -549q-21 -55 -86 -55h-133q-74 0 -74 55l-6 738q0 39 2 51l76 526q3 35 31 60q27 24 63 24
q39 0 60 -24t18 -60l-76 -528l-10 -682h25l243 604q21 55 86 55h76q68 0 74 -55zM670 1583l-2 -4q0 27 28 55l170 158q37 37 86 37q47 0 74 -37l143 -164q15 -18 15 -39q0 -27 -21 -45t-49 -18q-21 0 -43 22l-129 131l-162 -133q-26 -20 -51 -20q-22 0 -41 16q-18 15 -18 41
z" />
    <glyph glyph-name="wcircumflex" unicode="&#x175;" horiz-adv-x="1458" 
d="M1280 766l-12 -6q0 95 -78 123q-49 18 -49 69q0 32 22 54t54 22q81 0 147 -72q63 -69 63 -178q0 -164 -41 -336q-47 -201 -153 -331q-107 -131 -283 -131q-73 0 -135 36q-63 37 -98 99q-119 -131 -287 -131q-118 0 -194 79q-78 81 -78 209q0 34 4 80l86 611q3 33 31 55
t61 22q34 0 53 -22q20 -23 17 -55l-86 -633q-1 -11 -2 -24t-2 -22t-1 -14q0 -64 37 -104q36 -39 97 -39q93 0 161 74t86 211l76 553q3 33 31 55t61 22q35 0 54 -22t16 -55l-90 -654q-2 -14 -2 -49q0 -60 39 -96q40 -37 92 -37q90 0 158 80t98 213q47 205 47 344zM623 1167
l-2 -4q0 28 28 56l170 157q37 37 86 37q47 0 74 -37l143 -164q15 -18 15 -38q0 -28 -21 -46t-49 -18q-20 0 -43 23l-129 131l-162 -134q-26 -20 -51 -20q-22 0 -41 16q-18 15 -18 41z" />
    <glyph glyph-name="Ycircumflex" unicode="&#x176;" horiz-adv-x="919" 
d="M651 678l-94 -615q-3 -34 -31 -59q-27 -24 -61 -24t-55 24q-22 25 -19 59l86 615l-229 643q-8 21 -8 43q0 37 26 63q27 27 68 27q59 0 80 -61l182 -529l319 529q37 61 95 61q31 0 51 -20t20 -52q0 -30 -16 -59zM457 1583l-2 -4q0 27 28 55l170 158q37 37 86 37
q47 0 74 -37l143 -164q15 -18 15 -39q0 -27 -21 -45t-49 -18q-21 0 -43 22l-129 131l-162 -133q-26 -20 -51 -20q-22 0 -41 16q-18 15 -18 41z" />
    <glyph glyph-name="ycircumflex" unicode="&#x177;" 
d="M190 475l64 488q3 33 31 55t61 22q35 0 53 -24q20 -26 17 -58l-70 -493q-4 -36 -4 -62q0 -76 49 -122q48 -45 137 -45q84 0 148 61t76 147l73 521q3 33 31 55t62 22q35 0 53 -24q19 -25 16 -57l-145 -1024q-21 -146 -131 -236q-112 -92 -275 -92q-128 0 -207 61t-79 168
q0 157 157 234l107 51q-103 12 -166 90q-62 77 -62 195q0 13 4 67zM678 -49l35 237q-23 -30 -80 -67l-264 -158q-66 -41 -66 -104q0 -44 37 -74q39 -31 100 -31q95 0 160 56q66 57 78 141zM385 1174l-2 -5q0 27 29 56l170 157q37 37 86 37q46 0 73 -37l144 -163
q14 -17 14 -39q0 -28 -20 -45q-22 -19 -50 -19q-20 0 -43 23l-129 131l-161 -133q-27 -21 -52 -21q-21 0 -41 17q-18 15 -18 41z" />
    <glyph glyph-name="Ydieresis" unicode="&#x178;" horiz-adv-x="919" 
d="M651 678l-94 -615q-3 -34 -31 -59q-27 -24 -61 -24t-55 24q-22 25 -19 59l86 615l-229 643q-8 21 -8 43q0 37 26 63q27 27 68 27q59 0 80 -61l182 -529l319 529q37 61 95 61q31 0 51 -20t20 -52q0 -30 -16 -59zM473 1681l6 -2q0 44 31 80q29 33 78 33q38 0 63 -25t25 -63
q0 -42 -37 -76q-36 -33 -80 -33q-36 0 -61 25t-25 61zM793 1677h-2q0 44 34 78q35 35 80 35q39 0 64 -25q24 -24 24 -61q0 -45 -35 -80q-33 -33 -77 -33q-39 0 -64 25q-24 24 -24 61z" />
    <glyph glyph-name="Zacute" unicode="&#x179;" horiz-adv-x="997" 
d="M131 201l737 1067h-516q-34 0 -55 18t-21 49q0 41 27 68t68 27h612q42 0 64 -25q20 -23 14 -62l-6 -40q-6 -47 -35 -91l-725 -1056h534q35 0 54 -19q18 -18 18 -49q0 -36 -24 -63t-64 -27h-639q-41 0 -63 25t-19 61l4 27q6 46 35 90zM659 1593h-2q0 31 29 60l172 166
q34 30 68 30q29 0 47 -18t18 -45q0 -45 -39 -74l-186 -151q-28 -25 -53 -25q-23 0 -39 16q-15 15 -15 41z" />
    <glyph glyph-name="zacute" unicode="&#x17a;" horiz-adv-x="815" 
d="M582 -47l34 235q-26 -29 -86 -67l-258 -162q-63 -40 -63 -104q0 -42 37 -72q39 -31 98 -31q96 0 160 58q66 60 78 143zM834 901l-3 4q-9 -40 -24 -61l-354 -389q139 -3 225 -80t86 -191q0 -7 -4 -61l-25 -180q-18 -143 -129 -234q-112 -92 -274 -92q-121 0 -203 61
t-82 162q0 140 154 232q36 21 139 80q28 16 79.5 45t72.5 41q57 34 67 47q-39 28 -108 28h-129q-29 0 -48 19q-18 18 -18 53q0 62 39 107l340 382h-387q-30 0 -49 19t-19 47q0 32 25 57t61 25h506q68 0 68 -66q0 -8 -6 -55zM494 1190h-2q0 31 28 59l172 166q36 31 68 31
q28 0 47 -19q18 -18 18 -45q0 -44 -39 -73l-186 -152q-27 -24 -53 -24q-23 0 -39 16q-14 14 -14 41z" />
    <glyph glyph-name="Zdotaccent" unicode="&#x17b;" horiz-adv-x="997" 
d="M131 201l737 1067h-516q-34 0 -55 18t-21 49q0 41 27 68t68 27h612q42 0 64 -25q20 -23 14 -62l-6 -40q-6 -47 -35 -91l-725 -1056h534q35 0 54 -19q18 -18 18 -49q0 -36 -24 -63t-64 -27h-639q-41 0 -63 25t-19 61l4 27q6 46 35 90zM625 1673l-7 2q0 47 37 84t86 37
q41 0 68 -24t27 -66q0 -49 -37 -86t-84 -37q-41 0 -66 25q-24 24 -24 65z" />
    <glyph glyph-name="zdotaccent" unicode="&#x17c;" horiz-adv-x="815" 
d="M582 -47l34 235q-26 -29 -86 -67l-258 -162q-63 -40 -63 -104q0 -42 37 -72q39 -31 98 -31q96 0 160 58q66 60 78 143zM834 901l-3 4q-9 -40 -24 -61l-354 -389q139 -3 225 -80t86 -191q0 -7 -4 -61l-25 -180q-18 -143 -129 -234q-112 -92 -274 -92q-121 0 -203 61
t-82 162q0 140 154 232q36 21 139 80q28 16 79.5 45t72.5 41q57 34 67 47q-39 28 -108 28h-129q-29 0 -48 19q-18 18 -18 53q0 62 39 107l340 382h-387q-30 0 -49 19t-19 47q0 32 25 57t61 25h506q68 0 68 -66q0 -8 -6 -55zM459 1270l-6 2q0 48 36 84q37 37 86 37
q40 0 68 -25q27 -24 27 -65q0 -49 -37 -86t-84 -37q-42 0 -66 24t-24 66z" />
    <glyph glyph-name="Zcaron" unicode="&#x17d;" horiz-adv-x="997" 
d="M131 201l737 1067h-516q-34 0 -55 18t-21 49q0 41 27 68t68 27h612q42 0 64 -25q20 -23 14 -62l-6 -40q-6 -47 -35 -91l-725 -1056h534q35 0 54 -19q18 -18 18 -49q0 -36 -24 -63t-64 -27h-639q-41 0 -63 25t-19 61l4 27q6 46 35 90zM1024 1774l2 -2q0 -27 -29 -56
l-170 -157q-37 -37 -86 -37q-46 0 -73 37l-144 163q-14 17 -14 39q0 30 20 47q22 19 50 19q20 0 43 -23l129 -131l161 133q27 21 52 21q23 0 41 -15t18 -38z" />
    <glyph glyph-name="zcaron" unicode="&#x17e;" horiz-adv-x="815" 
d="M582 -47l34 235q-26 -29 -86 -67l-258 -162q-63 -40 -63 -104q0 -42 37 -72q39 -31 98 -31q96 0 160 58q66 60 78 143zM834 901l-3 4q-9 -40 -24 -61l-354 -389q139 -3 225 -80t86 -191q0 -7 -4 -61l-25 -180q-18 -143 -129 -234q-112 -92 -274 -92q-121 0 -203 61
t-82 162q0 140 154 232q36 21 139 80q28 16 79.5 45t72.5 41q57 34 67 47q-39 28 -108 28h-129q-29 0 -48 19q-18 18 -18 53q0 62 39 107l340 382h-387q-30 0 -49 19t-19 47q0 32 25 57t61 25h506q68 0 68 -66q0 -8 -6 -55zM838 1370l2 -2q0 -26 -29 -55l-170 -158
q-37 -37 -86 -37q-47 0 -74 37l-143 164q-14 17 -14 39q0 30 20 47q21 18 49 18q21 0 43 -22l129 -131l162 133q26 20 51 20q24 0 41 -14q19 -16 19 -39z" />
    <glyph glyph-name="florin" unicode="&#x192;" horiz-adv-x="1073" 
d="M1128 1409l-4 2q35 -21 35 -55t-24 -58t-58 -24q-11 0 -63 18q-55 19 -99 19q-174 0 -204 -219l-35 -258h319q35 0 54 -19q18 -18 18 -45q0 -36 -25 -61t-63 -25h-324l-141 -995q-3 -33 -29 -56q-25 -22 -61 -22q-34 0 -53 22q-18 21 -15 56l142 995h-252q-31 0 -49 18
q-19 19 -19 48q0 34 25 59t63 25h252l39 290q21 153 119 240q101 90 262 90q116 0 190 -45z" />
    <glyph glyph-name="AEacute" unicode="&#x1fc;" horiz-adv-x="1343" 
d="M676 1272l-291 -656h322l92 656h-123zM913 836l316 -9q34 0 53 -22t16 -55q-3 -35 -30 -56q-28 -22 -62 -22h-319l-72 -514h385q34 0 53 -25q20 -26 17 -57q-3 -34 -31 -56t-61 -22h-478q-33 0 -55 25q-21 24 -18 59l53 379h-328l-55 -400q-3 -33 -29 -59
q-25 -25 -59 -25q-32 0 -57 25q-24 24 -21 59l74 531q3 17 12 37l344 747q24 56 88 56h715q33 0 53 -23q18 -21 15 -55q-3 -32 -29 -58q-24 -24 -60 -24h-368zM860 1589h-2q0 31 29 60l172 166q35 30 67 30q30 0 48 -18t18 -45q0 -45 -39 -74l-186 -152q-27 -24 -54 -24
q-23 0 -39 16q-14 14 -14 41z" />
    <glyph glyph-name="aeacute" unicode="&#x1fd;" horiz-adv-x="1499" 
d="M518 125v-2q75 0 133 55q59 56 74 129l76 543q-62 47 -178 47q-102 0 -172 -61q-71 -62 -86 -162l-46 -328l-2 -6v-16v-19q0 -76 56 -129q54 -51 145 -51zM936 690l-27 -207l310 111q124 43 124 145q0 65 -49 111q-50 47 -125 47q-88 0 -153 -59t-80 -148zM1051 -23l-7 3
q-195 0 -280 131q-88 -131 -283 -131q-142 0 -231 92q-90 93 -90 231q0 8 4 70l41 295q21 164 139 270q116 104 281 104q156 0 321 -73q107 73 242 73q143 0 227 -81q86 -83 86 -199q0 -218 -250 -307l-362 -127q-4 -32 -4 -35q0 -76 47 -123t127 -47q167 0 213 147
q21 64 82 64q30 0 49 -19q18 -18 18 -47q0 -90 -100 -190q-101 -101 -270 -101zM877 1188q0 31 28 59l172 166q36 31 68 31q26 0 45 -19q18 -18 18 -45q0 -44 -39 -73l-186 -152q-28 -25 -53 -25q-22 0 -39 17q-14 14 -14 41z" />
    <glyph glyph-name="Oslashacute" unicode="&#x1fe;" horiz-adv-x="1099" 
d="M838 373l100 686l-559 -823q43 -107 192 -107q115 0 183 74q69 75 84 170zM469 1079l-100 -698l551 815q-18 45 -68 76q-51 31 -121 31q-107 0 -178 -68q-72 -69 -84 -156zM1155 1380l-84 -114q33 -67 33 -142q0 -9 -4 -55l-101 -719q-21 -153 -141 -264t-309 -111
q-175 0 -277 105l-47 -70q-21 -35 -49 -35q-18 0 -31 13q-12 12 -12 30t8 31l78 115q-31 67 -31 141q0 31 7 66l98 706q21 153 141 264t314 111q171 0 272 -104l47 69q21 35 53 35q19 0 31 -12t12 -29q0 -18 -8 -31zM680 1595q0 31 29 60l172 166q34 30 67 30q27 0 45 -18
q19 -19 19 -45q0 -45 -39 -74l-187 -151q-28 -25 -53 -25q-23 0 -39 16q-14 14 -14 41z" />
    <glyph glyph-name="oslashacute" unicode="&#x1ff;" horiz-adv-x="974" 
d="M934 987l-45 -67q59 -77 59 -185q0 -7 -4 -57l-47 -348q-21 -155 -129 -254t-270 -99q-122 0 -211 62l-35 -53q-19 -25 -43 -25q-41 0 -41 39q0 19 12 37l43 63q-57 80 -57 187q0 7 4 57l45 348q21 154 131 252t277 98q120 0 202 -61l35 51q19 25 45 25q39 0 39 -39
q0 -14 -10 -31zM508 117v-2q95 0 160 59q63 57 75 154l54 368q2 12 2 37q0 26 -6 47l-422 -616q53 -47 137 -47zM319 289h3q0 -23 4 -43l419 614q-51 45 -135 45q-96 0 -159 -57q-64 -58 -76 -154l-53 -368q-3 -18 -3 -37zM604 1186h-2q0 30 29 59l172 166q36 31 67 31
q29 0 48 -19q18 -18 18 -45q0 -44 -39 -73l-186 -152q-28 -25 -54 -25q-22 0 -39 17q-14 14 -14 41z" />
    <glyph glyph-name="Scommaaccent" unicode="&#x218;" horiz-adv-x="1038" 
d="M715 1454l-8 -20q147 0 249 -91q99 -89 99 -196q0 -113 -97 -113q-34 0 -55 21t-24 55q-3 75 -58 121q-56 47 -137 47q-95 0 -164 -66q-67 -64 -67 -165q0 -70 55 -125q57 -57 131 -99q98 -55 154 -92q75 -48 131 -135q55 -85 55 -201q0 -162 -115 -295
q-113 -131 -332 -131q-174 0 -276 99q-100 97 -100 223q0 51 24 88t76 37q74 0 74 -84q0 -89 55 -144t152 -55q117 0 188 74q72 75 72 172q0 73 -37 131q-35 55 -96 94l-55 35t-70 45q-53 34 -125 84q-60 42 -97 111q-36 68 -36 159q0 174 127 295t307 121zM336 -455l-2 -2
q-55 0 -55 60q0 25 16 47l137 194q35 47 80 47q29 0 47 -18q19 -19 19 -45q0 -33 -25 -61l-156 -185q-27 -37 -61 -37z" />
    <glyph glyph-name="scommaaccent" unicode="&#x219;" horiz-adv-x="901" 
d="M473 -20l-12 -7q-165 0 -248 86q-82 85 -82 179t78 94q27 0 49 -19t25 -45q3 -65 49 -108t129 -43q88 0 147 47q58 46 58 123q0 63 -68 110q-69 47 -147 74q-79 27 -148 96q-67 67 -67 170q0 137 104 219q107 84 250 84q139 0 221 -82q84 -84 84 -165q0 -37 -21 -64
t-61 -27q-68 0 -80 80q-9 53 -51 86t-111 33q-65 0 -116 -39q-54 -42 -54 -104q0 -50 45 -86q48 -38 111 -62q74 -27 129 -57q67 -36 111 -94q45 -60 45 -152q0 -143 -105 -235q-106 -92 -264 -92zM254 -440l-2 -2q-55 0 -55 59q0 25 16 47l137 195q35 47 80 47q28 0 47 -19
t19 -45q0 -33 -25 -61l-156 -184q-27 -37 -61 -37z" />
    <glyph glyph-name="dotlessj" unicode="&#x237;" horiz-adv-x="491" 
d="M-125 -356l-6 -2q-35 15 -35 49q0 38 25 63t59 25q11 0 29 -6q43 -19 73 -19q48 0 89 35q40 34 49 98l151 1074q3 32 31 57q27 24 61 24q35 0 54 -22t16 -55l-149 -1057q-18 -132 -76 -199q-81 -96 -228 -96q-83 0 -143 31z" />
    <glyph glyph-name="circumflex" unicode="&#x2c6;" horiz-adv-x="593" 
d="M203 1174l-2 -5q0 28 28 56l170 157q37 37 86 37q47 0 74 -37l143 -163q15 -18 15 -39q0 -27 -21 -45q-22 -19 -49 -19q-20 0 -43 23l-129 131l-162 -133q-27 -21 -51 -21q-21 0 -41 17q-18 15 -18 41z" />
    <glyph glyph-name="caron" unicode="&#x2c7;" horiz-adv-x="593" 
d="M745 1368l3 -2q0 -26 -29 -55l-170 -158q-37 -37 -86 -37q-47 0 -74 37l-143 164q-15 18 -15 39q0 29 21 47t49 18q21 0 43 -22l129 -131l162 133q26 20 51 20q24 0 41 -14q18 -15 18 -39z" />
    <glyph glyph-name="breve" unicode="&#x2d8;" horiz-adv-x="550" 
d="M453 1272v-2q54 0 84 24q32 25 41 56q9 30 34 55t62 25q59 0 59 -62q0 -64 -80 -141q-81 -78 -211 -78q-123 0 -184 61t-61 131q0 41 22 66t55 25q38 0 54 -25q15 -24 18 -55q3 -30 29 -56q24 -24 78 -24z" />
    <glyph glyph-name="dotaccent" unicode="&#x2d9;" horiz-adv-x="182" 
d="M160 1268l-2 2q0 47 37 84t86 37q40 0 65 -25t25 -66q0 -49 -37 -86q-36 -36 -84 -36q-42 0 -66 24t-24 66z" />
    <glyph glyph-name="ring" unicode="&#x2da;" horiz-adv-x="348" 
d="M346 1217l-4 -7q34 0 55 21t21 55q0 23 -17 43q-16 19 -43 19q-30 0 -51 -21q-20 -20 -20 -49q0 -24 16 -43q15 -18 43 -18zM338 1104l2 -2q-71 0 -119 45q-49 46 -49 113q0 77 55 129q56 53 133 53q71 0 117 -43q47 -44 47 -109q0 -75 -53 -131q-52 -55 -133 -55z" />
    <glyph glyph-name="ogonek" unicode="&#x2db;" horiz-adv-x="284" 
d="M178 0l131 -4q-7 -4 -25.5 -16t-29.5 -19q-27 -17 -88 -74q-55 -52 -55 -88q0 -43 41 -43h49q65 0 65 -53q0 -30 -24 -51t-60 -21h-71q-68 0 -105 37t-37 90q0 78 62 140q61 62 147 102z" />
    <glyph glyph-name="tilde" unicode="&#x2dc;" horiz-adv-x="606" 
d="M362 1366q56 0 127 -45t105 -45q40 0 61 41q21 49 72 49q57 0 57 -57q0 -64 -61 -113t-137 -49q-52 0 -125 43t-105 43q-40 0 -61 -41q-21 -49 -72 -49q-55 0 -55 55q0 64 59 117q57 51 135 51z" />
    <glyph glyph-name="hungarumlaut" unicode="&#x2dd;" horiz-adv-x="768" 
d="M233 1188h-4q0 26 25 51l156 150q29 26 63 26q27 0 43 -16t16 -41q0 -39 -34 -66l-168 -137q-23 -20 -49 -20q-22 0 -35 16t-13 37zM545 1188h-2q0 25 26 51l156 150q29 26 63 26q27 0 43 -16q17 -17 17 -41q0 -39 -35 -66l-168 -137q-23 -20 -49 -20q-21 0 -37 16
q-14 14 -14 37z" />
    <glyph glyph-name="afii10023" unicode="&#x401;" 
d="M819 0l-579 -4q-33 0 -52 22q-17 20 -14 56l178 1274q3 32 31 57t61 25h560q33 0 53 -23q17 -20 14 -55q-3 -32 -29 -58q-24 -24 -59 -24h-467l-61 -436h417q34 0 54 -23q19 -22 16 -55q-3 -34 -31 -56t-61 -22h-418l-74 -514h484q34 0 53 -25t16 -57q-3 -33 -30 -57
q-28 -25 -62 -25zM502 1677l6 -2q0 44 31 80q29 33 77 33q39 0 64 -25t25 -63q0 -42 -37 -76q-36 -33 -80 -33q-37 0 -62 25q-24 24 -24 61zM821 1673h-2q0 43 35 78t80 35q38 0 63 -25t25 -61q0 -45 -35 -80q-33 -33 -78 -33q-38 0 -63 25t-25 61z" />
    <glyph glyph-name="afii10051" unicode="&#x402;" horiz-adv-x="1116" 
d="M569 717l-102 -660q-3 -35 -33 -59q-31 -25 -63 -25q-34 0 -56 25q-21 24 -18 59l170 1213h-188q-76 0 -76 65q0 42 26 68q27 27 70 27h610q30 0 49 -19t19 -49q0 -36 -25 -64q-23 -26 -63 -26h-246l-53 -383q85 43 225 43q126 0 203 -74q78 -75 78 -203v-20v-17v-12v-8
v-4l-41 -295q-21 -145 -107 -225t-219 -80h-33q-33 0 -51 18t-18 45q0 31 24 58q23 26 58 26h43q108 0 129 142l45 303q2 10 2 37q0 153 -162 153q-56 0 -102 -14q-50 -15 -72 -31z" />
    <glyph glyph-name="afii10052" unicode="&#x403;" horiz-adv-x="823" 
d="M172 63l174 1287q3 32 31 57t61 25h492q33 0 53 -23q17 -20 14 -55q-3 -33 -28 -58q-24 -24 -60 -24h-397l-170 -1209q-3 -35 -33 -59t-63 -24q-35 0 -56 24t-18 59zM645 1593h-2q0 31 29 60l172 166q35 30 67 30q29 0 47 -18q19 -19 19 -45q0 -45 -39 -74l-186 -151
q-28 -25 -54 -25q-23 0 -39 16q-14 14 -14 41z" />
    <glyph glyph-name="afii10053" unicode="&#x404;" horiz-adv-x="1034" 
d="M715 676l-303 -8l-43 -289q-4 -28 -4 -70q0 -82 55 -131t145 -49t154 55q66 57 84 146q9 36 35 59t61 23q34 0 55 -21t21 -55q0 -44 -25 -105q-23 -56 -73 -118q-48 -60 -138 -101t-196 -41q-159 0 -254 92q-94 91 -94 234q0 36 10 121l90 651q21 161 139 270t293 109
q150 0 246 -90t96 -213q0 -40 -27 -70q-28 -31 -67 -31q-34 0 -55 21q-22 22 -25 55q-9 76 -57 121q-50 47 -131 47q-100 0 -164 -61q-66 -63 -78 -154l-33 -239h303q30 0 49 -19t19 -49q0 -36 -25 -64q-23 -26 -63 -26z" />
    <glyph glyph-name="afii10054" unicode="&#x405;" horiz-adv-x="1007" 
d="M715 1454l-8 -20q147 0 249 -91q99 -89 99 -196q0 -113 -97 -113q-34 0 -55 21t-24 55q-3 75 -58 121q-56 47 -137 47q-95 0 -164 -66q-67 -64 -67 -165q0 -70 55 -125q57 -57 131 -99q98 -55 154 -92q75 -48 131 -135q55 -85 55 -201q0 -162 -115 -295
q-113 -131 -332 -131q-174 0 -276 99q-100 97 -100 223q0 51 24 88t76 37q74 0 74 -84q0 -89 55 -144t152 -55q117 0 188 74q72 75 72 172q0 73 -37 131q-35 55 -96 94l-55 35t-70 45q-53 34 -125 84q-60 42 -97 111q-36 68 -36 159q0 174 127 295t307 121z" />
    <glyph glyph-name="afii10055" unicode="&#x406;" horiz-adv-x="499" 
d="M528 1370l-186 -1307q-3 -36 -31 -61t-67 -25q-36 0 -58 25q-21 24 -18 59l184 1307q3 37 31 62q27 24 68 24q38 0 59 -24t18 -60z" />
    <glyph glyph-name="afii10056" unicode="&#x407;" horiz-adv-x="499" 
d="M528 1370l-186 -1307q-3 -36 -31 -61t-67 -25q-36 0 -58 25q-21 24 -18 59l184 1307q3 37 31 62q27 24 68 24q38 0 59 -24t18 -60zM227 1681l6 -2q0 44 31 80q29 33 78 33q39 0 64 -25q24 -24 24 -63q0 -42 -37 -76q-36 -33 -80 -33q-36 0 -61 25t-25 61zM547 1677h-2
q0 43 35 78t79 35q39 0 64 -25t25 -61q0 -45 -35 -80q-33 -33 -78 -33q-39 0 -64 25q-24 24 -24 61z" />
    <glyph glyph-name="afii10057" unicode="&#x408;" horiz-adv-x="927" 
d="M326 453l-21 -154v-12v-19q0 -55 37 -92t109 -37q70 0 122 43q54 45 66 137l149 1049q3 37 31 62q27 24 68 24q38 0 59 -24q22 -25 19 -60l-150 -1059q-21 -149 -123 -241q-104 -93 -246 -93q-137 0 -223 80t-86 197q0 25 23 199q3 35 30 59q28 25 62 25q33 0 55 -25
t19 -59z" />
    <glyph glyph-name="afii10058" unicode="&#x409;" horiz-adv-x="1552" 
d="M1133 0l-347 -2q-33 0 -55 25q-21 24 -18 59l166 1188h-277q-169 -881 -196 -996q-29 -130 -117 -208q-87 -78 -203 -78q-34 0 -55 18t-21 49q0 36 27 60t67 30q119 21 154 177q61 269 197 1026q6 34 34 59t62 25h442q37 0 56 -25q17 -23 14 -59l-72 -514h258
q123 0 197 -74t74 -193q0 -17 -4 -63l-25 -187q-18 -138 -113 -227q-96 -90 -245 -90zM1317 315l29 207q2 10 2 25q0 55 -37 92t-94 37h-250l-72 -514h250q71 0 117 43t55 110z" />
    <glyph glyph-name="afii10059" unicode="&#x40a;" horiz-adv-x="1572" 
d="M918 162l237 4q74 0 123 43q50 44 59 110l27 187q4 36 4 49q0 53 -39 86q-41 35 -100 35h-240zM1139 4l-332 -6q-33 0 -55 25t-19 59l82 592h-385l-86 -613q-3 -36 -31 -61t-67 -25q-34 0 -56 25q-21 24 -18 59l182 1307q3 36 31 61t68 25q33 0 55 -25q21 -24 18 -59
l-73 -534h385l73 534q3 37 31 62q27 24 66 24q34 0 55 -24t18 -60l-73 -534h231q137 0 217 -74t80 -195q0 -11 -4 -61l-23 -184q-18 -141 -116 -228q-101 -90 -254 -90z" />
    <glyph glyph-name="afii10060" unicode="&#x40b;" horiz-adv-x="1116" 
d="M852 63l66 517q2 10 2 36q0 154 -162 154q-57 0 -103 -14q-48 -15 -71 -31l-23 -14l-94 -654q-3 -35 -33 -59q-31 -25 -63 -25q-34 0 -56 25q-21 24 -18 59l170 1213h-188q-76 0 -76 65q0 42 26 68q27 27 70 27h610q30 0 49 -19t19 -49q0 -36 -25 -64q-23 -26 -63 -26
h-246l-53 -383q85 43 225 43q126 0 203 -74q78 -75 78 -203v-20v-17v-12v-8v-4l-74 -531q-3 -35 -33 -59t-63 -24q-35 0 -56 24t-18 59z" />
    <glyph glyph-name="afii10061" unicode="&#x40c;" horiz-adv-x="1017" 
d="M498 676l-74 -2l-86 -613q-3 -34 -31 -59t-61 -25q-34 0 -56 25q-21 24 -18 59l184 1307q3 34 31 59t62 25q33 0 55 -25q21 -24 18 -59l-76 -534h68l465 583q27 35 72 35q32 0 53 -18q22 -19 22 -48q0 -31 -28 -67l-459 -563l307 -633q15 -24 15 -55q0 -35 -27 -62
q-26 -26 -64 -26q-49 0 -69 45zM711 1595q0 32 28 60l172 166q35 30 68 30q27 0 45 -18t18 -45q0 -46 -38 -74l-187 -151q-28 -25 -53 -25q-23 0 -39 16q-14 14 -14 41z" />
    <glyph glyph-name="afii10062" unicode="&#x40e;" horiz-adv-x="970" 
d="M739 1663l-2 -4q31 0 58 10q22 8 39 29q11 13 20 31q10 20 16 34q24 62 84 62q62 0 62 -64q0 -79 -76 -149t-205 -70q-122 0 -190 62t-68 131q0 42 25 67t59 25q59 0 68 -62q6 -102 110 -102zM1092 1327l-707 -1286q-34 -61 -92 -61q-31 0 -49 18q-19 19 -19 47
q0 32 21 66l237 428l-213 790q-4 28 -4 37q0 33 29 59q28 25 65 25q59 0 74 -55l166 -672l352 672q27 55 86 55q32 0 49 -20q19 -22 19 -50t-14 -53z" />
    <glyph glyph-name="afii10145" unicode="&#x40f;" horiz-adv-x="1116" 
d="M473 0h-233q-33 0 -56 23q-21 21 -18 55l182 1290q3 33 35 59q31 25 66 25q33 0 55 -25q21 -24 18 -59l-170 -1212h445l170 1212q3 34 34 59t66 25q33 0 55 -25t19 -59l-183 -1290q-3 -33 -28 -55q-26 -23 -60 -23h-231l-35 -246q-3 -32 -31 -57t-61 -25t-55 25t-19 57z
" />
    <glyph glyph-name="afii10017" unicode="&#x410;" horiz-adv-x="1034" 
d="M821 616l-108 662h-39l-293 -662h440zM653 1446h125q63 0 72 -55l137 -760q3 -18 0 -37l-74 -531q-3 -34 -28 -59q-24 -24 -60 -24q-33 0 -57 24q-23 23 -20 59l55 400h-453l-55 -400q-3 -33 -29 -59q-24 -24 -59 -24q-33 0 -57 24t-21 59l74 531q3 17 12 37l350 760
q24 55 88 55z" />
    <glyph glyph-name="afii10018" unicode="&#x411;" horiz-adv-x="985" 
d="M752 317l26 209q0 9 2 19t2 20q0 55 -37 92t-102 37h-211l-74 -530h211q74 0 123 43q51 45 60 110zM442 1432h492q36 0 55 -19t19 -49q0 -41 -27 -68q-26 -26 -70 -26h-395l-59 -418h211q134 0 213 -76q80 -77 80 -192q0 -6 -1 -14.5t-2 -21t-2 -20.5l-30 -213
q-21 -145 -123 -233q-101 -88 -252 -88h-311q-36 0 -54 24q-17 23 -14 58l178 1274q3 32 31 57t61 25z" />
    <glyph glyph-name="afii10019" unicode="&#x412;" horiz-adv-x="1024" 
d="M721 1272l-207 -6l-61 -441h206q79 0 129 47q51 48 60 117l16 119l2 4v12v17q0 56 -41 94q-40 37 -104 37zM430 670l-72 -516h197q84 0 143 53q58 52 70 129l18 129v8v21v18q0 61 -36 109q-37 49 -123 49h-197zM444 1425l287 -8q145 0 225 -74t80 -192q0 -23 -4 -59
l-12 -107q-9 -73 -51 -135q-44 -66 -101 -105q99 -79 99 -213v-24v-25l-2 -10l-19 -143q-21 -154 -129 -248q-107 -94 -266 -94h-305q-38 0 -56 24q-17 23 -14 56l178 1273q3 34 29 60q24 24 61 24z" />
    <glyph glyph-name="afii10020" unicode="&#x413;" horiz-adv-x="823" 
d="M172 63l174 1287q3 32 31 57t61 25h492q33 0 53 -23q17 -20 14 -55q-3 -33 -28 -58q-24 -24 -60 -24h-397l-170 -1209q-3 -35 -33 -59t-63 -24q-35 0 -56 24t-18 59z" />
    <glyph glyph-name="afii10021" unicode="&#x414;" horiz-adv-x="1085" 
d="M924 162h30q34 0 56 -25q21 -24 18 -57l-45 -328q-3 -32 -31 -57t-61 -25t-55 25t-19 57l35 246h-635l-35 -246q-3 -33 -30 -57q-28 -25 -62 -25q-33 0 -55 25t-19 57l45 328q3 31 35 57q31 25 66 25q31 0 55 35q27 39 35 86l209 1067q6 33 35 59q28 25 61 25h463
q36 0 55 -25q18 -24 15 -59zM408 276l-2 -2q-3 -22 -13 -53q-10 -29 -18 -43l-8 -16h378l156 1110h-297z" />
    <glyph glyph-name="afii10022" unicode="&#x415;" 
d="M819 0l-579 -4q-33 0 -52 22q-17 20 -14 56l178 1274q3 32 31 57t61 25h560q33 0 53 -23q17 -20 14 -55q-3 -32 -29 -58q-24 -24 -59 -24h-467l-61 -436h417q34 0 54 -23q19 -22 16 -55q-3 -34 -31 -56t-61 -22h-418l-74 -514h484q34 0 53 -25t16 -57q-3 -33 -30 -57
q-28 -25 -62 -25z" />
    <glyph glyph-name="afii10024" unicode="&#x416;" horiz-adv-x="1355" 
d="M907 676h-59l-86 -613q-3 -34 -31 -59q-27 -24 -61 -24q-36 0 -54 24q-17 23 -14 59l86 613h-51l-387 -635q-37 -61 -92 -61q-34 0 -52 18t-18 47q0 24 23 68l413 645l-223 579q-4 20 -4 25q0 35 22 63q21 27 62 27q54 0 72 -55l206 -563h52l75 534q3 36 29 62
q24 24 62 24q34 0 55 -24t18 -60l-76 -534h52l360 563q34 55 86 55q35 0 53 -18q19 -19 19 -47q0 -25 -17 -52l-385 -581l226 -643q8 -21 8 -43q0 -36 -25 -64q-23 -26 -61 -26q-53 0 -74 61z" />
    <glyph glyph-name="afii10025" unicode="&#x417;" horiz-adv-x="1011" 
d="M549 836l88 2q84 0 135 57q53 59 62 129l8 57q2 8 2 39q0 80 -49 129t-136 49q-77 0 -141 -49t-88 -123q-27 -73 -86 -73q-34 0 -55 18t-21 53q0 107 113 217q114 111 297 111q147 0 240 -90q92 -89 92 -227q0 -1 -11 -117q-10 -79 -51 -146q-42 -69 -108 -110
q106 -87 106 -207q0 -11 -4 -61l-18 -136q-21 -161 -136 -270q-112 -106 -288 -106q-149 0 -252 92t-103 219q0 131 99 131q34 0 55 -21q20 -20 20 -55v-31q0 -75 50 -122q51 -48 135 -48q106 0 172 60q65 59 80 153l22 158v12v13q0 58 -41 96q-40 37 -102 37h-109
q-30 0 -51 18q-20 17 -20 47q0 38 28 66q29 29 66 29z" />
    <glyph glyph-name="afii10026" unicode="&#x418;" horiz-adv-x="1118" 
d="M958 1108l-600 -1061q-41 -72 -104 -72q-45 0 -64 31q-18 30 -12 78l182 1284q3 33 29 59q25 25 60 25q34 0 53 -25t16 -59l-98 -694l-60 -352l598 1058q41 72 105 72q46 0 65 -31t13 -75l-180 -1285q-3 -34 -31 -59t-62 -25t-53 25q-17 23 -14 61l96 687z" />
    <glyph glyph-name="afii10027" unicode="&#x419;" horiz-adv-x="1116" 
d="M958 1108l-600 -1061q-41 -72 -104 -72q-45 0 -64 31q-18 30 -12 78l182 1284q3 33 29 59q25 25 60 25q34 0 53 -25t16 -59l-98 -694l-60 -352l598 1058q41 72 105 72q46 0 65 -31t13 -75l-180 -1285q-3 -34 -31 -59t-62 -25t-53 25q-17 23 -14 61l96 687zM793 1659
l-2 -4q30 0 57 10q22 8 39 29q13 15 20 30q14 28 17 35q24 62 84 62q61 0 61 -64q0 -79 -76 -149t-205 -70q-123 0 -190 61q-68 62 -68 132q0 42 25 67t59 25q59 0 68 -62q6 -102 111 -102z" />
    <glyph glyph-name="afii10028" unicode="&#x41a;" horiz-adv-x="1017" 
d="M498 676l-74 -2l-86 -613q-3 -34 -31 -59t-61 -25q-34 0 -56 25q-21 24 -18 59l184 1307q3 34 31 59t62 25q33 0 55 -25q21 -24 18 -59l-76 -534h68l465 583q27 35 72 35q32 0 53 -18q22 -19 22 -48q0 -31 -28 -67l-459 -563l307 -633q15 -24 15 -55q0 -35 -27 -62
q-26 -26 -64 -26q-49 0 -69 45z" />
    <glyph glyph-name="afii10029" unicode="&#x41b;" horiz-adv-x="1058" 
d="M86 -12h-4q-34 0 -55 18t-21 49q0 36 27 60t67 30q119 21 154 177q61 269 197 1026q6 34 34 59t62 25h463q36 0 55 -25q17 -23 14 -59l-180 -1287q-3 -35 -33 -59q-31 -25 -63 -25q-33 0 -55 25t-19 59l170 1209h-297q-169 -881 -196 -996q-29 -130 -117 -208
q-87 -78 -203 -78z" />
    <glyph glyph-name="afii10030" unicode="&#x41c;" horiz-adv-x="1306" 
d="M649 672l-166 483q-19 -159 -55 -438l-92 -654q-3 -34 -31 -59q-27 -24 -61 -24q-35 0 -56 24t-18 59l180 1278q9 52 39 82q31 31 78 31q69 0 94 -72l195 -608l362 608q47 72 123 72q47 0 72 -31t16 -82l-180 -1278q-3 -34 -31 -59q-27 -24 -61 -24q-35 0 -56 24t-18 59
l92 652l70 442l-295 -485q-47 -72 -111 -72q-69 0 -90 72z" />
    <glyph glyph-name="afii10031" unicode="&#x41d;" horiz-adv-x="1116" 
d="M1145 1370l-184 -1307q-3 -35 -29 -61q-25 -25 -66 -25q-33 0 -55 25q-21 24 -18 59l86 613h-445l-86 -613q-3 -36 -31 -61t-67 -25q-33 0 -55 25t-19 59l182 1307q3 36 31 61t68 25q33 0 55 -25q21 -24 18 -59l-73 -534h444l74 534q3 37 31 62q27 24 65 24q34 0 55 -24
q22 -25 19 -60z" />
    <glyph glyph-name="afii10032" unicode="&#x41e;" horiz-adv-x="1099" 
d="M1102 1075l-101 -721q-21 -153 -141 -264q-119 -110 -309 -110q-165 0 -266 96q-99 94 -99 231q0 31 7 66l98 706q21 153 141 264t313 111q171 0 265 -94q96 -96 96 -230q0 -9 -4 -55zM827 352l97 721v14v19q0 75 -54 129q-53 53 -147 53q-111 0 -180 -63
q-70 -64 -82 -150l-103 -723l-2 -12v-25q0 -72 56 -125q54 -51 153 -51q108 0 178 64q72 66 84 149z" />
    <glyph glyph-name="afii10033" unicode="&#x41f;" horiz-adv-x="1116" 
d="M788 63l168 1213h-444l-170 -1213q-3 -35 -33 -59t-63 -24q-35 0 -56 24t-18 59l180 1291q3 33 31 55q30 23 61 23h627q33 0 53 -23q18 -21 15 -55l-181 -1291q-3 -36 -32 -59q-30 -24 -64 -24t-55 24q-22 25 -19 59z" />
    <glyph glyph-name="afii10034" unicode="&#x420;" horiz-adv-x="972" 
d="M406 498l-74 -432q-3 -35 -31 -60q-27 -24 -61 -24q-35 0 -56 24t-18 60l182 1290q3 33 31 55q30 23 61 23h312q125 0 204 -76q80 -77 80 -197v-20v-19v-8l-41 -295q-18 -139 -118 -229q-103 -92 -246 -92h-225zM811 815l43 289v6v16v19q0 58 -39 94q-40 37 -100 37h-211
l-86 -612h211q74 0 123 43q50 44 59 108z" />
    <glyph glyph-name="afii10035" unicode="&#x421;" horiz-adv-x="1024" 
d="M735 1454l-14 -4q136 0 240 -82t104 -211q0 -41 -27 -76q-25 -32 -69 -32q-33 0 -51 18q-20 20 -23 53q-6 76 -57 121q-53 47 -129 47q-99 0 -166 -61q-68 -62 -80 -154l-98 -692q-5 -45 -5 -62q0 -78 56 -131q54 -51 141 -51q98 0 160 53q63 54 84 146q9 36 35 59t61 23
q33 0 55 -19q21 -18 21 -49q0 -145 -127 -260q-125 -113 -295 -113q-159 0 -260 93q-98 91 -98 237q0 55 10 133l90 635q21 163 141 271t301 108z" />
    <glyph glyph-name="afii10036" unicode="&#x422;" horiz-adv-x="829" 
d="M301 1434l633 4q74 0 74 -68q0 -40 -27 -67t-70 -27h-231l-170 -1208q-3 -37 -31 -62q-27 -24 -67 -24q-37 0 -58 24t-18 60l170 1208h-227q-74 0 -74 69q0 43 26 66q28 25 70 25z" />
    <glyph glyph-name="afii10037" unicode="&#x423;" horiz-adv-x="991" 
d="M1094 1331l-707 -1286q-34 -61 -92 -61q-31 0 -49 18q-19 19 -19 47q0 31 21 66l237 428l-213 790q-4 28 -4 37q0 34 29 60q27 24 65 24q59 0 74 -55l166 -672l352 672q27 55 86 55q33 0 50 -20q18 -21 18 -50q0 -28 -14 -53z" />
    <glyph glyph-name="afii10038" unicode="&#x424;" horiz-adv-x="1361" 
d="M618 274l134 910q-128 0 -222 -70q-95 -71 -116 -215l-45 -319q-7 -72 -7 -74q0 -114 72 -174q70 -58 184 -58zM924 1184l-131 -908q124 0 221 72q95 71 116 215l48 336q4 50 4 53q0 120 -74 176t-184 56zM590 51l2 74q-186 9 -295 104q-107 94 -107 252q0 31 5 66
l51 364q27 184 168 301q140 116 350 125l10 74q3 33 35 59q31 25 65 25t56 -25q21 -24 18 -59l-10 -74q186 -9 295 -104q108 -95 108 -252q0 -6 -4 -68l-51 -366q-27 -179 -166 -297q-137 -116 -350 -125l-10 -74q-3 -35 -33 -59q-31 -25 -63 -25q-34 0 -56 25
q-21 24 -18 59z" />
    <glyph glyph-name="afii10039" unicode="&#x425;" horiz-adv-x="1054" 
d="M774 41l-178 532l-320 -534q-38 -62 -94 -62q-34 0 -55 21t-21 51q0 29 23 62l397 639l-198 573q-6 21 -6 37q0 39 28 67q27 27 68 27q56 0 74 -55l155 -496l287 496q34 55 88 55q35 0 55 -20q21 -21 21 -56q0 -23 -15 -47l-364 -598l219 -620q6 -18 6 -37q0 -41 -24 -68
q-25 -28 -64 -28q-61 0 -82 61z" />
    <glyph glyph-name="afii10040" unicode="&#x426;" horiz-adv-x="1122" 
d="M174 80l193 1288q3 35 30 59q28 25 62 25q33 0 55 -25q21 -24 18 -59l-172 -1214h410l172 1214q3 34 31 59t61 25q34 0 56 -25q21 -24 18 -59l-172 -1212h37q34 0 55 -21q22 -22 19 -55l-46 -328q-3 -33 -30 -57q-28 -25 -62 -25q-33 0 -55 25q-21 24 -18 57l34 246h-628
q-35 0 -54 25q-17 23 -14 57z" />
    <glyph glyph-name="afii10041" unicode="&#x427;" horiz-adv-x="1024" 
d="M696 63l74 476q-96 -41 -246 -41q-133 0 -215 73q-84 75 -84 201q0 45 8 102l70 494q3 34 31 59t61 25q34 0 56 -25q21 -24 18 -59l-74 -522q-2 -10 -2 -43q0 -146 168 -146q59 0 117 15q59 15 86 30l29 15l92 653q3 36 30 60t62 24q34 0 55 -24q22 -25 19 -60
l-185 -1307q-3 -36 -32 -59q-30 -24 -64 -24t-55 24q-22 25 -19 59z" />
    <glyph glyph-name="afii10042" unicode="&#x428;" horiz-adv-x="1423" 
d="M1174 0h-912q-33 0 -55 25t-19 59l183 1286q3 36 30 60t62 24q34 0 55 -24q22 -25 19 -60l-172 -1212h284l172 1212q3 35 31 60q27 24 61 24q35 0 56 -24t18 -60l-172 -1212h295l172 1212q3 35 31 60q27 24 61 24q35 0 56 -24t18 -60l-182 -1286q-3 -34 -31 -59t-61 -25z
" />
    <glyph glyph-name="afii10043" unicode="&#x429;" horiz-adv-x="1464" 
d="M1214 0h-950q-33 0 -55 25t-19 59l183 1286q3 36 30 60t62 24q34 0 55 -24q22 -25 19 -60l-172 -1212h284l172 1212q3 35 31 60q27 24 61 24q35 0 56 -24t18 -60l-172 -1212h295l172 1212q3 35 31 60q27 24 61 24q35 0 56 -24t18 -60l-172 -1212h37q34 0 55 -21
q22 -22 19 -55l-46 -328q-3 -34 -32 -57q-31 -25 -64 -25q-34 0 -53 25q-17 23 -14 57z" />
    <glyph glyph-name="afii10044" unicode="&#x42a;" horiz-adv-x="1120" 
d="M889 317l31 205v4v11v16q0 50 -39 86q-40 37 -105 37h-270l-72 -514h271q71 0 122 45q53 47 62 110zM602 1354l-78 -523h279q127 0 205 -75q79 -76 79 -191l-4 -63l-24 -185q-18 -140 -119 -227q-104 -90 -254 -90h-371q-33 0 -53 23q-17 20 -14 55l168 1192h-150
q-31 0 -49 18t-18 49q0 40 26 66q29 29 68 29h242q33 0 53 -23q17 -20 14 -55z" />
    <glyph glyph-name="afii10045" unicode="&#x42b;" horiz-adv-x="1402" 
d="M580 0l-326 -4q-34 0 -55 24q-22 25 -19 60l182 1286q3 34 31 59t62 25q33 0 55 -25q21 -24 18 -59l-75 -535h229q140 0 219 -73q80 -74 80 -195q0 -11 -4 -61l-25 -185q-18 -141 -118 -227q-104 -90 -254 -90zM782 313l29 189q4 36 4 49q0 51 -41 86t-102 35h-236
l-71 -514h235q75 0 123 45q50 47 59 110zM1440 1368l-183 -1307q-3 -36 -32 -59q-31 -25 -68 -25q-33 0 -55 25t-19 59l185 1307q3 35 30 59q28 25 62 25t59 -25q24 -24 21 -59z" />
    <glyph glyph-name="afii10046" unicode="&#x42c;" horiz-adv-x="1044" 
d="M614 0l-360 -4q-34 0 -55 24q-22 25 -19 60l182 1286q3 34 31 59t62 25q33 0 55 -25q21 -24 18 -59l-75 -535h264q140 0 219 -73q80 -74 80 -195q0 -11 -4 -61l-25 -185q-18 -140 -119 -227q-104 -90 -254 -90zM817 313l29 189q4 36 4 49q0 51 -41 86t-102 35h-271
l-71 -514h270q75 0 123 45q50 47 59 110z" />
    <glyph glyph-name="afii10047" unicode="&#x42d;" horiz-adv-x="1034" 
d="M532 836l291 -7l35 244q2 12 2 39q0 76 -49 125t-135 49q-82 0 -144 -45q-64 -46 -88 -119q-27 -73 -98 -73q-35 0 -55 20q-21 21 -21 51q0 96 123 213t303 117q151 0 246 -92q94 -91 94 -232q0 -4 -0.5 -10.5l-1.5 -19.5t-2 -23l-100 -719q-21 -170 -137 -274
q-117 -105 -291 -105q-154 0 -258 93q-101 91 -101 227q0 44 25 86q23 39 74 39q35 0 55 -23q18 -21 18 -59q0 -92 50 -145q51 -54 143 -54q101 0 170 60q67 58 82 157l45 320h-301q-31 0 -49 18q-19 19 -19 47q0 41 27 68t67 27z" />
    <glyph glyph-name="afii10048" unicode="&#x42e;" horiz-adv-x="1443" 
d="M426 676l-90 -615q-3 -35 -29 -61q-25 -25 -63 -25q-34 0 -56 25q-21 24 -18 59l182 1307q3 36 31 61t68 25q33 0 55 -25q21 -24 18 -59l-78 -534h191l33 241q21 153 135 264t299 111q165 0 256 -94q92 -95 92 -230q0 -9 -4 -55l-96 -719q-21 -153 -135 -264t-299 -111
q-160 0 -254 97q-93 96 -93 231q0 31 7 66l40 305h-192zM1180 352l102 721v14v19q0 78 -51 129q-53 53 -144 53q-108 0 -174 -63q-67 -64 -79 -150l-99 -723l-2 -12v-25q0 -74 51 -125t148 -51q103 0 170 64q69 66 78 149z" />
    <glyph glyph-name="afii10049" unicode="&#x42f;" horiz-adv-x="1015" 
d="M463 1116l-41 -266q-2 -10 -2 -37q0 -53 41 -94q39 -39 98 -39h213l82 590h-213q-77 0 -123 -43t-55 -111zM686 61l59 451h-190l-270 -487q-30 -56 -92 -56q-35 0 -56 21q-20 20 -20 55q0 26 14 51l256 447q-147 71 -147 241q0 22 4 68l35 256q18 138 122 229
q107 93 252 93h314q33 0 53 -23q19 -22 16 -55l-180 -1291q-3 -35 -33 -59q-31 -25 -63 -25q-33 0 -55 25t-19 59z" />
    <glyph glyph-name="afii10065" unicode="&#x430;" horiz-adv-x="1013" 
d="M932 147v3q61 -15 61 -66q0 -35 -26 -61q-27 -27 -68 -27q-111 0 -166 108q-94 -116 -252 -116q-141 0 -231 90t-90 227q0 8 4 70l41 295q21 164 139 270q116 104 281 104q137 0 262 -51q76 -27 76 -84q0 -23 -2 -35l-87 -620q-4 -32 -4 -39q0 -53 62 -68zM510 127h6
q77 0 141 61q65 62 74 146l72 524q-62 41 -178 41q-102 0 -172 -61q-71 -62 -86 -162l-45 -328l-3 -6v-16v-19q0 -86 50 -133t141 -47z" />
    <glyph glyph-name="afii10066" unicode="&#x431;" horiz-adv-x="995" 
d="M524 125l-2 -6q97 0 158 55q63 57 78 152l45 323q2 10 2 37q0 77 -49 123q-50 47 -129 47q-100 0 -160 -57q-63 -60 -78 -160l-45 -307q-2 -10 -2 -37q0 -77 49 -123q50 -47 133 -47zM184 342l72 516q41 260 186 393q147 135 330 162q38 6 92 21q49 14 74 14q27 0 41 -14
q16 -16 16 -43q0 -59 -57 -82q-30 -15 -139 -33q-328 -58 -375 -373q15 15 27 25q22 18 81 43q67 28 136 28q124 0 206 -79q84 -81 84 -222q0 -5 -4 -59l-41 -315q-21 -154 -131 -252q-111 -99 -276 -99q-146 0 -236 90q-88 88 -88 222q0 43 2 57z" />
    <glyph glyph-name="afii10067" unicode="&#x432;" horiz-adv-x="1009" 
d="M541 -18l-2 -7q-149 0 -240 88q-92 89 -92 222q0 7 4 57l108 768q21 147 132 238q112 92 274 92q122 0 203 -66q80 -65 80 -164q0 -169 -140 -247l-110 -60q88 -12 151 -90q62 -77 62 -190q0 -14 -4 -68l-29 -221q-18 -151 -125 -252q-106 -100 -272 -100zM473 1096
l-41 -258q25 35 86 71l273 156q69 40 69 129q0 42 -37 76q-36 33 -100 33q-94 0 -168 -62q-73 -61 -82 -145zM545 115h-2q88 0 153 59t74 145l33 236q4 36 4 61q0 72 -49 121t-140 49q-81 0 -145 -61q-65 -62 -74 -143l-34 -256q-3 -18 -3 -37q0 -75 50 -125q49 -49 133 -49
z" />
    <glyph glyph-name="afii10068" unicode="&#x433;" horiz-adv-x="901" 
d="M588 1044h-2q137 0 219 -67q84 -69 84 -180q0 -101 -62 -172q-60 -69 -147 -107q-76 -33 -172 -67q-89 -31 -148 -76q-61 -46 -61 -113q0 -58 49 -98q48 -39 127 -39q149 0 219 141q34 64 82 64q30 0 49 -19t19 -47q0 -79 -101 -180q-100 -100 -278 -100q-137 0 -227 75
q-93 78 -93 191q0 105 60 180q59 74 141 111q71 32 170 67q88 31 146 74q59 44 59 109q0 49 -43 79q-45 31 -113 31q-64 0 -114 -35q-49 -34 -70 -80q-26 -63 -80 -63q-31 0 -49 18q-19 19 -19 47q0 79 103 168q101 88 252 88z" />
    <glyph glyph-name="afii10069" unicode="&#x434;" 
d="M377 690l-31 -217q-4 -36 -4 -61q0 -77 49 -123q48 -45 144 -45q77 0 141 61q65 62 74 141l57 414q-47 47 -189 47q-94 0 -161 -61q-68 -62 -80 -156zM680 -45l35 238q-34 -43 -78 -70l-264 -158q-66 -41 -66 -110q0 -44 37 -74q39 -31 100 -31q92 0 158 60t78 145z
M967 877l-133 -934q-18 -142 -129 -236q-110 -94 -277 -94q-126 0 -205 61q-80 62 -80 168q0 151 150 228l117 55q-104 9 -166 86t-62 197q0 13 4 67l31 234q18 140 135 239t275 99q132 0 266 -52q76 -27 76 -84q0 -22 -2 -34z" />
    <glyph glyph-name="afii10070" unicode="&#x435;" horiz-adv-x="940" 
d="M377 692l-31 -203l309 109q127 47 127 147q0 69 -45 111q-46 43 -125 43q-87 0 -155 -59t-80 -148zM489 -20l-6 -3q-145 0 -235 84q-88 82 -88 213q0 4 4 54l51 364q21 150 135 252q112 100 277 100q143 0 227 -81q86 -83 86 -199q0 -218 -250 -307l-362 -127
q-4 -32 -4 -35q0 -78 47 -125q45 -45 127 -45q166 0 213 147q21 64 82 64q30 0 49 -19q18 -18 18 -47q0 -90 -100 -190t-271 -100z" />
    <glyph glyph-name="afii10072" unicode="&#x436;" horiz-adv-x="1175" 
d="M772 465l-47 -10l-55 -406q-3 -33 -31 -55q-30 -23 -61 -23q-35 0 -54 25q-17 23 -14 57l57 406h-39l-319 -447q-26 -39 -74 -39q-26 0 -45 19q-18 18 -18 47q0 36 28 72l318 424l-191 372q-12 27 -12 43q0 36 23 62q21 24 59 24q44 0 61 -39l189 -389h43l49 350
q3 33 31 58q27 24 61 24t53 -22q20 -23 17 -55l-49 -351h41l292 389q29 39 74 39q31 0 49 -18q19 -19 19 -47q0 -33 -27 -68l-299 -379l197 -417q12 -27 12 -50q0 -31 -23 -57q-21 -24 -55 -24q-47 0 -65 40z" />
    <glyph glyph-name="afii10073" unicode="&#x437;" horiz-adv-x="923" 
d="M641 -47l33 225q-14 -20 -80 -61l-258 -152q-78 -47 -78 -123q0 -48 37 -75t104 -27q100 0 164 61q66 63 78 152zM555 395l-84 -2q-30 0 -49 19t-19 47q0 32 25 57t61 25h54q72 0 129 57q59 59 59 135q0 68 -43 117t-127 49q-65 0 -117 -37q-53 -38 -73 -82
q-26 -63 -80 -63q-31 0 -49 18q-19 19 -19 47q0 79 103 168q101 88 252 88q143 0 229 -86t86 -198q0 -180 -145 -275q39 -26 63 -76q25 -52 25 -102q0 -32 -7 -76l-38 -288q-18 -143 -129 -234q-112 -92 -269 -92q-129 0 -211 61t-82 168q0 145 160 234l361 202q17 10 36 25
q17 13 19 18l6 7v8q0 6 -6 18q-5 11 -19 21t-39 16q-27 6 -63 6z" />
    <glyph glyph-name="afii10074" unicode="&#x438;" horiz-adv-x="1003" 
d="M715 59l-4 56q-9 -15 -31 -37q-21 -20 -88 -55q-65 -33 -139 -33q-133 0 -207 80t-74 206q0 38 6 82l86 615q3 33 31 55q30 23 61 23q35 0 54 -25t16 -57l-84 -611q-6 -50 -6 -69q0 -66 41 -113q39 -45 121 -45q85 0 159 59t86 146l88 633q3 33 31 55q30 23 62 23
q34 0 53 -25t16 -57l-127 -906q-3 -33 -28 -55t-58 -22q-32 0 -51 22q-17 20 -14 55z" />
    <glyph glyph-name="afii10075" unicode="&#x439;" horiz-adv-x="1003" 
d="M668 1262l-2 -5q28 0 57 11q23 9 39 28q11 13 20 31q14 28 17 35q24 61 84 61q61 0 61 -63q0 -80 -76 -150q-75 -69 -204 -69q-124 0 -191 61t-67 131q0 44 24 68t59 24q59 0 68 -61q6 -102 111 -102zM713 55l-4 56q-9 -15 -31 -37q-23 -23 -88 -56q-63 -32 -139 -32
q-133 0 -207 80t-74 206q0 38 6 82l86 615q3 33 31 55q30 23 61 23q35 0 54 -25t16 -57l-84 -611q-6 -49 -6 -69q0 -66 41 -113q39 -45 121 -45q85 0 159 59t86 146l88 633q3 33 31 55t62 22q35 0 53 -24q19 -25 16 -57l-127 -906q-3 -33 -28 -55q-26 -23 -58 -23
q-31 0 -51 23q-17 20 -14 55z" />
    <glyph glyph-name="afii10076" unicode="&#x43a;" horiz-adv-x="888" 
d="M416 469h-51l-58 -410q-3 -33 -31 -55t-61 -22q-32 0 -51 22q-17 20 -14 55l126 908q3 33 31 55t62 22t53 -22t16 -55l-49 -351h51l363 390q35 38 74 38q29 0 47 -18t18 -47q0 -37 -33 -70l-358 -372l268 -422q19 -29 19 -52q0 -34 -25 -59q-24 -24 -57 -24q-47 0 -74 43
z" />
    <glyph glyph-name="afii10077" unicode="&#x43b;" horiz-adv-x="1011" 
d="M113 117l-4 2q100 15 135 133q71 259 147 694q6 33 31 55q26 23 59 23h451q33 0 53 -23q19 -22 16 -55l-124 -887q-3 -33 -31 -55t-62 -22q-32 0 -51 22q-17 20 -14 55l115 818h-310q-94 -506 -147 -682q-28 -97 -101 -152t-174 -55q-63 0 -63 55q0 59 74 74z" />
    <glyph glyph-name="afii10078" unicode="&#x43c;" horiz-adv-x="1128" 
d="M543 459l-140 327q-13 -126 -43 -350l-53 -379q-3 -33 -28 -55t-58 -22q-32 0 -51 22q-17 20 -14 55l129 901q3 36 30 60t64 24q40 0 61 -18q22 -19 37 -59l168 -408l283 408q26 39 53 59q24 18 72 18q36 0 55 -22t16 -55l-127 -906q-3 -33 -28 -55t-58 -22q-32 0 -51 22
q-17 20 -14 55l53 379q46 353 55 353l-239 -332q-41 -53 -92 -53q-56 0 -80 53z" />
    <glyph glyph-name="afii10079" unicode="&#x43d;" horiz-adv-x="1013" 
d="M1008 965l-131 -922q-3 -33 -31 -55q-30 -23 -62 -23q-34 0 -53 25q-17 23 -14 57l57 408h-407l-58 -408q-3 -34 -30 -55q-30 -23 -62 -23q-34 0 -53 25q-17 23 -14 57l126 905q3 33 31 58q27 24 62 24q34 0 53 -22t16 -55l-49 -351h408l49 351q3 32 31 57q27 24 61 24
t53 -22q20 -23 17 -55z" />
    <glyph glyph-name="afii10080" unicode="&#x43e;" horiz-adv-x="974" 
d="M621 1044v-2q149 0 237 -88q90 -90 90 -221q0 -7 -4 -57l-47 -348q-21 -154 -131 -252q-111 -99 -277 -99q-144 0 -235 91q-88 88 -88 221q0 7 4 57l47 348q21 153 129 252q107 98 275 98zM506 123h-2q98 0 158 57q61 58 73 150l51 360q2 12 2 37q0 77 -49 123
q-50 47 -133 47q-95 0 -155 -57q-62 -59 -74 -150l-51 -360q-2 -12 -2 -37q0 -77 49 -123q50 -47 133 -47z" />
    <glyph glyph-name="afii10081" unicode="&#x43f;" horiz-adv-x="1003" 
d="M432 965l-4 -60q9 15 31 37q18 18 90 55q68 35 139 35q133 0 207 -80t74 -204q0 -38 -6 -82l-86 -615q-3 -33 -31 -55q-30 -23 -62 -23q-34 0 -53 25q-17 23 -14 57l84 611q6 50 6 69q0 66 -41 113q-39 45 -121 45q-86 0 -160 -59t-86 -146l-88 -633q-3 -34 -30 -55
q-30 -23 -62 -23q-34 0 -53 25q-17 23 -14 57l127 906q3 33 28 55t60 22q32 0 51 -22q17 -20 14 -55z" />
    <glyph glyph-name="afii10082" unicode="&#x440;" horiz-adv-x="993" 
d="M758 332l47 356q4 36 4 49q0 72 -49 121t-131 49q-93 0 -156 -63q-64 -64 -76 -154l-47 -344q-2 -10 -2 -49q0 -66 51 -117t136 -51q93 0 151 55q60 57 72 148zM428 938v-4q12 16 27 31q19 19 80 49q62 30 131 30q138 0 221 -86q82 -85 82 -210q0 -16 -4 -62l-47 -354
q-21 -151 -130 -246q-110 -96 -251 -96q-74 0 -127 26q-52 25 -76 56l-21 26l-57 -405q-3 -32 -29 -55t-57 -23q-33 0 -55 25t-19 57l180 1278q3 32 29 55t60 23q65 0 65 -74z" />
    <glyph glyph-name="afii10083" unicode="&#x441;" horiz-adv-x="933" 
d="M623 1044l-5 -8q142 0 228 -86t86 -178q0 -40 -21 -67q-23 -29 -61 -29q-31 0 -49 18t-21 47q-3 66 -49 109t-123 43q-93 0 -153 -57q-62 -59 -74 -148l-51 -360q-2 -12 -2 -37q0 -84 49 -127t135 -43q162 0 215 164q21 63 82 63q31 0 49 -18q19 -19 19 -47
q0 -98 -105 -203t-276 -105q-147 0 -238 91q-90 90 -90 221q0 7 4 57l47 348q21 155 129 254q107 98 275 98z" />
    <glyph glyph-name="afii10084" unicode="&#x442;" horiz-adv-x="1435" 
d="M434 967l-10 -68q6 6 10 12q6 9 31 31q27 24 51 37q34 19 68 29q41 12 80 12q46 0 86 -12q38 -11 61 -31q24 -20 37 -39q18 -26 22 -33l7 -14q12 15 34 37q20 20 90 59q67 37 140 37q117 0 188 -74q72 -75 72 -196q0 -32 -6 -84l-88 -629q-3 -33 -31 -55q-30 -23 -62 -23
q-34 0 -53 25q-17 23 -14 57l92 657q2 8 2 37q0 70 -37 107t-98 37q-72 0 -135 -54q-61 -52 -70 -133l-90 -651q-3 -33 -31 -55q-30 -23 -61 -23q-34 0 -53 25q-18 24 -15 57l94 678q3 9 3 25q0 59 -37 96t-99 37q-71 0 -139 -62q-69 -63 -78 -131l-88 -639q-3 -33 -28 -55
q-26 -23 -58 -23q-34 0 -53 25q-17 23 -14 57l127 908q3 33 28 55t60 22q34 0 51 -20t14 -55z" />
    <glyph glyph-name="afii10085" unicode="&#x443;" 
d="M190 475l64 488q3 33 31 55t61 22q35 0 53 -24q20 -26 17 -58l-70 -493q-4 -36 -4 -62q0 -76 49 -122q48 -45 137 -45q84 0 148 61t76 147l73 521q3 33 31 55t62 22q35 0 53 -24q19 -25 16 -57l-145 -1024q-21 -146 -131 -236q-112 -92 -275 -92q-128 0 -207 61t-79 168
q0 157 157 234l107 51q-103 12 -166 90q-62 77 -62 195q0 13 4 67zM678 -49l37 235q-23 -30 -80 -67l-264 -158q-66 -41 -66 -111q0 -43 37 -73q39 -31 100 -31q93 0 158 59q66 60 78 146z" />
    <glyph glyph-name="afii10086" unicode="&#x444;" horiz-adv-x="1202" 
d="M336 365h-2v-13v-22v-23q0 -71 55 -117q54 -45 154 -45l102 734q-113 0 -184 -56q-70 -55 -82 -145zM1010 659l-4 -2q4 46 4 50q0 75 -56 122t-153 50l-103 -734q114 0 185 56q72 57 84 147zM676 -2l-43 -311q-3 -34 -31 -56t-61 -22q-36 0 -54 24q-17 23 -14 58l43 309
q-163 0 -258 86q-94 85 -94 223q0 6 4 56l39 303q21 156 141 258q118 100 307 100l47 350q3 34 31 56t62 22q35 0 53 -24q19 -25 16 -58l-47 -350q164 -3 258 -88t94 -217l-4 -60l-39 -301q-21 -157 -143 -258q-121 -100 -307 -100z" />
    <glyph glyph-name="afii10087" unicode="&#x445;" horiz-adv-x="868" 
d="M113 111l307 411l-187 391q-10 23 -10 50q0 32 25 57q24 24 59 24q44 0 64 -45l164 -350l249 359q23 36 70 36q29 0 47 -18q19 -19 19 -45q0 -33 -27 -68l-293 -399l191 -405q12 -27 12 -50q0 -32 -25 -57t-57 -25q-43 0 -64 46l-168 362l-272 -371q-27 -37 -70 -37
q-28 0 -47 19q-18 18 -18 45q0 28 31 70z" />
    <glyph glyph-name="afii10088" unicode="&#x446;" horiz-adv-x="1042" 
d="M791 -156l16 164h-31q-31 0 -51 23q-17 20 -14 55l2 27q-9 -15 -31 -37q-23 -23 -88 -56q-63 -32 -139 -32q-133 0 -207 80t-74 206q0 38 6 82l86 615q3 33 31 55q30 23 61 23q35 0 54 -25t16 -57l-84 -611q-6 -50 -6 -69q0 -66 41 -113q39 -45 121 -45q85 0 159 59
t86 146l89 633q3 34 30 55q28 22 62 22q35 0 53 -24q19 -25 16 -57l-114 -818h30q35 0 54 -22t16 -55l-33 -224q-3 -34 -30 -55q-28 -22 -62 -22q-32 0 -51 22q-17 20 -14 55z" />
    <glyph glyph-name="afii10089" unicode="&#x447;" 
d="M408 965l-52 -363q-4 -36 -4 -55q0 -127 133 -127q72 0 133 20t99 43l31 23l63 446q3 33 31 58q27 24 61 24t53 -22q20 -23 17 -56l-127 -905q-3 -33 -31 -55q-30 -23 -61 -23q-35 0 -54 25q-17 23 -14 57l43 301q-125 -73 -270 -73q-127 0 -197 67q-72 69 -72 176
q0 12 5 74l51 361q3 33 30 57t62 24q34 0 53 -22q20 -23 17 -55z" />
    <glyph glyph-name="afii10090" unicode="&#x448;" horiz-adv-x="1435" 
d="M1145 57l-2 60q-4 -4 -10 -13q-5 -7 -31 -30q-27 -24 -51 -37q-34 -19 -68 -29q-41 -12 -80 -12q-45 0 -86 12q-38 11 -61 31q-20 17 -37 41q-22 30 -23 33l-6 14q-16 -20 -33 -37q-20 -20 -90 -59q-67 -37 -139 -37q-117 0 -188 74q-72 75 -72 196q0 32 6 84l88 629
q3 33 31 55q30 23 61 23q35 0 54 -25t16 -57l-92 -658q-2 -8 -2 -36q0 -70 37 -107t98 -37q73 0 135 53q63 54 72 134l90 651q3 33 31 55q30 23 61 23q34 0 53 -25q20 -26 17 -57l-95 -678q-2 -6 -2 -25q0 -57 37 -94t99 -37q71 0 139 62q69 63 78 133l88 639q3 33 28 55
q26 23 60 23t53 -25t16 -57l-127 -908q-3 -33 -28 -55t-60 -22q-32 0 -51 22q-17 20 -14 55z" />
    <glyph glyph-name="afii10091" unicode="&#x449;" horiz-adv-x="1476" 
d="M926 965l-105 -672q-2 -6 -2 -25q0 -57 37 -94t98 -37q71 0 140 66q68 65 77 135l89 633q3 34 30 55q30 23 62 23q34 0 53 -25t16 -57l-114 -817h30q34 0 54 -23q19 -22 16 -55l-33 -224q-3 -33 -31 -55t-61 -22q-32 0 -51 22q-17 20 -14 55l22 156h-31q-31 0 -51 23
q-17 20 -14 55l2 27q-4 -4 -10 -13q-5 -7 -31 -30q-27 -24 -51 -37q-34 -19 -68 -29q-41 -12 -84 -12q-42 0 -80 12q-36 12 -59 31q-22 18 -37 37q-13 15 -20 30l-7 13q-3 -3 -14.5 -14t-19.5 -19q-19 -19 -93 -55q-67 -33 -141 -33q-118 0 -188 73q-72 75 -72 197
q0 31 6 84l88 629q3 33 31 55q30 23 61 23q35 0 54 -25t16 -57l-92 -658q-2 -8 -2 -37q0 -69 37 -106t98 -37q73 0 135 53q63 54 72 133l90 652q3 33 31 55q30 23 61 23q34 0 53 -25q20 -26 17 -57z" />
    <glyph glyph-name="afii10092" unicode="&#x44a;" horiz-adv-x="997" 
d="M582 127v-2q95 0 159 55q66 57 66 146q0 58 -37 98q-38 41 -108 41h-211l-23 -164q-6 -43 -6 -65q0 -53 43 -80q47 -29 117 -29zM516 948l-49 -338h217q137 0 207 -73q72 -75 72 -187q0 -159 -113 -266t-283 -107q-137 0 -223 68t-86 182q0 42 8 86l80 568h-156
q-26 0 -45 16q-18 15 -18 43q0 32 25 57t59 25h242q72 0 63 -74z" />
    <glyph glyph-name="afii10093" unicode="&#x44b;" horiz-adv-x="1259" 
d="M186 315l88 652q3 33 31 55t62 22q35 0 53 -24q19 -25 16 -57l-49 -351h217q137 0 207 -73q72 -75 72 -187q0 -159 -113 -266q-112 -106 -283 -106q-138 0 -223 67q-86 68 -86 182q0 42 8 86zM498 129v-2q95 0 159 55q66 57 66 146q0 58 -37 98q-38 41 -108 41h-211
l-23 -164q-6 -43 -6 -65q0 -53 43 -80q47 -29 117 -29zM965 59l125 897q3 34 30 58t62 24q34 0 53 -22t16 -55l-127 -906q-3 -34 -30 -55q-30 -23 -62 -23q-34 0 -53 25q-17 23 -14 57z" />
    <glyph glyph-name="afii10094" unicode="&#x44c;" horiz-adv-x="917" 
d="M186 315l88 652q3 33 31 55t62 22q35 0 53 -24q19 -25 16 -57l-49 -351h217q137 0 207 -73q72 -75 72 -187q0 -159 -113 -266q-112 -106 -283 -106q-138 0 -223 67q-86 68 -86 182q0 42 8 86zM498 129v-2q95 0 159 55q66 57 66 146q0 58 -37 98q-38 41 -108 41h-211
l-23 -164q-6 -43 -6 -65q0 -53 43 -80q47 -29 117 -29z" />
    <glyph glyph-name="afii10095" unicode="&#x44d;" horiz-adv-x="950" 
d="M606 1044h6q147 0 232 -88q86 -89 86 -221q0 -5 -4 -55l-47 -350q-21 -153 -129 -252q-107 -98 -271 -98q-155 0 -241 83t-86 173q0 40 18 67q19 29 59 29q28 0 47 -19q20 -20 23 -45q3 -63 53 -104t127 -41q97 0 158 55q63 57 78 154l16 125h-274q-31 0 -49 18
q-19 19 -19 45q0 35 25 60q24 24 65 24h277l12 88q2 6 2 37q0 77 -49 123q-50 47 -129 47q-140 0 -199 -117q-26 -57 -84 -57q-31 0 -49 18t-18 48q0 77 102 165q101 88 262 88z" />
    <glyph glyph-name="afii10096" unicode="&#x44e;" horiz-adv-x="1308" 
d="M852 125l2 -2q95 0 152 57q59 59 71 150l51 360q2 12 2 37q0 76 -47 123t-129 47q-95 0 -155 -57q-62 -59 -74 -150l-51 -360q-2 -12 -2 -37q0 -77 49 -123q48 -45 131 -45zM440 963l-49 -359h164l12 82q21 155 129 254q107 98 271 98q146 0 231 -88q86 -89 86 -221
q0 -7 -4 -57l-47 -348q-21 -154 -127 -254q-105 -99 -270 -99q-144 0 -234 90q-88 88 -88 222q0 7 4 57l17 119h-168l-56 -406q-3 -34 -30 -55q-30 -23 -62 -23q-34 0 -53 25q-17 23 -14 57l127 906q3 33 30 57t62 24t53 -24q19 -25 16 -57z" />
    <glyph glyph-name="afii10097" unicode="&#x44f;" horiz-adv-x="962" 
d="M530 512h205l51 371h-206q-109 0 -170 -64q-62 -65 -62 -153q0 -67 47 -111q46 -43 135 -43zM596 1024h289q34 0 53 -25t16 -57l-125 -885q-3 -33 -28 -55t-62 -22q-32 0 -51 22q-17 20 -14 55l43 310h-172l-260 -351q-29 -39 -76 -39q-28 0 -47 19t-19 47q0 35 29 72
l207 270q-80 23 -137 96q-56 71 -56 172q0 161 115 267q113 104 295 104z" />
    </font>
</defs>
</svg>
