<?xml version="1.0" standalone="no"?>
<!DOCTYPE svg PUBLIC "-//W3C//DTD SVG 1.1//EN" "http://www.w3.org/Graphics/SVG/1.1/DTD/svg11.dtd" >
<svg xmlns="http://www.w3.org/2000/svg" xmlns:xlink="http://www.w3.org/1999/xlink" version="1.1">
<metadata>
Created by FontForge 20170731 at Fri Nov 26 02:12:58 2021
 By Aleksey,,,
Copyright (c) 2015 by Ramiz Guseynov. All rights reserved.
</metadata>
<defs>
<font id="DecimaRound-Light" horiz-adv-x="960" >
  <font-face 
    font-family="Decima Round"
    font-weight="400"
    font-stretch="normal"
    units-per-em="2048"
    panose-1="2 0 5 6 0 0 0 2 0 4"
    ascent="1614"
    descent="-434"
    x-height="1024"
    cap-height="1434"
    bbox="-139 -434 1831 1839"
    underline-thickness="102"
    underline-position="-307"
    unicode-range="U+0020-FB04"
  />
<missing-glyph horiz-adv-x="430" 
 />
    <glyph glyph-name="f_f_j" unicode="ffj" horiz-adv-x="1468" 
d="M522 1348l-4 -2q-39 20 -86 20q-64 0 -106 -45q-43 -46 -43 -135v-164h430v156q0 125 67 198q68 74 176 74q84 0 134 -33q20 -14 20 -37q0 -16 -12 -28q-13 -13 -29 -13q-8 0 -22 7q-39 20 -86 20q-65 0 -107 -45q-43 -46 -43 -135v-164h449q49 0 49 -47v-1094
q0 -118 -70 -188q-72 -72 -174 -72q-79 0 -129 33q-23 13 -23 39q0 18 13 31q12 12 30 12q14 0 25 -8q38 -23 86 -23q65 0 104 45q41 47 41 123v1061h-401v-907q0 -22 -14 -33q-15 -12 -37 -12q-21 0 -33 12t-12 35v907h-430v-907q0 -21 -15 -33t-37 -12q-20 0 -32 12
q-13 13 -13 35v907h-114q-19 0 -31 12t-12 31t12 31t31 12h114v156q0 124 68 198t176 74q83 0 133 -33q21 -15 21 -37q0 -15 -13 -28t-28 -13q-9 0 -23 7zM1176 1253l-2 -4q0 36 24 60t59 24q34 0 58 -24t24 -58q0 -33 -24 -57q-25 -25 -58 -25q-32 0 -57 25q-24 24 -24 59z
" />
    <glyph glyph-name="f_j" unicode="fj" horiz-adv-x="942" 
d="M412 -344h-2q-23 13 -23 39q0 19 12 31t31 12q14 0 25 -8q38 -23 86 -23q65 0 104 45q41 47 41 123v1061h-401v-907q0 -21 -15 -33t-37 -12q-20 0 -32 12q-13 13 -13 35v907h-114q-19 0 -31 12t-12 31t12 31t31 12h114v156q0 124 68 198t176 74q83 0 133 -33
q21 -15 21 -37q0 -15 -13 -28t-28 -13q-9 0 -23 7q-39 20 -86 20q-64 0 -106 -45q-43 -46 -43 -135v-164h448q49 0 49 -47v-1094q0 -119 -69 -188q-72 -72 -174 -72q-79 0 -129 33zM651 1255l-4 -4q0 35 25 60q24 24 59 24q36 0 60 -24t24 -58q0 -33 -24 -57
q-25 -25 -58 -25q-32 0 -57 25t-25 59z" />
    <glyph glyph-name="f_f" unicode="ff" horiz-adv-x="1052" 
d="M1038 1348l-4 -5q-40 21 -86 21q-64 0 -106 -45q-43 -46 -43 -135v-164h188q19 0 31 -12t12 -31t-12 -31t-31 -12h-188v-907q0 -21 -15 -33t-36 -12t-33 12q-13 13 -13 35v907h-419v-907q0 -21 -15 -33t-37 -12q-20 0 -32 12q-13 13 -13 35v907h-114q-19 0 -31 12t-12 31
t12 31t31 12h114v156q0 124 68 198t176 74q83 0 133 -33q21 -15 21 -37q0 -15 -13 -28t-28 -13q-9 0 -23 7q-39 20 -86 20q-64 0 -106 -45q-43 -46 -43 -135v-164h420v156q0 125 67 198q68 74 176 74q83 0 133 -33q21 -15 21 -37q0 -16 -12 -28q-13 -13 -29 -13q-9 0 -23 7z
" />
    <glyph glyph-name="fi" unicode="fi" horiz-adv-x="940" 
d="M782 977l2 -950q0 -22 -14 -33q-15 -12 -37 -12t-37 12q-14 11 -14 35v907h-397v-907q0 -21 -15 -33t-37 -12q-20 0 -32 12q-13 13 -13 35v907h-114q-19 0 -31 12t-12 31t12 31t31 12h114v156q0 124 68 198t176 74q83 0 133 -33q21 -15 21 -37q0 -15 -13 -28t-28 -13
q-9 0 -23 7q-39 20 -86 20q-64 0 -106 -45q-43 -46 -43 -135v-164h442q53 0 53 -47zM653 1251l-2 -4q0 35 25 60q24 24 59 24q34 0 58 -24t24 -58q0 -33 -24 -57q-25 -25 -58 -25q-32 0 -57 25t-25 59z" />
    <glyph glyph-name="fl" unicode="fl" horiz-adv-x="911" 
d="M768 1403v-1376q0 -22 -14 -33q-15 -12 -37 -12t-37 12q-14 11 -14 35v1306q-95 31 -222 31q-71 0 -116 -45t-45 -135v-164h188q19 0 31 -12t12 -31t-12 -31t-31 -12h-188v-907q0 -21 -15 -33t-37 -12q-20 0 -32 12q-13 13 -13 35v907h-114q-19 0 -31 12t-12 31t12 31
t31 12h114v156q0 126 70 196q72 72 190 72q93 0 222 -29q16 29 49 29q22 0 37 -12q14 -11 14 -33z" />
    <glyph glyph-name="f_f_i" unicode="ffi" horiz-adv-x="1466" 
d="M522 1348v-7q-41 21 -86 21q-64 0 -106 -45q-43 -46 -43 -135v-164h415v156q0 124 68 198t176 74q83 0 133 -33q21 -15 21 -37q0 -15 -13 -28t-28 -13q-11 0 -23 6q-40 21 -86 21q-64 0 -106 -45q-43 -46 -43 -135v-164h442q53 0 53 -47v-946q0 -22 -14 -33
q-15 -12 -37 -12t-37 12q-14 11 -14 35v907h-397v-907q0 -21 -15 -33t-37 -12q-20 0 -32 12q-13 13 -13 35v907h-415v-907q0 -21 -15 -33t-37 -12q-20 0 -32 12q-13 13 -13 35v907h-114q-19 0 -31 12t-12 31t12 31t31 12h114v156q0 124 68 198t176 74q83 0 133 -33
q21 -15 21 -37q0 -15 -13 -28t-28 -13q-9 0 -23 7zM1163 1249l-2 -4q0 35 25 60q24 24 59 24q34 0 58 -24t24 -58q0 -33 -24 -57q-25 -25 -58 -25q-32 0 -57 25t-25 59z" />
    <glyph glyph-name="f_f_l" unicode="ffl" horiz-adv-x="1437" 
d="M522 1348l-2 -7q-41 21 -86 21q-64 0 -106 -45q-43 -46 -43 -135v-164h430v156q0 127 69 196q72 72 191 72q92 0 221 -29q16 29 49 29q22 0 37 -12q14 -11 14 -33v-1372q0 -22 -14 -33q-15 -12 -37 -12t-37 12q-14 11 -14 35v1306q-95 31 -221 31q-72 0 -117 -45
t-45 -135v-164h188q19 0 31 -12t12 -31t-12 -31t-31 -12h-188v-907q0 -22 -14 -33q-15 -12 -37 -12q-21 0 -33 12t-12 35v907h-430v-907q0 -21 -15 -33t-37 -12q-20 0 -32 12q-13 13 -13 35v907h-114q-19 0 -31 12t-12 31t12 31t31 12h114v156q0 124 68 198t176 74
q83 0 133 -33q21 -15 21 -37q0 -15 -13 -28t-28 -13q-9 0 -23 7z" />
    <glyph glyph-name=".notdef" horiz-adv-x="430" 
 />
    <glyph glyph-name=".null" horiz-adv-x="0" 
 />
    <glyph glyph-name="nonmarkingreturn" horiz-adv-x="681" 
 />
    <glyph glyph-name="space" unicode=" " horiz-adv-x="430" 
 />
    <glyph glyph-name="exclam" unicode="!" horiz-adv-x="471" 
d="M270 0h-69q-15 0 -25 10t-10 25v69q0 15 10 25t25 10h69q15 0 25 -10t10 -25v-69q0 -15 -10 -25t-25 -10zM287 1397v-1061q0 -20 -17 -37q-14 -14 -37 -14q-20 0 -36 16q-17 17 -17 37v1059q0 20 17 37q16 16 36 16q21 0 37 -16q17 -17 17 -37z" />
    <glyph glyph-name="quotedbl" unicode="&#x22;" horiz-adv-x="690" 
d="M276 1378l-20 -362q0 -45 -41 -45q-40 0 -43 45l-22 362q-3 30 16 52q17 20 47 20t47 -20q19 -22 16 -52zM549 1378l-21 -362q0 -45 -41 -45q-40 0 -43 45l-22 362q-3 30 16 52q17 20 47 20t47 -20q20 -23 17 -52z" />
    <glyph glyph-name="numbersign" unicode="#" horiz-adv-x="1073" 
d="M913 420h-168l-55 -395q-6 -41 -47 -41q-23 0 -35 12t-12 31v8l53 383h-305l-55 -395q-6 -41 -47 -41q-23 0 -35 12t-12 31v8l53 383h-152q-18 0 -30 12q-13 13 -13 31q0 17 13 30t30 13h164l62 424h-156q-19 0 -31 12t-12 31q0 18 12 30q13 13 31 13h168l55 385
q6 39 47 39q22 0 35 -13q12 -12 12 -30v-9l-53 -370h305l56 385q6 39 47 39q21 0 34 -13t13 -30v-9l-54 -370h152q19 0 31 -12t12 -31t-12 -31t-31 -12h-164l-61 -424h155q19 0 31 -12t12 -31t-12 -31t-31 -12zM416 934l-62 -424h305l62 424h-305z" />
    <glyph glyph-name="dollar" unicode="$" horiz-adv-x="1073" 
d="M158 352l2 -6q0 21 16 37t37 16t37 -16t16 -37q0 -109 78 -184q77 -74 197 -74q118 0 196 72q76 70 76 182q0 82 -35 147q-34 65 -90 105q-51 37 -123 74q-22 11 -67 33t-68 34q-68 35 -123 78t-90 111t-35 155q0 138 88 232q89 95 222 110v99q0 23 14 34q16 13 37 13
t37 -13q14 -11 14 -32v-99q140 -15 223 -114q82 -98 82 -197q0 -23 -14 -37t-37 -14q-22 0 -37 12t-18 31q-9 96 -80 164q-70 67 -172 67q-105 0 -179 -71q-73 -70 -73 -177q0 -70 35 -126q34 -55 90 -93q37 -25 123 -69q112 -57 135 -70q68 -37 123 -84q56 -47 90 -119
q35 -75 35 -170q0 -137 -93 -241q-92 -102 -235 -117v-100q0 -22 -14 -33q-15 -12 -37 -12t-37 12t-15 35v100q-147 15 -239 115t-92 237z" />
    <glyph glyph-name="percent" unicode="%" horiz-adv-x="1366" 
d="M535 1255v-393q0 -81 -64 -139q-65 -59 -154 -59q-91 0 -153 59t-62 139v393q0 81 62 140t153 59q89 0 154 -59q64 -58 64 -140zM440 870l-4 373q0 56 -33 92q-34 37 -92 37q-54 0 -88 -37q-33 -36 -33 -92v-373q0 -54 33 -90q34 -37 92 -37q59 0 93 37q32 35 32 90z
M1260 575v-393q0 -81 -64 -139q-65 -59 -154 -59q-91 0 -153 59t-62 139v393q0 81 62 140t153 59q89 0 154 -59q64 -58 64 -140zM1165 190l-4 373q0 56 -33 92q-34 37 -92 37q-54 0 -88 -37q-33 -36 -33 -92v-373q0 -54 33 -90q34 -37 92 -37q59 0 93 37q32 35 32 90z
M301 39l696 1388q9 19 31 19q37 0 37 -35q0 -12 -8 -25l-697 -1388q-9 -18 -30 -18q-37 0 -37 34q0 12 8 25z" />
    <glyph glyph-name="ampersand" unicode="&#x26;" horiz-adv-x="1091" 
d="M508 80l-2 4q115 0 184 72q68 71 68 184v373h-291q-103 0 -162 -62q-57 -60 -57 -155v-156q0 -112 71 -186t189 -74zM1012 713l-150 6v-369q0 -153 -98 -254q-97 -100 -254 -100q-161 0 -266 102t-105 252v168q0 45 17 98q15 45 37 74q21 27 43 49q24 24 36 31l15 8
l-15 10q-3 2 -32 31q-25 25 -43 55q-18 29 -33 80q-14 46 -14 103v49q0 150 102 252t258 102q165 0 256 -98q92 -100 92 -193q0 -22 -14 -36q-15 -15 -37 -15t-37 12t-18 31q-9 92 -74 148q-64 55 -168 55q-113 0 -184 -74q-70 -73 -70 -184v-47q0 -92 55 -168t172 -76h529
q23 0 37 -14t14 -37t-14 -37t-37 -14z" />
    <glyph glyph-name="quotesingle" unicode="'" horiz-adv-x="421" 
d="M276 1378l-20 -362q0 -45 -41 -45q-40 0 -43 45l-22 362q-3 30 16 52q17 20 47 20t47 -20q19 -22 16 -52z" />
    <glyph glyph-name="parenleft" unicode="(" horiz-adv-x="608" 
d="M164 -41l-8 1153q0 154 96 258q95 103 237 103q22 0 37 -15t15 -37t-15 -37q-14 -14 -37 -14q-106 -3 -165 -74q-58 -70 -58 -190v-1141q0 -118 60 -190q59 -71 166 -74q22 0 36 -14q17 -17 17 -37q0 -22 -15 -37q-14 -14 -36 -14q-142 0 -236 102q-94 101 -94 258z" />
    <glyph glyph-name="parenright" unicode=")" horiz-adv-x="608" 
d="M444 1104l-6 -1159q0 -157 -94 -258t-235 -101q-22 0 -37 15t-15 37q0 21 15 36q17 17 37 17q107 3 165 73q60 72 60 191v1141q0 120 -58 190q-59 71 -165 74q-23 0 -37 14q-15 15 -15 37t15 37q14 14 37 14q144 0 237 -100q96 -104 96 -258z" />
    <glyph glyph-name="asterisk" unicode="*" horiz-adv-x="694" 
d="M184 1327l133 -59l-10 145q0 43 39 43t39 -43l-12 -145l137 53q12 4 18 4q17 0 29 -12t12 -27q0 -34 -30 -37l-142 -37l90 -110q13 -13 13 -27q0 -39 -39 -39q-21 0 -33 21l-78 125l-78 -123q-9 -21 -36 -21q-14 0 -27 13q-12 12 -12 28q0 13 12 25l92 110l-139 37
q-33 6 -33 39q0 17 12 29t27 12z" />
    <glyph glyph-name="plus" unicode="+" horiz-adv-x="1155" 
d="M160 623l364 -9v371q0 23 15 35t36 12q22 0 37 -12t15 -33v-371h368q23 0 35 -12t12 -33q0 -20 -12 -32q-13 -13 -33 -13h-368v-370q0 -21 -15 -33t-36 -12q-22 0 -37 12t-15 35v370h-368q-20 0 -33 13q-12 12 -12 34q0 23 12 35q13 13 35 13z" />
    <glyph glyph-name="comma" unicode="," horiz-adv-x="411" 
d="M141 -190l58 192h-27q-14 0 -27 10q-12 9 -12 25v69q0 16 12 25q13 10 27 10h72q14 0 24 -10q11 -11 11 -25v-69q0 -26 -11 -68l-61 -188q-9 -31 -37 -31q-35 0 -35 33q0 9 6 27z" />
    <glyph glyph-name="hyphen" unicode="-" horiz-adv-x="722" 
d="M160 643h399q24 0 35 -14q12 -15 12 -37t-12 -37q-11 -14 -33 -14h-403q-22 0 -33 14q-12 15 -12 37t12 37q11 14 35 14z" />
    <glyph glyph-name="period" unicode="." horiz-adv-x="409" 
d="M240 0h-70q-14 0 -27 10q-12 9 -12 25v69q0 16 12 25q13 10 27 10h70q13 0 26 -10t13 -25v-69q0 -15 -13 -25t-26 -10z" />
    <glyph glyph-name="slash" unicode="/" horiz-adv-x="698" 
d="M41 53l528 1364q9 31 43 31q23 0 35 -12t12 -33q0 -3 -4 -23l-530 -1366q-9 -30 -43 -30q-21 0 -33 12t-12 35q0 2 4 22z" />
    <glyph glyph-name="zero" unicode="0" horiz-adv-x="1073" 
d="M887 1087l-4 -743q0 -152 -101 -256t-247 -104q-150 0 -250 106q-103 109 -103 258v739q0 150 103 256q102 105 250 105q147 0 249 -105q103 -106 103 -256zM778 342l-2 737q0 111 -71 191t-173 80q-106 0 -178 -78q-69 -75 -69 -191v-739q0 -113 71 -190q70 -76 179 -76
q100 0 172 78q71 77 71 188z" />
    <glyph glyph-name="one" unicode="1" horiz-adv-x="1073" 
d="M528 1333l-209 -53q-4 -2 -16 -2q-21 0 -33 12t-12 35q0 34 33 43l192 55q42 11 64 11h31q53 0 53 -52v-1284h239q24 0 35 -14q13 -16 13 -37t-13 -37q-11 -14 -33 -14h-598q-21 0 -32 14q-13 16 -13 37t13 37q11 14 34 14h252v1235z" />
    <glyph glyph-name="two" unicode="2" horiz-adv-x="1073" 
d="M874 0l-665 -2q-22 0 -33 14q-12 15 -12 37v74q0 112 47 215q45 99 117 168q80 77 153 139q75 64 154 133q71 62 117 144q47 83 47 172q0 114 -74 188t-180 74q-101 0 -172 -68t-86 -168q-3 -17 -19 -30t-32 -13q-20 0 -37 17q-15 15 -15 36q0 108 99 216t262 108
q152 0 256 -104t104 -258q0 -103 -47 -195q-46 -91 -117 -156t-153 -135q-75 -64 -154 -133q-71 -62 -117 -149q-47 -89 -47 -185v-37h602q24 0 35 -14q13 -16 13 -37t-13 -37q-11 -14 -33 -14z" />
    <glyph glyph-name="three" unicode="3" horiz-adv-x="1073" 
d="M850 1303l-268 -365q137 -3 227 -100q92 -100 92 -248v-246q0 -153 -106 -256q-107 -104 -265 -104t-260 102q-100 100 -100 227q0 21 16 37q17 17 37 17q46 0 49 -48q6 -89 74 -163t182 -74q117 0 191 74t74 188v238q0 128 -74 196t-191 68h-16q-23 0 -35 12t-12 35v35
q0 25 16 51l264 358h-466q-22 0 -37 15t-15 37t15 34q16 13 37 13h534q22 0 37 -15q14 -14 14 -37v-34q0 -33 -14 -47z" />
    <glyph glyph-name="four" unicode="4" horiz-adv-x="1073" 
d="M162 479l432 944q16 31 49 31q23 0 37 -14t14 -37q0 -11 -4 -23l-444 -952h446v350q0 20 17 37q16 16 36 16q23 0 37 -14q17 -17 17 -37v-350h94q24 0 35 -14q12 -15 12 -37t-12 -37q-11 -14 -33 -14h-94v-291q0 -22 -15 -37q-16 -16 -36 -16q-21 0 -37 16q-15 15 -15 37
v291h-501q-21 0 -37 16q-15 15 -15 37v35q0 24 17 63z" />
    <glyph glyph-name="five" unicode="5" horiz-adv-x="1073" 
d="M225 834l43 548q3 50 49 50h502q21 0 37 -13q14 -11 14 -35q0 -21 -12 -36t-35 -15h-450l-39 -461q17 17 26 23q23 15 78 35q61 22 123 22q150 0 248 -104t98 -266v-234q0 -155 -106 -258q-107 -104 -264 -104q-165 0 -265 100t-100 227q0 21 16 37q17 17 37 17
q46 0 49 -48q6 -90 76 -163q71 -74 187 -74q114 0 188 74t74 190v234q0 118 -72 196t-184 78q-122 0 -205 -92q-22 -25 -51 -25q-26 0 -45 19t-19 47q0 21 2 31z" />
    <glyph glyph-name="six" unicode="6" horiz-adv-x="1073" 
d="M549 852l2 -2q-112 0 -189 -74t-77 -192v-246q0 -111 73 -184q74 -74 185 -74q115 0 188 76q74 77 74 186v244q0 118 -74 192t-182 74zM543 1352l2 -6q-115 0 -185 -76q-71 -77 -71 -191v-278l10 16q4 6 31 33q23 23 53 43q26 17 78 33q46 14 102 14q147 0 252 -102
t105 -256v-244q0 -152 -107 -256q-108 -105 -264 -105t-264 105q-107 104 -107 256v747q0 151 105 256t266 105q157 0 250 -96q92 -95 92 -191q0 -23 -14 -37t-37 -14q-47 0 -56 45q-18 93 -88 145q-73 54 -153 54z" />
    <glyph glyph-name="seven" unicode="7" horiz-adv-x="1073" 
d="M391 37l-10 -2q0 152 63 350q59 186 140 369q88 199 139 331q63 163 63 248h-589q-22 0 -37 15t-15 36q0 23 15 35q16 13 37 13h639q53 0 53 -50v-63q0 -75 -62 -246q-59 -163 -135 -338q-75 -172 -135 -368q-61 -198 -61 -332q0 -22 -15 -37q-14 -14 -37 -14
q-20 0 -36 16q-17 17 -17 37z" />
    <glyph glyph-name="eight" unicode="8" horiz-adv-x="1073" 
d="M885 1114l6 -57q0 -51 -17 -111q-15 -53 -38 -86q-16 -23 -50 -57q-26 -25 -38 -33l-17 -10q3 -1 21 -10q9 -5 43 -35q32 -29 55 -62q27 -39 43 -88q18 -55 18 -116v-103q0 -151 -106 -254q-107 -104 -264 -104q-163 0 -267 104t-104 256v101q0 63 18 118q16 49 48 90
q29 37 55 60q31 28 45 37l20 10q-1 1 -7 4.5t-11 5.5q-9 5 -39 31q-28 25 -49 55q-20 29 -39 84q-18 52 -18 111v59q0 146 98 240q101 96 250 96q144 0 245 -96q99 -94 99 -240zM803 344l-2 100q0 112 -74 189q-75 78 -184 78q-110 0 -183 -76t-73 -186v-101q0 -110 73 -186
t187 -76q108 0 182 74t74 184zM784 1053l-4 55q0 108 -67 178q-69 72 -174 72q-102 0 -172 -70t-70 -178v-53q0 -100 68 -174t178 -74q107 0 174 70t67 174z" />
    <glyph glyph-name="nine" unicode="9" horiz-adv-x="1073" 
d="M524 582l-4 2q113 0 189 73q77 74 77 193v246q0 111 -73 184q-74 74 -185 74q-113 0 -186 -76q-74 -77 -74 -186v-244q0 -119 74 -193q73 -73 182 -73zM528 82l-8 -2q113 0 185 78q71 77 71 190v279l-10 -15q-2 -3 -31 -32q-23 -23 -53 -43q-27 -18 -76 -33
q-50 -15 -100 -15q-146 0 -252 103q-104 101 -104 256v244q0 153 106 256q107 104 264 104t264 -104t107 -254v-748q0 -151 -105 -256q-104 -104 -266 -104q-157 0 -250 96q-92 95 -92 190q0 20 17 37t36 17q47 0 56 -45q19 -94 88 -146q71 -53 153 -53z" />
    <glyph glyph-name="colon" unicode=":" horiz-adv-x="409" 
d="M240 827h-70q-12 0 -27 11q-12 9 -12 24v70q0 15 12 24q15 11 27 11h70q11 0 26 -11q13 -10 13 -24v-70q0 -14 -13 -24q-15 -11 -26 -11zM240 0h-70q-14 0 -27 10q-12 9 -12 25v69q0 16 12 25q13 10 27 10h70q13 0 26 -10t13 -25v-69q0 -15 -13 -25t-26 -10z" />
    <glyph glyph-name="semicolon" unicode=";" horiz-adv-x="409" 
d="M240 827h-70q-12 0 -27 11q-12 9 -12 24v70q0 15 12 24q15 11 27 11h70q11 0 26 -11q13 -10 13 -24v-70q0 -14 -13 -24q-15 -11 -26 -11zM141 -190l58 192h-27q-14 0 -27 10q-12 9 -12 25v69q0 16 12 25q13 10 27 10h72q14 0 24 -10q11 -11 11 -25v-69q0 -26 -11 -68
l-61 -188q-9 -31 -37 -31q-35 0 -35 33q0 9 6 27z" />
    <glyph glyph-name="less" unicode="&#x3c;" horiz-adv-x="1114" 
d="M936 164l-791 352q-34 15 -34 55q0 37 34 52l787 362q16 4 20 4q23 0 35 -12t12 -33q0 -33 -30 -45l-719 -326l721 -323q28 -12 28 -45q0 -21 -12 -33t-33 -12q-2 0 -18 4z" />
    <glyph glyph-name="equal" unicode="=" horiz-adv-x="1112" 
d="M160 469l788 -4q23 0 35 -12t12 -33t-12 -33t-33 -12h-792q-21 0 -33 12t-12 35t12 35t35 12zM156 782l788 -4q23 0 35 -12t12 -33t-12 -33t-33 -12h-792q-21 0 -33 12t-12 35t12 35t35 12z" />
    <glyph glyph-name="greater" unicode="&#x3e;" horiz-adv-x="1114" 
d="M967 518l-791 -356q-16 -4 -18 -4q-21 0 -33 12t-12 35q0 33 28 45l721 323l-719 326q-30 12 -30 45q0 23 12 35t35 12q4 0 20 -4l787 -362q34 -15 34 -52q0 -40 -34 -55z" />
    <glyph glyph-name="question" unicode="?" horiz-adv-x="911" 
d="M453 0h-70q-14 0 -27 10q-12 9 -12 25v69q0 16 12 25q13 10 27 10h70q13 0 26 -10t13 -25v-69q0 -15 -13 -25t-26 -10zM365 336l6 -10q0 116 35 209q35 94 83 153q49 62 99 117t84 129q35 75 35 162q0 105 -76 178q-77 74 -185 74q-100 0 -172 -66q-70 -64 -79 -160
q-3 -17 -19 -30t-37 -13q-20 0 -37 17q-14 14 -14 37q0 106 96 213q94 104 258 104q156 0 260 -98q105 -99 105 -260q0 -93 -35 -174q-36 -83 -86 -136q-50 -52 -100 -112q-50 -58 -84 -144q-35 -87 -35 -192q0 -23 -14 -37t-37 -14q-21 0 -37 16q-14 14 -14 37z" />
    <glyph glyph-name="at" unicode="@" horiz-adv-x="1271" 
d="M1032 33l-4 80q-1 -2 -2.5 -4t-4 -5.5t-3.5 -5.5q-2 -3 -29 -30q-19 -19 -49 -39q-28 -18 -70 -33q-41 -14 -90 -14q-149 0 -245 90q-95 89 -95 221v407q0 134 95 226t245 92q76 0 140 -31q61 -30 86 -61l24 -31v72q0 161 -115 276q-113 113 -280 113q-170 0 -283 -113
q-114 -114 -114 -276v-858q0 -164 108 -275q107 -110 277 -110q21 0 34 -13t13 -33q0 -47 -62 -47q-193 0 -329 136t-136 344v858q0 200 144 338q145 139 352 139q206 0 348 -139q141 -138 141 -338v-938q0 -21 -12 -33t-33 -12t-36 12t-15 35zM537 688l-2 -385
q0 -101 65 -172q64 -70 178 -70q101 0 176 72q74 71 74 170v381q0 98 -74 172t-174 74q-116 0 -180 -70q-63 -69 -63 -172z" />
    <glyph glyph-name="A" unicode="A" horiz-adv-x="1019" 
d="M764 588l-221 747h-66l-221 -747h508zM625 1397l241 -789q15 -52 15 -86v-485q0 -20 -17 -37q-16 -16 -37 -16q-20 0 -36 16q-17 17 -17 37v452h-520v-452q0 -21 -16 -37t-37 -16t-37 16q-17 17 -17 37v485q0 34 15 86l237 789q9 37 50 37h126q41 0 50 -37z" />
    <glyph glyph-name="B" unicode="B" horiz-adv-x="972" 
d="M508 0l-297 -2q-23 0 -37 14t-14 37v1335q0 23 14 37q15 15 37 15h299q137 0 223 -86t86 -215v-119q0 -51 -14 -94q-15 -45 -37 -74q-23 -30 -45 -49q-28 -24 -39 -31l-16 -10q1 -1 7 -4.5t11 -5.5q11 -6 43 -31q31 -25 53 -53q24 -31 41 -78q19 -52 19 -105v-155
q0 -142 -99 -234q-100 -92 -235 -92zM516 1329l-248 -2v-528h248q87 0 146 59t59 148v118q0 91 -57 148t-148 57zM268 705l4 -613h238q101 0 164 66q61 64 61 164v155q0 81 -61 154q-62 74 -172 74h-234z" />
    <glyph glyph-name="C" unicode="C" horiz-adv-x="976" 
d="M512 -16v-9q-156 0 -264 105q-107 104 -107 254v756q0 149 105 251q106 103 262 103q164 0 258 -105q94 -104 94 -211q0 -22 -14 -36q-15 -15 -37 -15q-21 0 -37 13q-15 12 -18 30q-9 96 -80 164t-172 68q-112 0 -185 -76t-73 -186v-752q0 -109 75 -184q76 -76 185 -76
t178 63q71 65 80 166q3 19 18 31t37 12q23 0 37 -14q16 -16 16 -37q0 -107 -98 -211t-260 -104z" />
    <glyph glyph-name="D" unicode="D" horiz-adv-x="1017" 
d="M514 0l-301 -2q-23 0 -37 14t-14 37v1335q0 23 14 37q15 15 37 15h301q153 0 258 -105t105 -258v-713q0 -151 -105 -256q-104 -104 -258 -104zM768 354v713q0 112 -74 186t-186 74h-238v-1233h238q112 0 186 74t74 186z" />
    <glyph glyph-name="E" unicode="E" horiz-adv-x="907" 
d="M213 1434l557 8q22 0 37 -15q14 -14 14 -36q0 -23 -14 -37q-15 -15 -37 -15h-500v-528h451q23 0 37 -14t14 -37t-14 -37t-37 -14h-451v-611h516q23 0 37 -14q15 -15 15 -37t-15 -37q-14 -14 -37 -14h-573q-23 0 -37 14t-14 37v1335q0 23 14 37q15 15 37 15z" />
    <glyph glyph-name="F" unicode="F" horiz-adv-x="878" 
d="M164 37l-2 1354q0 22 14 36q15 15 37 15h557q22 0 37 -15q14 -14 14 -36q0 -23 -14 -37q-15 -15 -37 -15h-500v-528h451q23 0 37 -14t14 -37t-14 -37t-37 -14h-451v-672q0 -21 -16 -37t-37 -16t-37 16t-16 37z" />
    <glyph glyph-name="G" unicode="G" horiz-adv-x="1032" 
d="M899 653v-321q0 -151 -104 -252q-103 -100 -271 -100t-276 102q-107 101 -107 252v756q0 150 107 251q109 103 276 103q163 0 262 -105t99 -211q0 -21 -15 -36t-36 -15t-37 13t-19 30q-9 96 -80 164t-178 68q-120 0 -196 -76t-76 -186v-756q0 -111 76 -184
q77 -74 198 -74t195 74t74 184v268h-168q-23 0 -37 14q-15 15 -15 37t15 37t37 15h225q22 0 37 -15q14 -14 14 -37z" />
    <glyph glyph-name="H" unicode="H" horiz-adv-x="1077" 
d="M911 1397l-8 -1360q0 -23 -14 -37q-16 -16 -37 -16t-37 16q-14 14 -14 37v672h-533v-672q0 -23 -14 -37q-16 -16 -37 -16t-37 16q-14 14 -14 37v1360q0 21 16 37t37 16t37 -16t16 -37v-592h533v592q0 21 16 37t37 16t37 -16t16 -37z" />
    <glyph glyph-name="I" unicode="I" horiz-adv-x="434" 
d="M270 1397v-1360q0 -21 -16 -37t-37 -16t-37 16t-16 37v1360q0 21 16 37t37 16t37 -16t16 -37z" />
    <glyph glyph-name="J" unicode="J" horiz-adv-x="868" 
d="M199 469l2 -180q0 -95 59 -154q57 -57 141 -57q89 0 148 59t59 154v1104q0 20 17 37q16 16 37 16q20 0 36 -16q17 -17 17 -37v-1106q0 -132 -90 -219q-89 -86 -222 -86q-132 0 -221 86q-90 87 -90 219v178q0 20 17 37q16 16 36 16q23 0 37 -14q17 -17 17 -37z" />
    <glyph glyph-name="K" unicode="K" horiz-adv-x="940" 
d="M801 4l-537 737v-710q0 -23 -14 -37q-17 -17 -37 -17t-37 17q-14 14 -14 37v1360q0 20 16 36q17 17 37 17t37 -17q16 -16 16 -36v-627l510 659q16 19 37 19q23 0 35 -12t12 -33q0 -17 -8 -25l-477 -608l508 -705q8 -8 8 -24q0 -23 -14 -37t-37 -14q-27 0 -41 20z" />
    <glyph glyph-name="L" unicode="L" horiz-adv-x="776" 
d="M707 0l-490 4q-21 0 -37 16t-16 37v1344q0 21 16 37t37 16t37 -16t16 -37v-1299h437q22 0 36 -14q15 -15 15 -37t-15 -37q-14 -14 -36 -14z" />
    <glyph glyph-name="M" unicode="M" horiz-adv-x="1255" 
d="M631 745l350 670q15 35 53 35q28 0 43 -18q17 -20 17 -46v-1355q0 -22 -15 -37q-14 -14 -37 -14q-22 0 -36 14q-15 15 -15 37l-2 702l8 524l-305 -585q-16 -29 -51 -29h-29q-33 0 -49 29l-303 588q3 -258 6 -525l2 -704q0 -23 -14 -37t-37 -14t-37 14t-14 37l-2 1355
q0 27 16 46q15 18 43 18q42 0 60 -37z" />
    <glyph glyph-name="N" unicode="N" horiz-adv-x="1060" 
d="M782 25l-526 1196q8 -177 8 -476v-712q0 -23 -14 -37t-37 -14t-37 14t-14 37l-2 1356q0 61 55 61q44 0 59 -41l529 -1200q-10 218 -10 479v713q0 23 14 37t37 14t37 -14t14 -37l2 -1356q0 -61 -55 -61q-45 0 -60 41z" />
    <glyph glyph-name="O" unicode="O" horiz-adv-x="1042" 
d="M899 1096v-760q0 -151 -104 -252q-103 -100 -271 -100q-164 0 -272 102q-107 101 -107 252v756q0 151 107 252q108 102 272 102q168 0 271 -100q104 -101 104 -252zM793 334v756q0 110 -74 184t-195 74q-122 0 -196 -74t-74 -184v-756q0 -110 74 -184t196 -74
q121 0 195 74t74 184z" />
    <glyph glyph-name="P" unicode="P" horiz-adv-x="919" 
d="M270 522v-481q0 -21 -16 -37t-37 -16t-37 16t-16 37v1343q0 21 16 37q17 17 37 17h311q127 0 213 -86t86 -215v-312q0 -131 -86 -217t-213 -86h-258zM721 821v318q0 86 -55 141t-142 55h-252v-710h252q87 0 142 55t55 141z" />
    <glyph glyph-name="Q" unicode="Q" horiz-adv-x="1044" 
d="M899 1096v-762q0 -137 -92 -240l104 -102q15 -15 15 -33t-13 -31q-12 -12 -30 -12q-19 0 -33 14l-113 109q-82 -55 -213 -55q-164 0 -272 102q-107 101 -107 252v756q0 151 107 252q108 102 272 102q168 0 271 -100q104 -101 104 -252zM532 256v2q0 18 13 31q12 12 30 12
q19 0 37 -18l119 -119q60 72 60 168v758q0 110 -74 184t-195 74q-122 0 -196 -74t-74 -184v-756q0 -110 74 -184t196 -74q80 0 142 30l-117 117q-15 15 -15 33z" />
    <glyph glyph-name="R" unicode="R" 
d="M270 547v-512q0 -21 -16 -37t-37 -16t-37 16t-16 37v1343q0 21 16 37q17 17 37 17h291q144 0 231 -84q86 -83 86 -215v-287q0 -99 -55 -178q-56 -80 -145 -107l211 -508q2 -4 2 -16q0 -22 -15 -37q-14 -14 -37 -14q-40 0 -55 41l-213 520h-248zM721 840l4 290
q0 90 -57 144q-58 55 -160 55h-236v-686h252q87 0 142 55t55 142z" />
    <glyph glyph-name="S" unicode="S" horiz-adv-x="980" 
d="M113 338v6q0 21 16 37t37 16q23 0 37 -14q16 -16 16 -37q0 -109 78 -184q77 -74 197 -74q118 0 196 72q76 70 76 182q0 82 -35 147q-35 66 -90 109q-51 40 -123 80q-22 12 -67 36.5t-68 37.5q-67 38 -123 84t-90 114q-35 68 -35 158q0 146 105 248q103 100 254 100
q164 0 258 -104q96 -107 96 -211q0 -23 -14 -37t-37 -14q-22 0 -37 12q-16 13 -19 31q-9 96 -79 163q-71 68 -173 68q-103 0 -178 -72q-73 -70 -73 -176q0 -82 47 -147t116 -105q138 -79 152 -88q110 -68 152 -98q69 -48 116 -135q47 -86 47 -197q0 -155 -106 -258
q-107 -104 -270 -104q-165 0 -273 102q-106 100 -106 252z" />
    <glyph glyph-name="T" unicode="T" horiz-adv-x="792" 
d="M342 1335h-274q-22 0 -37 15t-15 36q0 22 15 37t37 15h653q22 0 37 -15q14 -14 14 -37q0 -22 -14 -36q-15 -15 -37 -15h-272v-1298q0 -20 -17 -37q-16 -16 -37 -16t-37 16t-16 37v1298z" />
    <glyph glyph-name="U" unicode="U" horiz-adv-x="1062" 
d="M909 1397l-2 -1059q0 -151 -104 -252q-103 -100 -273 -100q-167 0 -272 102q-104 101 -104 252v1057q0 21 16 37t37 16t37 -16t16 -37v-1059q0 -112 74 -186t198 -74q123 0 197 74t74 184v1061q0 21 16 37t37 16t37 -16t16 -37z" />
    <glyph glyph-name="V" unicode="V" horiz-adv-x="1019" 
d="M543 98l217 758q6 21 6 68v473q0 21 16 37t37 16t37 -16t16 -37v-486q0 -37 -14 -86l-237 -788q-9 -37 -50 -37h-129q-40 0 -49 37l-235 786q-15 49 -15 88v486q0 20 17 37q16 16 37 16q20 0 36 -16q17 -17 17 -37v-475q0 -45 6 -66l221 -758h66z" />
    <glyph glyph-name="W" unicode="W" horiz-adv-x="1370" 
d="M887 37l-207 684l-201 -684q-9 -37 -49 -37h-102q-43 0 -52 37l-118 784q-6 47 -6 90v486q0 21 16 37t37 16t37 -16t16 -37v-486q0 -35 8 -90l103 -723h28l199 684q12 39 49 39h78q35 0 47 -39l199 -684h28l103 723q8 55 8 90v486q0 21 16 37t37 16t37 -16t16 -37v-486
q0 -43 -6 -90l-118 -784q-9 -37 -52 -37h-102q-40 0 -49 37z" />
    <glyph glyph-name="X" unicode="X" horiz-adv-x="972" 
d="M782 18l-297 631l-297 -626q-15 -35 -53 -35q-23 0 -37 14t-14 31t8 30l336 685l-303 630q-8 13 -8 29q0 15 16 31t37 16q31 0 49 -35l273 -573l270 573q15 35 49 35q23 0 37 -14t14 -33q0 -16 -6 -31l-307 -628l334 -687q6 -15 6 -30q0 -18 -15 -33q-14 -14 -36 -14
q-41 0 -56 34z" />
    <glyph glyph-name="Y" unicode="Y" horiz-adv-x="892" 
d="M502 682l-6 -643q0 -22 -15 -37q-16 -16 -37 -16q-20 0 -36 16q-17 17 -17 37v645l-334 692q-6 12 -6 29q0 14 17 31q16 16 36 16q34 0 52 -35l293 -616l286 616q15 35 53 35q23 0 37 -14q15 -15 15 -33q0 -16 -6 -31z" />
    <glyph glyph-name="Z" unicode="Z" horiz-adv-x="901" 
d="M102 145l603 1192h-558q-21 0 -36 15t-15 37q0 21 15 36t36 15h627q45 0 45 -49v-27q0 -32 -18 -70l-604 -1190h589q23 0 37 -14q15 -15 15 -37t-15 -37q-14 -14 -37 -14h-659q-45 0 -45 49v27q0 28 20 67z" />
    <glyph glyph-name="bracketleft" unicode="[" horiz-adv-x="614" 
d="M223 1434l281 8q22 0 37 -15q14 -14 14 -36q0 -23 -14 -37q-15 -15 -37 -15h-221v-1605h221q22 0 37 -15q14 -14 14 -36q0 -23 -14 -37q-15 -15 -37 -15h-281q-49 0 -49 50v1703q0 50 49 50z" />
    <glyph glyph-name="backslash" unicode="\" horiz-adv-x="696" 
d="M129 1419l528 -1368q1 -4 2 -9t2 -8t1 -5q0 -20 -13 -33q-12 -12 -33 -12q-34 0 -43 30l-530 1366q-4 20 -4 23q0 23 12 35t35 12q34 0 43 -31z" />
    <glyph glyph-name="bracketright" unicode="]" horiz-adv-x="614" 
d="M111 1434l280 -9q49 0 49 -49v-1704q0 -49 -49 -49h-280q-22 0 -37 15t-15 36q0 22 15 37t37 15h221v1605h-221q-22 0 -37 15t-15 36q0 22 15 37t37 15z" />
    <glyph glyph-name="asciicircum" unicode="^" horiz-adv-x="903" 
d="M502 1417l250 -653q4 -16 4 -19q0 -17 -13 -30t-32 -13q-34 0 -43 27l-217 588l-220 -588q-9 -27 -43 -27q-19 0 -32 13t-13 30q0 3 4 19l254 653q9 33 50 33q37 0 51 -33z" />
    <glyph glyph-name="underscore" unicode="_" horiz-adv-x="937" 
d="M0 -188h938q37 0 37 -37t-37 -37h-938q-37 0 -37 37t37 37z" />
    <glyph glyph-name="grave" unicode="`" horiz-adv-x="268" 
d="M88 1374l170 -186q10 -10 10 -25q0 -14 -12 -26q-13 -13 -27 -13q-17 0 -30 13l-183 166q-16 16 -16 36q0 23 14 37q15 15 37 15q20 0 37 -17z" />
    <glyph glyph-name="a" unicode="a" horiz-adv-x="913" 
d="M780 727v-707q0 -20 -12 -32q-13 -13 -33 -13q-21 0 -37 13q-14 11 -14 35l-2 73q-6 -6 -10 -12q-6 -9 -31 -31t-55 -37q-33 -17 -80 -28q-54 -13 -100 -13q-131 0 -220 86q-90 87 -90 218q0 129 86 215t232 104q50 7 108 10q71 3 115 6h45v97q0 102 -61 172
q-62 71 -162 71q-78 0 -135 -45q-58 -46 -76 -116q-9 -33 -43 -33q-21 0 -33 12t-12 35q0 60 82 145q83 86 227 86q145 0 227 -88q84 -90 84 -223zM418 53l2 -4q112 0 190 66t78 153v248q-168 3 -270 -12q-98 -14 -162 -78q-61 -61 -61 -154q0 -90 65 -155q64 -64 158 -64z
" />
    <glyph glyph-name="b" unicode="b" horiz-adv-x="952" 
d="M733 328v366q0 128 -67 195t-177 67q-106 0 -178 -75q-73 -76 -73 -199v-352q0 -121 73 -191q72 -69 181 -69q107 0 174 67t67 191zM240 1407l-9 -512l11 16q10 15 30 35q25 25 52 43q33 22 73 35q50 16 95 16q149 0 241 -92t92 -241v-396q0 -143 -92 -235t-241 -92
q-50 0 -93 12q-42 12 -71 31q-31 21 -49 36q-22 19 -31 31l-10 15v-76q0 -21 -15 -33t-37 -12q-20 0 -32 12q-13 13 -13 35v1370q0 23 15 35t37 12t34 -12q13 -13 13 -33z" />
    <glyph glyph-name="c" unicode="c" horiz-adv-x="907" 
d="M465 -16l-6 -4q-156 0 -248 92t-92 239v381q0 150 96 246t250 96q159 0 240 -90q79 -88 79 -172q0 -21 -12 -33t-33 -12q-39 0 -45 33q-18 92 -82 141t-153 49q-110 0 -178 -71t-68 -177v-393q0 -106 68 -174q67 -67 180 -67q98 0 164 57q68 59 80 154q3 14 18 26t31 12
q20 0 32 -12q13 -13 13 -33q0 -30 -19 -79q-18 -46 -55 -95q-36 -47 -104 -82q-63 -32 -156 -32z" />
    <glyph glyph-name="d" unicode="d" horiz-adv-x="952" 
d="M217 690l-2 -368q0 -123 68 -191t174 -68q105 0 180 72q74 71 74 191v360q0 123 -72 195q-71 71 -178 71q-109 0 -176 -67q-68 -68 -68 -195zM709 905l-4 488q0 22 12 34q13 13 35 13q20 0 36 -13q15 -12 15 -32v-1370q0 -21 -12 -33t-33 -12q-22 0 -37 12q-14 11 -14 35
v82q-1 -2 -5 -7t-6 -8q-6 -9 -28 -31q-14 -14 -50 -38q-27 -18 -73 -33t-94 -15q-149 0 -242 93q-92 92 -92 237v395q0 150 92 242t242 92q93 0 153 -32q66 -35 86 -68z" />
    <glyph glyph-name="e" unicode="e" horiz-adv-x="917" 
d="M219 715l-2 -142h492v138q0 100 -70 170q-71 71 -178 71q-108 0 -174 -69q-68 -71 -68 -168zM463 -20l-8 -7q-155 0 -248 93q-92 92 -92 239v387q0 148 94 242t248 94q150 0 245 -92t95 -240v-161q0 -24 -15 -39t-43 -15h-528v-180q0 -102 68 -170t176 -68q96 0 166 58
q69 57 81 153q3 14 19 27q15 12 31 12q20 0 32 -12q13 -13 13 -33q0 -31 -19 -80q-17 -44 -55 -94q-35 -46 -105 -82q-63 -32 -155 -32z" />
    <glyph glyph-name="f" unicode="f" horiz-adv-x="526" 
d="M522 1348l-2 -2q-39 20 -86 20q-64 0 -106 -45q-43 -46 -43 -135v-164h188q19 0 31 -12t12 -31t-12 -31t-31 -12h-188v-907q0 -21 -15 -33t-37 -12q-20 0 -32 12q-13 13 -13 35v907h-114q-19 0 -31 12t-12 31t12 31t31 12h114v156q0 124 68 198t176 74q83 0 133 -33
q21 -15 21 -37q0 -15 -13 -28t-28 -13q-9 0 -23 7z" />
    <glyph glyph-name="g" unicode="g" horiz-adv-x="868" 
d="M61 -158h-8q0 23 15 35t36 12q45 0 48 -47q3 -63 79 -100q75 -37 195 -37q134 0 215 37q84 38 84 108q0 58 -66 103l-233 156q-70 46 -70 141v67q-105 15 -180 99q-74 83 -74 190v142q0 119 93 206q92 86 219 86q104 0 176 -57l51 64q37 49 84 49q43 0 43 -41
q0 -34 -33 -43q-30 -6 -49 -35l-35 -47q70 -82 70 -187v-141q0 -106 -80 -192q-81 -87 -186 -99v-65q0 -47 61 -84l184 -125q125 -82 125 -191q0 -83 -63 -137q-65 -56 -150 -74q-86 -18 -180 -18q-159 0 -264 57q-107 58 -107 168zM618 604l-4 144q0 89 -63 149
q-64 61 -148 61q-88 0 -149 -61t-61 -149v-140q0 -88 61 -149q62 -62 152 -62q82 0 147 62t65 145z" />
    <glyph glyph-name="h" unicode="h" 
d="M240 1403l-2 -506l10 16q4 6 31 33t51 43q27 18 73 33q43 14 93 14q149 0 239 -90t90 -239v-680q0 -22 -14 -33q-15 -12 -37 -12q-21 0 -33 12t-12 35v671q0 115 -65 183q-64 67 -177 67q-103 0 -176 -73t-73 -191v-659q0 -21 -15 -33t-37 -12q-20 0 -32 12
q-13 13 -13 35v1372q0 22 13 35q12 12 34 12t37 -12t15 -33z" />
    <glyph glyph-name="i" unicode="i" horiz-adv-x="413" 
d="M125 1255l-4 -4q0 36 24 60t60 24q35 0 59 -24q25 -25 25 -58q0 -32 -25 -57t-57 -25t-57 25t-25 59zM252 989v-966q0 -22 -14 -33q-16 -13 -37 -13t-37 13q-14 11 -14 35v962q0 24 14 35q15 12 37 12t37 -12q14 -11 14 -33z" />
    <glyph glyph-name="j" unicode="j" horiz-adv-x="415" 
d="M127 1255l-2 -4q0 35 25 60q24 24 59 24q33 0 57 -24q25 -25 25 -58q0 -32 -25 -57t-57 -25t-57 25t-25 59zM-117 -348q-22 13 -22 39q0 18 12 30q13 13 31 13q13 0 24 -8q38 -23 84 -23q66 0 105 45q41 47 41 123v1116q0 23 12 35t35 12q22 0 37 -12q14 -11 14 -33
v-1110q0 -118 -70 -188q-72 -72 -174 -72q-79 0 -129 33z" />
    <glyph glyph-name="k" unicode="k" horiz-adv-x="806" 
d="M715 967l-387 -424l411 -490q9 -9 9 -28q0 -20 -13 -33q-12 -12 -33 -12t-36 18l-435 524v-495q0 -21 -12 -33t-33 -12q-20 0 -32 12q-13 13 -13 35v1372q0 22 13 35q12 12 32 12q22 0 37 -12t15 -33v-842l403 461q15 18 37 18q23 0 35 -12t12 -31q0 -13 -10 -30z" />
    <glyph glyph-name="l" unicode="l" horiz-adv-x="385" 
d="M242 1403v-1376q0 -21 -15 -33t-37 -12q-21 0 -36 12t-15 35v1372q0 23 15 35t36 12q22 0 37 -12t15 -33z" />
    <glyph glyph-name="m" unicode="m" horiz-adv-x="1409" 
d="M238 993l6 -106q1 1 2 4t2.5 6t3.5 6q5 8 29 35q22 25 49 43q35 23 69 35q46 16 93 16q80 0 141 -37q62 -38 82 -73l22 -35q1 2 5.5 8t5.5 8q10 15 30 35q23 23 53 43q32 22 74 35q50 16 96 16q115 0 195 -80t80 -213v-716q0 -22 -14 -33q-16 -13 -37 -13q-20 0 -33 13
q-12 12 -12 35v720q0 89 -56 148q-54 57 -135 57q-93 0 -160 -67t-67 -178v-678q0 -22 -14 -33q-15 -12 -37 -12q-21 0 -33 12t-12 35v721q0 82 -56 141t-135 59q-97 0 -168 -80q-69 -78 -69 -190v-653q0 -21 -15 -33t-37 -12q-20 0 -32 12q-13 13 -13 35v962q0 22 13 35
q12 12 32 12q22 0 37 -12t15 -33z" />
    <glyph glyph-name="n" unicode="n" 
d="M238 993l-7 -114q1 2 5.5 8t5.5 8q9 13 30 37q23 26 56 49q32 22 80 37q53 16 102 16q145 0 227 -88q84 -90 84 -239v-680q0 -22 -14 -33q-15 -12 -37 -12q-21 0 -33 12t-12 35v671q0 117 -59 185q-58 67 -172 67q-99 0 -177 -75q-79 -76 -79 -191v-659q0 -21 -15 -33
t-37 -12q-20 0 -32 12q-13 13 -13 35v962q0 22 13 35q12 12 32 12q22 0 37 -12t15 -33z" />
    <glyph glyph-name="o" unicode="o" horiz-adv-x="929" 
d="M465 1040l-4 -2q154 0 248 -94t94 -246v-381q0 -147 -92 -239t-248 -92t-248 92t-92 239v381q0 152 94 246q96 96 248 96zM461 68l-4 -2q113 0 180 67q68 68 68 176v393q0 106 -68 177t-178 71t-178 -71t-68 -177v-393q0 -106 68 -174q67 -67 180 -67z" />
    <glyph glyph-name="p" unicode="p" horiz-adv-x="952" 
d="M733 334l2 364q0 124 -67 191t-174 67q-109 0 -181 -69q-73 -70 -73 -191v-352q0 -125 71 -199q70 -73 178 -73q110 0 177 67t67 195zM242 115l-2 -453q0 -20 -13 -33q-12 -12 -32 -12q-22 0 -37 12t-15 35v1335q0 22 13 35t34 13q22 0 35 -13t13 -33l2 -90q9 14 28 37
q20 23 86 60q65 36 144 36q149 0 241 -92t92 -235v-395q0 -150 -92 -242t-241 -92q-80 0 -144 30q-62 29 -88 66z" />
    <glyph glyph-name="q" unicode="q" horiz-adv-x="952" 
d="M219 696l2 -368q0 -127 68 -195q67 -67 176 -67q108 0 178 73q72 75 72 201v352q0 120 -74 191t-180 71q-107 0 -174 -67q-68 -68 -68 -191zM715 -348l4 454q-9 -15 -27 -36q-20 -23 -86 -60q-67 -37 -147 -37q-149 0 -242 93q-92 92 -92 241v395q0 146 92 238t242 92
q85 0 147 -33q67 -36 86 -67l23 -31l2 82q0 23 12 35t35 12t35 -12t12 -33v-1335q0 -22 -14 -33q-15 -12 -37 -12q-21 0 -33 12t-12 35z" />
    <glyph glyph-name="r" unicode="r" horiz-adv-x="575" 
d="M510 952l-27 -2q-98 0 -172 -80q-73 -79 -73 -202v-641q0 -21 -15 -33t-37 -12q-20 0 -32 12q-13 13 -13 35v962q0 22 13 35q12 12 32 12q47 0 47 -47v-121q30 74 105 121q74 47 164 47q24 0 39 -12q14 -11 14 -31q0 -18 -12 -30q-13 -13 -33 -13z" />
    <glyph glyph-name="s" unicode="s" horiz-adv-x="839" 
d="M432 1040l-2 -4q139 0 215 -82q78 -84 78 -147q0 -21 -12 -33t-33 -12q-43 0 -49 33q-15 66 -70 112q-54 45 -133 45q-76 0 -135 -47q-58 -46 -58 -117q0 -68 54 -116q51 -45 127 -76q82 -33 147 -64q75 -35 127 -102q53 -68 53 -168q0 -121 -92 -201q-91 -79 -225 -79
q-88 0 -156 30q-63 28 -100 78q-34 45 -49 90q-15 44 -15 84q0 22 13 35q12 12 35 12q40 0 43 -37q9 -97 69 -151q61 -55 156 -55q97 0 158 55t61 139q0 75 -51 123q-54 51 -125 80q-106 43 -148 63q-70 33 -125 97q-51 60 -51 153q0 119 84 191q83 71 209 71z" />
    <glyph glyph-name="t" unicode="t" horiz-adv-x="708" 
d="M686 190l2 -4q0 -64 -65 -135q-63 -69 -177 -69q-116 0 -184 71q-67 70 -67 203v678h-117q-19 0 -31 12t-12 31t12 31t31 12h117v219q0 23 12 35t35 12q22 0 34 -12q13 -13 13 -33v-219h303q19 0 31 -12t12 -31t-12 -31t-31 -12h-303v-688q0 -89 43 -135q42 -45 121 -45
q59 0 98 36q40 37 49 95q6 34 43 34q19 0 31 -12t12 -31z" />
    <glyph glyph-name="u" unicode="u" 
d="M723 31l-4 102q-2 -4 -10 -16q-6 -8 -31 -37q-22 -25 -53 -49q-29 -22 -74 -37q-53 -17 -98 -17q-148 0 -234 86t-86 244v680q0 24 14 35q15 12 37 12q23 0 35 -12t12 -33v-672q0 -254 234 -254q97 0 176 76q80 77 80 191v659q0 24 14 35q15 12 37 12q23 0 35 -12t12 -33
v-962q0 -21 -12 -33t-33 -12q-22 0 -37 12q-14 11 -14 35z" />
    <glyph glyph-name="v" unicode="v" horiz-adv-x="868" 
d="M334 37l-225 573q-11 29 -11 60v319q0 23 15 35t37 12t34 -12q13 -13 13 -33v-348l217 -559h37l217 559v348q0 24 14 35q15 12 37 12q23 0 35 -12t12 -33v-319q0 -32 -12 -62l-219 -575q-15 -37 -52 -37h-98q-36 0 -51 37z" />
    <glyph glyph-name="w" unicode="w" horiz-adv-x="1232" 
d="M1110 993l-12 -315q0 -48 -8 -84l-121 -563q-9 -37 -49 -37h-93q-40 0 -49 37l-170 544l-170 -544q-9 -37 -49 -37h-92q-40 0 -49 37l-121 563q-8 36 -8 86v309q0 24 14 35q15 12 37 12q23 0 35 -12t12 -33v-346l119 -561h26l170 537q12 36 52 36h61q39 0 51 -36
l170 -537h27l119 561v346q0 24 14 35q15 12 37 12q23 0 35 -12t12 -33z" />
    <glyph glyph-name="x" unicode="x" horiz-adv-x="784" 
d="M627 14l-234 418l-233 -420q-15 -30 -43 -30q-22 0 -37 12q-14 11 -14 29q0 15 8 28l268 467l-256 451q-8 11 -8 26q0 18 14 29q15 12 37 12q28 0 43 -30l225 -404l224 404q15 30 47 30q18 0 30 -12q13 -13 13 -29q0 -12 -6 -24l-259 -449l269 -471q6 -12 6 -26
q0 -18 -14 -29q-15 -12 -33 -12q-32 0 -47 30z" />
    <glyph glyph-name="y" unicode="y" horiz-adv-x="886" 
d="M266 -317l131 356l-340 938q-4 16 -4 20q0 19 15 31t36 12q36 0 50 -36l297 -832l303 834q12 34 45 34q45 0 45 -41q0 -11 -8 -30l-488 -1323q-12 -35 -45 -35q-45 0 -45 41q0 12 8 31z" />
    <glyph glyph-name="z" unicode="z" horiz-adv-x="786" 
d="M672 0l-545 2q-45 0 -45 43v18q0 18 22 60l496 815h-457q-18 0 -30 12q-13 13 -13 31t13 31q12 12 30 12h510q45 0 45 -43v-18q0 -31 -16 -60l-498 -815h488q18 0 30 -12q13 -13 13 -33q0 -18 -13 -31q-12 -12 -30 -12z" />
    <glyph glyph-name="braceleft" unicode="{" horiz-adv-x="643" 
d="M100 494l-6 6q-49 9 -49 51t49 51q48 9 74 43q27 35 27 86v379q0 154 96 258q95 102 237 102q23 0 37 -14q15 -15 15 -37t-15 -37q-14 -14 -37 -14q-107 -3 -166 -74t-59 -190v-361q0 -72 -39 -125q-40 -55 -86 -67v-8q46 -15 86 -70q41 -56 41 -125v-385q0 -118 60 -190
q59 -71 165 -74q23 0 37 -14q15 -15 15 -37t-15 -37q-14 -14 -37 -14q-140 0 -235 102q-94 101 -94 258v403q0 52 -27 89q-26 36 -74 45z" />
    <glyph glyph-name="bar" unicode="|" horiz-adv-x="442" 
d="M268 1403l-4 -1749q0 -21 -12 -33t-33 -12t-33 12t-12 35v1745q0 23 12 35t35 12t35 -12t12 -33z" />
    <glyph glyph-name="braceright" unicode="}" horiz-adv-x="643" 
d="M543 494l-6 -13q-48 -9 -74 -45q-27 -37 -27 -88v-403q0 -157 -94 -258t-236 -101q-21 0 -36 15t-15 37q0 21 15 36q17 17 36 17q108 3 166 73q60 72 60 191v385q0 69 41 125q40 55 86 70v8q-46 12 -86 67q-39 53 -39 125v361q0 118 -60 190q-59 71 -165 74q-23 0 -37 14
q-15 15 -15 37t15 37q14 14 37 14q144 0 237 -100q96 -104 96 -258v-379q0 -51 27 -86q26 -34 74 -43q49 -9 49 -51t-49 -51z" />
    <glyph glyph-name="asciitilde" unicode="~" horiz-adv-x="1073" 
d="M338 684l-4 -4q77 0 213 -62q134 -61 186 -61q117 0 135 88q6 35 43 35q24 0 35 -14q12 -15 12 -33q0 -68 -63 -119t-162 -51q-77 0 -211 61q-136 62 -186 62q-117 0 -135 -88q-6 -35 -43 -35q-22 0 -33 14q-12 15 -12 33q0 70 63 121q65 53 162 53z" />
    <glyph glyph-name="exclamdown" unicode="&#xa1;" horiz-adv-x="471" 
d="M201 1024h69q15 0 25 -10t10 -25v-69q0 -15 -10 -25t-25 -10h-69q-15 0 -25 10t-10 25v69q0 15 10 25t25 10zM184 -373v1057q0 20 17 37q16 16 37 16q22 0 36 -14q17 -17 17 -37v-1059q0 -20 -17 -37q-16 -16 -36 -16q-21 0 -37 16q-17 17 -17 37z" />
    <glyph glyph-name="cent" unicode="&#xa2;" horiz-adv-x="1073" 
d="M592 1122l-6 -116q132 -15 200 -101t68 -155q0 -21 -12 -33t-33 -12q-39 0 -45 32q-18 93 -82 142t-154 49q-109 0 -178 -72q-67 -70 -67 -176v-367q0 -107 67 -174t180 -67q98 0 164 57q68 59 80 154q3 13 19 26t30 13q20 0 33 -13q12 -12 12 -33q0 -42 -24 -98
q-22 -52 -92 -112q-67 -58 -162 -70v-105q0 -20 -15 -32q-16 -13 -36 -13q-21 0 -37 13q-15 12 -15 35v104q-137 12 -217 104t-80 230v354q0 141 82 232q84 93 217 108v94q0 23 15 35t37 12t37 -12q14 -11 14 -33z" />
    <glyph glyph-name="sterling" unicode="&#xa3;" horiz-adv-x="1073" 
d="M664 614l-258 -2v-516h489q24 0 35 -14q12 -15 12 -37t-12 -37q-11 -14 -33 -14h-672q-21 0 -32 14q-13 16 -13 37t13 37q11 14 34 14h74v516h-80q-18 0 -31 13q-12 12 -12 30q0 19 12 31t31 12h80v437q0 130 92 219q93 90 221 90q154 0 234 -103t80 -219q0 -22 -15 -37
q-14 -14 -36 -14q-20 0 -35 12q-17 14 -17 31q3 103 -55 170q-59 68 -154 68q-88 0 -147 -62t-59 -164v-426h254q18 0 30 -12q13 -13 13 -31q0 -17 -13 -30t-30 -13z" />
    <glyph glyph-name="currency" unicode="&#xa4;" horiz-adv-x="1073" 
d="M154 254l71 82q-84 119 -84 266q0 145 84 264l-73 82q-33 34 4 68q34 34 67 -2l70 -76q110 90 246 90q135 0 239 -88l68 74q33 36 67 2q38 -35 5 -68l-72 -78q88 -116 88 -268q0 -154 -88 -270l72 -78q33 -33 -5 -68q-40 -34 -69 0l-68 74q-103 -86 -237 -86
q-138 0 -242 88l-70 -76q-29 -34 -69 0q-34 34 -4 68zM238 602h-2q0 -142 83 -242q82 -98 216 -98q133 0 215 98q84 101 84 242q0 144 -82 242t-215 98t-215 -98q-84 -101 -84 -242z" />
    <glyph glyph-name="yen" unicode="&#xa5;" horiz-adv-x="1073" 
d="M872 440l-284 2v-403q0 -20 -17 -37q-16 -16 -36 -16q-21 0 -37 16q-17 17 -17 37v403h-284q-18 0 -31 13q-12 12 -12 30q0 19 12 31t31 12h284v152l-18 39h-266q-19 0 -31 12t-12 31t12 31t31 12h223l-273 563q-6 12 -6 29q0 13 17 30t37 17q34 0 49 -35l293 -616
l286 616q18 35 54 35q22 0 36 -14q15 -15 15 -33q0 -16 -6 -31l-271 -563h221q19 0 31 -12t12 -31t-12 -31t-31 -12h-264l-18 -39v-152h282q19 0 31 -12t12 -31q0 -18 -12 -30q-13 -13 -31 -13z" />
    <glyph glyph-name="brokenbar" unicode="&#xa6;" horiz-adv-x="442" 
d="M268 1403l-4 -637q0 -21 -12 -33t-33 -12t-33 12t-12 35v633q0 23 12 35t35 12t35 -12t12 -33zM264 287l-4 -637q0 -21 -12 -33t-33 -12t-33 12t-12 35v633q0 22 12 34q13 13 35 13t35 -13q12 -12 12 -32z" />
    <glyph glyph-name="section" unicode="&#xa7;" horiz-adv-x="1005" 
d="M760 621v6q0 82 -62 135q-61 52 -186 110q-123 57 -182 97q-92 -59 -92 -156q0 -83 61 -135q62 -53 184 -111q133 -63 185 -100q92 59 92 154zM492 84l-5 2q101 0 150 49t49 111q0 66 -57 114q-55 46 -142 86q-83 38 -165 78q-84 41 -142 111q-57 69 -57 170
q0 145 125 239q-60 85 -60 166q0 103 82 176q83 74 228 74q163 0 233 -76q72 -78 72 -172q0 -21 -15 -36t-36 -15q-43 0 -52 45q-12 71 -61 117q-48 45 -139 45q-101 0 -150 -49t-49 -111q0 -54 43 -100q44 -47 105 -74q83 -36 135 -63q84 -43 135 -74q62 -38 104 -100
q43 -64 43 -148q0 -139 -123 -241q58 -82 58 -166q0 -106 -82 -179t-227 -73q-164 0 -234 76q-72 78 -72 172q0 19 17 36t37 17q42 0 51 -45q12 -71 61 -117q48 -45 140 -45z" />
    <glyph glyph-name="dieresis" unicode="&#xa8;" horiz-adv-x="423" 
d="M0 1249v-8q0 30 23 53t53 23q28 0 49 -21q22 -22 22 -51t-22 -51q-20 -20 -49 -20q-31 0 -53 22q-23 23 -23 53zM274 1241v-8q0 30 23 53t49 23q32 0 53 -21q23 -23 23 -51t-23 -51q-21 -21 -53 -21q-26 0 -49 23t-23 53z" />
    <glyph glyph-name="copyright" unicode="&#xa9;" horiz-adv-x="1447" 
d="M729 305l-4 -4q-125 0 -199 74q-73 73 -73 194v287q0 125 73 201q75 78 197 78q67 0 125 -25t84 -61q32 -44 43 -70q14 -32 14 -61q0 -21 -12 -33q-13 -13 -33 -13q-37 0 -43 33q-15 66 -63 105q-50 41 -111 41q-81 0 -129 -54q-47 -53 -47 -129v-297q0 -79 47 -129
q46 -49 129 -49q67 0 119 43q51 42 63 115q6 35 45 35q47 0 47 -45q0 -73 -69 -154q-70 -82 -203 -82zM246 891v-359q0 -188 137 -319q139 -133 340 -133q198 0 334 133q135 132 135 319v359q0 191 -135 323q-137 134 -334 134q-200 0 -340 -134q-137 -131 -137 -323z
M139 537v344q0 237 168 399t418 162q244 0 412 -162t168 -395v-350q0 -232 -168 -394q-167 -161 -412 -161q-251 0 -418 161q-168 162 -168 396z" />
    <glyph glyph-name="ordfeminine" unicode="&#xaa;" horiz-adv-x="651" 
d="M541 1245l-2 -411q0 -16 -13 -29q-12 -12 -26 -12q-17 0 -29 12t-12 29v22q-63 -63 -166 -63q-83 0 -141 55q-60 57 -60 139q0 81 60 141t147 72l158 10v23q0 59 -37 102t-94 43q-43 0 -76 -26q-34 -26 -43 -68q-9 -31 -39 -31q-39 0 -39 41t55 99q54 57 150 57
q97 0 151 -57q56 -59 56 -148zM303 866v-4q65 0 109 35t47 84l4 152q-93 0 -160 -13q-58 -9 -94 -45q-37 -37 -37 -88q0 -54 37 -88q36 -33 94 -33zM154 684h356q39 0 39 -39t-39 -39h-356q-39 0 -39 39t39 39z" />
    <glyph glyph-name="guillemotleft" unicode="&#xab;" horiz-adv-x="952" 
d="M442 856l-202 -260l202 -260q13 -16 13 -31q0 -18 -13 -31q-12 -12 -28 -12q-24 0 -39 21l-219 284q-11 18 -11 31q0 15 13 31l217 280q15 21 39 21q16 0 28 -12q13 -13 13 -31q0 -15 -13 -31zM778 854l-203 -260l203 -260q13 -16 13 -31q0 -18 -13 -31q-12 -12 -28 -12
q-24 0 -39 21l-219 284q-11 18 -11 31q0 15 13 31l217 280q15 21 39 21q15 0 28 -13t13 -30q0 -15 -13 -31z" />
    <glyph glyph-name="logicalnot" unicode="&#xac;" horiz-adv-x="1112" 
d="M160 786l786 -4q23 0 35 -12t12 -33v-334q0 -20 -12 -32q-13 -13 -33 -13t-33 13q-12 12 -12 35v286h-745q-20 0 -33 13q-12 12 -12 34q0 23 12 35t35 12z" />
    <glyph glyph-name="registered" unicode="&#xae;" horiz-adv-x="1181" 
d="M690 1044l98 -219q5 -15 5 -18q0 -15 -13 -25t-26 -10q-25 0 -35 23l-103 235h-137v-221q0 -16 -12 -25q-13 -10 -27 -10q-13 0 -26 10t-13 25v584q0 43 41 43h189q59 0 104 -45t45 -105v-104q0 -43 -26 -82q-28 -41 -64 -56zM715 1180v108q0 33 -25 58q-24 24 -55 24
h-154v-272h154q31 0 55 24q25 25 25 58zM231 1243v-285q0 -161 105 -266q104 -104 260 -104q154 0 258 104t104 269v282q0 170 -104 277q-103 106 -258 106q-157 0 -260 -106q-105 -108 -105 -277zM147 963l-2 274q0 202 129 334q128 131 320 131q191 0 319 -131
q129 -132 129 -334v-274q0 -199 -129 -328t-317 -129q-191 0 -320 129t-129 328z" />
    <glyph glyph-name="macron" unicode="&#xaf;" horiz-adv-x="479" 
d="M434 1208h-389q-18 0 -31 13q-12 12 -12 30q0 19 12 31t31 12h389q19 0 31 -12t12 -31q0 -18 -12 -30q-13 -13 -31 -13z" />
    <glyph glyph-name="degree" unicode="&#xb0;" horiz-adv-x="761" 
d="M102 1171q0 115 82 197t197 82t197 -82q81 -81 81 -197q0 -115 -81 -196q-82 -82 -197 -82t-197 82t-82 196zM184 1171q0 -83 58 -141q57 -57 141 -57t141 57q58 58 58 141q0 84 -58 142q-57 57 -141 57t-141 -57q-58 -58 -58 -142z" />
    <glyph glyph-name="plusminus" unicode="&#xb1;" horiz-adv-x="1155" 
d="M160 741l364 -8v252q0 23 15 35t36 12q22 0 37 -12t15 -33v-252h368q23 0 35 -12t12 -33t-12 -33t-33 -12h-368v-248q0 -20 -15 -32q-16 -13 -36 -13q-21 0 -37 13q-15 12 -15 34v248h-368q-21 0 -33 12t-12 35t12 35t35 12zM156 246l831 -4q22 0 35 -13q12 -12 12 -32
q0 -21 -12 -33t-33 -12h-835q-21 0 -33 12t-12 35q0 22 12 34q13 13 35 13z" />
    <glyph glyph-name="twosuperior" unicode="&#xb2;" horiz-adv-x="618" 
d="M504 920l-375 -5q-45 0 -45 46v26q0 84 55 154q52 66 123 112q68 43 123 105q55 61 55 129q0 51 -37 88t-88 37q-46 0 -82 -25q-34 -24 -43 -71q-9 -33 -43 -33q-18 0 -30 12q-13 13 -13 31q0 57 60 114q59 56 153 56q89 0 152 -60q61 -58 61 -147q0 -73 -36 -129
q-38 -60 -88 -98q-17 -13 -105 -76q-52 -37 -88 -82q-37 -46 -37 -98h328q18 0 31 -13q12 -12 12 -30q0 -19 -12 -31t-31 -12z" />
    <glyph glyph-name="threesuperior" unicode="&#xb3;" horiz-adv-x="604" 
d="M502 1630h-6q0 -34 -21 -61l-129 -160q73 -6 123 -53q49 -46 49 -117v-133q0 -82 -61 -143q-62 -62 -156 -62q-100 0 -158 55q-59 56 -59 115q0 19 12 31t31 12q34 0 43 -33q15 -98 129 -98q56 0 94 35q37 34 37 86v110q0 59 -35 89q-34 30 -92 30q-55 0 -55 41
q0 34 22 62l125 153h-243q-18 0 -31 13q-12 12 -12 30q0 19 12 31t31 12h305q45 0 45 -45z" />
    <glyph glyph-name="acute" unicode="&#xb4;" horiz-adv-x="268" 
d="M10 1194l170 182q17 17 37 17q22 0 37 -15q14 -14 14 -37q0 -20 -16 -36l-182 -166q-13 -13 -31 -13q-14 0 -27 13q-12 12 -12 26q0 19 10 29z" />
    <glyph glyph-name="mu" unicode="&#xb5;" horiz-adv-x="976" 
d="M735 127l-12 -10q-1 -2 -2.5 -4t-4 -5.5t-3.5 -5.5q-2 -3 -31 -32q-27 -27 -51 -43q-32 -21 -72 -35q-43 -15 -92 -15q-47 0 -94 13q-44 12 -68 30t-43 37q-17 17 -24 31l-7 14v-452q0 -21 -12 -33t-33 -12t-36 12t-15 35v1337q0 23 15 35t36 12q23 0 35 -12t12 -33v-645
q0 -124 58 -203q59 -80 178 -80q97 0 176 76q80 77 80 191v659q0 24 14 35q15 12 37 12q23 0 35 -12t12 -33v-798q0 -91 49 -109q31 -12 31 -41q0 -19 -12 -31t-31 -12q-42 0 -78 39q-39 42 -47 88z" />
    <glyph glyph-name="paragraph" unicode="&#xb6;" horiz-adv-x="894" 
d="M659 -344l-4 1687h-125v-1687q0 -20 -14 -31q-15 -12 -33 -12t-30 12q-13 13 -13 31v1003q-156 15 -264 123q-106 106 -106 262q0 165 112 277q115 115 273 115h241q29 0 41 -15q13 -16 13 -37v-1728q0 -19 -15 -31t-33 -12t-30 12q-13 13 -13 31z" />
    <glyph glyph-name="periodcentered" unicode="&#xb7;" horiz-adv-x="409" 
d="M240 528h-70q-12 0 -27 11q-12 9 -12 24v70q0 15 12 24q15 11 27 11h70q11 0 26 -11q13 -10 13 -24v-70q0 -14 -13 -24q-15 -11 -26 -11z" />
    <glyph glyph-name="cedilla" unicode="&#xb8;" horiz-adv-x="286" 
d="M125 -348l-86 -4q-17 0 -29 12t-12 29q0 16 12 28q13 13 29 13h74q36 0 57 18q20 17 20 47q0 28 -18 43q-20 17 -47 17h-37q-21 0 -37 16q-14 14 -14 41v86h86v-61q73 0 119 -37q45 -36 45 -101q0 -62 -45 -104q-46 -43 -117 -43z" />
    <glyph glyph-name="onesuperior" unicode="&#xb9;" horiz-adv-x="438" 
d="M219 958l-2 633l-96 -18q-6 -2 -19 -2q-14 0 -24 10t-10 25q0 33 30 39l92 20q33 8 54 8h24q47 0 47 -49v-668q0 -20 -12 -32q-13 -13 -33 -13q-21 0 -37 13q-14 11 -14 34z" />
    <glyph glyph-name="ordmasculine" unicode="&#xba;" horiz-adv-x="643" 
d="M541 1253v-249q0 -83 -62 -142q-60 -57 -155 -57q-96 0 -158 59t-62 142v245q0 83 62 142t158 59q95 0 155 -57q62 -59 62 -142zM451 1004l-2 241q0 48 -39 84q-40 37 -93 37q-51 0 -88 -37q-36 -36 -36 -82v-246q0 -46 38 -81q40 -37 93 -37t90 37t37 84zM145 688h357
q39 0 39 -39t-39 -39h-357q-39 0 -39 39t39 39z" />
    <glyph glyph-name="guillemotright" unicode="&#xbb;" horiz-adv-x="952" 
d="M711 598l-203 260q-12 15 -12 31q0 19 12 31t29 12q23 0 38 -21l218 -280q12 -15 12 -31q0 -14 -10 -31l-220 -284q-15 -21 -38 -21q-17 0 -29 12t-12 31q0 16 12 31zM375 600l-203 260q-12 15 -12 31q0 19 12 31t29 12q24 0 39 -21l217 -280q12 -15 12 -31
q0 -14 -10 -31l-219 -284q-15 -21 -39 -21q-16 0 -29 13q-12 12 -12 30q0 16 12 31z" />
    <glyph glyph-name="onequarter" unicode="&#xbc;" horiz-adv-x="1126" 
d="M117 43l696 1389q9 18 31 18q37 0 37 -35q0 -9 -9 -24l-696 -1389q-9 -18 -31 -18q-36 0 -36 34q0 12 8 25zM219 717l-2 633l-96 -19q-6 -2 -19 -2q-14 0 -24 10t-10 25q0 33 30 39l92 20q37 9 54 9h24q47 0 47 -50v-667q0 -21 -12 -33t-33 -12q-22 0 -37 12
q-14 11 -14 35zM530 258l234 475q16 25 43 25q18 0 31 -13q12 -12 12 -30q0 -11 -6 -23l-226 -452h230v127q0 23 14 34q16 13 37 13q22 0 35 -13q12 -12 12 -32v-127h45q18 0 31 -13q12 -12 12 -30q0 -19 -12 -31t-31 -12h-45v-121q0 -21 -12 -33t-33 -12q-22 0 -37 12
q-14 11 -14 35v121h-279q-51 0 -51 43v18q0 16 10 39z" />
    <glyph glyph-name="onehalf" unicode="&#xbd;" horiz-adv-x="1146" 
d="M117 43l696 1389q9 18 31 18q37 0 37 -35q0 -9 -9 -24l-696 -1389q-9 -18 -31 -18q-36 0 -36 34q0 12 8 25zM219 717l-2 633l-96 -19q-6 -2 -19 -2q-14 0 -24 10t-10 25q0 33 30 39l92 20q37 9 54 9h24q47 0 47 -50v-667q0 -21 -12 -33t-33 -12q-22 0 -37 12
q-14 11 -14 35zM1012 -2l-375 -4q-45 0 -45 45v27q0 83 55 153q54 68 123 113q70 45 123 104q55 61 55 129q0 51 -37 88t-88 37q-47 0 -82 -24q-34 -23 -43 -72q-9 -33 -43 -33q-18 0 -30 12q-13 13 -13 31q0 58 60 115q58 55 153 55q90 0 152 -59q61 -58 61 -148
q0 -71 -37 -129q-38 -60 -88 -98q-30 -23 -104 -76q-52 -37 -88 -82q-37 -46 -37 -98h328q18 0 30 -12q13 -13 13 -31t-13 -31q-12 -12 -30 -12z" />
    <glyph glyph-name="threequarters" unicode="&#xbe;" horiz-adv-x="1320" 
d="M311 43l697 1389q9 18 32 18q37 0 37 -35q0 -11 -8 -24l-696 -1389q-9 -18 -33 -18q-37 0 -37 34q0 12 8 25zM727 260l234 475q16 25 43 25q18 0 30 -12q13 -13 13 -31q0 -9 -7 -23l-225 -452h229v127q0 22 15 34q16 13 37 13t34 -13t13 -32v-127h45q18 0 31 -13
q12 -12 12 -30q0 -19 -12 -31t-31 -12h-45v-121q0 -20 -13 -33q-12 -12 -32 -12q-22 0 -37 12q-14 11 -14 35v121h-279q-51 0 -51 43v18q0 16 10 39zM520 1382h-6q0 -35 -20 -61l-129 -160q72 -6 122 -53t50 -117v-133q0 -81 -62 -143t-156 -62q-98 0 -157 56
q-60 57 -60 114q0 18 13 31q12 12 30 12q35 0 43 -32q15 -99 129 -99q57 0 95 35q37 34 37 86v111q0 58 -35 88q-34 30 -92 30q-56 0 -56 41q0 32 23 62l125 153h-244q-18 0 -31 13q-12 12 -12 30q0 19 12 31t31 12h305q45 0 45 -45z" />
    <glyph glyph-name="questiondown" unicode="&#xbf;" horiz-adv-x="892" 
d="M449 1024h69q14 0 27 -10q12 -9 12 -25v-69q0 -16 -12 -25q-13 -10 -27 -10h-69q-14 0 -27 10q-12 9 -12 25v69q0 16 12 25q13 10 27 10zM537 688l-13 -2q0 -116 -35 -209q-35 -94 -83 -153q-50 -62 -99 -117t-84 -129q-35 -75 -35 -162q0 -105 76 -178q77 -74 185 -74
q100 0 172 66q70 64 79 159q3 18 19 31q15 12 37 12q23 0 37 -14q16 -16 16 -37q0 -104 -96 -211q-94 -104 -258 -104q-156 0 -260 98q-105 99 -105 260q0 95 35 176t84 136q49 56 102 114q51 56 86 144q35 87 35 192q0 23 14 37q16 16 37 16q23 0 37 -14q17 -17 17 -37z
" />
    <glyph glyph-name="Agrave" unicode="&#xc0;" horiz-adv-x="1019" 
d="M764 588l-221 747h-66l-221 -747h508zM625 1397l241 -789q15 -52 15 -86v-485q0 -20 -17 -37q-16 -16 -37 -16q-20 0 -36 16q-17 17 -17 37v452h-520v-452q0 -21 -16 -37t-37 -16t-37 16q-17 17 -17 37v485q0 34 15 86l237 789q9 37 50 37h126q41 0 50 -37zM428 1784
l170 -187q10 -10 10 -24q0 -15 -12 -27t-27 -12q-18 0 -30 12l-183 166q-16 16 -16 37q0 23 14 37t37 14q21 0 37 -16z" />
    <glyph glyph-name="Aacute" unicode="&#xc1;" horiz-adv-x="1019" 
d="M764 588l-221 747h-66l-221 -747h508zM625 1397l241 -789q15 -52 15 -86v-485q0 -20 -17 -37q-16 -16 -37 -16q-20 0 -36 16q-17 17 -17 37v452h-520v-452q0 -21 -16 -37t-37 -16t-37 16q-17 17 -17 37v485q0 34 15 86l237 789q9 37 50 37h126q41 0 50 -37zM436 1604
l170 182q16 16 37 16q23 0 37 -14t14 -37q0 -21 -16 -37l-182 -166q-12 -12 -31 -12q-15 0 -27 12t-12 27q0 19 10 29z" />
    <glyph glyph-name="Acircumflex" unicode="&#xc2;" horiz-adv-x="1019" 
d="M764 588l-221 747h-66l-221 -747h508zM625 1397l241 -789q15 -52 15 -86v-485q0 -20 -17 -37q-16 -16 -37 -16q-20 0 -36 16q-17 17 -17 37v452h-520v-452q0 -21 -16 -37t-37 -16t-37 16q-17 17 -17 37v485q0 34 15 86l237 789q9 37 50 37h126q41 0 50 -37zM516 1790h-4
q38 0 61 -29l148 -162q8 -8 8 -24q0 -39 -37 -39q-14 0 -30 16l-148 134l-152 -134q-16 -16 -30 -16q-37 0 -37 39q0 16 8 24l152 162q23 29 61 29z" />
    <glyph glyph-name="Atilde" unicode="&#xc3;" horiz-adv-x="1019" 
d="M764 588l-221 747h-66l-221 -747h508zM625 1397l241 -789q15 -52 15 -86v-485q0 -20 -17 -37q-16 -16 -37 -16q-20 0 -36 16q-17 17 -17 37v452h-520v-452q0 -21 -16 -37t-37 -16t-37 16q-17 17 -17 37v485q0 34 15 86l237 789q9 37 50 37h126q41 0 50 -37zM633 1569v-4
q-53 0 -129 43t-105 43q-46 0 -61 -54q-9 -36 -47 -36q-43 0 -43 45q0 50 43 90q44 41 106 41q53 0 129 -43t105 -43q46 0 61 53q9 37 47 37q43 0 43 -45q0 -48 -43 -88q-42 -39 -106 -39z" />
    <glyph glyph-name="Adieresis" unicode="&#xc4;" horiz-adv-x="1019" 
d="M764 588l-221 747h-66l-221 -747h508zM625 1397l241 -789q15 -52 15 -86v-485q0 -20 -17 -37q-16 -16 -37 -16q-20 0 -36 16q-17 17 -17 37v452h-520v-452q0 -21 -16 -37t-37 -16t-37 16q-17 17 -17 37v485q0 34 15 86l237 789q9 37 50 37h126q41 0 50 -37zM301 1659v-8
q0 30 23 53q22 22 53 22q29 0 49 -20q23 -23 23 -51t-23 -51q-21 -21 -49 -21q-30 0 -53 23t-23 53zM575 1651v-9q0 31 23 54q22 22 49 22q33 0 53 -20q23 -23 23 -51q0 -29 -23 -52q-20 -20 -53 -20q-27 0 -49 22q-23 23 -23 54z" />
    <glyph glyph-name="Aring" unicode="&#xc5;" horiz-adv-x="1019" 
d="M764 588l-221 747h-66l-221 -747h508zM625 1397l241 -789q15 -52 15 -86v-485q0 -20 -17 -37q-16 -16 -37 -16q-20 0 -36 16q-17 17 -17 37v452h-520v-452q0 -21 -16 -37t-37 -16t-37 16q-17 17 -17 37v485q0 34 15 86l237 789q9 37 50 37h126q41 0 50 -37zM354 1686
l-2 -5q0 64 47 111t111 47q66 0 111 -45q47 -47 47 -111q0 -63 -47 -110q-45 -45 -111 -45q-64 0 -111 47q-45 45 -45 111zM426 1681q0 -34 25 -59t59 -25q36 0 61 25t25 59q0 37 -25 62q-24 24 -61 24q-35 0 -59 -24q-25 -25 -25 -62z" />
    <glyph glyph-name="AE" unicode="&#xc6;" horiz-adv-x="1294" 
d="M651 588v747h-155l-244 -747h399zM1180 0l-475 10q-22 0 -37 15t-15 36v441h-401v-453q0 -21 -16 -37t-37 -16t-37 16q-17 17 -17 37v486q0 33 15 86l256 788q9 37 49 37h698q23 0 37 -14t14 -37t-14 -37q-15 -15 -37 -15h-405v-528h356q23 0 37 -14t14 -37t-14 -37
t-37 -14h-356v-611h422q23 0 37 -14t14 -37t-14 -37t-37 -14z" />
    <glyph glyph-name="Ccedilla" unicode="&#xc7;" horiz-adv-x="976" 
d="M526 -348l-88 -10q-16 0 -28 12q-13 13 -13 29q0 15 13 28t28 13h74q34 0 55 18t21 47q0 57 -66 57h-37q-19 0 -36 17q-15 15 -15 41v78q-128 21 -211 120q-82 98 -82 230v755q0 150 105 252q106 103 262 103q164 0 258 -105q94 -104 94 -211q0 -22 -14 -36
q-15 -15 -37 -15t-37 12t-18 31q-9 96 -80 164t-172 68q-112 0 -185 -76t-73 -187v-751q0 -109 75 -184q76 -76 185 -76t178 63q71 65 80 166q3 19 18 31t37 12q23 0 37 -14q16 -16 16 -37q0 -106 -94 -207q-94 -102 -252 -108v-45q73 0 119 -37q45 -36 45 -101
q0 -62 -45 -104q-46 -43 -117 -43z" />
    <glyph glyph-name="Egrave" unicode="&#xc8;" horiz-adv-x="907" 
d="M213 1434l557 8q22 0 37 -15q14 -14 14 -36q0 -23 -14 -37q-15 -15 -37 -15h-500v-528h451q23 0 37 -14t14 -37t-14 -37t-37 -14h-451v-611h516q23 0 37 -14q15 -15 15 -37t-15 -37q-14 -14 -37 -14h-573q-23 0 -37 14t-14 37v1335q0 23 14 37q15 15 37 15zM422 1792
l170 -186q10 -10 10 -25t-12 -27t-27 -12q-19 0 -31 12l-182 166q-16 16 -16 37q0 23 14 37t37 14q21 0 37 -16z" />
    <glyph glyph-name="Eacute" unicode="&#xc9;" horiz-adv-x="907" 
d="M213 1434l557 8q22 0 37 -15q14 -14 14 -36q0 -23 -14 -37q-15 -15 -37 -15h-500v-528h451q23 0 37 -14t14 -37t-14 -37t-37 -14h-451v-611h516q23 0 37 -14q15 -15 15 -37t-15 -37q-14 -14 -37 -14h-573q-23 0 -37 14t-14 37v1335q0 23 14 37q15 15 37 15zM395 1612
l170 182q16 16 37 16q23 0 37 -14t14 -37q0 -21 -16 -37l-182 -166q-12 -12 -31 -12q-15 0 -27 12t-12 27q0 19 10 29z" />
    <glyph glyph-name="Ecircumflex" unicode="&#xca;" horiz-adv-x="907" 
d="M213 1434l557 8q22 0 37 -15q14 -14 14 -36q0 -23 -14 -37q-15 -15 -37 -15h-500v-528h451q23 0 37 -14t14 -37t-14 -37t-37 -14h-451v-611h516q23 0 37 -14q15 -15 15 -37t-15 -37q-14 -14 -37 -14h-573q-23 0 -37 14t-14 37v1335q0 23 14 37q15 15 37 15zM506 1798h-4
q38 0 61 -29l148 -161q8 -8 8 -25q0 -39 -37 -39q-14 0 -31 17l-147 133l-152 -133q-17 -17 -30 -17q-37 0 -37 39q0 17 8 25l151 161q23 29 62 29z" />
    <glyph glyph-name="Edieresis" unicode="&#xcb;" horiz-adv-x="907" 
d="M213 1434l557 8q22 0 37 -15q14 -14 14 -36q0 -23 -14 -37q-15 -15 -37 -15h-500v-528h451q23 0 37 -14t14 -37t-14 -37t-37 -14h-451v-611h516q23 0 37 -14q15 -15 15 -37t-15 -37q-14 -14 -37 -14h-573q-23 0 -37 14t-14 37v1335q0 23 14 37q15 15 37 15zM293 1667v-8
q0 31 22 53q23 23 54 23q28 0 49 -21q22 -22 22 -51t-22 -51q-21 -21 -49 -21q-31 0 -54 23q-22 22 -22 53zM567 1659v-8q0 30 23 53q22 22 49 22q33 0 53 -20q23 -23 23 -51t-23 -51q-21 -21 -53 -21q-26 0 -49 23t-23 53z" />
    <glyph glyph-name="Igrave" unicode="&#xcc;" horiz-adv-x="436" 
d="M272 1397l-4 -1360q0 -23 -14 -37q-16 -16 -37 -16t-37 16q-14 14 -14 37v1360q0 21 16 37t37 16t37 -16t16 -37zM111 1784l170 -187q10 -10 10 -24q0 -15 -12 -27t-27 -12q-19 0 -31 12l-182 166q-16 16 -16 37q0 23 14 37t37 14q21 0 37 -16z" />
    <glyph glyph-name="Iacute" unicode="&#xcd;" horiz-adv-x="436" 
d="M272 1397l-4 -1360q0 -23 -14 -37q-16 -16 -37 -16t-37 16q-14 14 -14 37v1360q0 21 16 37t37 16t37 -16t16 -37zM141 1604l170 182q16 16 37 16q23 0 37 -14t14 -37q0 -21 -16 -37l-182 -166q-12 -12 -31 -12q-15 0 -27 12t-12 27q0 19 10 29z" />
    <glyph glyph-name="Icircumflex" unicode="&#xce;" horiz-adv-x="436" 
d="M272 1397l-4 -1360q0 -23 -14 -37q-16 -16 -37 -16t-37 16q-14 14 -14 37v1360q0 21 16 37t37 16t37 -16t16 -37zM219 1790h-4q38 0 61 -29l148 -162q8 -8 8 -24q0 -39 -37 -39q-14 0 -30 16l-148 134l-151 -134q-16 -16 -31 -16q-37 0 -37 39q0 16 8 24l152 162
q23 29 61 29z" />
    <glyph glyph-name="Idieresis" unicode="&#xcf;" horiz-adv-x="436" 
d="M272 1397l-4 -1360q0 -23 -14 -37q-16 -16 -37 -16t-37 16q-14 14 -14 37v1360q0 21 16 37t37 16t37 -16t16 -37zM2 1659v-8q0 30 23 53q22 22 53 22q29 0 49 -20q23 -23 23 -51t-23 -51q-21 -21 -49 -21q-30 0 -53 23t-23 53zM276 1651v-9q0 31 23 54q22 22 49 22
q33 0 53 -20q23 -23 23 -51q0 -29 -23 -52q-20 -20 -53 -20q-27 0 -49 22q-23 23 -23 54z" />
    <glyph glyph-name="Eth" unicode="&#xd0;" horiz-adv-x="1021" 
d="M518 0l-301 2q-23 0 -37 14t-14 37v662h-90q-19 0 -31 12t-12 31q0 18 12 30q13 13 31 13h90v583q0 23 14 37q15 15 37 15h301q153 0 258 -105t105 -258v-713q0 -151 -105 -256q-104 -104 -258 -104zM467 713l-193 -6v-613h238q112 0 186 74t74 186v715q0 112 -74 186
t-186 74h-238v-530h193q18 0 31 -13q12 -12 12 -30q0 -19 -12 -31t-31 -12z" />
    <glyph glyph-name="Ntilde" unicode="&#xd1;" horiz-adv-x="1060" 
d="M782 25l-526 1196q8 -177 8 -476v-712q0 -23 -14 -37t-37 -14t-37 14t-14 37l-2 1356q0 61 55 61q44 0 59 -41l529 -1200q-10 218 -10 479v713q0 23 14 37t37 14t37 -14t14 -37l2 -1356q0 -61 -55 -61q-45 0 -60 41zM649 1569v-4q-53 0 -129 43t-104 43q-47 0 -62 -54
q-9 -36 -47 -36q-43 0 -43 45q0 50 43 90q44 41 107 41q53 0 129 -43t104 -43q47 0 62 53q9 37 47 37q43 0 43 -45q0 -48 -43 -88q-42 -39 -107 -39z" />
    <glyph glyph-name="Ograve" unicode="&#xd2;" horiz-adv-x="1042" 
d="M899 1096v-760q0 -151 -104 -252q-103 -100 -271 -100q-164 0 -272 102q-107 101 -107 252v756q0 151 107 252q108 102 272 102q168 0 271 -100q104 -101 104 -252zM793 334v756q0 110 -74 184t-195 74q-122 0 -196 -74t-74 -184v-756q0 -110 74 -184t196 -74
q121 0 195 74t74 184zM352 1780l170 -187q10 -10 10 -24q0 -15 -12 -27t-26 -12q-19 0 -31 12l-182 166q-17 17 -17 37q0 22 15 37q14 14 36 14q21 0 37 -16z" />
    <glyph glyph-name="Oacute" unicode="&#xd3;" horiz-adv-x="1042" 
d="M899 1096v-760q0 -151 -104 -252q-103 -100 -271 -100q-164 0 -272 102q-107 101 -107 252v756q0 151 107 252q108 102 272 102q168 0 271 -100q104 -101 104 -252zM793 334v756q0 110 -74 184t-195 74q-122 0 -196 -74t-74 -184v-756q0 -110 74 -184t196 -74
q121 0 195 74t74 184zM455 1599l170 183q16 16 37 16q22 0 36 -14q15 -15 15 -37q0 -20 -17 -37l-182 -166q-12 -12 -31 -12q-14 0 -26 12q-13 13 -13 27q0 17 11 28z" />
    <glyph glyph-name="Ocircumflex" unicode="&#xd4;" horiz-adv-x="1042" 
d="M899 1096v-760q0 -151 -104 -252q-103 -100 -271 -100q-164 0 -272 102q-107 101 -107 252v756q0 151 107 252q108 102 272 102q168 0 271 -100q104 -101 104 -252zM793 334v756q0 110 -74 184t-195 74q-122 0 -196 -74t-74 -184v-756q0 -110 74 -184t196 -74
q121 0 195 74t74 184zM494 1786h-5q39 0 62 -29l147 -162q9 -9 9 -24q0 -39 -37 -39q-15 0 -31 16l-147 133l-152 -133q-16 -16 -31 -16q-37 0 -37 39q0 15 9 24l151 162q23 29 62 29z" />
    <glyph glyph-name="Otilde" unicode="&#xd5;" horiz-adv-x="1042" 
d="M899 1096v-760q0 -151 -104 -252q-103 -100 -271 -100q-164 0 -272 102q-107 101 -107 252v756q0 151 107 252q108 102 272 102q168 0 271 -100q104 -101 104 -252zM793 334v756q0 110 -74 184t-195 74q-122 0 -196 -74t-74 -184v-756q0 -110 74 -184t196 -74
q121 0 195 74t74 184zM639 1565v-4q-53 0 -129 43t-104 43q-47 0 -62 -54q-9 -37 -47 -37q-43 0 -43 46q0 50 43 90q44 41 106 41q53 0 129 -43t105 -43q46 0 61 53q9 37 47 37q43 0 43 -45q0 -48 -43 -88q-42 -39 -106 -39z" />
    <glyph glyph-name="Odieresis" unicode="&#xd6;" horiz-adv-x="1042" 
d="M899 1096v-760q0 -151 -104 -252q-103 -100 -271 -100q-164 0 -272 102q-107 101 -107 252v756q0 151 107 252q108 102 272 102q168 0 271 -100q104 -101 104 -252zM793 334v756q0 110 -74 184t-195 74q-122 0 -196 -74t-74 -184v-756q0 -110 74 -184t196 -74
q121 0 195 74t74 184zM309 1655v-8q0 30 23 53q22 22 53 22q29 0 49 -20q23 -23 23 -51q0 -29 -23 -52q-20 -20 -49 -20q-30 0 -53 23t-23 53zM584 1647v-9q0 32 22 54t49 22q34 0 54 -20q22 -22 22 -52q0 -29 -22 -51q-20 -20 -54 -20q-27 0 -49 22t-22 54z" />
    <glyph glyph-name="multiply" unicode="&#xd7;" horiz-adv-x="942" 
d="M750 231l-281 275l-279 -277q-14 -14 -32 -14q-19 0 -33 14t-14 33t14 33l276 278l-276 279q-14 14 -14 33q0 16 14 30q17 17 33 17q18 0 32 -14l279 -277l279 277q14 14 32 14q17 0 31 -14q16 -16 16 -31q0 -19 -14 -33l-276 -279l276 -278q14 -17 14 -33q0 -19 -14 -33
t-31 -14q-21 0 -32 14z" />
    <glyph glyph-name="Oslash" unicode="&#xd8;" horiz-adv-x="1042" 
d="M88 55l82 144q-29 73 -29 139v758q0 150 105 252t270 102q192 0 301 -133l66 113q11 20 39 20q16 0 28 -12q13 -13 13 -29q0 -13 -7 -23l-88 -151q29 -73 29 -141v-756q0 -152 -106 -252t-273 -100q-188 0 -295 131l-63 -111q-11 -20 -37 -20q-19 0 -31 12t-12 29
q0 15 8 28zM248 1098l-4 -756v-8l512 887q-70 135 -240 135q-120 0 -194 -74t-74 -184zM786 342v758v4l-512 -885q29 -60 95 -98q64 -37 147 -37q123 0 197 74q73 73 73 184z" />
    <glyph glyph-name="Ugrave" unicode="&#xd9;" horiz-adv-x="1062" 
d="M909 1397l-2 -1059q0 -151 -104 -252q-103 -100 -273 -100q-167 0 -272 102q-104 101 -104 252v1057q0 21 16 37t37 16t37 -16t16 -37v-1059q0 -112 74 -186t198 -74q123 0 197 74t74 184v1061q0 21 16 37t37 16t37 -16t16 -37zM442 1784l170 -187q11 -11 11 -24
q0 -14 -13 -27q-12 -12 -26 -12q-19 0 -31 12l-182 166q-17 17 -17 37q0 22 15 37q14 14 37 14q20 0 36 -16z" />
    <glyph glyph-name="Uacute" unicode="&#xda;" horiz-adv-x="1062" 
d="M909 1397l-2 -1059q0 -151 -104 -252q-103 -100 -273 -100q-167 0 -272 102q-104 101 -104 252v1057q0 21 16 37t37 16t37 -16t16 -37v-1059q0 -112 74 -186t198 -74q123 0 197 74t74 184v1061q0 21 16 37t37 16t37 -16t16 -37zM438 1604l170 182q16 16 37 16
q23 0 37 -14t14 -37q0 -21 -16 -37l-182 -166q-12 -12 -31 -12q-15 0 -27 12t-12 27q0 19 10 29z" />
    <glyph glyph-name="Ucircumflex" unicode="&#xdb;" horiz-adv-x="1062" 
d="M909 1397l-2 -1059q0 -151 -104 -252q-103 -100 -273 -100q-167 0 -272 102q-104 101 -104 252v1057q0 21 16 37t37 16t37 -16t16 -37v-1059q0 -112 74 -186t198 -74q123 0 197 74t74 184v1061q0 21 16 37t37 16t37 -16t16 -37zM535 1790h-5q39 0 62 -29l147 -162
q9 -9 9 -24q0 -39 -37 -39q-15 0 -31 16l-148 134l-151 -134q-16 -16 -31 -16q-37 0 -37 39q0 15 9 24l151 162q23 29 62 29z" />
    <glyph glyph-name="Udieresis" unicode="&#xdc;" horiz-adv-x="1062" 
d="M909 1397l-2 -1059q0 -151 -104 -252q-103 -100 -273 -100q-167 0 -272 102q-104 101 -104 252v1057q0 21 16 37t37 16t37 -16t16 -37v-1059q0 -112 74 -186t198 -74q123 0 197 74t74 184v1061q0 21 16 37t37 16t37 -16t16 -37zM317 1659v-8q0 30 23 53q22 22 53 22
q29 0 49 -20q23 -23 23 -51t-23 -51q-21 -21 -49 -21q-30 0 -53 23t-23 53zM592 1651v-9q0 32 22 54t50 22q33 0 53 -20q22 -22 22 -51q0 -30 -22 -52q-20 -20 -53 -20q-28 0 -50 22t-22 54z" />
    <glyph glyph-name="Yacute" unicode="&#xdd;" horiz-adv-x="892" 
d="M502 682l-6 -643q0 -22 -15 -37q-16 -16 -37 -16q-20 0 -36 16q-17 17 -17 37v645l-334 692q-6 12 -6 29q0 14 17 31q16 16 36 16q34 0 52 -35l293 -616l286 616q15 35 53 35q23 0 37 -14q15 -15 15 -33q0 -16 -6 -31zM356 1606l170 182q16 16 37 16q23 0 37 -14t14 -37
q0 -21 -16 -37l-182 -166q-12 -12 -31 -12q-15 0 -27 12t-12 27q0 19 10 29z" />
    <glyph glyph-name="Thorn" unicode="&#xde;" horiz-adv-x="919" 
d="M270 1397v-180h258q126 0 213 -87q86 -86 86 -215v-311q0 -129 -86 -215t-213 -86h-258v-266q0 -21 -16 -37t-37 -16t-37 16t-16 37v1360q0 21 16 37t37 16t37 -16t16 -37zM721 600v318q0 86 -55 141t-142 55h-252v-711h252q86 0 142 56q55 55 55 141z" />
    <glyph glyph-name="germandbls" unicode="&#xdf;" horiz-adv-x="1046" 
d="M670 -16l-4 -2q-139 0 -207 86t-68 184q0 23 12 35t35 12q40 0 43 -37q9 -95 58 -147t131 -52q74 0 131 54q55 52 55 129q0 67 -37 125t-88 100q-18 15 -52.5 43.5t-51.5 42.5q-48 40 -88 105q-37 61 -37 139q0 96 67 160q68 65 170 86v43q0 118 -71 198t-176 80
q-108 0 -185 -80q-76 -79 -76 -198v-1059q0 -22 -14 -33q-15 -12 -37 -12q-21 0 -33 12t-12 35v1061q0 150 103 256q101 104 251 104q148 0 246 -104q99 -105 99 -258v-41q0 -70 -58 -82q-176 -44 -176 -166q0 -52 37 -101q39 -51 88 -92q72 -60 104 -88q53 -47 89 -112
t36 -148q0 -120 -82 -199t-202 -79z" />
    <glyph glyph-name="agrave" unicode="&#xe0;" horiz-adv-x="913" 
d="M780 727v-707q0 -20 -12 -32q-13 -13 -33 -13q-21 0 -37 13q-14 11 -14 35l-2 73q-6 -6 -10 -12q-6 -9 -31 -31t-55 -37q-33 -17 -80 -28q-54 -13 -100 -13q-131 0 -220 86q-90 87 -90 218q0 129 86 215t232 104q50 7 108 10q71 3 115 6h45v97q0 102 -61 172
q-62 71 -162 71q-78 0 -135 -45q-58 -46 -76 -116q-9 -33 -43 -33q-21 0 -33 12t-12 35q0 60 82 145q83 86 227 86q145 0 227 -88q84 -90 84 -223zM418 53l2 -4q112 0 190 66t78 153v248q-168 3 -270 -12q-98 -14 -162 -78q-61 -61 -61 -154q0 -90 65 -155q64 -64 158 -64z
M377 1358l170 -187q10 -10 10 -24q0 -15 -12 -27t-27 -12q-19 0 -31 12l-182 166q-16 16 -16 37q0 23 14 37t37 14q21 0 37 -16z" />
    <glyph glyph-name="aacute" unicode="&#xe1;" horiz-adv-x="913" 
d="M780 727v-707q0 -20 -12 -32q-13 -13 -33 -13q-21 0 -37 13q-14 11 -14 35l-2 73q-6 -6 -10 -12q-6 -9 -31 -31t-55 -37q-33 -17 -80 -28q-54 -13 -100 -13q-131 0 -220 86q-90 87 -90 218q0 129 86 215t232 104q50 7 108 10q71 3 115 6h45v97q0 102 -61 172
q-62 71 -162 71q-78 0 -135 -45q-58 -46 -76 -116q-9 -33 -43 -33q-21 0 -33 12t-12 35q0 60 82 145q83 86 227 86q145 0 227 -88q84 -90 84 -223zM418 53l2 -4q112 0 190 66t78 153v248q-168 3 -270 -12q-98 -14 -162 -78q-61 -61 -61 -154q0 -90 65 -155q64 -64 158 -64z
M406 1178l169 182q16 16 37 16q23 0 37 -14q15 -15 15 -37q0 -20 -17 -37l-182 -166q-12 -12 -31 -12q-14 0 -26 12q-13 13 -13 27q0 18 11 29z" />
    <glyph glyph-name="acircumflex" unicode="&#xe2;" horiz-adv-x="913" 
d="M780 727v-707q0 -20 -12 -32q-13 -13 -33 -13q-21 0 -37 13q-14 11 -14 35l-2 73q-6 -6 -10 -12q-6 -9 -31 -31t-55 -37q-33 -17 -80 -28q-54 -13 -100 -13q-131 0 -220 86q-90 87 -90 218q0 129 86 215t232 104q50 7 108 10q71 3 115 6h45v97q0 102 -61 172
q-62 71 -162 71q-78 0 -135 -45q-58 -46 -76 -116q-9 -33 -43 -33q-21 0 -33 12t-12 35q0 60 82 145q83 86 227 86q145 0 227 -88q84 -90 84 -223zM418 53l2 -4q112 0 190 66t78 153v248q-168 3 -270 -12q-98 -14 -162 -78q-61 -61 -61 -154q0 -90 65 -155q64 -64 158 -64z
M469 1364h-4q38 0 61 -29l148 -161q8 -8 8 -25q0 -39 -37 -39q-15 0 -31 16l-147 134l-152 -134q-16 -16 -30 -16q-37 0 -37 39q0 17 8 25l152 161q23 29 61 29z" />
    <glyph glyph-name="atilde" unicode="&#xe3;" horiz-adv-x="913" 
d="M780 727v-707q0 -20 -12 -32q-13 -13 -33 -13q-21 0 -37 13q-14 11 -14 35l-2 73q-6 -6 -10 -12q-6 -9 -31 -31t-55 -37q-33 -17 -80 -28q-54 -13 -100 -13q-131 0 -220 86q-90 87 -90 218q0 129 86 215t232 104q50 7 108 10q71 3 115 6h45v97q0 102 -61 172
q-62 71 -162 71q-78 0 -135 -45q-58 -46 -76 -116q-9 -33 -43 -33q-21 0 -33 12t-12 35q0 60 82 145q83 86 227 86q145 0 227 -88q84 -90 84 -223zM418 53l2 -4q112 0 190 66t78 153v248q-168 3 -270 -12q-98 -14 -162 -78q-61 -61 -61 -154q0 -90 65 -155q64 -64 158 -64z
M588 1143v-4q-53 0 -129 43t-105 43q-46 0 -61 -54q-9 -36 -47 -36q-43 0 -43 45q0 50 43 90q44 41 106 41q53 0 129 -43t105 -43q46 0 61 53q9 37 47 37q43 0 43 -45q0 -48 -43 -88q-42 -39 -106 -39z" />
    <glyph glyph-name="adieresis" unicode="&#xe4;" horiz-adv-x="913" 
d="M780 727v-707q0 -20 -12 -32q-13 -13 -33 -13q-21 0 -37 13q-14 11 -14 35l-2 73q-6 -6 -10 -12q-6 -9 -31 -31t-55 -37q-33 -17 -80 -28q-54 -13 -100 -13q-131 0 -220 86q-90 87 -90 218q0 129 86 215t232 104q50 7 108 10q71 3 115 6h45v97q0 102 -61 172
q-62 71 -162 71q-78 0 -135 -45q-58 -46 -76 -116q-9 -33 -43 -33q-21 0 -33 12t-12 35q0 60 82 145q83 86 227 86q145 0 227 -88q84 -90 84 -223zM418 53l2 -4q112 0 190 66t78 153v248q-168 3 -270 -12q-98 -14 -162 -78q-61 -61 -61 -154q0 -90 65 -155q64 -64 158 -64z
M254 1233v-8q0 31 22 53t54 22q29 0 49 -20q22 -22 22 -51t-22 -51q-21 -21 -49 -21q-31 0 -54 23q-22 22 -22 53zM528 1225v-8q0 30 23 53q22 22 49 22q33 0 53 -20q23 -23 23 -51q0 -29 -23 -52q-20 -20 -53 -20q-27 0 -49 22q-23 23 -23 54z" />
    <glyph glyph-name="aring" unicode="&#xe5;" horiz-adv-x="913" 
d="M780 727v-707q0 -20 -12 -32q-13 -13 -33 -13q-21 0 -37 13q-14 11 -14 35l-2 73q-6 -6 -10 -12q-6 -9 -31 -31t-55 -37q-33 -17 -80 -28q-54 -13 -100 -13q-131 0 -220 86q-90 87 -90 218q0 129 86 215t232 104q50 7 108 10q71 3 115 6h45v97q0 102 -61 172
q-62 71 -162 71q-78 0 -135 -45q-58 -46 -76 -116q-9 -33 -43 -33q-21 0 -33 12t-12 35q0 60 82 145q83 86 227 86q145 0 227 -88q84 -90 84 -223zM418 53l2 -4q112 0 190 66t78 153v248q-168 3 -270 -12q-98 -14 -162 -78q-61 -61 -61 -154q0 -90 65 -155q64 -64 158 -64z
M307 1260l-2 -5q0 64 47 111t111 47q65 0 110 -45q48 -48 48 -111q0 -62 -48 -110q-45 -45 -110 -45q-64 0 -111 47q-45 45 -45 111zM379 1255q0 -35 24 -59q25 -25 60 -25q36 0 61 25t25 59q0 37 -25 62q-24 24 -61 24q-36 0 -60 -24t-24 -62z" />
    <glyph glyph-name="ae" unicode="&#xe6;" horiz-adv-x="1398" 
d="M410 68l-7 -5q109 0 177 62q67 61 67 168v209h-221q-106 0 -174 -62t-68 -155q0 -94 68 -156q67 -61 158 -61zM971 950v-4q-95 0 -162 -67q-68 -68 -68 -162v-131h445v123q0 99 -62 170t-153 71zM442 948l-8 -10q-78 0 -129 -45q-53 -47 -74 -117q-9 -33 -43 -33
q-19 0 -32 13t-13 35q0 62 74 145q75 84 215 84q80 0 150 -37t110 -104q46 67 119 104t158 37q134 0 221 -90q86 -89 86 -221v-166q0 -25 -14 -39q-15 -15 -43 -15h-482v-196q0 -101 68 -172q67 -70 162 -70q90 0 145 55q56 56 68 154q3 15 18 27t31 12q21 0 33 -12t12 -33
q0 -37 -14 -78q-10 -30 -48 -92q-28 -47 -94 -82q-62 -33 -147 -33q-102 0 -178 49q-80 51 -105 101q-111 -150 -289 -150q-125 0 -221 84q-94 82 -94 219q0 134 98 222t240 88h221v123q0 102 -55 172q-56 71 -146 71z" />
    <glyph glyph-name="ccedilla" unicode="&#xe7;" horiz-adv-x="907" 
d="M465 -16l-6 -54q74 0 119 -36t45 -101q0 -62 -45 -104q-46 -43 -117 -43h-84q-17 0 -29 12t-12 29q0 16 12 28q13 13 29 13h74q79 0 79 65q0 29 -20 43q-24 17 -49 17h-37q-21 0 -37 16q-14 14 -14 41v78q-119 24 -187 110q-67 85 -67 213v381q0 150 96 246t250 96
q159 0 240 -90q79 -88 79 -172q0 -21 -12 -33t-33 -12q-39 0 -45 33q-18 92 -82 141t-153 49q-110 0 -178 -71t-68 -177v-393q0 -106 68 -174q67 -67 180 -67q98 0 164 57q68 59 80 154q3 14 18 26t31 12q20 0 32 -12q13 -13 13 -33q0 -30 -19 -79q-18 -46 -55 -95
q-36 -47 -104 -82q-63 -32 -156 -32z" />
    <glyph glyph-name="egrave" unicode="&#xe8;" horiz-adv-x="917" 
d="M219 715l-2 -142h492v138q0 100 -70 170q-71 71 -178 71q-108 0 -174 -69q-68 -71 -68 -168zM463 -20l-8 -7q-155 0 -248 93q-92 92 -92 239v387q0 148 94 242t248 94q150 0 245 -92t95 -240v-161q0 -24 -15 -39t-43 -15h-528v-180q0 -102 68 -170t176 -68q96 0 166 58
q69 57 81 153q3 14 19 27q15 12 31 12q20 0 32 -12q13 -13 13 -33q0 -31 -19 -80q-17 -44 -55 -94q-35 -46 -105 -82q-63 -32 -155 -32zM387 1364l170 -186q10 -10 10 -25t-12 -27t-27 -12q-18 0 -30 12l-183 166q-16 16 -16 37q0 23 14 37t37 14q21 0 37 -16z" />
    <glyph glyph-name="eacute" unicode="&#xe9;" horiz-adv-x="917" 
d="M219 715l-2 -142h492v138q0 100 -70 170q-71 71 -178 71q-108 0 -174 -69q-68 -71 -68 -168zM463 -20l-8 -7q-155 0 -248 93q-92 92 -92 239v387q0 148 94 242t248 94q150 0 245 -92t95 -240v-161q0 -24 -15 -39t-43 -15h-528v-180q0 -102 68 -170t176 -68q96 0 166 58
q69 57 81 153q3 14 19 27q15 12 31 12q20 0 32 -12q13 -13 13 -33q0 -31 -19 -80q-17 -44 -55 -94q-35 -46 -105 -82q-63 -32 -155 -32zM365 1184l170 182q16 16 36 16q23 0 37 -14q15 -15 15 -37q0 -20 -17 -37l-182 -166q-12 -12 -31 -12q-14 0 -26 12q-13 13 -13 27
q0 18 11 29z" />
    <glyph glyph-name="ecircumflex" unicode="&#xea;" horiz-adv-x="917" 
d="M219 715l-2 -142h492v138q0 100 -70 170q-71 71 -178 71q-108 0 -174 -69q-68 -71 -68 -168zM463 -20l-8 -7q-155 0 -248 93q-92 92 -92 239v387q0 148 94 242t248 94q150 0 245 -92t95 -240v-161q0 -24 -15 -39t-43 -15h-528v-180q0 -102 68 -170t176 -68q96 0 166 58
q69 57 81 153q3 14 19 27q15 12 31 12q20 0 32 -12q13 -13 13 -33q0 -31 -19 -80q-17 -44 -55 -94q-35 -46 -105 -82q-63 -32 -155 -32zM451 1370h-5q39 0 62 -29l147 -161q9 -9 9 -25q0 -39 -37 -39q-14 0 -31 17l-147 133l-152 -133q-17 -17 -31 -17q-37 0 -37 39
q0 16 9 25l151 161q23 29 62 29z" />
    <glyph glyph-name="edieresis" unicode="&#xeb;" horiz-adv-x="917" 
d="M219 715l-2 -142h492v138q0 100 -70 170q-71 71 -178 71q-108 0 -174 -69q-68 -71 -68 -168zM463 -20l-8 -7q-155 0 -248 93q-92 92 -92 239v387q0 148 94 242t248 94q150 0 245 -92t95 -240v-161q0 -24 -15 -39t-43 -15h-528v-180q0 -102 68 -170t176 -68q96 0 166 58
q69 57 81 153q3 14 19 27q15 12 31 12q20 0 32 -12q13 -13 13 -33q0 -31 -19 -80q-17 -44 -55 -94q-35 -46 -105 -82q-63 -32 -155 -32zM246 1239v-8q0 31 22 53q23 23 54 23q28 0 49 -21q22 -22 22 -51t-22 -51q-21 -21 -49 -21q-31 0 -54 23q-22 22 -22 53zM520 1231v-8
q0 30 23 53q22 22 49 22q33 0 53 -20q23 -23 23 -51t-23 -51q-21 -21 -53 -21q-26 0 -49 23t-23 53z" />
    <glyph glyph-name="igrave" unicode="&#xec;" horiz-adv-x="413" 
d="M256 993v-966q0 -22 -14 -33q-15 -12 -37 -12t-37 12q-14 11 -14 35v962q0 24 14 35q15 12 37 12t37 -12q14 -11 14 -33zM88 1370l170 -186q10 -10 10 -25q0 -14 -12 -26q-13 -13 -27 -13q-17 0 -30 13l-183 165q-16 16 -16 37q0 23 14 37t37 14q21 0 37 -16z" />
    <glyph glyph-name="iacute" unicode="&#xed;" horiz-adv-x="413" 
d="M256 993v-966q0 -22 -14 -33q-15 -12 -37 -12t-37 12q-14 11 -14 35v962q0 24 14 35q15 12 37 12t37 -12q14 -11 14 -33zM156 1190l170 182q17 17 36 17q22 0 37 -15t15 -37q0 -20 -17 -37l-182 -165q-13 -13 -31 -13q-13 0 -26 13t-13 26q0 18 11 29z" />
    <glyph glyph-name="icircumflex" unicode="&#xee;" horiz-adv-x="413" 
d="M256 993v-966q0 -22 -14 -33q-15 -12 -37 -12t-37 12q-14 11 -14 35v962q0 24 14 35q15 12 37 12t37 -12q14 -11 14 -33zM209 1376h-4q39 0 61 -28l148 -162q8 -8 8 -25q0 -39 -37 -39q-14 0 -31 17l-147 133l-152 -133q-17 -17 -30 -17q-37 0 -37 39q0 17 8 25l151 162
q22 28 62 28z" />
    <glyph glyph-name="idieresis" unicode="&#xef;" horiz-adv-x="413" 
d="M256 993v-966q0 -22 -14 -33q-15 -12 -37 -12t-37 12q-14 11 -14 35v962q0 24 14 35q15 12 37 12t37 -12q14 -11 14 -33zM-4 1245v-8q0 31 22 53q23 23 54 23q28 0 49 -21q22 -22 22 -51t-22 -51q-21 -21 -49 -21q-31 0 -54 23q-22 22 -22 53zM270 1237v-8q0 30 23 53
t49 23q32 0 53 -21q23 -23 23 -51t-23 -51q-21 -21 -53 -21q-26 0 -49 23t-23 53z" />
    <glyph glyph-name="eth" unicode="&#xf0;" horiz-adv-x="929" 
d="M748 1210l-103 -36q160 -210 160 -512v-347q0 -147 -92 -239t-248 -92t-248 92t-92 239v299q0 151 92 246q93 96 238 96q169 0 252 -120q-43 183 -146 307l-196 -68q-2 -2 -13 -2q-41 0 -41 41q0 31 29 41l162 55q-97 90 -215 160q-21 15 -21 37q0 18 13 31q12 12 30 12
q16 0 27 -8q137 -76 252 -197l135 47q2 2 12 2q17 0 29 -12t12 -31q0 -35 -28 -41zM463 68l-4 -2q113 0 180 67q68 68 68 176v312q0 105 -68 176t-178 71t-178 -71t-68 -176v-312q0 -106 68 -174q67 -67 180 -67z" />
    <glyph glyph-name="ntilde" unicode="&#xf1;" 
d="M238 993l-7 -114q1 2 5.5 8t5.5 8q9 13 30 37q23 26 56 49q32 22 80 37q53 16 102 16q145 0 227 -88q84 -90 84 -239v-680q0 -22 -14 -33q-15 -12 -37 -12q-21 0 -33 12t-12 35v671q0 117 -59 185q-58 67 -172 67q-99 0 -177 -75q-79 -76 -79 -191v-659q0 -21 -15 -33
t-37 -12q-20 0 -32 12q-13 13 -13 35v962q0 22 13 35q12 12 32 12q22 0 37 -12t15 -33zM604 1151v-4q-53 0 -129 43t-104 43q-47 0 -62 -53q-9 -37 -47 -37q-43 0 -43 45q0 50 43 90q44 41 107 41q53 0 129 -43t104 -43q47 0 62 53q9 37 47 37q43 0 43 -45q0 -48 -43 -88
q-42 -39 -107 -39z" />
    <glyph glyph-name="ograve" unicode="&#xf2;" horiz-adv-x="929" 
d="M465 1040l-4 -2q154 0 248 -94t94 -246v-381q0 -147 -92 -239t-248 -92t-248 92t-92 239v381q0 152 94 246q96 96 248 96zM461 68l-4 -2q113 0 180 67q68 68 68 176v393q0 106 -68 177t-178 71t-178 -71t-68 -177v-393q0 -106 68 -174q67 -67 180 -67zM367 1370l170 -186
q10 -10 10 -25q0 -14 -12 -26q-13 -13 -27 -13q-18 0 -31 13l-182 165q-16 16 -16 37q0 23 14 37t37 14q21 0 37 -16z" />
    <glyph glyph-name="oacute" unicode="&#xf3;" horiz-adv-x="929" 
d="M465 1040l-4 -2q154 0 248 -94t94 -246v-381q0 -147 -92 -239t-248 -92t-248 92t-92 239v381q0 152 94 246q96 96 248 96zM461 68l-4 -2q113 0 180 67q68 68 68 176v393q0 106 -68 177t-178 71t-178 -71t-68 -177v-393q0 -106 68 -174q67 -67 180 -67zM377 1190l170 182
q17 17 37 17q22 0 37 -15q14 -14 14 -37q0 -20 -17 -37l-182 -165q-13 -13 -30 -13q-14 0 -27 13q-12 12 -12 26q0 19 10 29z" />
    <glyph glyph-name="ocircumflex" unicode="&#xf4;" horiz-adv-x="929" 
d="M465 1040l-4 -2q154 0 248 -94t94 -246v-381q0 -147 -92 -239t-248 -92t-248 92t-92 239v381q0 152 94 246q96 96 248 96zM461 68l-4 -2q113 0 180 67q68 68 68 176v393q0 106 -68 177t-178 71t-178 -71t-68 -177v-393q0 -106 68 -174q67 -67 180 -67zM455 1376h-4
q39 0 61 -28l147 -162q9 -9 9 -25q0 -39 -37 -39q-14 0 -31 17l-147 133l-152 -133q-17 -17 -31 -17q-37 0 -37 39q0 16 9 25l151 162q22 28 62 28z" />
    <glyph glyph-name="otilde" unicode="&#xf5;" horiz-adv-x="929" 
d="M465 1040l-4 -2q154 0 248 -94t94 -246v-381q0 -147 -92 -239t-248 -92t-248 92t-92 239v381q0 152 94 246q96 96 248 96zM461 68l-4 -2q113 0 180 67q68 68 68 176v393q0 106 -68 177t-178 71t-178 -71t-68 -177v-393q0 -106 68 -174q67 -67 180 -67zM575 1155v-4
q-53 0 -129 43t-104 43q-46 0 -61 -53q-9 -37 -48 -37q-43 0 -43 45q0 50 43 90q44 41 107 41q53 0 129 -43t104 -43q47 0 62 53q9 37 47 37q43 0 43 -45q0 -48 -43 -88q-42 -39 -107 -39z" />
    <glyph glyph-name="odieresis" unicode="&#xf6;" horiz-adv-x="929" 
d="M465 1040l-4 -2q154 0 248 -94t94 -246v-381q0 -147 -92 -239t-248 -92t-248 92t-92 239v381q0 152 94 246q96 96 248 96zM461 68l-4 -2q113 0 180 67q68 68 68 176v393q0 106 -68 177t-178 71t-178 -71t-68 -177v-393q0 -106 68 -174q67 -67 180 -67zM244 1245v-8
q0 31 22 53q23 23 53 23q29 0 50 -21q22 -22 22 -51t-22 -51q-21 -21 -50 -21q-30 0 -53 23q-22 22 -22 53zM518 1237v-8q0 30 23 53t49 23q32 0 53 -21q23 -23 23 -51t-23 -51q-21 -21 -53 -21q-26 0 -49 23t-23 53z" />
    <glyph glyph-name="divide" unicode="&#xf7;" horiz-adv-x="1155" 
d="M160 623l831 -5q23 0 35 -12t12 -33q0 -20 -12 -32q-13 -13 -33 -13h-835q-20 0 -33 13q-12 12 -12 34q0 23 12 35q13 13 35 13zM610 158h-69q-16 0 -25 12q-10 13 -10 27v69q0 14 10 27q9 12 25 12h69q16 0 25 -12q10 -13 10 -27v-69q0 -14 -10 -27q-9 -12 -25 -12z
M610 852h-69q-15 0 -25 10t-10 25v69q0 15 10 25t25 10h69q15 0 25 -10t10 -25v-69q0 -15 -10 -25t-25 -10z" />
    <glyph glyph-name="oslash" unicode="&#xf8;" horiz-adv-x="929" 
d="M465 1040l-6 -6q130 0 215 -67l28 51q9 18 31 18q14 0 27 -10q12 -9 12 -25q0 -10 -4 -18l-39 -68q74 -92 74 -223v-381q0 -147 -92 -239t-248 -92q-131 0 -217 63l-25 -45q-12 -18 -33 -18q-15 0 -24 12q-10 13 -10 26q0 7 4 19l35 63q-70 88 -70 217v381q0 152 94 246
q96 96 248 96zM459 63l-2 -2q112 0 180 68t68 176v393q0 60 -29 123l-389 -698q72 -60 172 -60zM211 305h2q0 -67 27 -119l389 697q-69 63 -172 63q-109 0 -178 -72q-68 -71 -68 -176v-393z" />
    <glyph glyph-name="ugrave" unicode="&#xf9;" 
d="M723 31l-4 102q-2 -4 -10 -16q-6 -8 -31 -37q-22 -25 -53 -49q-29 -22 -74 -37q-53 -17 -98 -17q-148 0 -234 86t-86 244v680q0 24 14 35q15 12 37 12q23 0 35 -12t12 -33v-672q0 -254 234 -254q97 0 176 76q80 77 80 191v659q0 24 14 35q15 12 37 12q23 0 35 -12t12 -33
v-962q0 -21 -12 -33t-33 -12q-22 0 -37 12q-14 11 -14 35zM377 1370l170 -186q10 -10 10 -25q0 -14 -12 -26q-13 -13 -27 -13q-18 0 -31 13l-182 165q-16 16 -16 37q0 23 14 37t37 14q21 0 37 -16z" />
    <glyph glyph-name="uacute" unicode="&#xfa;" 
d="M723 31l-4 102q-2 -4 -10 -16q-6 -8 -31 -37q-22 -25 -53 -49q-29 -22 -74 -37q-53 -17 -98 -17q-148 0 -234 86t-86 244v680q0 24 14 35q15 12 37 12q23 0 35 -12t12 -33v-672q0 -254 234 -254q97 0 176 76q80 77 80 191v659q0 24 14 35q15 12 37 12q23 0 35 -12t12 -33
v-962q0 -21 -12 -33t-33 -12q-22 0 -37 12q-14 11 -14 35zM393 1192l170 180q17 17 37 17q22 0 37 -15q14 -14 14 -37q0 -21 -16 -37l-182 -165q-13 -13 -31 -13q-14 0 -27 13q-12 12 -12 28q0 19 10 29z" />
    <glyph glyph-name="ucircumflex" unicode="&#xfb;" 
d="M723 31l-4 102q-2 -4 -10 -16q-6 -8 -31 -37q-22 -25 -53 -49q-29 -22 -74 -37q-53 -17 -98 -17q-148 0 -234 86t-86 244v680q0 24 14 35q15 12 37 12q23 0 35 -12t12 -33v-672q0 -254 234 -254q97 0 176 76q80 77 80 191v659q0 24 14 35q15 12 37 12q23 0 35 -12t12 -33
v-962q0 -21 -12 -33t-33 -12q-22 0 -37 12q-14 11 -14 35zM475 1376h-4q39 0 61 -28l148 -162q8 -8 8 -25q0 -39 -37 -39q-13 0 -30 17l-148 133l-151 -133q-17 -17 -31 -17q-37 0 -37 39q0 17 8 25l152 162q22 28 61 28z" />
    <glyph glyph-name="udieresis" unicode="&#xfc;" 
d="M723 31l-4 102q-2 -4 -10 -16q-6 -8 -31 -37q-22 -25 -53 -49q-29 -22 -74 -37q-53 -17 -98 -17q-148 0 -234 86t-86 244v680q0 24 14 35q15 12 37 12q23 0 35 -12t12 -33v-672q0 -254 234 -254q97 0 176 76q80 77 80 191v659q0 24 14 35q15 12 37 12q23 0 35 -12t12 -33
v-962q0 -21 -12 -33t-33 -12q-22 0 -37 12q-14 11 -14 35zM266 1245v-8q0 30 23 53t53 23q28 0 49 -21q23 -23 23 -51t-23 -51q-21 -21 -49 -21q-30 0 -53 23t-23 53zM541 1237v-8q0 31 22 53q23 23 49 23q33 0 54 -21q22 -22 22 -51t-22 -51q-21 -21 -54 -21q-26 0 -49 23
q-22 22 -22 53z" />
    <glyph glyph-name="yacute" unicode="&#xfd;" horiz-adv-x="886" 
d="M266 -317l131 356l-340 938q-4 16 -4 20q0 19 15 31t36 12q36 0 50 -36l297 -832l303 834q12 34 45 34q45 0 45 -41q0 -11 -8 -30l-488 -1323q-12 -35 -45 -35q-45 0 -45 41q0 12 8 31zM387 1196l170 182q17 17 37 17q22 0 37 -15q14 -14 14 -37q0 -20 -16 -36l-183 -166
q-13 -13 -30 -13q-14 0 -27 13q-12 12 -12 26q0 19 10 29z" />
    <glyph glyph-name="thorn" unicode="&#xfe;" horiz-adv-x="952" 
d="M733 334l2 364q0 124 -67 191t-174 67q-109 0 -181 -69q-73 -70 -73 -191v-352q0 -125 71 -199q70 -73 178 -73q110 0 177 67t67 195zM242 115l-4 -453q0 -20 -13 -33q-12 -12 -32 -12q-22 0 -37 12t-15 35v1745q0 22 13 35q12 12 34 12t37 -12t15 -33v-500q9 14 28 37
q20 23 86 60q65 36 144 36q149 0 241 -92t92 -235v-395q0 -150 -92 -242t-241 -92q-80 0 -144 30q-62 29 -88 66z" />
    <glyph glyph-name="ydieresis" unicode="&#xff;" horiz-adv-x="886" 
d="M266 -317l131 356l-340 938q-4 16 -4 20q0 19 15 31t36 12q36 0 50 -36l297 -832l303 834q12 34 45 34q45 0 45 -41q0 -11 -8 -30l-488 -1323q-12 -35 -45 -35q-45 0 -45 41q0 12 8 31zM233 1251v-8q0 30 23 53t53 23q28 0 49 -21q23 -23 23 -51t-23 -51q-20 -20 -49 -20
q-31 0 -53 22q-23 23 -23 53zM508 1243v-8q0 31 22 53q23 23 50 23q32 0 53 -21q22 -22 22 -51t-22 -51q-21 -21 -53 -21q-27 0 -50 23q-22 22 -22 53z" />
    <glyph glyph-name="Amacron" unicode="&#x100;" horiz-adv-x="1019" 
d="M764 588l-221 747h-66l-221 -747h508zM625 1397l241 -789q15 -52 15 -86v-485q0 -20 -17 -37q-16 -16 -37 -16q-20 0 -36 16q-17 17 -17 37v452h-520v-452q0 -21 -16 -37t-37 -16t-37 16q-17 17 -17 37v485q0 34 15 86l237 789q9 37 50 37h126q41 0 50 -37zM707 1618
h-390q-18 0 -30 12q-13 13 -13 31t13 31q12 12 30 12h390q18 0 30 -12q13 -13 13 -31t-13 -31q-12 -12 -30 -12z" />
    <glyph glyph-name="amacron" unicode="&#x101;" horiz-adv-x="913" 
d="M780 727v-707q0 -20 -12 -32q-13 -13 -33 -13q-21 0 -37 13q-14 11 -14 35l-2 73q-6 -6 -10 -12q-6 -9 -31 -31t-55 -37q-33 -17 -80 -28q-54 -13 -100 -13q-131 0 -220 86q-90 87 -90 218q0 129 86 215t232 104q50 7 108 10q71 3 115 6h45v97q0 102 -61 172
q-62 71 -162 71q-78 0 -135 -45q-58 -46 -76 -116q-9 -33 -43 -33q-21 0 -33 12t-12 35q0 60 82 145q83 86 227 86q145 0 227 -88q84 -90 84 -223zM418 53l2 -4q112 0 190 66t78 153v248q-168 3 -270 -12q-98 -14 -162 -78q-61 -61 -61 -154q0 -90 65 -155q64 -64 158 -64z
M666 1192h-390q-18 0 -30 12q-13 13 -13 31t13 31q12 12 30 12h390q18 0 30 -12q13 -13 13 -31t-13 -31q-12 -12 -30 -12z" />
    <glyph glyph-name="Abreve" unicode="&#x102;" horiz-adv-x="1019" 
d="M764 588l-221 747h-66l-221 -747h508zM625 1397l241 -789q15 -52 15 -86v-485q0 -20 -17 -37q-16 -16 -37 -16q-20 0 -36 16q-17 17 -17 37v452h-520v-452q0 -21 -16 -37t-37 -16t-37 16q-17 17 -17 37v485q0 34 15 86l237 789q9 37 50 37h126q41 0 50 -37zM514 1636
l4 -2q125 0 146 121q3 17 18 29t31 12q18 0 32 -14q15 -15 15 -37t-12 -49q-11 -24 -37 -62q-23 -33 -76 -57q-55 -25 -119 -25t-119 25q-52 24 -75 57q-26 38 -37 62q-13 29 -13 49q0 22 15 37q14 14 32 14q16 0 31 -12q16 -13 19 -27q21 -121 145 -121z" />
    <glyph glyph-name="abreve" unicode="&#x103;" horiz-adv-x="913" 
d="M780 727v-707q0 -20 -12 -32q-13 -13 -33 -13q-21 0 -37 13q-14 11 -14 35l-2 73q-6 -6 -10 -12q-6 -9 -31 -31t-55 -37q-33 -17 -80 -28q-54 -13 -100 -13q-131 0 -220 86q-90 87 -90 218q0 129 86 215t232 104q50 7 108 10q71 3 115 6h45v97q0 102 -61 172
q-62 71 -162 71q-78 0 -135 -45q-58 -46 -76 -116q-9 -33 -43 -33q-21 0 -33 12t-12 35q0 60 82 145q83 86 227 86q145 0 227 -88q84 -90 84 -223zM418 53l2 -4q112 0 190 66t78 153v248q-168 3 -270 -12q-98 -14 -162 -78q-61 -61 -61 -154q0 -90 65 -155q64 -64 158 -64z
M477 1210l4 -2q125 0 146 121q3 17 18 29t31 12q19 0 33 -14t14 -37q0 -22 -12 -49q-11 -24 -37 -62q-23 -33 -76 -57q-55 -25 -119 -25t-119 25q-52 24 -75 57q-26 38 -37 62q-12 27 -12 49q0 23 14 37t33 14q15 0 30 -12q16 -13 19 -27q21 -121 145 -121z" />
    <glyph glyph-name="Aogonek" unicode="&#x104;" horiz-adv-x="1019" 
d="M625 1397l239 -795q15 -52 15 -86v-485q0 -34 -35 -49q-38 -18 -84 -70q-47 -53 -47 -107q0 -37 24 -55t60 -18h51q16 0 29 -13q12 -12 12 -28q0 -17 -12 -29t-29 -12h-64q-71 0 -118 41q-45 39 -45 104q0 54 41 107q42 54 73 73q36 22 51 27q-12 15 -12 35v452h-520
v-452q0 -21 -16 -37t-37 -16t-37 16q-17 17 -17 37v485q0 34 15 86l237 789q9 37 50 37h126q41 0 50 -37zM766 582l-221 747h-66l-221 -747h508z" />
    <glyph glyph-name="aogonek" unicode="&#x105;" horiz-adv-x="913" 
d="M780 727v-709q0 -31 -32 -45q-34 -12 -89 -67t-55 -111q0 -36 25 -55t59 -19h51q17 0 29 -12t12 -28q0 -17 -12 -29t-29 -12h-63q-72 0 -119 41q-45 39 -45 104q0 54 43 106q45 54 80 74q46 26 57 29q-8 8 -8 29l-2 73q-6 -6 -10 -12q-6 -9 -31 -31t-55 -37
q-33 -17 -80 -28q-54 -13 -100 -13q-131 0 -220 86q-90 87 -90 218q0 129 86 215t232 104q50 7 108 10q71 3 115 6h45v97q0 102 -61 172q-62 71 -162 71q-78 0 -135 -45q-58 -46 -76 -116q-9 -33 -43 -33q-21 0 -33 12t-12 35q0 60 82 145q83 86 227 86q145 0 227 -88
q84 -90 84 -223zM418 51l2 -4q112 0 190 66t78 153v248q-168 3 -270 -12q-98 -14 -162 -78q-61 -61 -61 -154q0 -90 65 -155q64 -64 158 -64z" />
    <glyph glyph-name="Cacute" unicode="&#x106;" horiz-adv-x="976" 
d="M512 -16v-9q-156 0 -264 105q-107 104 -107 254v756q0 149 105 251q106 103 262 103q164 0 258 -105q94 -104 94 -211q0 -22 -14 -36q-15 -15 -37 -15q-21 0 -37 13q-15 12 -18 30q-9 96 -80 164t-172 68q-112 0 -185 -76t-73 -186v-752q0 -109 75 -184q76 -76 185 -76
t178 63q71 65 80 166q3 19 18 31t37 12q23 0 37 -14q16 -16 16 -37q0 -107 -98 -211t-260 -104zM436 1595l170 183q16 16 37 16q23 0 37 -14t14 -37q0 -21 -16 -37l-182 -166q-12 -12 -31 -12q-15 0 -27 12t-12 27q0 18 10 28z" />
    <glyph glyph-name="cacute" unicode="&#x107;" horiz-adv-x="907" 
d="M465 -16l-6 -4q-156 0 -248 92t-92 239v381q0 150 96 246t250 96q159 0 240 -90q79 -88 79 -172q0 -21 -12 -33t-33 -12q-39 0 -45 33q-18 92 -82 141t-153 49q-110 0 -178 -71t-68 -177v-393q0 -106 68 -174q67 -67 180 -67q98 0 164 57q68 59 80 154q3 14 18 26t31 12
q20 0 32 -12q13 -13 13 -33q0 -30 -19 -79q-18 -46 -55 -95q-36 -47 -104 -82q-63 -32 -156 -32zM371 1190l170 182q17 17 37 17q21 0 36 -15t15 -37q0 -20 -17 -37l-182 -165q-13 -13 -31 -13q-13 0 -26 13t-13 26q0 18 11 29z" />
    <glyph glyph-name="Ccircumflex" unicode="&#x108;" horiz-adv-x="976" 
d="M512 -16v-9q-156 0 -264 105q-107 104 -107 254v756q0 149 105 251q106 103 262 103q164 0 258 -105q94 -104 94 -211q0 -22 -14 -36q-15 -15 -37 -15q-21 0 -37 13q-15 12 -18 30q-9 96 -80 164t-172 68q-112 0 -185 -76t-73 -186v-752q0 -109 75 -184q76 -76 185 -76
t178 63q71 65 80 166q3 19 18 31t37 12q23 0 37 -14q16 -16 16 -37q0 -107 -98 -211t-260 -104zM522 1782h-4q39 0 62 -29l147 -162q8 -8 8 -24q0 -39 -37 -39q-14 0 -30 16l-148 133l-151 -133q-16 -16 -31 -16q-37 0 -37 39q0 16 8 24l152 162q23 29 61 29z" />
    <glyph glyph-name="ccircumflex" unicode="&#x109;" horiz-adv-x="907" 
d="M465 -16l-6 -4q-156 0 -248 92t-92 239v381q0 150 96 246t250 96q159 0 240 -90q79 -88 79 -172q0 -21 -12 -33t-33 -12q-39 0 -45 33q-18 92 -82 141t-153 49q-110 0 -178 -71t-68 -177v-393q0 -106 68 -174q67 -67 180 -67q98 0 164 57q68 59 80 154q3 14 18 26t31 12
q20 0 32 -12q13 -13 13 -33q0 -30 -19 -79q-18 -46 -55 -95q-36 -47 -104 -82q-63 -32 -156 -32zM459 1376h-4q39 0 61 -28l148 -162q8 -8 8 -25q0 -39 -37 -39q-14 0 -31 17l-147 133l-152 -133q-17 -17 -31 -17q-36 0 -36 39q0 17 8 25l151 162q22 28 62 28z" />
    <glyph glyph-name="Cdotaccent" unicode="&#x10a;" horiz-adv-x="976" 
d="M512 -16v-9q-156 0 -264 105q-107 104 -107 254v756q0 149 105 251q106 103 262 103q164 0 258 -105q94 -104 94 -211q0 -22 -14 -36q-15 -15 -37 -15q-21 0 -37 13q-15 12 -18 30q-9 96 -80 164t-172 68q-112 0 -185 -76t-73 -186v-752q0 -109 75 -184q76 -76 185 -76
t178 63q71 65 80 166q3 19 18 31t37 12q23 0 37 -14q16 -16 16 -37q0 -107 -98 -211t-260 -104zM446 1655q0 32 25 57t57 25q33 0 58 -25q24 -24 24 -57q0 -34 -24 -58t-58 -24q-33 0 -57 24q-25 25 -25 58z" />
    <glyph glyph-name="cdotaccent" unicode="&#x10b;" horiz-adv-x="907" 
d="M465 -16l-6 -4q-156 0 -248 92t-92 239v381q0 150 96 246t250 96q159 0 240 -90q79 -88 79 -172q0 -21 -12 -33t-33 -12q-39 0 -45 33q-18 92 -82 141t-153 49q-110 0 -178 -71t-68 -177v-393q0 -106 68 -174q67 -67 180 -67q98 0 164 57q68 59 80 154q3 14 18 26t31 12
q20 0 32 -12q13 -13 13 -33q0 -30 -19 -79q-18 -46 -55 -95q-36 -47 -104 -82q-63 -32 -156 -32zM395 1249q0 33 25 58q24 24 57 24q34 0 58 -24t24 -58q0 -33 -24 -57q-25 -25 -58 -25q-32 0 -57 25t-25 57z" />
    <glyph glyph-name="Ccaron" unicode="&#x10c;" horiz-adv-x="976" 
d="M512 -16v-9q-156 0 -264 105q-107 104 -107 254v756q0 149 105 251q106 103 262 103q164 0 258 -105q94 -104 94 -211q0 -22 -14 -36q-15 -15 -37 -15q-21 0 -37 13q-15 12 -18 30q-9 96 -80 164t-172 68q-112 0 -185 -76t-73 -186v-752q0 -109 75 -184q76 -76 185 -76
t178 63q71 65 80 166q3 19 18 31t37 12q23 0 37 -14q16 -16 16 -37q0 -107 -98 -211t-260 -104zM518 1530h4q-38 0 -61 29l-148 161q-8 8 -8 25q0 39 37 39q14 0 31 -17l147 -133l152 133q17 17 30 17q37 0 37 -39q0 -17 -8 -25l-151 -161q-23 -29 -62 -29z" />
    <glyph glyph-name="ccaron" unicode="&#x10d;" horiz-adv-x="907" 
d="M465 -16l-6 -4q-156 0 -248 92t-92 239v381q0 150 96 246t250 96q159 0 240 -90q79 -88 79 -172q0 -21 -12 -33t-33 -12q-39 0 -45 33q-18 92 -82 141t-153 49q-110 0 -178 -71t-68 -177v-393q0 -106 68 -174q67 -67 180 -67q98 0 164 57q68 59 80 154q3 14 18 26t31 12
q20 0 32 -12q13 -13 13 -33q0 -30 -19 -79q-18 -46 -55 -95q-36 -47 -104 -82q-63 -32 -156 -32zM467 1124h4q-38 0 -61 29l-148 162q-8 8 -8 24q0 39 37 39q15 0 31 -16l147 -133l152 133q16 16 30 16q37 0 37 -39q0 -16 -8 -24l-152 -162q-23 -29 -61 -29z" />
    <glyph glyph-name="Dcaron" unicode="&#x10e;" horiz-adv-x="1017" 
d="M514 0l-301 -2q-23 0 -37 14t-14 37v1335q0 23 14 37q15 15 37 15h301q153 0 258 -105t105 -258v-713q0 -151 -105 -256q-104 -104 -258 -104zM768 354v713q0 112 -74 186t-186 74h-238v-1233h238q112 0 186 74t74 186zM494 1534h4q-39 0 -62 29l-147 161q-8 8 -8 25
q0 39 36 39q15 0 31 -16l148 -134l151 134q16 16 31 16q37 0 37 -39q0 -17 -8 -25l-152 -161q-23 -29 -61 -29z" />
    <glyph glyph-name="dcaron" unicode="&#x10f;" horiz-adv-x="952" 
d="M217 690l-2 -368q0 -123 68 -191t174 -68q105 0 180 72q74 71 74 191v360q0 123 -72 195q-71 71 -178 71q-109 0 -176 -67q-68 -68 -68 -195zM709 905l-4 488q0 22 12 34q13 13 35 13q20 0 36 -13q15 -12 15 -32v-1370q0 -21 -12 -33t-33 -12q-22 0 -37 12q-14 11 -14 35
v82q-1 -2 -5 -7t-6 -8q-6 -9 -28 -31q-14 -14 -50 -38q-27 -18 -73 -33t-94 -15q-149 0 -242 93q-92 92 -92 237v395q0 150 92 242t242 92q93 0 153 -32q66 -35 86 -68zM907 1206l117 197q16 29 43 29q45 0 45 -46q0 -15 -10 -32l-133 -189q-19 -22 -39 -22q-33 0 -33 33
q0 13 10 30z" />
    <glyph glyph-name="Dcroat" unicode="&#x110;" horiz-adv-x="1021" 
d="M518 0l-301 2q-23 0 -37 14t-14 37v662h-90q-19 0 -31 12t-12 31q0 18 12 30q13 13 31 13h90v583q0 23 14 37q15 15 37 15h301q153 0 258 -105t105 -258v-713q0 -151 -105 -256q-104 -104 -258 -104zM467 713l-193 -6v-613h238q112 0 186 74t74 186v715q0 112 -74 186
t-186 74h-238v-530h193q18 0 31 -13q12 -12 12 -30q0 -19 -12 -31t-31 -12z" />
    <glyph glyph-name="dcroat" unicode="&#x111;" horiz-adv-x="952" 
d="M897 1180l-94 -4v-1147q0 -21 -12 -33t-33 -12q-22 0 -37 12q-14 11 -14 35v82q-1 -2 -5 -7t-6 -8q-4 -6 -28 -30q-17 -17 -50 -39q-27 -18 -73 -33q-43 -14 -94 -14q-150 0 -242 92t-92 237v396q0 149 92 241t242 92q93 0 153 -32q66 -35 86 -68l19 -31v269h-228
q-18 0 -30 12q-13 13 -13 31q0 17 13 30t30 13h228v135q0 23 12 35t35 12q22 0 37 -12q14 -11 14 -33v-135h90q18 0 31 -13q12 -12 12 -30q0 -19 -12 -31t-31 -12zM213 686l-2 -369q0 -122 68 -190t174 -68q105 0 180 72q74 71 74 191v360q0 123 -72 195q-71 71 -178 71
q-109 0 -176 -67q-68 -68 -68 -195z" />
    <glyph glyph-name="Emacron" unicode="&#x112;" horiz-adv-x="907" 
d="M213 1434l557 8q22 0 37 -15q14 -14 14 -36q0 -23 -14 -37q-15 -15 -37 -15h-500v-528h451q23 0 37 -14t14 -37t-14 -37t-37 -14h-451v-611h516q23 0 37 -14q15 -15 15 -37t-15 -37q-14 -14 -37 -14h-573q-23 0 -37 14t-14 37v1335q0 23 14 37q15 15 37 15zM688 1626
h-389q-19 0 -31 12t-12 31t12 31t31 12h389q19 0 31 -12t12 -31t-12 -31t-31 -12z" />
    <glyph glyph-name="emacron" unicode="&#x113;" horiz-adv-x="917" 
d="M219 715l-2 -142h492v138q0 100 -70 170q-71 71 -178 71q-108 0 -174 -69q-68 -71 -68 -168zM463 -20l-8 -7q-155 0 -248 93q-92 92 -92 239v387q0 148 94 242t248 94q150 0 245 -92t95 -240v-161q0 -24 -15 -39t-43 -15h-528v-180q0 -102 68 -170t176 -68q96 0 166 58
q69 57 81 153q3 14 19 27q15 12 31 12q20 0 32 -12q13 -13 13 -33q0 -31 -19 -80q-17 -44 -55 -94q-35 -46 -105 -82q-63 -32 -155 -32zM643 1198h-389q-19 0 -31 12t-12 31t12 31t31 12h389q19 0 31 -12t12 -31t-12 -31t-31 -12z" />
    <glyph glyph-name="Ebreve" unicode="&#x114;" horiz-adv-x="907" 
d="M213 1434l557 8q22 0 37 -15q14 -14 14 -36q0 -23 -14 -37q-15 -15 -37 -15h-500v-528h451q23 0 37 -14t14 -37t-14 -37t-37 -14h-451v-611h516q23 0 37 -14q15 -15 15 -37t-15 -37q-14 -14 -37 -14h-573q-23 0 -37 14t-14 37v1335q0 23 14 37q15 15 37 15zM504 1645
l4 -3q124 0 145 121q3 16 19 29q15 12 30 12q19 0 33 -14q15 -15 15 -37q0 -20 -13 -49q-11 -24 -37 -62q-23 -33 -75 -57t-119 -24q-66 0 -119 24t-76 57q-26 38 -37 62q-12 27 -12 49q0 23 14 37t33 14q16 0 31 -12t18 -27q21 -120 146 -120z" />
    <glyph glyph-name="ebreve" unicode="&#x115;" horiz-adv-x="917" 
d="M219 715l-2 -142h492v138q0 100 -70 170q-71 71 -178 71q-108 0 -174 -69q-68 -71 -68 -168zM463 -20l-8 -7q-155 0 -248 93q-92 92 -92 239v387q0 148 94 242t248 94q150 0 245 -92t95 -240v-161q0 -24 -15 -39t-43 -15h-528v-180q0 -102 68 -170t176 -68q96 0 166 58
q69 57 81 153q3 14 19 27q15 12 31 12q20 0 32 -12q13 -13 13 -33q0 -31 -19 -80q-17 -44 -55 -94q-35 -46 -105 -82q-63 -32 -155 -32zM457 1217l4 -3q124 0 145 121q3 16 19 29q15 12 30 12q19 0 33 -14t14 -37q0 -22 -12 -49q-11 -24 -37 -62q-23 -33 -75 -57t-119 -24
t-119 24q-53 24 -76 57q-26 38 -37 62q-12 27 -12 49q0 23 14 37t33 14q16 0 31 -12t18 -27q21 -120 146 -120z" />
    <glyph glyph-name="Edotaccent" unicode="&#x116;" horiz-adv-x="907" 
d="M213 1434l557 8q22 0 37 -15q14 -14 14 -36q0 -23 -14 -37q-15 -15 -37 -15h-500v-528h451q23 0 37 -14t14 -37t-14 -37t-37 -14h-451v-611h516q23 0 37 -14q15 -15 15 -37t-15 -37q-14 -14 -37 -14h-573q-23 0 -37 14t-14 37v1335q0 23 14 37q15 15 37 15zM430 1671
q0 33 25 58q24 24 57 24t57 -24q25 -25 25 -58q0 -32 -25 -57t-57 -25t-57 25t-25 57z" />
    <glyph glyph-name="edotaccent" unicode="&#x117;" horiz-adv-x="917" 
d="M219 715l-2 -142h492v138q0 100 -70 170q-71 71 -178 71q-108 0 -174 -69q-68 -71 -68 -168zM463 -20l-8 -7q-155 0 -248 93q-92 92 -92 239v387q0 148 94 242t248 94q150 0 245 -92t95 -240v-161q0 -24 -15 -39t-43 -15h-528v-180q0 -102 68 -170t176 -68q96 0 166 58
q69 57 81 153q3 14 19 27q15 12 31 12q20 0 32 -12q13 -13 13 -33q0 -31 -19 -80q-17 -44 -55 -94q-35 -46 -105 -82q-63 -32 -155 -32zM395 1243q0 32 25 57t57 25q33 0 58 -25q24 -24 24 -57t-24 -57q-25 -25 -58 -25q-32 0 -57 25t-25 57z" />
    <glyph glyph-name="Eogonek" unicode="&#x118;" horiz-adv-x="907" 
d="M776 -348l-65 6q-72 0 -119 41q-45 39 -45 104q0 59 43 111q44 53 84 74l43 20h-506q-22 0 -37 15q-14 14 -14 36v1336q0 23 14 37t37 14h557q23 0 37 -14t14 -37t-14 -37q-15 -15 -37 -15h-500v-528h451q23 0 37 -14t14 -37t-14 -37t-37 -14h-451v-611h516q23 0 37 -14
q15 -15 15 -37q0 -27 -23 -43l-14 -10q-25 -15 -29 -18q-10 -7 -31 -25q-18 -15 -34 -31q-11 -11 -31 -35q-17 -20 -25 -39t-8 -43q0 -36 25 -55q24 -18 59 -18h51q16 0 29 -13q12 -12 12 -28q0 -17 -12 -29t-29 -12z" />
    <glyph glyph-name="eogonek" unicode="&#x119;" horiz-adv-x="917" 
d="M465 -16l-10 -15q-156 0 -248 92t-92 240v387q0 148 94 242t248 94q150 0 245 -92t95 -240v-162q0 -23 -15 -38t-43 -15h-528v-180q0 -102 68 -170t176 -68q96 0 166 58q69 57 81 153q3 14 19 27q15 12 31 12q20 0 32 -12q13 -13 13 -33q0 -45 -35 -110q-35 -66 -98 -111
q-52 -37 -101 -104t-49 -132q0 -36 25 -55q24 -18 59 -18h51q16 0 29 -13q12 -12 12 -28q0 -17 -12 -29t-29 -12h-63q-72 0 -119 41q-45 39 -45 104q0 103 106 193q-30 -6 -63 -6zM209 700l-2 -141h491v137q0 101 -69 170q-72 72 -178 72q-108 0 -175 -70t-67 -168z" />
    <glyph glyph-name="Ecaron" unicode="&#x11a;" horiz-adv-x="907" 
d="M213 1434l557 8q22 0 37 -15q14 -14 14 -36q0 -23 -14 -37q-15 -15 -37 -15h-500v-528h451q23 0 37 -14t14 -37t-14 -37t-37 -14h-451v-611h516q23 0 37 -14q15 -15 15 -37t-15 -37q-14 -14 -37 -14h-573q-23 0 -37 14t-14 37v1335q0 23 14 37q15 15 37 15zM524 1546h4
q-38 0 -61 29l-148 162q-8 8 -8 24q0 39 37 39q15 0 31 -16l147 -133l152 133q16 16 31 16q36 0 36 -39q0 -16 -8 -24l-151 -162q-23 -29 -62 -29z" />
    <glyph glyph-name="ecaron" unicode="&#x11b;" horiz-adv-x="917" 
d="M219 715l-2 -142h492v138q0 100 -70 170q-71 71 -178 71q-108 0 -174 -69q-68 -71 -68 -168zM463 -20l-8 -7q-155 0 -248 93q-92 92 -92 239v387q0 148 94 242t248 94q150 0 245 -92t95 -240v-161q0 -24 -15 -39t-43 -15h-528v-180q0 -102 68 -170t176 -68q96 0 166 58
q69 57 81 153q3 14 19 27q15 12 31 12q20 0 32 -12q13 -13 13 -33q0 -31 -19 -80q-17 -44 -55 -94q-35 -46 -105 -82q-63 -32 -155 -32zM455 1118h4q-39 0 -62 29l-147 162q-8 8 -8 24q0 39 37 39q14 0 30 -16l148 -133l151 133q16 16 31 16q37 0 37 -39q0 -16 -8 -24
l-152 -162q-23 -29 -61 -29z" />
    <glyph glyph-name="Gcircumflex" unicode="&#x11c;" horiz-adv-x="1032" 
d="M899 653v-321q0 -151 -104 -252q-103 -100 -271 -100t-276 102q-107 101 -107 252v756q0 150 107 251q109 103 276 103q163 0 262 -105t99 -211q0 -21 -15 -36t-36 -15t-37 13t-19 30q-9 96 -80 164t-178 68q-120 0 -196 -76t-76 -186v-756q0 -111 76 -184
q77 -74 198 -74t195 74t74 184v268h-168q-23 0 -37 14q-15 15 -15 37t15 37t37 15h225q22 0 37 -15q14 -14 14 -37zM516 1784h-4q38 0 61 -29l148 -162q8 -8 8 -24q0 -39 -37 -39q-14 0 -30 16l-148 133l-152 -133q-16 -16 -30 -16q-37 0 -37 39q0 16 8 24l152 162
q23 29 61 29z" />
    <glyph glyph-name="gcircumflex" unicode="&#x11d;" horiz-adv-x="868" 
d="M61 -158h-8q0 23 15 35t36 12q45 0 48 -47q3 -63 79 -100q75 -37 195 -37q134 0 215 37q84 38 84 108q0 58 -66 103l-233 156q-70 46 -70 141v67q-105 15 -180 99q-74 83 -74 190v142q0 119 93 206q92 86 219 86q104 0 176 -57l51 64q37 49 84 49q43 0 43 -41
q0 -34 -33 -43q-30 -6 -49 -35l-35 -47q70 -82 70 -187v-141q0 -106 -80 -192q-81 -87 -186 -99v-65q0 -47 61 -84l184 -125q125 -82 125 -191q0 -83 -63 -137q-65 -56 -150 -74q-86 -18 -180 -18q-159 0 -264 57q-107 58 -107 168zM618 604l-4 144q0 89 -63 149
q-64 61 -148 61q-88 0 -149 -61t-61 -149v-140q0 -88 61 -149q62 -62 152 -62q82 0 147 62t65 145zM406 1384h-5q40 0 62 -28l147 -162q8 -8 8 -25q0 -39 -36 -39q-14 0 -31 17l-148 133l-151 -133q-17 -17 -31 -17q-37 0 -37 39q0 16 9 25l151 162q22 28 62 28z" />
    <glyph glyph-name="Gbreve" unicode="&#x11e;" horiz-adv-x="1032" 
d="M899 653v-321q0 -151 -104 -252q-103 -100 -271 -100t-276 102q-107 101 -107 252v756q0 150 107 251q109 103 276 103q163 0 262 -105t99 -211q0 -21 -15 -36t-36 -15t-37 13t-19 30q-9 96 -80 164t-178 68q-120 0 -196 -76t-76 -186v-756q0 -111 76 -184
q77 -74 198 -74t195 74t74 184v268h-168q-23 0 -37 14q-15 15 -15 37t15 37t37 15h225q22 0 37 -15q14 -14 14 -37zM524 1630l4 -2q125 0 146 121q3 17 18 29t31 12q19 0 33 -14t14 -37q0 -22 -12 -49q-11 -24 -37 -62q-23 -33 -76 -57q-55 -25 -119 -25q-63 0 -118 25
q-53 24 -76 57q-26 38 -37 62q-12 27 -12 49q0 23 14 37t33 14q15 0 30 -12q16 -13 19 -27q21 -121 145 -121z" />
    <glyph glyph-name="gbreve" unicode="&#x11f;" horiz-adv-x="868" 
d="M61 -158h-8q0 23 15 35t36 12q45 0 48 -47q3 -63 79 -100q75 -37 195 -37q134 0 215 37q84 38 84 108q0 58 -66 103l-233 156q-70 46 -70 141v67q-105 15 -180 99q-74 83 -74 190v142q0 119 93 206q92 86 219 86q104 0 176 -57l51 64q37 49 84 49q43 0 43 -41
q0 -34 -33 -43q-30 -6 -49 -35l-35 -47q70 -82 70 -187v-141q0 -106 -80 -192q-81 -87 -186 -99v-65q0 -47 61 -84l184 -125q125 -82 125 -191q0 -83 -63 -137q-65 -56 -150 -74q-86 -18 -180 -18q-159 0 -264 57q-107 58 -107 168zM618 604l-4 144q0 89 -63 149
q-64 61 -148 61q-88 0 -149 -61t-61 -149v-140q0 -88 61 -149q62 -62 152 -62q82 0 147 62t65 145zM406 1231l4 -2q124 0 145 121q3 16 18 28q16 13 31 13q18 0 33 -15q14 -14 14 -37q0 -22 -12 -49q-10 -22 -37 -61q-24 -34 -76 -58q-53 -24 -118 -24q-66 0 -119 24
q-52 24 -76 58q-27 39 -37 61q-12 27 -12 49q0 23 14 37q15 15 33 15q15 0 31 -13q15 -12 18 -26q21 -121 146 -121z" />
    <glyph glyph-name="Gdotaccent" unicode="&#x120;" horiz-adv-x="1032" 
d="M899 653v-321q0 -151 -104 -252q-103 -100 -271 -100t-276 102q-107 101 -107 252v756q0 150 107 251q109 103 276 103q163 0 262 -105t99 -211q0 -21 -15 -36t-36 -15t-37 13t-19 30q-9 96 -80 164t-178 68q-120 0 -196 -76t-76 -186v-756q0 -111 76 -184
q77 -74 198 -74t195 74t74 184v268h-168q-23 0 -37 14q-15 15 -15 37t15 37t37 15h225q22 0 37 -15q14 -14 14 -37zM438 1657q0 32 25 57t57 25q33 0 58 -25q24 -24 24 -57q0 -34 -24 -58t-58 -24q-33 0 -57 24q-25 25 -25 58z" />
    <glyph glyph-name="gdotaccent" unicode="&#x121;" horiz-adv-x="868" 
d="M61 -158h-8q0 23 15 35t36 12q45 0 48 -47q3 -63 79 -100q75 -37 195 -37q134 0 215 37q84 38 84 108q0 58 -66 103l-233 156q-70 46 -70 141v67q-105 15 -180 99q-74 83 -74 190v142q0 119 93 206q92 86 219 86q104 0 176 -57l51 64q37 49 84 49q43 0 43 -41
q0 -34 -33 -43q-30 -6 -49 -35l-35 -47q70 -82 70 -187v-141q0 -106 -80 -192q-81 -87 -186 -99v-65q0 -47 61 -84l184 -125q125 -82 125 -191q0 -83 -63 -137q-65 -56 -150 -74q-86 -18 -180 -18q-159 0 -264 57q-107 58 -107 168zM618 604l-4 144q0 89 -63 149
q-64 61 -148 61q-88 0 -149 -61t-61 -149v-140q0 -88 61 -149q62 -62 152 -62q82 0 147 62t65 145zM326 1257h-4q0 34 24 58t60 24q35 0 59 -24t24 -58q0 -33 -24 -57t-57 -24q-34 0 -58 24t-24 57z" />
    <glyph glyph-name="Gcommaaccent" unicode="&#x122;" horiz-adv-x="1032" 
d="M899 653v-321q0 -151 -104 -252q-103 -100 -271 -100t-276 102q-107 101 -107 252v756q0 150 107 251q109 103 276 103q163 0 262 -105t99 -211q0 -21 -15 -36t-36 -15t-37 13t-19 30q-9 96 -80 164t-178 68q-120 0 -196 -76t-76 -186v-756q0 -111 76 -184
q77 -74 198 -74t195 74t74 184v268h-168q-23 0 -37 14q-15 15 -15 37t15 37t37 15h225q22 0 37 -15q14 -14 14 -37zM375 -326l117 197q16 29 43 29q45 0 45 -45q0 -15 -11 -33l-133 -189q-19 -22 -39 -22q-32 0 -32 33q0 13 10 30z" />
    <glyph glyph-name="gcommaaccent" unicode="&#x123;" horiz-adv-x="868" 
d="M61 -158h-8q0 23 15 35t36 12q45 0 48 -47q3 -63 79 -100q75 -37 195 -37q134 0 215 37q84 38 84 108q0 58 -66 103l-233 156q-70 46 -70 141v67q-105 15 -180 99q-74 83 -74 190v142q0 119 93 206q92 86 219 86q104 0 176 -57l51 64q37 49 84 49q43 0 43 -41
q0 -34 -33 -43q-30 -6 -49 -35l-35 -47q70 -82 70 -187v-141q0 -106 -80 -192q-81 -87 -186 -99v-65q0 -47 61 -84l184 -125q125 -82 125 -191q0 -83 -63 -137q-65 -56 -150 -74q-86 -18 -180 -18q-159 0 -264 57q-107 58 -107 168zM618 604l-4 144q0 89 -63 149
q-64 61 -148 61q-88 0 -149 -61t-61 -149v-140q0 -88 61 -149q62 -62 152 -62q82 0 147 62t65 145zM580 1352l-117 -197q-16 -29 -43 -29q-45 0 -45 45q0 16 10 33l133 189q19 22 39 22q33 0 33 -33q0 -13 -10 -30z" />
    <glyph glyph-name="Hcircumflex" unicode="&#x124;" horiz-adv-x="1060" 
d="M903 1397l-8 -1360q0 -23 -14 -37q-16 -16 -37 -16t-37 16q-14 14 -14 37v672h-533v-672q0 -23 -14 -37q-16 -16 -37 -16t-37 16q-14 14 -14 37v1360q0 21 16 37t37 16t37 -16t16 -37v-592h533v592q0 21 16 37t37 16t37 -16t16 -37zM526 1790h-4q39 0 62 -29l147 -162
q8 -8 8 -24q0 -39 -37 -39q-14 0 -30 16l-148 134l-151 -134q-16 -16 -31 -16q-37 0 -37 39q0 16 8 24l152 162q23 29 61 29z" />
    <glyph glyph-name="hcircumflex" unicode="&#x125;" 
d="M240 1403l-2 -506l10 16q4 6 31 33t51 43q27 18 73 33q43 14 93 14q149 0 239 -90t90 -239v-680q0 -22 -14 -33q-15 -12 -37 -12q-21 0 -33 12t-12 35v671q0 115 -65 183q-64 67 -177 67q-103 0 -176 -73t-73 -191v-659q0 -21 -15 -33t-37 -12q-20 0 -32 12
q-13 13 -13 35v1372q0 22 13 35q12 12 34 12t37 -12t15 -33zM416 1780h-4q38 0 61 -29l148 -162q8 -8 8 -24q0 -39 -37 -39q-15 0 -31 16l-147 133l-152 -133q-16 -16 -31 -16q-36 0 -36 39q0 16 8 24l151 162q23 29 62 29z" />
    <glyph glyph-name="Hbar" unicode="&#x126;" horiz-adv-x="1064" 
d="M971 1073h-80v-1036q0 -23 -14 -37q-16 -16 -37 -16t-37 16q-15 15 -15 37v672h-520v-672q0 -23 -14 -37q-16 -16 -37 -16t-37 16q-14 14 -14 37v1036h-72q-19 0 -31 12t-12 31t12 31t31 12h72v234q0 21 16 37t37 16t37 -16t16 -37v-234h521v234q0 21 16 37t37 16t37 -16
t16 -37v-234h72q18 0 30 -12q13 -13 13 -31t-13 -31q-12 -12 -30 -12zM264 805h520v268h-520v-268z" />
    <glyph glyph-name="hbar" unicode="&#x127;" horiz-adv-x="962" 
d="M473 1180l-235 -6v-277l10 16q4 6 31 33t51 43q27 18 73 33q43 14 93 14q149 0 239 -90t90 -239v-680q0 -22 -14 -33q-15 -12 -37 -12q-21 0 -33 12t-12 35v671q0 115 -65 183q-64 67 -177 67q-103 0 -176 -73t-73 -191v-659q0 -21 -15 -33t-37 -12q-20 0 -32 12
q-13 13 -13 35v1149h-92q-19 0 -31 12t-12 31q0 18 12 30q13 13 31 13h92v135q0 22 13 35q12 12 34 12t37 -12t15 -33v-135h233q18 0 31 -13q12 -12 12 -30q0 -19 -12 -31t-31 -12z" />
    <glyph glyph-name="Itilde" unicode="&#x128;" horiz-adv-x="436" 
d="M272 1397l-4 -1360q0 -23 -14 -37q-16 -16 -37 -16t-37 16q-14 14 -14 37v1360q0 21 16 37t37 16t37 -16t16 -37zM334 1569v-4q-53 0 -129 43t-105 43q-46 0 -61 -54q-9 -36 -47 -36q-43 0 -43 45q0 50 43 90q44 41 106 41q53 0 129 -43t105 -43q46 0 61 53q9 37 47 37
q43 0 43 -45q0 -48 -43 -88q-42 -39 -106 -39z" />
    <glyph glyph-name="itilde" unicode="&#x129;" horiz-adv-x="413" 
d="M256 993v-966q0 -22 -14 -33q-15 -12 -37 -12t-37 12q-14 11 -14 35v962q0 24 14 35q15 12 37 12t37 -12q14 -11 14 -33zM326 1155v-4q-53 0 -129 43t-105 43q-46 0 -61 -53q-9 -37 -47 -37q-43 0 -43 45q0 50 43 90q44 41 106 41q53 0 129 -43t105 -43q46 0 61 53
q9 37 47 37q43 0 43 -45q0 -48 -43 -88q-42 -39 -106 -39z" />
    <glyph glyph-name="Imacron" unicode="&#x12a;" horiz-adv-x="436" 
d="M272 1397l-4 -1360q0 -23 -14 -37q-16 -16 -37 -16t-37 16q-14 14 -14 37v1360q0 21 16 37t37 16t37 -16t16 -37zM410 1618h-390q-18 0 -30 12q-13 13 -13 31t13 31q12 12 30 12h390q18 0 30 -12q13 -13 13 -31t-13 -31q-12 -12 -30 -12z" />
    <glyph glyph-name="imacron" unicode="&#x12b;" horiz-adv-x="413" 
d="M256 993v-966q0 -22 -14 -33q-15 -12 -37 -12t-37 12q-14 11 -14 35v962q0 24 14 35q15 12 37 12t37 -12q14 -11 14 -33zM401 1204h-389q-17 0 -30 13t-13 30q0 18 13 31q12 12 30 12h389q19 0 31 -12t12 -31q0 -18 -12 -30q-13 -13 -31 -13z" />
    <glyph glyph-name="Ibreve" unicode="&#x12c;" horiz-adv-x="436" 
d="M272 1397l-4 -1360q0 -23 -14 -37q-16 -16 -37 -16t-37 16q-14 14 -14 37v1360q0 21 16 37t37 16t37 -16t16 -37zM215 1636l4 -2q125 0 146 121q3 17 18 29t31 12q18 0 32 -14q15 -15 15 -37t-12 -49q-11 -24 -37 -62q-23 -33 -76 -57q-55 -25 -119 -25t-119 25
q-52 24 -75 57q-26 38 -37 62q-13 29 -13 49q0 22 15 37q14 14 32 14q16 0 31 -12q16 -13 19 -27q21 -121 145 -121z" />
    <glyph glyph-name="ibreve" unicode="&#x12d;" horiz-adv-x="413" 
d="M256 993v-966q0 -22 -14 -33q-15 -12 -37 -12t-37 12q-14 11 -14 35v962q0 24 14 35q15 12 37 12t37 -12q14 -11 14 -33zM207 1223l4 -2q124 0 145 120q3 16 19 29q15 12 31 12q18 0 32 -14q15 -15 15 -37q0 -20 -13 -49q-10 -22 -37 -61q-24 -35 -75 -58
q-52 -24 -119 -24t-119 24t-76 58q-27 39 -37 61q-12 27 -12 49t15 37q14 14 32 14q16 0 31 -12t18 -27q21 -120 146 -120z" />
    <glyph glyph-name="Iogonek" unicode="&#x12e;" horiz-adv-x="434" 
d="M270 1397l-4 -1364q0 -35 -33 -49q-40 -18 -86 -70q-47 -53 -47 -107q0 -36 25 -55q24 -18 59 -18h52q15 0 28 -13q12 -12 12 -28q0 -17 -12 -29t-28 -12h-64q-72 0 -119 41q-45 39 -45 104q0 36 19 72q15 29 41 55q25 25 49 41q29 19 43 25q13 5 18 10q-14 14 -14 37
v1360q0 21 16 37t37 16t37 -16t16 -37z" />
    <glyph glyph-name="iogonek" unicode="&#x12f;" horiz-adv-x="413" 
d="M256 993l-6 -966q0 -24 -19 -37q-29 -23 -59 -72q-31 -51 -31 -113q0 -36 25 -55q24 -18 59 -18h51q16 0 29 -13q12 -12 12 -28q0 -17 -12 -29t-29 -12h-63q-72 0 -119 41q-45 39 -45 104q0 117 121 197q-16 13 -16 37v962q0 24 14 35q15 12 37 12t37 -12q14 -11 14 -33z
M119 1251l-4 -4q0 36 24 60t60 24q35 0 59 -24q25 -25 25 -58q0 -32 -25 -57t-57 -25q-33 0 -58 25q-24 24 -24 59z" />
    <glyph glyph-name="Idotaccent" unicode="&#x130;" horiz-adv-x="436" 
d="M272 1397l-4 -1360q0 -23 -14 -37q-16 -16 -37 -16t-37 16q-14 14 -14 37v1360q0 21 16 37t37 16t37 -16t16 -37zM137 1663h-4q0 32 25 57t59 25t59 -25t25 -57t-25 -57t-57 -25t-57 25t-25 57z" />
    <glyph glyph-name="dotlessi" unicode="&#x131;" horiz-adv-x="413" 
d="M256 993v-966q0 -22 -14 -33q-15 -12 -37 -12t-37 12q-14 11 -14 35v962q0 24 14 35q15 12 37 12t37 -12q14 -11 14 -33z" />
    <glyph glyph-name="IJ" unicode="&#x132;" horiz-adv-x="1302" 
d="M270 1397v-1360q0 -21 -16 -37t-37 -16t-37 16t-16 37v1360q0 21 16 37t37 16t37 -16t16 -37zM633 469l2 -180q0 -95 59 -154q57 -57 142 -57q88 0 147 59t59 154v1104q0 20 17 37q16 16 37 16t37 -16t16 -37v-1106q0 -132 -90 -219q-89 -86 -221 -86q-133 0 -222 86
q-90 87 -90 219v178q0 20 17 37q16 16 37 16q22 0 36 -14q17 -17 17 -37z" />
    <glyph glyph-name="ij" unicode="&#x133;" horiz-adv-x="829" 
d="M125 1255l-4 -4q0 36 24 60t60 24q35 0 59 -24q25 -25 25 -58q0 -32 -25 -57t-57 -25t-57 25t-25 59zM252 989v-966q0 -22 -14 -33q-16 -13 -37 -13t-37 13q-14 11 -14 35v962q0 24 14 35q15 12 37 12t37 -12q14 -11 14 -33zM537 1247l-2 -4q0 36 24 60t59 24
q34 0 58 -24t24 -58q0 -33 -24 -57q-25 -25 -58 -25q-32 0 -57 25q-24 24 -24 59zM293 -356q-23 13 -23 39q0 17 13 30t30 13q13 0 25 -9q36 -22 84 -22q65 0 104 45q41 47 41 123v1116q0 22 13 35q12 12 34 12t37 -12t15 -33v-1110q0 -118 -70 -188q-72 -72 -174 -72
q-79 0 -129 33z" />
    <glyph glyph-name="Jcircumflex" unicode="&#x134;" horiz-adv-x="868" 
d="M199 469l2 -180q0 -95 59 -154q57 -57 141 -57q89 0 148 59t59 154v1104q0 20 17 37q16 16 37 16q20 0 36 -16q17 -17 17 -37v-1106q0 -132 -90 -219q-89 -86 -222 -86q-132 0 -221 86q-90 87 -90 219v178q0 20 17 37q16 16 36 16q23 0 37 -14q17 -17 17 -37zM664 1788
h-5q39 0 62 -29l147 -162q9 -9 9 -24q0 -39 -37 -39q-15 0 -31 16l-147 133l-152 -133q-16 -16 -31 -16q-37 0 -37 39q0 15 9 24l151 162q23 29 62 29z" />
    <glyph glyph-name="jcircumflex" unicode="&#x135;" horiz-adv-x="415" 
d="M-115 -344q-22 13 -22 39q0 19 12 31t31 12q13 0 24 -8q38 -23 84 -23q66 0 105 45q41 47 41 123v1116q0 23 12 35t35 12q22 0 37 -12q14 -11 14 -33v-1110q0 -118 -70 -188q-72 -72 -174 -72q-79 0 -129 33zM211 1380h-4q39 0 61 -28l148 -162q8 -8 8 -25q0 -39 -37 -39
q-14 0 -31 17l-147 133l-152 -133q-17 -17 -30 -17q-37 0 -37 39q0 17 8 25l152 162q22 28 61 28z" />
    <glyph glyph-name="Kcommaaccent" unicode="&#x136;" horiz-adv-x="940" 
d="M801 4l-537 737v-710q0 -23 -14 -37q-17 -17 -37 -17t-37 17q-14 14 -14 37v1360q0 20 16 36q17 17 37 17t37 -17q16 -16 16 -36v-627l510 659q16 19 37 19q23 0 35 -12t12 -33q0 -17 -8 -25l-477 -608l508 -705q8 -8 8 -24q0 -23 -14 -37t-37 -14q-27 0 -41 20z
M338 -326l117 197q16 29 43 29q45 0 45 -45q0 -15 -11 -33l-133 -189q-19 -22 -39 -22q-32 0 -32 33q0 13 10 30z" />
    <glyph glyph-name="kcommaaccent" unicode="&#x137;" horiz-adv-x="806" 
d="M715 967l-387 -424l411 -490q9 -9 9 -28q0 -20 -13 -33q-12 -12 -33 -12t-36 18l-435 524v-495q0 -21 -12 -33t-33 -12q-20 0 -32 12q-13 13 -13 35v1372q0 22 13 35q12 12 32 12q22 0 37 -12t15 -33v-842l403 461q15 18 37 18q23 0 35 -12t12 -31q0 -13 -10 -30z
M285 -326l116 197q16 29 43 29q45 0 45 -45q0 -16 -10 -33l-133 -189q-19 -22 -39 -22q-33 0 -33 33q0 12 11 30z" />
    <glyph glyph-name="kgreenlandic" unicode="&#x138;" horiz-adv-x="806" 
d="M715 967l-387 -426l411 -488q9 -9 9 -28q0 -20 -13 -33q-12 -12 -33 -12t-36 18l-435 524v-495q0 -21 -12 -33t-33 -12q-20 0 -32 12q-13 13 -13 35v962q0 22 13 35q12 12 32 12q22 0 37 -12t15 -33v-432l403 461q15 18 37 18q23 0 35 -12t12 -31q0 -13 -10 -30z" />
    <glyph glyph-name="Lacute" unicode="&#x139;" horiz-adv-x="776" 
d="M707 0l-490 4q-21 0 -37 16t-16 37v1344q0 21 16 37t37 16t37 -16t16 -37v-1299h437q22 0 36 -14q15 -15 15 -37t-15 -37q-14 -14 -36 -14zM262 1608l170 182q16 16 37 16q23 0 37 -14t14 -37q0 -21 -16 -37l-182 -166q-12 -12 -31 -12q-15 0 -27 12t-12 27q0 19 10 29z
" />
    <glyph glyph-name="lacute" unicode="&#x13a;" horiz-adv-x="385" 
d="M242 1403v-1376q0 -21 -15 -33t-37 -12q-21 0 -36 12t-15 35v1372q0 23 15 35t36 12q22 0 37 -12t15 -33zM162 1597l170 181q16 16 37 16q23 0 37 -14t14 -37q0 -20 -17 -37l-182 -166q-12 -12 -31 -12q-14 0 -26 12t-12 29q0 18 10 28z" />
    <glyph glyph-name="Lcommaaccent" unicode="&#x13b;" horiz-adv-x="776" 
d="M707 0l-490 4q-21 0 -37 16t-16 37v1344q0 21 16 37t37 16t37 -16t16 -37v-1299h437q22 0 36 -14q15 -15 15 -37t-15 -37q-14 -14 -36 -14zM322 -315l116 196q16 29 43 29q45 0 45 -45q0 -16 -10 -33l-133 -188q-20 -23 -39 -23q-33 0 -33 33q0 13 11 31z" />
    <glyph glyph-name="lcommaaccent" unicode="&#x13c;" horiz-adv-x="385" 
d="M242 1403v-1376q0 -21 -15 -33t-37 -12q-21 0 -36 12t-15 35v1372q0 23 15 35t36 12q22 0 37 -12t15 -33zM47 -324l117 197q16 29 43 29q45 0 45 -45q0 -16 -10 -33l-133 -189q-19 -22 -39 -22q-33 0 -33 33q0 13 10 30z" />
    <glyph glyph-name="Lcaron" unicode="&#x13d;" horiz-adv-x="776" 
d="M707 0l-490 4q-21 0 -37 16t-16 37v1344q0 21 16 37t37 16t37 -16t16 -37v-1299h437q22 0 36 -14q15 -15 15 -37t-15 -37q-14 -14 -36 -14zM530 1223l117 196q16 29 43 29q45 0 45 -45q0 -16 -10 -33l-133 -188q-20 -23 -39 -23q-33 0 -33 33q0 14 10 31z" />
    <glyph glyph-name="lcaron" unicode="&#x13e;" horiz-adv-x="385" 
d="M242 1403v-1376q0 -21 -15 -33t-37 -12q-21 0 -36 12t-15 35v1372q0 23 15 35t36 12q22 0 37 -12t15 -33zM346 1212l117 197q16 29 43 29q45 0 45 -45q0 -16 -10 -33l-133 -189q-19 -22 -39 -22q-33 0 -33 33q0 13 10 30z" />
    <glyph glyph-name="Ldot" unicode="&#x13f;" horiz-adv-x="776" 
d="M707 0l-490 4q-21 0 -37 16t-16 37v1344q0 21 16 37t37 16t37 -16t16 -37v-1299h437q22 0 36 -14q15 -15 15 -37t-15 -37q-14 -14 -36 -14zM684 535h-70q-15 0 -24 12q-10 13 -10 26v70q0 14 10 27q9 12 24 12h70q16 0 25 -12q10 -13 10 -27v-70q0 -13 -10 -26
q-9 -12 -25 -12z" />
    <glyph glyph-name="ldot" unicode="&#x140;" horiz-adv-x="559" 
d="M242 1403v-1376q0 -21 -15 -33t-37 -12q-21 0 -36 12t-15 35v1372q0 23 15 35t36 12q22 0 37 -12t15 -33zM498 524h-70q-12 0 -27 11q-12 9 -12 24v70q0 15 12 24q15 11 27 11h70q11 0 26 -11q13 -10 13 -24v-70q0 -14 -13 -24q-15 -11 -26 -11z" />
    <glyph glyph-name="Lslash" unicode="&#x141;" horiz-adv-x="808" 
d="M598 825l-315 -178v-545h436q23 0 37 -14t14 -37t-14 -37t-37 -14h-490q-20 0 -36 16q-15 15 -15 37v529l-80 -45q-11 -7 -24 -7q-18 0 -31 13q-12 12 -12 30q0 26 22 39l125 72v711q0 20 17 37q16 16 36 16q21 0 37 -16q17 -17 17 -37v-650l268 156q9 6 25 6
q18 0 30 -12q13 -13 13 -31q0 -26 -23 -39z" />
    <glyph glyph-name="lslash" unicode="&#x142;" horiz-adv-x="428" 
d="M412 836l-154 -93v-716q0 -22 -14 -33q-15 -12 -37 -12q-21 0 -33 12t-12 35v659l-78 -45q-12 -6 -23 -6q-16 0 -28 12q-13 13 -13 31q0 25 21 37l123 69v613q0 23 12 35t35 12q22 0 37 -12q14 -11 14 -33v-555l107 61q9 6 24 6q17 0 29 -12t12 -31q0 -21 -22 -34z" />
    <glyph glyph-name="Nacute" unicode="&#x143;" horiz-adv-x="1060" 
d="M782 25l-526 1196q8 -177 8 -476v-712q0 -23 -14 -37t-37 -14t-37 14t-14 37l-2 1356q0 61 55 61q44 0 59 -41l529 -1200q-10 218 -10 479v713q0 23 14 37t37 14t37 -14t14 -37l2 -1356q0 -61 -55 -61q-45 0 -60 41zM502 1604l170 182q16 16 37 16q22 0 36 -14
q15 -15 15 -37q0 -20 -17 -37l-182 -166q-12 -12 -31 -12q-14 0 -26 12t-12 27q0 19 10 29z" />
    <glyph glyph-name="nacute" unicode="&#x144;" 
d="M238 993l-7 -114q1 2 5.5 8t5.5 8q9 13 30 37q23 26 56 49q32 22 80 37q53 16 102 16q145 0 227 -88q84 -90 84 -239v-680q0 -22 -14 -33q-15 -12 -37 -12q-21 0 -33 12t-12 35v671q0 117 -59 185q-58 67 -172 67q-99 0 -177 -75q-79 -76 -79 -191v-659q0 -21 -15 -33
t-37 -12q-20 0 -32 12q-13 13 -13 35v962q0 22 13 35q12 12 32 12q22 0 37 -12t15 -33zM406 1186l169 182q16 16 37 16q23 0 37 -14q15 -15 15 -37q0 -20 -17 -37l-182 -166q-12 -12 -31 -12q-14 0 -26 12q-13 13 -13 27q0 18 11 29z" />
    <glyph glyph-name="Ncommaaccent" unicode="&#x145;" horiz-adv-x="1060" 
d="M782 25l-526 1196q8 -177 8 -476v-712q0 -23 -14 -37t-37 -14t-37 14t-14 37l-2 1356q0 61 55 61q44 0 59 -41l529 -1200q-10 218 -10 479v713q0 23 14 37t37 14t37 -14t14 -37l2 -1356q0 -61 -55 -61q-45 0 -60 41zM367 -319l116 196q16 29 43 29q45 0 45 -45
q0 -16 -10 -33l-133 -188q-20 -23 -39 -23q-33 0 -33 33q0 13 11 31z" />
    <glyph glyph-name="ncommaaccent" unicode="&#x146;" 
d="M238 993l-7 -114q1 2 5.5 8t5.5 8q9 13 30 37q23 26 56 49q32 22 80 37q53 16 102 16q145 0 227 -88q84 -90 84 -239v-680q0 -22 -14 -33q-15 -12 -37 -12q-21 0 -33 12t-12 35v671q0 117 -59 185q-58 67 -172 67q-99 0 -177 -75q-79 -76 -79 -191v-659q0 -21 -15 -33
t-37 -12q-20 0 -32 12q-13 13 -13 35v962q0 22 13 35q12 12 32 12q22 0 37 -12t15 -33zM317 -328l117 197q16 29 43 29q45 0 45 -45q0 -16 -10 -33l-133 -189q-19 -22 -39 -22q-33 0 -33 33q0 13 10 30z" />
    <glyph glyph-name="Ncaron" unicode="&#x147;" horiz-adv-x="1060" 
d="M782 25l-526 1196q8 -177 8 -476v-712q0 -23 -14 -37t-37 -14t-37 14t-14 37l-2 1356q0 61 55 61q44 0 59 -41l529 -1200q-10 218 -10 479v713q0 23 14 37t37 14t37 -14t14 -37l2 -1356q0 -61 -55 -61q-45 0 -60 41zM541 1538h4q-39 0 -62 29l-147 162q-8 8 -8 24
q0 39 37 39q14 0 30 -16l148 -134l151 134q16 16 31 16q37 0 37 -39q0 -16 -8 -24l-152 -162q-23 -29 -61 -29z" />
    <glyph glyph-name="ncaron" unicode="&#x148;" 
d="M238 993l-7 -114q1 2 5.5 8t5.5 8q9 13 30 37q23 26 56 49q32 22 80 37q53 16 102 16q145 0 227 -88q84 -90 84 -239v-680q0 -22 -14 -33q-15 -12 -37 -12q-21 0 -33 12t-12 35v671q0 117 -59 185q-58 67 -172 67q-99 0 -177 -75q-79 -76 -79 -191v-659q0 -21 -15 -33
t-37 -12q-20 0 -32 12q-13 13 -13 35v962q0 22 13 35q12 12 32 12q22 0 37 -12t15 -33zM496 1120h4q-39 0 -62 29l-147 162q-8 8 -8 24q0 39 36 39q15 0 31 -16l148 -133l151 133q16 16 31 16q37 0 37 -39q0 -16 -8 -24l-152 -162q-23 -29 -61 -29z" />
    <glyph glyph-name="napostrophe" unicode="&#x149;" 
d="M238 993l-7 -114q1 2 5.5 8t5.5 8q9 13 30 37q23 26 56 49q32 22 80 37q53 16 102 16q145 0 227 -88q84 -90 84 -239v-680q0 -22 -14 -33q-15 -12 -37 -12q-21 0 -33 12t-12 35v671q0 117 -59 185q-58 67 -172 67q-99 0 -177 -75q-79 -76 -79 -191v-659q0 -21 -15 -33
t-37 -12q-20 0 -32 12q-13 13 -13 35v962q0 22 13 35q12 12 32 12q22 0 37 -12t15 -33zM0 1210l117 197q16 29 43 29q45 0 45 -45q0 -16 -10 -33l-134 -189q-19 -22 -38 -22q-33 0 -33 33q0 13 10 30z" />
    <glyph glyph-name="Eng" unicode="&#x14a;" horiz-adv-x="1060" 
d="M795 -98l-2 96l-539 1221q8 -177 8 -476v-712q0 -23 -14 -37t-37 -14t-37 14t-14 37l-2 1355q0 62 55 62q44 0 59 -41l529 -1200q-10 218 -10 479v713q0 23 14 37t37 14t37 -14t14 -37l2 -1499q0 -117 -76 -193t-205 -76q-20 0 -36 13q-15 12 -15 34q0 23 15 35
q16 13 36 13q87 0 134 53t47 123z" />
    <glyph glyph-name="eng" unicode="&#x14b;" 
d="M827 711l-6 -740q0 -121 -63 -196q-64 -76 -191 -76q-22 0 -37 12q-14 11 -14 31t14 31q15 12 37 12q156 0 156 184v727q0 117 -59 185q-58 67 -172 67q-98 0 -177 -76t-79 -190v-659q0 -21 -15 -33q-16 -13 -37 -13q-19 0 -32 13t-13 35v962q0 22 13 35q12 12 32 12
q22 0 37 -12t15 -33l2 -106q2 4 10 16q6 9 31 37t55 49q32 22 80 37q53 16 102 16q145 0 227 -88q84 -90 84 -239z" />
    <glyph glyph-name="Omacron" unicode="&#x14c;" horiz-adv-x="1042" 
d="M899 1096v-760q0 -151 -104 -252q-103 -100 -271 -100q-164 0 -272 102q-107 101 -107 252v756q0 151 107 252q108 102 272 102q168 0 271 -100q104 -101 104 -252zM793 334v756q0 110 -74 184t-195 74q-122 0 -196 -74t-74 -184v-756q0 -110 74 -184t196 -74
q121 0 195 74t74 184zM698 1614h-389q-18 0 -30 12q-13 13 -13 31t13 31q12 12 30 12h389q19 0 31 -12t12 -31t-12 -31t-31 -12z" />
    <glyph glyph-name="omacron" unicode="&#x14d;" horiz-adv-x="929" 
d="M465 1040l-4 -2q154 0 248 -94t94 -246v-381q0 -147 -92 -239t-248 -92t-248 92t-92 239v381q0 152 94 246q96 96 248 96zM461 68l-4 -2q113 0 180 67q68 68 68 176v393q0 106 -68 177t-178 71t-178 -71t-68 -177v-393q0 -106 68 -174q67 -67 180 -67zM647 1204h-389
q-18 0 -31 13q-12 12 -12 30q0 19 12 31t31 12h389q19 0 31 -12t12 -31q0 -18 -12 -30q-13 -13 -31 -13z" />
    <glyph glyph-name="Obreve" unicode="&#x14e;" horiz-adv-x="1042" 
d="M899 1096v-760q0 -151 -104 -252q-103 -100 -271 -100q-164 0 -272 102q-107 101 -107 252v756q0 151 107 252q108 102 272 102q168 0 271 -100q104 -101 104 -252zM793 334v756q0 110 -74 184t-195 74q-122 0 -196 -74t-74 -184v-756q0 -110 74 -184t196 -74
q121 0 195 74t74 184zM520 1632l4 -2q125 0 146 121q3 17 18 29t31 12q19 0 33 -14t14 -37q0 -22 -12 -49q-11 -24 -37 -62q-23 -33 -76 -57q-55 -25 -119 -25t-119 25q-52 24 -75 57q-26 38 -37 62q-12 27 -12 49q0 23 14 37t33 14q15 0 30 -12q16 -13 19 -27
q21 -121 145 -121z" />
    <glyph glyph-name="obreve" unicode="&#x14f;" horiz-adv-x="929" 
d="M465 1040l-4 -2q154 0 248 -94t94 -246v-381q0 -147 -92 -239t-248 -92t-248 92t-92 239v381q0 152 94 246q96 96 248 96zM461 68l-4 -2q113 0 180 67q68 68 68 176v393q0 106 -68 177t-178 71t-178 -71t-68 -177v-393q0 -106 68 -174q67 -67 180 -67zM457 1223l4 -2
q124 0 145 120q3 16 19 29q15 12 30 12q19 0 33 -14t14 -37q0 -22 -12 -49q-10 -22 -37 -61q-24 -35 -75 -58q-52 -24 -119 -24t-119 24t-76 58q-27 39 -37 61q-12 27 -12 49q0 23 14 37t33 14q16 0 31 -12t18 -27q21 -120 146 -120z" />
    <glyph glyph-name="Ohungarumlaut" unicode="&#x150;" horiz-adv-x="1042" 
d="M899 1096v-760q0 -151 -104 -252q-103 -100 -271 -100q-164 0 -272 102q-107 101 -107 252v756q0 151 107 252q108 102 272 102q168 0 271 -100q104 -101 104 -252zM793 334v756q0 110 -74 184t-195 74q-122 0 -196 -74t-74 -184v-756q0 -110 74 -184t196 -74
q121 0 195 74t74 184zM348 1602l164 172q16 16 37 16q19 0 33 -14t14 -33t-16 -35l-172 -156q-14 -14 -31 -14q-15 0 -27 12t-12 27t10 25zM616 1602l164 172q16 16 37 16q19 0 33 -14t14 -33t-16 -35l-172 -156q-14 -14 -31 -14q-15 0 -27 12t-12 27t10 25z" />
    <glyph glyph-name="ohungarumlaut" unicode="&#x151;" horiz-adv-x="929" 
d="M465 1040l-4 -2q154 0 248 -94t94 -246v-381q0 -147 -92 -239t-248 -92t-248 92t-92 239v381q0 152 94 246q96 96 248 96zM461 68l-4 -2q113 0 180 67q68 68 68 176v393q0 106 -68 177t-178 71t-178 -71t-68 -177v-393q0 -106 68 -174q67 -67 180 -67zM279 1192l163 172
q16 16 37 16q19 0 33 -14t14 -33t-16 -35l-172 -155q-15 -15 -31 -15q-13 0 -26 13t-13 26q0 14 11 25zM547 1192l164 172q16 16 37 16q18 0 32 -14q15 -15 15 -33t-17 -35l-172 -155q-15 -15 -31 -15q-13 0 -26 13q-12 12 -12 26q0 15 10 25z" />
    <glyph glyph-name="OE" unicode="&#x152;" horiz-adv-x="1292" 
d="M250 360v-2q0 -109 74 -186q73 -76 184 -76h143v1233h-143q-110 0 -184 -74t-74 -184v-711zM1178 -2l-676 10q-150 0 -254 107q-105 108 -105 258v710q0 151 105 256t256 105h657q23 0 37 -14t14 -37t-14 -37q-15 -15 -37 -15h-401v-528h352q23 0 37 -14t14 -37t-14 -37
t-37 -14h-352v-611h418q22 0 36 -14q15 -15 15 -37t-15 -37q-14 -14 -36 -14z" />
    <glyph glyph-name="oe" unicode="&#x153;" horiz-adv-x="1411" 
d="M657 309v408q0 98 -63 164q-64 67 -160 67q-97 0 -160 -69t-63 -168v-406q0 -99 63 -168t160 -69q95 0 160 71q63 69 63 170zM752 717l2 -148h444v138q0 101 -63 170q-65 71 -160 71q-96 0 -160 -67q-63 -66 -63 -164zM1233 481l-488 -4v-180q0 -98 64 -168t160 -70
q88 0 147 56q60 57 72 151q3 15 18 27t31 12q21 0 33 -12t12 -33q0 -37 -14 -78q-12 -34 -47 -92q-27 -45 -97 -82q-62 -33 -147 -33q-172 0 -272 146q-100 -146 -269 -146q-137 0 -225 91q-86 89 -86 221v430q0 132 86 221q87 90 225 90q170 0 271 -149q101 149 272 149
q138 0 225 -90q86 -89 86 -221v-182q0 -25 -14 -39q-15 -15 -43 -15z" />
    <glyph glyph-name="Racute" unicode="&#x154;" 
d="M270 547v-512q0 -21 -16 -37t-37 -16t-37 16t-16 37v1343q0 21 16 37q17 17 37 17h291q144 0 231 -84q86 -83 86 -215v-287q0 -99 -55 -178q-56 -80 -145 -107l211 -508q2 -4 2 -16q0 -22 -15 -37q-14 -14 -37 -14q-40 0 -55 41l-213 520h-248zM721 840l4 290
q0 90 -57 144q-58 55 -160 55h-236v-686h252q87 0 142 55t55 142zM414 1602l170 182q16 16 37 16q22 0 36 -14q15 -15 15 -37q0 -20 -17 -37l-182 -166q-12 -12 -31 -12q-14 0 -26 12q-13 13 -13 27q0 18 11 29z" />
    <glyph glyph-name="racute" unicode="&#x155;" horiz-adv-x="575" 
d="M510 952l-27 -2q-98 0 -172 -80q-73 -79 -73 -202v-641q0 -21 -15 -33t-37 -12q-20 0 -32 12q-13 13 -13 35v962q0 22 13 35q12 12 32 12q47 0 47 -47v-121q30 74 105 121q74 47 164 47q24 0 39 -12q14 -11 14 -31q0 -18 -12 -30q-13 -13 -33 -13zM283 1192l170 182
q17 17 36 17q22 0 37 -15t15 -37q0 -19 -17 -36l-182 -166q-13 -13 -31 -13q-13 0 -26 13t-13 26q0 18 11 29z" />
    <glyph glyph-name="Rcommaaccent" unicode="&#x156;" 
d="M270 547v-512q0 -21 -16 -37t-37 -16t-37 16t-16 37v1343q0 21 16 37q17 17 37 17h291q144 0 231 -84q86 -83 86 -215v-287q0 -99 -55 -178q-56 -80 -145 -107l211 -508q2 -4 2 -16q0 -22 -15 -37q-14 -14 -37 -14q-40 0 -55 41l-213 520h-248zM721 840l4 290
q0 90 -57 144q-58 55 -160 55h-236v-686h252q87 0 142 55t55 142zM342 -322l117 197q16 29 43 29q45 0 45 -45q0 -16 -10 -33l-134 -188q-20 -23 -38 -23q-33 0 -33 33q0 13 10 30z" />
    <glyph glyph-name="rcommaaccent" unicode="&#x157;" horiz-adv-x="575" 
d="M510 952l-27 -2q-98 0 -172 -80q-73 -79 -73 -202v-641q0 -21 -15 -33t-37 -12q-20 0 -32 12q-13 13 -13 35v962q0 22 13 35q12 12 32 12q47 0 47 -47v-121q30 74 105 121q74 47 164 47q24 0 39 -12q14 -11 14 -31q0 -18 -12 -30q-13 -13 -33 -13zM35 -322l117 197
q16 29 43 29q45 0 45 -45q0 -15 -11 -33l-133 -188q-20 -23 -39 -23q-32 0 -32 33q0 13 10 30z" />
    <glyph glyph-name="Rcaron" unicode="&#x158;" 
d="M270 547v-512q0 -21 -16 -37t-37 -16t-37 16t-16 37v1343q0 21 16 37q17 17 37 17h291q144 0 231 -84q86 -83 86 -215v-287q0 -99 -55 -178q-56 -80 -145 -107l211 -508q2 -4 2 -16q0 -22 -15 -37q-14 -14 -37 -14q-40 0 -55 41l-213 520h-248zM721 840l4 290
q0 90 -57 144q-58 55 -160 55h-236v-686h252q87 0 142 55t55 142zM494 1536h4q-39 0 -62 29l-147 161q-8 8 -8 25q0 39 36 39q15 0 31 -16l148 -134l151 134q16 16 31 16q37 0 37 -39q0 -17 -8 -25l-152 -161q-23 -29 -61 -29z" />
    <glyph glyph-name="rcaron" unicode="&#x159;" horiz-adv-x="575" 
d="M510 952l-27 -2q-98 0 -172 -80q-73 -79 -73 -202v-641q0 -21 -15 -33t-37 -12q-20 0 -32 12q-13 13 -13 35v962q0 22 13 35q12 12 32 12q47 0 47 -47v-121q30 74 105 121q74 47 164 47q24 0 39 -12q14 -11 14 -31q0 -18 -12 -30q-13 -13 -33 -13zM362 1126h5
q-39 0 -62 29l-147 162q-8 8 -8 24q0 39 36 39q15 0 31 -16l148 -133l151 133q16 16 31 16q37 0 37 -39q0 -15 -9 -24l-151 -162q-23 -29 -62 -29z" />
    <glyph glyph-name="Sacute" unicode="&#x15a;" horiz-adv-x="980" 
d="M113 338v6q0 21 16 37t37 16q23 0 37 -14q16 -16 16 -37q0 -109 78 -184q77 -74 197 -74q118 0 196 72q76 70 76 182q0 82 -35 147q-35 66 -90 109q-51 40 -123 80q-22 12 -67 36.5t-68 37.5q-67 38 -123 84t-90 114q-35 68 -35 158q0 146 105 248q103 100 254 100
q164 0 258 -104q96 -107 96 -211q0 -23 -14 -37t-37 -14q-22 0 -37 12q-16 13 -19 31q-9 96 -79 163q-71 68 -173 68q-103 0 -178 -72q-73 -70 -73 -176q0 -82 47 -147t116 -105q138 -79 152 -88q110 -68 152 -98q69 -48 116 -135q47 -86 47 -197q0 -155 -106 -258
q-107 -104 -270 -104q-165 0 -273 102q-106 100 -106 252zM430 1610l170 182q16 16 37 16q23 0 37 -14t14 -37q0 -21 -16 -37l-183 -166q-12 -12 -30 -12q-15 0 -27 12t-12 27q0 19 10 29z" />
    <glyph glyph-name="sacute" unicode="&#x15b;" horiz-adv-x="839" 
d="M432 1040l-2 -4q139 0 215 -82q78 -84 78 -147q0 -21 -12 -33t-33 -12q-43 0 -49 33q-15 66 -70 112q-54 45 -133 45q-76 0 -135 -47q-58 -46 -58 -117q0 -68 54 -116q51 -45 127 -76q82 -33 147 -64q75 -35 127 -102q53 -68 53 -168q0 -121 -92 -201q-91 -79 -225 -79
q-88 0 -156 30q-63 28 -100 78q-34 45 -49 90q-15 44 -15 84q0 22 13 35q12 12 35 12q40 0 43 -37q9 -97 69 -151q61 -55 156 -55q97 0 158 55t61 139q0 75 -51 123q-54 51 -125 80q-106 43 -148 63q-70 33 -125 97q-51 60 -51 153q0 119 84 191q83 71 209 71zM360 1190
l170 182q17 17 37 17q22 0 37 -15q14 -14 14 -37q0 -21 -16 -37l-182 -165q-13 -13 -31 -13q-14 0 -27 13q-12 12 -12 26q0 19 10 29z" />
    <glyph glyph-name="Scircumflex" unicode="&#x15c;" horiz-adv-x="980" 
d="M113 338v6q0 21 16 37t37 16q23 0 37 -14q16 -16 16 -37q0 -109 78 -184q77 -74 197 -74q118 0 196 72q76 70 76 182q0 82 -35 147q-35 66 -90 109q-51 40 -123 80q-22 12 -67 36.5t-68 37.5q-67 38 -123 84t-90 114q-35 68 -35 158q0 146 105 248q103 100 254 100
q164 0 258 -104q96 -107 96 -211q0 -23 -14 -37t-37 -14q-22 0 -37 12q-16 13 -19 31q-9 96 -79 163q-71 68 -173 68q-103 0 -178 -72q-73 -70 -73 -176q0 -82 47 -147t116 -105q138 -79 152 -88q110 -68 152 -98q69 -48 116 -135q47 -86 47 -197q0 -155 -106 -258
q-107 -104 -270 -104q-165 0 -273 102q-106 100 -106 252zM500 1796h-4q38 0 61 -29l148 -161q8 -8 8 -25q0 -39 -37 -39q-14 0 -31 17l-147 133l-152 -133q-17 -17 -31 -17q-36 0 -36 39q0 17 8 25l151 161q23 29 62 29z" />
    <glyph glyph-name="scircumflex" unicode="&#x15d;" horiz-adv-x="839" 
d="M432 1040l-2 -4q139 0 215 -82q78 -84 78 -147q0 -21 -12 -33t-33 -12q-43 0 -49 33q-15 66 -70 112q-54 45 -133 45q-76 0 -135 -47q-58 -46 -58 -117q0 -68 54 -116q51 -45 127 -76q82 -33 147 -64q75 -35 127 -102q53 -68 53 -168q0 -121 -92 -201q-91 -79 -225 -79
q-88 0 -156 30q-63 28 -100 78q-34 45 -49 90q-15 44 -15 84q0 22 13 35q12 12 35 12q40 0 43 -37q9 -97 69 -151q61 -55 156 -55q97 0 158 55t61 139q0 75 -51 123q-54 51 -125 80q-106 43 -148 63q-70 33 -125 97q-51 60 -51 153q0 119 84 191q83 71 209 71zM422 1376h-4
q39 0 61 -28l148 -162q8 -8 8 -25q0 -39 -37 -39q-14 0 -31 17l-147 133l-152 -133q-17 -17 -30 -17q-37 0 -37 39q0 17 8 25l151 162q22 28 62 28z" />
    <glyph glyph-name="Scedilla" unicode="&#x15e;" horiz-adv-x="980" 
d="M113 338v2q0 21 16 37t37 16q23 0 37 -14q16 -16 16 -37q0 -109 78 -184q77 -74 197 -74q118 0 196 72q76 70 76 182q0 82 -35 147q-35 66 -90 109q-51 40 -123 80q-22 12 -67 36.5t-68 37.5q-71 39 -123 83q-55 46 -90 115q-35 68 -35 158q0 146 105 248
q103 100 254 100q164 0 258 -104q96 -107 96 -211q0 -23 -14 -37q-15 -15 -37 -15q-21 0 -37 13t-19 30q-9 97 -79 164q-71 68 -173 68q-103 0 -178 -72q-73 -70 -73 -176q0 -82 47 -147t116 -105q138 -79 152 -88q110 -68 152 -98q69 -48 116 -135q47 -86 47 -197
q0 -155 -106 -258q-107 -104 -270 -104v-46q73 0 118 -36t45 -101q0 -62 -45 -104q-46 -43 -116 -43h-84q-17 0 -29 12t-12 29q0 16 12 28q13 13 29 13h73q35 0 56 18q20 17 20 47q0 58 -65 58h-37q-21 0 -37 16q-14 14 -14 41v78q-131 24 -213 121q-80 95 -80 227z" />
    <glyph glyph-name="scedilla" unicode="&#x15f;" horiz-adv-x="839" 
d="M432 1040l-14 -8q139 0 215 -82q78 -84 78 -147q0 -20 -13 -33q-12 -12 -32 -12q-44 0 -50 33q-15 67 -69 112t-133 45q-76 0 -135 -47q-58 -46 -58 -117q0 -69 53 -116q51 -45 127 -76q89 -36 148 -64q75 -35 127 -102q53 -68 53 -168q0 -117 -86 -197q-87 -81 -215 -84
v-45q74 0 119 -36t45 -101q0 -62 -45 -104q-46 -43 -117 -43h-84q-17 0 -29 12t-12 29q0 16 12 28q13 13 29 13h74q36 0 57 18t21 47q0 27 -19 43q-20 17 -47 17h-37q-21 0 -37 16q-14 14 -14 41v76q-124 21 -184 108q-60 88 -60 170q0 22 13 35q12 12 32 12q16 0 31 -12
q16 -13 19 -27q9 -97 69 -151q61 -55 156 -55q97 0 158 55t61 139q0 75 -51 123q-54 51 -125 80q-106 43 -148 63q-70 33 -125 97q-51 60 -51 153q0 119 84 191q83 71 209 71z" />
    <glyph glyph-name="Scaron" unicode="&#x160;" horiz-adv-x="980" 
d="M113 338v6q0 21 16 37t37 16q23 0 37 -14q16 -16 16 -37q0 -109 78 -184q77 -74 197 -74q118 0 196 72q76 70 76 182q0 82 -35 147q-35 66 -90 109q-51 40 -123 80q-22 12 -67 36.5t-68 37.5q-67 38 -123 84t-90 114q-35 68 -35 158q0 146 105 248q103 100 254 100
q164 0 258 -104q96 -107 96 -211q0 -23 -14 -37t-37 -14q-22 0 -37 12q-16 13 -19 31q-9 96 -79 163q-71 68 -173 68q-103 0 -178 -72q-73 -70 -73 -176q0 -82 47 -147t116 -105q138 -79 152 -88q110 -68 152 -98q69 -48 116 -135q47 -86 47 -197q0 -155 -106 -258
q-107 -104 -270 -104q-165 0 -273 102q-106 100 -106 252zM510 1544h4q-38 0 -61 29l-148 162q-8 8 -8 24q0 39 37 39q15 0 31 -16l147 -133l152 133q16 16 30 16q37 0 37 -39q0 -16 -8 -24l-152 -162q-23 -29 -61 -29z" />
    <glyph glyph-name="scaron" unicode="&#x161;" horiz-adv-x="839" 
d="M432 1040l-2 -4q139 0 215 -82q78 -84 78 -147q0 -21 -12 -33t-33 -12q-43 0 -49 33q-15 66 -70 112q-54 45 -133 45q-76 0 -135 -47q-58 -46 -58 -117q0 -68 54 -116q51 -45 127 -76q82 -33 147 -64q75 -35 127 -102q53 -68 53 -168q0 -121 -92 -201q-91 -79 -225 -79
q-88 0 -156 30q-63 28 -100 78q-34 45 -49 90q-15 44 -15 84q0 22 13 35q12 12 35 12q40 0 43 -37q9 -97 69 -151q61 -55 156 -55q97 0 158 55t61 139q0 75 -51 123q-54 51 -125 80q-106 43 -148 63q-70 33 -125 97q-51 60 -51 153q0 119 84 191q83 71 209 71zM438 1124h4
q-38 0 -61 29l-148 162q-8 8 -8 24q0 39 37 39q15 0 31 -16l147 -133l152 133q16 16 31 16q36 0 36 -39q0 -16 -8 -24l-151 -162q-23 -29 -62 -29z" />
    <glyph glyph-name="Tcommaaccent" unicode="&#x162;" horiz-adv-x="792" 
d="M342 1335h-274q-22 0 -37 15t-15 36q0 22 15 37t37 15h653q22 0 37 -15q14 -14 14 -37q0 -22 -14 -36q-15 -15 -37 -15h-272v-1298q0 -20 -17 -37q-16 -16 -37 -16t-37 16t-16 37v1298zM231 -319l117 196q16 29 43 29q45 0 45 -45q0 -16 -10 -33l-133 -188
q-20 -23 -39 -23q-33 0 -33 33q0 14 10 31z" />
    <glyph glyph-name="tcommaaccent" unicode="&#x163;" horiz-adv-x="708" 
d="M686 190l2 -4q0 -64 -65 -135q-63 -69 -177 -69q-116 0 -184 71q-67 70 -67 203v678h-117q-19 0 -31 12t-12 31t12 31t31 12h117v219q0 23 12 35t35 12q22 0 34 -12q13 -13 13 -33v-219h303q19 0 31 -12t12 -31t-12 -31t-31 -12h-303v-688q0 -89 43 -135q42 -45 121 -45
q59 0 98 36q40 37 49 95q6 34 43 34q19 0 31 -12t12 -31zM254 -324l117 197q16 29 43 29q45 0 45 -45q0 -16 -10 -33l-134 -189q-19 -22 -39 -22q-32 0 -32 33q0 13 10 30z" />
    <glyph glyph-name="Tcaron" unicode="&#x164;" horiz-adv-x="792" 
d="M342 1335h-274q-22 0 -37 15t-15 36q0 22 15 37t37 15h653q22 0 37 -15q14 -14 14 -37q0 -22 -14 -36q-15 -15 -37 -15h-272v-1298q0 -20 -17 -37q-16 -16 -37 -16t-37 16t-16 37v1298zM403 1538h5q-39 0 -62 29l-147 162q-9 9 -9 24q0 39 37 39q15 0 31 -16l148 -134
l151 134q16 16 31 16q37 0 37 -39q0 -15 -9 -24l-151 -162q-23 -29 -62 -29z" />
    <glyph glyph-name="tcaron" unicode="&#x165;" horiz-adv-x="708" 
d="M686 190l2 -4q0 -64 -65 -135q-63 -69 -177 -69q-116 0 -184 71q-67 70 -67 203v678h-117q-19 0 -31 12t-12 31t12 31t31 12h117v219q0 23 12 35t35 12q22 0 34 -12q13 -13 13 -33v-219h303q19 0 31 -12t12 -31t-12 -31t-31 -12h-303v-688q0 -89 43 -135q42 -45 121 -45
q59 0 98 36q40 37 49 95q6 34 43 34q19 0 31 -12t12 -31zM444 1214l117 197q16 29 43 29q45 0 45 -45q0 -16 -10 -33l-133 -188q-20 -23 -39 -23q-33 0 -33 33q0 13 10 30z" />
    <glyph glyph-name="Tbar" unicode="&#x166;" horiz-adv-x="792" 
d="M670 713h-221v-676q0 -20 -17 -37q-16 -16 -37 -16t-37 16t-16 37v676h-219q-20 0 -31 14q-12 15 -12 31q0 15 12 30t31 15h219v532h-272q-22 0 -37 15t-15 36q0 22 15 37t37 15h653q22 0 37 -15q14 -14 14 -37q0 -22 -14 -36q-15 -15 -37 -15h-272v-532h219q18 0 30 -15
q13 -16 13 -30q0 -15 -13 -31q-11 -14 -30 -14z" />
    <glyph glyph-name="tbar" unicode="&#x167;" horiz-adv-x="708" 
d="M485 530l-200 -4v-280q0 -89 43 -135q42 -45 121 -45q59 0 98 36q40 37 49 95q6 34 43 34q19 0 31 -12t12 -31q0 -63 -66 -135q-63 -69 -176 -69q-116 0 -184 71t-68 203v270h-110q-14 0 -27 13q-12 12 -12 28q0 17 12 29t29 12h110v326h-116q-19 0 -31 12t-12 31t12 31
t31 12h116v219q0 22 13 35q12 12 35 12q22 0 34 -12q13 -13 13 -33v-219h303q18 0 30 -12q13 -13 13 -31t-13 -31q-12 -12 -30 -12h-303v-326h200q17 0 29 -12t12 -29q0 -16 -12 -28q-13 -13 -29 -13z" />
    <glyph glyph-name="Utilde" unicode="&#x168;" horiz-adv-x="1062" 
d="M909 1397l-2 -1059q0 -151 -104 -252q-103 -100 -273 -100q-167 0 -272 102q-104 101 -104 252v1057q0 21 16 37t37 16t37 -16t16 -37v-1059q0 -112 74 -186t198 -74q123 0 197 74t74 184v1061q0 21 16 37t37 16t37 -16t16 -37zM647 1569v-4q-53 0 -129 43t-104 43
q-47 0 -62 -54q-9 -36 -47 -36q-43 0 -43 45q0 50 43 90q44 41 107 41q53 0 129 -43t104 -43q47 0 62 53q9 37 47 37q43 0 43 -45q0 -48 -43 -88q-42 -39 -107 -39z" />
    <glyph glyph-name="utilde" unicode="&#x169;" 
d="M723 31l-4 102q-2 -4 -10 -16q-6 -8 -31 -37q-22 -25 -53 -49q-29 -22 -74 -37q-53 -17 -98 -17q-148 0 -234 86t-86 244v680q0 24 14 35q15 12 37 12q23 0 35 -12t12 -33v-672q0 -254 234 -254q97 0 176 76q80 77 80 191v659q0 24 14 35q15 12 37 12q23 0 35 -12t12 -33
v-962q0 -21 -12 -33t-33 -12q-22 0 -37 12q-14 11 -14 35zM596 1155v-4q-53 0 -129 43t-105 43q-46 0 -61 -53q-9 -37 -47 -37q-43 0 -43 45q0 50 43 90q44 41 106 41q53 0 129 -43t105 -43q46 0 61 53q9 37 47 37q43 0 43 -45q0 -48 -43 -88q-42 -39 -106 -39z" />
    <glyph glyph-name="Umacron" unicode="&#x16a;" horiz-adv-x="1062" 
d="M909 1397l-2 -1059q0 -151 -104 -252q-103 -100 -273 -100q-167 0 -272 102q-104 101 -104 252v1057q0 21 16 37t37 16t37 -16t16 -37v-1059q0 -112 74 -186t198 -74q123 0 197 74t74 184v1061q0 21 16 37t37 16t37 -16t16 -37zM721 1618h-389q-19 0 -31 12t-12 31t12 31
t31 12h389q19 0 31 -12t12 -31t-12 -31t-31 -12z" />
    <glyph glyph-name="umacron" unicode="&#x16b;" 
d="M723 31l-4 102q-2 -4 -10 -16q-6 -8 -31 -37q-22 -25 -53 -49q-29 -22 -74 -37q-53 -17 -98 -17q-148 0 -234 86t-86 244v680q0 24 14 35q15 12 37 12q23 0 35 -12t12 -33v-672q0 -254 234 -254q97 0 176 76q80 77 80 191v659q0 24 14 35q15 12 37 12q23 0 35 -12t12 -33
v-962q0 -21 -12 -33t-33 -12q-22 0 -37 12q-14 11 -14 35zM668 1204h-389q-18 0 -31 13q-12 12 -12 30q0 19 12 31t31 12h389q18 0 30 -12q13 -13 13 -31q0 -17 -13 -30t-30 -13z" />
    <glyph glyph-name="Ubreve" unicode="&#x16c;" horiz-adv-x="1062" 
d="M909 1397l-2 -1059q0 -151 -104 -252q-103 -100 -273 -100q-167 0 -272 102q-104 101 -104 252v1057q0 21 16 37t37 16t37 -16t16 -37v-1059q0 -112 74 -186t198 -74q123 0 197 74t74 184v1061q0 21 16 37t37 16t37 -16t16 -37zM528 1636l4 -2q125 0 146 121q3 17 18 29
t31 12q19 0 33 -14t14 -37q0 -22 -12 -49q-11 -24 -37 -62q-23 -33 -76 -57q-55 -25 -119 -25q-63 0 -118 25q-53 24 -76 57q-26 38 -37 62q-12 27 -12 49q0 23 14 37t33 14q16 0 31 -12t18 -27q21 -121 145 -121z" />
    <glyph glyph-name="ubreve" unicode="&#x16d;" 
d="M723 31l-4 102q-2 -4 -10 -16q-6 -8 -31 -37q-22 -25 -53 -49q-29 -22 -74 -37q-53 -17 -98 -17q-148 0 -234 86t-86 244v680q0 24 14 35q15 12 37 12q23 0 35 -12t12 -33v-672q0 -254 234 -254q97 0 176 76q80 77 80 191v659q0 24 14 35q15 12 37 12q23 0 35 -12t12 -33
v-962q0 -21 -12 -33t-33 -12q-22 0 -37 12q-14 11 -14 35zM477 1223l4 -2q125 0 146 120q3 17 18 29t31 12q19 0 33 -14t14 -37q0 -22 -12 -49q-10 -22 -37 -61q-24 -34 -76 -58t-119 -24t-119 24q-51 23 -75 58q-27 39 -37 61q-12 27 -12 49q0 23 14 37t33 14q15 0 30 -12
q16 -13 19 -27q21 -120 145 -120z" />
    <glyph glyph-name="Uring" unicode="&#x16e;" horiz-adv-x="1062" 
d="M909 1397l-2 -1059q0 -151 -104 -252q-103 -100 -273 -100q-167 0 -272 102q-104 101 -104 252v1057q0 21 16 37t37 16t37 -16t16 -37v-1059q0 -112 74 -186t198 -74q123 0 197 74t74 184v1061q0 21 16 37t37 16t37 -16t16 -37zM373 1686l-2 -5q0 64 47 111t110 47
q66 0 111 -45q47 -47 47 -111q0 -63 -47 -110q-45 -45 -111 -45q-63 0 -110 47q-45 45 -45 111zM444 1681q0 -34 25 -59t59 -25q37 0 62 25q24 24 24 59q0 38 -24 62t-62 24q-35 0 -59 -24q-25 -25 -25 -62z" />
    <glyph glyph-name="uring" unicode="&#x16f;" 
d="M723 31l-4 102q-2 -4 -10 -16q-6 -8 -31 -37q-22 -25 -53 -49q-29 -22 -74 -37q-53 -17 -98 -17q-148 0 -234 86t-86 244v680q0 24 14 35q15 12 37 12q23 0 35 -12t12 -33v-672q0 -254 234 -254q97 0 176 76q80 77 80 191v659q0 24 14 35q15 12 37 12q23 0 35 -12t12 -33
v-962q0 -21 -12 -33t-33 -12q-22 0 -37 12q-14 11 -14 35zM319 1272l-2 -4q0 62 48 110q47 47 110 47q66 0 111 -45q47 -47 47 -110q0 -64 -47 -111q-45 -45 -111 -45q-63 0 -110 47q-46 46 -46 111zM391 1268q0 -35 25 -60q24 -24 59 -24q38 0 62 24t24 60q0 37 -24 61
q-25 25 -62 25q-34 0 -59 -25t-25 -61z" />
    <glyph glyph-name="Uhungarumlaut" unicode="&#x170;" horiz-adv-x="1062" 
d="M909 1397l-2 -1059q0 -151 -104 -252q-103 -100 -273 -100q-167 0 -272 102q-104 101 -104 252v1057q0 21 16 37t37 16t37 -16t16 -37v-1059q0 -112 74 -186t198 -74q123 0 197 74t74 184v1061q0 21 16 37t37 16t37 -16t16 -37zM350 1599l164 173q16 16 37 16
q19 0 33 -14t14 -33t-16 -35l-172 -156q-14 -14 -31 -14q-15 0 -27 12t-12 27q0 14 10 24zM618 1599l164 173q16 16 37 16q19 0 33 -14t14 -33t-16 -35l-172 -156q-14 -14 -31 -14q-14 0 -26 12q-13 13 -13 27t10 24z" />
    <glyph glyph-name="uhungarumlaut" unicode="&#x171;" 
d="M723 31l-4 102q-2 -4 -10 -16q-6 -8 -31 -37q-22 -25 -53 -49q-29 -22 -74 -37q-53 -17 -98 -17q-148 0 -234 86t-86 244v680q0 24 14 35q15 12 37 12q23 0 35 -12t12 -33v-672q0 -254 234 -254q97 0 176 76q80 77 80 191v659q0 24 14 35q15 12 37 12q23 0 35 -12t12 -33
v-962q0 -21 -12 -33t-33 -12q-22 0 -37 12q-14 11 -14 35zM293 1192l164 172q16 16 37 16q18 0 32 -14q15 -15 15 -33t-17 -35l-172 -155q-15 -15 -30 -15q-14 0 -27 13q-12 12 -12 26q0 15 10 25zM561 1192l164 172q16 16 37 16q19 0 33 -14t14 -33t-16 -35l-172 -155
q-15 -15 -31 -15q-14 0 -27 13q-12 12 -12 26q0 15 10 25z" />
    <glyph glyph-name="Uogonek" unicode="&#x172;" horiz-adv-x="1062" 
d="M909 1397l-6 -1061q0 -176 -133 -279q-46 -35 -102 -108q-56 -74 -56 -139q0 -37 25 -56q24 -18 59 -18h52q16 0 28 -12t12 -29t-12 -29t-28 -12h-64q-72 0 -119 41q-45 39 -45 104q0 111 117 199q-49 -12 -107 -12q-167 0 -272 102q-104 101 -104 252v1057q0 21 16 37
t37 16t37 -16t16 -37v-1059q0 -112 74 -186t198 -74q123 0 197 74t74 184v1061q0 21 16 37t37 16t37 -16t16 -37z" />
    <glyph glyph-name="uogonek" unicode="&#x173;" 
d="M723 4l-6 129q-2 -4 -10 -16q-6 -8 -31 -37q-22 -25 -53 -49q-29 -22 -74 -37q-53 -17 -98 -17q-148 0 -234 86t-86 244v680q0 24 14 35q15 12 37 12q23 0 35 -12t12 -33v-672q0 -254 234 -254q97 0 176 76q80 77 80 191v659q0 24 14 35q15 12 37 12q23 0 35 -12t12 -33
v-962q0 -29 -31 -45q-38 -14 -92 -68q-51 -51 -51 -111q0 -36 25 -55q24 -18 59 -18h51q16 0 29 -13q12 -12 12 -28q0 -17 -12 -29t-29 -12h-63q-72 0 -119 41q-45 39 -45 104q0 59 43 111q45 54 86 74z" />
    <glyph glyph-name="Wcircumflex" unicode="&#x174;" horiz-adv-x="1370" 
d="M887 37l-207 684l-201 -684q-9 -37 -49 -37h-102q-43 0 -52 37l-118 784q-6 47 -6 90v486q0 21 16 37t37 16t37 -16t16 -37v-486q0 -35 8 -90l103 -723h28l199 684q12 39 49 39h78q35 0 47 -39l199 -684h28l103 723q8 55 8 90v486q0 21 16 37t37 16t37 -16t16 -37v-486
q0 -43 -6 -90l-118 -784q-9 -37 -52 -37h-102q-40 0 -49 37zM682 1790h-4q38 0 61 -29l148 -162q8 -8 8 -24q0 -39 -37 -39q-15 0 -31 16l-147 134l-152 -134q-16 -16 -30 -16q-37 0 -37 39q0 16 8 24l152 162q23 29 61 29z" />
    <glyph glyph-name="wcircumflex" unicode="&#x175;" horiz-adv-x="1232" 
d="M1110 993l-12 -315q0 -48 -8 -84l-121 -563q-9 -37 -49 -37h-93q-40 0 -49 37l-170 544l-170 -544q-9 -37 -49 -37h-92q-40 0 -49 37l-121 563q-8 36 -8 86v309q0 24 14 35q15 12 37 12q23 0 35 -12t12 -33v-346l119 -561h26l170 537q12 36 52 36h61q39 0 51 -36
l170 -537h27l119 561v346q0 24 14 35q15 12 37 12q23 0 35 -12t12 -33zM606 1374h-4q40 0 62 -28l147 -162q8 -8 8 -25q0 -39 -37 -39q-13 0 -30 17l-148 133l-151 -133q-17 -17 -31 -17q-37 0 -37 39q0 17 8 25l152 162q22 28 61 28z" />
    <glyph glyph-name="Ycircumflex" unicode="&#x176;" horiz-adv-x="892" 
d="M502 682l-6 -643q0 -22 -15 -37q-16 -16 -37 -16q-20 0 -36 16q-17 17 -17 37v645l-334 692q-6 12 -6 29q0 14 17 31q16 16 36 16q34 0 52 -35l293 -616l286 616q15 35 53 35q23 0 37 -14q15 -15 15 -33q0 -16 -6 -31zM446 1792h-4q39 0 62 -29l147 -161q8 -8 8 -25
q0 -39 -36 -39q-15 0 -31 16l-148 134l-151 -134q-16 -16 -31 -16q-37 0 -37 39q0 17 8 25l152 161q23 29 61 29z" />
    <glyph glyph-name="ycircumflex" unicode="&#x177;" horiz-adv-x="886" 
d="M266 -317l131 356l-340 938q-4 16 -4 20q0 19 15 31t36 12q36 0 50 -36l297 -832l303 834q12 34 45 34q45 0 45 -41q0 -11 -8 -30l-488 -1323q-12 -35 -45 -35q-45 0 -45 41q0 12 8 31zM453 1382h-4q39 0 61 -28l147 -162q9 -9 9 -25q0 -39 -37 -39q-14 0 -31 17
l-147 133l-152 -133q-17 -17 -31 -17q-37 0 -37 39q0 16 9 25l151 162q22 28 62 28z" />
    <glyph glyph-name="Ydieresis" unicode="&#x178;" horiz-adv-x="892" 
d="M502 682l-6 -643q0 -22 -15 -37q-16 -16 -37 -16q-20 0 -36 16q-17 17 -17 37v645l-334 692q-6 12 -6 29q0 14 17 31q16 16 36 16q34 0 52 -35l293 -616l286 616q15 35 53 35q23 0 37 -14q15 -15 15 -33q0 -16 -6 -31zM231 1661v-8q0 30 23 53t53 23q28 0 49 -21
q23 -23 23 -51t-23 -51q-21 -21 -49 -21q-30 0 -53 23t-23 53zM506 1653v-8q0 31 22 53t50 22q33 0 53 -20q22 -22 22 -51q0 -30 -22 -52q-20 -20 -53 -20q-28 0 -50 22t-22 54z" />
    <glyph glyph-name="Zacute" unicode="&#x179;" horiz-adv-x="901" 
d="M102 145l603 1192h-558q-21 0 -36 15t-15 37q0 21 15 36t36 15h627q45 0 45 -49v-27q0 -32 -18 -70l-604 -1190h589q23 0 37 -14q15 -15 15 -37t-15 -37q-14 -14 -37 -14h-659q-45 0 -45 49v27q0 28 20 67zM377 1606l170 182q16 16 37 16q23 0 37 -14t14 -37
q0 -20 -17 -37l-182 -166q-12 -12 -30 -12q-15 0 -27 12t-12 27q0 19 10 29z" />
    <glyph glyph-name="zacute" unicode="&#x17a;" horiz-adv-x="806" 
d="M682 0l-545 2q-45 0 -45 43v18q0 16 23 60l495 815h-456q-19 0 -31 12t-12 31t12 31t31 12h510q45 0 45 -43v-18q0 -29 -17 -60l-497 -815h487q19 0 31 -12t12 -33q0 -19 -12 -31t-31 -12zM340 1196l170 182q17 17 37 17q22 0 37 -15q14 -14 14 -37q0 -20 -16 -36
l-183 -166q-13 -13 -30 -13q-14 0 -27 13q-12 12 -12 26q0 19 10 29z" />
    <glyph glyph-name="Zdotaccent" unicode="&#x17b;" horiz-adv-x="901" 
d="M102 145l603 1192h-558q-21 0 -36 15t-15 37q0 21 15 36t36 15h627q45 0 45 -49v-27q0 -32 -18 -70l-604 -1190h589q23 0 37 -14q15 -15 15 -37t-15 -37q-14 -14 -37 -14h-659q-45 0 -45 49v27q0 28 20 67zM397 1665q0 32 25 57t57 25q33 0 58 -25q24 -24 24 -57t-24 -57
q-25 -25 -58 -25q-32 0 -57 25t-25 57z" />
    <glyph glyph-name="zdotaccent" unicode="&#x17c;" horiz-adv-x="806" 
d="M682 0l-545 2q-45 0 -45 43v18q0 16 23 60l495 815h-456q-19 0 -31 12t-12 31t12 31t31 12h510q45 0 45 -43v-18q0 -29 -17 -60l-497 -815h487q19 0 31 -12t12 -33q0 -19 -12 -31t-31 -12zM336 1255q0 34 24 58t58 24q33 0 57 -24q25 -25 25 -58q0 -32 -25 -57
q-24 -24 -57 -24q-34 0 -58 24t-24 57z" />
    <glyph glyph-name="Zcaron" unicode="&#x17d;" horiz-adv-x="901" 
d="M102 145l603 1192h-558q-21 0 -36 15t-15 37q0 21 15 36t36 15h627q45 0 45 -49v-27q0 -32 -18 -70l-604 -1190h589q23 0 37 -14q15 -15 15 -37t-15 -37q-14 -14 -37 -14h-659q-45 0 -45 49v27q0 28 20 67zM477 1540h4q-38 0 -61 29l-148 162q-8 8 -8 24q0 39 37 39
q15 0 31 -16l147 -133l152 133q16 16 31 16q36 0 36 -39q0 -16 -8 -24l-151 -162q-23 -29 -62 -29z" />
    <glyph glyph-name="zcaron" unicode="&#x17e;" horiz-adv-x="806" 
d="M682 0l-545 2q-45 0 -45 43v18q0 16 23 60l495 815h-456q-19 0 -31 12t-12 31t12 31t31 12h510q45 0 45 -43v-18q0 -29 -17 -60l-497 -815h487q19 0 31 -12t12 -33q0 -19 -12 -31t-31 -12zM430 1130h4q-38 0 -61 29l-148 162q-8 8 -8 25q0 38 37 38q15 0 31 -16l147 -133
l152 133q16 16 30 16q37 0 37 -38q0 -17 -8 -25l-151 -162q-23 -29 -62 -29z" />
    <glyph glyph-name="florin" unicode="&#x192;" horiz-adv-x="1073" 
d="M584 938l-2 -1034q0 -125 -68 -199t-174 -74q-83 0 -133 33q-21 15 -21 37q0 16 13 29q12 12 28 12q11 0 23 -6q40 -21 86 -21q62 0 106 47q43 46 43 136v1040h-229q-19 0 -31 12t-12 31t12 31t31 12h229v156q0 124 68 198t176 74q83 0 133 -33q21 -15 21 -37
q0 -15 -13 -28t-28 -13q-9 0 -23 7q-39 20 -86 20q-64 0 -106 -45q-43 -46 -43 -135v-164h252q18 0 30 -12q13 -13 13 -31t-13 -31q-12 -12 -30 -12h-252z" />
    <glyph glyph-name="AEacute" unicode="&#x1fc;" horiz-adv-x="1294" 
d="M651 588v747h-155l-244 -747h399zM1180 0l-475 10q-22 0 -37 15t-15 36v441h-401v-453q0 -21 -16 -37t-37 -16t-37 16q-17 17 -17 37v486q0 33 15 86l256 788q9 37 49 37h698q23 0 37 -14t14 -37t-14 -37q-15 -15 -37 -15h-405v-528h356q23 0 37 -14t14 -37t-14 -37
t-37 -14h-356v-611h422q23 0 37 -14t14 -37t-14 -37t-37 -14zM649 1614l170 182q16 16 37 16q23 0 37 -14t14 -37q0 -21 -16 -37l-182 -165q-13 -13 -31 -13q-14 0 -27 13q-12 12 -12 26q0 19 10 29z" />
    <glyph glyph-name="aeacute" unicode="&#x1fd;" horiz-adv-x="1398" 
d="M410 68l-7 -5q109 0 177 62q67 61 67 168v209h-221q-106 0 -174 -62t-68 -155q0 -94 68 -156q67 -61 158 -61zM971 950v-4q-95 0 -162 -67q-68 -68 -68 -162v-131h445v123q0 99 -62 170t-153 71zM442 948l-8 -10q-78 0 -129 -45q-53 -47 -74 -117q-9 -33 -43 -33
q-19 0 -32 13t-13 35q0 62 74 145q75 84 215 84q80 0 150 -37t110 -104q46 67 119 104t158 37q134 0 221 -90q86 -89 86 -221v-166q0 -25 -14 -39q-15 -15 -43 -15h-482v-196q0 -101 68 -172q67 -70 162 -70q90 0 145 55q56 56 68 154q3 15 18 27t31 12q21 0 33 -12t12 -33
q0 -37 -14 -78q-10 -30 -48 -92q-28 -47 -94 -82q-62 -33 -147 -33q-102 0 -178 49q-80 51 -105 101q-111 -150 -289 -150q-125 0 -221 84q-94 82 -94 219q0 134 98 222t240 88h221v123q0 102 -55 172q-56 71 -146 71zM625 1176l170 182q16 16 36 16q23 0 37 -14
q15 -15 15 -37q0 -20 -17 -37l-182 -166q-12 -12 -31 -12q-14 0 -26 12q-13 13 -13 27q0 18 11 29z" />
    <glyph glyph-name="Oslashacute" unicode="&#x1fe;" horiz-adv-x="1042" 
d="M88 55l82 144q-29 73 -29 139v758q0 150 105 252t270 102q192 0 301 -133l66 113q11 20 39 20q16 0 28 -12q13 -13 13 -29q0 -13 -7 -23l-88 -151q29 -73 29 -141v-756q0 -152 -106 -252t-273 -100q-188 0 -295 131l-63 -111q-11 -20 -37 -20q-19 0 -31 12t-12 29
q0 15 8 28zM248 1098l-4 -756v-8l512 887q-70 135 -240 135q-120 0 -194 -74t-74 -184zM786 342v758v4l-512 -885q29 -60 95 -98q64 -37 147 -37q123 0 197 74q73 73 73 184zM449 1608l169 182q16 16 37 16q23 0 37 -14q15 -15 15 -37q0 -20 -17 -37l-182 -166
q-12 -12 -31 -12q-14 0 -26 12q-13 13 -13 27q0 18 11 29z" />
    <glyph glyph-name="oslashacute" unicode="&#x1ff;" horiz-adv-x="929" 
d="M465 1040l-6 -6q130 0 215 -67l28 51q9 18 31 18q14 0 27 -10q12 -9 12 -25q0 -10 -4 -18l-39 -68q74 -92 74 -223v-381q0 -147 -92 -239t-248 -92q-131 0 -217 63l-25 -45q-12 -18 -33 -18q-15 0 -24 12q-10 13 -10 26q0 7 4 19l35 63q-70 88 -70 217v381q0 152 94 246
q96 96 248 96zM459 63l-2 -2q112 0 180 68t68 176v393q0 60 -29 123l-389 -698q72 -60 172 -60zM211 305h2q0 -67 27 -119l389 697q-69 63 -172 63q-109 0 -178 -72q-68 -71 -68 -176v-393zM379 1186l170 182q16 16 37 16q23 0 37 -14t14 -37q0 -21 -16 -37l-183 -166
q-12 -12 -30 -12q-15 0 -27 12t-12 27q0 19 10 29z" />
    <glyph glyph-name="Scommaaccent" unicode="&#x218;" horiz-adv-x="980" 
d="M113 338v6q0 21 16 37t37 16q23 0 37 -14q16 -16 16 -37q0 -109 78 -184q77 -74 197 -74q118 0 196 72q76 70 76 182q0 82 -35 147q-35 66 -90 109q-51 40 -123 80q-22 12 -67 36.5t-68 37.5q-67 38 -123 84t-90 114q-35 68 -35 158q0 146 105 248q103 100 254 100
q164 0 258 -104q96 -107 96 -211q0 -23 -14 -37t-37 -14q-22 0 -37 12q-16 13 -19 31q-9 96 -79 163q-71 68 -173 68q-103 0 -178 -72q-73 -70 -73 -176q0 -82 47 -147t116 -105q138 -79 152 -88q110 -68 152 -98q69 -48 116 -135q47 -86 47 -197q0 -155 -106 -258
q-107 -104 -270 -104q-165 0 -273 102q-106 100 -106 252zM338 -313l117 196q16 29 43 29q45 0 45 -45q0 -15 -11 -33l-133 -188q-20 -23 -39 -23q-32 0 -32 33q0 14 10 31z" />
    <glyph glyph-name="scommaaccent" unicode="&#x219;" horiz-adv-x="839" 
d="M432 1040l-2 -4q139 0 215 -82q78 -84 78 -147q0 -21 -12 -33t-33 -12q-43 0 -49 33q-15 66 -70 112q-54 45 -133 45q-76 0 -135 -47q-58 -46 -58 -117q0 -68 54 -116q51 -45 127 -76q82 -33 147 -64q75 -35 127 -102q53 -68 53 -168q0 -121 -92 -201q-91 -79 -225 -79
q-88 0 -156 30q-63 28 -100 78q-34 45 -49 90q-15 44 -15 84q0 22 13 35q12 12 35 12q40 0 43 -37q9 -97 69 -151q61 -55 156 -55q97 0 158 55t61 139q0 75 -51 123q-54 51 -125 80q-106 43 -148 63q-70 33 -125 97q-51 60 -51 153q0 119 84 191q83 71 209 71zM264 -324
l117 197q16 29 43 29q45 0 45 -45q0 -16 -10 -33l-133 -189q-19 -22 -39 -22q-33 0 -33 33q0 13 10 30z" />
    <glyph glyph-name="dotlessj" unicode="&#x237;" horiz-adv-x="415" 
d="M-115 -344q-22 13 -22 39q0 19 12 31t31 12q13 0 24 -8q38 -23 84 -23q66 0 105 45q41 47 41 123v1116q0 23 12 35t35 12q22 0 37 -12q14 -11 14 -33v-1110q0 -118 -70 -188q-72 -72 -174 -72q-79 0 -129 33z" />
    <glyph glyph-name="circumflex" unicode="&#x2c6;" horiz-adv-x="438" 
d="M221 1380h-4q40 0 62 -28l147 -162q8 -8 8 -25q0 -39 -37 -39q-13 0 -30 17l-148 133l-151 -133q-17 -17 -31 -17q-37 0 -37 39q0 17 8 25l152 162q22 28 61 28z" />
    <glyph glyph-name="caron" unicode="&#x2c7;" horiz-adv-x="438" 
d="M217 1128h4q-38 0 -61 29l-148 162q-8 8 -8 24q0 39 37 39q15 0 31 -16l147 -133l152 133q16 16 30 16q37 0 37 -39q0 -16 -8 -24l-151 -162q-23 -29 -62 -29z" />
    <glyph glyph-name="breve" unicode="&#x2d8;" horiz-adv-x="479" 
d="M240 1227l4 -2q124 0 145 121q3 15 19 28q15 12 30 12q19 0 33 -14t14 -37q0 -22 -12 -49q-10 -22 -37 -61q-24 -34 -76 -58t-118 -24t-119 24q-52 24 -76 58q-27 39 -37 61q-12 27 -12 49q0 23 14 37t33 14q16 0 31 -12t18 -26q21 -121 146 -121z" />
    <glyph glyph-name="dotaccent" unicode="&#x2d9;" horiz-adv-x="163" 
d="M0 1253q0 33 25 58q24 24 57 24t57 -24q25 -25 25 -58q0 -32 -25 -57t-57 -25t-57 25t-25 57z" />
    <glyph glyph-name="ring" unicode="&#x2da;" horiz-adv-x="317" 
d="M0 1276l-2 -4q0 63 47 110q48 48 111 48q64 0 110 -46q47 -47 47 -110q0 -64 -47 -111q-45 -45 -110 -45q-64 0 -111 47q-45 45 -45 111zM72 1272q0 -36 24 -60t60 -24q37 0 61 24q25 25 25 60q0 36 -25 61t-61 25q-35 0 -60 -25q-24 -24 -24 -61z" />
    <glyph glyph-name="ogonek" unicode="&#x2db;" horiz-adv-x="268" 
d="M227 -348l-61 -6q-72 0 -119 41q-45 39 -45 104q0 59 43 111t84 73l43 21h98q-2 -1 -8 -4.5t-10 -5.5q-16 -8 -43 -27q-29 -20 -55 -43t-43 -51q-19 -32 -19 -58q0 -36 25 -55q24 -18 59 -18h51q16 0 29 -13q12 -12 12 -28q0 -17 -12 -29t-29 -12z" />
    <glyph glyph-name="tilde" unicode="&#x2dc;" horiz-adv-x="536" 
d="M387 1159v-4q-53 0 -129 43t-104 43q-47 0 -62 -53q-9 -37 -47 -37q-43 0 -43 45q0 50 43 90q44 41 107 41q53 0 129 -43t104 -43q46 0 61 53q9 37 48 37q43 0 43 -45q0 -48 -43 -88q-42 -39 -107 -39z" />
    <glyph glyph-name="hungarumlaut" unicode="&#x2dd;" horiz-adv-x="522" 
d="M10 1196l164 172q16 16 37 16q19 0 33 -14t14 -33q0 -18 -16 -34l-172 -156q-14 -14 -31 -14q-15 0 -27 12t-12 26q0 15 10 25zM279 1196l163 172q16 16 37 16q19 0 33 -14t14 -33q0 -18 -16 -34l-172 -156q-14 -14 -31 -14q-14 0 -26 12q-13 13 -13 26q0 14 11 25z" />
    <glyph glyph-name="afii10023" unicode="&#x401;" horiz-adv-x="907" 
d="M213 1434l557 8q22 0 37 -15q14 -14 14 -36q0 -23 -14 -37q-15 -15 -37 -15h-500v-528h451q23 0 37 -14t14 -37t-14 -37t-37 -14h-451v-611h516q23 0 37 -14q15 -15 15 -37t-15 -37q-14 -14 -37 -14h-573q-23 0 -37 14t-14 37v1335q0 23 14 37q15 15 37 15zM283 1667v-8
q0 31 22 53q23 23 53 23q29 0 50 -21q22 -22 22 -51t-22 -51q-21 -21 -50 -21q-30 0 -53 23q-22 22 -22 53zM557 1659v-8q0 30 23 53q22 22 49 22q33 0 53 -20q23 -23 23 -51t-23 -51q-21 -21 -53 -21q-26 0 -49 23t-23 53z" />
    <glyph glyph-name="afii10051" unicode="&#x402;" horiz-adv-x="1069" 
d="M684 0l-55 -10q-23 0 -37 14t-14 37t14 37t37 14h49q77 0 131 60q51 57 51 141v264q0 113 -63 176q-66 66 -172 66q-48 0 -107 -19q-52 -17 -82 -37l-28 -18v-692q0 -20 -17 -37q-16 -16 -37 -16t-37 16q-14 14 -14 37v1298h-227q-22 0 -37 15q-14 14 -14 36q0 23 14 37
q15 15 37 15h608q22 0 37 -15q14 -14 14 -37q0 -22 -14 -36q-15 -15 -37 -15h-274v-497q109 65 233 65q143 0 231 -88q91 -91 91 -233v-281q0 -125 -80 -211t-201 -86z" />
    <glyph glyph-name="afii10052" unicode="&#x403;" horiz-adv-x="792" 
d="M270 1335v-1294q0 -21 -16 -37t-37 -16t-37 16t-16 37v1343q0 21 16 37q17 17 37 17h522q22 0 37 -15t15 -37q0 -21 -15 -36t-37 -15h-469zM354 1608l170 182q16 16 37 16q23 0 37 -14t14 -37q0 -21 -16 -37l-182 -166q-12 -12 -31 -12q-15 0 -27 12t-12 27q0 19 10 29z
" />
    <glyph glyph-name="afii10053" unicode="&#x404;" horiz-adv-x="976" 
d="M512 -16v-4q-157 0 -264 104t-107 254v756q0 150 105 252t262 102q164 0 258 -105q94 -104 94 -210q0 -23 -14 -37q-15 -15 -37 -15q-21 0 -37 13q-15 12 -18 30q-9 96 -80 164t-172 68q-112 0 -185 -76t-73 -186v-297h360q22 0 37 -15q14 -14 14 -37q0 -22 -14 -36
q-15 -15 -37 -15h-360v-356q0 -109 75 -184q76 -76 185 -76t178 63q71 65 80 166q3 19 18 31t37 12q23 0 37 -14q16 -16 16 -37q0 -107 -98 -211t-260 -104z" />
    <glyph glyph-name="afii10054" unicode="&#x405;" horiz-adv-x="980" 
d="M113 338v6q0 21 16 37t37 16q23 0 37 -14q16 -16 16 -37q0 -109 78 -184q77 -74 197 -74q118 0 196 72q76 70 76 182q0 82 -35 147q-35 66 -90 109q-51 40 -123 80q-22 12 -67 36.5t-68 37.5q-67 38 -123 84t-90 114q-35 68 -35 158q0 146 105 248q103 100 254 100
q164 0 258 -104q96 -107 96 -211q0 -23 -14 -37t-37 -14q-22 0 -37 12q-16 13 -19 31q-9 96 -79 163q-71 68 -173 68q-103 0 -178 -72q-73 -70 -73 -176q0 -82 47 -147t116 -105q138 -79 152 -88q110 -68 152 -98q69 -48 116 -135q47 -86 47 -197q0 -155 -106 -258
q-107 -104 -270 -104q-165 0 -273 102q-106 100 -106 252z" />
    <glyph glyph-name="afii10055" unicode="&#x406;" horiz-adv-x="436" 
d="M270 1397v-1360q0 -21 -16 -37t-37 -16t-37 16t-16 37v1360q0 21 16 37t37 16t37 -16t16 -37z" />
    <glyph glyph-name="afii10056" unicode="&#x407;" horiz-adv-x="436" 
d="M270 1397v-1360q0 -21 -16 -37t-37 -16t-37 16t-16 37v1360q0 21 16 37t37 16t37 -16t16 -37zM6 1659v-8q0 30 23 53q22 22 53 22q29 0 49 -20q23 -23 23 -51t-23 -51q-21 -21 -49 -21q-30 0 -53 23t-23 53zM281 1651v-9q0 32 22 54t49 22q34 0 54 -20q22 -22 22 -51
q0 -30 -22 -52q-20 -20 -54 -20q-27 0 -49 22t-22 54z" />
    <glyph glyph-name="afii10057" unicode="&#x408;" horiz-adv-x="868" 
d="M199 469l2 -180q0 -95 59 -154q57 -57 141 -57q89 0 148 59t59 154v1104q0 20 17 37q16 16 37 16q20 0 36 -16q17 -17 17 -37v-1106q0 -132 -90 -219q-89 -86 -222 -86q-132 0 -221 86q-90 87 -90 219v178q0 20 17 37q16 16 36 16q23 0 37 -14q17 -17 17 -37z" />
    <glyph glyph-name="afii10058" unicode="&#x409;" horiz-adv-x="1517" 
d="M827 807l285 -2q123 0 211 -88t88 -215v-207q0 -126 -88 -211q-89 -86 -211 -86h-342q-21 0 -37 16t-16 37v1282h-344q-38 -670 -62 -1026q-9 -146 -75 -229q-68 -86 -168 -86q-22 0 -37 12t-15 35q0 40 50 49q132 21 147 246q33 489 59 1046q3 21 19 37q17 17 37 17h446
q20 0 37 -17q16 -16 16 -37v-573zM1305 299l-2 207q0 83 -58 141t-141 58h-283v-607h283q81 0 141 60t60 141z" />
    <glyph glyph-name="afii10059" unicode="&#x40a;" horiz-adv-x="1574" 
d="M1174 0h-347q-20 0 -36 16q-15 15 -15 37v656h-508v-672q0 -23 -14 -37q-16 -16 -37 -16t-37 16q-14 14 -14 37v1360q0 21 16 37t37 16t37 -16t16 -37v-592h508v592q0 20 17 37q16 16 37 16q20 0 36 -16q17 -17 17 -37v-590h287q122 0 210 -88q89 -89 89 -215v-207
q0 -125 -89 -211t-210 -86zM1360 301l-2 207q0 83 -58 141t-141 58h-280v-607h280q81 0 141 60t60 141z" />
    <glyph glyph-name="afii10060" unicode="&#x40b;" horiz-adv-x="1069" 
d="M967 580v-549q0 -20 -17 -37t-37 -17q-19 0 -36 17q-15 15 -15 37v528q0 113 -63 176q-66 66 -172 66q-48 0 -107 -19q-52 -17 -82 -37l-28 -18v-692q0 -20 -17 -37q-16 -16 -37 -16t-37 16q-14 14 -14 37v1298h-227q-22 0 -37 15q-14 14 -14 36q0 23 14 37q15 15 37 15
h608q22 0 37 -15q14 -14 14 -37q0 -22 -14 -36q-15 -15 -37 -15h-274v-497q109 65 233 65q144 0 232 -88q90 -90 90 -233z" />
    <glyph glyph-name="afii10061" unicode="&#x40c;" horiz-adv-x="940" 
d="M801 4l-537 737v-710q0 -23 -14 -37q-17 -17 -37 -17t-37 17q-14 14 -14 37v1360q0 20 16 36q17 17 37 17t37 -17q16 -16 16 -36v-627l510 659q16 19 37 19q23 0 35 -12t12 -33q0 -17 -8 -25l-477 -608l508 -705q8 -8 8 -24q0 -23 -14 -37t-37 -14q-27 0 -41 20z
M467 1597l170 183q16 16 37 16q23 0 37 -14t14 -37q0 -21 -16 -37l-183 -166q-12 -12 -30 -12q-15 0 -27 12t-12 27q0 18 10 28z" />
    <glyph glyph-name="afii10062" unicode="&#x40e;" horiz-adv-x="913" 
d="M463 1630q132 0 147 121q3 41 47 41q19 0 33 -14q15 -15 15 -37q0 -20 -11 -53q-10 -31 -32 -62q-24 -34 -76 -55q-57 -23 -123 -23q-65 0 -123 23q-52 21 -76 55t-33 62q-10 30 -10 53q0 22 15 37q14 14 32 14q44 0 47 -41q15 -121 148 -121zM201 59l198 480l-329 831
q-7 21 -7 29q0 20 17 37q14 14 41 14q36 0 51 -35l285 -745l297 745q15 35 51 35q23 0 37 -14t14 -33q0 -16 -6 -31l-549 -1356q-15 -34 -55 -34q-23 0 -37 14t-14 33q0 15 6 30z" />
    <glyph glyph-name="afii10145" unicode="&#x40f;" horiz-adv-x="1060" 
d="M477 0l-264 -2q-21 0 -37 16t-16 37v1344q0 21 16 37t37 16t37 -16t16 -37v-1299h520v1299q0 20 17 37q16 16 37 16t37 -16t16 -37v-1344q0 -21 -16 -37t-37 -16h-260v-264q0 -22 -15 -37q-14 -14 -37 -14q-20 0 -36 16q-15 15 -15 37v264z" />
    <glyph glyph-name="afii10017" unicode="&#x410;" horiz-adv-x="1019" 
d="M764 588l-221 747h-66l-221 -747h508zM625 1397l241 -789q15 -52 15 -86v-485q0 -20 -17 -37q-16 -16 -37 -16q-20 0 -36 16q-17 17 -17 37v452h-520v-452q0 -21 -16 -37t-37 -16t-37 16q-17 17 -17 37v485q0 34 15 86l237 789q9 37 50 37h126q41 0 50 -37z" />
    <glyph glyph-name="afii10018" unicode="&#x411;" horiz-adv-x="929" 
d="M721 301v211q0 83 -55 141t-144 58h-252v-607h252q88 0 144 56q55 55 55 141zM717 1337h-447v-528h258q132 0 215 -86q84 -87 84 -217v-205q0 -126 -84 -213q-83 -86 -215 -86h-315q-23 0 -37 14t-14 37v1336q0 22 14 36q15 15 37 15h504q22 0 37 -15q14 -14 14 -36
q0 -23 -14 -37q-15 -15 -37 -15z" />
    <glyph glyph-name="afii10019" unicode="&#x412;" horiz-adv-x="972" 
d="M508 0l-297 -2q-23 0 -37 14t-14 37v1335q0 23 14 37q15 15 37 15h299q137 0 223 -86t86 -215v-119q0 -51 -14 -94q-15 -45 -37 -74q-23 -30 -45 -49q-28 -24 -39 -31l-16 -10q1 -1 7 -4.5t11 -5.5q11 -6 43 -31q31 -25 53 -53q24 -31 41 -78q19 -52 19 -105v-155
q0 -142 -99 -234q-100 -92 -235 -92zM516 1329l-248 -2v-528h248q87 0 146 59t59 148v118q0 91 -57 148t-148 57zM268 705l4 -613h238q101 0 164 66q61 64 61 164v155q0 81 -61 154q-62 74 -172 74h-234z" />
    <glyph glyph-name="afii10020" unicode="&#x413;" horiz-adv-x="792" 
d="M270 1335v-1294q0 -21 -16 -37t-37 -16t-37 16t-16 37v1343q0 21 16 37q17 17 37 17h522q22 0 37 -15t15 -37q0 -21 -15 -36t-37 -15h-469z" />
    <glyph glyph-name="afii10021" unicode="&#x414;" horiz-adv-x="1030" 
d="M379 1335l-64 -1104q-3 -43 -14 -75q-10 -29 -22 -45l-11 -13h465v1237h-354zM330 1434l448 -7q21 0 37 -16t16 -37v-1282h76q21 0 37 -16q17 -17 17 -37v-309q0 -22 -15 -37t-37 -15q-20 0 -37 17q-14 14 -14 37v264h-704v-264q0 -22 -15 -37q-14 -14 -37 -14
q-20 0 -36 16q-15 15 -15 37v309q0 20 17 37q16 16 36 16h19q35 0 59 47q26 51 29 115l65 1122q0 20 17 37t37 17z" />
    <glyph glyph-name="afii10022" unicode="&#x415;" horiz-adv-x="907" 
d="M213 1434l557 8q22 0 37 -15q14 -14 14 -36q0 -23 -14 -37q-15 -15 -37 -15h-500v-528h451q23 0 37 -14t14 -37t-14 -37t-37 -14h-451v-611h516q23 0 37 -14q15 -15 15 -37t-15 -37q-14 -14 -37 -14h-573q-23 0 -37 14t-14 37v1335q0 23 14 37q15 15 37 15z" />
    <glyph glyph-name="afii10024" unicode="&#x416;" horiz-adv-x="1198" 
d="M651 1397l-2 -627l379 655q12 21 39 21q23 0 35 -12t12 -33q0 -12 -8 -25l-350 -612l372 -701q9 -15 9 -24q0 -22 -15 -37q-14 -14 -37 -14q-30 0 -41 20l-395 742v-709q0 -21 -16 -37t-37 -16t-37 16q-14 14 -14 37v709l-395 -742q-11 -20 -41 -20q-23 0 -37 14
q-15 15 -15 37q0 9 9 24l372 701l-350 612q-8 13 -8 25q0 23 12 35t35 12q27 0 39 -21l379 -655v625q0 21 16 37t37 16t37 -16t16 -37z" />
    <glyph glyph-name="afii10025" unicode="&#x417;" horiz-adv-x="956" 
d="M494 709l-109 -13q-22 0 -37 15q-14 14 -14 37q0 22 14 36q15 15 37 15h80q118 0 172 75q55 76 55 168v48q0 113 -65 184q-66 72 -178 72q-95 0 -160 -62q-66 -63 -78 -143q-9 -45 -51 -45q-21 0 -37 16q-14 14 -14 37q0 89 98 190q100 103 250 103q158 0 252 -101
q96 -104 96 -254v-49q0 -84 -37 -151q-39 -69 -70 -94l-34 -29l16 -8q8 -6 37 -31q32 -28 47 -51q22 -32 35 -74q16 -50 16 -98v-168q0 -151 -104 -252q-105 -102 -267 -102t-260 104t-98 211q0 21 16 37t37 16q22 0 37 -12q16 -13 19 -31q9 -102 79 -166q69 -63 179 -63
q117 0 188 74q72 75 72 186v156q0 94 -58 155q-59 62 -161 62z" />
    <glyph glyph-name="afii10026" unicode="&#x418;" horiz-adv-x="1060" 
d="M803 1239l-524 -1214q-15 -41 -60 -41q-55 0 -55 61v1356q0 23 14 37t37 14t37 -14t14 -37v-713l-6 -500l526 1221q15 41 60 41q55 0 55 -61v-1356q0 -23 -14 -37t-37 -14t-37 14t-14 37v712z" />
    <glyph glyph-name="afii10027" unicode="&#x419;" horiz-adv-x="1060" 
d="M803 1239l-524 -1214q-15 -41 -60 -41q-55 0 -55 61v1356q0 23 14 37t37 14t37 -14t14 -37v-713l-6 -500l526 1221q15 41 60 41q55 0 55 -61v-1356q0 -23 -14 -37t-37 -14t-37 14t-14 37v712zM530 1630q133 0 148 121q3 41 47 41q19 0 33 -14t14 -37t-10 -53
q-9 -28 -33 -62t-76 -55q-57 -23 -123 -23q-64 0 -122 23q-52 21 -76 55t-33 62q-10 30 -10 53t14 37t33 14q44 0 47 -41q15 -121 147 -121z" />
    <glyph glyph-name="afii10028" unicode="&#x41a;" horiz-adv-x="940" 
d="M801 4l-537 737v-710q0 -23 -14 -37q-17 -17 -37 -17t-37 17q-14 14 -14 37v1360q0 20 16 36q17 17 37 17t37 -17q16 -16 16 -36v-627l510 659q16 19 37 19q23 0 35 -12t12 -33q0 -17 -8 -25l-477 -608l508 -705q8 -8 8 -24q0 -23 -14 -37t-37 -14q-27 0 -41 20z" />
    <glyph glyph-name="afii10029" unicode="&#x41b;" horiz-adv-x="1001" 
d="M70 88l-9 2q128 21 146 246q34 415 59 1046q3 21 19 37q17 17 37 17h456q20 0 37 -17q16 -16 16 -37v-1343q0 -23 -14 -37q-16 -16 -37 -16t-37 16q-14 14 -14 37v1298h-354q-19 -427 -60 -1018q-9 -153 -75 -239q-67 -88 -168 -88q-22 0 -37 12t-15 35q0 40 50 49z" />
    <glyph glyph-name="afii10030" unicode="&#x41c;" horiz-adv-x="1255" 
d="M631 745l350 670q15 35 53 35q28 0 43 -18q17 -20 17 -46v-1355q0 -22 -15 -37q-14 -14 -37 -14q-22 0 -36 14q-15 15 -15 37v702l6 524l-305 -585q-16 -29 -51 -29h-29q-33 0 -49 29l-303 588q6 -258 6 -525v-704q0 -23 -14 -37t-37 -14t-37 14t-14 37v1355q0 27 16 46
q15 18 43 18q42 0 60 -37z" />
    <glyph glyph-name="afii10031" unicode="&#x41d;" horiz-adv-x="1077" 
d="M911 1397l-8 -1360q0 -23 -14 -37q-16 -16 -37 -16t-37 16q-14 14 -14 37v672h-533v-672q0 -23 -14 -37q-16 -16 -37 -16t-37 16q-14 14 -14 37v1360q0 21 16 37t37 16t37 -16t16 -37v-592h533v592q0 21 16 37t37 16t37 -16t16 -37z" />
    <glyph glyph-name="afii10032" unicode="&#x41e;" horiz-adv-x="1042" 
d="M899 1096v-760q0 -151 -104 -252q-103 -100 -271 -100q-164 0 -272 102q-107 101 -107 252v756q0 151 107 252q108 102 272 102q168 0 271 -100q104 -101 104 -252zM793 334v756q0 110 -74 184t-195 74q-122 0 -196 -74t-74 -184v-756q0 -110 74 -184t196 -74
q121 0 195 74t74 184z" />
    <glyph glyph-name="afii10033" unicode="&#x41f;" horiz-adv-x="1060" 
d="M791 37v1298h-521v-1298q0 -21 -16 -37t-37 -16t-37 16t-16 37v1343q0 21 16 37q17 17 37 17h627q20 0 37 -17q16 -16 16 -37v-1343q0 -21 -16 -37t-37 -16t-37 16t-16 37z" />
    <glyph glyph-name="afii10034" unicode="&#x420;" horiz-adv-x="919" 
d="M270 522v-481q0 -21 -16 -37t-37 -16t-37 16t-16 37v1343q0 21 16 37q17 17 37 17h311q127 0 213 -86t86 -215v-312q0 -131 -86 -217t-213 -86h-258zM721 821v318q0 86 -55 141t-142 55h-252v-710h252q87 0 142 55t55 141z" />
    <glyph glyph-name="afii10035" unicode="&#x421;" horiz-adv-x="976" 
d="M512 -16v-9q-156 0 -264 105q-107 104 -107 254v756q0 149 105 251q106 103 262 103q164 0 258 -105q94 -104 94 -211q0 -22 -14 -36q-15 -15 -37 -15q-21 0 -37 13q-15 12 -18 30q-9 96 -80 164t-172 68q-112 0 -185 -76t-73 -186v-752q0 -109 75 -184q76 -76 185 -76
t178 63q71 65 80 166q3 19 18 31t37 12q23 0 37 -14q16 -16 16 -37q0 -107 -98 -211t-260 -104z" />
    <glyph glyph-name="afii10036" unicode="&#x422;" horiz-adv-x="792" 
d="M342 1335h-274q-22 0 -37 15t-15 36q0 22 15 37t37 15h653q22 0 37 -15q14 -14 14 -37q0 -22 -14 -36q-15 -15 -37 -15h-272v-1298q0 -20 -17 -37q-16 -16 -37 -16t-37 16t-16 37v1298z" />
    <glyph glyph-name="afii10037" unicode="&#x423;" horiz-adv-x="913" 
d="M201 59l198 480l-329 831q-7 21 -7 29q0 20 17 37q14 14 41 14q36 0 51 -35l285 -745l297 745q15 35 51 35q23 0 37 -14t14 -33q0 -16 -6 -31l-549 -1356q-15 -34 -55 -34q-23 0 -37 14t-14 33q0 15 6 30z" />
    <glyph glyph-name="afii10038" unicode="&#x424;" horiz-adv-x="1153" 
d="M240 522v-2q0 -117 84 -198q82 -79 200 -82v989q-120 -3 -202 -82t-82 -203v-422zM913 520v422q0 121 -86 201q-87 81 -200 84v-989q113 3 200 84q86 80 86 198zM627 135l-4 -104q0 -22 -15 -37q-14 -14 -37 -14q-20 0 -36 16q-15 15 -15 37v100q-164 9 -278 117
q-113 107 -113 270v420q0 163 113 270q114 108 278 117v66q0 20 17 37q16 16 36 16q23 0 37 -14q17 -17 17 -37v-66q161 -9 278 -117t117 -270v-420q0 -162 -117 -270t-278 -117z" />
    <glyph glyph-name="afii10039" unicode="&#x425;" horiz-adv-x="972" 
d="M782 18l-297 631l-297 -626q-15 -35 -53 -35q-23 0 -37 14t-14 31t8 30l336 685l-303 630q-8 13 -8 29q0 15 16 31t37 16q31 0 49 -35l273 -573l270 573q15 35 49 35q23 0 37 -14t14 -33q0 -16 -6 -31l-307 -628l334 -687q6 -15 6 -30q0 -18 -15 -33q-14 -14 -36 -14
q-41 0 -56 34z" />
    <glyph glyph-name="afii10040" unicode="&#x426;" horiz-adv-x="1067" 
d="M879 0l-666 -2q-21 0 -37 16t-16 37v1344q0 21 16 37t37 16t37 -16t16 -37v-1299h520v1299q0 20 17 37q16 16 37 16t37 -16t16 -37v-1299h35q21 0 37 -16t16 -37v-309q0 -23 -14 -37t-37 -14q-21 0 -37 16q-14 14 -14 37v264z" />
    <glyph glyph-name="afii10041" unicode="&#x427;" 
d="M797 1397l-9 -1364q0 -23 -14 -37q-16 -16 -37 -16t-37 16q-14 14 -14 37v547q-118 -62 -268 -62q-141 0 -230 86q-88 85 -88 232v557q0 20 17 37q16 16 37 16q20 0 36 -16q17 -17 17 -37v-543q0 -110 63 -170q65 -62 172 -62q62 0 127 19q57 17 90 35l31 18v707
q0 20 17 37q16 16 36 16q21 0 37 -16q17 -17 17 -37z" />
    <glyph glyph-name="afii10042" unicode="&#x428;" horiz-adv-x="1310" 
d="M709 1397v-1299h331v1299q0 20 17 37q16 16 37 16q20 0 36 -16q17 -17 17 -37v-1344q0 -20 -17 -37q-16 -16 -36 -16h-877q-21 0 -37 16t-16 37v1344q0 21 16 37t37 16t37 -16t16 -37v-1299h332v1299q0 21 16 37t37 16t37 -16q17 -17 17 -37z" />
    <glyph glyph-name="afii10043" unicode="&#x429;" horiz-adv-x="1316" 
d="M1128 0l-915 -2q-21 0 -37 16t-16 37v1344q0 21 16 37t37 16t37 -16t16 -37v-1299h332v1299q0 21 16 37t37 16t37 -16q17 -17 17 -37v-1299h331v1299q0 20 17 37q16 16 37 16q20 0 36 -16q17 -17 17 -37v-1299h35q20 0 36 -16q17 -17 17 -37v-309q0 -23 -14 -37t-37 -14
q-21 0 -37 16q-15 15 -15 37v264z" />
    <glyph glyph-name="afii10044" unicode="&#x42a;" horiz-adv-x="1050" 
d="M842 301l-2 207q0 83 -58 141t-141 58h-293v-607h293q81 0 141 60t60 141zM242 1331l-176 -4q-23 0 -37 14q-15 15 -15 37t15 37t37 15h227q20 0 37 -17q16 -16 16 -37v-573h299q123 0 211 -88t88 -215v-207q0 -126 -88 -211q-89 -86 -211 -86h-352q-21 0 -37 16
q-14 14 -14 37v1282z" />
    <glyph glyph-name="afii10045" unicode="&#x42b;" horiz-adv-x="1243" 
d="M686 301l-2 207q0 84 -57 141q-58 58 -142 58h-217v-607h217q82 0 142 60q59 59 59 141zM492 -4h-277q-21 0 -37 16t-16 37v1344q0 21 16 37t37 16t37 -16t16 -37v-590h224q122 0 210 -88q89 -89 89 -215v-207q0 -125 -89 -211t-210 -86zM1077 1393l-4 -1360
q0 -23 -14 -37q-16 -16 -37 -16t-37 16q-14 14 -14 37v1360q0 21 16 37t37 16t37 -16t16 -37z" />
    <glyph glyph-name="afii10046" unicode="&#x42c;" horiz-adv-x="970" 
d="M762 301l-2 207q0 83 -58 141t-141 58h-293v-607h293q81 0 141 60t60 141zM567 -4h-352q-21 0 -37 16t-16 37v1344q0 21 16 37t37 16t37 -16t16 -37v-590h299q123 0 211 -88t88 -215v-207q0 -126 -88 -211q-89 -86 -211 -86z" />
    <glyph glyph-name="afii10047" unicode="&#x42d;" horiz-adv-x="956" 
d="M444 -16v-7q-161 0 -260 105q-98 104 -98 211q0 21 16 37t37 16q22 0 37 -12q16 -13 19 -31q9 -102 79 -166q69 -63 179 -63q106 0 184 78q76 76 76 184v356h-361q-22 0 -37 15q-14 14 -14 36q0 23 14 37q15 15 37 15h361v297q0 109 -74 186q-73 76 -184 76
q-101 0 -172 -68t-80 -162q-3 -17 -19 -30t-37 -13q-19 0 -36 17q-15 15 -15 37q0 109 94 213t259 104q157 0 262 -102q104 -101 104 -252v-756q0 -151 -106 -254q-107 -104 -265 -104z" />
    <glyph glyph-name="afii10048" unicode="&#x42e;" horiz-adv-x="1308" 
d="M270 709v-674q0 -21 -16 -37t-37 -16t-37 16t-16 37v1360q0 21 16 37t37 16t37 -16t16 -37v-590h185v289q0 153 98 254q97 100 260 100q165 0 258 -100q96 -104 96 -254v-758q0 -150 -96 -254q-93 -100 -258 -100q-161 0 -260 102q-98 101 -98 256v369h-185zM1061 334
l-2 760q0 112 -68 186t-184 74t-184 -74t-68 -186v-756q0 -112 68 -186t186 -74q115 0 184 72q68 71 68 184z" />
    <glyph glyph-name="afii10049" unicode="&#x42f;" horiz-adv-x="940" 
d="M219 1133l4 -291q0 -86 56 -142q55 -55 141 -55h252v686h-236q-102 0 -160 -55q-57 -54 -57 -143zM426 547l-227 -535q-12 -28 -45 -28q-23 0 -37 14q-15 15 -15 37q0 7 7 24l206 502q-88 27 -145 109q-55 79 -55 178v287q0 132 86 215q87 84 231 84h291q20 0 37 -17
q16 -16 16 -37v-1343q0 -23 -14 -37q-16 -16 -37 -16t-37 16q-14 14 -14 37v510h-248z" />
    <glyph glyph-name="afii10065" unicode="&#x430;" horiz-adv-x="913" 
d="M780 727v-707q0 -20 -12 -32q-13 -13 -33 -13q-21 0 -37 13q-14 11 -14 35l-2 73q-6 -6 -10 -12q-6 -9 -31 -31t-55 -37q-33 -17 -80 -28q-54 -13 -100 -13q-131 0 -220 86q-90 87 -90 218q0 129 86 215t232 104q50 7 108 10q71 3 115 6h45v97q0 102 -61 172
q-62 71 -162 71q-78 0 -135 -45q-58 -46 -76 -116q-9 -33 -43 -33q-21 0 -33 12t-12 35q0 60 82 145q83 86 227 86q145 0 227 -88q84 -90 84 -223zM418 53l2 -4q112 0 190 66t78 153v248q-168 3 -270 -12q-98 -14 -162 -78q-61 -61 -61 -154q0 -90 65 -155q64 -64 158 -64z
" />
    <glyph glyph-name="afii10066" unicode="&#x431;" horiz-adv-x="950" 
d="M731 330l4 313q0 130 -67 203q-68 74 -174 74t-179 -76t-73 -211v-303q0 -131 67 -195q68 -65 178 -65q109 0 177 65q67 64 67 195zM713 1341l-4 -4q-24 -9 -99 -12q-372 -18 -372 -471q1 1 2 4t2.5 6t3.5 6q10 15 30 35q25 25 52 43q34 22 75 35q53 16 103 16
q133 0 227 -94q96 -96 96 -254v-321q0 -161 -92 -256q-94 -97 -245 -97q-155 0 -252 97q-95 95 -95 258v530q0 275 129 410q130 136 326 145q46 4 66 8q35 7 41 7q21 0 34 -13t13 -28q0 -35 -41 -50z" />
    <glyph glyph-name="afii10067" unicode="&#x432;" horiz-adv-x="911" 
d="M465 0l-279 -2q-20 0 -32 12q-13 13 -13 35v930q0 22 13 35q12 12 32 12h314q146 0 219 -70q74 -71 74 -190q0 -75 -35 -131q-35 -57 -68 -74l-35 -18q2 -1 8.5 -4t10.5 -5q16 -8 39 -26q30 -23 49 -45q20 -23 39 -72q18 -47 18 -100q0 -287 -354 -287zM506 934h-270
v-363h262q89 0 145 50q55 49 55 139q0 77 -51 125q-52 49 -141 49zM236 483v-399h256q114 0 170 53q55 52 55 148q0 87 -53 143q-52 55 -166 55h-262z" />
    <glyph glyph-name="afii10068" unicode="&#x433;" horiz-adv-x="653" 
d="M598 938l-358 -2v-907q0 -21 -15 -33t-37 -12q-20 0 -32 12q-13 13 -13 35v946q0 22 13 35q12 12 32 12h410q19 0 31 -12t12 -31t-12 -31t-31 -12z" />
    <glyph glyph-name="afii10069" unicode="&#x434;" horiz-adv-x="962" 
d="M694 936l-350 2q-36 -528 -53 -717q-2 -32 -17 -74q-11 -32 -24 -45l-12 -14h456v848zM801 2l-668 -6v-178q0 -22 -14 -33q-15 -12 -37 -12q-21 0 -33 12t-12 35v217q0 22 12 37q11 14 33 14h18q32 0 62 47q31 48 37 115q33 354 55 731q3 43 43 43h446q21 0 33 -12
t12 -33v-889h64q22 0 33 -14q12 -15 12 -37v-217q0 -21 -12 -33t-33 -12q-22 0 -37 12q-14 11 -14 35v178z" />
    <glyph glyph-name="afii10070" unicode="&#x435;" horiz-adv-x="907" 
d="M219 715l-2 -142h492v138q0 100 -70 170q-71 71 -178 71q-108 0 -174 -69q-68 -71 -68 -168zM463 -20l-8 -7q-155 0 -248 93q-92 92 -92 239v387q0 148 94 242t248 94q150 0 245 -92t95 -240v-161q0 -24 -15 -39t-43 -15h-528v-180q0 -102 68 -170t176 -68q96 0 166 58
q69 57 81 153q3 14 19 27q15 12 31 12q20 0 32 -12q13 -13 13 -33q0 -31 -19 -80q-17 -44 -55 -94q-35 -46 -105 -82q-63 -32 -155 -32z" />
    <glyph glyph-name="afii10072" unicode="&#x436;" horiz-adv-x="1021" 
d="M465 553l-2 434q0 23 12 35t33 12q22 0 37 -12q14 -11 14 -33v-440l311 467q12 18 39 18q45 0 45 -45q0 -11 -10 -28l-287 -422l306 -482q8 -13 8 -30q0 -21 -15 -33t-36 -12q-26 0 -41 24l-322 512v-491q0 -21 -12 -33t-33 -12t-33 12t-12 35v491l-322 -514
q-15 -24 -41 -24q-21 0 -36 12t-15 35q0 17 8 30l306 484l-287 422q-10 17 -10 28q0 45 45 45q27 0 39 -18z" />
    <glyph glyph-name="afii10073" unicode="&#x437;" horiz-adv-x="872" 
d="M475 489l-55 3q-19 0 -31 12t-12 31q0 18 12 30q13 13 31 13h49q84 0 133 55t49 131q0 81 -59 137q-58 55 -154 55q-89 0 -147 -43t-76 -127q-6 -32 -45 -32q-21 0 -33 12t-12 35q0 27 18 67t52 80q36 42 98 68q67 28 147 28q140 0 222 -79q83 -80 83 -197
q0 -68 -32 -119q-35 -56 -68 -76l-31 -22l6 -3q7 -3 11 -5q17 -12 35 -27q25 -22 43 -49q20 -29 34 -74q17 -53 17 -98q0 -134 -92 -223q-91 -88 -244 -88q-93 0 -156 32q-68 35 -104 82q-37 49 -55 95q-19 49 -19 79q0 23 12 35t33 12q16 0 31 -12t18 -26q12 -96 82 -154
q69 -57 166 -57q113 0 176 63q66 66 66 162q0 90 -53 143q-51 51 -146 51z" />
    <glyph glyph-name="afii10074" unicode="&#x438;" horiz-adv-x="972" 
d="M735 31l2 479l6 350l-493 -844q-20 -36 -55 -36q-50 0 -50 49v960q0 23 15 35t37 12q20 0 32 -12q13 -13 13 -33v-481l-4 -350l489 841q21 37 55 37q49 0 49 -49v-960q0 -22 -14 -33q-15 -12 -37 -12q-20 0 -32 12q-13 13 -13 35z" />
    <glyph glyph-name="afii10075" unicode="&#x439;" horiz-adv-x="972" 
d="M487 1225q133 0 148 121q3 40 47 40q19 0 33 -14t14 -37t-10 -53q-9 -26 -33 -61q-25 -35 -76 -56q-55 -22 -123 -22q-67 0 -122 22q-51 21 -76 56q-24 35 -33 61q-10 30 -10 53t14 37t33 14q44 0 47 -40q15 -121 147 -121zM735 31l2 479l6 350l-493 -844
q-20 -36 -55 -36q-50 0 -50 49v960q0 23 15 35t37 12q20 0 32 -12q13 -13 13 -33v-481l-4 -350l489 841q21 37 55 37q49 0 49 -49v-960q0 -22 -14 -33q-15 -12 -37 -12q-20 0 -32 12q-13 13 -13 35z" />
    <glyph glyph-name="afii10076" unicode="&#x43a;" horiz-adv-x="806" 
d="M715 967l-387 -426l411 -488q9 -9 9 -28q0 -20 -13 -33q-12 -12 -33 -12t-36 18l-435 524v-495q0 -21 -12 -33t-33 -12q-20 0 -32 12q-13 13 -13 35v962q0 22 13 35q12 12 32 12q22 0 37 -12t15 -33v-432l403 461q15 18 37 18q23 0 35 -12t12 -31q0 -13 -10 -30z" />
    <glyph glyph-name="afii10077" unicode="&#x43b;" horiz-adv-x="952" 
d="M82 -10l-2 -4q-51 0 -51 41q0 33 41 36q59 3 80 43t30 117l60 752q3 43 43 43h477q21 0 33 -12t12 -33v-946q0 -22 -14 -33q-15 -12 -37 -12q-21 0 -33 12t-12 35v905h-381q-34 -503 -56 -725q-9 -89 -53 -154t-137 -65z" />
    <glyph glyph-name="afii10078" unicode="&#x43c;" horiz-adv-x="1064" 
d="M467 479l-234 402q5 -235 5 -371v-483q0 -20 -13 -33q-12 -12 -32 -12q-21 0 -33 12q-13 13 -13 35v960q0 49 54 49q38 0 59 -37l277 -471l274 471q21 37 61 37q54 0 54 -49v-960q0 -21 -15 -33t-37 -12q-20 0 -32 12q-13 13 -13 35v481l5 373l-242 -410q-21 -37 -62 -37
q-39 0 -63 41z" />
    <glyph glyph-name="afii10079" unicode="&#x43d;" horiz-adv-x="976" 
d="M834 993l-5 -970q0 -22 -14 -33q-16 -13 -37 -13q-20 0 -33 13q-12 12 -12 35v469h-497v-469q0 -21 -15 -33t-37 -12q-20 0 -32 12q-13 13 -13 35v962q0 22 13 35q12 12 34 12t37 -12t15 -33v-407h497v407q0 22 13 35q12 12 34 12t37 -12t15 -33z" />
    <glyph glyph-name="afii10080" unicode="&#x43e;" horiz-adv-x="929" 
d="M465 1040l-4 -2q154 0 248 -94t94 -246v-381q0 -147 -92 -239t-248 -92t-248 92t-92 239v381q0 152 94 246q96 96 248 96zM461 68l-4 -2q113 0 180 67q68 68 68 176v393q0 106 -68 177t-178 71t-178 -71t-68 -177v-393q0 -106 68 -174q67 -67 180 -67z" />
    <glyph glyph-name="afii10081" unicode="&#x43f;" horiz-adv-x="976" 
d="M240 938v-913q0 -20 -13 -33q-12 -12 -32 -12q-22 0 -37 12t-15 35v946q0 22 13 35q12 12 32 12h600q21 0 33 -12q13 -13 13 -33v-946q0 -21 -15 -33t-37 -12q-20 0 -32 12q-13 13 -13 35v907h-497z" />
    <glyph glyph-name="afii10082" unicode="&#x440;" horiz-adv-x="952" 
d="M733 334l2 364q0 124 -67 191t-174 67q-109 0 -181 -69q-73 -70 -73 -191v-352q0 -125 71 -199q70 -73 178 -73q110 0 177 67t67 195zM242 115l-2 -453q0 -20 -13 -33q-12 -12 -32 -12q-22 0 -37 12t-15 35v1335q0 22 13 35t34 13q22 0 35 -13t13 -33l2 -90q9 14 28 37
q20 23 86 60q65 36 144 36q149 0 241 -92t92 -235v-395q0 -150 -92 -242t-241 -92q-80 0 -144 30q-62 29 -88 66z" />
    <glyph glyph-name="afii10083" unicode="&#x441;" horiz-adv-x="907" 
d="M465 -16l-6 -4q-156 0 -248 92t-92 239v381q0 150 96 246t250 96q159 0 240 -90q79 -88 79 -172q0 -21 -12 -33t-33 -12q-39 0 -45 33q-18 92 -82 141t-153 49q-110 0 -178 -71t-68 -177v-393q0 -106 68 -174q67 -67 180 -67q98 0 164 57q68 59 80 154q3 14 18 26t31 12
q20 0 32 -12q13 -13 13 -33q0 -30 -19 -79q-18 -46 -55 -95q-36 -47 -104 -82q-63 -32 -156 -32z" />
    <glyph glyph-name="afii10084" unicode="&#x442;" horiz-adv-x="708" 
d="M305 938l-233 -2q-19 0 -31 12t-12 31t12 31t31 12h561q19 0 31 -12t12 -31t-12 -31t-31 -12h-232v-907q0 -22 -14 -33q-15 -12 -37 -12q-21 0 -33 12t-12 35v907z" />
    <glyph glyph-name="afii10085" unicode="&#x443;" horiz-adv-x="886" 
d="M188 -369l-49 2q-17 0 -30 13t-13 30q0 18 13 31q12 12 30 12h39q106 0 146 113l73 207l-340 938q-4 16 -4 20q0 19 15 31t36 12q36 0 50 -36l297 -832l303 834q12 34 45 34q45 0 45 -41q0 -11 -8 -30l-420 -1141q-74 -197 -228 -197z" />
    <glyph glyph-name="afii10086" unicode="&#x444;" horiz-adv-x="1120" 
d="M901 674l-2 -2q0 113 -80 190t-211 80v-864q133 0 213 80t80 192v324zM217 348v-2q0 -113 80 -190q81 -78 213 -78v864q-133 -3 -213 -80t-80 -190v-324zM604 -8l-2 -342q0 -21 -12 -33t-33 -12q-45 0 -45 47v338q-166 0 -279 98q-112 97 -112 244v348q0 143 112 240
q114 99 279 102v375q0 47 45 47q23 0 35 -12t12 -33v-375q165 -3 279 -102q112 -97 112 -240v-348q0 -147 -112 -244q-113 -98 -279 -98z" />
    <glyph glyph-name="afii10087" unicode="&#x445;" horiz-adv-x="784" 
d="M627 14l-234 418l-233 -420q-15 -30 -43 -30q-22 0 -37 12q-14 11 -14 29q0 15 8 28l268 467l-256 451q-8 11 -8 26q0 18 14 29q15 12 37 12q28 0 43 -30l225 -404l224 404q15 30 47 30q18 0 30 -12q13 -13 13 -29q0 -12 -6 -24l-259 -449l269 -471q6 -12 6 -26
q0 -18 -14 -29q-15 -12 -33 -12q-32 0 -47 30z" />
    <glyph glyph-name="afii10088" unicode="&#x446;" horiz-adv-x="999" 
d="M844 0l-662 -4q-20 0 -32 12q-13 13 -13 35v946q0 23 15 35t36 12q23 0 35 -12q13 -13 13 -33v-907h497v907q0 23 12 35t35 12q22 0 37 -12q14 -11 14 -33v-907h64q22 0 33 -14q12 -15 12 -37v-215q0 -21 -12 -33t-33 -12q-22 0 -37 12q-14 11 -14 35v178z" />
    <glyph glyph-name="afii10089" unicode="&#x447;" horiz-adv-x="923" 
d="M197 993l-4 -383q0 -225 194 -225q60 0 139 29q72 27 115 55l41 31v487q0 23 12 35t35 12q22 0 37 -12q14 -11 14 -33v-962q0 -22 -14 -33q-15 -12 -37 -12q-21 0 -33 12t-12 35v374q-10 -8 -43 -30q-24 -16 -109 -45t-151 -29q-130 0 -205 78q-74 77 -74 215v399
q0 22 13 35q12 12 35 12q22 0 34 -12q13 -13 13 -33z" />
    <glyph glyph-name="afii10090" unicode="&#x448;" horiz-adv-x="1177" 
d="M240 993l-7 -915h302v907q0 23 12 35t35 12q21 0 36 -12t15 -33v-907h301v907q0 23 12 35t35 12q22 0 37 -12q14 -11 14 -33v-946q0 -21 -12 -33t-33 -12h-801q-20 0 -32 12q-13 13 -13 35v946q0 23 15 35t37 12t34 -12q13 -13 13 -33z" />
    <glyph glyph-name="afii10091" unicode="&#x449;" horiz-adv-x="1200" 
d="M637 86l291 -6v907q0 23 12 35t35 12q22 0 37 -12q14 -11 14 -33v-907h64q21 0 32 -14q13 -16 13 -37v-215q0 -20 -13 -33q-12 -12 -32 -12q-22 0 -37 12t-15 35v178h-854q-20 0 -32 12q-13 13 -13 35v946q0 23 15 35t36 12q23 0 35 -12q13 -13 13 -33v-907h301v907
q0 23 12 35t35 12q22 0 37 -12q14 -11 14 -33v-907z" />
    <glyph glyph-name="afii10092" unicode="&#x44a;" horiz-adv-x="923" 
d="M262 1024l-2 -2q23 0 35 -12t12 -33v-389h215q151 0 234 -86q84 -87 84 -205q0 -119 -84 -209q-82 -88 -234 -88h-262q-21 0 -33 12t-12 35v891h-176q-19 0 -31 12t-12 31t12 31t31 12h223zM743 295h-2q0 82 -55 143q-56 62 -156 62h-225v-412h225q102 0 158 62
q55 61 55 145z" />
    <glyph glyph-name="afii10093" unicode="&#x44b;" horiz-adv-x="1130" 
d="M451 0l-265 -2q-20 0 -32 12q-13 13 -13 35v946q0 22 13 35q12 12 34 12q23 0 35 -12q13 -13 13 -33v-405h215q150 0 233 -86q84 -87 84 -205q0 -119 -84 -209q-82 -88 -233 -88zM672 295h-2q0 81 -56 143t-155 62h-226v-412h226q101 0 157 62t56 145zM983 991v-966
q0 -22 -14 -33q-15 -12 -37 -12t-37 12q-14 11 -14 35v962q0 24 14 35q15 12 37 12t37 -12q14 -11 14 -33z" />
    <glyph glyph-name="afii10094" unicode="&#x44c;" horiz-adv-x="851" 
d="M451 0l-265 -2q-20 0 -32 12q-13 13 -13 35v946q0 22 13 35q12 12 34 12q23 0 35 -12q13 -13 13 -33v-405h215q150 0 233 -86q84 -87 84 -205q0 -119 -84 -209q-82 -88 -233 -88zM672 295h-2q0 81 -56 143t-155 62h-226v-412h226q101 0 157 62t56 145z" />
    <glyph glyph-name="afii10095" unicode="&#x44d;" horiz-adv-x="907" 
d="M442 -16l-6 -4q-92 0 -155 32q-70 36 -105 82q-38 50 -55 94q-19 49 -19 80q0 22 13 35q12 12 32 12q16 0 31 -12q16 -13 19 -27q12 -95 79 -153q66 -57 164 -57q114 0 181 67t67 176v176h-297q-18 0 -31 13q-12 12 -12 30q0 19 12 31t31 12h297v131q0 107 -67 177
q-68 71 -179 71q-89 0 -153 -49t-82 -141q-6 -33 -45 -33q-21 0 -33 12t-12 35q0 83 80 172q81 90 239 90q156 0 250 -94q96 -96 96 -246v-381q0 -147 -92 -239t-248 -92z" />
    <glyph glyph-name="afii10096" unicode="&#x44e;" horiz-adv-x="1212" 
d="M242 993v-413h172v114q0 153 92 248q91 94 246 94q154 0 245 -94q93 -96 93 -248v-381q0 -146 -93 -239q-92 -92 -245 -92q-154 0 -246 92t-92 239v179h-172v-465q0 -21 -15 -33t-37 -12q-21 0 -36 12t-15 35v962q0 23 15 35t36 12q22 0 37 -12t15 -33zM752 66l-4 -3
q113 0 178 68t65 176v393q0 106 -65 177t-176 71q-112 0 -177 -71t-65 -177v-393q0 -106 65 -174q64 -67 179 -67z" />
    <glyph glyph-name="afii10097" unicode="&#x44f;" horiz-adv-x="917" 
d="M231 717v-2q0 -85 56 -150q54 -63 164 -63h227v432h-227q-96 0 -158 -68t-62 -149zM451 414l-244 -402q-15 -30 -43 -30q-22 0 -37 12q-14 11 -14 29q0 15 8 28l225 375q-100 27 -158 109q-55 79 -55 178q0 123 86 215t240 92h266q49 0 49 -47v-946q0 -22 -14 -33
q-15 -12 -37 -12q-21 0 -33 12t-12 35v385h-227z" />
    <glyph glyph-name="afii10071" unicode="&#x451;" horiz-adv-x="927" 
d="M219 715l-2 -142h492v138q0 100 -70 170q-71 71 -178 71q-108 0 -174 -69q-68 -71 -68 -168zM463 -20l-8 -7q-155 0 -248 93q-92 92 -92 239v387q0 148 94 242t248 94q150 0 245 -92t95 -240v-161q0 -24 -15 -39t-43 -15h-528v-180q0 -102 68 -170t176 -68q96 0 166 58
q69 57 81 153q3 14 19 27q15 12 31 12q20 0 32 -12q13 -13 13 -33q0 -31 -19 -80q-17 -44 -55 -94q-35 -46 -105 -82q-63 -32 -155 -32zM242 1239v-8q0 31 22 53q23 23 53 23q29 0 50 -21q22 -22 22 -51t-22 -51q-21 -21 -50 -21q-30 0 -53 23q-22 22 -22 53zM516 1231v-8
q0 30 23 53q22 22 49 22q33 0 53 -20q23 -23 23 -51t-23 -51q-21 -21 -53 -21q-26 0 -49 23t-23 53z" />
    <glyph glyph-name="afii10099" unicode="&#x452;" 
d="M731 -25v709q0 114 -65 182t-177 68q-102 0 -176 -74q-73 -73 -73 -190v-643q0 -21 -15 -33t-37 -12q-20 0 -32 12q-13 13 -13 35v1149h-92q-19 0 -31 12t-12 31q0 18 12 30q13 13 31 13h92v135q0 22 13 35q12 12 34 12t37 -12t15 -33v-135h233q18 0 31 -13
q12 -12 12 -30q0 -19 -12 -31t-31 -12h-233v-293l10 16q4 6 31 33t51 43q27 18 74 33q43 14 92 14q149 0 239 -90t90 -240v-719q0 -121 -63 -196q-64 -76 -191 -76q-21 0 -36 12t-15 31t15 31t36 12q156 0 156 184z" />
    <glyph glyph-name="afii10100" unicode="&#x453;" horiz-adv-x="657" 
d="M598 938l-358 -2v-907q0 -21 -15 -33t-37 -12q-20 0 -32 12q-13 13 -13 35v946q0 22 13 35q12 12 32 12h410q19 0 31 -12t12 -31t-12 -31t-31 -12zM315 1192l170 182q17 17 37 17q22 0 37 -15q14 -14 14 -37q0 -20 -16 -36l-182 -166q-13 -13 -31 -13q-14 0 -27 13
q-12 12 -12 26q0 19 10 29z" />
    <glyph glyph-name="afii10101" unicode="&#x454;" horiz-adv-x="907" 
d="M465 -16l-6 -4q-156 0 -248 92t-92 239v381q0 150 96 246t250 96q159 0 240 -90q79 -88 79 -172q0 -21 -12 -33t-33 -12q-39 0 -45 33q-18 92 -82 141t-153 49q-110 0 -178 -71t-68 -177v-131h297q19 0 31 -12t12 -31q0 -18 -12 -30q-13 -13 -31 -13h-297v-176
q0 -106 68 -174q67 -67 180 -67q98 0 164 57q68 59 80 154q3 14 18 26t31 12q20 0 32 -12q13 -13 13 -33q0 -30 -19 -79q-18 -46 -55 -95q-36 -47 -104 -82q-63 -32 -156 -32z" />
    <glyph glyph-name="afii10102" unicode="&#x455;" horiz-adv-x="839" 
d="M432 1040l-2 -4q139 0 215 -82q78 -84 78 -147q0 -21 -12 -33t-33 -12q-43 0 -49 33q-15 66 -70 112q-54 45 -133 45q-76 0 -135 -47q-58 -46 -58 -117q0 -68 54 -116q51 -45 127 -76q82 -33 147 -64q75 -35 127 -102q53 -68 53 -168q0 -121 -92 -201q-91 -79 -225 -79
q-88 0 -156 30q-63 28 -100 78q-34 45 -49 90q-15 44 -15 84q0 22 13 35q12 12 35 12q40 0 43 -37q9 -97 69 -151q61 -55 156 -55q97 0 158 55t61 139q0 75 -51 123q-54 51 -125 80q-106 43 -148 63q-70 33 -125 97q-51 60 -51 153q0 119 84 191q83 71 209 71z" />
    <glyph glyph-name="afii10103" unicode="&#x456;" horiz-adv-x="413" 
d="M125 1255l-4 -4q0 36 24 60t60 24q35 0 59 -24q25 -25 25 -58q0 -32 -25 -57t-57 -25t-57 25t-25 59zM252 989v-966q0 -22 -14 -33q-16 -13 -37 -13t-37 13q-14 11 -14 35v962q0 24 14 35q15 12 37 12t37 -12q14 -11 14 -33z" />
    <glyph glyph-name="afii10104" unicode="&#x457;" horiz-adv-x="413" 
d="M256 993v-966q0 -22 -14 -33q-15 -12 -37 -12t-37 12q-14 11 -14 35v962q0 24 14 35q15 12 37 12t37 -12q14 -11 14 -33zM-4 1245v-8q0 31 22 53q23 23 54 23q28 0 49 -21q22 -22 22 -51t-22 -51q-21 -21 -49 -21q-31 0 -54 23q-22 22 -22 53zM270 1237v-8q0 30 23 53
t49 23q32 0 53 -21q23 -23 23 -51t-23 -51q-21 -21 -53 -21q-26 0 -49 23t-23 53z" />
    <glyph glyph-name="afii10105" unicode="&#x458;" horiz-adv-x="415" 
d="M127 1255l-2 -4q0 35 25 60q24 24 59 24q33 0 57 -24q25 -25 25 -58q0 -32 -25 -57t-57 -25t-57 25t-25 59zM-117 -348q-22 13 -22 39q0 18 12 30q13 13 31 13q13 0 24 -8q38 -23 84 -23q66 0 105 45q41 47 41 123v1116q0 23 12 35t35 12q22 0 37 -12q14 -11 14 -33
v-1110q0 -118 -70 -188q-72 -72 -174 -72q-79 0 -129 33z" />
    <glyph glyph-name="afii10106" unicode="&#x459;" horiz-adv-x="1382" 
d="M979 0l-266 -2q-21 0 -33 12t-12 35v889h-340q-34 -503 -56 -725q-9 -89 -53 -154t-137 -65q-51 0 -51 41q0 34 41 37q59 3 80 43q21 41 30 116l60 752q3 43 43 43h436q21 0 33 -12t12 -33v-389h213q150 0 233 -86q84 -87 84 -205q0 -119 -84 -209q-82 -88 -233 -88z
M1198 295h-2q0 82 -55 143q-56 62 -156 62h-223v-412h223q102 0 158 62q55 61 55 145z" />
    <glyph glyph-name="afii10107" unicode="&#x45a;" horiz-adv-x="1382" 
d="M985 0l-258 -6q-21 0 -33 12t-12 35v453h-446v-469q0 -21 -15 -33t-37 -12q-20 0 -32 12q-13 13 -13 35v962q0 22 13 35q12 12 34 12t37 -12t15 -33v-407h446v407q0 23 12 35t35 12t35 -12t12 -33v-405h207q151 0 234 -86q84 -87 84 -205q0 -119 -84 -209
q-82 -88 -234 -88zM1204 291h-2q0 82 -55 143q-56 62 -156 62h-217v-412h217q103 0 158 61t55 146z" />
    <glyph glyph-name="afii10108" unicode="&#x45b;" horiz-adv-x="962" 
d="M473 1180l-235 -6v-293l10 16q4 6 31 33t51 43q27 18 73 33q43 14 93 14q149 0 239 -90t90 -240v-663q0 -22 -14 -33q-15 -12 -37 -12q-21 0 -33 12t-12 35v655q0 114 -65 182t-177 68q-102 0 -176 -74q-73 -73 -73 -190v-643q0 -21 -15 -33t-37 -12q-20 0 -32 12
q-13 13 -13 35v1149h-92q-19 0 -31 12t-12 31q0 18 12 30q13 13 31 13h92v135q0 22 13 35q12 12 34 12t37 -12t15 -33v-135h233q18 0 31 -13q12 -12 12 -30q0 -19 -12 -31t-31 -12z" />
    <glyph glyph-name="afii10109" unicode="&#x45c;" horiz-adv-x="806" 
d="M715 967l-387 -426l411 -488q9 -9 9 -28q0 -20 -13 -33q-12 -12 -33 -12t-36 18l-435 524v-495q0 -21 -12 -33t-33 -12q-20 0 -32 12q-13 13 -13 35v962q0 22 13 35q12 12 32 12q22 0 37 -12t15 -33v-432l403 461q15 18 37 18q23 0 35 -12t12 -31q0 -13 -10 -30z
M369 1188l170 182q16 16 36 16q23 0 37 -14q15 -15 15 -37q0 -20 -17 -37l-182 -165q-13 -13 -31 -13q-13 0 -26 13t-13 26q0 18 11 29z" />
    <glyph glyph-name="afii10110" unicode="&#x45e;" horiz-adv-x="886" 
d="M446 1225q133 0 148 121q3 40 47 40q19 0 33 -14t14 -37t-10 -53q-9 -26 -33 -61q-25 -35 -76 -56q-55 -22 -123 -22q-67 0 -122 22q-51 21 -76 56q-24 35 -33 61q-10 30 -10 53t14 37t33 14q44 0 47 -40q15 -121 147 -121zM188 -369l-49 2q-17 0 -30 13t-13 30
q0 18 13 31q12 12 30 12h39q106 0 146 113l73 207l-340 938q-4 16 -4 20q0 19 15 31t36 12q36 0 50 -36l297 -832l303 834q12 34 45 34q45 0 45 -41q0 -11 -8 -30l-420 -1141q-74 -197 -228 -197z" />
    <glyph glyph-name="afii10193" unicode="&#x45f;" horiz-adv-x="976" 
d="M438 0l-256 -8q-20 0 -32 12q-13 13 -13 35v946q0 23 15 35t36 12q23 0 35 -12q13 -13 13 -33v-907h497v907q0 23 12 35t35 12q22 0 37 -12q14 -11 14 -33v-946q0 -21 -12 -33t-33 -12h-251v-178q0 -20 -13 -33q-12 -12 -33 -12t-36 12t-15 35v178z" />
    <glyph glyph-name="afii10146" unicode="&#x462;" horiz-adv-x="1019" 
d="M604 1108l-285 -2v-301h299q123 0 211 -88q89 -89 89 -215v-207q0 -125 -89 -211t-211 -86h-352q-21 0 -37 16t-16 37v1055h-158q-22 0 -37 12q-14 11 -14 35q0 23 14 37t37 14h158v193q0 21 16 37t37 16t37 -16t16 -37v-193h285q23 0 37 -14t14 -37q0 -22 -14 -33
q-15 -12 -37 -12zM811 299l-2 207q0 84 -57 141q-58 58 -142 58h-293v-607h293q82 0 142 60q59 59 59 141z" />
    <glyph glyph-name="afii10194" unicode="&#x463;" horiz-adv-x="933" 
d="M559 938l-242 -2v-350h215q151 0 234 -86q84 -87 84 -205q0 -119 -84 -209q-82 -88 -234 -88h-262q-20 0 -32 12q-13 13 -13 35v891h-151q-19 0 -31 12t-12 31t12 31t31 12h151v379q0 22 13 35q12 12 34 12q23 0 35 -12t12 -33v-379h240q19 0 31 -12t12 -31t-12 -31
t-31 -12zM754 295h-2q0 81 -56 143t-155 62h-226v-412h226q101 0 157 62t56 145z" />
    <glyph glyph-name="afii10147" unicode="&#x472;" horiz-adv-x="1042" 
d="M899 1096v-760q0 -151 -104 -252q-103 -100 -271 -100q-164 0 -272 102q-107 101 -107 252v756q0 151 107 252q108 102 272 102q168 0 271 -100q104 -101 104 -252zM643 649l4 -2q-53 0 -129 43t-110 43q-72 0 -154 -82v-317q0 -110 74 -184t196 -74q121 0 195 74t74 184
v375q-78 -60 -150 -60zM254 1090l-2 -326q69 63 154 63q53 0 129 -43t110 -43q70 0 148 78v271q0 110 -74 184t-195 74q-122 0 -196 -74t-74 -184z" />
    <glyph glyph-name="afii10195" unicode="&#x473;" horiz-adv-x="929" 
d="M807 715l-2 -416q0 -132 -96 -225q-95 -92 -246 -92t-246 92q-94 91 -94 225v412q0 135 96 231t246 96t246 -96t96 -227zM213 698l-6 -153q55 49 129 49q53 0 129 -43t110 -43q38 0 74 22q32 20 49 43l13 23v98q0 111 -72 183q-71 71 -178 71q-109 0 -178 -69
q-70 -70 -70 -181zM573 418l-2 -2q-53 0 -129 43t-110 43q-36 0 -70 -21q-32 -19 -45 -39q-11 -16 -14 -26v-105q0 -112 71 -180t179 -68q107 0 178 68t71 178v158q-52 -49 -129 -49z" />
    <glyph glyph-name="afii10148" unicode="&#x474;" horiz-adv-x="1024" 
d="M770 924l-2 288q0 105 43 166q44 62 129 62q23 0 39 -13q14 -11 14 -30q0 -40 -47 -43q-74 -6 -74 -144v-299q0 -37 -14 -86l-237 -788q-9 -37 -50 -37h-129q-40 0 -49 37l-235 786q-15 49 -15 88v486q0 20 17 37q16 16 37 16q20 0 36 -16q17 -17 17 -37v-475
q0 -45 6 -66l221 -758h66l221 758q6 21 6 68z" />
    <glyph glyph-name="afii10196" unicode="&#x475;" horiz-adv-x="878" 
d="M647 645l-2 193q0 102 43 151t107 49q49 0 49 -43q0 -40 -43 -43q-60 -6 -60 -127v-161q0 -32 -12 -62l-197 -567q-15 -37 -51 -37h-98q-39 0 -51 37l-201 569q-10 27 -10 60v327q0 24 14 35q15 12 37 12q23 0 35 -12t12 -33v-348l197 -559h37z" />
    <glyph glyph-name="afii10050" unicode="&#x490;" horiz-adv-x="804" 
d="M784 1593l-2 -209q0 -21 -12 -36t-35 -15h-465v-1298q0 -21 -16 -37t-37 -16t-37 16t-16 37v1343q0 21 16 37q17 17 37 17h473v159q0 22 12 37q14 17 35 17q23 0 35 -15t12 -37z" />
    <glyph glyph-name="afii10098" unicode="&#x491;" horiz-adv-x="690" 
d="M651 1178l-6 -199q0 -19 -12 -31t-31 -12h-362v-907q0 -21 -15 -33t-37 -12q-20 0 -32 12q-13 13 -13 35v946q0 22 13 35q12 12 32 12h377v154q0 17 13 30t30 13q18 0 31 -13q12 -12 12 -30z" />
    <glyph glyph-name="uni04D8" unicode="&#x4d8;" horiz-adv-x="1042" 
d="M793 670l-547 2v-334q0 -109 78 -184q77 -74 196 -74q120 0 197 74q76 73 76 188v328zM528 1452l-4 -6q161 0 264 -100q105 -102 105 -252v-756q0 -151 -107 -252q-108 -102 -270 -102t-270 102q-107 101 -107 252v332q0 38 29 67t74 29h549v326q0 109 -74 186
q-73 76 -187 76q-100 0 -174 -68q-73 -67 -82 -162q-3 -18 -18 -30q-16 -13 -37 -13q-20 0 -37 17q-14 14 -14 37q0 109 98 213t262 104z" />
    <glyph glyph-name="afii10846" unicode="&#x4d9;" horiz-adv-x="927" 
d="M709 309l-2 133h-492v-137q0 -96 72 -168q69 -69 178 -69q108 0 176 71t68 170zM461 1036h2q158 0 250 -92t92 -239v-388q0 -147 -94 -241t-248 -94q-151 0 -246 92q-94 91 -94 239v162q0 25 16 41t43 16h529v181q0 102 -68 170q-67 67 -176 67q-97 0 -166 -57
q-70 -58 -82 -154q-3 -14 -18 -26q-16 -13 -31 -13q-20 0 -33 13q-12 12 -12 35q0 32 18 79q17 43 56 95q36 47 104 82q63 32 158 32z" />
    <glyph glyph-name="Wgrave" unicode="&#x1e80;" horiz-adv-x="1370" 
d="M887 37l-207 684l-201 -684q-9 -37 -49 -37h-102q-43 0 -52 37l-118 784q-6 47 -6 90v486q0 21 16 37t37 16t37 -16t16 -37v-486q0 -35 8 -90l103 -723h28l199 684q12 39 49 39h78q35 0 47 -39l199 -684h28l103 723q8 55 8 90v486q0 21 16 37t37 16t37 -16t16 -37v-486
q0 -43 -6 -90l-118 -784q-9 -37 -52 -37h-102q-40 0 -49 37zM567 1784l170 -187q11 -11 11 -24q0 -14 -13 -27q-12 -12 -26 -12q-19 0 -31 12l-182 166q-17 17 -17 37q0 22 15 37q14 14 36 14q21 0 37 -16z" />
    <glyph glyph-name="wgrave" unicode="&#x1e81;" horiz-adv-x="1232" 
d="M1110 993l-12 -315q0 -48 -8 -84l-121 -563q-9 -37 -49 -37h-93q-40 0 -49 37l-170 544l-170 -544q-9 -37 -49 -37h-92q-40 0 -49 37l-121 563q-8 36 -8 86v309q0 24 14 35q15 12 37 12q23 0 35 -12t12 -33v-346l119 -561h26l170 537q12 36 52 36h61q39 0 51 -36
l170 -537h27l119 561v346q0 24 14 35q15 12 37 12q23 0 35 -12t12 -33zM528 1368l170 -186q11 -11 11 -25t-13 -27q-12 -12 -26 -12q-19 0 -31 12l-182 166q-17 17 -17 37q0 22 15 37q14 14 37 14q20 0 36 -16z" />
    <glyph glyph-name="Wacute" unicode="&#x1e82;" horiz-adv-x="1370" 
d="M887 37l-207 684l-201 -684q-9 -37 -49 -37h-102q-43 0 -52 37l-118 784q-6 47 -6 90v486q0 21 16 37t37 16t37 -16t16 -37v-486q0 -35 8 -90l103 -723h28l199 684q12 39 49 39h78q35 0 47 -39l199 -684h28l103 723q8 55 8 90v486q0 21 16 37t37 16t37 -16t16 -37v-486
q0 -43 -6 -90l-118 -784q-9 -37 -52 -37h-102q-40 0 -49 37zM616 1604l170 182q16 16 37 16q23 0 37 -14t14 -37q0 -21 -16 -37l-182 -166q-12 -12 -31 -12q-15 0 -27 12t-12 27q0 19 10 29z" />
    <glyph glyph-name="wacute" unicode="&#x1e83;" horiz-adv-x="1232" 
d="M1110 993l-12 -315q0 -48 -8 -84l-121 -563q-9 -37 -49 -37h-93q-40 0 -49 37l-170 544l-170 -544q-9 -37 -49 -37h-92q-40 0 -49 37l-121 563q-8 36 -8 86v309q0 24 14 35q15 12 37 12q23 0 35 -12t12 -33v-346l119 -561h26l170 537q12 36 52 36h61q39 0 51 -36
l170 -537h27l119 561v346q0 24 14 35q15 12 37 12q23 0 35 -12t12 -33zM547 1188l170 182q16 16 37 16q23 0 37 -14t14 -37q0 -20 -17 -37l-182 -165q-13 -13 -31 -13q-13 0 -26 13q-12 12 -12 26q0 19 10 29z" />
    <glyph glyph-name="Wdieresis" unicode="&#x1e84;" horiz-adv-x="1370" 
d="M887 37l-207 684l-201 -684q-9 -37 -49 -37h-102q-43 0 -52 37l-118 784q-6 47 -6 90v486q0 21 16 37t37 16t37 -16t16 -37v-486q0 -35 8 -90l103 -723h28l199 684q12 39 49 39h78q35 0 47 -39l199 -684h28l103 723q8 55 8 90v486q0 21 16 37t37 16t37 -16t16 -37v-486
q0 -43 -6 -90l-118 -784q-9 -37 -52 -37h-102q-40 0 -49 37zM469 1659v-8q0 30 23 53q22 22 53 22q29 0 49 -20q22 -22 22 -51t-22 -51q-21 -21 -49 -21q-30 0 -53 23t-23 53zM743 1651v-9q0 31 23 54q22 22 49 22q33 0 53 -20q23 -23 23 -51q0 -29 -23 -52q-20 -20 -53 -20
q-27 0 -49 22q-23 23 -23 54z" />
    <glyph glyph-name="wdieresis" unicode="&#x1e85;" horiz-adv-x="1232" 
d="M1110 993l-12 -315q0 -48 -8 -84l-121 -563q-9 -37 -49 -37h-93q-40 0 -49 37l-170 544l-170 -544q-9 -37 -49 -37h-92q-40 0 -49 37l-121 563q-8 36 -8 86v309q0 24 14 35q15 12 37 12q23 0 35 -12t12 -33v-346l119 -561h26l170 537q12 36 52 36h61q39 0 51 -36
l170 -537h27l119 561v346q0 24 14 35q15 12 37 12q23 0 35 -12t12 -33zM391 1243v-8q0 30 23 53t53 23q28 0 49 -21q23 -23 23 -51t-23 -51q-21 -21 -49 -21q-30 0 -53 23t-23 53zM666 1235v-8q0 31 22 53q23 23 49 23q33 0 54 -21q22 -22 22 -51t-22 -51q-21 -21 -54 -21
q-26 0 -49 23q-22 22 -22 53z" />
    <glyph glyph-name="Ygrave" unicode="&#x1ef2;" horiz-adv-x="892" 
d="M502 682l-6 -643q0 -22 -15 -37q-16 -16 -37 -16q-20 0 -36 16q-17 17 -17 37v645l-334 692q-6 12 -6 29q0 14 17 31q16 16 36 16q34 0 52 -35l293 -616l286 616q15 35 53 35q23 0 37 -14q15 -15 15 -33q0 -16 -6 -31zM344 1786l170 -187q10 -10 10 -24q0 -15 -12 -27
t-27 -12q-18 0 -30 12l-183 166q-16 16 -16 37q0 23 14 37t37 14q21 0 37 -16z" />
    <glyph glyph-name="ygrave" unicode="&#x1ef3;" horiz-adv-x="886" 
d="M266 -317l131 356l-340 938q-4 16 -4 20q0 19 15 31t36 12q36 0 50 -36l297 -832l303 834q12 34 45 34q45 0 45 -41q0 -11 -8 -30l-488 -1323q-12 -35 -45 -35q-45 0 -45 41q0 12 8 31zM383 1376l170 -186q10 -10 10 -25q0 -14 -12 -26q-13 -13 -27 -13q-17 0 -30 13
l-183 166q-16 16 -16 36q0 23 14 37q15 15 37 15q20 0 37 -17z" />
    <glyph glyph-name="endash" unicode="&#x2013;" horiz-adv-x="780" 
d="M47 643h682q24 0 35 -14q12 -15 12 -37t-12 -37q-11 -14 -33 -14h-686q-22 0 -33 14q-12 15 -12 37t12 37q11 14 35 14z" />
    <glyph glyph-name="emdash" unicode="&#x2014;" horiz-adv-x="1468" 
d="M47 643h1370q24 0 35 -14q12 -15 12 -37t-12 -37q-11 -14 -33 -14h-1374q-22 0 -33 14q-12 15 -12 37t12 37q11 14 35 14z" />
    <glyph glyph-name="quoteleft" unicode="&#x2018;" horiz-adv-x="350" 
d="M92 1145l94 272q9 31 37 31q35 0 35 -41q0 -12 -2 -18l-51 -279q-3 -19 -21 -31t-39 -12t-36 18q-17 20 -17 39v11v10z" />
    <glyph glyph-name="quoteright" unicode="&#x2019;" horiz-adv-x="350" 
d="M258 1374l-96 -274q-9 -31 -37 -31q-35 0 -35 41q0 12 2 18l51 279q15 45 62 45q22 0 37 -18q16 -19 16 -39v-11v-10z" />
    <glyph glyph-name="quotesinglbase" unicode="&#x201a;" horiz-adv-x="372" 
d="M258 68l-96 -275q-9 -31 -37 -31q-35 0 -35 41q0 13 2 19l51 278q15 45 62 45q22 0 37 -18q16 -19 16 -39v-10v-10z" />
    <glyph glyph-name="quotedblleft" unicode="&#x201c;" horiz-adv-x="600" 
d="M342 1145l94 272q9 31 37 31q35 0 35 -41q0 -12 -2 -18l-51 -279q-3 -19 -21 -31t-39 -12q-22 0 -37 18q-16 19 -16 39v11v10zM92 1141l94 272q9 31 37 31q35 0 35 -41q0 -13 -2 -19l-51 -278q-3 -19 -21 -31t-39 -12t-36 18q-17 20 -17 39v10v11z" />
    <glyph glyph-name="quotedblright" unicode="&#x201d;" horiz-adv-x="600" 
d="M258 1374l-96 -274q-9 -31 -37 -31q-35 0 -35 41q0 12 2 18l51 279q15 45 62 45q22 0 37 -18q16 -19 16 -39v-11v-10zM506 1376l-96 -274q-9 -31 -37 -31q-35 0 -35 41q0 12 2 18l51 279q15 45 62 45q21 0 36 -18q17 -20 17 -39v-11v-10z" />
    <glyph glyph-name="quotedblbase" unicode="&#x201e;" horiz-adv-x="622" 
d="M258 68l-96 -275q-9 -31 -37 -31q-35 0 -35 41q0 13 2 19l51 278q15 45 62 45q22 0 37 -18q16 -19 16 -39v-10v-10zM506 70l-96 -275q-9 -31 -37 -31q-35 0 -35 41q0 13 2 19l51 278q15 45 62 45q21 0 36 -18q17 -20 17 -39v-10v-10z" />
    <glyph glyph-name="dagger" unicode="&#x2020;" horiz-adv-x="862" 
d="M694 934l-221 -4v-1276q0 -21 -12 -33t-33 -12t-33 12t-12 35v1276h-215q-19 0 -31 12t-12 31t12 31t31 12h215v379q0 23 12 35t35 12t35 -12t12 -33v-379h217q19 0 31 -12t12 -31t-12 -31t-31 -12z" />
    <glyph glyph-name="daggerdbl" unicode="&#x2021;" horiz-adv-x="862" 
d="M694 43l-221 -4v-385q0 -21 -12 -33t-33 -12t-33 12t-12 35v385h-215q-19 0 -31 12t-12 31t12 31t31 12h215v801h-215q-19 0 -31 12t-12 31q0 18 12 30q13 13 31 13h215v379q0 22 12 34q13 13 35 13t35 -13q12 -12 12 -32v-379h217q19 0 31 -12t12 -31t-12 -31t-31 -12
h-217v-801h217q19 0 31 -12t12 -31t-12 -31t-31 -12z" />
    </font>
</defs>
</svg>
