<svg width="12" height="20" viewBox="0 0 12 20" fill="none" xmlns="http://www.w3.org/2000/svg">
<path fill-rule="evenodd" clip-rule="evenodd" d="M0.968875 19.5311C0.899031 19.4615 0.843616 19.3787 0.805806 19.2876C0.767997 19.1965 0.748535 19.0988 0.748535 19.0001C0.748535 18.9015 0.767997 18.8038 0.805806 18.7127C0.843616 18.6216 0.899031 18.5388 0.968875 18.4691L9.43938 10.0001L0.968875 1.53112C0.899144 1.46139 0.843829 1.37861 0.80609 1.2875C0.768352 1.19639 0.748928 1.09874 0.748928 1.00012C0.748928 0.901508 0.768352 0.803858 0.80609 0.712749C0.843829 0.621639 0.899144 0.538857 0.968875 0.469124C1.03861 0.399393 1.12139 0.344078 1.2125 0.306339C1.30361 0.2686 1.40126 0.249178 1.49988 0.249178C1.59849 0.249178 1.69614 0.2686 1.78725 0.306339C1.87836 0.344078 1.96114 0.399393 2.03088 0.469124L11.0309 9.46912C11.1007 9.53879 11.1561 9.62156 11.1939 9.71268C11.2318 9.80379 11.2512 9.90147 11.2512 10.0001C11.2512 10.0988 11.2318 10.1965 11.1939 10.2876C11.1561 10.3787 11.1007 10.4615 11.0309 10.5311L2.03088 19.5311C1.96121 19.601 1.87844 19.6564 1.78733 19.6942C1.69621 19.732 1.59853 19.7515 1.49988 19.7515C1.40122 19.7515 1.30354 19.732 1.21243 19.6942C1.12131 19.6564 1.03854 19.601 0.968875 19.5311Z" fill="#3CB9D2"/>
</svg>
