<svg width="140" height="40" viewBox="0 0 140 40" fill="none" xmlns="http://www.w3.org/2000/svg">
<path d="M72.3174 19.075C72.3174 23.3243 70.8775 25.218 67.6436 25.218C64.4096 25.218 62.9698 23.3174 62.9698 19.075V7.37488H58.6525V19.5139C58.6525 25.7903 61.8427 29.2468 67.6229 29.2468C73.403 29.2468 76.6047 25.7995 76.6047 19.5139V7.37488H72.3174V19.075Z" fill="white"/>
<path d="M96.3234 17.9533C96.3234 23.0898 92.9883 25.3903 89.6854 25.3903C85.444 25.3903 83.2244 21.6488 83.2244 17.9533C83.2244 13.1271 86.4744 10.5991 89.6854 10.5991C93.5955 10.5991 96.3234 13.6189 96.3234 17.9533ZM90.4444 6.74963C87.5486 6.74963 84.9977 8.12855 83.2244 10.6566V7.37474H78.9186V37.9407H83.2244V25.4661C84.9655 27.8723 87.5164 29.2466 90.265 29.2466C93.3379 29.2466 95.937 28.0539 97.7863 25.7993C99.4746 23.731 100.406 20.9019 100.406 17.8269C100.406 14.9174 99.4539 12.1826 97.7242 10.1303C96.8362 9.06476 95.7226 8.20945 94.4637 7.62604C93.2048 7.04262 91.8321 6.74565 90.4444 6.75653" fill="white"/>
<path d="M37.2225 7.85966L37.1374 7.79761C36.1308 7.13889 34.9593 6.77579 33.7563 6.74963C31.2032 6.74963 29.1561 8.11476 28.0543 10.5118V7.37474H23.7485V28.5342H28.0612V18.1326C28.0612 14.7542 28.5994 10.8749 32.781 10.8749C33.3687 10.8593 33.9516 10.9846 34.4808 11.2403L37.2225 7.85966Z" fill="white"/>
<path d="M17.1817 7.37492V10.7395C15.4314 8.16319 12.8805 6.74981 9.96172 6.74981C8.57437 6.73878 7.20187 7.03571 5.94334 7.61915C4.68481 8.20258 3.57164 9.05797 2.68421 10.1236C0.95224 12.1804 0 14.9107 0 17.8202C0 20.8952 0.920039 23.7265 2.61981 25.7926C4.45989 28.0517 7.0682 29.2399 10.1411 29.2399C12.9012 29.2399 15.4314 27.861 17.1817 25.4571V28.6102C17.1817 32.331 16.4917 36.1368 11.3464 36.1368C7.58112 36.1368 5.24422 33.9351 5.24422 30.3913V30.2465H0.933839V30.3913C1.01894 36.1368 5.13152 39.9885 11.1624 39.9885C20.3099 39.9885 21.4829 33.31 21.4829 27.4933V7.37492H17.1817ZM10.5252 25.3904C6.28386 25.3904 4.06427 21.649 4.06427 17.9535C4.06427 13.1273 7.31431 10.5993 10.5252 10.5993C14.4354 10.5993 17.1633 13.6191 17.1633 17.9535C17.1633 23.0899 13.8282 25.3904 10.5252 25.3904Z" fill="white"/>
<path d="M138.997 16.0483C136.948 16.9078 134.993 17.3789 133.491 17.3789C132.279 17.3789 131.421 17.0802 130.974 16.4895C130.473 15.8437 130.399 14.8049 130.765 13.3801L131.954 7.98851C132.559 5.37777 132.313 3.35995 131.225 1.99023C130.268 0.785981 128.73 0.176961 126.653 0.176961C124.454 0.176961 122.407 0.958345 120.41 2.56478C119.591 0.979029 118.011 0.176961 115.695 0.176961C113.79 0.176961 111.927 0.852629 110.154 2.18558C109.441 0.891698 107.559 0 105.344 0C104.232 0.00619099 103.13 0.207667 102.088 0.595231L101.784 0.705544L100.938 4.75266L101.954 4.32979C103.412 3.72537 104.576 3.76214 105.114 4.43781C105.499 4.92043 105.588 5.7179 105.367 6.68084L102.55 18.3097H107.288L109.165 10.2086C110.23 6.20052 111.911 4.33439 114.455 4.33439C114.745 4.3163 115.035 4.36443 115.304 4.47513C115.573 4.58583 115.813 4.75619 116.005 4.97328C116.413 5.48578 116.465 6.49009 116.137 7.88279L113.708 18.3097H118.439L120.661 8.73312C121.275 6.14996 123.278 4.34358 125.535 4.34358C126.236 4.34358 126.784 4.5734 127.12 4.99167C127.527 5.50187 127.58 6.50388 127.248 7.89428L125.887 13.8167C125.367 16.2183 125.691 18.1603 126.846 19.5921C128 21.0238 130.031 21.8328 132.506 21.8328C134.709 21.7957 136.875 21.2664 138.845 20.2838L139.105 20.1574L140 15.6277L138.997 16.0483Z" fill="white"/>
<path d="M56.2282 13.3915C55.7783 12.0693 55.0576 10.8553 54.1121 9.82698C53.1585 8.81362 51.9995 8.01523 50.7125 7.48512C47.7509 6.35017 44.4738 6.35017 41.5121 7.48512C40.2259 8.01555 39.0671 8.81301 38.1126 9.82468C37.1665 10.8535 36.4458 12.0684 35.9965 13.3915C35.5012 14.8514 35.2562 16.3844 35.272 17.9258C35.2533 19.4881 35.4998 21.0422 36.0011 22.5222C36.45 23.8455 37.1708 25.0604 38.1172 26.089C39.0711 27.1014 40.23 27.899 41.5167 28.4285C44.4784 29.5635 47.7555 29.5635 50.7171 28.4285C52.0037 27.8987 53.1626 27.1011 54.1167 26.089C55.0602 25.059 55.7792 23.8444 56.2282 22.5222C56.7281 21.0419 56.9746 19.488 56.9573 17.9258C56.9701 16.3842 56.7236 14.8515 56.2282 13.3915ZM49.0105 25.1743C48.1152 25.6364 47.1223 25.8775 46.1146 25.8775C45.107 25.8775 44.114 25.6364 43.2188 25.1743C42.4178 24.7208 41.7298 24.0923 41.2062 23.3357C40.6778 22.5668 40.2885 21.7111 40.0562 20.8077C39.5685 18.9368 39.5685 16.9723 40.0562 15.1013C40.2821 14.1914 40.6718 13.3301 41.2062 12.5595C41.7359 11.8149 42.423 11.1959 43.2188 10.7463C44.1136 10.2827 45.1067 10.0407 46.1146 10.0407C47.1225 10.0407 48.1157 10.2827 49.0105 10.7463C49.8063 11.196 50.4933 11.815 51.023 12.5595C51.5565 13.3306 51.9461 14.1917 52.1731 15.1013C52.6608 16.9723 52.6608 18.9368 52.1731 20.8077C51.9402 21.711 51.551 22.5665 51.023 23.3357C50.4995 24.0923 49.8114 24.7208 49.0105 25.1743Z" fill="white"/>
</svg>
