<svg width="113" height="32" viewBox="0 0 113 32" fill="none" xmlns="http://www.w3.org/2000/svg">
<path d="M58.3705 15.26C58.3705 18.6595 57.2083 20.1744 54.598 20.1744C51.9878 20.1744 50.8256 18.6539 50.8256 15.26V5.8999H47.3409V15.6111C47.3409 20.6322 49.9159 23.3974 54.5813 23.3974C59.2467 23.3974 61.831 20.6396 61.831 15.6111V5.8999H58.3705V15.26Z" fill="white"/>
<path d="M77.7468 14.3626C77.7468 18.4718 75.0549 20.3122 72.3889 20.3122C68.9655 20.3122 67.174 17.319 67.174 14.3626C67.174 10.5016 69.7972 8.47923 72.3889 8.47923C75.545 8.47923 77.7468 10.8951 77.7468 14.3626ZM73.0016 5.39966C70.6642 5.39966 68.6054 6.50279 67.174 8.5252V5.89974H63.6986V30.3525H67.174V20.3728C68.5794 22.2978 70.6382 23.3972 72.8568 23.3972C75.3371 23.3972 77.4349 22.443 78.9276 20.6394C80.2902 18.9847 81.0421 16.7215 81.0421 14.2615C81.0421 11.9339 80.2735 9.746 78.8774 8.10417C78.1607 7.25176 77.2619 6.56751 76.2458 6.10078C75.2297 5.63405 74.1216 5.39647 73.0016 5.40517" fill="white"/>
<path d="M30.0439 6.28768L29.9752 6.23804C29.1627 5.71106 28.2171 5.42058 27.2461 5.39966C25.1854 5.39966 23.5331 6.49176 22.6438 8.40937V5.89974H19.1685V22.8273H22.6494V14.506C22.6494 11.8033 23.0838 8.69986 26.459 8.69986C26.9333 8.68738 27.4038 8.78762 27.8309 8.99219L30.0439 6.28768Z" fill="white"/>
<path d="M13.8681 5.89998V8.59162C12.4553 6.5306 10.3964 5.3999 8.04053 5.3999C6.92074 5.39108 5.81294 5.62862 4.79712 6.09537C3.78131 6.56212 2.88282 7.24643 2.16654 8.09889C0.768594 9.74439 0 11.9286 0 14.2562C0 16.7162 0.742603 18.9813 2.11456 20.6341C3.59977 22.4414 5.70505 23.392 8.18534 23.392C10.4131 23.392 12.4553 22.2888 13.8681 20.3657V22.8882C13.8681 25.8648 13.3112 28.9095 9.15815 28.9095C6.11905 28.9095 4.23284 27.1481 4.23284 24.3131V24.1973H0.753742V24.3131C0.822432 28.9095 4.14187 31.9909 9.00963 31.9909C16.393 31.9909 17.3398 26.648 17.3398 21.9947V5.89998H13.8681ZM8.49537 20.3124C5.07198 20.3124 3.28045 17.3192 3.28045 14.3628C3.28045 10.5019 5.90369 8.47947 8.49537 8.47947C11.6514 8.47947 13.8533 10.8953 13.8533 14.3628C13.8533 18.472 11.1613 20.3124 8.49537 20.3124Z" fill="white"/>
<path d="M112.191 12.8386C110.536 13.5262 108.958 13.9031 107.746 13.9031C106.768 13.9031 106.075 13.6641 105.715 13.1916C105.31 12.675 105.251 11.844 105.546 10.7041L106.506 6.39081C106.994 4.30221 106.796 2.68796 105.917 1.59219C105.145 0.628785 103.903 0.141569 102.227 0.141569C100.452 0.141569 98.7996 0.766676 97.1881 2.05182C96.5272 0.783223 95.2518 0.141569 93.3823 0.141569C91.8451 0.141569 90.3413 0.682103 88.91 1.74846C88.3345 0.713358 86.8158 0 85.028 0C84.1303 0.00495279 83.2405 0.166134 82.3992 0.476185L82.1541 0.564436L81.4709 3.80213L82.2915 3.46383C83.4686 2.98029 84.4079 3.00971 84.8424 3.55024C85.1524 3.93634 85.2248 4.57432 85.0466 5.34467L82.7724 14.6477H86.5968L88.1117 8.16685C88.9712 4.96041 90.3283 3.46751 92.3816 3.46751C92.6157 3.45304 92.85 3.49155 93.0668 3.5801C93.2836 3.66866 93.4772 3.80495 93.6329 3.97863C93.9615 4.38862 94.0042 5.19207 93.7388 6.30623L91.7783 14.6477H95.5971L97.3905 6.9865C97.8862 4.91997 99.5032 3.47486 101.324 3.47486C101.891 3.47486 102.333 3.65872 102.604 3.99334C102.932 4.40149 102.975 5.2031 102.708 6.31543L101.608 11.0534C101.189 12.9747 101.451 14.5282 102.383 15.6737C103.315 16.8191 104.954 17.4662 106.952 17.4662C108.729 17.4366 110.477 17.0131 112.068 16.2271L112.278 16.1259L113 12.5022L112.191 12.8386Z" fill="white"/>
<path d="M45.3842 10.7132C45.0211 9.65545 44.4394 8.68427 43.6762 7.86158C42.9065 7.0509 41.9711 6.41218 40.9323 5.9881C38.5418 5.08014 35.8967 5.08014 33.5062 5.9881C32.4681 6.41244 31.5328 7.05041 30.7623 7.85974C29.9987 8.68281 29.417 9.65469 29.0543 10.7132C28.6545 11.8811 28.4568 13.1075 28.4695 14.3406C28.4544 15.5905 28.6534 16.8338 29.0581 18.0177C29.4204 19.0764 30.0021 20.0483 30.766 20.8712C31.536 21.6811 32.4714 22.3192 33.51 22.7428C35.9004 23.6508 38.5455 23.6508 40.936 22.7428C41.9744 22.3189 42.9098 21.6809 43.6799 20.8712C44.4414 20.0472 45.0218 19.0755 45.3842 18.0177C45.7877 16.8335 45.9867 15.5904 45.9727 14.3406C45.983 13.1074 45.7841 11.8812 45.3842 10.7132ZM39.5585 20.1394C38.8359 20.5091 38.0344 20.702 37.2211 20.702C36.4078 20.702 35.6063 20.5091 34.8838 20.1394C34.2373 19.7767 33.6819 19.2739 33.2593 18.6686C32.8328 18.0534 32.5186 17.3689 32.3311 16.6462C31.9375 15.1494 31.9375 13.5778 32.3311 12.0811C32.5134 11.3531 32.8279 10.6641 33.2593 10.0476C33.6868 9.45195 34.2414 8.95671 34.8838 8.597C35.606 8.22614 36.4076 8.03255 37.2211 8.03255C38.0346 8.03255 38.8363 8.22614 39.5585 8.597C40.2008 8.95676 40.7554 9.45199 41.1829 10.0476C41.6135 10.6645 41.928 11.3534 42.1112 12.0811C42.5048 13.5778 42.5048 15.1494 42.1112 16.6462C41.9232 17.3688 41.609 18.0532 41.1829 18.6686C40.7603 19.2739 40.205 19.7767 39.5585 20.1394Z" fill="white"/>
</svg>
