<svg width="199" height="59" viewBox="0 0 199 59" fill="none" xmlns="http://www.w3.org/2000/svg">
<g clip-path="url(#clip0_115:581)">
<path d="M177.23 41.9V23.63L182 41.29C180.44 41.6811 178.839 41.8858 177.23 41.9ZM191.4 35.84C192.519 34.7 193.5 33.4311 194.32 32.06L178.49 22.89L191.4 35.84ZM182.4 41.16C183.936 40.7334 185.417 40.1258 186.81 39.35L177.71 23.5L182.4 41.16ZM187.23 39.09C188.604 38.2812 189.876 37.311 191.02 36.2L178.11 23.2L187.23 39.09ZM176.73 41.9V23.62L172 41.27C173.546 41.668 175.134 41.8795 176.73 41.9ZM167.13 39.33C168.519 40.1087 169.996 40.7196 171.53 41.15L176.24 23.5L167.13 39.33ZM163 36.27L163.06 36.33C164.16 37.376 165.375 38.295 166.68 39.07L175.39 24L163 36.27ZM196.55 26.73C196.944 25.1735 197.152 23.5756 197.17 21.97H178.87L196.55 26.73ZM182.44 2.27001L177.71 20L186.85 4.12001C185.459 3.32961 183.979 2.70853 182.44 2.27001ZM177.23 1.51001V19.82L182 2.14001C180.441 1.74212 178.839 1.53064 177.23 1.51001ZM172 2.13001L176.73 19.82V1.51001C175.134 1.52723 173.546 1.73537 172 2.13001ZM187.27 4.34001L178.14 20.2L191.07 7.20001C189.92 6.10122 188.644 5.14131 187.27 4.34001ZM191.42 7.59001L178.49 20.59L194.33 11.42C193.518 10.0309 192.541 8.74496 191.42 7.59001ZM194.58 31.59C195.365 30.1939 195.982 28.7104 196.42 27.17L178.74 22.42L194.58 31.59ZM196.58 16.68L178.89 21.44H197.21C197.178 19.8461 196.956 18.2617 196.55 16.72L196.58 16.68ZM196.45 16.2C196.019 14.6588 195.405 13.1748 194.62 11.78L178.75 21L196.45 16.2ZM175.31 19.2L166.71 4.27001C165.339 5.08684 164.07 6.06369 162.93 7.18001L174 18.37C174.42 18.66 174.86 19 175.28 19.27L175.31 19.2ZM174 18.35L173.79 18.18L172.7 17.4L173.18 17.88C173.42 18 173.7 18.18 174 18.35ZM171.52 2.27001C169.986 2.70462 168.509 3.31888 167.12 4.10001L176.25 20L171.52 2.27001ZM167.63 56.05C169.171 55.6274 170.655 55.0197 172.05 54.24L162.9 38.35L167.63 56.05ZM156.71 56.05L161.44 38.36L152.31 54.2C153.701 54.9698 155.178 55.5739 156.71 56V56.05ZM167.15 56.2L162.42 38.5V56.8C164.016 56.7821 165.604 56.574 167.15 56.18V56.2ZM161.92 56.81V38.48L157.19 56.16C158.736 56.555 160.324 56.7664 161.92 56.79V56.81ZM165.2 39.96L165.38 40.15L166.38 40.83L165.99 40.43C165.73 40.25 165.46 40.11 165.2 39.94V39.96ZM163.83 38.96L172.49 53.96C173.864 53.1387 175.139 52.1623 176.29 51.05L165.14 39.91C164.69 39.61 164.26 39.28 163.83 39V38.96ZM144.83 46.91C145.651 48.2839 146.631 49.5561 147.75 50.7L160.65 37.76L144.83 46.91ZM144.83 26.28L160.63 35.42L147.77 22.49C146.651 23.6283 145.674 24.8974 144.86 26.27L144.83 26.28ZM151.83 19.28C150.466 20.0982 149.201 21.0714 148.06 22.18L161 35.05L151.83 19.28ZM156.66 17.21C155.126 17.6386 153.649 18.2496 152.26 19.03L161.37 34.84L156.66 17.21ZM144.62 26.7C143.836 28.093 143.219 29.5731 142.78 31.11L160.4 35.84L144.62 26.7ZM142 36.33H160.26L142.63 31.59C142.238 33.1405 142.027 34.731 142 36.33ZM148.1 51C149.233 52.1464 150.498 53.1535 151.87 54L161 38.1L148.1 51ZM142.77 42C143.194 43.542 143.806 45.0263 144.59 46.42L160.41 37.26L142.77 42ZM142 36.83C142.016 38.4291 142.225 40.0205 142.62 41.57L160.26 36.83H142ZM162.41 16.41V34.67L167.13 17C165.589 16.6185 164.008 16.4204 162.42 16.41H162.41ZM161.91 34.67V16.42C160.321 16.4372 158.739 16.6454 157.2 17.04L161.91 34.67ZM167.61 17.16L162.9 34.8L172 19C170.618 18.2153 169.148 17.5977 167.62 17.16H167.61ZM172.45 19.21L163.63 34.52L176.2 22.05C175.071 20.9571 173.816 20.0036 172.46 19.21H172.45ZM167.53 41.58L176.64 50.74C177.756 49.5907 178.729 48.3116 179.54 46.93L172.86 43.06C170.436 42.5843 168.114 41.6874 166 40.41L166.39 40.81L167.53 41.58ZM173.06 43.15L173.88 43.36L173.52 43.16L172.88 43.06L173.06 43.15ZM174.87 43.62L179.8 46.5C180.422 45.3844 180.938 44.2125 181.34 43C179.925 43.2885 178.484 43.4326 177.04 43.43C175.864 43.4253 174.69 43.325 173.53 43.13L173.89 43.33L174.87 43.62ZM171.6 16.62L162.54 7.62001C161.42 8.76039 160.442 10.0331 159.63 11.41L166.34 15.29C168.734 15.7679 171.029 16.6469 173.13 17.89L172.65 17.41L171.6 16.62ZM166.17 15.18L165.27 14.92L165.67 15.15C165.88 15.15 166.09 15.2 166.3 15.24L166.17 15.18ZM164.28 14.63L159.38 11.8C158.757 12.9026 158.238 14.061 157.83 15.26C160.415 14.7489 163.072 14.7117 165.67 15.15L165.27 14.92L164.28 14.63Z" fill="white"/>
<path d="M17 36.42H14V26.88L8.9 33.05C8.84786 33.1032 8.78562 33.1455 8.71694 33.1744C8.64826 33.2032 8.5745 33.2181 8.5 33.2181C8.4255 33.2181 8.35174 33.2032 8.28306 33.1744C8.21438 33.1455 8.15214 33.1032 8.1 33.05L3 26.88V36.42H0V23.23C0 22.803 0.169625 22.3935 0.471558 22.0916C0.773492 21.7896 1.183 21.62 1.61 21.62C1.88672 21.6315 2.15683 21.7081 2.39836 21.8437C2.63989 21.9792 2.84602 22.1698 3 22.4L8.54 29.05L14.31 22.12C14.4544 21.9614 14.6305 21.835 14.8269 21.7488C15.0232 21.6627 15.2356 21.6188 15.45 21.62C15.862 21.6227 16.2562 21.7882 16.5466 22.0805C16.837 22.3727 17 22.768 17 23.18V36.42Z" fill="white"/>
<path d="M91.23 36.42H94.53L96.43 32.42H102.85L104.85 36.42H108.15L100.92 22.26C100.769 22.0411 100.568 21.8621 100.333 21.7385C100.097 21.6148 99.8357 21.5501 99.57 21.55C99.3026 21.5485 99.0389 21.6124 98.8018 21.7361C98.5648 21.8599 98.3616 22.0397 98.21 22.26L91.23 36.42ZM99.55 25.87L101.67 30.09H97.54L99.55 25.87Z" fill="white"/>
<path d="M40.87 36.42H38.74L28.9 26.54V36.42H25.9V23.23C25.9 22.803 26.0696 22.3935 26.3716 22.0915C26.6735 21.7896 27.083 21.62 27.51 21.62C27.7335 21.6199 27.9546 21.666 28.1594 21.7555C28.3642 21.845 28.5483 21.9759 28.7 22.14L37.87 31.35V22.61C37.87 22.3448 37.9754 22.0904 38.1629 21.9029C38.3505 21.7153 38.6048 21.61 38.87 21.61H39.87C40.1352 21.61 40.3896 21.7153 40.5771 21.9029C40.7647 22.0904 40.87 22.3448 40.87 22.61V36.42Z" fill="white"/>
<path d="M53 22C51.8409 21.747 50.6562 21.6296 49.47 21.65H45.36C44.9648 21.65 44.5858 21.807 44.3064 22.0864C44.027 22.3658 43.87 22.7448 43.87 23.14V36.42H48.74C50.1226 36.4648 51.505 36.3236 52.85 36C56.64 34.95 58.73 32.4 58.73 28.83C58.73 25.26 56.71 22.86 53 22ZM52.09 33.31C50.9707 33.6004 49.816 33.7317 48.66 33.7H46.85V24.4H49.22C50.2278 24.366 51.2359 24.4601 52.22 24.68C54.5 25.28 55.61 26.68 55.61 28.82C55.6545 29.8571 55.3274 30.8762 54.6877 31.6937C54.0479 32.5113 53.1374 33.0738 52.12 33.28L52.09 33.31Z" fill="white"/>
<path d="M119 30.56C119.998 30.3725 120.896 29.8357 121.534 29.0459C122.171 28.256 122.507 27.2648 122.48 26.25C122.48 23.35 120.26 21.62 116.54 21.62H111.54C111.345 21.62 111.151 21.6586 110.971 21.7336C110.791 21.8086 110.627 21.9185 110.49 22.057C110.352 22.1955 110.244 22.3598 110.17 22.5406C110.096 22.7213 110.059 22.9148 110.06 23.11V36.42H113.06V31H115.78L119.45 36.45H123L119 30.56ZM113 28.22V24.37H116.75C117.75 24.37 119.34 24.61 119.34 26.29C119.34 27.12 119.01 28.22 116.11 28.22H113Z" fill="white"/>
<path d="M20 36.42H23V22.61C23 22.3448 22.8946 22.0904 22.7071 21.9029C22.5196 21.7153 22.2652 21.61 22 21.61H21C20.7348 21.61 20.4804 21.7153 20.2929 21.9029C20.1054 22.0904 20 22.3448 20 22.61V36.42Z" fill="white"/>
<path d="M89.4199 36.42H86.4199V30.28H78.6899V36.42H75.6899V22.61C75.6899 22.3448 75.7953 22.0904 75.9828 21.9029C76.1704 21.7153 76.4247 21.61 76.6899 21.61H77.6899C77.9552 21.61 78.2095 21.7153 78.397 21.9029C78.5846 22.0904 78.6899 22.3448 78.6899 22.61V27.54H86.4399V22.61C86.4399 22.3448 86.5453 22.0904 86.7328 21.9029C86.9204 21.7153 87.1747 21.61 87.4399 21.61H88.4399C88.7052 21.61 88.9595 21.7153 89.147 21.9029C89.3346 22.0904 89.4399 22.3448 89.4399 22.61L89.4199 36.42Z" fill="white"/>
<path d="M67.41 27.6C65.29 27.3 63.99 27.05 63.99 25.89C63.99 24.73 65.06 24.3 66.91 24.3C68.4214 24.3299 69.9072 24.6954 71.26 25.37H71.38C71.4513 25.37 71.5216 25.3538 71.5857 25.3226C71.6498 25.2914 71.706 25.2461 71.75 25.19L72.61 23.41C72.6155 23.3668 72.6155 23.3231 72.61 23.28C72.6106 23.2014 72.5905 23.1241 72.5519 23.0557C72.5133 22.9872 72.4575 22.9301 72.39 22.89L72.3 22.84C70.5836 21.9456 68.6754 21.4823 66.74 21.49C63.08 21.49 60.89 23.18 60.89 25.99C60.8519 26.5805 60.9629 27.1712 61.2128 27.7077C61.4627 28.2441 61.8434 28.7091 62.32 29.06C63.6451 29.8267 65.1316 30.2719 66.66 30.36C68.66 30.64 69.96 30.88 69.96 31.94C69.96 33.64 67.5 33.83 66.44 33.83C64.8864 33.8422 63.3598 33.4234 62.03 32.62L61.72 32.42L61.54 32.74L60.54 34.56L60.37 34.85L60.65 35.04C62.3872 36.1215 64.4044 36.6675 66.45 36.61C70.45 36.61 73.07 34.74 73.07 31.83C73.06 28.4 69.93 28 67.41 27.6Z" fill="white"/>
<path d="M135.18 29.7401C135.179 29.814 135.163 29.887 135.133 29.9546C135.102 30.0222 135.059 30.083 135.005 30.1334C134.951 30.1838 134.887 30.2228 134.817 30.248C134.748 30.2732 134.674 30.2841 134.6 30.2801H128.12V33.67H136V36.42H125.14V23.1101C125.14 22.7149 125.297 22.3359 125.576 22.0565C125.856 21.777 126.235 21.6201 126.63 21.6201H135.33C135.404 21.6145 135.478 21.6243 135.548 21.6491C135.617 21.6739 135.681 21.7129 135.735 21.7638C135.788 21.8146 135.831 21.8762 135.859 21.9444C135.888 22.0127 135.902 22.0861 135.9 22.1601V23.8201C135.9 23.894 135.885 23.9672 135.856 24.0353C135.827 24.1033 135.785 24.1649 135.732 24.2162C135.679 24.2675 135.616 24.3076 135.547 24.3341C135.478 24.3605 135.404 24.3727 135.33 24.3701H128.12V27.5401H134.6C134.675 27.536 134.749 27.5472 134.82 27.573C134.89 27.5988 134.954 27.6387 135.008 27.6901C135.063 27.7416 135.106 27.8036 135.135 27.8724C135.165 27.9412 135.18 28.0152 135.18 28.0901V29.7401Z" fill="white"/>
<path d="M198.69 21.7C198.69 16.4614 196.796 11.3996 193.355 7.44887C189.915 3.49813 185.162 0.9252 179.973 0.205004C174.785 -0.515192 169.51 0.66597 165.124 3.53046C160.738 6.39496 157.537 10.7494 156.11 15.79C154.454 16.2674 152.859 16.9387 151.36 17.79C148.274 19.5649 145.672 22.0714 143.783 25.0886C141.894 28.1058 140.776 31.5413 140.528 35.0924C140.279 38.6435 140.907 42.2012 142.357 45.4523C143.807 48.7034 146.035 51.548 148.843 53.7356C151.651 55.9233 154.954 57.3868 158.461 57.9973C161.968 58.6078 165.572 58.3466 168.954 57.2366C172.336 56.1266 175.394 54.202 177.857 51.6322C180.32 49.0624 182.114 45.9262 183.08 42.5C187.58 41.1844 191.532 38.4469 194.346 34.6974C197.16 30.9479 198.684 26.388 198.69 21.7ZM176.69 50.7L167.58 41.54L165.42 40.09L165.24 39.9C167.569 41.4306 170.174 42.4905 172.91 43.02L179.59 46.89C178.77 48.2877 177.782 49.5805 176.65 50.74L176.69 50.7ZM162.55 7.61001L171.61 16.61L173.75 18.14L173.96 18.31C171.64 16.8146 169.058 15.7729 166.35 15.24L159.64 11.36C160.455 9.99713 161.432 8.73796 162.55 7.61001ZM162.42 56.8V38.48L167.15 56.18C165.604 56.574 164.016 56.7821 162.42 56.8ZM171.52 2.27001L176.25 20L167.12 4.10001C168.51 3.31888 169.986 2.70462 171.52 2.27001ZM176.73 1.51001V19.82L172 2.13001C173.546 1.73538 175.134 1.52723 176.73 1.51001ZM186.85 4.08001L177.71 20L182.44 2.31001C183.975 2.72311 185.455 3.31728 186.85 4.08001ZM142 36.83H160.26L142.62 41.57C142.225 40.0205 142.016 38.4291 142 36.83ZM191.42 7.59001C192.539 8.73563 193.516 10.0114 194.33 11.39L178.49 20.56L191.42 7.59001ZM162.42 16.41C164.009 16.4302 165.59 16.6383 167.13 17.03L162.42 34.67V16.41ZM163.07 36.33L163.01 36.27L175.39 24L166.7 39.1C165.395 38.325 164.18 37.406 163.08 36.36L163.07 36.33ZM163.64 34.52L172.46 19.21C173.816 20.0036 175.072 20.9571 176.2 22.05L163.64 34.52ZM162.9 34.8L167.62 17.16C169.148 17.5977 170.618 18.2153 172 19L162.9 34.8ZM176.24 23.5L171.53 41.15C169.997 40.7196 168.52 40.1087 167.13 39.33L176.24 23.5ZM176.73 23.62V41.9C175.141 41.8779 173.559 41.6664 172.02 41.27L176.73 23.62ZM161.92 16.42V34.67L157.21 17C158.751 16.6188 160.333 16.4241 161.92 16.42ZM178.92 21.98H197.22C197.202 23.5856 196.994 25.1835 196.6 26.74L178.92 21.98ZM196.46 27.21C196.022 28.7504 195.405 30.2339 194.62 31.63L178.78 22.46L196.46 27.21ZM178.9 21.48L196.59 16.72C196.988 18.2726 197.2 19.8672 197.22 21.47L178.9 21.48ZM178.79 20.99L194.63 11.82C195.415 13.2148 196.029 14.6988 196.46 16.24L178.79 20.99ZM156.79 17.17L161.5 34.8L152.33 19C153.718 18.2161 155.195 17.6017 156.73 17.17H156.79ZM160.34 36.33H142C142.027 34.731 142.238 33.1405 142.63 31.59L160.34 36.33ZM142.84 31.11C143.279 29.5731 143.896 28.093 144.68 26.7L160.46 35.84L142.84 31.11ZM160.47 37.31L144.65 46.47C143.866 45.0763 143.254 43.592 142.83 42.05L160.47 37.31ZM160.71 37.75L147.81 50.69C146.691 49.5461 145.711 48.2739 144.89 46.9L160.71 37.75ZM161.06 38.1L151.87 54C150.499 53.1535 149.233 52.1464 148.1 51L161.06 38.1ZM177.29 41.9V23.63L182 41.29C180.44 41.6811 178.839 41.8858 177.23 41.9H177.29ZM194.38 32.06C193.56 33.4311 192.58 34.7 191.46 35.84L178.55 22.84L194.38 32.06ZM191.07 7.24001L178.14 20.24L187.27 4.38001C188.644 5.18131 189.92 6.14122 191.07 7.24001ZM177.23 19.82V1.51001C178.823 1.53458 180.407 1.74602 181.95 2.14001L177.23 19.82ZM151.9 19.24L161 35.05L148.13 22.14C149.271 21.0314 150.536 20.0582 151.9 19.24ZM160.66 35.41L144.86 26.27C145.674 24.8974 146.651 23.6283 147.77 22.49L160.66 35.41ZM152.31 54.2L161.44 38.34L156.71 56C155.178 55.5739 153.701 54.9698 152.31 54.2ZM157.19 56.2L161.92 38.52V56.79C160.324 56.7664 158.737 56.555 157.19 56.16V56.2ZM182.43 41.2L177.71 23.5L186.84 39.35C185.447 40.1258 183.967 40.7334 182.43 41.16V41.2ZM178.14 23.29L191.05 36.29C189.906 37.401 188.634 38.3712 187.26 39.18L178.14 23.29ZM166.68 4.34001L175.28 19.27C174.86 18.95 174.42 18.66 173.98 18.37L162.9 7.25001C164.04 6.13369 165.309 5.15684 166.68 4.34001ZM167.63 56.05L162.9 38.35L172.05 54.24C170.655 55.0197 169.171 55.6274 167.63 56.05ZM159.39 11.83L164.29 14.66L166.18 15.21L166.31 15.27C163.514 14.715 160.636 14.715 157.84 15.27C158.249 14.0779 158.768 12.9263 159.39 11.83ZM172.49 54L163.83 39C164.26 39.33 164.69 39.66 165.14 40L176.29 51.18C175.134 52.2608 173.859 53.2068 172.49 54ZM179.81 46.5L174.88 43.62L173.07 43.15L172.89 43.06C175.68 43.6132 178.551 43.6132 181.34 43.06C180.938 44.2516 180.425 45.4032 179.81 46.5Z" fill="#0A2756"/>
</g>
<defs>
<clipPath id="clip0_115:581">
<rect width="198.69" height="58.31" fill="white"/>
</clipPath>
</defs>
</svg>
