<svg width="198" height="32" viewBox="0 0 198 32" fill="none" xmlns="http://www.w3.org/2000/svg">
<g clip-path="url(#clip0_115:595)">
<path d="M14.5001 31.3339V19.5689C14.5001 16.6767 12.9937 14.0479 10.0322 14.0479C7.0707 14.0479 5.42087 16.6767 5.42087 19.5689V31.3339H0V9.3223H4.9956L5.39525 11.9976C6.54296 9.76646 9.06381 8.96594 11.1389 8.96594C13.7469 8.96594 16.3548 10.035 17.5948 13.0667C19.5366 9.96788 22.0575 9.05374 24.8858 9.05374C31.0752 9.05374 34.1084 12.8859 34.1084 19.4811V31.3597H28.7337V19.4811C28.7337 16.5838 27.5399 14.1357 24.6347 14.1357C21.7296 14.1357 19.9055 16.6767 19.9055 19.5689V31.3339H14.5001Z" fill="white"/>
<path d="M42.0144 22.2906C42.3679 25.0072 44.7095 26.9646 48.5112 26.9646C50.4992 26.9646 53.1226 26.2105 54.3471 24.8987L57.7954 28.328C55.4948 30.7347 51.7392 31.8916 48.4241 31.8916C40.9077 31.8916 36.4449 27.2125 36.4449 20.1731C36.4449 13.4901 40.9538 8.67664 48.0245 8.67664C55.3206 8.67664 59.8705 13.2215 59.0302 22.2699L42.0144 22.2906ZM53.8604 17.787C53.5069 14.9362 51.2985 13.5107 48.2243 13.5107C45.3038 13.5107 42.9213 14.9362 42.122 17.787H53.8604Z" fill="white"/>
<path d="M84.6845 0.191406V31.3341H79.6479L79.2944 28.3024C77.6138 30.9312 74.9188 31.8247 72.2647 31.8247C65.855 31.8247 61.0387 27.5484 61.0387 20.3283C61.0387 12.7569 65.7679 8.83182 72.1315 8.83182C74.432 8.83182 78.0083 10.0817 79.3046 12.3541V0.191406H84.6845ZM66.4288 20.3334C66.4288 24.1656 69.17 26.7944 72.6182 26.7944C73.4615 26.8147 74.2999 26.6608 75.0819 26.3422C75.8639 26.0236 76.5729 25.5469 77.1652 24.9416C77.7575 24.3363 78.2206 23.6152 78.526 22.8227C78.8314 22.0302 78.9726 21.183 78.9409 20.3334C78.9603 19.4892 78.8103 18.6497 78.5 17.8654C78.1897 17.081 77.7253 16.3679 77.1349 15.7688C76.5444 15.1698 75.84 14.6972 75.0638 14.3793C74.2877 14.0614 73.4559 13.9048 72.6182 13.919C69.17 13.9138 66.4288 16.3618 66.4288 20.3283V20.3334Z" fill="white"/>
<path d="M93.0355 3.17635C93.0355 7.40617 86.6719 7.40617 86.6719 3.17635C86.6719 -1.05348 93.0355 -1.03282 93.0355 3.17635Z" fill="white"/>
<path d="M92.5547 9.28101H87.1594V31.3339H92.5547V9.28101Z" fill="white"/>
<path d="M113.408 9.36855H118.578V31.3337H113.495L113.234 28.1265C111.999 30.7088 108.592 31.9586 106.163 31.9999C99.7073 32.0464 94.9371 28.0387 94.9371 20.3279C94.932 12.7565 99.9122 8.77978 106.291 8.83143C109.207 8.83143 111.994 10.2155 113.229 12.395L113.408 9.36855ZM100.322 20.3279C100.322 24.5164 103.197 27.0109 106.778 27.0109C115.263 27.0109 115.263 13.6913 106.778 13.6913C103.197 13.6913 100.322 16.1394 100.322 20.3279Z" fill="white"/>
<path d="M140.102 28.5242C139.022 29.666 137.717 30.5671 136.271 31.1693C134.824 31.7716 133.269 32.0616 131.704 32.0207C125.382 32.0207 120.12 28.1885 120.12 20.3951C120.12 12.6017 125.382 8.76437 131.704 8.76437C133.169 8.71449 134.628 8.97876 135.984 9.53967C137.339 10.1006 138.562 10.9454 139.569 12.0181L136.167 15.6333C134.97 14.5315 133.413 13.912 131.792 13.8928C128.169 13.867 125.53 16.5268 125.53 20.3744C125.53 24.563 128.359 26.7889 131.72 26.7889C132.596 26.8221 133.47 26.6774 134.289 26.3633C135.109 26.0492 135.857 25.5722 136.49 24.9606L140.102 28.5242Z" fill="white"/>
<path d="M162.375 20.3744C162.375 26.7011 158.091 31.8244 151.015 31.8244C143.94 31.8244 139.702 26.7011 139.702 20.3744C139.702 14.0477 144.032 8.92444 150.974 8.92444C157.917 8.92444 162.375 14.0891 162.375 20.3744ZM145.092 20.3744C145.092 23.7159 147.08 26.8354 151.015 26.8354C154.95 26.8354 156.938 23.7366 156.938 20.3744C156.938 17.0122 154.643 13.867 151.015 13.867C147.126 13.867 145.092 17.0742 145.092 20.3744Z" fill="white"/>
<path d="M178.377 31.3339V19.5689C178.377 16.6767 176.87 14.0479 173.909 14.0479C170.947 14.0479 169.272 16.6767 169.272 19.5689V31.3339H163.876V9.3223H168.872L169.272 11.9976C170.419 9.76646 172.94 8.96594 175.015 8.96594C177.623 8.96594 180.231 10.035 181.471 13.0667C183.413 9.96788 185.934 9.05374 188.762 9.05374C194.952 9.05374 197.985 12.8859 197.985 19.4811V31.3597H192.61V19.4811C192.61 16.5838 191.416 14.1357 188.511 14.1357C185.606 14.1357 183.782 16.6767 183.782 19.5689V31.3339H178.377Z" fill="white"/>
</g>
<defs>
<clipPath id="clip0_115:595">
<rect width="198" height="32" fill="white"/>
</clipPath>
</defs>
</svg>
