<svg width="250" height="32" viewBox="0 0 250 32" fill="none" xmlns="http://www.w3.org/2000/svg">
<g clip-path="url(#clip0_115:607)">
<path d="M245.665 18.8929C248.06 18.8929 250.001 16.9871 250.001 14.636C250.001 12.285 248.06 10.3792 245.665 10.3792C243.27 10.3792 241.328 12.285 241.328 14.636C241.328 16.9871 243.27 18.8929 245.665 18.8929Z" fill="white"/>
<path d="M43.2993 1.23083L38.3323 31.5887H25.452L21.6497 1.80479H21.5652L17.805 31.5887H4.93123L0 1.23083H7.6486L11.9123 31.0147H11.9951L16.0915 1.23083H27.6237L31.7606 31.0147H31.8435L36.0665 1.23083H43.2993ZM66.9955 10.7969V31.5887H60.0583V24.2451H59.9739C59.9739 29.0871 57.2581 32 52.6193 32C47.5613 32 44.511 27.9791 44.511 21.1681C44.5045 14.4001 47.5613 10.3792 52.6258 10.3792C57.2646 10.3792 59.9804 13.249 59.9804 18.1324H60.0648V10.7889L66.9955 10.7969ZM60.3507 21.176C60.3507 18.1005 58.7264 15.7202 56.0042 15.7202C53.243 15.7202 51.6187 17.7721 51.6187 21.176C51.6187 24.623 53.243 26.6335 56.0042 26.6335C58.7216 26.6255 60.3507 24.2866 60.3507 21.1681V21.176ZM92.5824 10.7889L87.8931 31.5887H74.8537L70.1677 10.7889H77.5645L81.3312 31.1375H81.414L85.1758 10.7889H92.5824ZM115.972 21.9078H101.142C101.305 25.0662 102.814 26.9125 105.279 26.9125C107.327 26.9125 108.831 25.8458 109.291 24.0809H115.972C115.179 29.0457 111.165 32 105.273 32C98.4183 32 94.4064 27.9791 94.4064 21.1681C94.4064 14.357 98.4297 10.3792 105.279 10.3792C112.008 10.3792 115.978 14.365 115.978 21.1681L115.972 21.9078ZM101.191 19.9388H109.259C108.924 17.069 107.545 15.4252 105.287 15.4252C102.978 15.4252 101.477 17.0594 101.191 19.9388ZM153.727 18.8722V31.5887H146.78V19.199C146.78 16.9845 145.653 15.7122 143.694 15.7122C141.472 15.7122 140.173 17.3943 140.173 20.2258V31.5887H133.239V19.199C133.239 16.9845 132.07 15.7122 130.106 15.7122C127.89 15.7122 126.594 17.3943 126.594 20.2258V31.5887H119.657V10.7889H126.594V18.1755H126.679C126.679 13.2936 129.144 10.3807 133.323 10.3807C137.628 10.3807 140.178 13.3351 140.178 18.1755H140.261C140.261 13.2936 142.601 10.3807 146.615 10.3807C151.086 10.3792 153.719 13.5375 153.719 18.8722H153.727ZM179.764 10.7889V31.5887H172.82V24.2451H172.738C172.738 29.0871 170.02 32 165.381 32C160.323 32 157.273 27.9791 157.273 21.1681C157.273 14.4001 160.323 10.3792 165.381 10.3792C170.02 10.3792 172.738 13.249 172.738 18.1324H172.82V10.7889H179.764ZM173.119 21.1681C173.119 18.0926 171.495 15.7122 168.773 15.7122C166.012 15.7122 164.387 17.7641 164.387 21.1681C164.387 24.615 166.012 26.6255 168.773 26.6255C171.482 26.6255 173.111 24.2866 173.111 21.1681H173.119ZM207.417 31.5887H199.15L191.542 20.964H191.459V31.5887H184.515V0H191.452V20.5941H191.535L198.432 10.7889H206.373L199.016 20.6738L207.417 31.5887ZM228.816 21.9078H213.979C214.141 25.0662 215.652 26.9125 218.118 26.9125C220.164 26.9125 221.67 25.8458 222.129 24.0809H228.816C228.022 29.0457 224.01 32 218.118 32C211.263 32 207.251 27.9791 207.251 21.1681C207.251 14.357 211.263 10.3792 218.118 10.3792C224.847 10.3792 228.816 14.365 228.816 21.1681V21.9078ZM214.021 19.9388H222.087C221.753 17.069 220.374 15.4252 218.118 15.4252C215.824 15.4252 214.32 17.0594 214.028 19.9388H214.021ZM239.433 10.7889H232.494V31.5887H239.433V10.7889Z" fill="white"/>
</g>
<defs>
<clipPath id="clip0_115:607">
<rect width="250" height="32" fill="white"/>
</clipPath>
</defs>
</svg>
