<svg width="32" height="32" viewBox="0 0 32 32" fill="none" xmlns="http://www.w3.org/2000/svg">
<g clip-path="url(#clip0_134:4865)">
<path d="M9.33366 20.6667H8.66699V22H9.33366C9.70166 22 10.0003 21.7013 10.0003 21.3334C10.0003 20.9654 9.70166 20.6667 9.33366 20.6667Z" fill="white"/>
<path d="M15.9997 20.6667H15.333V22H15.9997C16.3677 22 16.6663 21.7013 16.6663 21.3334C16.6663 20.9654 16.3677 20.6667 15.9997 20.6667Z" fill="white"/>
<path d="M25.667 0H6.33366C4.31099 0 2.66699 1.644 2.66699 3.66667V28.3333C2.66699 30.356 4.31099 32 6.33366 32H25.667C27.6897 32 29.3337 30.356 29.3337 28.3333V3.66667C29.3337 1.644 27.6897 0 25.667 0ZM9.33366 24H8.66699V25.6667C8.66699 26.2187 8.21899 26.6667 7.66699 26.6667C7.11499 26.6667 6.66699 26.2187 6.66699 25.6667V19.6667C6.66699 19.1147 7.11499 18.6667 7.66699 18.6667H9.33366C10.8043 18.6667 12.0003 19.8627 12.0003 21.3333C12.0003 22.804 10.8043 24 9.33366 24ZM16.0003 24H15.3337V25.6667C15.3337 26.2187 14.8857 26.6667 14.3337 26.6667C13.7817 26.6667 13.3337 26.2187 13.3337 25.6667V19.6667C13.3337 19.1147 13.7817 18.6667 14.3337 18.6667H16.0003C17.471 18.6667 18.667 19.8627 18.667 21.3333C18.667 22.804 17.471 24 16.0003 24ZM24.3337 20.6667H23.667V25.6667C23.667 26.2187 23.219 26.6667 22.667 26.6667C22.115 26.6667 21.667 26.2187 21.667 25.6667V20.6667H21.0003C20.4483 20.6667 20.0003 20.2187 20.0003 19.6667C20.0003 19.1147 20.4483 18.6667 21.0003 18.6667H24.3337C24.8857 18.6667 25.3337 19.1147 25.3337 19.6667C25.3337 20.2187 24.8857 20.6667 24.3337 20.6667Z" fill="white"/>
</g>
<defs>
<clipPath id="clip0_134:4865">
<rect width="32" height="32" fill="white"/>
</clipPath>
</defs>
</svg>
