<svg width="14" height="8" viewBox="0 0 14 8" fill="none" xmlns="http://www.w3.org/2000/svg">
<path fill-rule="evenodd" clip-rule="evenodd" d="M13.3536 0.646161C13.3071 0.599598 13.252 0.562655 13.1912 0.537448C13.1305 0.512242 13.0654 0.499268 12.9996 0.499268C12.9338 0.499268 12.8687 0.512242 12.808 0.537448C12.7472 0.562655 12.692 0.599598 12.6456 0.646161L6.99959 6.29316L1.35359 0.646161C1.30711 0.599673 1.25192 0.562797 1.19118 0.537638C1.13044 0.512479 1.06534 0.499529 0.999595 0.499529C0.933851 0.499529 0.868751 0.512479 0.808011 0.537638C0.747272 0.562797 0.692082 0.599673 0.645595 0.646161C0.599107 0.692649 0.56223 0.747838 0.537071 0.808578C0.511912 0.869317 0.498963 0.934417 0.498963 1.00016C0.498963 1.06591 0.511912 1.13101 0.537071 1.19174C0.56223 1.25248 0.599107 1.30767 0.645595 1.35416L6.64559 7.35416C6.69204 7.40072 6.74722 7.43767 6.80796 7.46287C6.86871 7.48808 6.93383 7.50105 6.99959 7.50105C7.06536 7.50105 7.13048 7.48808 7.19123 7.46287C7.25197 7.43767 7.30715 7.40072 7.35359 7.35416L13.3536 1.35416C13.4002 1.30772 13.4371 1.25254 13.4623 1.19179C13.4875 1.13105 13.5005 1.06593 13.5005 1.00016C13.5005 0.934394 13.4875 0.869273 13.4623 0.808527C13.4371 0.747782 13.4002 0.692607 13.3536 0.646161Z" fill="white"/>
</svg>
