<svg width="42" height="42" viewBox="0 0 42 42" fill="none" xmlns="http://www.w3.org/2000/svg">
<path fill-rule="evenodd" clip-rule="evenodd" d="M28.2022 9.62805H13.7968C11.4978 9.62805 9.62695 11.4988 9.62695 13.7979V28.2032C9.62695 30.5027 11.4978 32.3736 13.7968 32.3736H28.2022C30.5016 32.3736 32.3725 30.5027 32.3725 28.2032V13.7979C32.3725 11.4989 30.5016 9.62805 28.2022 9.62805ZM20.9993 28.4883C16.8709 28.4883 13.5117 25.1292 13.5117 21.0004C13.5117 16.872 16.8709 13.5128 20.9993 13.5128C25.1281 13.5128 28.4872 16.872 28.4872 21.0004C28.4872 25.1292 25.1281 28.4883 20.9993 28.4883ZM28.7282 15.0612C27.7507 15.0612 26.956 14.2664 26.956 13.2895C26.956 12.3126 27.7507 11.5178 28.7282 11.5178C29.705 11.5178 30.4998 12.3126 30.4998 13.2895C30.4998 14.2665 29.705 15.0612 28.7282 15.0612Z" fill="white"/>
<path fill-rule="evenodd" clip-rule="evenodd" d="M20.9993 16.6764C18.6161 16.6764 16.6753 18.6162 16.6753 20.9995C16.6753 23.3837 18.6161 25.324 20.9993 25.324C23.3835 25.324 25.3229 23.3837 25.3229 20.9995C25.3229 18.6162 23.3835 16.6764 20.9993 16.6764Z" fill="white"/>
<path fill-rule="evenodd" clip-rule="evenodd" d="M0 0V42H42V0H0ZM35.5366 28.2027C35.5366 32.2472 32.2472 35.5366 28.2028 35.5366H13.7973C9.75323 35.5366 6.46338 32.2472 6.46338 28.2027V13.7973C6.46338 9.75323 9.75323 6.46338 13.7973 6.46338H28.2028C32.2472 6.46338 35.5366 9.75323 35.5366 13.7973V28.2027Z" fill="white"/>
</svg>
