<svg width="75" height="21" viewBox="0 0 75 21" fill="none" xmlns="http://www.w3.org/2000/svg">
<path d="M0 9.54545H6.81818V21H0V9.54545Z" fill="white"/>
<path d="M9.09091 9.54545H15.9091L23.8636 21H17.0455L9.09091 9.54545Z" fill="white"/>
<path d="M9.09091 9.54545H15.9091L22.7273 0H16.4336L9.09091 9.54545Z" fill="white"/>
<path d="M0 0H6.81818V5.72727H0V0Z" fill="white"/>
<path fill-rule="evenodd" clip-rule="evenodd" d="M37.5 21C44.4036 21 50 16.299 50 10.5C50 4.70101 44.4036 0 37.5 0C30.5964 0 25 4.70101 25 10.5C25 16.299 30.5964 21 37.5 21ZM37.5 15.2727C40.638 15.2727 43.1818 13.1359 43.1818 10.5C43.1818 7.8641 40.638 5.72727 37.5 5.72727C34.362 5.72727 31.8182 7.8641 31.8182 10.5C31.8182 13.1359 34.362 15.2727 37.5 15.2727Z" fill="white"/>
<path fill-rule="evenodd" clip-rule="evenodd" d="M65.9091 0H54.5455V21H61.3636V5.72727H63.6364C66.1468 5.72727 68.1818 7.43673 68.1818 9.54545V21H75V7.63636C75 3.41892 70.9299 0 65.9091 0Z" fill="white"/>
</svg>
