<svg width="75" height="21" viewBox="0 0 75 21" fill="none" xmlns="http://www.w3.org/2000/svg">
<g clip-path="url(#clip0_631_216)">
<path d="M0 9.54643H6.81818V21.001H0V9.54643Z" fill="#962B2B"/>
<path d="M9.09091 9.54643H15.9091L23.8636 21.001H17.0455L9.09091 9.54643Z" fill="#962B2B"/>
<path d="M9.09091 9.54643H15.9091L22.7273 0.000976562H16.4336L9.09091 9.54643Z" fill="#962B2B"/>
<path d="M0 0.000976562H6.81818V5.72825H0V0.000976562Z" fill="#962B2B"/>
<path fill-rule="evenodd" clip-rule="evenodd" d="M37.5 21.001C44.4036 21.001 50 16.3 50 10.501C50 4.70199 44.4036 0.000976562 37.5 0.000976562C30.5964 0.000976562 25 4.70199 25 10.501C25 16.3 30.5964 21.001 37.5 21.001ZM37.5 15.2737C40.638 15.2737 43.1818 13.1369 43.1818 10.501C43.1818 7.86507 40.638 5.72825 37.5 5.72825C34.362 5.72825 31.8182 7.86507 31.8182 10.501C31.8182 13.1369 34.362 15.2737 37.5 15.2737Z" fill="#962B2B"/>
<path fill-rule="evenodd" clip-rule="evenodd" d="M65.9091 0.000976562H54.5455V21.001H61.3636V5.72825H63.6364C66.1468 5.72825 68.1818 7.43771 68.1818 9.54643V21.001H75V7.63734C75 3.41989 70.9299 0.000976562 65.9091 0.000976562Z" fill="#962B2B"/>
</g>
<defs>
<clipPath id="clip0_631_216">
<rect width="75" height="21" fill="white" transform="translate(0 0.000976562)"/>
</clipPath>
</defs>
</svg>
