<svg width="632" height="455" viewBox="0 0 632 455" fill="none" xmlns="http://www.w3.org/2000/svg">
<g clip-path="url(#clip0_628_370)">
<path d="M193.865 388.499L194.711 386.099L196.081 385.672L196.363 386.141L195.368 388.256L193.865 388.499ZM199.805 385.172L203.873 386.159L205.143 385.748L205.755 383.18L205.014 381.14L202.36 381.261L200.033 382.769L199.805 385.172ZM219.85 388.306L222.707 391.341L224.177 390.897L224.83 390.483L225.862 391.139L228.15 390.666L228.606 389.666L226.623 388.855L225.048 386.744L223.388 384.75L220.073 387.138L219.85 388.306ZM233.269 391.792L233.875 390.459L236.879 390.59L237.231 390.225L241.104 390.009L241.033 390.844L239.576 392.006L236.838 392.243L233.269 391.792ZM237.095 394.465L238.686 396.676L240.477 395.666L240.515 394.631L239.302 393.49L236.965 393.663L237.095 394.465ZM241.29 393.065L242.401 391.034L245.55 392.067L248.369 392.331L251.351 393.597L251.545 394.8L249.519 396.26L246.61 397.348L244.961 396.689L241.29 393.065ZM253.169 401.019L254.041 400.055L256.308 400.717L261.374 402.16L263.69 403.122L264.935 404.464L266.576 406.976L269.34 408.175L269.27 409.009L267.189 411.403L264.73 412.727L263.763 412.472L262.038 413.883L260.859 416.131L259.749 418.163L258.63 418.241L256.166 416.994L255.511 414.219L255.669 412.651L254.099 409.304L252.617 408.412L252.258 406.825L253.563 405.996L254.557 403.88L254.761 403.23L253.58 402.29L253.169 401.019Z" stroke="#1D1611" stroke-width="0.75"/>
<path d="M140.782 355.324L149.149 408.288L150.248 408.727L152.168 408.519L152.957 407.672L154.56 407.412L154.952 409.2L159.943 412.713L160.503 414.269L162.412 412.725L162.797 412.56L162.689 410.623L163.429 409.474L164.114 409.261L165.17 408.164L167.285 409.159L167.978 410.898L169.294 411.405L170.239 412.796L172.823 413.509L175.527 416.878L177.62 419.008L179.299 420.485L180.574 422.645L183.859 423.245L187.276 424.029L188.316 426.639L188.925 428.495L188.664 430.697L187.789 432.279L186.706 431.94L185.496 430.181L183.646 429.555L182.43 429.031L182.01 429.614L183.188 431.172L183.662 433.462L183.009 433.876L181.612 432.867L180.179 432.276L180.642 433.23L181.622 434.203L181.202 434.785C181.202 434.785 180.669 434.666 180.303 434.314C179.938 433.961 178.66 432.419 178.66 432.419L177.831 431.113C177.831 431.113 177.761 431.948 177.328 431.812C176.894 431.676 176.38 431.039 176.38 431.039L177.287 429.658L176.239 428.902L175.736 425.794L175.235 425.875L175.075 428.062L174.422 428.476L173.448 426.267L172.674 424.027L172.124 423.807L172.893 427.283L173.006 427.985L171.974 427.329L169.17 423.977L167.818 423.887L167.044 421.646L165.75 420.003L164.634 419.464L164.407 418.06L165.58 417.048L165.247 416.896L163.709 417.556L161.361 416.393L159.466 414.848L156.2 413.731L153.435 412.532L153.912 410.397L153.75 409.395L152.81 410.576L151.12 411.57L148.701 411.241L144.951 410.305L141.544 410.856L141.192 411.222L136.794 409.465L135.459 409.475L133.171 406.142L130.999 406.699L128.941 407.958L129.695 410.716L130.105 408.798L130.739 408.902L130.275 411.754L132.003 409.726L132.566 410.663L130.599 413.759L129.765 413.689L129.27 412.534L128.387 412.163L127.699 412.994L125.817 412.167L124.124 413.779L123.233 415.26L121.339 416.904L118.417 417.274L117.906 416.02L120.145 415.246L120.016 414.444L118.548 414.27L118.906 412.669L119.919 410.036L119.741 408.933L119.76 408.415L122.238 406.574L122.969 407.279L124.673 407.003L123.611 405.529L121.274 405.701L118.444 407.908L117.281 410.257L116.439 412.039L115.964 413.556L113.505 414.88L111.861 416.792L111.823 417.827L113.323 418.202L114.035 419.424L112.656 421.705L109.07 424.96L104.682 428.345L103.492 429.257L100.299 430.494L97.2196 432.433L98.4517 433.057L97.6958 434.105L97.5088 434.855L95.7079 434.53L93.72 434.954L93.4462 436.439L92.8449 436.536L92.802 435L90.7272 436.159L89.0209 437.052L86.7867 436.591L85.1778 438.086L83.1736 438.41L82.0008 439.423L81.0798 440.086L79.7447 440.097L78.0278 439.655L76.6898 440.283L76.186 440.981L75.0703 440.442L74.8756 439.239L76.6497 438.129L80.6226 437.897L83.1659 436.457L84.2577 434.943L85.9965 434.25L87.0176 433.57L88.7374 433.395L89.8692 434.034L90.438 433.737L91.565 431.805L93.3716 430.896L95.411 430.154L96.1802 429.824L96.6297 430.06L97.1308 429.979L97.5592 427.543L99.9183 426.235L100.748 423.735L101.696 420.701L102.552 419.636L102.493 418L101.621 418.964L99.5813 419.706L98.937 418.267L98.1029 418.196L97.5991 418.895L97.7909 420.716L96.8728 420.761L95.3869 417.298L94.715 418.23L93.9649 418.043L93.5698 416.872L91.0808 417.378L89.8917 418.291L88.256 418.35L89.0118 417.302L89.0528 415.649L88.4573 414.511L89.2618 413.763L90.0472 413.533L89.4679 412.495L89.0297 409.789L88.3312 409.285L87.9762 410.268L84.1683 410.884L83.1367 410.228L82.3464 407.887L80.6867 405.892L80.5894 405.291L81.8109 404.579L81.7002 403.259L82.288 402.444L81.7383 402.224L80.9854 402.655L80.0081 401.064L80.1063 397.859L82.5875 395.4L84.0286 394.138L84.8578 391.638L86.4315 390.56L88.1484 391.002L88.5922 392.474L90.0629 392.03L91.8236 390.202L92.8906 390.44L93.5567 390.744L94.5588 390.582L95.8318 389.553L95.8948 386.765C95.8948 386.765 95.8031 384.928 96.1552 384.562C96.5074 384.197 96.6591 383.864 96.6591 383.864L95.763 382.774L94.2408 383.535L92.3178 384.361L91.0666 384.254L88.6836 383.509L85.561 383.911L82.9833 381.962L82.8944 379.508L83.0519 377.939L81.5707 377.047L79.995 374.936L80.2145 374.386L84.3745 373.404L85.6772 373.193L86.3758 373.697L86.7766 373.632L86.5141 372.646L88.8541 371.856L90.4899 371.797L91.5053 372.353L90.8144 373.802L90.6599 374.753L92.5256 375.48L95.8105 376.08L96.8154 375.3L94.9744 372.82L94.0486 370.912L94.5688 370.314L92.2697 369.451L91.8555 368.798L91.9939 367.747L91.1034 365.422L88.8291 362.807L86.9041 360.444L88.5131 358.949L90.5172 358.624L91.6844 358.847L94.2736 358.325L96.2213 355.746L96.6145 353.728L98.6758 351.851L99.7752 352.291L101.414 351.614L103.508 349.938L104.193 349.724L104.875 350.128L107.665 349.573L109.06 347.393L109.761 347.279L112.209 348.426L113.623 349.535L113.436 350.285L113.95 350.922L114.79 349.758L117.227 349.569L117.801 351.842L119.149 352.55L123.623 352.237L127.953 354.211L128.758 353.464L132.224 354.548L133.462 353.937L134.583 353.241L137.784 353.957L140.782 355.324ZM72.3395 384.817L74.1776 387.914L74.1748 388.532L72.3386 388.623L70.8307 386.295L69.5824 385.571L68.0793 385.815L67.7195 384.227L68.5783 382.545L69.5232 383.935L70.5711 384.691L72.3395 384.817ZM74.0951 405.828L76.4809 405.956L78.883 406.184L79.4814 406.705L78.8526 409.173L76.9324 409.381L74.4711 407.516L74.0951 405.828ZM59.857 399.182L60.818 400.673L61.6817 401.562L61.0614 402.176L59.4505 400.482L59.2557 399.279L59.857 399.182ZM58.6738 445.874L60.551 444.129L62.5579 443.187L64.1937 443.128L64.6566 444.082L65.9077 444.188L66.9155 442.791L66.5528 441.821L68.1914 441.144L70.2547 442.456L69.7318 443.672L67.1398 444.812L65.3876 444.787L62.9693 444.458L60.4098 445.798L59.4402 446.161L58.6738 445.874ZM88.5819 438.152L89.7787 439.193L90.9191 437.98L89.8874 437.324L88.5819 438.152ZM90.6939 439.765L91.1682 438.248L92.5033 438.237L92.197 439.522L90.6939 439.765ZM105.129 436.194L106.21 437.151L106.697 436.352L106.002 435.23L105.129 436.194ZM109.291 427.599L110.577 431.094L112.461 431.304L115.276 428.996L117.722 426.954L116.476 425.613L116.533 424.06L115.361 425.073L113.476 424.864L114.364 424L115.648 424.307L117.874 422.815L118.029 421.864L116.445 421.606L116.751 420.322L115.242 421.8L112.693 424.476L109.979 426.767L109.291 427.599ZM133.549 411.019L134.906 409.873L134.126 408.868L133.122 409.648L133.549 411.019Z" stroke="#1D1611" stroke-width="0.75"/>
<path d="M512.313 285.94L514.452 290.251L517.742 295.918L521.99 301.198L524.927 304.734L528.485 307.656L531.363 309.556L532.658 311.199L532.086 312.114L531.715 312.997L534.265 317.317L536.361 318.829L538.499 321.878L541.288 325.13L544.921 329.789L546.486 334.371L547.987 341.741L548.566 342.778L548.707 344.916L547.333 345.961L547.729 347.132L547.522 348.4L547.966 349.871L548.462 351.025L547.083 353.306L545.325 354.516L542.936 355.006L542.196 356.154L540.791 356.999L539.94 356.828L539.142 356.34L538.649 354.568L537.807 352.544L535.184 349.677L532.752 348.63L530.315 348.819L529.943 349.702L527.601 347.303L526.844 345.163L524.835 342.916L523.619 342.393L522.828 343.858L521.693 343.836L519.887 340.939L517.694 338.825L515.355 335.809L513.443 334.164L510.866 332.215L511.925 330.5L513.377 326.767L513.115 325.781L510.212 325.634L509.275 326.197L509.54 326.565L511.241 326.907L510.793 329.86L510.341 330.242L508.833 327.914L507.544 325.037L507.068 323.365L507.499 320.312L506.542 314.397L504.265 312.399L503.155 310.625L499.819 310.342L498.551 310.135L497.29 308.693L495.023 308.031L493.981 306.04L492.18 305.714L490.304 303.652L487.552 303.171L485.603 302.561L483.999 302.82L481.575 303.727L481.67 304.946L482.268 305.467L482.081 306.217L480.161 306.425L478.213 309.003L476.203 310.563L473.798 310.953L471.924 312.079L471.448 310.407L470.251 309.366L468.334 308.957L467.186 308.216L461.786 306.621L456.898 306.281L454.257 307.12L450.598 308.021L447.102 309.924L445.007 310.653L444.051 305.685L442.253 304.742L440.972 303.818L440.864 301.88L447.048 300.057L462.588 295.689L466.732 294.607L470.129 294.236L472.122 296.382L473.17 297.138L478.241 296.645L484.883 295.159L498.088 292.199L501.396 291.234L504.582 290.848L505.139 292.61L506.604 292.887L506.285 289.993L504.919 287.558L505.585 286.534L509.074 286.259L512.313 285.94ZM533.379 366.789L534.818 366.144L535.595 365.864L536.261 364.265L537.552 363.027L538.402 363.198L539.487 363.228L539.843 363.839L537.81 364.94L535.351 366.264L534.02 367.251L533.379 366.789ZM541.244 362.327L542.1 362.857L543.593 361.278L546.478 358.136L548.393 355.357L549.281 350.995L549.712 349.845L549.472 347.724L549.069 348.098L548.752 349.949L548.313 352.952L546.836 356.535L544.552 359.579L542.643 361.123L541.244 362.327Z" stroke="#1D1611" stroke-width="0.75"/>
<path d="M557.522 89.8006L557.952 89.0459L558.298 86.8957L556.63 86.5844L556.021 84.7283L553.502 84.4158L553.026 82.744L546.164 68.9378L541.852 60.381L541.296 60.4679L541.057 61.5352L540.607 61.2994L539.909 60.7952L539.202 62.1442L539.677 65.2695L540.439 68.7526L541.917 70.2622L542.323 72.7684L540.526 76.281L539.037 77.2423L539.15 77.944L540.03 78.9332L540.89 84.2464L541.314 90.0417L541.7 93.0654L542.432 93.7701L542.786 96.5933L542.664 97.7447L543.335 98.0873L553.297 93.6593L554.585 93.0674L555.449 91.1627L557.522 89.8006Z" stroke="#1D1611" stroke-width="0.75"/>
<path d="M447.621 129.742L444.789 124.954L442.478 119.567L440.65 117.806L438.868 116.962L437.98 117.826L435.753 119.318L435.054 122.621L433.724 125.202L433.087 125.717L432.12 125.462C432.12 125.462 430.371 124.819 430.406 124.402C430.441 123.984 430.204 121.245 430.204 121.245L432.178 120.103L432.339 117.916L432.48 116.247L433.821 115.002L432.614 108.819L431.385 107.577L430.502 107.206L429.79 105.984L430.21 105.401L431.245 105.44L431.183 104.421L429.452 103.261L428.391 101.787L426.788 102.046L423.836 101.598L420.088 100.044L418.385 100.32L418.049 100.786L417.399 100.582L415.268 99.4871L413.643 100.882L412.066 102.577L412.623 104.75L413.257 104.853L414.608 104.943L414.99 105.396L413.468 106.157L411.897 106.617L411.174 107.865L411.184 109.201L411.547 110.171L412.299 113.547L410.306 115.207L409.889 115.172L409.467 112.565L410.025 110.932L410.182 109.363L409.6 108.943L408.479 109.639L408.299 112.343L406.71 113.32L405.802 114.702L405.799 115.319L406.281 115.756L406.14 117.425L404.786 117.952L404.899 118.654L405.644 120.077L405.559 124L404.963 126.668L405.834 129.511L406.248 130.164L405.99 131.748L405.871 132.282L405.947 134.019L408.752 137.371L411.204 141.089L412.593 143.951L412.562 146.939L412.562 150.746L411.578 154.197L411.653 155.933L409.943 158.174L412.659 157.631L425.708 154.078L430.12 152.736L430.347 153.76L434.473 152.32L440.705 150.355L443.048 149.683L443.075 149.304L443.029 148.386L443.958 145.869L445.024 144.591L444.379 141.481L445.209 140.33L445.85 140.008L445.631 137.78L446.279 135.746L446.991 136.017L447.156 136.402L447.673 136.421L448.779 135.625L447.621 129.742Z" stroke="#1D1611" stroke-width="0.75"/>
<path d="M366.015 82.3831L366.942 80.9236L368.208 80.2095L371.149 77.2603L372.508 76.6765L372.838 76.9141L370.165 80.6202L368.306 82.1578L367.122 82.9314L366.015 82.3831ZM422.656 93.6606L423.308 95.1496L425.328 94.9254L426.008 94.0438C426.008 94.0438 425.812 93.1497 425.595 93.0818C425.379 93.014 424.407 92.0912 424.407 92.0912L423.078 92.4605L422.092 92.723L422.006 93.4571L422.656 93.6606ZM360.185 101.88L360.571 101.448L362.193 100.671L364.17 98.9105L364.073 98.309L364.409 97.8431L368.019 96.6415L369.327 95.1952L371.822 93.4541L371.792 92.6359L372.703 90.6367L373.724 89.9571L374.347 88.7246L375.523 87.094L377.985 85.1524L380.842 84.3813L381.657 84.9695L381.554 85.6034L379.347 86.5779L378.753 88.6287L377.432 89.357L377.374 90.9094L376.196 93.1576L376.255 94.7941L376.805 95.0137L377.292 94.2147L379.205 92.0533L380.136 92.7256L381.539 92.4985L383.641 92.7756L384.656 93.3314L385.866 95.0901L387.846 96.5186L390.234 96.0291L391.039 95.2817L392.171 95.9215L393.221 96.06L393.942 95.429L394.643 95.3155L395.548 94.5518L397.696 91.9408L399.687 90.8985L403.763 90.033L406.374 88.3759L407.847 87.3144L408.766 87.2686L409.333 90.7773L409.667 90.9292L411.551 91.1385L412.705 90.6431L416.351 89.0243L416.939 88.209L417.889 88.3638L418.587 92.6745L420.899 94.2548L421.766 94.5261L422.665 94.9978L421.896 95.3281L421.362 95.2087L419.009 95.281L417.771 95.8928L416.352 96.0196L414.494 97.2463L413.391 97.4247L409.654 97.2066L406.464 97.8258L405.521 99.6245L401.277 100.723L399.855 101.467L399.462 103.486L398.774 104.317L398.457 104.266L397.393 103.409L394.831 105.367L394.43 105.432L393.566 104.543L393.081 104.724L392.317 107.626L392.121 110.229L390.852 114.89L390.019 114.366L389.065 113.864L386.83 107.679L384.495 107.185L382.993 105.974L375.205 105.488L373.332 105.136L368.012 104.615L363.007 104.697L360.185 101.88Z" stroke="#1D1611" stroke-width="0.75"/>
<path d="M536.18 100.658L535.839 97.3117L532.965 90.9142L532.532 90.7786L530.598 90.2685L530.807 88.383L530.095 87.1608L527.956 84.5544L528.168 82.0511L527.147 78.9242L524.995 75.1575L524.002 72.1858L539.702 65.3606L540.448 68.754L541.911 70.2623L542.317 72.7685L540.526 76.277L539.038 77.2451L539.143 77.9411L540.108 78.7517L540.728 83.8047L541.28 89.6074L541.696 93.0763L542.427 93.7809L542.786 96.6315L542.655 97.7281L543.356 98.0773L538.897 99.7578L536.18 100.658Z" stroke="#1D1611" stroke-width="0.75"/>
<path d="M577.198 46.1467L578.611 47.2553L580.387 49.334L580.582 50.537L579.75 53.6551L578.612 54.2507L576.816 56.496L574.362 60.3911C574.362 60.3911 573.961 60.456 573.56 60.5208C573.159 60.5857 572.748 59.3149 572.748 59.3149L571.662 59.5936L571.207 60.5931L569.85 61.7387L569.394 62.7382L570.543 63.4783L570.307 63.9279L570.282 65.6808L569.063 65.7752L568.901 64.7727L568.571 64.0032L567.702 64.3496L566.275 62.5231L565.102 63.5359L566.05 64.3084L566.364 64.9777L565.992 65.8608L566.501 67.7331L566.763 68.7193L566.021 70.4855L564.266 71.0782L564.358 72.9151L561.359 75.3551L560.606 75.7856L559.458 75.0456L557.911 77.5592L558.837 79.4669L558.065 80.4148L558.403 83.1378L558.335 87.132L556.693 86.6622L556.084 84.8062L553.565 84.4937L553.089 82.8219L546.227 69.0156L541.845 60.4086L542.714 60.1928L543.693 60.2951L543.433 58.6911L543.793 55.7715L544.926 52.6048L545.422 49.9526L543.976 48.6435L543.376 44.9343L543.779 44.2517L544.005 42.4664L543.758 41.5803L543.171 38.5891L543.787 35.4032L544.698 29.5975L545.579 26.7802L546.381 26.6505L547.198 26.621L547.312 27.3227L548.341 28.5964L550.109 28.7217L550.529 28.1394L550.432 27.5379L552.645 25.3279L553.569 24.0468L554.487 24.001L558.438 24.9046L559.737 25.3115L568.351 42.9493L572.058 42.3492L572.754 43.4711L573.341 46.4623L575.372 47.5739L575.873 47.4928L575.925 47.1758L575.51 46.5227L577.198 46.1467ZM567.249 66.9419L568.047 65.8355L569.004 66.3492L569.598 67.7962L568.635 68.5179L567.249 66.9419ZM570.815 62.6097L572.104 63.5842C572.104 63.5842 572.914 63.5045 572.882 63.304C572.849 63.1035 572.829 62.0266 572.829 62.0266L573.299 61.4362L572.62 60.4145L571.44 61.0684L570.815 62.6097Z" stroke="#1D1611" stroke-width="0.75"/>
<path d="M557.011 113.092L553.219 104.188L556.92 102.415L558.472 103.39L560.955 105.738L563.063 108.198L561.367 109.506L560.549 109.536L560.026 110.752L558.718 112.198L557.011 113.092Z" stroke="#1D1611" stroke-width="0.75"/>
<path d="M530.918 123.584L530.12 123.096L528.5 123.255L526.903 122.279L525.277 118.642L523.142 119.045L521.355 117.611L509.779 122.273L484.001 132.001L479.457 133.518L478.35 129.581L479.122 128.74L479.81 127.908L480.249 126.808L481.238 125.928L482.262 124.631L482.4 123.58L483.427 121.665L484.031 120.95L483.833 120.364L482.723 118.589L481.605 118.667L479.786 115.053L481.411 113.658L483.971 112.318L486.346 111.11L488.301 110.485L492.193 109.752L493.526 110.36L494.544 110.298L495.717 109.285L497.206 108.324L500.364 107.504L501.488 106.19L502.266 104.007L503.074 102.642L504.376 102.431L505.465 101.534L505.338 100.115L504.225 98.9575L503.879 98.0877L504.369 96.671L504.223 95.7687L503.121 95.9471L501.938 95.6243L501.323 95.0036L500.963 93.4159L504.019 89.4235L504.339 88.8574L504.948 86.9069L506.298 83.808L507.628 81.2266L508.687 79.512L510.001 78.1376L511.786 77.0558L515.063 75.7023L517.084 75.4782L519.743 74.1218L524.225 72.0784L525.047 75.1143L527.199 78.881L528.219 82.0078L528.007 84.5111L530.065 87.0586L530.777 88.2807L530.568 90.1663L532.502 90.6764L532.935 90.812L535.942 97.3208L536.118 100.512L536.904 107.278L537.957 110.605L538.815 112.729L540.447 117.095L541.258 122.107L540.784 123.624L542.124 124.675L542.786 125.636L541.762 126.934L542.093 127.703L542.862 127.373L543.634 126.425L544.777 124.594L545.414 124.079L546.481 124.318L547.9 124.191L552.42 120.991L553.948 118.994L554.604 117.962L557.371 118.543L555.624 121.089L553.511 123.283L549.638 127.305L548.132 128.166L544.719 129.953L542.327 131.06L541.546 130.847L541.024 128.584L541.049 126.832L540.738 125.545L538.823 124.773L535.92 124.626L533.402 124.313L530.918 123.584Z" stroke="#1D1611" stroke-width="0.75"/>
<path d="M531.269 146.402L532.053 146.103L533.371 145.092L533.873 143.431L534.648 141.865L536.343 139.636L536.262 139.135L534.597 138.375L532.149 137.229L531.288 135.722L529.552 135.797L529.338 135.112L528.562 133.488L529.851 132.56L529.708 131.04L528.776 130.367L528.714 129.349L529.608 127.249L529.3 125.345L530.707 123.433L530.068 123.107L528.484 123.241L526.867 122.268L525.293 118.631L523.131 119.045L521.337 117.614L510.545 122.033L484.767 131.76L479.401 133.555L478.362 129.573L475.547 133.254L474.794 133.684L472.491 135.972L476.216 147.547L478.731 153.331L482.878 164.918L484.841 164.194L492.093 162.064L514.833 153.506L523.77 150.262L528.752 148.423L528.894 148.249L530.034 147.035L531.269 146.402Z" stroke="#1D1611" stroke-width="0.75"/>
<path d="M530.456 123.477L529.291 125.406L529.599 127.311L528.705 129.41L528.767 130.429L529.698 131.101L529.841 132.621L528.552 133.55L529.329 135.173L529.543 135.858L531.279 135.783L532.14 137.29L534.588 138.437L536.253 139.196L536.334 139.697L534.756 141.669L533.981 143.234L533.355 145.085L532.082 146.114L531.956 147.154L531.927 147.93L531.811 149.608L532.713 150.89L535.01 152.37L538.243 153.287L540.813 153.282L541.059 154.168L540.656 154.851L541.132 156.523L541.633 156.441L542.692 154.727L542.706 151.638L544.004 148.856L545.259 144.538L545.409 141.016L544.894 140.379L543.853 134.581L542.51 132.638L541.89 133.253L540.219 133.729L539.87 133.477L540.474 132.762L541.582 131.348L541.511 130.664L540.928 128.573L541.008 126.811L540.737 125.602L538.821 124.798L535.547 124.58L532.844 124.138L530.456 123.477Z" stroke="#1D1611" stroke-width="0.75"/>
<path d="M531.94 148.576L531.953 147.208L532.016 146.122L531.05 146.531L530.095 146.983L528.905 148.299L530.477 151.253L532.448 154.535L534.724 160.339L536.359 164.087L539.449 163.484L543.138 162.135L540.993 157.782L540.441 158.18L537.993 157.033L536.42 154.304L534.86 152.293L532.622 150.829L531.875 149.615L531.94 148.576Z" stroke="#1D1611" stroke-width="0.75"/>
<path d="M543.143 162.122L539.54 163.472L536.364 164.06L534.526 159.953L532.413 154.46L530.197 150.88L528.957 148.282L524.467 150.041L515.53 153.285L493.073 161.724L494.277 164.719L495.446 168.13L495.614 167.897L496.674 166.183L497.814 164.332L499.255 163.707L500.011 162.659L500.854 160.877L501.72 161.148L503.491 160.656L504.884 159.093L505.982 157.99L507.077 157.504L508.21 158.04L510.159 158.65L511.54 159.558L512.446 160.389L515.172 161.028L515.464 162.833L519.001 163.083L519.764 163.305L520.436 161.905L522.42 162.838L521.877 164.505L521.803 167.053L520.96 168.836L521.171 170.139L521.75 171.177L525.025 171.509L527.691 171.039L529.692 171.332L531.028 171.322L531.418 169.921L530.305 168.764L530.127 167.661L528.413 166.601L526.558 163.404L526.824 159.966L526.513 158.679L525.582 158.006C525.582 158.006 526.321 156.858 526.256 156.457C526.192 156.056 526.346 155.105 526.346 155.105L527.419 154.108L528.459 152.911L528.857 153.464L528.117 154.613L527.689 157.048L528.003 157.717L529.138 157.739L529.99 161.099L528.785 161.912L529.342 164.085L529.626 163.936L530.133 162.619L531.314 163.56L530.441 164.524L530.582 166.662L532.526 168.507L534.98 168.419L535.9 167.755L538.326 170.025L539.222 170.221L543.066 167.819L543.906 165.122L543.143 162.122ZM534.151 169.323L535.104 170.764L535.383 171.85L536.271 172.89C536.271 172.89 536.733 172.249 536.7 172.049C536.668 171.848 535.941 170.217 535.941 170.217L535.255 168.836L534.151 169.323Z" stroke="#1D1611" stroke-width="0.75"/>
<path d="M539.46 171.407L539.176 170.214L542.92 167.986L542.765 170.059L541.335 172.695L541.536 175.581L542.162 177.637L541.529 180.907L540.38 182.313L539.003 179.582L538.732 176.159L539.296 173.405L539.46 171.407ZM544.371 188.623L509.574 202.257L486.905 209.286L482.728 209.724L481.318 211.178L476.791 212.051L471.694 213.498L465.09 215.594L471.017 211.064L470.8 209.779L471.527 208.296L476.914 200.104L479.81 202.485L482.252 202.703L483.714 201.741L484.969 200.703L486.676 201.282L488.959 200.004L489.665 196.99L491.331 197.064L492.887 195.456L494.052 195.582L495.436 193.018L495.442 191.691L494.717 190.997L495.151 189.739L497.188 181.596L496.995 177.978L497.704 177.53L499.3 178.826L501.709 178.245L502.145 173.355L503.82 172.726L504.196 170.921L505.559 169.207L506.706 165.397L506.25 162.246L512.721 163.632C513.178 163.774 512.731 160.417 512.731 160.417L515.155 161.042L515.493 162.857L519.208 163.082L520.649 163.598L521.884 164.706L521.844 167.034L520.897 168.836L521.172 170.102L521.723 171.192L524.937 171.479L527.7 171.057L529.698 171.344L530.934 171.341L531.687 173.184L533.705 173.114L534.363 173.771L534.562 176.723L535.525 177.269L535.422 178.514L536.263 178.881L536.264 179.761L534.585 179.973L534.802 180.966L536.371 181.694L536.588 182.557L537.866 183.486L538.424 185.002L536.981 186.115L538.105 186.884L541.532 185.256L544.371 188.623Z" stroke="#1D1611" stroke-width="0.75"/>
<path d="M493.069 161.669L494.255 164.624L495.532 168.256L496.593 166.442L497.688 164.31L499.2 163.674L499.955 162.625L500.798 160.843L501.759 161.099L503.53 160.606L504.922 159.044L506.02 157.941L507.115 157.455L508.026 157.955L510.467 158.719L511.848 159.627L512.829 160.291L512.915 163.812L509.043 162.822L506.249 162.242L506.706 165.463L505.558 169.172L504.234 170.931L503.771 172.756L502.182 173.331L501.987 175.655L501.737 178.209L499.312 178.818L497.626 177.539L497.019 177.993L497.175 181.449L496.693 183.776L494.719 191.067L495.392 191.697L495.456 192.901L494.105 195.591L492.929 195.435L491.306 197.072L489.673 196.973L488.891 199.998C488.891 199.998 487.014 201.212 486.596 201.24C486.495 201.247 484.94 200.713 484.94 200.713L483.631 201.803L482.242 202.692L479.831 202.517L479.019 201.905L477.357 200.25L475.209 199.332L473.785 197.257L470.78 195.536L470.152 194.198L468.403 193.555L467.74 192.633L467.062 189.4L468.407 189.131L469.528 188.435L469.353 186.714L470.209 185.65L469.806 182.526L470.017 180.023L470.754 179.492L471.669 180.064L472.149 181.118L473.153 180.338L473.292 179.287L472.412 178.298L472.169 176.794L472.64 175.895L473.702 173.562L474.358 172.53L475.709 172.62L476.95 171.391L478.513 168.977L479.526 166.344L479.159 162.803L478.956 159.647L478.486 156.739L477.476 154.948L477.931 153.949L478.597 153.018L482.751 164.963L485.546 164.032L493.069 161.669Z" stroke="#1D1611" stroke-width="0.75"/>
<path d="M472.459 135.963L469.088 139.087L466.911 140.88L465.18 143.527L463.064 146.338L461.141 147.164L459.386 147.756L456.238 149.912L454.952 150.223L452.539 148.659L449.398 149.579L447.648 148.936L446.037 148.337L443.075 149.264L436.924 151.289L430.197 153.768L432.467 162.711L434.948 171.053L438.905 185.33L439.74 188.269L442.282 187.776L443.704 187.031L445.94 187.626L447.662 190.125L450.846 189.598L452.231 190.722L453.316 190.505L454.755 189.419L456.344 189.398L459.753 189.153L460.609 187.658L461.934 186.62L463.149 185.99L463.825 187.63L465.025 188.053L467.415 189.158L468.759 188.889L469.536 188.449L469.374 186.718L470.21 185.657L469.791 182.675L470.013 180.024L470.758 179.521L471.692 180.1L472.196 181.098L473.158 180.283L473.283 179.333L472.4 178.265L472.209 176.823L472.565 176.083L473.568 173.816L474.064 172.754L475.415 172.844L476.656 171.614L478.219 169.201L479.527 166.393L479.219 163.226L479.016 160.07L478.374 156.797L477.492 155.097L477.59 154.324L478.533 153.058L476.206 147.677L472.459 135.963Z" stroke="#1D1611" stroke-width="0.75"/>
<path d="M411.412 213.708L411.165 211.928L411.011 209.073L412.122 207.041L412.835 204.457L414.016 201.591L413.132 198.03L411.754 196.505L411.229 194.532L411.178 191.043L410.18 186.78L407.771 176.986L405.428 167.592L403.65 160.421L405.643 160.665L406.643 161.12L407.311 160.806L408.419 159.392L410.011 158.106L413.152 157.494L426.552 153.885L429.955 152.995L432.488 162.739L438.821 185.159L439.772 188.678L439.769 190.118L440.71 191.108L440.907 191.95L439.505 193.195L437.467 194.512L435.537 195.174L435.655 198.253L433.152 200.766L431.821 203.533L432.26 204.975L432.054 205.984L429.992 206.318L428.847 205.475L427.428 206.508L425.916 207.709L426.322 209.587L425.608 209.867L425.216 209.282L423.722 208.567L421.842 209.725L421.182 211.745L420.21 211.388L419.147 210.542L416.429 211.291L413.06 212.454L411.412 213.708Z" stroke="#1D1611" stroke-width="0.75"/>
<path d="M411.431 213.941L411.126 211.935L411.012 208.997L412.165 206.954L412.913 204.24L413.896 201.538L413.139 198.318L411.54 196.323L411.144 194.257L411.046 190.919L409.814 186.551L407.569 176.874L405.26 167.691L403.52 160.566L403.259 160.022L402.498 158.499L401.324 156.323L400.143 155.382L398.982 153.924L398.286 150.544L370.16 156.75L370.539 158.198L372.025 158.394L372.707 159.011L373.174 160.099L375.927 161.836L376.582 163.185L376.501 165.38L375.734 167.832L375.562 169.461L374.328 170.824L373.263 171.433L370.142 172.811L369.9 174.014L369.681 175.359L370.244 176.141L371.539 176.95L371.81 179.525L370.837 180.7L370.572 181.762L370.848 183.463L369.76 183.93L368.883 184.799L368.879 185.673L369.227 186.926L368.296 187.913L367.939 189.753L368.59 191.976L370.741 196.283L376.034 200.228L379.802 201.946L380.096 204.662L380.801 205.421L384.814 205.062L386.653 205.638L386.595 207.975L385.774 211.89L385.67 213.944L387.478 216.125L391.973 218.743L394.876 218.71L396.657 221.623L398.253 223.401L397.985 225.336L399.39 227.727L400.73 228.82L401.518 228.132L401.873 226.754L403.069 225.448L404.328 224.853L406.06 225.324L408.446 225.813L409.153 225.509L409.051 224.088L408.011 222.722L407.961 221.218L408.965 220.198L410.757 219.392L411.493 218.981L410.974 218.182L410.247 216.802L411.036 216.05L411.431 213.941Z" stroke="#1D1611" stroke-width="0.75"/>
<path d="M557.007 113.072L553.234 104.215L550.402 105.259L537.719 110.33L538.663 112.23L540.295 116.595L541.304 122.138L540.767 123.609L542.151 124.615L544.407 121.764L546.287 119.402L547.278 117.904L547.844 118.224L549.402 117.046L552.495 115.826L557.007 113.072Z" stroke="#1D1611" stroke-width="0.75"/>
<path d="M398.321 150.533L397.963 148.582L396.778 145.893L395.76 142.149L394.816 140.758L395.109 138.756L395.318 136.871L395.96 135.121L395.218 133.08L394.46 130.94L394.582 129.788L395.542 128.09L395.366 126.37L394.735 125.649L394.876 123.98L394.177 121.439L395.313 117.655L396.435 113.152L396.308 111.732L396.01 111.163L395.558 111.545L393.585 115.877L392.288 118.659L391.264 119.956L390.99 121.441L389.859 122.138L389.352 123.454L388.418 123.4L388.139 122.313L388.698 120.68L389.53 117.562L390.47 116.381L390.847 114.819L389.069 113.897L386.805 107.667L384.471 107.19L383.033 105.954L375.241 105.483L373.357 105.144L368.048 104.624L363.024 104.7L360.175 101.896L359.766 102.315L359.007 102.335L358.493 101.698L357.695 102.016L357.01 102.23L356.005 103.01L355.339 102.706L355.545 101.438L356.439 99.3387L357.027 98.5234L355.679 97.8158L354.457 98.5279L352.848 100.023L348.563 102.774L346.825 103.467L344.972 103.458L344.275 103.012L343.248 104.982L343.382 106.707L344.231 111.952L343.683 113.059L340.814 115.997L339.993 119.913L340.299 120.008L342.065 121.032L342.811 122.948L341.999 125.116L342.389 127.527L343.338 131.592L345.478 133.137L347.604 132.793L349.059 134.594L351.231 134.534L354.213 137.688L359.02 139.529L360.57 141.024L361.883 145.54L362.641 147.527L364.219 148.29L364.498 149.117L363.567 151.451L364.03 153.412L365.979 155.57L367.652 156.027L369.54 156.012L370.511 156.733L398.321 150.533Z" stroke="#1D1611" stroke-width="0.75"/>
<path d="M544.367 188.588L546.153 191.428L549.007 195.081L550.753 196.342L551.381 197.681L549.895 198.024L550.461 198.344L550.682 200.983L549.208 202.044L549.019 203.413L548.509 205.347L546.367 206.722L544.831 206.765L543.913 206.811L542.781 206.171L543.111 206.941L543.209 207.542L544.411 207.347L545.042 208.068L544.472 212.173L547.078 211.751L547.641 212.689L548.817 211.058L549.569 210.627L548.724 213.028L547.307 216.343L546.505 216.473L545.755 216.286L544.116 216.963L541.153 218.985L537.681 222.942L536.047 226.19L535.493 230.395L535.436 231.947L532.579 232.718L529.333 234.094L522.344 230.006L513.766 226.559L511.881 226.35L504.211 228.517L501.635 229.411L500.309 227.568L498.255 226.554L488.083 228.509L483.655 229.74L478.497 233.455L474.949 235.676L462.082 239.404L461.985 236.84L462.941 235.759L464.58 235.083L464.607 232.712L466.937 230.586L469.196 229.295L471.444 226.667L473.939 224.926L474.031 222.957L476.047 220.161L476.431 219.996C476.431 219.996 476.545 220.698 477.046 220.617C477.547 220.536 478.281 220.623 478.281 220.623L479.327 218.19L480.565 217.578L482 217.552L482.645 215.184L484.189 213.288L484.279 211.936L484.029 209.655L486.677 209.212L491.054 207.959L500.595 204.982L509.767 202.169L522.707 197.071L534.667 192.426L541.353 189.812L544.367 188.588ZM550.348 208.752L551.699 206.938L553.394 205.018L554.281 204.463L554.178 203.194L553.161 199.449L552.024 198.142L551.436 197.054L551.863 196.83L554.118 199.963L554.815 202.679L555.055 204.801L553.105 206.094L551.595 207.881L551.015 208.747L550.348 208.752Z" stroke="#1D1611" stroke-width="0.75"/>
<path d="M521.928 164.557L520.593 163.612L519.76 163.31L520.451 161.911L522.438 162.829L521.928 164.557Z" stroke="#1D1611" stroke-width="0.75"/>
<path d="M572.285 107.03L573.562 106.387L573.673 105.277L574.323 105.245L575.19 106.56L574.456 106.969L572.059 107.43L572.285 107.03ZM566.555 108.466L567.708 106.607L568.7 106.446L569.983 107.184L568.598 108.063L567.355 108.919L566.555 108.466ZM542.777 98.3226L553.25 93.6743L554.588 93.0462L555.494 91.1205L557.643 89.7141L559.877 92.1607L558.893 95.612L558.839 96.5467L560.301 97.956L560.921 97.3412L562.023 97.1628L563.686 98.5397L566.691 101.86L568.944 101.804L570.25 100.975L571.174 99.6939L570.397 98.0708L568.932 97.2791L568.111 97.9263L567.38 97.2217L567.632 96.8723L568.919 96.5612L570.102 96.884L571.548 98.1931L572.441 99.9003L572.885 101.372L570.426 102.695L568.215 104.288L566.265 107.484L565.208 108.581L565.111 107.979L566.468 106.834L566.59 105.682L565.781 103.859L564.123 105.053L563.768 106.036L564.296 107.391L563.116 108.219L560.958 105.687L558.416 103.321L556.951 102.405L553.089 104.224L550.038 105.386L537.684 110.308L536.791 107.419L536.129 100.787L538.699 99.8058L542.777 98.3226Z" stroke="#1D1611" stroke-width="0.75"/>
<path d="M461.042 217.309L429.379 225.623L419.789 228.307L416.976 229.089L414.575 229.46L414.85 232.025L409.803 233.01L405.559 234.108L400.531 234.843L400.365 239.371L399.864 242.94L398.098 244.976L397.702 247.828L397.761 249.464L395.483 251.273L396.742 253.333L396.579 256.137L396.058 256.724L462.056 239.418L461.909 236.925L462.882 235.819L464.563 235.07L464.607 232.698L466.876 230.609L469.234 229.277L471.407 226.653L473.953 224.952L473.969 222.997L476.088 220.119L476.418 219.992C476.418 219.992 476.551 220.691 477.052 220.61C477.553 220.529 478.29 220.635 478.29 220.635L479.333 218.183L480.551 217.575L481.991 217.529L482.627 215.178L484.194 213.242L484.26 211.997L484.079 209.665L482.729 209.756L481.32 211.275L476.988 211.995L465.847 215.317L461.042 217.309Z" stroke="#1D1611" stroke-width="0.75"/>
<path d="M399.778 243.006L397.383 243.85L394.15 243.97L394.25 242.934L395.84 241.044L396.057 238.682L394.625 237.022L346.27 246.449L347.951 250.542L348.777 255.646L350.729 262.313L354.668 285.754L356.28 286.729L357.985 285.581L359.8 286.014L360.882 290.022L395.244 283.734L395.745 282.323L395.211 280.151L393.781 278.491L394.623 277.41L393.38 276.013L393.552 274.387L393.837 270.774L395.191 269.242L394.537 267.895L396.265 264.196L397.828 263.073L397.608 262.158L397.211 261.06L398.42 257.302L399.783 256.281L399.677 254.117L400.65 253.17L398.653 253.185L397.419 250.832L398.918 249.077L399.057 247.77L399.444 245.132L399.778 243.006Z" stroke="#1D1611" stroke-width="0.75"/>
<path d="M368.315 187.683L366.443 186.021L365.505 184.718L325.854 192.664L324.448 192.964L325.48 194.397L325.568 195.838L327.517 197.996L329.843 200.238L332.032 201.63L333.394 201.554L334.414 201.971L334.712 203.814L333.739 204.99L333.685 206.454L335.305 208.374L337.162 209.965L338.904 210.847L340.925 217.94L344.74 240.277L345.352 243.161L346.176 246.453L359.994 243.665L374.31 240.911L387.125 238.327L394.326 237.015L396.015 238.922L395.923 241.042L394.25 242.842L394.08 244.038L397.46 243.782L399.805 242.966L400.318 239.387L400.134 235.69L401.178 233.895L402.638 232.713L402.364 230.816L402.799 229.513L401.494 228.106L400.768 228.85L399.309 227.668L398.035 224.846L398.278 223.204L396.729 221.274L395.135 218.62L392.08 218.606L387.198 215.833L385.72 213.454L385.894 211.389L386.563 207.426L386.56 205.604L385.248 205.16L380.919 205.354L380.11 204.395L379.616 201.783L375.87 200.206L370.766 196.086L368.615 191.779L368.048 189.182L368.315 187.683Z" stroke="#1D1611" stroke-width="0.75"/>
<path d="M449.671 242.885L449.89 244.238L450.201 245.525L450.942 247.565L453.842 252.137L456.335 258.009L457.853 261.673L459.342 264.518L460.942 268.683L462.877 272.381L464.821 274.227L465.462 276.284L466.746 276.59L467.057 277.877L466.442 281.063L466.466 283.117L466.56 284.336L468 286.881L468.736 290.156L468.479 291.741L468.961 292.178L469.944 292.533L470.393 294.508L472.114 296.361L473.726 297.476L478.652 296.781L485.294 295.295L498.499 292.335L501.806 291.37L504.646 290.928L505.039 292.716L506.723 292.958L506.485 290.219L505.029 287.574L505.568 286.458L509.257 286.375L512.374 286.073L511.261 282.245L511.658 275.802L512.138 273.05L511.578 271.495L513.018 267.288L512.566 266.501L511.45 267.13L509.717 266.587L509.105 265.349L507.947 263.273L506.333 262.197L504.665 262.055L503.176 259.21L500.727 255.575L497.927 254.794L496.43 253.802L495.368 252.327L493.871 251.335L492.338 250.76L490.643 249.183L488.512 248.088L485.528 247.439L485.081 246.586L483.286 245.024L482.839 244.171L480.236 241.429L478.064 241.844L475.5 240.759L474.491 240.1L474.113 239.029L474.458 237.739L475.726 236.827L475.123 235.59L449.671 242.885Z" stroke="#1D1611" stroke-width="0.75"/>
<path d="M512.381 266.216L511.377 266.995L509.644 266.453L509.032 265.214L507.874 263.139L506.26 262.062L504.592 261.921L503.103 259.076L500.799 255.642L497.999 254.861L496.501 253.869L495.44 252.394L493.943 251.402L492.41 250.827L490.715 249.25L488.584 248.155L485.6 247.506L485.153 246.652L483.358 245.091L482.911 244.238L480.288 241.37L478.2 241.811L475.451 240.713L474.52 240.041L474.141 238.97L474.447 237.686L475.753 236.858L475.206 235.489L478.547 233.462L483.737 229.702L488.475 228.42L498.421 226.542L500.245 227.441L501.623 229.355L504.228 228.545L511.898 226.378L513.783 226.587L522.362 230.034L529.442 234.056L526.63 237.985L525.643 242.054L525.976 246.012L525.055 246.675L524.629 248.493L523.191 249.138L522.245 251.554L520.818 253.534L519.755 255.866L518.834 256.53L516.971 258.992L515.183 259.384L516.109 261.292L513.554 265.203L512.381 266.216Z" stroke="#1D1611" stroke-width="0.75"/>
<path d="M476.907 200.115L475.727 201.835L473.91 204.67L471.406 208.553L470.824 209.739L470.997 211.049L468.499 212.83L465.333 215.503L461.03 217.344L429.372 225.586L419.782 228.27L416.969 229.051L414.568 229.422L414.851 232.062L409.795 232.972L405.551 234.071L400.594 234.835L401.211 233.895L402.605 232.689L402.426 230.681L402.809 229.455L401.558 228.042L401.864 226.779L403.088 225.449L404.326 224.837L406.159 225.364L408.494 225.809L409.163 225.495L409.036 224.075L407.991 222.701L407.964 221.265L409.02 220.168L410.559 219.508L411.496 218.945L410.816 217.923L410.221 216.785L411.055 216.016C411.053 215.993 411.478 213.706 411.455 213.624L413.199 212.4L416.399 211.265L419.136 210.513L420.163 211.383L421.197 211.77L421.871 209.683L423.718 208.567L425.234 209.266L425.589 209.845L426.29 209.563L425.893 207.748L427.658 206.35L428.882 205.468L429.997 206.345L432.049 205.985L432.255 204.951L431.8 203.585L433.011 200.844L435.627 198.233L435.579 195.163L437.346 194.587L439.531 193.186L440.874 191.882L440.594 190.931L439.74 190.144L439.79 188.23L442.372 187.737L443.723 187.044L445.941 187.594L447.653 190.095L450.835 189.586L452.328 190.75L453.315 190.496L454.799 189.443L458.103 189.273L459.721 189.149L460.56 187.705L462.04 186.558L463.135 185.931L463.821 187.625L465.194 188.076L467.041 189.103L467.683 192.609L468.342 193.503L470.103 194.208L470.812 195.554L473.736 197.268L475.218 199.333L476.907 200.115Z" stroke="#1D1611" stroke-width="0.75"/>
<path d="M434.791 312.025L432.43 303.293L428.844 291.94L427.532 283.202L424.918 263.873L423.146 253.564L422.604 249.567L449.815 242.859L449.942 244.227L450.253 245.514L450.995 247.555L453.894 252.126L456.387 257.998L457.906 261.662L459.395 264.507L460.994 268.672L462.93 272.371L464.874 274.216L465.515 276.273L466.799 276.58L467.11 277.867L466.494 281.052L466.518 283.106L466.613 284.325L468.053 286.87L468.789 290.146L468.531 291.73L469.013 292.167L469.996 292.522L470.49 294.281L466.984 294.623L462.841 295.705L447.3 300.072L440.988 301.989L441.139 303.796L442.42 304.72L444.218 305.664L445.375 310.526L442.198 312.678L440.462 312.753L441.97 311.274L441.873 310.673L439.369 307.272L437.901 307.098L437.437 309.951L436.912 311.785L436.494 311.749L434.791 312.025Z" stroke="#1D1611" stroke-width="0.75"/>
<path d="M420.198 313.589L417.844 311.955L417.918 308.443L417.419 307.956L411.779 309.509L396.311 312.305L395.647 310.888L395.364 305.553L396.822 301.533L399.069 295.639L398.472 294.21L399.183 293.661L399.271 292.404L397.648 291.359L397.383 290.166L395.812 287.654L395.085 283.739L360.792 289.877L361.771 295.811L363.137 301.555L363.952 303.896L365.924 306.196L366.996 309.223L370.239 312.19L370.702 314.152L371.196 314.508L371.62 319.823L370.282 323.24L371.481 324.355L371.308 325.984L371.617 330.589L371.088 332.712L371.527 334.942L374.28 333.529L381.809 332.442L388.579 333.61L392.701 333.663L394.86 332.387L396.977 332.765L399.079 333.042L399.369 331.658L397.251 331.28L395.696 331.841L393.831 331.114C393.831 331.114 393.801 330.296 394.186 330.13C394.57 329.965 395.992 329.221 395.992 329.221L397.241 329.945L398.245 329.165L400.314 329.241L401.46 330.599L401.887 331.97L404.726 331.716L406.006 332.641L405.668 333.724L404.947 334.355L406.111 335.196L411.679 336.558L413.754 335.399L414.112 333.798L415.65 333.137L416.606 332.057L417.505 332.528L418.298 334.252L416.977 334.98L417.442 335.316L419.417 334.174L420.479 331.841L420.931 331.46L419.596 331.47L419.935 330.386L419.689 329.5L420.943 328.989L421.514 328.073L421.996 328.51C421.996 328.51 422.204 330.43 422.705 330.349C423.206 330.268 425.376 330.329 425.376 330.329L428.075 331.126L428.823 331.931L430.626 331.639L431.425 332.127L432.52 329.995L432.374 329.093L431.572 329.223L429.192 327.859L425.503 327.942L423.272 326.863L423.698 325.045L425.133 325.018L425.168 324.601L423.969 324.178L423.92 323.877L425.924 323.553L426.718 321.47L425.722 320.397L425.245 318.725L424.36 318.971L423.368 320.469L423.227 322.138L421.258 322.045L420.479 321.039L421.386 319.658L422.22 317.33L421.32 315.941L420.198 313.589Z" stroke="#1D1611" stroke-width="0.75"/>
<path d="M434.84 311.335L434.808 312.14L431.602 312.659L430.619 312.304L429.284 312.314L425.27 314.198L424.086 313.875L422.905 316.741L422.3 317.334L421.353 315.904L420.255 313.609L417.808 311.968L417.96 308.415L417.443 307.917L416.332 308.242L411.512 309.578L396.334 312.272L395.634 310.97L395.334 305.687L396.697 301.857L399.019 295.661L398.498 294.198L399.199 293.667L399.277 292.433L397.631 291.376L397.345 290.059L395.794 287.688L395.128 284.001L395.701 282.33L395.22 280.234L393.814 278.5L394.611 277.428L393.387 276.035L393.504 274.965L393.827 270.759L395.164 269.247L394.528 267.844L396.263 264.188L397.883 263.063L397.578 262.047L397.23 261.033L398.454 257.292L399.785 256.293L399.789 255.724L422.547 249.57L423.292 253.448L425.063 263.758L427.678 283.087L428.989 291.825L432.575 303.178L434.84 311.335Z" stroke="#1D1611" stroke-width="0.75"/>
<path d="M370.108 156.51L370.552 158.211L371.988 158.346L372.703 159.01L373.199 160.111L375.887 161.813L376.552 163.227L376.478 165.418L375.821 167.581L375.601 169.362L374.415 170.573L373.409 171.1L370.138 172.813L369.662 175.34L370.251 176.117L371.561 176.976L371.79 179.507L370.852 180.638L370.539 181.734L370.896 183.443L369.773 183.916L368.876 184.764L368.839 185.631L369.224 186.915L368.375 187.762L366.529 186.067L365.5 184.675L325.006 192.829L324.454 193.024L322.728 190.429L321.921 186.341L320.516 183.95L319.563 180.758L317.779 178.719L316.73 175.833L314.272 171.43L313.025 168.213L311.956 167.004L310.689 165.463L311.414 162.263L311.691 158.581L309.783 157.58L309.225 155.925L309.539 154.274L310.602 154.102L361.708 145.022L362.645 147.532L364.198 148.274L364.499 149.131L363.582 151.436L364.021 153.405L365.961 155.508L367.658 156.057L369.617 156.06L370.108 156.51Z" stroke="#1D1611" stroke-width="0.75"/>
<path d="M304.768 122.057L303.636 116.857L301.768 112.504L299.28 104.322L298.01 98.272L296.532 96.3289L295.035 93.3704L294.003 86.9906L294.038 84.5116L292.362 81.3136L311.043 78.3123L310.416 73.1672L310.801 73.0021L312.252 73.0757L313.536 73.3824L314.588 76.7097L316.107 80.3732L317.271 81.2135L320.277 80.7269L320.624 81.5967L324.564 81.1647L324.775 82.4679L327.781 81.9813L327.852 81.1469L328.44 80.3316L329.778 79.7036L330.677 80.1753L332.481 79.8834L335.145 81.0981L338.695 82.0666L340.247 82.124L340.45 81.4739L341.303 81.0272L341.896 82.783L343.629 83.3255L343.881 82.9761L344.699 82.9466L344.91 84.2498L346.611 84.5918L348.515 84.2836L349.436 83.6202L351.115 81.2908L352.67 80.7306L353.349 81.7522L353.78 82.5055L354.381 82.4082L354.901 81.8097L360.38 80.7171L361.79 82.4434L362.191 82.3785L362.525 81.6346L365.24 80.9592L365.089 82.4342L362.832 83.9686L357.509 87.4146L354.75 89.1382L353.106 91.0503L351.96 93.4991L350.947 96.1321L349.925 96.8118L347.623 100.374L346.837 100.604L344.431 102.748L343.227 104.982L343.405 106.984L344.271 111.963L343.588 113.148L340.815 115.989L340.033 119.923L342.038 121.02L342.783 122.953L341.958 125.148L342.44 127.455L343.344 131.591L345.523 133.149L347.586 132.815L349.073 134.568L351.218 134.541L354.179 137.671L358.986 139.513L360.603 141.081L361.665 145.006L311.441 153.864L307.65 131.774L307.068 129.977L304.173 128.263L303.281 127.244L303.121 126.251L304.235 125.053L304.948 124.064L304.768 122.057Z" stroke="#1D1611" stroke-width="0.75"/>
<path d="M265.219 250.639L254.75 251.523L255.303 258.403L268.105 257.067L288.106 254.66L289.109 270.036L290.616 281.141L290.918 282.11L293.978 283.943L295.368 284.445L295.77 284.234L295.989 282.89L297.023 283.886L298.298 283.68L298.16 282.829L299.999 283.404L300.105 285.861L302.679 285.589L304.353 286.046L306.972 286.058L308.715 286.94L309.925 285.435L312.12 285.516L314.023 287.391L314.59 287.299L314.819 288.716L316.305 288.912L317.493 287.265L318.695 287.507L320.254 287.255L321.074 288.723L325.188 289.38L325.969 288.817L326.69 286.081L327.399 285.967L328.314 287.128L330.933 287.14L333.338 287.624L335.273 287.893L336.314 287.142L336.487 285.514L339.18 285.078L340.547 285.439L342.041 283.888L342.749 283.773L343.335 284.696L345.886 284.284L346.671 282.847L347.851 282.947L349.379 284.3L351.546 285.113L353.622 285.359L354.938 285.858L350.961 262.818L349.009 256.151L348.019 250.665L346.47 246.755L345.267 242.381L344.842 240.021L337.351 241.437L308.538 245.809L280.414 249.052L265.219 250.639Z" stroke="#1D1611" stroke-width="0.75"/>
<path d="M254.496 258.58L268.67 256.977L288.057 254.567L288.965 269.346L290.603 280.634L290.854 281.918L293.93 283.85L295.307 284.548L295.984 284.082L296.033 282.917L296.921 283.921L298.235 283.737L298.088 282.84L299.22 283.272L299.967 283.411L300.142 285.908L302.686 285.555L304.619 286.004L307.123 285.933L308.808 286.984L309.916 285.483L312.287 285.491L313.987 287.268L314.686 287.359L314.784 288.594L316.235 288.863L317.473 287.355L318.857 287.522L320.243 287.321L321.065 288.737L325.2 289.414L326.111 288.778L326.615 286.038L326.826 286.004L327.396 285.963L328.365 287.123L330.868 287.141L333.049 287.503L335.293 287.901L336.336 287.111L336.526 285.48L339.29 285.061L340.505 285.457L342.029 283.87L342.717 283.786L343.406 284.696L345.919 284.289L346.657 282.879L347.855 282.944L349.303 284.239L351.69 285.154L353.544 285.369L354.562 285.713L356.279 286.706L358.032 285.578L359.814 286.014L360.777 289.744L361.726 295.764L363.108 301.608L363.905 303.773L366.007 306.245L367.061 309.225L370.23 312.236L370.667 314.167L371.209 314.579L371.597 319.849L370.32 323.242L371.486 324.423L371.33 325.936L371.658 330.595L371.061 332.816L371.595 334.958L368.243 336.51L362.585 340.306L362.178 341.606L360.769 343.069L359.613 344.182L358.892 344.813L355.921 348.689L354.428 350.268L351.446 352.808L348.182 354.879L344.615 357.617L343.658 358.698L340.408 361.487L338.369 362.229L336.515 366.027L334.043 366.633L333.636 367.933L335.234 368.909L334.884 372.463L334.536 375.4L334.224 377.919L334.178 380.808L334.922 382.23L336.722 386.363L337.94 390.075L339.318 391.6L338.863 392.6L337.154 394.111L333.257 392.273L329.736 392.123L328.983 392.553L326.914 392.476L324.001 390.993L320.681 390.811L315.63 389.468L313.938 387.273L312.487 383.393L310.288 382.514L309.66 381.175L309.996 380.709L309.856 378.572L308.99 378.3L308.491 377.764L308.855 374.927L307.626 373.686L305.492 373.209L302.949 370.842L300.079 367.089L297.215 365.907L297.12 364.687L292.58 357.604L291.657 355.078L290.36 354.054L290.114 353.168L285.871 350.46L283.959 348.815L283.846 348.113L282.031 347.069L277.709 347.049L273.035 347.394L270.904 346.298L268.276 347.855L266.218 349.114L265.14 351.346L264.912 353.749L262.823 357.997L261.563 359.744L259.862 359.402L258.646 358.878L257.379 358.672L254.747 357.658L254.682 357.257L253.385 356.232L249.968 355.448L244.579 351.382L242.706 348.702L241.894 343.69L239.241 340.004L238.665 338.348L237.565 337.909L236.653 336.719L233.336 335.919L232.372 335.046L227.168 330.848L226.042 328.972L222.908 328.039L221.568 325.479L219.673 323.934L218.422 323.827L217.55 320.992L222.579 320.614L240.852 319.403L259.01 317.482L258.441 305.189L255.274 270.348L254.384 258.562L255.237 258.442L254.496 258.58ZM339.673 390.925L338.608 386.571L336.182 382.386L335.126 378.082L335.25 372.815L336.615 368.222L338.226 364.515L339.823 361.993L340.248 362.079L337.957 366.667L335.909 371.165L335.321 375.478L335.64 378.719L336.808 382.439L339.133 386.641L339.953 389.8L340.199 390.686L339.673 390.925Z" stroke="#1D1611" stroke-width="0.75"/>
<path d="M218.432 323.88L217.475 321.013L222.886 320.472L241.883 319.271L258.955 317.583L258.451 305.76L255.233 270.723L254.364 258.525L255.351 258.447L254.742 251.442L189.207 255.281L190.45 331.721L200.233 331.403L200.029 325.058L218.432 323.88Z" stroke="#1D1611" stroke-width="0.75"/>
<path d="M344.631 240.05L336.83 241.443L308.216 245.783L280.39 248.978L264.997 250.669L260.927 210.222L274.683 208.425L299.741 204.904L327.3 201.072L330.459 200.561L332.03 201.683L333.278 201.467L334.397 201.93L334.66 203.802L333.7 205.056L333.718 206.473L335.202 208.398L337.352 210.084L338.957 210.851L340.892 217.691L344.631 240.05Z" stroke="#1D1611" stroke-width="0.75"/>
<path d="M322.73 190.344L325.437 194.373L325.588 195.813L328.284 198.873L330.286 200.555L327.156 201.062L300.109 204.842L274.738 208.382L260.866 210.129L259.39 196.795L239.064 198.227L237.34 170.5L247.079 169.578L259.665 168.268L270.833 167.188L285.686 165.511L292.3 164.15L293.805 165.361L297.079 166.722L297.88 167.175L300.435 165.888L302.798 165.215L304.476 164.798L305.747 165.465L308.423 166.05L310.425 166.745L310.869 167.691L311.643 168.875L312.777 168.692L313.276 168.64L314.3 171.454L316.96 176.412L317.692 178.684L319.635 180.772L320.501 183.886L321.923 186.354L322.73 190.344Z" stroke="#1D1611" stroke-width="0.75"/>
<path d="M313.066 168.569L312.978 168.213L310.697 165.499L311.377 162.39L311.712 158.59L309.778 157.58L309.264 155.917L309.499 154.253L311.477 153.943L310.898 150.851L307.663 132.173L306.902 129.898L304.043 128.241L303.266 127.3L303.066 126.309L304.166 125.157L304.948 123.971L304.833 122.299L268.562 127.151L234.248 130.51L237.34 170.541L246.475 169.637L258.962 168.383L270.053 167.179L284.922 165.602L292.307 164.136L293.751 165.331L297.298 166.828L297.844 167.199L300.513 165.843L304.505 164.805L305.678 165.466L308.444 166.034L310.434 166.753L310.83 167.633L311.699 168.918L313.066 168.569Z" stroke="#1D1611" stroke-width="0.75"/>
<path d="M304.82 122.108L303.592 116.94L301.869 112.882L299.389 104.995L298.003 98.2273L296.616 96.4936L295.005 93.4487L293.976 86.9689L293.979 84.535L292.293 81.3283L274.483 83.8522L262.894 85.3164L246.331 87.1744L231.893 88.1533L234.301 130.513L268.686 127.075L304.82 122.108Z" stroke="#1D1611" stroke-width="0.75"/>
<path d="M235.022 142.542L167.507 144.907L167.656 201.174L239.227 198.235L235.022 142.542Z" stroke="#1D1611" stroke-width="0.75"/>
<path d="M231.834 88.1353L212.539 89.4716L194.045 90.2019L175.502 90.6313L154.925 90.567L143.161 90.3107L122.181 89.2948L121.548 102.982L124.431 107.317L124.039 110.29L125.632 112.942L127.754 113.471L131.699 119.686L133.688 121.385L134.086 122.048L136.327 122.413L136.817 123.643L134.191 135.271L134.443 136.83L136.323 138.563L136.89 138.471L139.568 136.146L139.878 135.369L140.939 135.634L141.325 138.917L144.288 146.44L146.382 147.701L147.018 148.034L148.381 149.269L148.442 151.441L149.211 153.499L150.012 153.951L151.199 152.304L152.9 152.029L155.045 152.7L156.512 151.881L159.062 151.468L161.49 152.093L163.145 151.535L163.13 149.646L164.904 148.922L165.892 149.635L166.496 151.574L167.464 151.949L167.526 144.917L235.04 142.534L231.834 88.1353Z" stroke="#1D1611" stroke-width="0.75"/>
<path d="M265.041 250.759L259.416 196.735L187.862 200.27L189.118 256.029L265.041 250.759Z" fill="#962B2B" stroke="#1D1611" stroke-width="0.75"/>
<path d="M107.01 184.395L108.911 161.674L109.337 158.913L110.299 154.975L109.29 153.683L107.743 154.007L107.144 153.449L107.313 152.694L107.215 150.746L109.428 146.896L110.516 146.429L111.11 145.605L111.143 143.563L111.641 143.046L113.465 139.041L115.438 135.957L115.201 133.595L112.811 132.309L111.418 129.734L113.505 89.0872L122.138 89.2988L121.552 103.001L124.51 107.286L123.998 110.335L125.685 113.015L127.756 113.479L131.092 119.02L133.715 121.419L134.144 122.077L136.33 122.451L136.769 123.714L134.192 135.189L134.347 136.797L136.312 138.593L136.868 138.471L139.608 136.102L139.918 135.355L140.953 135.607L141.318 138.955L144.279 146.483L147.026 148.061L148.285 149.235L148.251 151.839L149.194 153.473L149.961 154.044L151.262 152.337L153.033 152.081L154.976 152.616L156.631 151.914L158.967 151.434L161.594 152.027L163.264 151.568L163.267 149.635L165.008 148.866L165.942 149.68L166.511 151.462L167.515 152.071L167.698 186.157C167.698 186.157 111.496 184.626 107.01 184.395Z" stroke="#1D1611" stroke-width="0.75"/>
<path d="M189.238 256.118L136.134 257.158L137.599 185.303L167.474 186.033L167.62 192.774L167.51 201.174L172.442 200.967L182.793 200.44L187.969 200.147L189.238 256.118Z" stroke="#1D1611" stroke-width="0.75"/>
<path d="M125.49 312.588L124.078 314.19L124.024 315.124L124.422 315.677L137.217 320.396L145.495 323.891L155.474 327.729L166.901 332.257L174.76 332.528L190.498 331.702L189.236 256.098L136.136 257.109L135.867 267.597L134.873 267.767L134.074 269.57L132.504 269.751L131.449 268.176L129.714 268.239L129.032 267.622L128.465 267.713L127.956 268.16L126.855 268.993L127.484 273.328L127.514 274.414L128.422 282.269L127.719 283.765L127.697 285.878L129.891 288.651L131.256 292.14L131.855 292.698L132.55 292.949L132.709 294.378L131.854 295.39L129.901 296.797L128.891 298.197L128.337 300.614L128.476 303.72L126.98 305.708L125.774 306.34L125.941 306.841L125.83 307.95L126.194 308.4L128.518 308.388L128.439 310.146L127.736 311.642L125.49 312.588Z" stroke="#1D1611" stroke-width="0.75"/>
<path d="M137.622 185.226L135.9 267.483L134.799 267.883L134.066 269.533L132.596 269.778L131.408 268.224L129.747 268.252L129.158 267.643L128.509 267.713L126.952 269.012L127.441 273.251L127.796 276.87L128.443 282.233L127.755 283.674L126.136 283.253L72.8575 225.566L77.8443 181.75L137.622 185.226Z" stroke="#1D1611" stroke-width="0.75"/>
<path d="M107.065 183.78L109.057 161.311L109.284 158.583L110.179 154.86L109.681 154.2L108.117 154.424L107.155 153.516L107.292 152.563L107.278 150.499L109.49 146.649L110.514 145.784L111.108 144.96L111.671 142.6L113.61 138.678L115.433 135.925L115.228 133.762L112.954 132.559L111.383 129.859L103.17 128.89L93.4618 128.206L83.9077 129.825L83.4866 129.021L80.292 130.847L77.4712 130.94L75.8226 130.188L75.112 130.74L72.184 131.068L70.9835 130.39L67.5176 129.641L67.033 129.793L64.1913 129.307L63.1704 130.636L59.3097 131.043L55.2121 129.087L55.557 128.522L54.9185 123.679L53.1112 121.498L50.503 121.556L49.8255 120.066L48.3196 120.013L44.932 121.871L44.1781 126.108L43.1801 132.648L41.825 136.982L40.1303 146.207L37.4851 155.276L33.7405 163.907L32.8301 165.906L33.1891 171.3L34.6409 178.753L107.065 183.78Z" stroke="#1D1611" stroke-width="0.75"/>
<path d="M61.295 84.3299L64.1466 84.7942L70.4348 85.5253L75.9404 85.8687L88.9338 87.3662L103.731 88.5718L113.489 89.0333L111.421 129.832L103.353 128.894L93.3822 128.236L83.9457 129.785L83.5283 128.996L80.2763 130.91L77.3539 130.914L75.8641 130.147L75.1161 130.687L72.1667 131.075L70.9785 130.408L67.5041 129.626L67.0633 129.791L64.1897 129.286L63.1985 130.603L59.2846 131.047L55.1975 129.083L55.5867 128.426L54.8912 123.653L53.0913 121.501L50.4795 121.537L49.8076 120.048L48.3513 119.993L46.2713 121.113L44.5453 119.344L44.4536 117.507L46.1246 117.031L46.721 114.362L45.0042 113.92L44.7312 111.598L47.3718 110.759L45.3925 109.331L43.7767 105.066L43.8854 103.196L43.0903 98.2842L41.6635 96.4576L42.1253 90.4161L43.4766 90.506L45.2718 92.0672L47.2349 93.3955L49.4337 94.2741L52.4504 95.1232L54.4193 95.216L56.369 95.8263L58.5707 96.0872L59.9573 95.7599L59.7139 94.2561L60.402 93.4246L61.5748 92.4118L61.8889 93.0811L62.2678 94.1514L60.9135 94.6792L60.9241 96.0149L62.1724 96.7387L63.1172 98.1289L63.7128 99.267L64.5984 99.0208L64.5688 98.2026L63.8377 97.4979L63.2126 95.5416L63.5351 94.3577L62.9883 93.5204L62.7611 92.1169L63.5064 89.733L62.5453 88.2426L60.5554 85.4784L60.6747 84.9447L61.295 84.3299ZM56.0334 88.9864L57.2698 88.6834L57.7083 89.4868L58.498 88.3303L59.951 88.0951L60.6061 88.9664L59.8246 90.1731L60.3065 90.6094L60.0584 91.9355L59.2472 92.324C59.2472 92.324 58.7042 92.4634 58.6718 92.2629C58.6393 92.0624 59.314 90.5129 59.314 90.5129L58.2051 90.3323L58.1507 91.267L57.7647 91.741L56.5855 90.4916L56.0334 88.9864Z" stroke="#1D1611" stroke-width="0.75"/>
<path d="M125.312 312.342L127.706 311.644L128.425 310.248L128.467 308.369L126.206 308.359L125.821 307.997L125.913 306.689L125.755 306.339L126.884 305.762L128.486 303.7L128.345 300.544L128.859 298.296L129.846 296.757L131.868 295.419L132.732 294.257L132.563 292.943L131.889 292.683L131.147 292.12L129.844 288.609L127.695 285.884L127.694 283.653L126.091 283.258L72.8261 225.583L77.7573 181.766L34.602 178.761L34.143 181.848L34.7893 186.475L32.7672 194.313L31.1229 196.225L31.0361 196.959L30.015 197.639L29.535 200.391L29.3585 202.477L31.4839 204.808L32.9078 207.252L33.9662 209.344L34.4149 213.386L33.6209 215.47L33.8042 219.143L33.5762 221.546L35.0679 223.774L37.2257 226.305L39.1154 229.086L40.3227 231.462L40.4468 233.5L40.2951 233.833L40.506 235.136L44.6461 238.478L44.5888 240.03L44.4152 241.499L44.2091 242.767L45.1368 247.863L46.8127 249.958L48.2748 251.367L50.027 251.392L50.9041 252.999L50.5596 255.318L49.4192 256.532L48.7177 256.645L48.6061 259.132L49.1988 260.888L51.6411 263.27L53.1786 266.416L54.551 269.178L55.661 270.953L58.3494 274.221L59.5109 275.679L60.1036 277.435L61.203 277.874L61.4464 279.378L61.1401 280.662L60.7518 285.251L60.6459 286.503L62.4248 287.964L65.0788 287.843L68.0631 288.492L70.679 289.406L72.4827 289.114L74.5947 290.726L76.6848 293.474L77.6134 294.764L80.2292 295.678L83.3165 295.693L84.4293 296.85L85.1547 298.79L84.3177 299.337L84.6155 299.906L86.7008 300.083L88.4205 299.908L90.2098 298.545L93.0367 300.762L93.7649 302.084L95.79 304.431L96.315 306.404L97.2561 312.218L97.7352 313.272L104.094 313.169L116.595 312.894L125.312 312.342ZM66.2935 294.075L67.2493 294.898L67.2789 295.716L65.2666 295.99L64.7942 295.295L64.2474 294.458L66.2935 294.075ZM67.4959 293.881L68.1826 293.358L70.598 294.304L72.6237 294.748L72.1374 295.238L69.3073 295.542L68.143 294.702L67.4959 293.881ZM82.31 304.085L83.6476 305.36L84.246 305.881L85.2547 306.077L85.4594 305.118L84.6797 304.113L82.8235 303.128L82.1883 303.333L82.31 304.085ZM82.2763 309.594L83.695 311.371L84.6412 312.452L83.7637 312.749L82.8404 312.126C82.8404 312.126 82.2434 311.297 82.2029 311.047C82.1623 310.796 81.9838 309.693 81.9838 309.693L82.2763 309.594Z" stroke="#1D1611" stroke-width="0.75"/>
</g>
<defs>
<clipPath id="clip0_628_370">
<rect width="579.462" height="366.115" fill="white" transform="translate(0.786133 93.4072) rotate(-9.19418)"/>
</clipPath>
</defs>
</svg>
