<svg width="23" height="23" viewBox="0 0 23 23" fill="none" xmlns="http://www.w3.org/2000/svg">
<path d="M11.4962 0.659193C8.9478 0.655254 6.47959 1.5515 4.52686 3.19008C2.57402 4.82865 1.26193 7.10433 0.821726 9.6163C0.381527 12.1283 0.841406 14.7148 2.12044 16.9205L0.709802 21.1508C0.638799 21.3641 0.649661 21.5961 0.74066 21.8019C0.831501 22.0075 0.995707 22.1718 1.20117 22.2627C1.40679 22.3538 1.63867 22.3646 1.85188 22.2936L6.07935 20.882C8.00451 21.9974 10.2262 22.4927 12.4425 22.3005C14.6589 22.1083 16.7623 21.238 18.4672 19.8079C20.1721 18.3777 21.3956 16.457 21.9715 14.3069C22.5474 12.1568 22.4479 9.88101 21.6864 7.78948C20.9249 5.69796 19.5383 3.89149 17.7152 2.61592C15.892 1.34031 13.7206 0.657241 11.4959 0.659581L11.4962 0.659193ZM11.4962 20.5339C9.78926 20.5328 8.11794 20.0456 6.67748 19.1292C6.53295 19.0376 6.36544 18.9891 6.19448 18.9891C6.09765 18.9893 6.00161 19.0053 5.90999 19.0365L2.99174 20.01L3.96456 17.0898C4.0502 16.8329 4.01636 16.551 3.87198 16.3218C2.80284 14.6269 2.32738 12.6242 2.52056 10.6292C2.71357 8.6341 3.56422 6.75999 4.93847 5.30157C6.31275 3.84339 8.13271 2.88397 10.1119 2.5744C12.0909 2.26468 14.1166 2.62245 15.8705 3.59117C17.624 4.5599 19.0059 6.0847 19.7982 7.92546C20.5908 9.76633 20.749 11.8186 20.248 13.7592C19.747 15.6998 18.6152 17.4187 17.031 18.6452C15.4465 19.8715 13.4997 20.536 11.4964 20.5337L11.4962 20.5339Z" fill="white"/>
<path d="M12.399 11.5C12.399 11.9989 11.9949 12.4033 11.4963 12.4033C10.9977 12.4033 10.5936 11.9989 10.5936 11.5C10.5936 11.0011 10.9977 10.5967 11.4963 10.5967C11.9949 10.5967 12.399 11.0011 12.399 11.5Z" fill="white"/>
<path d="M8.78779 11.5C8.78779 11.9989 8.3835 12.4033 7.8849 12.4033C7.3863 12.4033 6.98218 11.9989 6.98218 11.5C6.98218 11.0011 7.3863 10.5967 7.8849 10.5967C8.3835 10.5967 8.78779 11.0011 8.78779 11.5Z" fill="white"/>
<path d="M16.0102 11.5C16.0102 11.9989 15.6061 12.4033 15.1075 12.4033C14.6089 12.4033 14.2046 11.9989 14.2046 11.5C14.2046 11.0011 14.6089 10.5967 15.1075 10.5967C15.6061 10.5967 16.0102 11.0011 16.0102 11.5Z" fill="white"/>
</svg>
