<svg width="78" height="51" viewBox="0 0 78 51" fill="none" xmlns="http://www.w3.org/2000/svg">
<path d="M78 5.8188L73.7711 1.21695L70.6418 2.44477V6.02535L65.6382 8.32618L58.51 17.3851L57.9864 17.2202L58.7925 15.095L56.6993 7.65617L46.1277 7.65545L44.3273 4.2405H43.6891C40.5912 4.2405 37.5451 4.16854 34.6458 4.03395C17.2914 3.22932 8.10054 0.309471 8.0183 0.278518L7.15966 0L1.24558 11.5246L1.36094 14.9086L0 16.3739L0.952821 22.5438L2.44957 24.4834V27.7126L15.5751 37.4213L23.8336 37.648L28.8576 45.541L31.8512 45.6648L36.2999 50.4004H38.7808L40.5389 46.057L43.7624 44.9012L47.175 45.5928L56.5535 43.2819L62.8128 46.9553L65.7019 51L68.6852 47.8535L65.5974 38.8357L67.6177 30.9737L70.9464 26.7541L72.6528 21.4507L71.6481 17.963L75.9712 16.5085L75.8558 9.71947L77.9915 9.13148L77.9908 5.81878L78 5.8188ZM16.3172 35.3788L10.4031 31.0045L65.3347 31.5205L63.7021 37.8445L26.387 37.7516L25.037 35.6264L16.3172 35.3788ZM66.3087 47.3467L65.9421 47.7389L64.2884 45.4171L56.9091 41.0837L47.154 43.4875L43.6268 42.7649L38.9583 44.4361L37.3776 48.3462L37.2206 48.3477L32.8144 43.6532L30.0617 43.5395L27.7062 39.8251L63.7653 39.9179L66.3087 47.3467ZM66.1619 29.4664L7.56691 28.9094L4.55221 26.6804V23.7815L3.88196 22.915L70.0226 22.7811L69.0698 25.7629L66.1619 29.4664ZM69.0927 16.6414L70.2755 20.7372L2.81526 20.871L2.22897 17.0537L3.49573 15.692L3.37015 11.9985L8.23714 2.50628C10.9167 3.2598 19.7403 5.42616 34.5618 6.10694C37.2939 6.23073 40.1508 6.3027 43.0612 6.3135L44.8625 9.71831H55.1097L55.7902 12.1328H32.1234C31.5481 12.1328 31.0764 12.597 31.0764 13.1649C31.0764 13.732 31.5473 14.1969 32.1234 14.1969H56.3752L56.6052 15.0016L55.2654 18.5302L59.2848 19.7789L63.681 14.1867H73.8553L73.8655 15.0122L69.0927 16.6414ZM75.9069 7.5516L73.7399 8.14967L73.8129 12.1426H65.2923L66.9774 9.99653L72.7345 7.34508V3.84741L73.1952 3.66173L75.9062 6.61257L75.9069 7.5516Z" fill="white"/>
<path d="M13.022 12.4423L11.7136 11.4722L10.3738 12.3905L10.9083 10.8741L9.61009 9.90397L11.2427 9.92484L11.7771 8.4077L12.248 9.94499L13.8806 9.97594L12.5408 10.8943L13.022 12.4423Z" fill="white"/>
<path d="M17.7957 12.4423L16.4873 11.4722L15.1475 12.3905L15.6812 10.8741L14.3831 9.90397L16.0164 9.92484L16.5501 8.4077L17.021 9.94499L18.6536 9.97594L17.3138 10.8943L17.7957 12.4423Z" fill="white"/>
<path d="M22.5676 12.4423L21.2694 11.4722L19.9296 12.3905L20.4633 10.8741L19.155 9.90397L20.7882 9.92484L21.322 8.4077L21.7929 9.94499L23.4364 9.97594L22.0966 10.8943L22.5676 12.4423Z" fill="white"/>
<path d="M27.3413 12.4423L26.0431 11.4722L24.7033 12.3905L25.2378 10.8741L23.9294 9.90397L25.562 9.92484L26.0957 8.4077L26.5776 9.94499L28.2101 9.97594L26.8704 10.8943L27.3413 12.4423Z" fill="white"/>
<path d="M13.022 17.9309L11.7136 16.9615L10.3738 17.8799L10.9083 16.3627L9.61009 15.3933L11.2427 15.4242L11.7771 13.897L12.248 15.4343L13.8806 15.4653L12.5408 16.3937L13.022 17.9309Z" fill="white"/>
<path d="M17.7957 17.9309L16.4873 16.9615L15.1475 17.8799L15.6812 16.3627L14.3831 15.3933L16.0164 15.4242L16.5501 13.897L17.021 15.4343L18.6536 15.4653L17.3138 16.3937L17.7957 17.9309Z" fill="white"/>
<path d="M22.5676 17.9309L21.2694 16.9615L19.9296 17.8799L20.4633 16.3627L19.155 15.3933L20.7882 15.4242L21.322 13.897L21.7929 15.4343L23.4364 15.4653L22.0966 16.3937L22.5676 17.9309Z" fill="white"/>
<path d="M27.3413 17.9309L26.0431 16.9615L24.7033 17.8799L25.2378 16.3627L23.9294 15.3933L25.562 15.4242L26.0957 13.897L26.5776 15.4343L28.2101 15.4653L26.8704 16.3937L27.3413 17.9309Z" fill="white"/>
</svg>
