<svg width="51" height="51" viewBox="0 0 51 51" fill="none" xmlns="http://www.w3.org/2000/svg">
<path d="M46.1894 19.0978C48.8462 19.0978 51 21.2516 51 23.9088V46.1895C51 48.8462 48.8462 51 46.1894 51H33.4577C30.8009 51 28.6471 48.8462 28.6471 46.1895V23.9088C28.6471 21.2516 30.8009 19.0978 33.4577 19.0978H46.1894ZM46.1894 22.3534H33.4577C32.5986 22.3534 31.9022 23.0497 31.9022 23.9089V46.1896C31.9022 47.0483 32.5986 47.7447 33.4577 47.7447H46.1894C47.0485 47.7447 47.7449 47.0483 47.7449 46.1896V23.9089C47.7449 23.0498 47.0486 22.3534 46.1894 22.3534ZM33.4577 0C35.999 0 38.0802 1.97065 38.2562 4.46689L38.2683 4.81054V11.1766C38.2683 12.0754 37.5397 12.8043 36.6409 12.8043C35.8166 12.8043 35.1358 12.192 35.0279 11.3973L35.0132 11.1766V4.8106C35.0132 4.02303 34.4281 3.37244 33.6689 3.26955L33.4577 3.25517H4.81056C4.02298 3.25517 3.37239 3.84027 3.2695 4.59945L3.25511 4.81063V39.824C3.25511 40.6112 3.84022 41.2621 4.5994 41.365L4.81058 41.3794H20.726C21.6252 41.3794 22.3538 42.1079 22.3538 43.0068C22.3538 43.8311 21.7414 44.5119 20.947 44.6197L20.726 44.6345H4.81056C2.26925 44.6345 0.188055 42.6639 0.0121107 40.1676L0 39.824V4.81062C0 2.26932 1.97065 0.188126 4.46691 0.0121824L4.81055 7.17e-05L33.4577 0Z" fill="white"/>
</svg>
