<svg width="51" height="51" viewBox="0 0 51 51" fill="none" xmlns="http://www.w3.org/2000/svg">
<path d="M24.8517 50.9926C11.068 50.6489 0 39.3673 0 25.5005C0 11.4169 11.4167 0 25.5 0C39.5833 0 51 11.4169 51 25.5005C51 39.584 39.5833 51 25.5 51L24.8517 50.9926ZM34.0784 27.1309H16.9212C17.2715 38.7339 21.3191 47.7456 25.4997 47.7456L25.7519 47.7347C29.8417 47.3819 33.7349 38.4999 34.0782 27.1312L34.0784 27.1309ZM3.31415 27.1306C3.98156 36.3487 10.2658 44.01 18.7609 46.7072C15.7887 42.4015 13.8881 35.2587 13.6636 27.1306H3.31415ZM47.6855 27.1306L37.3355 27.1298C37.111 35.2587 35.2105 42.4011 32.2376 46.7065C40.7337 44.01 47.0175 36.349 47.6853 27.1308L47.6855 27.1306ZM47.6855 23.8737C47.0192 14.6545 40.7342 6.99248 32.2387 4.2952C35.2113 8.60126 37.1119 15.7447 37.336 23.8737H47.6855ZM18.7619 4.2952L18.469 4.39002C10.1216 7.16868 3.9728 14.7606 3.3143 23.8737L13.6642 23.8741C13.8884 15.7444 15.7889 8.60093 18.7622 4.29551L18.7619 4.2952ZM25.4998 3.25572L25.2477 3.26662C21.1575 3.61941 17.2642 12.5029 16.921 23.8729H34.0791C33.7288 12.27 29.6808 3.25639 25.5002 3.25639L25.4998 3.25572Z" fill="white"/>
</svg>
