<svg width="49" height="51" viewBox="0 0 49 51" fill="none" xmlns="http://www.w3.org/2000/svg">
<path d="M48.9625 16.912C49.0701 16.2947 48.9278 15.6598 48.5646 15.1479L42.4234 6.49035C41.6651 5.42442 40.1775 5.1706 39.1085 5.91871L32.2069 10.7443V2.36248C32.2069 1.05679 31.1414 0 29.828 0H19.1677C17.8543 0 16.7888 1.05679 16.7888 2.36248V10.7443L9.88862 5.91871C8.81316 5.16777 7.33211 5.42442 6.57376 6.49035L0.433229 15.1479C0.0700245 15.6598 -0.0729959 16.2947 0.0353367 16.912C0.142953 17.5294 0.493406 18.0792 1.00884 18.4399L11.1079 25.5007L1.01029 32.5628C0.494855 32.9235 0.144412 33.4733 0.0367859 34.0921C-0.0708307 34.7094 0.0714777 35.3443 0.436095 35.8562L6.57663 44.5109C7.33137 45.5754 8.81469 45.832 9.89149 45.0811L16.7916 40.257V48.6375C16.7916 49.9418 17.8572 51 19.1705 51H29.8309C31.1442 51 32.2098 49.9418 32.2098 48.6375V40.257L39.1114 45.0811C40.1833 45.8292 41.6644 45.5754 42.4262 44.5109L48.5668 35.8562C48.93 35.3443 49.073 34.708 48.9647 34.0907C48.8585 33.4733 48.5066 32.9249 47.9912 32.5628L37.8894 25.5007L47.9884 18.4399C48.5039 18.0792 48.8563 17.5294 48.9625 16.912ZM33.3875 23.5698C32.7545 24.0121 32.3772 24.7321 32.3772 25.5019C32.3772 26.2704 32.7531 26.9904 33.3875 27.4328L44.3036 35.0665L39.903 40.859L31.1981 34.7734C30.4717 34.2665 29.5187 34.2018 28.7335 34.6096C27.9434 35.016 27.4492 35.8239 27.4492 36.7056V46.277H21.5466V36.7056C21.5466 35.8239 21.0517 35.0154 20.2623 34.6096C19.4771 34.2018 18.5228 34.2665 17.7977 34.7734L9.09412 40.859L4.69352 35.0665L15.606 27.4328C16.2389 26.9905 16.6163 26.2705 16.6163 25.5019C16.6163 24.7334 16.2404 24.0134 15.606 23.5698L4.69352 15.9375L9.09412 10.1429L17.7977 16.2305C18.5227 16.7374 19.4771 16.8007 20.2623 16.3957C21.0503 15.9893 21.5466 15.1814 21.5466 14.2976V4.72488H27.4492V14.2976C27.4492 15.1793 27.9455 15.9893 28.7335 16.3957C29.5187 16.8007 30.4752 16.7374 31.1981 16.2305L39.903 10.1429L44.305 15.9375L33.3875 23.5698Z" fill="white"/>
</svg>
