<svg width="44" height="51" viewBox="0 0 44 51" fill="none" xmlns="http://www.w3.org/2000/svg">
<path fill-rule="evenodd" clip-rule="evenodd" d="M38.9231 0H5.07692C3.72985 0 2.43876 0.537317 1.48759 1.49435C0.534904 2.44984 0 3.7469 0 5.1V45.9C0 47.2532 0.534885 48.5502 1.48759 49.5057C2.43875 50.4627 3.72994 51 5.07692 51H38.9231C40.2702 51 41.5612 50.4627 42.5124 49.5057C43.4651 48.5502 44 47.2531 44 45.9V5.1C44 3.7468 43.4651 2.44985 42.5124 1.49435C41.5612 0.537336 40.2701 0 38.9231 0ZM10.1538 3.4H5.07692C4.62854 3.4 4.19677 3.57834 3.88061 3.89824C3.56216 4.21584 3.38463 4.64958 3.38463 5.09999V45.9C3.38463 46.3504 3.56216 46.7841 3.88061 47.1017C4.19678 47.4216 4.62855 47.6 5.07692 47.6H38.9231C39.3715 47.6 39.8032 47.4216 40.1194 47.1017C40.4378 46.7841 40.6154 46.3504 40.6154 45.9V5.09999C40.6154 4.64957 40.4378 4.21583 40.1194 3.89824C39.8032 3.57834 39.3715 3.4 38.9231 3.4H33.8462V5.1C33.8462 7.91675 31.5732 10.2 28.7692 10.2H15.2308C12.4268 10.2 10.1538 7.91675 10.1538 5.1V3.4ZM30.4615 3.4V5.1C30.4615 6.03842 29.7034 6.8 28.7692 6.8H15.2308C14.2966 6.8 13.5385 6.03842 13.5385 5.1V3.4H30.4615Z" fill="white"/>
<path fill-rule="evenodd" clip-rule="evenodd" d="M11.8462 37.4H32.1538C33.088 37.4 33.8462 36.6384 33.8462 35.7C33.8462 34.7616 33.088 34 32.1538 34H11.8462C10.912 34 10.1538 34.7616 10.1538 35.7C10.1538 36.6384 10.912 37.4 11.8462 37.4Z" fill="white"/>
<path fill-rule="evenodd" clip-rule="evenodd" d="M11.8462 30.6H32.1538C33.088 30.6 33.8462 29.8384 33.8462 28.9C33.8462 27.9616 33.088 27.2 32.1538 27.2H11.8462C10.912 27.2 10.1538 27.9616 10.1538 28.9C10.1538 29.8384 10.912 30.6 11.8462 30.6Z" fill="white"/>
<path fill-rule="evenodd" clip-rule="evenodd" d="M11.8462 23.8H32.1538C33.088 23.8 33.8462 23.0384 33.8462 22.1C33.8462 21.1616 33.088 20.4 32.1538 20.4H11.8462C10.912 20.4 10.1538 21.1616 10.1538 22.1C10.1538 23.0384 10.912 23.8 11.8462 23.8Z" fill="white"/>
</svg>
