<svg width="51" height="42" viewBox="0 0 51 42" fill="none" xmlns="http://www.w3.org/2000/svg">
<path d="M47.5137 0H3.48629C2.56174 0 1.6748 0.368561 1.021 1.02499C0.367135 1.68141 0 2.57176 0 3.49992V29.5C0 30.4282 0.367126 31.3186 1.021 31.9749C1.67486 32.6313 2.56174 32.9999 3.48629 32.9999H29.9825V40.4998C29.9825 40.9976 30.2283 41.463 30.6389 41.7419C31.0494 42.0212 31.5713 42.0776 32.0316 41.8926L36.4571 40.1158L40.8826 41.893V41.8926C41.343 42.0776 41.8648 42.0212 42.2754 41.7419C42.6859 41.463 42.9317 40.9976 42.9317 40.4998V32.9999H47.5137C48.4383 32.9999 49.3252 32.6314 49.979 31.9749C50.6329 31.3185 51 30.4282 51 29.5V3.49993C51 2.57176 50.6329 1.68135 49.979 1.025C49.3251 0.368579 48.4383 0 47.5137 0ZM36.4568 31.9995C35.0039 31.9995 33.6104 31.4202 32.5831 30.3885C31.5553 29.3571 30.9783 27.9582 30.9783 26.4996C30.9783 25.0411 31.5553 23.6422 32.5831 22.6108C33.6104 21.579 35.0039 20.9997 36.4568 20.9997C37.9096 20.9997 39.3031 21.579 40.3305 22.6108C41.3582 23.6422 41.9352 25.0411 41.9352 26.4996C41.9338 27.9578 41.3561 29.3556 40.329 30.3871C39.3016 31.4181 37.9093 31.9981 36.4567 31.9996L36.4568 31.9995ZM37.0117 37.1065C36.6553 36.9633 36.2583 36.9633 35.9018 37.1065L32.9704 38.2833V34.2423C35.1859 35.2516 37.7274 35.2516 39.943 34.2423V38.2833L37.0117 37.1065ZM48.0113 29.4995C48.0113 29.632 47.959 29.7592 47.8654 29.8531C47.7719 29.947 47.6452 29.9995 47.5133 29.9995H44.1692C45.356 27.3689 45.1311 24.3132 43.5719 21.8865C42.0131 19.4593 39.3332 17.9933 36.4566 17.9933C33.5801 17.9933 30.9002 19.4593 29.3413 21.8865C27.7821 24.3132 27.5572 27.3689 28.744 29.9995H3.48637C3.21138 29.9995 2.98832 29.7756 2.98832 29.4995V3.49947C2.98832 3.2234 3.21137 2.99947 3.48637 2.99947H47.5138C47.6458 2.99947 47.7724 3.05197 47.866 3.1459C47.9595 3.23982 48.0118 3.36697 48.0118 3.49947L48.0113 29.4995Z" fill="white"/>
<path d="M43.4301 7.0004H7.57083C7.03686 7.0004 6.54382 7.28646 6.27699 7.75038C6.00982 8.2143 6.00982 8.78644 6.27699 9.25034C6.5438 9.71426 7.03687 10.0003 7.57083 10.0003H43.4301C43.9641 10.0003 44.4571 9.71426 44.7239 9.25034C44.9911 8.78642 44.9911 8.21428 44.7239 7.75038C44.4571 7.28646 43.9641 7.0004 43.4301 7.0004Z" fill="white"/>
<path d="M35.4614 12.9998H7.57083C7.03686 12.9998 6.54382 13.2859 6.27699 13.7498C6.00982 14.2138 6.00982 14.7859 6.27699 15.2498C6.5438 15.7137 7.03687 15.9998 7.57083 15.9998H35.4614C35.9953 15.9998 36.4884 15.7137 36.7552 15.2498C37.0224 14.7859 37.0224 14.2137 36.7552 13.7498C36.4884 13.2859 35.9953 12.9998 35.4614 12.9998Z" fill="white"/>
</svg>
