<svg width="51" height="51" viewBox="0 0 51 51" fill="none" xmlns="http://www.w3.org/2000/svg">
<path d="M15.8348 32.5446V25.1265C15.8348 24.3403 15.2022 23.7053 14.4189 23.7053H7.0285C6.24527 23.7053 5.61265 24.3403 5.61265 25.1265V32.5446C5.61265 33.3308 6.24526 33.9658 7.0285 33.9658H14.4189C15.2021 33.9658 15.8348 33.3308 15.8348 32.5446ZM13.0031 31.1235H8.44434V26.5476H13.0031V31.1235Z" fill="white"/>
<path d="M11.7283 40.2051H7.02886C6.24564 40.2051 5.61302 40.8401 5.61302 41.6262C5.61302 42.4124 6.24562 43.0474 7.02886 43.0474H11.7283C12.5115 43.0474 13.1441 42.4124 13.1441 41.6262C13.1441 40.8401 12.5115 40.2051 11.7283 40.2051Z" fill="white"/>
<path d="M21.2376 40.2051H16.5382C15.755 40.2051 15.1224 40.8401 15.1224 41.6262C15.1224 42.4124 15.755 43.0474 16.5382 43.0474H21.2376C22.0208 43.0474 22.6534 42.4124 22.6534 41.6262C22.6534 40.8401 22.0208 40.2051 21.2376 40.2051Z" fill="white"/>
<path d="M24.6409 41.6261C24.6409 42.4122 25.2735 43.0472 26.0567 43.0472H30.7561C31.5393 43.0472 32.1719 42.4122 32.1719 41.6261C32.1719 40.8399 31.5393 40.2049 30.7561 40.2049H26.0567C25.2735 40.2049 24.6409 40.8399 24.6409 41.6261Z" fill="white"/>
<path d="M35.5658 43.047H40.2653C41.0485 43.047 41.6811 42.412 41.6811 41.6259C41.6811 40.8397 41.0485 40.2047 40.2653 40.2047H35.5658C34.7826 40.2047 34.15 40.8397 34.15 41.6259C34.15 42.412 34.7826 43.047 35.5658 43.047Z" fill="white"/>
<path d="M48.1782 12.4779H47.6762V8.85947C47.6762 3.98119 43.7199 0 38.8498 0C33.9797 0 30.0234 3.97114 30.0234 8.85947V12.4779H29.5213C27.9549 12.4779 26.6897 13.7579 26.6897 15.3202V17.2654H4.24753C1.90793 17.2654 0 19.1803 0 21.5288V46.7265C0 49.085 1.90783 51 4.24753 51H43.4187C45.7583 51 47.6662 49.085 47.6662 46.7366V31.4773H48.1683C49.7347 31.4773 50.9999 30.1972 50.9999 28.635V15.3211C51.01 13.7588 49.7347 12.4788 48.1784 12.4788L48.1782 12.4779ZM32.8649 8.85947C32.8649 5.54351 35.5559 2.85234 38.8496 2.85234C42.1532 2.85234 44.8343 5.55347 44.8343 8.85947V12.4779H32.8645L32.8649 8.85947ZM44.8346 46.7362C44.8346 47.5223 44.202 48.1573 43.4188 48.1573H4.24767C3.46445 48.1573 2.83183 47.5224 2.83183 46.7362V21.5385C2.83183 20.7523 3.46443 20.1173 4.24767 20.1173H26.6898V28.6441C26.6898 30.2164 27.9651 31.4864 29.5215 31.4864H44.8348L44.8346 46.7362ZM29.5213 28.6341V15.3202H48.1782V28.6341H29.5213Z" fill="white"/>
<path d="M38.8498 18.3331C38.0666 18.3331 37.4339 18.9681 37.4339 19.7543V24.1991C37.4339 24.9852 38.0665 25.6202 38.8498 25.6202C39.633 25.6202 40.2656 24.9852 40.2656 24.1991V19.7543C40.2656 18.9681 39.633 18.3331 38.8498 18.3331Z" fill="white"/>
</svg>
