<svg width="50" height="51" viewBox="0 0 50 51" fill="none" xmlns="http://www.w3.org/2000/svg">
<path d="M45.89 34.4754C39.9706 29.6747 33.6341 26.4047 32.3805 25.8481C31.7539 25.5001 31.3362 24.8741 31.3362 24.1087V17.6727C31.3362 17.1855 31.6145 16.6987 31.9628 16.4207C32.7983 15.864 33.286 14.9593 33.286 14.0553V10.1581C33.286 6.19209 30.0131 2.92261 26.0441 2.92261H23.9549C19.9854 2.92261 16.7129 6.19258 16.7129 10.1581V14.0553C16.7129 15.0293 17.2006 15.9339 18.0362 16.4207C18.4539 16.6987 18.6628 17.186 18.6628 17.6727V24.1087C18.6628 24.8047 18.245 25.5001 17.6184 25.8481C16.3642 26.4746 10.0277 29.6748 4.10898 34.4754C3.34295 35.1014 2.92522 36.006 2.92522 36.9801V40.7027C2.92522 41.5374 2.22866 42.164 1.46261 42.164C0.696561 42.164 0 41.468 0 40.7027V36.9801C0 35.1014 0.835486 33.3621 2.22861 32.2493C7.72963 27.7272 13.5795 24.5959 15.7381 23.5525V18.438C14.4849 17.3248 13.7882 15.7941 13.7882 14.1246V10.1581C13.7882 4.59201 18.3144 0 23.9554 0H26.0446C31.685 0 36.2118 4.59201 36.2118 10.1581V14.0553C36.2118 15.7252 35.5152 17.3252 34.2619 18.3687V23.4134C36.3512 24.4568 42.2699 27.6574 47.7714 32.1101C49.164 33.2928 50 35.0322 50 36.8409V40.5635C50 41.3983 49.3034 42.0248 48.5374 42.0248C47.7713 42.0248 47.0748 41.3289 47.0748 40.5635V36.8409C47.0743 36.0062 46.656 35.1014 45.89 34.4754ZM31.1271 36.4587V38.6153H32.3803C33.2158 38.6153 33.8429 39.3113 33.8429 40.0766V49.5387C33.8429 50.3734 33.1463 51 32.3803 51H17.6174C16.7819 51 16.1548 50.3041 16.1548 49.5387V40.146C16.1548 39.3112 16.8513 38.6847 17.6174 38.6847H18.8706V36.4585C18.8706 33.0493 21.5864 30.3359 24.9987 30.3359C28.411 30.3364 31.1271 33.1192 31.1271 36.4587ZM28.1325 38.6158V36.4587C28.1325 34.7193 26.7399 33.258 24.9289 33.258C23.1185 33.258 21.7254 34.6494 21.7254 36.4587L21.7259 38.6158H28.1325ZM19.1496 41.6073V48.1473H30.9183V41.6073H19.1496Z" fill="white"/>
</svg>
