<svg width="17" height="17" viewBox="0 0 17 17" fill="none" xmlns="http://www.w3.org/2000/svg">
<path d="M7.06814 0.625L7.06821 0.125H7.06814V0.625ZM0.625 7.06814H0.125H0.625ZM7.06814 13.5113V14.0113V13.5113ZM12.2287 11.5216C12.0334 11.3264 11.7169 11.3264 11.5216 11.5216C11.3263 11.7169 11.3263 12.0335 11.5216 12.2287L12.2287 11.5216ZM16.0214 16.7286C16.2167 16.9238 16.5333 16.9238 16.7285 16.7286C16.9238 16.5333 16.9238 16.2167 16.7285 16.0215L16.0214 16.7286ZM7.06814 0.125C3.23355 0.125 0.125 3.23355 0.125 7.06814H1.125C1.125 3.78584 3.78584 1.125 7.06814 1.125V0.125ZM0.125 7.06814C0.125 10.9027 3.23355 14.0113 7.06814 14.0113V13.0113C3.78584 13.0113 1.125 10.3505 1.125 7.06814H0.125ZM7.06814 14.0113C10.9027 14.0113 14.0113 10.9027 14.0113 7.06814H13.0113C13.0113 10.3505 10.3505 13.0113 7.06814 13.0113V14.0113ZM14.0113 7.06814C14.0113 3.23359 10.9026 0.125486 7.06821 0.125L7.06808 1.125C10.3504 1.12542 13.0113 3.78599 13.0113 7.06814H14.0113ZM11.5216 12.2287L16.0214 16.7286L16.7285 16.0215L12.2287 11.5216L11.5216 12.2287Z" fill="#CCDFFF"/>
</svg>
