<svg width="13" height="12" viewBox="0 0 13 12" fill="none" xmlns="http://www.w3.org/2000/svg">
<path fill-rule="evenodd" clip-rule="evenodd" d="M0.998779 5.99995C0.998779 5.7878 1.0778 5.58433 1.21845 5.43432C1.3591 5.2843 1.54987 5.20002 1.74878 5.20002H10.4383L7.21778 1.76671C7.07695 1.6165 6.99783 1.41278 6.99783 1.20036C6.99783 0.987934 7.07695 0.784211 7.21778 0.634005C7.35861 0.483799 7.54962 0.399414 7.74878 0.399414C7.94794 0.399414 8.13895 0.483799 8.27978 0.634005L12.7798 5.4336C12.8496 5.50791 12.905 5.59618 12.9428 5.69336C12.9807 5.79055 13.0001 5.89473 13.0001 5.99995C13.0001 6.10517 12.9807 6.20936 12.9428 6.30654C12.905 6.40372 12.8496 6.492 12.7798 6.56631L8.27978 11.3659C8.13895 11.5161 7.94794 11.6005 7.74878 11.6005C7.54962 11.6005 7.35861 11.5161 7.21778 11.3659C7.07695 11.2157 6.99783 11.012 6.99783 10.7995C6.99783 10.5871 7.07695 10.3834 7.21778 10.2332L10.4383 6.79989H1.74878C1.54987 6.79989 1.3591 6.71561 1.21845 6.56559C1.0778 6.41557 0.998779 6.21211 0.998779 5.99995Z" fill="#033BD8"/>
</svg>
