<svg width="24" height="24" viewBox="0 0 24 24" fill="none" xmlns="http://www.w3.org/2000/svg">
<g clip-path="url(#clip0_7_15)">
<path d="M20.48 4.816C20.299 4.816 20.119 4.752 19.975 4.62C17.768 2.608 14.936 1.5 12 1.5C9.06403 1.5 6.23203 2.608 4.02503 4.621C3.71803 4.9 3.24403 4.877 2.96503 4.572C2.68603 4.266 2.70803 3.791 3.01403 3.512C5.49903 1.247 8.69003 0 12 0C15.31 0 18.501 1.247 20.986 3.512C21.292 3.791 21.314 4.265 21.035 4.572C20.887 4.734 20.684 4.816 20.48 4.816Z" fill="white"/>
<path d="M21.7501 9.71706C21.5091 9.71706 21.2711 9.60106 21.1271 9.38506C19.0451 6.28506 15.6331 4.43406 12.0001 4.43406C8.36705 4.43406 4.95505 6.28506 2.87305 9.38506C2.64205 9.73006 2.17505 9.82106 1.83205 9.59006C1.48805 9.35906 1.39605 8.89306 1.62705 8.54906C3.98805 5.03406 7.86605 2.93506 12.0001 2.93506C16.1341 2.93506 20.0121 5.03406 22.3731 8.55006C22.6041 8.89406 22.5131 9.36006 22.1681 9.59106C22.0401 9.67606 21.8951 9.71706 21.7501 9.71706Z" fill="white"/>
<path d="M9.63096 24C9.43796 24 9.24496 23.926 9.09796 23.778C8.93396 23.613 5.09097 19.69 5.09097 15.913C5.09097 11.993 8.18997 8.80405 12 8.80405C15.81 8.80405 18.909 11.993 18.909 15.913C18.909 16.327 18.573 16.663 18.159 16.663C17.745 16.663 17.409 16.327 17.409 15.913C17.409 12.82 14.983 10.304 12 10.304C9.01697 10.304 6.59097 12.82 6.59097 15.913C6.59097 19.08 10.128 22.686 10.164 22.722C10.456 23.016 10.454 23.491 10.159 23.783C10.013 23.928 9.82196 24 9.63096 24Z" fill="white"/>
<path d="M14.369 24C12.565 24 8.38302 20.568 7.97802 16.746C7.83502 15.395 8.26502 14.013 9.12702 13.049C9.87702 12.211 10.89 11.746 11.979 11.74H12C13.062 11.74 14.066 12.157 14.83 12.916C15.628 13.709 16.067 14.774 16.067 15.914V16.403C16.067 17.608 17.005 18.588 18.159 18.588C19.313 18.588 20.252 17.608 20.252 16.403V16.232C20.252 11.562 16.869 7.67698 12.55 7.38898C10.299 7.23598 8.13802 8.01398 6.47102 9.57198C4.74102 11.19 3.74902 13.502 3.74902 15.914C3.74902 17.898 4.42102 19.831 5.64102 21.357C5.89902 21.681 5.84702 22.152 5.52302 22.411C5.20002 22.67 4.72802 22.618 4.46902 22.293C3.03802 20.502 2.24902 18.236 2.24902 15.913C2.24902 13.087 3.41502 10.376 5.44602 8.47598C7.41902 6.62998 9.97802 5.71098 12.649 5.89098C17.753 6.23198 21.752 10.774 21.752 16.231V16.402C21.752 18.434 20.14 20.087 18.159 20.087C16.178 20.087 14.567 18.434 14.567 16.402V15.913C14.567 15.175 14.285 14.489 13.773 13.979C13.293 13.501 12.664 13.239 12.001 13.239C11.996 13.239 11.992 13.239 11.987 13.239C11.142 13.243 10.573 13.682 10.245 14.049C9.66002 14.702 9.37002 15.652 9.46902 16.588C9.80002 19.706 13.383 22.501 14.369 22.501C14.783 22.501 15.119 22.837 15.119 23.251C15.119 23.665 14.783 24 14.369 24Z" fill="white"/>
<path d="M17.152 22.5329C14.468 22.5329 11.191 19.2529 11.191 15.4239C11.191 15.0099 11.527 14.6739 11.941 14.6739C12.355 14.6739 12.691 15.0099 12.691 15.4239C12.691 18.3919 15.186 21.0329 17.152 21.0329C17.566 21.0329 17.902 21.3689 17.902 21.7829C17.902 22.1969 17.566 22.5329 17.152 22.5329Z" fill="white"/>
</g>
<defs>
<clipPath id="clip0_7_15">
<rect width="24" height="24" fill="white"/>
</clipPath>
</defs>
</svg>
