<svg width="110" height="20" viewBox="0 0 110 20" fill="none" xmlns="http://www.w3.org/2000/svg">
<path d="M9.30378 19.288C7.55978 19.288 5.98378 18.912 4.57578 18.16C3.18378 17.408 2.08778 16.376 1.28778 15.064C0.503781 13.736 0.111781 12.248 0.111781 10.6C0.111781 8.952 0.503781 7.472 1.28778 6.16C2.08778 4.832 3.18378 3.792 4.57578 3.04C5.98378 2.288 7.55978 1.912 9.30378 1.912C11.0478 1.912 12.6158 2.288 14.0078 3.04C15.3998 3.792 16.4958 4.832 17.2958 6.16C18.0958 7.472 18.4958 8.952 18.4958 10.6C18.4958 12.248 18.0958 13.736 17.2958 15.064C16.4958 16.376 15.3998 17.408 14.0078 18.16C12.6158 18.912 11.0478 19.288 9.30378 19.288ZM9.30378 15.976C10.2958 15.976 11.1918 15.752 11.9918 15.304C12.7918 14.84 13.4158 14.2 13.8638 13.384C14.3278 12.568 14.5598 11.64 14.5598 10.6C14.5598 9.56 14.3278 8.632 13.8638 7.816C13.4158 7 12.7918 6.368 11.9918 5.92C11.1918 5.456 10.2958 5.224 9.30378 5.224C8.31178 5.224 7.41578 5.456 6.61578 5.92C5.81578 6.368 5.18378 7 4.71978 7.816C4.27178 8.632 4.04778 9.56 4.04778 10.6C4.04778 11.64 4.27178 12.568 4.71978 13.384C5.18378 14.2 5.81578 14.84 6.61578 15.304C7.41578 15.752 8.31178 15.976 9.30378 15.976ZM27.5378 12.4L25.2818 14.752V19H21.4178V2.2H25.2818V10.048L32.7218 2.2H37.0418L30.0818 9.688L37.4498 19H32.9138L27.5378 12.4ZM40.3354 19.192C39.6794 19.192 39.1274 18.968 38.6794 18.52C38.2314 18.072 38.0074 17.512 38.0074 16.84C38.0074 16.152 38.2314 15.6 38.6794 15.184C39.1274 14.752 39.6794 14.536 40.3354 14.536C40.9914 14.536 41.5434 14.752 41.9914 15.184C42.4394 15.6 42.6634 16.152 42.6634 16.84C42.6634 17.512 42.4394 18.072 41.9914 18.52C41.5434 18.968 40.9914 19.192 40.3354 19.192ZM51.2766 19.192C49.9006 19.192 48.6606 18.912 47.5566 18.352C46.4686 17.776 45.6126 16.984 44.9886 15.976C44.3806 14.968 44.0766 13.824 44.0766 12.544C44.0766 11.264 44.3806 10.12 44.9886 9.112C45.6126 8.104 46.4686 7.32 47.5566 6.76C48.6606 6.184 49.9006 5.896 51.2766 5.896C52.6366 5.896 53.8206 6.184 54.8286 6.76C55.8526 7.32 56.5966 8.128 57.0606 9.184L54.1566 10.744C53.4846 9.56 52.5166 8.968 51.2526 8.968C50.2766 8.968 49.4686 9.288 48.8286 9.928C48.1886 10.568 47.8686 11.44 47.8686 12.544C47.8686 13.648 48.1886 14.52 48.8286 15.16C49.4686 15.8 50.2766 16.12 51.2526 16.12C52.5326 16.12 53.5006 15.528 54.1566 14.344L57.0606 15.928C56.5966 16.952 55.8526 17.752 54.8286 18.328C53.8206 18.904 52.6366 19.192 51.2766 19.192ZM59.1225 1.192H62.8665V19H59.1225V1.192ZM66.3413 6.088H70.0853V19H66.3413V6.088ZM68.2133 4.288C67.5253 4.288 66.9653 4.088 66.5333 3.688C66.1013 3.288 65.8853 2.792 65.8853 2.2C65.8853 1.608 66.1013 1.112 66.5333 0.711999C66.9653 0.311999 67.5253 0.111999 68.2133 0.111999C68.9013 0.111999 69.4613 0.303999 69.8933 0.688C70.3253 1.072 70.5413 1.552 70.5413 2.128C70.5413 2.752 70.3253 3.272 69.8933 3.688C69.4613 4.088 68.9013 4.288 68.2133 4.288ZM81.408 5.896C83.008 5.896 84.296 6.376 85.272 7.336C86.264 8.296 86.76 9.72 86.76 11.608V19H83.016V12.184C83.016 11.16 82.792 10.4 82.344 9.904C81.896 9.392 81.248 9.136 80.4 9.136C79.456 9.136 78.704 9.432 78.144 10.024C77.584 10.6 77.304 11.464 77.304 12.616V19H73.56V6.088H77.136V7.6C77.632 7.056 78.248 6.64 78.984 6.352C79.72 6.048 80.528 5.896 81.408 5.896ZM90.1538 6.088H93.8978V19H90.1538V6.088ZM92.0258 4.288C91.3378 4.288 90.7778 4.088 90.3458 3.688C89.9138 3.288 89.6978 2.792 89.6978 2.2C89.6978 1.608 89.9138 1.112 90.3458 0.711999C90.7778 0.311999 91.3378 0.111999 92.0258 0.111999C92.7138 0.111999 93.2738 0.303999 93.7058 0.688C94.1378 1.072 94.3538 1.552 94.3538 2.128C94.3538 2.752 94.1378 3.272 93.7058 3.688C93.2738 4.088 92.7138 4.288 92.0258 4.288ZM103.613 19.192C102.237 19.192 100.997 18.912 99.8925 18.352C98.8045 17.776 97.9485 16.984 97.3245 15.976C96.7165 14.968 96.4125 13.824 96.4125 12.544C96.4125 11.264 96.7165 10.12 97.3245 9.112C97.9485 8.104 98.8045 7.32 99.8925 6.76C100.997 6.184 102.237 5.896 103.613 5.896C104.973 5.896 106.157 6.184 107.165 6.76C108.189 7.32 108.933 8.128 109.397 9.184L106.493 10.744C105.821 9.56 104.853 8.968 103.589 8.968C102.613 8.968 101.805 9.288 101.165 9.928C100.525 10.568 100.205 11.44 100.205 12.544C100.205 13.648 100.525 14.52 101.165 15.16C101.805 15.8 102.613 16.12 103.589 16.12C104.869 16.12 105.837 15.528 106.493 14.344L109.397 15.928C108.933 16.952 108.189 17.752 107.165 18.328C106.157 18.904 104.973 19.192 103.613 19.192Z" fill="white"/>
</svg>
