<svg width="21" height="21" viewBox="0 0 21 21" fill="none" xmlns="http://www.w3.org/2000/svg">
<path d="M10.3333 20.5C4.81031 20.5 0.333313 16.023 0.333313 10.5C0.333313 4.977 4.81031 0.5 10.3333 0.5C15.8563 0.5 20.3333 4.977 20.3333 10.5C20.3333 16.023 15.8563 20.5 10.3333 20.5ZM10.3333 18.5C12.455 18.5 14.4899 17.6571 15.9902 16.1569C17.4905 14.6566 18.3333 12.6217 18.3333 10.5C18.3333 8.37827 17.4905 6.34344 15.9902 4.84315C14.4899 3.34285 12.455 2.5 10.3333 2.5C8.21158 2.5 6.17675 3.34285 4.67646 4.84315C3.17617 6.34344 2.33331 8.37827 2.33331 10.5C2.33331 12.6217 3.17617 14.6566 4.67646 16.1569C6.17675 17.6571 8.21158 18.5 10.3333 18.5ZM11.3333 10.5H15.3333V12.5H9.33331V5.5H11.3333V10.5Z" fill="white"/>
</svg>
