<?xml version="1.0" encoding="UTF-8"?>
<svg xmlns="http://www.w3.org/2000/svg" xmlns:xlink="http://www.w3.org/1999/xlink" width="50px" height="57px" viewBox="0 0 50 57" version="1.1">
<g id="surface1">
<path style=" stroke:none;fill-rule:evenodd;fill:rgb(0%,0%,0%);fill-opacity:1;" d="M 50 31.242188 L 50 25.542969 L 43.070312 23.261719 L 41.464844 19.378906 L 44.605469 12.824219 L 40.570312 8.800781 L 34.105469 12.042969 L 30.214844 10.4375 L 27.75 3.597656 L 22.035156 3.597656 L 19.785156 10.507812 L 15.820312 12.113281 L 9.25 8.976562 L 5.214844 13.003906 L 8.464844 19.453125 L 6.855469 23.335938 L 0 25.757812 L 0 31.421875 L 6.929688 33.703125 L 8.535156 37.585938 L 5.394531 44.140625 L 9.429688 48.164062 L 15.894531 44.921875 L 19.785156 46.527344 L 22.25 53.367188 L 27.929688 53.367188 L 30.179688 46.453125 L 34.144531 44.851562 L 40.714844 47.988281 L 44.75 43.960938 L 41.464844 37.511719 L 43.144531 33.628906 L 50 31.171875 Z M 25 39.1875 C 19.070312 39.1875 14.285156 34.414062 14.285156 28.5 C 14.285156 22.585938 19.070312 17.8125 25 17.8125 C 30.929688 17.8125 35.714844 22.585938 35.714844 28.5 C 35.714844 34.414062 30.929688 39.1875 25 39.1875 Z M 25 39.1875 "/>
</g>
</svg>
