<?xml version="1.0" encoding="UTF-8"?>
<svg xmlns="http://www.w3.org/2000/svg" xmlns:xlink="http://www.w3.org/1999/xlink" width="50px" height="50px" viewBox="0 0 50 50" version="1.1">
<g id="surface1">
<path style=" stroke:none;fill-rule:nonzero;fill:rgb(0%,0%,0%);fill-opacity:1;" d="M 10.941406 14.066406 L 7.816406 14.066406 C 6.085938 14.066406 4.6875 15.46875 4.6875 17.191406 L 4.6875 46.890625 C 4.6875 48.617188 6.085938 50.015625 7.816406 50.015625 L 10.941406 50.015625 C 12.667969 50.015625 14.066406 48.617188 14.066406 46.890625 L 14.066406 17.191406 C 14.066406 15.464844 12.667969 14.066406 10.941406 14.066406 Z M 26.570312 0 L 23.445312 0 C 21.71875 0 20.320312 1.398438 20.320312 3.125 L 20.320312 46.890625 C 20.320312 48.617188 21.71875 50.015625 23.445312 50.015625 L 26.570312 50.015625 C 28.296875 50.015625 29.695312 48.617188 29.695312 46.890625 L 29.695312 3.125 C 29.695312 1.398438 28.296875 0 26.570312 0 Z M 42.199219 25.007812 L 39.074219 25.007812 C 37.347656 25.007812 35.949219 26.40625 35.949219 28.132812 L 35.949219 46.890625 C 35.949219 48.617188 37.347656 50.015625 39.074219 50.015625 L 42.199219 50.015625 C 43.925781 50.015625 45.328125 48.617188 45.328125 46.890625 L 45.328125 28.132812 C 45.328125 26.40625 43.925781 25.007812 42.199219 25.007812 Z M 42.199219 25.007812 "/>
</g>
</svg>
