<svg xmlns="http://www.w3.org/2000/svg" width="753.23" height="753.23" style="enable-background:new 0 0 753.23 753.23" xml:space="preserve"><path d="M164.769 211.846h-47.077c-26.01 0-47.077 21.09-47.077 47.077v447.23c0 26.011 21.067 47.077 47.077 47.077h47.077c26.01 0 47.077-21.066 47.077-47.077v-447.23c0-26.01-21.067-47.077-47.077-47.077zM400.153 0h-47.077C327.067 0 306 21.067 306 47.077v659.077c0 26.011 21.067 47.077 47.077 47.077h47.077c26.011 0 47.077-21.066 47.077-47.077V47.077C447.23 21.067 426.164 0 400.153 0zm235.385 376.615h-47.077c-26.01 0-47.076 21.067-47.076 47.077v282.461c0 26.011 21.066 47.077 47.076 47.077h47.077c26.01 0 47.077-21.066 47.077-47.077V423.692c0-26.009-21.067-47.077-47.077-47.077z"/></svg>