<svg enable-background="new 0 0 1366 768" viewBox="0 0 1366 768" xmlns="http://www.w3.org/2000/svg"><g fill="#2a62fb"><path d="m619.23 382.8c.53.53.79 1.18.79 1.97s-.26 1.45-.79 1.97c-.53.53-1.18.79-1.97.79s-1.45-.26-1.97-.79-.79-1.18-.79-1.97.26-1.45.79-1.97c.53-.53 1.18-.81 1.97-.85.78.04 1.44.32 1.97.85m-5.92-1.97c-1.05 1.05-1.58 2.37-1.58 3.95s.53 2.89 1.58 3.95c1.05 1.05 2.37 1.58 3.95 1.58s2.89-.53 3.95-1.58c1.05-1.05 1.58-2.37 1.58-3.95s-.53-2.89-1.58-3.95-2.37-1.6-3.95-1.64c-1.58.04-2.9.59-3.95 1.64m9.9-2.01c1.6 1.6 2.42 3.58 2.47 5.95-.04 2.37-.87 4.35-2.47 5.95s-3.58 2.42-5.95 2.47c-2.37-.04-4.35-.87-5.95-2.47s-2.42-3.58-2.47-5.95c.04-2.37.87-4.35 2.47-5.95s3.58-2.42 5.95-2.47c2.36.05 4.35.87 5.95 2.47m-13.91-2c-2.1 2.1-3.2 4.76-3.29 7.96.09 3.2 1.18 5.85 3.29 7.96 2.1 2.1 4.76 3.2 7.96 3.29 3.2-.09 5.85-1.18 7.96-3.29 2.1-2.1 3.2-4.76 3.29-7.96-.09-3.2-1.18-5.85-3.29-7.96-2.1-2.1-4.76-3.2-7.96-3.29-3.2.09-5.86 1.18-7.96 3.29m17.88-1.97c2.63 2.63 3.99 5.94 4.08 9.93-.09 3.99-1.45 7.3-4.08 9.93s-5.94 3.99-9.93 4.08c-3.99-.09-7.3-1.45-9.93-4.08s-3.99-5.94-4.08-9.93c.09-3.99 1.45-7.3 4.08-9.93s5.94-3.99 9.93-4.08c3.99.09 7.3 1.44 9.93 4.08"/><path d="m608.92 373.54h2.77v11.39h-2.77z"/><path d="m648.52 377.34c.92.69 1.4 1.89 1.4 3.59 0 2.34-.69 3.44-2.43 3.76v.06c2.06.26 2.79 1.46 2.79 3.87 0 1.7-.45 2.9-1.35 3.57s-2.39.99-4.45.99c-2.54 0-4.71-.06-6.51-.22-.22-.02-.32-.11-.32-.3v-15.82c0-.24.06-.28.32-.3 1.74-.15 3.74-.24 6-.24 2.12.01 3.63.36 4.55 1.04zm-7.5 1.92v4.28h2.19c1.27 0 2.15-.13 2.6-.39.45-.28.69-.84.69-1.7 0-1.7-.8-2.19-2.88-2.19zm0 6.71v4.28h3.23c1.91 0 2.62-.49 2.62-2.06 0-1.7-.8-2.21-2.6-2.21h-3.25z"/><path d="m659.16 381.17c.24.06.34.19.34.43v1.76c0 .21-.13.32-.37.32h-2.02c-1.18 0-1.51.21-1.51 1.1v7.96c0 .24-.11.34-.32.34h-2.56c-.21 0-.32-.11-.32-.34v-8.77c0-1.03.34-1.81.8-2.24.8-.67 1.89-.8 3.1-.8 1.23 0 2.17.09 2.86.24z"/><path d="m664.54 377.69c0 1.1-.67 1.74-1.85 1.74-1.2 0-1.89-.64-1.89-1.74s.69-1.72 1.89-1.72c1.18 0 1.85.62 1.85 1.72zm-.6 3.35c.21 0 .32.11.32.32v11.37c0 .24-.11.34-.32.34h-2.54c-.21 0-.32-.11-.32-.34v-11.37c0-.21.11-.32.32-.32z"/><path d="m676.81 381.34c.3.04.45.22.45.54v10.94c0 1.4-.11 2.24-.54 3.03-.56 1.16-2 1.68-4.73 1.68-1.48 0-2.82-.11-3.98-.3-.19-.02-.3-.15-.3-.34v-1.63c0-.22.11-.32.3-.32h3.7c1.87 0 2.34-.41 2.34-1.85v-.13c-.84.15-1.72.24-2.62.24-1.96 0-3.27-.43-3.96-1.29-.67-.86-1.01-2.54-1.01-5.01 0-2.37.37-3.96 1.12-4.75s2.24-1.2 4.49-1.2c1.67-.02 3.26.11 4.74.39zm-2.75 2.35h-2.13c-.99 0-1.61.21-1.89.67-.26.45-.39 1.33-.39 2.69 0 1.4.15 2.32.43 2.75.3.41.99.62 2.06.62.8 0 1.42-.04 1.91-.13v-6.6z"/><path d="m682.68 376.44c.21 0 .32.11.32.34v4.26c.67-.06 1.42-.11 2.28-.11 2.17 0 3.27.17 4.11.95.86.77 1.08 1.98 1.08 4.21v6.64c0 .24-.11.34-.32.34h-2.56c-.19 0-.3-.11-.3-.34v-5.83c0-1.05-.06-1.79-.19-2.21-.26-.88-.67-1.01-2.13-1.01h-1.94v9.05c0 .24-.11.34-.32.34h-2.58c-.19 0-.3-.11-.3-.34v-15.95c0-.24.11-.34.32-.34z"/><path d="m696.55 377.71c.24-.06.34.04.34.32v3.07h1.98c.24 0 .37.11.37.32v1.72c0 .21-.13.32-.37.32h-1.98v5.87c0 .88.3 1.1 1.27 1.1h.88c.24 0 .37.11.37.32v1.83c0 .24-.11.37-.34.41-.64.13-1.25.19-1.83.19-.92 0-1.31 0-2.02-.19-1.01-.28-1.42-.95-1.51-2.58v-6.94h-1.27c-.24 0-.34-.11-.34-.32v-1.72c0-.22.11-.32.34-.32h1.27v-2.39c0-.19.11-.3.3-.34z"/><path d="m709.13 381.21c.24.06.34.17.34.34v1.63c0 .24-.13.34-.37.34h-3.87c-.84 0-1.27.26-1.27.77v.21c0 .41.34.75 1.03.99l2.75.97c1.72.6 2.26 1.61 2.26 3.23v.34c0 2.34-1.59 3.14-4.58 3.14-1.59 0-3.07-.06-4.45-.22-.24 0-.37-.11-.37-.32v-1.74c0-.21.13-.32.37-.32h4.41c1.14 0 1.48-.15 1.48-.73v-.19c0-.43-.26-.69-1.18-1.01l-2.64-.95c-1.46-.49-2.19-1.59-2.19-3.27v-.41c0-2.21 1.63-3.1 4.88-3.1 1.18.02 2.32.11 3.4.3z"/><path d="m720.61 381.21c.24.04.37.19.37.43v1.7c0 .24-.13.34-.37.34h-3.5c-.97 0-1.59.21-1.87.65-.28.43-.41 1.33-.41 2.73 0 1.38.13 2.28.41 2.73.28.43.9.64 1.87.64h3.5c.24 0 .37.11.37.32v1.72c0 .24-.13.37-.37.41-.9.19-2.06.3-3.5.3-2.34 0-3.61-.26-4.45-1.23-.79-1.01-1.01-2.32-1.01-4.9s.21-3.91 1.01-4.88c.84-1.01 2.11-1.25 4.45-1.25 1.41.01 2.57.1 3.5.29z"/><path d="m732.52 382.18c.86.95 1.08 2.32 1.08 4.88 0 2.47-.37 4.11-1.08 4.92-.71.8-2.19 1.2-4.41 1.2-2.21 0-3.7-.41-4.41-1.2-.71-.82-1.07-2.45-1.07-4.92s.37-4.11 1.07-4.9c.71-.82 2.19-1.23 4.41-1.23 2.32 0 3.55.28 4.41 1.25zm-6.28 2.17c-.28.43-.41 1.33-.41 2.71s.13 2.28.41 2.73c.28.43.9.64 1.87.64s1.59-.21 1.87-.64c.28-.45.43-1.35.43-2.73s-.15-2.28-.43-2.71c-.28-.45-.9-.67-1.87-.67-.97.01-1.59.22-1.87.67z"/><path d="m745.46 382.16c.75.8 1.12 2.39 1.12 4.73 0 2.47-.34 4.15-1.03 5.01-.67.86-1.98 1.29-3.93 1.29-1.01 0-1.89-.04-2.64-.13v4.02c0 .21-.11.32-.32.32h-2.54c-.21 0-.32-.11-.32-.32v-15.2c0-.28.15-.47.45-.54 1.72-.28 3.29-.41 4.73-.41 2.24 0 3.73.41 4.48 1.23zm-6.49 1.53v6.6c.62.09 1.27.13 1.94.13 1.07 0 1.76-.21 2.04-.62.3-.41.45-1.33.45-2.73 0-1.35-.13-2.26-.39-2.71s-.88-.67-1.89-.67z"/><path d="m758.02 382.14c.71.8 1.05 2.39 1.07 4.77v.67c0 .43-.15.58-.69.58h-6.75c.02.95.17 1.57.49 1.85s.97.43 1.94.43h3.81c.21 0 .32.11.32.32v1.79c0 .19-.11.32-.3.34-.97.19-2.32.3-4.11.3-2.17 0-3.61-.41-4.32-1.23s-1.07-2.45-1.07-4.9c0-2.47.37-4.11 1.07-4.9.71-.82 2.15-1.23 4.32-1.23 2.13 0 3.53.41 4.22 1.21zm-6.39 3.93h4.26c-.02-1.87-.52-2.39-2.08-2.39-1.64.01-2.16.52-2.18 2.39z"/><path d="m760.65 382.32c-.45 0-.77-.11-.98-.32s-.31-.54-.31-.99.11-.78.31-.99c.21-.21.53-.32.98-.32s.77.11.98.32.31.54.31.99-.11.78-.31.99-.53.32-.98.32zm-1.1-1.31c0 .38.09.66.27.84s.46.27.83.27.65-.09.83-.27.27-.46.27-.84c0-.76-.35-1.11-1.1-1.11-.76 0-1.1.35-1.1 1.11zm1.62-.22c0 .25-.07.36-.26.4l.29.47c.01.01 0 .03-.01.03h-.24c-.02 0-.04-.01-.05-.03l-.29-.45h-.14v.45c0 .02-.01.02-.02.02h-.24c-.02 0-.02-.01-.02-.02v-1.27c0-.01.01-.02.02-.02.13-.01.29-.02.47-.02.37 0 .49.1.49.44zm-.7-.2v.4h.18c.19 0 .24-.04.24-.2s-.05-.21-.24-.21h-.18z"/></g></svg>