<?xml version="1.0" encoding="UTF-8"?>
<svg xmlns="http://www.w3.org/2000/svg" xmlns:xlink="http://www.w3.org/1999/xlink" width="30px" height="30px" viewBox="0 0 30 30" version="1.1">
<g id="surface1">
<path style=" stroke:none;fill-rule:evenodd;fill:#2a62fb;fill-opacity:1;" d="M 23.570312 9.945312 C 23.570312 4.925781 19.710938 0.714844 14.652344 0.714844 C 9.589844 0.714844 5.714844 4.925781 5.714844 9.949219 C 5.714844 11.605469 5.945312 12.859375 6.730469 14.285156 L 6.714844 14.285156 L 14.355469 29.015625 C 14.640625 29.410156 14.945312 28.992188 14.945312 28.992188 C 14.6875 29.378906 22.582031 14.285156 22.582031 14.285156 L 22.578125 14.285156 C 23.351562 12.859375 23.570312 11.605469 23.570312 9.945312 Z M 10.539062 9.664062 C 10.539062 7.292969 12.378906 5.375 14.652344 5.375 C 16.921875 5.375 18.765625 7.292969 18.765625 9.664062 C 18.765625 12.03125 16.921875 13.953125 14.652344 13.953125 C 12.378906 13.953125 10.539062 12.03125 10.539062 9.664062 Z M 10.539062 9.664062 "/>
</g>
</svg>
