<svg width="20" height="12" viewBox="0 0 20 12" fill="none" xmlns="http://www.w3.org/2000/svg">
<path fill-rule="evenodd" clip-rule="evenodd" d="M0.468876 0.968875C0.538544 0.899031 0.621308 0.843616 0.712426 0.805806C0.803543 0.767997 0.901225 0.748535 0.999876 0.748535C1.09853 0.748535 1.19621 0.767997 1.28733 0.805806C1.37844 0.843616 1.46121 0.899031 1.53088 0.968875L9.99988 9.43938L18.4689 0.968875C18.5386 0.899144 18.6214 0.843829 18.7125 0.80609C18.8036 0.768352 18.9013 0.748928 18.9999 0.748928C19.0985 0.748928 19.1961 0.768352 19.2873 0.80609C19.3784 0.843829 19.4611 0.899144 19.5309 0.968875C19.6006 1.03861 19.6559 1.12139 19.6937 1.2125C19.7314 1.30361 19.7508 1.40126 19.7508 1.49988C19.7508 1.59849 19.7314 1.69614 19.6937 1.78725C19.6559 1.87836 19.6006 1.96114 19.5309 2.03088L10.5309 11.0309C10.4612 11.1007 10.3784 11.1561 10.2873 11.1939C10.1962 11.2318 10.0985 11.2512 9.99988 11.2512C9.90122 11.2512 9.80354 11.2318 9.71243 11.1939C9.62131 11.1561 9.53854 11.1007 9.46888 11.0309L0.468876 2.03088C0.399031 1.96121 0.343617 1.87844 0.305807 1.78733C0.267997 1.69621 0.248535 1.59853 0.248535 1.49988C0.248535 1.40122 0.267997 1.30354 0.305807 1.21243C0.343617 1.12131 0.399031 1.03854 0.468876 0.968875Z" fill="#3CB9D2"/>
</svg>
