<svg width="30" height="30" viewBox="0 0 30 30" fill="none" xmlns="http://www.w3.org/2000/svg">
<path d="M1.58397 1.58367C1.76976 1.39741 1.99046 1.24964 2.23344 1.14882C2.47642 1.04799 2.7369 0.996094 2.99997 0.996094C3.26304 0.996094 3.52353 1.04799 3.76651 1.14882C4.00949 1.24964 4.23019 1.39741 4.41597 1.58367L15 12.1717L25.584 1.58367C25.7699 1.39772 25.9907 1.25021 26.2336 1.14957C26.4766 1.04894 26.737 0.997141 27 0.997141C27.2629 0.997141 27.5233 1.04894 27.7663 1.14957C28.0093 1.25021 28.23 1.39772 28.416 1.58367C28.6019 1.76962 28.7494 1.99038 28.8501 2.23333C28.9507 2.47629 29.0025 2.73669 29.0025 2.99967C29.0025 3.26264 28.9507 3.52304 28.8501 3.766C28.7494 4.00896 28.6019 4.22972 28.416 4.41567L17.828 14.9997L28.416 25.5837C28.6019 25.7696 28.7494 25.9904 28.8501 26.2333C28.9507 26.4763 29.0025 26.7367 29.0025 26.9997C29.0025 27.2626 28.9507 27.523 28.8501 27.766C28.7494 28.009 28.6019 28.2297 28.416 28.4157C28.23 28.6016 28.0093 28.7491 27.7663 28.8498C27.5233 28.9504 27.2629 29.0022 27 29.0022C26.737 29.0022 26.4766 28.9504 26.2336 28.8498C25.9907 28.7491 25.7699 28.6016 25.584 28.4157L15 17.8277L4.41597 28.4157C4.23002 28.6016 4.00927 28.7491 3.76631 28.8498C3.52335 28.9504 3.26295 29.0022 2.99997 29.0022C2.737 29.0022 2.4766 28.9504 2.23364 28.8498C1.99068 28.7491 1.76992 28.6016 1.58397 28.4157C1.39802 28.2297 1.25052 28.009 1.14988 27.766C1.04924 27.523 0.997446 27.2626 0.997446 26.9997C0.997446 26.7367 1.04924 26.4763 1.14988 26.2333C1.25052 25.9904 1.39802 25.7696 1.58397 25.5837L12.172 14.9997L1.58397 4.41567C1.39772 4.22989 1.24995 4.00918 1.14912 3.7662C1.0483 3.52322 0.996399 3.26274 0.996399 2.99967C0.996399 2.7366 1.0483 2.47611 1.14912 2.23313C1.24995 1.99015 1.39772 1.76945 1.58397 1.58367Z" fill="white"/>
</svg>
