<svg width="142" height="86" viewBox="0 0 142 86" fill="none" xmlns="http://www.w3.org/2000/svg">
<g clip-path="url(#clip0)">
<path d="M98.2673 31.8171L49.1506 0L0.0339355 31.8171H98.2673Z" fill="#3CB9D2"/>
<path d="M0.0466309 34.3555H12.5016V47.4732H24.1942V34.3555H36.6492V71.5509H24.1942V58.197H12.5016V71.5509H0.0466309V34.3555Z" fill="#3CB9D2"/>
<path d="M38.2588 53.0481V52.9366C38.2588 41.839 47.0331 33.5552 58.798 33.5552C65.18 33.5552 70.7009 35.6802 74.743 39.1827L67.7696 47.578C65.4751 45.6263 62.5344 44.5974 59.521 44.6921C54.6836 44.6921 51.5222 48.0568 51.5222 53.1006V53.2055C51.5222 58.4526 55.4197 61.7321 60.0665 61.7321C61.5546 61.7915 63.0297 61.4349 64.3255 60.7023V58.1968H57.937V49.5391H75.9787V66.7431C71.9366 70.0225 65.9424 72.3247 59.1858 72.3247C47.5787 72.3247 38.2719 64.5721 38.2719 53.0481" fill="#3CB9D2"/>
<path d="M128.277 34.3555L121.04 55.2521L113.804 34.3555H76.0312V44.7775H85.9295V71.5443H98.3779V44.7775H104.109L114.974 71.5443H126.89L142 34.3555H128.277Z" fill="#3CB9D2"/>
<path d="M0.0268555 74.2925H2.55729V78.8312H7.2238V74.2925H9.75423V85.7705H7.19751V81.1793H2.531V85.7705H0.0268555V74.2925Z" fill="#3CB9D2"/>
<path d="M17.6801 85.9673C16.8401 85.9751 16.0069 85.8169 15.2285 85.5016C14.5112 85.2038 13.8576 84.7719 13.3027 84.2292C12.7581 83.6977 12.3267 83.0619 12.0342 82.3599C11.729 81.6309 11.5748 80.8478 11.5807 80.0578V80.025C11.577 79.2345 11.7335 78.4514 12.0408 77.7228C12.65 76.2841 13.8057 75.145 15.2548 74.5549C16.0354 74.2396 16.8708 74.0814 17.7129 74.0892C18.5508 74.0807 19.382 74.239 20.1579 74.5549C20.8775 74.849 21.5336 75.2788 22.0902 75.8207C22.634 76.3453 23.0656 76.9746 23.3587 77.6703C23.6586 78.4007 23.8105 79.1832 23.8057 79.9725C23.8125 80.7633 23.6559 81.547 23.3456 82.2747C23.0553 83.0029 22.6243 83.667 22.0771 84.2292C21.5095 84.7796 20.8397 85.214 20.1053 85.5082C19.3343 85.8163 18.5106 85.9722 17.6801 85.9673ZM17.6801 83.6389C18.1593 83.6444 18.6342 83.5483 19.0734 83.3569C19.4897 83.1816 19.8638 82.92 20.1711 82.5895C20.7945 81.8962 21.1366 80.9959 21.1306 80.0643V80.0315C21.1332 79.554 21.0463 79.0802 20.8743 78.6345C20.7111 78.2083 20.4655 77.8182 20.1513 77.4867C19.8277 77.1498 19.4389 76.8819 19.0084 76.6992C18.578 76.5166 18.1149 76.423 17.6472 76.4242C17.1642 76.4171 16.6851 76.5109 16.2407 76.6996C15.83 76.881 15.4609 77.1444 15.1562 77.4736C14.8621 77.808 14.6346 78.1954 14.4858 78.6148C14.3126 79.0556 14.2255 79.5253 14.2295 79.9987C14.2262 80.4742 14.3131 80.946 14.4858 81.3892C14.644 81.8179 14.8903 82.2089 15.2088 82.537C15.5197 82.8667 15.8927 83.1319 16.3064 83.3175C16.7464 83.5249 17.2263 83.6345 17.7129 83.6389H17.6801Z" fill="#3CB9D2"/>
<path d="M25.6594 74.2925H28.387L31.4104 79.146L34.4338 74.2925H37.1614V85.7705H34.6638V78.2737L31.4236 83.1797H31.3578L28.1636 78.3262V85.7705H25.6594V74.2925Z" fill="#3CB9D2"/>
<path d="M39.5339 74.2925H48.19V76.5356H42.0315V78.864H47.4539V81.1137H42.0315V83.5208H48.2754V85.7705H39.5339V74.2925Z" fill="#3CB9D2"/>
<path d="M62.4064 84.6554C61.9386 85.0324 61.4211 85.3436 60.8685 85.5802C60.2879 85.8221 59.6638 85.9427 59.0347 85.9344C58.5175 85.938 58.003 85.8605 57.5099 85.7048C57.0629 85.5689 56.6474 85.346 56.2874 85.0489C55.9309 84.7555 55.6458 84.3853 55.4534 83.9661C55.261 83.5469 55.1664 83.0897 55.1766 82.6287V82.5959C55.1571 81.9251 55.3579 81.2664 55.7484 80.7201C56.1834 80.1598 56.7562 79.7215 57.4113 79.4477C57.1467 79.0995 56.9383 78.7122 56.7934 78.2999C56.668 77.9301 56.6036 77.5424 56.6028 77.152C56.6002 76.7596 56.6795 76.3708 56.8356 76.0106C56.9918 75.6504 57.2214 75.3266 57.5099 75.0598C57.8272 74.7722 58.1978 74.5494 58.6009 74.4039C59.0755 74.226 59.5794 74.1392 60.0863 74.1481C60.5344 74.1427 60.9797 74.2182 61.4008 74.3711C61.7772 74.5058 62.1233 74.7131 62.4196 74.9811C62.704 75.2416 62.9301 75.5591 63.083 75.9129C63.2359 76.2667 63.3122 76.6487 63.3069 77.034C63.3111 77.3894 63.251 77.7427 63.1294 78.0769C63.02 78.3814 62.8526 78.662 62.6365 78.9033C62.4176 79.1597 62.1604 79.3809 61.8741 79.5592C61.5634 79.7568 61.233 79.9217 60.8882 80.0511L62.4656 81.5399C62.6496 81.2448 62.8337 80.93 63.0243 80.5955L63.5829 79.5723L65.4364 80.5889C65.2195 80.9955 64.9829 81.4022 64.7331 81.8154C64.4843 82.229 64.2144 82.6296 63.9247 83.0157L65.6204 84.7013L63.7604 86.0131L62.4064 84.6554ZM59.3305 83.8683C59.6215 83.8668 59.9094 83.8089 60.1783 83.6978C60.4715 83.575 60.7458 83.4116 60.9933 83.2124L58.7915 80.9824C58.4632 81.1228 58.1792 81.3495 57.9699 81.6383C57.8104 81.8824 57.7237 82.1668 57.7202 82.4582V82.491C57.7143 82.6779 57.7522 82.8635 57.8309 83.0332C57.9097 83.2029 58.027 83.3519 58.1737 83.4682C58.5004 83.7328 58.9098 83.8744 59.3305 83.8683ZM59.5934 78.6868C60.0126 78.5421 60.4007 78.3196 60.737 78.0309C60.8626 77.9178 60.9622 77.779 61.0291 77.6239C61.0961 77.4688 61.1287 77.3012 61.1248 77.1324C61.131 76.9895 61.1073 76.8469 61.0553 76.7136C61.0032 76.5804 60.9239 76.4594 60.8224 76.3584C60.7178 76.2609 60.5948 76.1851 60.4605 76.1356C60.3262 76.086 60.1833 76.0637 60.0403 76.0698C59.8893 76.0622 59.7385 76.0869 59.5979 76.1424C59.4573 76.1978 59.3303 76.2827 59.2253 76.3912C59.1216 76.5041 59.0415 76.6365 58.9896 76.7807C58.9377 76.9248 58.915 77.0778 58.923 77.2308V77.2635C58.9206 77.5065 58.9746 77.7467 59.0807 77.9653C59.2202 78.2266 59.3925 78.469 59.5934 78.6868Z" fill="#3CB9D2"/>
<path d="M77.6873 85.9671C76.8469 85.9767 76.0124 85.8253 75.2292 85.5211C74.5171 85.2455 73.8686 84.8282 73.3231 84.2946C72.7857 83.7625 72.363 83.1264 72.0809 82.4254C71.7808 81.6746 71.6312 80.8724 71.6406 80.0642V80.0314C71.6299 78.8643 71.9681 77.7205 72.612 76.7462C73.2559 75.7718 74.1762 75.0111 75.2555 74.5613C76.0198 74.2454 76.8403 74.087 77.6676 74.0956C78.1385 74.0911 78.609 74.1262 79.0741 74.2005C79.4745 74.2661 79.8682 74.367 80.2506 74.5022C80.6059 74.6315 80.9473 74.7963 81.2693 74.9942C81.5911 75.191 81.8985 75.4102 82.1895 75.65L80.5924 77.5652C80.3829 77.3888 80.1635 77.2245 79.9351 77.0733C79.7264 76.9351 79.5066 76.8145 79.2779 76.7126C79.0317 76.6118 78.7764 76.535 78.5154 76.483C78.2185 76.4285 77.917 76.4021 77.615 76.4043C77.1605 76.3994 76.7109 76.4981 76.3005 76.6929C75.9056 76.8819 75.5491 77.1421 75.2489 77.4603C74.9454 77.7913 74.7069 78.1762 74.5456 78.595C74.373 79.0382 74.286 79.51 74.2893 79.9855C74.2844 80.4824 74.3713 80.976 74.5456 81.4415C74.7071 81.8706 74.9529 82.2631 75.2686 82.5959C75.5765 82.9257 75.9505 83.1871 76.3662 83.3633C76.8115 83.5484 77.2904 83.64 77.7727 83.6322C78.6173 83.6687 79.4519 83.4393 80.1586 82.9763V81.3431H77.5821V79.159H82.5773V84.1438C81.9419 84.6813 81.2311 85.1233 80.4675 85.4556C79.5856 85.8143 78.6394 85.9884 77.6873 85.9671Z" fill="#3CB9D2"/>
<path d="M88.5784 74.207H90.9116L95.841 85.7703H93.212L92.1604 83.1927H87.2967L86.2451 85.7703H83.6621L88.5784 74.207ZM91.2403 80.9627L89.7154 77.2438L88.184 80.9496L91.2403 80.9627Z" fill="#3CB9D2"/>
<path d="M97.2212 74.2924H102.479C103.087 74.2511 103.698 74.3327 104.274 74.5322C104.85 74.7316 105.379 75.0449 105.831 75.4533C106.165 75.8012 106.425 76.2131 106.594 76.6641C106.764 77.1151 106.839 77.5957 106.817 78.0769C106.86 78.8877 106.629 79.6894 106.16 80.3528C105.704 80.9508 105.086 81.406 104.379 81.6646L107.192 85.7639H104.234L101.769 82.0909H99.7976V85.7639H97.2672L97.2212 74.2924ZM102.315 79.8674C102.833 79.9007 103.346 79.7419 103.754 79.4214C103.92 79.2739 104.051 79.0914 104.137 78.8872C104.224 78.6831 104.263 78.4623 104.254 78.2408V78.2081C104.269 77.9767 104.23 77.745 104.138 77.5318C104.047 77.3186 103.906 77.1301 103.728 76.9815C103.303 76.6827 102.788 76.537 102.269 76.5683H99.7516V79.8478L102.315 79.8674Z" fill="#3CB9D2"/>
<path d="M108.71 74.2925H113.192C114.036 74.2826 114.874 74.4294 115.664 74.7253C116.384 74.9946 117.043 75.4049 117.603 75.9322C118.146 76.4405 118.576 77.0573 118.865 77.7424C119.163 78.457 119.313 79.2246 119.305 79.9987C119.312 80.7748 119.162 81.5444 118.865 82.2615C118.578 82.9497 118.148 83.569 117.603 84.0783C117.044 84.6075 116.384 85.02 115.664 85.2917C114.876 85.5953 114.037 85.7467 113.192 85.7377H108.71V74.2925ZM113.192 83.4749C113.674 83.4808 114.153 83.3986 114.606 83.2322C115.017 83.0797 115.39 82.8377 115.697 82.5238C116.004 82.2146 116.245 81.8465 116.406 81.4416C116.583 80.9995 116.67 80.5269 116.663 80.0511V80.0184C116.668 79.5406 116.581 79.0663 116.406 78.6213C116.246 78.2177 116.007 77.8498 115.703 77.5391C115.395 77.2253 115.023 76.9815 114.612 76.8242C114.162 76.6496 113.682 76.5627 113.199 76.5684H111.227V83.488L113.192 83.4749Z" fill="#3CB9D2"/>
<path d="M121.165 74.2925H129.821V76.5356H123.663V78.864H129.085V81.1137H123.663V83.5208H129.907V85.7705H121.165V74.2925Z" fill="#3CB9D2"/>
<path d="M131.78 74.2925H134.106L139.496 81.3564V74.2925H141.993V85.7705H139.838L134.271 78.4705V85.7705H131.773L131.78 74.2925Z" fill="#3CB9D2"/>
</g>
<defs>
<clipPath id="clip0">
<rect width="142" height="86" fill="white"/>
</clipPath>
</defs>
</svg>
