<svg width="148" height="90" viewBox="0 0 148 90" fill="none" xmlns="http://www.w3.org/2000/svg">
<path d="M102.377 33.2136L51.2022 0L0.034668 33.2136H102.377Z" fill="white"/>
<path d="M0.0488281 35.866H13.0252V49.5594H25.2079V35.866H38.1843V74.6976H25.2079V60.7536H13.0252V74.6976H0.0488281V35.866Z" fill="white"/>
<path d="M39.8549 55.3722V55.2608C39.8549 43.6768 49.0024 35.0305 61.2547 35.0305C67.91 35.0305 73.6533 37.2443 77.865 40.9061L70.6041 49.6637C68.2133 47.6287 65.1517 46.5545 62.0135 46.6494C56.9664 46.6494 53.6596 50.165 53.6596 55.4279V55.5393C53.6596 61.032 57.7113 64.4362 62.5426 64.4362C64.0916 64.4972 65.6271 64.126 66.9771 63.3641V60.7535H60.3288V51.7035H79.125V69.6643C74.9063 73.1033 68.6827 75.4842 61.6237 75.4842C49.5384 75.4842 39.834 67.3948 39.834 55.3583" fill="white"/>
<path d="M133.634 35.866L126.095 57.6765L118.563 35.866H79.209V46.7469H89.526V74.6906H102.488V46.7469H108.461L119.781 74.6906H132.193L147.934 35.866H133.634Z" fill="white"/>
<path d="M0 77.5518H2.63843V82.2995H7.51153V77.5518H10.15V89.5396H7.51153V84.7291H2.63843V89.5396H0V77.5518Z" fill="white"/>
<path d="M18.4484 89.7693C16.7479 89.7942 15.1064 89.1462 13.8816 87.9663C13.3161 87.4092 12.8686 86.7439 12.5659 86.0101C12.2505 85.249 12.0918 84.4321 12.0994 83.6083V83.5735C12.0909 82.749 12.2521 81.9315 12.5728 81.1718C13.2068 79.6694 14.4112 78.4801 15.9213 77.865C16.7341 77.5329 17.6053 77.3672 18.4832 77.3777C19.3567 77.3664 20.2234 77.5322 21.0311 77.865C21.7791 78.1721 22.4619 78.6186 23.043 79.1808C23.6085 79.7379 24.056 80.4032 24.3588 81.137C24.6763 81.8976 24.8373 82.7145 24.8321 83.5387V83.5735C24.8378 84.4008 24.6744 85.2204 24.3518 85.9822C24.0407 86.7153 23.5917 87.3818 23.0291 87.9454C22.4493 88.521 21.7606 88.9754 21.0033 89.282C20.1929 89.6141 19.3241 89.7799 18.4484 89.7693ZM18.4832 87.3397C18.9832 87.3444 19.4788 87.2448 19.9382 87.0474C20.3686 86.8635 20.7553 86.5906 21.0729 86.2468C21.3919 85.9002 21.6423 85.4962 21.8108 85.0563C21.9881 84.5943 22.0778 84.1032 22.0754 83.6083V83.5735C22.077 83.0764 21.9874 82.5833 21.8108 82.1186C21.6427 81.6732 21.387 81.2661 21.059 80.9212C20.7298 80.5779 20.3374 80.3013 19.9034 80.1067C19.4445 79.9068 18.9489 79.8049 18.4484 79.8073C17.9459 79.8004 17.4476 79.9001 16.9865 80.0997C16.556 80.2836 16.1693 80.5564 15.8517 80.9003C15.2038 81.6262 14.8468 82.5658 14.8493 83.5387V83.5735C14.8459 84.0714 14.938 84.5653 15.1208 85.0285C15.2868 85.4749 15.5427 85.8824 15.8726 86.2259C16.1979 86.5707 16.5883 86.8475 17.0213 87.0404C17.4726 87.2303 17.9589 87.3228 18.4484 87.3119L18.4832 87.3397Z" fill="white"/>
<path d="M26.7393 77.5518H29.5865L32.7332 82.6198L35.8868 77.5518H38.7271V89.5396H36.1234V81.7148L32.754 86.8315H32.6844L29.3498 81.7635V89.5396H26.7462L26.7393 77.5518Z" fill="white"/>
<path d="M41.1846 77.5518H50.2346V79.8978H43.7882V82.3274H49.434V84.6734H43.7882V87.1935H50.2903V89.5396H41.1846V77.5518Z" fill="white"/>
<path d="M65.014 88.377C64.5297 88.775 63.9904 89.1009 63.4129 89.3447C62.8094 89.5982 62.1599 89.7238 61.5054 89.7136C60.9648 89.7192 60.4268 89.6393 59.9112 89.4769C59.4454 89.3297 59.0127 89.0932 58.6372 88.7808C58.2661 88.4758 57.9693 88.0905 57.7691 87.6539C57.5688 87.2173 57.4706 86.7409 57.4816 86.2607C57.463 85.5587 57.6731 84.8696 58.0803 84.2975C58.5312 83.7142 59.1262 83.2584 59.8068 82.9748C59.5362 82.6065 59.3204 82.2008 59.1663 81.7705C59.0352 81.385 58.9693 80.9803 58.9714 80.5731C58.9691 80.1689 59.0496 79.7685 59.2081 79.3966C59.3693 79.0185 59.6063 78.6773 59.9042 78.3941C60.235 78.0889 60.6231 77.8523 61.0459 77.698C61.5402 77.5148 62.0643 77.4251 62.5914 77.4334C63.0656 77.4254 63.5372 77.5033 63.9837 77.6632C64.3764 77.8066 64.738 78.024 65.0488 78.3036C65.3427 78.5742 65.5794 78.9008 65.745 79.2643C65.9083 79.6373 65.9913 80.0406 65.9886 80.4478C65.992 80.8176 65.9308 81.1851 65.8076 81.5338C65.6928 81.8519 65.5179 82.1449 65.2925 82.397C65.0622 82.6654 64.795 82.8998 64.4989 83.0932C64.1714 83.2952 63.8266 83.4676 63.4686 83.6083L65.0628 85.1956C65.2577 84.8892 65.4526 84.5621 65.6475 84.214C65.8355 83.8659 66.0304 83.5178 66.2253 83.1419L68.1606 84.207C67.9309 84.6247 67.6873 85.0563 67.4227 85.488C67.1582 85.9196 66.8797 86.3373 66.5873 86.741L68.3486 88.5023L66.3994 89.7693L65.014 88.377ZM61.8117 87.5555C62.1149 87.5557 62.4153 87.4966 62.6958 87.3815C62.9995 87.2492 63.285 87.0784 63.5451 86.8733L61.2478 84.5481C60.9064 84.7012 60.6111 84.9413 60.3915 85.2443C60.2239 85.4985 60.1344 85.7961 60.134 86.1006V86.1354C60.128 86.33 60.1677 86.5233 60.2499 86.6998C60.3321 86.8763 60.4545 87.0311 60.6073 87.1518C60.949 87.4227 61.3759 87.5634 61.8117 87.5486V87.5555ZM62.0902 82.1464C62.5236 82.0077 62.9257 81.7854 63.2736 81.492C63.4045 81.3751 63.5084 81.2311 63.5781 81.07C63.6478 80.9089 63.6817 80.7346 63.6774 80.5592C63.6848 80.4091 63.6607 80.2591 63.6068 80.1188C63.5528 79.9786 63.4702 79.8511 63.3641 79.7447C63.1426 79.5416 62.8499 79.434 62.5496 79.4453C62.3925 79.4383 62.2357 79.4645 62.0894 79.522C61.9431 79.5796 61.8105 79.6673 61.7003 79.7795C61.4841 80.0217 61.3716 80.3392 61.387 80.6636C61.3873 80.9047 61.442 81.1427 61.5472 81.3597C61.6938 81.6335 61.8764 81.8863 62.0902 82.1116V82.1464Z" fill="white"/>
<path d="M80.9349 89.7695C80.0594 89.7808 79.1899 89.6248 78.373 89.31C77.63 89.022 76.9545 88.5835 76.389 88.0222C75.8269 87.4692 75.3859 86.8054 75.0941 86.0729C74.7817 85.2893 74.6256 84.4521 74.6346 83.6085V83.5737C74.6271 82.7499 74.7857 81.933 75.1011 81.172C75.4054 80.4349 75.8525 79.7653 76.4168 79.2019C76.9844 78.6308 77.6584 78.1767 78.4008 77.8652C79.1966 77.5331 80.0518 77.3673 80.914 77.3779C81.4036 77.3731 81.8927 77.4104 82.3759 77.4893C82.7924 77.559 83.2023 77.6638 83.6011 77.8026C83.9716 77.9403 84.3283 78.1128 84.6663 78.3177C85.0005 78.5265 85.3193 78.7592 85.62 79.0139L83.9631 81.0188C83.7419 80.8329 83.5094 80.6609 83.267 80.5037C83.0459 80.359 82.8131 80.2332 82.5708 80.1277C82.3145 80.0217 82.0488 79.9402 81.7772 79.8841C81.4673 79.8262 81.1526 79.7982 80.8374 79.8005C80.3729 79.7995 79.9139 79.9017 79.4938 80.0999C79.0826 80.2991 78.712 80.5729 78.4008 80.9074C78.0796 81.2497 77.8289 81.6518 77.6629 82.0909C77.4824 82.5521 77.3926 83.0437 77.3984 83.5389C77.3902 84.0569 77.48 84.5718 77.6629 85.0565C77.8253 85.504 78.0777 85.9134 78.4046 86.2595C78.7315 86.6055 79.1259 86.8809 79.5634 87.0684C80.0267 87.26 80.5242 87.3547 81.0254 87.3469C81.9069 87.3864 82.7779 87.1424 83.5106 86.6507V84.8964H80.8513V82.62H86.0586V87.8203C85.3963 88.3752 84.6548 88.8281 83.8587 89.1639C82.9376 89.5693 81.9412 89.7757 80.9349 89.7695Z" fill="white"/>
<path d="M92.2822 77.4683H94.7118L99.8494 89.5396H97.0648L95.9718 86.8524H90.9038L89.8039 89.5396H87.1167L92.2822 77.4683ZM95.0668 84.5203L93.4796 80.6358L91.8854 84.5203H95.0668Z" fill="white"/>
<path d="M101.291 77.5517H106.769C107.401 77.5128 108.035 77.6005 108.633 77.8097C109.23 78.0189 109.78 78.3454 110.25 78.77C110.597 79.1331 110.866 79.5628 111.042 80.033C111.218 80.5033 111.297 81.0044 111.273 81.5059V81.5407C111.316 82.3879 111.07 83.2245 110.577 83.9146C110.099 84.5285 109.457 84.9944 108.725 85.2582L111.649 89.5395H108.565L105.997 85.7037H103.908V89.5395H101.291V77.5517ZM106.602 83.3716C107.141 83.4072 107.673 83.2437 108.099 82.9121C108.272 82.7584 108.409 82.568 108.499 82.3549C108.589 82.1418 108.631 81.9112 108.621 81.6799C108.639 81.438 108.598 81.1952 108.503 80.9723C108.407 80.7493 108.259 80.5527 108.071 80.399C107.626 80.0873 107.089 79.9352 106.547 79.9674H103.929V83.4064L106.602 83.3716Z" fill="white"/>
<path d="M113.25 77.552H117.922C118.804 77.5419 119.68 77.6978 120.504 78.0114C121.254 78.2912 121.94 78.7172 122.523 79.2645C123.087 79.7977 123.532 80.4426 123.832 81.1581C124.132 81.9032 124.279 82.7011 124.264 83.5041V83.5389C124.271 84.3485 124.114 85.1511 123.804 85.8989C123.505 86.6168 123.06 87.2642 122.495 87.7994C121.911 88.3488 121.225 88.7792 120.477 89.0664C119.653 89.3857 118.777 89.544 117.894 89.5328H113.223L113.25 77.552ZM117.922 87.1589C118.425 87.1661 118.926 87.0787 119.398 86.9014C119.824 86.7398 120.212 86.4881 120.532 86.1634C120.849 85.8392 121.1 85.4561 121.27 85.0357C121.454 84.5731 121.544 84.0785 121.535 83.5807V83.5459C121.542 83.0483 121.452 82.5542 121.27 82.0909C121.105 81.662 120.853 81.2713 120.532 80.9423C120.21 80.6177 119.824 80.364 119.398 80.1974C118.926 80.0177 118.426 79.9279 117.922 79.9328H115.91V87.1589H117.922Z" fill="white"/>
<path d="M126.228 77.5518H135.278V79.8978H128.859V82.3274H134.505V84.6734H128.859V87.1935H135.361V89.5396H126.228V77.5518Z" fill="white"/>
<path d="M137.282 77.5518H139.719L145.33 84.931V77.5518H147.933V89.5396H145.692L139.886 81.9167V89.5396H137.282V77.5518Z" fill="white"/>
</svg>
