<svg width="15" height="17" viewBox="0 0 15 17" fill="none" xmlns="http://www.w3.org/2000/svg">
<path fill-rule="evenodd" clip-rule="evenodd" d="M7.00032 17C6.73511 17 6.48075 16.8946 6.29321 16.7071C6.10568 16.5196 6.00032 16.2652 6.00032 16L6.00032 4.414L1.70832 8.708C1.61534 8.80098 1.50497 8.87473 1.38349 8.92505C1.26201 8.97537 1.13181 9.00126 1.00032 9.00126C0.868833 9.00126 0.738632 8.97537 0.617153 8.92505C0.495675 8.87473 0.385296 8.80098 0.29232 8.708C0.199345 8.61503 0.125592 8.50465 0.0752737 8.38317C0.0249555 8.26169 -0.000942052 8.13149 -0.000942063 8C-0.000942075 7.86851 0.0249555 7.73831 0.0752736 7.61683C0.125592 7.49536 0.199344 7.38498 0.29232 7.292L6.29232 1.292C6.38521 1.19887 6.49556 1.12499 6.61705 1.07458C6.73854 1.02416 6.86879 0.998213 7.00032 0.998213C7.13186 0.998213 7.2621 1.02416 7.38359 1.07458C7.50508 1.12499 7.61543 1.19887 7.70832 1.292L13.7083 7.292C13.8013 7.38498 13.8751 7.49535 13.9254 7.61683C13.9757 7.73831 14.0016 7.86851 14.0016 8C14.0016 8.13149 13.9757 8.26169 13.9254 8.38317C13.8751 8.50465 13.8013 8.61502 13.7083 8.708C13.5205 8.89577 13.2659 9.00126 13.0003 9.00126C12.8688 9.00126 12.7386 8.97537 12.6172 8.92505C12.4957 8.87473 12.3853 8.80098 12.2923 8.708L8.00032 4.414L8.00032 16C8.00032 16.2652 7.89497 16.5196 7.70743 16.7071C7.51989 16.8946 7.26554 17 7.00032 17V17Z" fill="#1B1B1B"/>
</svg>
