<svg width="18" height="17" viewBox="0 0 18 17" fill="none" xmlns="http://www.w3.org/2000/svg">
<path d="M2.29184 7.99684C1.8923 7.5972 1.58283 7.11676 1.38417 6.58773C1.18551 6.0587 1.10226 5.49331 1.13999 4.92947C1.17773 4.36563 1.33558 3.81637 1.60296 3.31853C1.87034 2.82069 2.24107 2.38577 2.69029 2.04293C3.13952 1.70009 3.65685 1.45726 4.2076 1.33072C4.75835 1.20419 5.32979 1.19686 5.8836 1.30925C6.43742 1.42163 6.9608 1.65113 7.41866 1.98234C7.87652 2.31356 8.25828 2.73883 8.53832 3.22966H9.58111C9.86116 2.73883 10.2429 2.31356 10.7008 1.98234C11.1586 1.65113 11.682 1.42163 12.2358 1.30925C12.7896 1.19686 13.3611 1.20419 13.9118 1.33072C14.4626 1.45726 14.9799 1.70009 15.4291 2.04293C15.8784 2.38577 16.2491 2.82069 16.5165 3.31853C16.7839 3.81637 16.9417 4.36563 16.9794 4.92947C17.0172 5.49331 16.9339 6.0587 16.7353 6.58773C16.5366 7.11676 16.2271 7.5972 15.8276 7.99684L9.05972 14.7666L2.29184 7.99777V7.99684ZM16.4861 8.65908C16.9638 8.18135 17.3375 7.60996 17.5836 6.98082C17.8298 6.35168 17.9431 5.67842 17.9164 5.00337C17.8897 4.32832 17.7237 3.66609 17.4287 3.05832C17.1337 2.45056 16.7161 1.91041 16.2022 1.47186C15.6883 1.0333 15.0893 0.705816 14.4427 0.510005C13.7961 0.314194 13.116 0.254291 12.4452 0.334063C11.7743 0.413835 11.1272 0.631556 10.5446 0.973534C9.96198 1.31551 9.45642 1.77435 9.05972 2.32118C8.66302 1.77435 8.15745 1.31551 7.57483 0.973534C6.9922 0.631556 6.34511 0.413835 5.67426 0.334063C5.00341 0.254291 4.32331 0.314194 3.67674 0.510005C3.03016 0.705816 2.43109 1.0333 1.91722 1.47186C1.40334 1.91041 0.985765 2.45056 0.690759 3.05832C0.395754 3.66609 0.229698 4.32832 0.203034 5.00337C0.176371 5.67842 0.289677 6.35168 0.535828 6.98082C0.781978 7.60996 1.15565 8.18135 1.63333 8.65908L9.05972 16.0845L16.4861 8.66001V8.65908Z" fill="black"/>
</svg>
