<svg width="17" height="17" viewBox="0 0 17 17" fill="none" xmlns="http://www.w3.org/2000/svg">
<path d="M0.672069 3.1925H2.51085C2.6551 3.72325 2.96999 4.1918 3.40694 4.52584C3.84388 4.85988 4.37861 5.04086 4.92862 5.04086C5.47862 5.04086 6.01335 4.85988 6.4503 4.52584C6.88725 4.1918 7.20213 3.72325 7.34638 3.1925H15.4576C15.6358 3.1925 15.8068 3.12169 15.9328 2.99566C16.0588 2.86962 16.1297 2.69868 16.1297 2.52043C16.1297 2.34219 16.0588 2.17124 15.9328 2.04521C15.8068 1.91917 15.6358 1.84836 15.4576 1.84836H7.34638C7.20213 1.31761 6.88725 0.849068 6.4503 0.515025C6.01335 0.180982 5.47862 0 4.92862 0C4.37861 0 3.84388 0.180982 3.40694 0.515025C2.96999 0.849068 2.6551 1.31761 2.51085 1.84836H0.672069C0.493825 1.84836 0.322882 1.91917 0.196844 2.04521C0.0708071 2.17124 0 2.34219 0 2.52043C0 2.69868 0.0708071 2.86962 0.196844 2.99566C0.322882 3.12169 0.493825 3.1925 0.672069 3.1925ZM4.92828 1.34431C5.1609 1.34431 5.38829 1.41329 5.5817 1.54252C5.77511 1.67176 5.92586 1.85544 6.01487 2.07035C6.10389 2.28526 6.12718 2.52174 6.0818 2.74988C6.03642 2.97803 5.92441 3.18759 5.75992 3.35207C5.59544 3.51656 5.38588 3.62857 5.15773 3.67395C4.92959 3.71933 4.69311 3.69604 4.4782 3.60703C4.26329 3.51801 4.07961 3.36726 3.95037 3.17385C3.82114 2.98044 3.75216 2.75305 3.75216 2.52043C3.75252 2.20861 3.87654 1.90967 4.09703 1.68918C4.31752 1.46869 4.61646 1.34467 4.92828 1.34431Z" fill="black"/>
<path d="M15.4576 7.39293H13.6188C13.4748 6.86205 13.16 6.39334 12.7231 6.05916C12.2862 5.72498 11.7514 5.54391 11.2014 5.54391C10.6513 5.54391 10.1165 5.72498 9.67963 6.05916C9.24271 6.39334 8.92795 6.86205 8.78394 7.39293H0.672069C0.493825 7.39293 0.322882 7.46374 0.196844 7.58977C0.0708071 7.71581 0 7.88675 0 8.065C0 8.24324 0.0708071 8.41419 0.196844 8.54022C0.322882 8.66626 0.493825 8.73707 0.672069 8.73707H8.78394C8.92795 9.26794 9.24271 9.73666 9.67963 10.0708C10.1165 10.405 10.6513 10.5861 11.2014 10.5861C11.7514 10.5861 12.2862 10.405 12.7231 10.0708C13.16 9.73666 13.4748 9.26794 13.6188 8.73707H15.4576C15.6358 8.73707 15.8068 8.66626 15.9328 8.54022C16.0588 8.41419 16.1297 8.24324 16.1297 8.065C16.1297 7.88675 16.0588 7.71581 15.9328 7.58977C15.8068 7.46374 15.6358 7.39293 15.4576 7.39293ZM11.2014 9.24112C10.9688 9.24112 10.7414 9.17214 10.548 9.04291C10.3545 8.91367 10.2038 8.72999 10.1148 8.51508C10.0258 8.30017 10.0025 8.06369 10.0478 7.83555C10.0932 7.6074 10.2052 7.39784 10.3697 7.23336C10.5342 7.06887 10.7438 6.95686 10.9719 6.91148C11.2001 6.8661 11.4365 6.88939 11.6515 6.9784C11.8664 7.06742 12.05 7.21817 12.1793 7.41158C12.3085 7.60499 12.3775 7.83238 12.3775 8.065C12.3771 8.37682 12.2531 8.67576 12.0326 8.89625C11.8121 9.11674 11.5132 9.24076 11.2014 9.24112Z" fill="black"/>
<path d="M15.4576 12.9375H7.34638C7.20213 12.4067 6.88725 11.9382 6.4503 11.6042C6.01335 11.2701 5.47862 11.0891 4.92862 11.0891C4.37861 11.0891 3.84388 11.2701 3.40694 11.6042C2.96999 11.9382 2.6551 12.4067 2.51085 12.9375H0.672069C0.493825 12.9375 0.322882 13.0083 0.196844 13.1343C0.0708071 13.2604 0 13.4313 0 13.6096C0 13.7878 0.0708071 13.9588 0.196844 14.0848C0.322882 14.2108 0.493825 14.2816 0.672069 14.2816H2.51085C2.6551 14.8124 2.96999 15.2809 3.40694 15.615C3.84388 15.949 4.37861 16.13 4.92862 16.13C5.47862 16.13 6.01335 15.949 6.4503 15.615C6.88725 15.2809 7.20213 14.8124 7.34638 14.2816H15.4576C15.6358 14.2816 15.8068 14.2108 15.9328 14.0848C16.0588 13.9588 16.1297 13.7878 16.1297 13.6096C16.1297 13.4313 16.0588 13.2604 15.9328 13.1343C15.8068 13.0083 15.6358 12.9375 15.4576 12.9375ZM4.92828 14.7857C4.69567 14.7857 4.46828 14.7167 4.27486 14.5875C4.08145 14.4582 3.9307 14.2746 3.84169 14.0596C3.75267 13.8447 3.72938 13.6083 3.77476 13.3801C3.82014 13.152 3.93215 12.9424 4.09664 12.7779C4.26112 12.6134 4.47069 12.5014 4.69883 12.456C4.92698 12.4107 5.16345 12.434 5.37836 12.523C5.59327 12.612 5.77696 12.7627 5.90619 12.9561C6.03542 13.1496 6.1044 13.377 6.1044 13.6096C6.10387 13.9213 5.97978 14.2202 5.75934 14.4406C5.53889 14.6611 5.24004 14.7852 4.92828 14.7857Z" fill="black"/>
</svg>
