<svg width="19" height="14" viewBox="0 0 19 14" fill="none" xmlns="http://www.w3.org/2000/svg">
<path d="M17.4873 4.99224C16.3425 3.1279 13.7387 0 9.16859 0C4.59853 0 1.99465 3.1279 0.849921 4.99224C0.496042 5.56461 0.308594 6.22424 0.308594 6.89717C0.308594 7.5701 0.496042 8.22973 0.849921 8.8021C1.99465 10.6664 4.59853 13.7943 9.16859 13.7943C13.7387 13.7943 16.3425 10.6664 17.4873 8.8021C17.8411 8.22973 18.0286 7.5701 18.0286 6.89717C18.0286 6.22424 17.8411 5.56461 17.4873 4.99224ZM16.2289 8.02935C15.2458 9.62799 13.0205 12.3182 9.16859 12.3182C5.31666 12.3182 3.09141 9.62799 2.10831 8.02935C1.89807 7.68914 1.7867 7.29711 1.7867 6.89717C1.7867 6.49723 1.89807 6.1052 2.10831 5.76499C3.09141 4.16635 5.31666 1.47612 9.16859 1.47612C13.0205 1.47612 15.2458 4.1634 16.2289 5.76499C16.4391 6.1052 16.5505 6.49723 16.5505 6.89717C16.5505 7.29711 16.4391 7.68914 16.2289 8.02935Z" fill="black"/>
<path d="M9.16882 3.20679C8.43894 3.20679 7.72546 3.42322 7.1186 3.82871C6.51173 4.23421 6.03873 4.81056 5.75942 5.48487C5.48011 6.15918 5.40703 6.90118 5.54943 7.61703C5.69182 8.33288 6.04328 8.99042 6.55938 9.50652C7.07548 10.0226 7.73303 10.3741 8.44888 10.5165C9.16472 10.6589 9.90672 10.5858 10.581 10.3065C11.2553 10.0272 11.8317 9.55417 12.2372 8.94731C12.6427 8.34044 12.8591 7.62696 12.8591 6.89709C12.8579 5.91872 12.4688 4.98076 11.777 4.28895C11.0851 3.59713 10.1472 3.20796 9.16882 3.20679ZM9.16882 9.11127C8.73089 9.11127 8.3028 8.98141 7.93868 8.73811C7.57456 8.49481 7.29077 8.149 7.12318 7.74442C6.9556 7.33983 6.91175 6.89463 6.99718 6.46512C7.08262 6.03561 7.2935 5.64108 7.60315 5.33142C7.91281 5.02177 8.30734 4.81089 8.73685 4.72545C9.16636 4.64002 9.61156 4.68387 10.0161 4.85145C10.4207 5.01904 10.7665 5.30283 11.0098 5.66695C11.2531 6.03107 11.383 6.45916 11.383 6.89709C11.383 7.48432 11.1497 8.04751 10.7345 8.46275C10.3192 8.87799 9.75605 9.11127 9.16882 9.11127Z" fill="black"/>
</svg>
