<svg width="11" height="10" viewBox="0 0 11 10" fill="none" xmlns="http://www.w3.org/2000/svg">
<path d="M5.25807 0.823086C5.35951 0.645534 5.61552 0.645532 5.71697 0.823087L6.94658 2.97524C7.06313 3.17924 7.26415 3.32103 7.49543 3.36237L9.97939 3.80639C10.189 3.84386 10.2705 4.10119 10.1206 4.25248L8.41349 5.9761L8.60124 6.16206L8.41349 5.9761C8.24016 6.1511 8.15802 6.39671 8.19119 6.64077L8.51412 9.01634C8.54211 9.22223 8.33248 9.37839 8.14321 9.29263L5.81471 8.23756C5.60676 8.14333 5.36827 8.14333 5.16032 8.23756L2.83182 9.29263C2.64256 9.37839 2.43292 9.22223 2.46091 9.01634L2.78384 6.64077C2.81701 6.39671 2.73487 6.1511 2.56155 5.9761L0.854385 4.25248C0.704532 4.10119 0.786013 3.84386 0.995638 3.80639L3.47961 3.36237C3.71088 3.32103 3.91191 3.17924 4.02846 2.97524L5.25807 0.823086Z" stroke="black" stroke-width="0.528517"/>
</svg>
