<svg width="19" height="12" viewBox="0 0 19 12" fill="none" xmlns="http://www.w3.org/2000/svg">
<path d="M8.09604 11.9582C7.04077 11.9582 6.15327 11.8279 5.60128 11.7519C4.3079 11.5673 3.59897 11.3285 3.18227 11.1656C2.26229 10.8073 1.11503 10.3676 0.963501 9.43392C0.909384 9.09735 0.990559 8.74449 1.20702 8.38621C1.28279 8.25592 1.45055 8.21792 1.58043 8.29392C1.71031 8.36992 1.74819 8.53821 1.67243 8.66849C1.52631 8.91278 1.46678 9.14078 1.49925 9.34706C1.60207 9.97135 2.58699 10.3513 3.37709 10.6553C3.77214 10.8073 4.44319 11.0299 5.67704 11.2091C6.29397 11.2959 7.32218 11.4479 8.51815 11.4045C11.2673 11.3068 13.3345 10.2753 14.3303 9.78135C15.4775 9.21135 16.5653 8.50021 17.5664 7.66964C17.745 7.4145 17.8749 7.13221 17.9561 6.82821C18.0968 6.29079 18.0264 5.81307 17.9452 5.5145C17.9074 5.36793 17.9939 5.22136 18.1401 5.17793C18.2862 5.13993 18.4323 5.22679 18.4756 5.37336C18.573 5.73708 18.6542 6.3125 18.4864 6.96936C18.389 7.34936 18.2212 7.70221 17.9939 8.0225L17.9723 8.04964L17.9452 8.07135C16.9062 8.93992 15.7698 9.6782 14.5792 10.2753C13.551 10.7856 11.408 11.8551 8.54521 11.9528C8.38827 11.9528 8.24216 11.9582 8.09604 11.9582Z" fill="#494949"/>
<path d="M5.36858 10.6608C4.93024 10.5739 4.48648 10.4816 4.04273 10.3785C3.59897 10.2753 3.15522 10.1668 2.71688 10.0094C2.50041 9.92792 2.27853 9.83021 2.06748 9.71078C1.85642 9.58592 1.65619 9.43392 1.48843 9.22764C1.40726 9.1245 1.33691 9.0105 1.27738 8.88564C1.26656 8.85307 1.25032 8.82593 1.2395 8.79336L1.20703 8.69564C1.18538 8.6305 1.17456 8.55993 1.16373 8.49479C1.12585 8.21793 1.17456 7.95193 1.24491 7.71307C1.39644 7.23536 1.63455 6.83365 1.86725 6.43736C2.10536 6.04651 2.35971 5.67194 2.60864 5.29194C2.73311 5.10737 2.86299 4.91737 2.99828 4.72737C3.13357 4.5428 3.26886 4.35823 3.41498 4.17366C3.70179 3.80994 3.99944 3.46252 4.31872 3.13137C4.63801 2.7948 4.96812 2.47452 5.31446 2.17052L5.57963 1.94795L5.83939 1.73081C6.01257 1.58424 6.19656 1.44309 6.38597 1.30195C6.75937 1.01967 7.18148 0.769953 7.61982 0.585382C8.05817 0.395383 8.51274 0.25424 8.97815 0.167383C9.44355 0.0750977 9.91436 0.0370981 10.3635 0.0153838C10.8289 -0.0117589 11.2943 -0.000902072 11.7543 0.0316693C12.2197 0.0642406 12.6797 0.134812 13.1343 0.232526C13.3616 0.281383 13.5889 0.335668 13.8162 0.40624C14.0326 0.471382 14.2491 0.536525 14.471 0.607096C14.9093 0.748239 15.3531 0.911095 15.7752 1.13367C15.9862 1.24224 16.1919 1.36709 16.3921 1.50281L16.5382 1.61138L16.614 1.66566L16.6843 1.72538L16.825 1.83938C16.8683 1.87738 16.9116 1.92081 16.9603 1.96423C17.3121 2.3008 17.6151 2.69166 17.8424 3.12052C18.0751 3.54937 18.2321 4.0108 18.3457 4.46137C18.3728 4.57537 18.3998 4.68937 18.4269 4.79794C18.4539 4.91194 18.4756 5.01508 18.5026 5.13451C18.5513 5.36794 18.5892 5.60679 18.6055 5.85651C18.6217 6.10622 18.6109 6.37222 18.5405 6.64365C18.5026 6.77936 18.4539 6.89879 18.3944 7.01822C18.3349 7.13765 18.2645 7.25165 18.1888 7.35479C18.0372 7.5665 17.8532 7.74564 17.6638 7.90307C17.5664 7.9845 17.4798 8.04421 17.3878 8.12021L17.2525 8.22336L17.1118 8.3265C16.7384 8.59793 16.3488 8.84221 15.9483 9.07021C15.1474 9.52621 14.3086 9.90078 13.4428 10.1994C13.0098 10.3514 12.5715 10.4816 12.1331 10.5956C11.6894 10.7096 11.2456 10.8073 10.7965 10.8888C10.5692 10.9268 10.3473 10.9593 10.12 10.9919C10.0064 11.0082 9.89271 11.0191 9.77907 11.0299L9.69248 11.0353L9.64378 11.0408H9.60048L9.43272 11.0462C8.98356 11.0625 8.52357 11.0679 8.06899 11.0462C7.61441 11.0245 7.15983 10.9811 6.71067 10.9159C6.25609 10.8399 5.80692 10.7531 5.36858 10.6608ZM5.43893 10.3134C6.31562 10.4979 7.1923 10.6336 8.07981 10.6553C8.52357 10.6662 8.96191 10.6608 9.41108 10.6282L9.57884 10.6173L9.61672 10.6119H9.6546L9.73578 10.6011C9.84401 10.5902 9.95224 10.5739 10.0605 10.5576C10.2769 10.5251 10.4988 10.4871 10.7153 10.4436C12.4524 10.0908 14.13 9.44478 15.6345 8.53279C16.0133 8.30479 16.3759 8.0605 16.7222 7.7945L16.8521 7.69679L16.982 7.59364C17.0631 7.52307 17.1551 7.45793 17.2309 7.38736C17.3878 7.25165 17.5231 7.1105 17.6259 6.95308C17.6801 6.87708 17.7288 6.79565 17.7667 6.70879C17.8045 6.62736 17.837 6.53508 17.8587 6.45365C17.9019 6.28536 17.9128 6.09536 17.8965 5.89451C17.8857 5.69365 17.8478 5.48737 17.8045 5.27565C17.7829 5.17251 17.7558 5.05851 17.7342 4.95537C17.7071 4.8468 17.6855 4.74365 17.653 4.63508C17.5448 4.21708 17.4041 3.81537 17.2038 3.45166C17.1064 3.26709 16.9928 3.09337 16.8683 2.93052C16.7384 2.76766 16.6086 2.61023 16.457 2.46909C16.4192 2.43652 16.3813 2.39852 16.3434 2.36052L16.1648 2.21395L16.0999 2.16509L15.9754 2.07281C15.8022 1.95881 15.6236 1.84481 15.4342 1.74709C15.0608 1.55166 14.655 1.39967 14.2383 1.26395C14.0272 1.19881 13.8162 1.13367 13.5997 1.06852C13.394 1.00881 13.183 0.954524 12.9719 0.911095C12.5498 0.81881 12.1169 0.759096 11.684 0.726524C11.251 0.693953 10.8181 0.688524 10.3852 0.710238C9.94142 0.731953 9.5139 0.769953 9.09179 0.851381C8.67509 0.932809 8.26922 1.05767 7.87958 1.22595C7.48994 1.39424 7.13278 1.60595 6.78643 1.86109C6.61326 1.99138 6.44009 2.12709 6.27233 2.26823L6.01257 2.47995L5.76363 2.69166C5.43352 2.97937 5.11423 3.28337 4.80577 3.59823C4.49731 3.91308 4.20508 4.24423 3.92908 4.58623C3.78838 4.75994 3.6585 4.93365 3.52321 5.10737C3.39333 5.28651 3.26886 5.46565 3.13898 5.65022C2.87923 6.01936 2.62488 6.38308 2.38135 6.75222C2.15948 7.13222 1.92678 7.51222 1.78607 7.88679C1.71572 8.07679 1.67784 8.26136 1.68866 8.43507C1.69408 8.4785 1.69408 8.52193 1.71031 8.56536L1.72655 8.6305C1.73196 8.65221 1.74278 8.67393 1.74819 8.69564C1.78066 8.77707 1.82395 8.8585 1.87807 8.9345C1.9863 9.0865 2.13783 9.21678 2.311 9.33078C2.48418 9.44478 2.67358 9.54249 2.87381 9.62392C3.27428 9.79221 3.70179 9.91164 4.13473 10.0256C4.56225 10.1288 5.00059 10.2211 5.43893 10.3134Z" fill="#494949"/>
<path d="M12.8096 9.88991C13.2479 9.74877 13.6808 9.58049 14.0813 9.35792C14.4818 9.13535 14.8552 8.86392 15.1582 8.52735C15.234 8.44592 15.3043 8.35363 15.3801 8.26135C15.4559 8.16906 15.5316 8.07678 15.6128 7.98449C15.7697 7.80535 15.9375 7.62621 16.1161 7.46335C16.4678 7.13221 16.8521 6.83907 17.2579 6.58393C17.2958 6.56221 17.3391 6.57307 17.3662 6.61107C17.3878 6.64364 17.377 6.6925 17.3445 6.71421C16.9603 6.98564 16.6031 7.28964 16.2784 7.63164C16.1161 7.79992 15.9646 7.97906 15.8184 8.16364C15.7481 8.25592 15.6777 8.34821 15.6074 8.44592C15.537 8.5382 15.4667 8.64135 15.3909 8.73906C15.077 9.12449 14.6874 9.43934 14.2761 9.70534C13.8594 9.96591 13.4157 10.1722 12.9611 10.3459C12.842 10.3893 12.7067 10.3296 12.6635 10.2102C12.6202 10.0908 12.6797 9.95506 12.7987 9.91163C12.7987 9.88991 12.7987 9.88991 12.8096 9.88991Z" fill="#494949"/>
</svg>
