<svg width="20" height="14" viewBox="0 0 20 14" fill="none" xmlns="http://www.w3.org/2000/svg">
<path d="M13.3065 11.0434C12.7911 11.0434 12.3105 11.0144 11.8704 10.9854L11.772 10.9796C9.67578 10.8463 7.64908 10.3014 5.74977 9.35654C5.64554 9.30437 5.57026 9.21162 5.5471 9.09569C5.3618 8.22619 5.30389 7.33931 5.36759 6.45822C5.46024 5.22933 5.57605 3.69902 6.67047 2.44115C8.1876 0.707954 10.7181 0.563038 11.9341 0.493478C12.131 0.481885 12.3279 0.476088 12.5247 0.476088C12.5247 0.476088 12.6405 0.476089 12.7506 0.481885C16.7924 0.586225 18.3211 2.25566 18.3848 2.32522C19.3344 3.3918 19.4792 4.66126 19.6529 6.13361C19.7514 6.99731 19.7456 7.8726 19.6298 8.74209C19.6182 8.84064 19.5603 8.93338 19.4792 8.99715C18.5296 9.69854 17.493 10.2318 16.387 10.5796C15.2463 10.9506 14.2156 11.0434 13.3065 11.0434ZM6.25355 8.75949C8.01388 9.61159 9.88424 10.1043 11.8241 10.226L11.9225 10.2318C13.0691 10.3072 14.4877 10.3999 16.1786 9.86085C17.1514 9.55362 18.0721 9.08989 18.9175 8.48125C19.0044 7.72768 19.0044 6.96832 18.9175 6.22056C18.7554 4.81777 18.628 3.71061 17.8347 2.82373C17.8231 2.81213 16.4276 1.32819 12.7448 1.22965C12.6405 1.22965 12.5363 1.22385 12.5363 1.22385C12.3568 1.22385 12.1773 1.22965 11.992 1.24124C10.7934 1.3108 8.55819 1.43833 7.24953 2.93386C6.31724 4.00044 6.21301 5.39164 6.12615 6.51039C6.06825 7.25816 6.11457 8.01752 6.25355 8.75949Z" fill="#494949"/>
<path d="M9.58889 13.4722C9.05036 13.4722 8.535 13.4374 8.02543 13.4026C6.33459 13.2867 4.75376 12.9215 3.32928 12.3187C2.00903 11.7622 0.764058 11.2347 0.78143 10.342C0.804592 9.37396 2.30435 8.77111 4.04152 8.07551C4.49898 7.89002 4.96801 7.72772 5.43705 7.5886C5.63393 7.53063 5.84818 7.64077 5.90609 7.84365C5.96399 8.04074 5.85397 8.25521 5.6513 8.31318C5.20543 8.4465 4.75376 8.60301 4.31947 8.77691C3.59565 9.06674 2.84866 9.36817 2.30435 9.66959C1.5979 10.0638 1.53999 10.2956 1.5342 10.3594C1.5342 10.4058 1.56895 10.5913 2.07273 10.8985C2.48386 11.1477 3.06291 11.3912 3.61881 11.6289C4.96222 12.1969 6.46198 12.5447 8.07176 12.6549C9.33989 12.7418 10.6486 12.8346 12.1946 12.3244C13.1153 12.023 13.8334 11.6115 14.2677 11.3622C15.0552 10.9101 15.8022 10.3768 16.4855 9.77393C16.6418 9.63481 16.8792 9.6522 17.0182 9.80871C17.1572 9.96522 17.1398 10.2029 16.9834 10.342C16.2596 10.9796 15.4721 11.5419 14.6383 12.0172C14.2098 12.2607 13.4165 12.7186 12.4263 13.0432C11.3898 13.3794 10.4633 13.4722 9.58889 13.4722Z" fill="#494949"/>
<path d="M11.4477 0.85868C11.5751 0.394948 11.9631 0.0587429 12.4205 0.0065731C12.9417 -0.0513933 13.4512 0.279015 13.6307 0.800713" fill="#494949"/>
</svg>
