<svg width="19" height="14" viewBox="0 0 19 14" fill="none" xmlns="http://www.w3.org/2000/svg">
<path d="M3.62472 7.36589L2.87351 7.26096C2.98997 6.42736 3.15303 5.58209 3.35684 4.76014C3.76448 3.10458 3.89841 2.55079 4.35263 1.99699C4.55063 1.75216 4.90585 1.3849 5.68035 0.965186C8.97053 -0.812788 12.7324 0.399732 12.8896 0.452197C13.7165 0.726179 14.5726 1.01182 15.1549 1.82794C15.4927 2.31178 15.5684 2.75482 15.6965 3.49516C15.7431 3.76331 15.7896 4.06061 15.8653 4.42786C16.0342 5.29645 16.2264 6.1592 16.4244 6.99864L15.6906 7.17352C15.4868 6.32243 15.3005 5.44801 15.1258 4.5736C15.0501 4.19469 14.9977 3.89156 14.9569 3.61757C14.8404 2.91804 14.788 2.60325 14.5434 2.25932C14.1067 1.6414 13.437 1.41988 12.6625 1.16339C12.5169 1.11675 9.05205 0.00333097 6.05304 1.62391C5.39501 1.97951 5.10966 2.27681 4.95243 2.46918C4.62051 2.87724 4.50404 3.31444 4.10805 4.93502C3.89841 5.73365 3.74118 6.5556 3.62472 7.36589Z" fill="#494949"/>
<path d="M9.34907 9.90753C7.99806 9.90753 6.91492 9.69184 6.35006 9.57525C5.19122 9.34207 4.37595 8.97482 3.70045 8.38022C3.4151 8.12955 3.15888 7.84391 2.94341 7.52329L3.56651 7.09191C3.75286 7.36007 3.96832 7.59907 4.20708 7.80893C4.78358 8.31609 5.47074 8.62505 6.50729 8.82908C7.80589 9.09141 11.2591 9.77928 14.5493 7.73315C14.9919 7.45917 15.417 7.13855 15.8071 6.79461L16.3079 7.36007C15.8828 7.73315 15.4286 8.07709 14.9453 8.37439C13.0003 9.58691 10.9854 9.90753 9.34907 9.90753Z" fill="#494949"/>
<path d="M9.186 13.5509C9.14524 13.5509 9.10448 13.5509 9.06372 13.5509C7.68359 13.5509 4.80687 13.5451 2.33195 11.7555C1.8195 11.3824 0.456845 10.3972 0.625721 9.20799C0.718895 8.57842 1.21388 8.09457 1.73798 7.58741C2.13396 7.20267 2.58236 6.8704 3.06569 6.59641L3.43839 7.25514C3.00746 7.49414 2.6173 7.79144 2.26207 8.12955C1.83115 8.54344 1.42934 8.93401 1.37693 9.31292C1.30705 9.79677 1.77874 10.4147 2.77453 11.1375C5.04562 12.7873 7.75929 12.7873 9.06372 12.7873C10.1061 12.7873 11.5328 12.7873 13.2623 12.1927C15.7838 11.3241 17.6124 9.73264 17.5192 9.12638C17.4551 9.01562 17.1581 8.68335 16.8437 8.33358C16.5001 7.94884 16.1507 7.56993 15.8013 7.2085L16.3429 6.68385C16.7039 7.05694 17.0591 7.44168 17.4085 7.83225C18.0316 8.53178 18.2005 8.72415 18.2471 8.92818C18.5965 10.3389 15.7198 12.146 13.5069 12.9155C11.7308 13.5276 10.2167 13.5509 9.186 13.5509Z" fill="#494949"/>
<path d="M9.71012 3.44269C8.80751 3.44269 7.88742 3.37274 7.14204 3.23866C5.81432 3.00549 5.12134 2.60909 5.02235 2.03197C4.98741 1.82794 5.03399 1.61808 5.15628 1.40823L5.65709 1.70553C5.60468 1.79297 5.58139 1.87458 5.59303 1.9387C5.62797 2.14856 6.08219 2.46335 7.24103 2.66738C8.16694 2.8306 9.37237 2.89473 10.4672 2.84226C10.7176 2.8306 11.6085 2.77814 12.4704 2.62074C13.6292 2.40506 14.0718 2.11359 14.1009 1.92704C14.1126 1.8396 14.0427 1.70553 13.8971 1.55979L14.3164 1.15173C14.5959 1.43737 14.7182 1.72884 14.6774 2.00866C14.5959 2.56245 13.9262 2.94136 12.5752 3.19203C11.6784 3.36108 10.7583 3.41355 10.4963 3.4252C10.24 3.43686 9.97799 3.44269 9.71012 3.44269Z" fill="#494949"/>
</svg>
