<svg width="19" height="12" viewBox="0 0 19 12" fill="none" xmlns="http://www.w3.org/2000/svg">
<path d="M7.92338 11.8122C6.41053 11.8122 4.52894 11.6114 2.68531 10.8732C1.27548 10.3086 0.592256 9.71154 0.462118 8.94075C0.331979 8.15367 0.841688 7.5023 1.24837 6.9812C2.01293 6.00957 3.05946 5.28763 4.35542 4.84252L4.58317 5.51018C3.41192 5.91186 2.47926 6.55781 1.80146 7.42088C1.44358 7.87684 1.07485 8.34908 1.15619 8.82676C1.23753 9.32072 1.80688 9.76582 2.94559 10.2218C6.23159 11.5354 9.66398 11.0577 10.64 10.8786C12.039 10.6235 14.6852 9.90695 16.686 7.99083C17.0602 7.63257 17.4343 7.20918 17.4018 6.78036C17.3421 6.04756 16.1655 5.33105 14.4791 4.98908L14.6201 4.29971C16.6806 4.71768 18.0145 5.64588 18.1013 6.72608C18.1609 7.44802 17.6675 8.02883 17.1741 8.50107C15.043 10.5475 12.2451 11.3074 10.7647 11.5734C10.2876 11.6548 9.24646 11.8122 7.92338 11.8122Z" fill="#494949"/>
<path d="M8.98074 8.88646C7.72816 8.88646 6.07432 8.71819 4.70786 7.99082C4.60484 7.93654 4.30118 7.7737 4.10597 7.4263C3.91619 7.0789 3.9433 6.73693 3.95415 6.56866C4.01922 5.75444 4.16562 4.82623 4.22527 4.46798C4.36083 3.63205 4.45301 3.08924 4.58857 2.61699C4.63737 2.45415 4.82174 1.88962 5.23926 1.35767C6.15565 0.196054 7.71731 0.0332102 8.17822 0.00606967C9.19764 -0.0482115 9.84833 0.272047 10.4231 0.548881C10.9762 0.820287 11.4154 1.03198 12.1203 0.901708C12.142 0.89628 12.1691 0.890852 12.1962 0.885424C12.5487 0.814858 13.1994 0.684584 13.6874 1.08626C13.926 1.28168 14.0182 1.52594 14.1537 1.90591C14.3273 2.4053 14.4845 2.92639 14.6255 3.45292C14.6255 3.45835 14.6309 3.46921 14.6309 3.47463L14.6635 3.64833C14.8207 4.46255 14.9454 5.10849 15.0647 5.63502V5.64045C15.1081 5.84672 15.2057 6.27554 15.0051 6.72064C14.8912 6.97034 14.7394 7.11147 14.5442 7.2906C14.1754 7.63257 13.7742 7.82255 13.3566 8.01796C13.3566 8.01796 13.2536 8.06682 13.1669 8.10481C12.4619 8.40879 11.6865 8.62591 10.8569 8.75619C10.8027 8.76704 10.0327 8.88646 8.98074 8.88646ZM5.79777 1.79192C5.52665 2.13389 5.34771 2.54643 5.2718 2.8124C5.14708 3.24665 5.06032 3.76775 4.92476 4.58197C4.86512 4.9348 4.71871 5.83586 4.65906 6.62294C4.64822 6.74236 4.63737 6.92148 4.72413 7.08433C4.81631 7.24717 4.96814 7.32859 5.03863 7.36659C7.34317 8.59334 10.7213 8.06139 10.7593 8.05596C11.5293 7.93654 12.245 7.7357 12.9012 7.45344C12.9771 7.42087 13.0693 7.37745 13.0693 7.37745C13.4542 7.19289 13.7904 7.0409 14.0778 6.7695C14.2568 6.60665 14.3218 6.54152 14.3706 6.42753C14.4737 6.19955 14.4194 5.94985 14.3815 5.79244V5.78701C14.2622 5.24963 14.1375 4.59825 13.9802 3.77861L13.9477 3.61576C13.8176 3.11095 13.6603 2.61156 13.4976 2.13389C13.3783 1.79192 13.3295 1.69421 13.2536 1.62908C13.0259 1.43909 12.5975 1.52594 12.3426 1.57479C12.3101 1.58022 12.283 1.58565 12.2559 1.59108C11.3232 1.76478 10.7105 1.46623 10.1195 1.17854C9.57721 0.912564 9.06208 0.662871 8.2216 0.706296C7.83661 0.733437 6.5298 0.86914 5.79777 1.79192Z" fill="#494949"/>
<path d="M6.88768 3.62661C6.52979 3.62661 6.23156 3.53976 5.97128 3.33892C5.53207 3.00238 5.28806 2.41614 5.2501 1.58564C5.24468 1.43365 5.35855 1.30881 5.51038 1.30338C5.65678 1.29795 5.78692 1.41194 5.79234 1.56393C5.82488 2.22616 5.99297 2.67669 6.29663 2.9101C6.77923 3.27921 7.60886 3.02409 9.25185 2.51928C9.63142 2.40528 10.0544 2.27501 10.5315 2.13388C11.5022 1.85162 12.4782 1.58564 13.438 1.35223C13.5844 1.31423 13.7308 1.40651 13.7633 1.55307C13.8013 1.69963 13.7091 1.84619 13.5627 1.87876C12.6138 2.11217 11.6431 2.37272 10.678 2.65498C10.2062 2.79068 9.77783 2.92638 9.40368 3.04037C8.27582 3.38777 7.48956 3.62661 6.88768 3.62661Z" fill="#494949"/>
<path d="M9.02413 7.20916C7.01241 7.20916 5.35857 6.60121 4.40964 6.15068C4.27408 6.08554 4.21443 5.9227 4.2795 5.787C4.34457 5.6513 4.50724 5.59159 4.6428 5.65672C5.86827 6.23753 8.35717 7.10603 11.2311 6.39495C12.3535 6.11811 13.4109 5.62958 14.3815 4.94564C14.5062 4.85879 14.6743 4.89136 14.7611 5.01078C14.8478 5.13562 14.8153 5.3039 14.696 5.39075C13.6712 6.11268 12.5487 6.62836 11.3612 6.92147C10.5478 7.12774 9.76158 7.20916 9.02413 7.20916Z" fill="#494949"/>
</svg>
