<svg width="20" height="10" viewBox="0 0 20 10" fill="none" xmlns="http://www.w3.org/2000/svg">
<path d="M3.63083 7.96854C3.58525 7.96849 3.54009 7.95994 3.4977 7.94333C2.78961 7.68603 2.13955 7.29313 1.58458 6.78703C1.10075 6.34081 0.36906 5.66827 0.288963 4.81338C0.132017 3.18834 2.41261 1.92263 3.2731 1.44691C5.67113 0.118992 8.05347 0.0519525 9.33501 0.0138739C10.5965 -0.021523 13.5542 -0.107334 16.4696 1.49947C17.3322 1.97304 19.3509 3.08536 19.2156 4.54147C19.1544 5.20328 18.6619 5.72887 18.2241 6.1944L18.2117 6.20888C17.692 6.75741 17.0686 7.19948 16.377 7.50998C16.2885 7.55051 16.1877 7.55568 16.0955 7.52441C16.0032 7.49315 15.9267 7.42786 15.8818 7.34212C15.8611 7.30008 15.8492 7.25431 15.8469 7.20759C15.8446 7.16088 15.8518 7.11417 15.8682 7.0703C15.8846 7.02644 15.9098 6.98632 15.9423 6.95238C15.9747 6.91844 16.0138 6.89138 16.0572 6.87284C16.661 6.60372 17.2049 6.21853 17.6575 5.7396L17.6726 5.72512C18.0488 5.32288 18.4379 4.90777 18.4779 4.47818C18.571 3.46883 16.7104 2.44232 16.0978 2.10712C13.3642 0.600605 10.5565 0.682126 9.35774 0.715914C8.05779 0.753456 5.87787 0.816205 3.64599 2.05242C2.96949 2.42784 0.912418 3.56483 1.02228 4.74849C1.07965 5.34165 1.66738 5.88226 2.09601 6.27592C2.57945 6.71627 3.14567 7.05797 3.76234 7.28151C3.93769 7.33783 4.04376 7.50569 4.00967 7.67946C3.99172 7.76456 3.94368 7.8405 3.87422 7.8936C3.80476 7.9467 3.71845 7.97293 3.63083 7.96854Z" fill="#494949"/>
<path d="M9.53362 9.64882H9.47193C7.38611 9.64308 5.31705 9.27945 3.35644 8.57404C3.29391 8.55263 3.24126 8.5096 3.20815 8.45283L2.52354 7.28795C2.5065 7.25685 2.49592 7.22269 2.49242 7.18747C2.48892 7.15225 2.49258 7.1167 2.50317 7.08291C2.51376 7.04911 2.53108 7.01776 2.5541 6.99071C2.57712 6.96366 2.60537 6.94145 2.6372 6.9254C2.70207 6.89073 2.77777 6.88163 2.84912 6.89993C2.92048 6.91823 2.98222 6.96258 3.02198 7.02408L3.6541 8.10261C5.52131 8.76113 7.48785 9.10044 9.46976 9.10606H9.52713C11.7785 9.10821 14.0066 8.68076 16.081 7.84733L16.4631 6.75324C16.489 6.68369 16.5413 6.62688 16.6087 6.59484C16.6762 6.56281 16.7536 6.55806 16.8246 6.58162C16.8595 6.59159 16.892 6.6085 16.9202 6.6313C16.9483 6.6541 16.9715 6.68234 16.9883 6.71428C17.0051 6.74623 17.0152 6.78122 17.0179 6.81714C17.0207 6.85306 17.016 6.88916 17.0043 6.92325L16.5875 8.13426C16.5744 8.17109 16.5536 8.20473 16.5263 8.23294C16.4991 8.26115 16.4661 8.28327 16.4295 8.29783C14.2424 9.19176 11.8994 9.65043 9.53362 9.64882ZM8.75539 2.1865C8.66663 1.94515 9.18293 1.34019 9.84643 1.3906C10.3811 1.43243 10.8249 1.88669 10.7491 2.1216C10.6198 2.52169 8.89069 2.56138 8.75539 2.1865Z" fill="#494949"/>
<path d="M9.41727 8.97413C7.30064 8.97723 5.20202 8.58871 3.22927 7.82856C3.18585 7.81194 3.1462 7.78692 3.11264 7.75496C3.07908 7.723 3.05228 7.68474 3.03379 7.64241C3.0153 7.60007 3.0055 7.55452 3.00497 7.5084C3.00443 7.46227 3.01316 7.41651 3.03065 7.37376C3.06976 7.28704 3.14062 7.21827 3.22892 7.18134C3.31722 7.1444 3.41638 7.14206 3.50636 7.17479C5.39094 7.90049 7.39541 8.27206 9.41727 8.27048H9.44055C11.7214 8.26384 13.9759 7.78791 16.0615 6.87284C16.121 6.84501 16.1868 6.8329 16.2524 6.8377C16.318 6.84249 16.3813 6.86402 16.436 6.90019C16.4898 6.93443 16.533 6.98266 16.561 7.0396C16.5889 7.09654 16.6006 7.16001 16.5946 7.22306C16.5871 7.2865 16.5625 7.34678 16.5235 7.39763C16.4845 7.44847 16.4324 7.48801 16.3727 7.51213C14.1897 8.46957 11.8299 8.96742 9.44271 8.97413H9.41727Z" fill="#494949"/>
<path d="M18.4655 2.89068C18.6046 3.02047 18.7253 3.16957 18.8248 3.33046C18.9369 3.51067 19.0024 3.71608 19.017 3.92578C19.0235 4.14138 18.9704 4.35483 18.8627 4.54361C18.7689 4.71176 18.6491 4.86432 18.5077 4.99573C18.2483 5.23377 17.9583 5.43666 17.645 5.59909C17.349 5.75837 17.0405 5.89889 16.7234 6.02009C16.1011 6.25709 15.4631 6.45169 14.8141 6.60254C13.5242 6.91081 12.2073 7.09526 10.8818 7.15333C10.2182 7.17908 9.55691 7.16621 8.89503 7.11794C7.57816 7.01828 6.27763 6.76592 5.02008 6.36602C5.00816 6.36277 4.99703 6.35716 4.98734 6.34955C4.97765 6.34193 4.96961 6.33246 4.9637 6.3217C4.95779 6.31094 4.95413 6.2991 4.95294 6.28691C4.95175 6.27471 4.95305 6.2624 4.95676 6.25071C4.97138 6.20244 5.02658 6.17563 5.07691 6.19011C6.3311 6.52411 7.61861 6.72015 8.91613 6.77469C10.2098 6.81861 11.5045 6.72656 12.7786 6.5001C13.4172 6.39284 14.0466 6.255 14.6663 6.08553C15.2824 5.92246 15.8864 5.71727 16.4739 5.47144C16.7606 5.35111 17.0395 5.21319 17.309 5.05848C17.5666 4.91635 17.8036 4.74205 18.0125 4.54147C18.104 4.45351 18.1803 4.35268 18.2371 4.24381C18.2855 4.15844 18.3081 4.06106 18.3021 3.96332C18.2916 3.86159 18.2553 3.76416 18.1965 3.68014C18.1263 3.57305 18.0418 3.47581 17.9454 3.39107C17.9104 3.35977 17.8822 3.3217 17.8626 3.27921C17.843 3.23672 17.8323 3.19071 17.8313 3.14399C17.8303 3.09728 17.839 3.05086 17.8567 3.00757C17.8745 2.96429 17.901 2.92506 17.9346 2.89229C18.0042 2.82464 18.0972 2.78586 18.1946 2.78386C18.2921 2.78187 18.3867 2.81682 18.459 2.88157L18.4655 2.89068Z" fill="#494949"/>
</svg>
