<svg width="16" height="16" viewBox="0 0 16 16" fill="none" xmlns="http://www.w3.org/2000/svg">
<path d="M0.924522 9.82445C0.867182 9.8248 0.810347 9.81368 0.757337 9.79175C0.704326 9.76982 0.656203 9.73751 0.615776 9.69672C0.575349 9.65593 0.543429 9.60746 0.52188 9.55416C0.500331 9.50085 0.489585 9.44378 0.490268 9.38626C0.497977 9.05182 0.52303 8.71931 0.583415 8.3926C0.615534 8.20573 0.696475 7.76561 0.997112 7.04582C1.16731 6.62854 1.36518 6.22317 1.58939 5.83242C1.76284 5.51796 1.77761 5.49283 1.7577 5.36652C1.74999 5.3066 1.73008 5.23829 1.71016 5.15774C1.64014 4.89121 1.59308 4.61913 1.56948 4.34451C1.55663 4.16602 1.54443 3.99976 1.54443 3.83866V3.83158C1.54443 3.8058 1.56434 3.10663 1.87847 2.43195C2.3776 1.37192 3.67009 0.931798 4.61568 0.604445C5.54907 0.284826 6.28974 0.198477 7.00986 0.118572H7.02271C7.90278 0.0180459 8.60298 -0.0683028 9.53637 0.0779748C10.2366 0.186233 10.7087 0.372463 11.5766 0.712704C12.8164 1.19858 13.5616 1.49242 13.9085 2.19739C14.0408 2.4719 14.2091 2.99837 14.2213 3.57188C14.2213 3.72525 14.2085 3.8464 14.1962 3.99976L14.1815 4.0932C14.1365 4.48628 14.0813 4.73244 14.0408 4.90578C14.0209 5.00695 14.0035 5.07204 13.9958 5.13776C13.9759 5.33108 14.0279 5.41936 14.2091 5.68614C14.4018 5.96581 14.6607 6.346 14.8489 7.02584C14.9819 7.50656 15.0346 7.96473 15.0622 8.20637C15.1027 8.56595 15.1226 8.93841 15.1226 9.30636C15.1226 9.54478 14.9292 9.73166 14.6883 9.73166H14.6806C14.6238 9.73141 14.5676 9.71983 14.5153 9.6976C14.463 9.67536 14.4156 9.64291 14.3759 9.60213C14.3362 9.56135 14.305 9.51307 14.2841 9.46008C14.2632 9.40708 14.253 9.35045 14.2541 9.29347C14.2541 8.95838 14.2412 8.62652 14.2014 8.29917C14.1763 8.07749 14.1288 7.66508 14.0157 7.25202C13.9118 6.85892 13.7329 6.48975 13.489 6.16493C13.2834 5.86529 13.0695 5.55275 13.1299 5.03208C13.1427 4.91867 13.1626 4.81814 13.1877 4.70473C13.2282 4.53848 13.2757 4.33227 13.3162 3.98494L13.3284 3.8915C13.3432 3.75296 13.356 3.67241 13.356 3.58477C13.3483 3.12661 13.2083 2.72644 13.135 2.57758C12.9423 2.1845 12.422 1.97121 11.2631 1.5182C10.4023 1.17796 10.0085 1.02459 9.40339 0.931798C8.58307 0.805497 7.9683 0.878958 7.12292 0.97175H7.11007C6.4028 1.0523 5.74243 1.13285 4.89705 1.41961C4.05102 1.70443 3.002 2.06658 2.65576 2.79925C2.5091 3.12741 2.42333 3.47964 2.40266 3.83866C2.40266 3.97205 2.41036 4.11318 2.42257 4.25945C2.45019 4.57907 2.50287 4.77239 2.54334 4.94638C2.57096 5.04433 2.59087 5.13776 2.60308 5.23829C2.66346 5.66617 2.52278 5.91297 2.33713 6.25257C2.20416 6.49164 2.02365 6.81964 1.79046 7.37317C1.52965 8.01241 1.45642 8.38487 1.43137 8.53824C1.37717 8.81783 1.35027 9.10207 1.35107 9.38691C1.3528 9.44405 1.34302 9.50096 1.32233 9.55422C1.30163 9.60749 1.27045 9.65603 1.23063 9.69693C1.19081 9.73784 1.14318 9.77027 1.09059 9.79229C1.03799 9.81431 0.981513 9.82482 0.924522 9.82445Z" fill="#494949"/>
<path d="M7.99592 15.5132C7.25589 15.5132 4.13646 15.4732 1.83029 14.8108C1.65684 14.7586 1.11788 14.6123 0.696474 14.1393C0.430525 13.8397 0.151729 13.3383 0.116398 11.9116C0.0842786 10.4869 0.0637222 9.61824 0.683626 9.16008C1.29582 8.69934 2.05641 8.99125 2.85682 9.29862C3.06239 9.37917 3.27566 9.45972 3.50435 9.54027C6.0482 10.3986 9.72973 10.3329 12.4502 9.37917C12.5627 9.33858 12.6834 9.29347 12.7965 9.25352C13.5943 8.95903 14.5027 8.61879 15.1027 9.1401C15.4007 9.39915 15.4161 9.65884 15.4489 10.4386C15.4618 10.733 15.4765 11.1384 15.5086 11.6797L15.5215 11.9187C15.5742 12.7519 15.6018 13.1727 15.3159 13.6586C15.014 14.167 14.5631 14.419 14.2419 14.5672C12.3744 15.4204 8.84131 15.5061 8.14881 15.5132H7.99592ZM1.20332 9.85216C0.949574 10.039 0.957283 10.7537 0.984906 11.891C1.01703 13.1927 1.2637 13.4646 1.344 13.56C1.56948 13.8113 1.85084 13.9125 2.07118 13.9782C4.52318 14.6806 8.10898 14.6452 8.14367 14.6452C8.5503 14.64 12.1412 14.5724 13.8828 13.7791C14.1089 13.6734 14.3947 13.5201 14.5675 13.2178C14.7153 12.9665 14.7089 12.7397 14.6556 11.9716L14.6427 11.7331C14.6136 11.3131 14.5937 10.8924 14.583 10.4714C14.5675 10.1518 14.5553 9.87214 14.5354 9.79223C14.3144 9.61309 13.6142 9.87278 13.1029 10.0661C12.9821 10.1112 12.8614 10.1518 12.7412 10.1995C9.85563 11.2189 5.94349 11.2846 3.23069 10.3657C3.00108 10.289 2.77419 10.2043 2.5504 10.1119C1.95106 9.87987 1.43136 9.67882 1.20332 9.85216Z" fill="#494949"/>
</svg>
