<svg xmlns="http://www.w3.org/2000/svg" viewBox="0 0 1302.2 1345.1"><path d="M211.2 1193l62.4 76.3h-44l-55.9-67.5v67.5h-35.3v-143.7h35.3v65.1h.4l44.3-65.1h38.7l-45.9 67.4zM392.9 1125.6h-40.7l-56.8 143.7h37.2l10.5-28.4h63l11.6 28.4h37.8l-62.6-143.7zm-19.8 34.5l22.7 55.6h-43.3l20.6-55.6zM637.1 1269.3h-29.3l-77.9-89v89H495v-143.7h32l75.4 84.7v-84.7h34.7v143.7zM824.3 1166.7l-2.3-1.1c-16.3-7.8-34.1-12-50.1-12-31.6 0-51.4 17.3-51.4 45.1 0 24.9 19.4 42.5 46.5 42.5 8.7 0 16.9-1.7 25.2-5.1v-16.8H772v-26.8h55.9v59.2c-14 12-36.6 19.4-60.3 19.4-48.9 0-83.6-30.6-83.6-73.7 0-44 34.2-73.7 85-73.7 12.2 0 25.2 1.7 36.4 4.8 7 1.9 10.3 3.2 19 6.9v31.3h-.1zM1037.6 1197.6c0-41.7-35.3-74-80.6-74-45.7 0-80.8 32.2-80.8 74 0 41.3 35.1 73.5 80.1 73.5 46.1.1 81.3-31.8 81.3-73.5zm-36.3.9c0 25.3-18.5 43.6-44.1 43.6-26.7 0-44.6-17.7-44.6-43.8 0-27 17.4-44 44.2-44 27.2-.1 44.8 17.2 44.5 44.2zM1193.8 1269.3h-107.4v-143.7h35.5v116.9h71.9v26.8zM222.8 762.9c-33 0-59.9 26.9-59.9 59.9 0 33.1 26.9 59.9 59.9 59.9s59.9-26.9 59.9-59.9-26.9-59.9-59.9-59.9zm0 127.8c-37.4 0-67.8-30.4-67.8-67.9 0-37.4 30.4-67.8 67.8-67.8s67.8 30.4 67.8 67.8-30.4 67.9-67.8 67.9z"/><path d="M209.6 814.6h4c3 0 5.6-.1 7.6-.4 5.9-.8 9.7-5.4 9.7-11.6 0-4.3-2.3-8.3-5.6-9.9-2.7-1.3-6.1-1.8-12.5-1.8h-3.2v23.7zm7.9-32.9c14.9 0 24.2 8 24.2 20.9 0 8.8-4.3 15.3-12.3 18.5 2.9 2 4 3 6.3 5.8 3.2 3.7 5 6.4 10 14.9 2.5 4.2 4.6 7.3 6.2 9.6l3.2 4.5.7.9h-12.5l-.7-1-2.6-4c-.4-.8-1.3-2.1-2.4-4-2.8-4.5-5.5-8.8-7.1-11.1-3.5-5.1-6.2-8.3-9.2-10.5-2.5-1.9-4.1-2.2-8.8-2.2h-2.8v32.7h-10.5v-75.1h18.3v.1z"/><path d="M1110.5 207.6c.2-3.2-1.2-5.9-3.5-8.2-6.6-6.8-15.2-9.5-24.3-10.8-2.8-.4-4.7 1.9-3.7 4.7 1.2 3.2 2.6 6.6 5 9 6.1 6.2 14.1 8.4 22.4 9.3 3.7.3 4.2-.3 4.1-4zM943.2 606c4.3-4.7 8.6-9.2 12.6-13.8 6.4-7.2 12.6-14.4 18.9-21.6 1.2-1.3 1.5-2-.5-3-13.7-7-27.4-14-41-21.1-2-1.1-2.8-.6-4 .9-4.5 5.3-9 10.5-13.6 15.8-3.3 3.7-6.7 7.3-10.2 11.2 11.6 11.8 24.1 22 37.8 31.6zm-81 354.2c0-1.1.1-2 0-2.8-1-13.6-.1-27 2.3-40.5 1.7-9.5 2.7-19.1 3.5-28.7 1.4-16.4-1.8-32.4-5.2-48.4-2.3-10.9-5.2-21.7-8.5-32.3-2-6.7-3.1-8.6-9.8-6.5-.2.1-.4 0-.5.1-7.2 1.6-13.5 4.7-17.6 11-3.5 5.6-4.6 12.2-4.9 18.7-.4 7-.3 14.1-.1 21.1.4 8.4 1.1 16.7 1.8 25.1.6 6.9 1.3 13.8 2 20.7.5 5.6.9 11.3 1.5 16.9 1 9.4 2.1 18.8 3.5 28.1.5 3.7 1.2 7.3 4 10.4 7.9 8.5 17.8 7.9 28 7.1zm211-659.3c.1-5.9.1-5.9-4.4-6.2-7.1-.6-14.2-1.3-21.3-2-1.6-.2-2.3.5-2.5 2-1.2 5.9-2.3 11.9-3.5 17.8-2.1 10-4 20-6.5 29.9-2.4 9.5-5.2 18.9-8.3 28.2-4.5 13.2-8.9 26.5-14.1 39.4-8.7 21.7-19 42.6-30.8 62.7-1.2 2-.5 2.7 1.2 3.5 3.1 1.4 6.1 3 9.2 4.5 9.7 4.7 19.4 9.5 29 14.3 1.3.7 2.1 1 2.9-.8 5.3-12.6 10.9-25.1 16-37.8 3.6-9.1 6.5-18.5 9.4-27.8 2.1-6.8 3.8-13.7 5.6-20.5 1.5-5.5 2.8-11.1 4-16.7 1.1-4.8 2.3-9.6 3.2-14.5 1.2-5.8 2.2-11.7 3.2-17.5 1-6 2.1-12.1 3-18.2 1.1-7.9 2-15.9 2.9-23.8.5-6.1 1.2-12 1.8-16.5zm36.2-273.2c3.7 4.2 6.7 8.9 8.1 14.4 1.8 7.2 3.4 14.5 2.3 21.9-1.7 11-3.5 21.9-5.6 32.8-1.6 8-3.9 15.8-5.7 23.8-1.7 7.8-3.3 15.6-4.5 23.4-.4 2.7.1 5.6 2.6 7.7 2.7 2.1 5.4 4.3 7.6 6.8 5.7 6.3 11.3 12.6 16.8 19.1 8.9 10.6 17.5 21.2 26.2 31.9 10.3 12.5 20.5 25.1 30.6 37.8 3.7 4.6 5 10.2 5.3 15.8.4 7.1 0 14.2-.8 21.3-.5 4.7-2.3 9.4-3.8 13.9-.7 2-1.9 4-3.5 5.3-6.7 5.9-14.7 9.6-23.6 10.5-9.2.9-15.9-3.8-21.2-10.8-5.3-7-11.7-12.5-20.1-15.5-4.6-1.6-8 .6-8.3 5.4-.9 15-1.5 30-2.7 45-.9 10.8-2.1 21.5-3.6 32.3-1.2 9.1-3 18-4.6 27.1-1.6 9-3.2 18-5.2 26.9-1.7 7.7-3.7 15.3-5.6 22.9-1.8 6.9-3.5 13.7-5.4 20.5-2.1 7.7-4.5 15.3-6.8 22.8-2.1 6.9-4.4 13.8-6.7 20.8-.6 2 .4 3 2 4 7.8 5.1 15.7 10.2 23.4 15.5 7.7 5.3 12.7 12.9 16.4 21.3 3.1 7 5.4 14.3 7.6 21.6 2.2 7.4 3.9 15 5.7 22.6 2.5 10.1-3.4 21.3-13.6 26.7-10.3 5.5-17.2.3-22.1-8.6-1.2-2.3-2.4-4.7-3.7-7-.4.1-.7.1-1 .2v8.9c-.1 16.6-8.5 27.9-22.7 35.4-4 2.1-8.3 2-12.3-.1-4.8-2.5-8.6-6-11.7-10.4-3.1-4.6-1.7-9.1-.1-13.6 1.1-3 2.3-6 3.1-9.1 1.2-4.4.1-8.5-2.5-12.2-4-5.8-8.9-10.6-14.7-14.5-6.5-4.3-9.8-2.7-13 4.3-3.9 8.6-6.7 17.7-10 26.6-4.2 11.4-8.4 22.8-12.8 34-4.6 11.4-9.4 22.8-14.4 34-7.7 17.2-17.2 33.4-29.5 47.8-3.2 3.7-6.9 7-9.7 11-1.7 2.3-2.5 5.5-2.8 8.4-1.7 21.7-2.6 43.5-2.1 65.3.3 11 1 22 1.8 33 1.1 13.4 2.4 26.8 4 40.1.4 3.2 1.9 6.3 3.4 9.2 1.9 3.7 5.1 5.5 9.5 5.5 20.1-.2 40.1-.2 60.2-.2 8.9 0 17.8-.2 26.7.3 10.4.5 20.8 1 31.1 2.4 11.8 1.7 23.2 5.1 33.1 12.1 6.8 4.8 12.8 10.8 14.5 19.2 2.3 10.8.7 18.1-10.7 24.2-9.6 5.2-20.1 7.2-30.9 7.6-6.7.2-13.5 0-20.1 0-.2.3-.3.7-.4 1 1.7 2.1 3.5 4.1 5.3 6.3 5.6 7 8.4 14.8 6.4 23.7-1.5 7-6.1 12.1-12.2 15.7-4.5 2.6-9.4 3.7-14.6 3.7-28.7.2-57.5.2-86.3.3-8.1 0-16.2.3-24.3.4-38 .3-76.1.7-114.1.8-11 .1-20.1-4.9-28.1-12-9.2-8.2-15.5-18.5-19.3-30.2-1-3.4-1.3-7.1-1.6-10.6-.9-11.7-1.6-23.3-2.3-35-.4-6.2-.4-12.5-.7-18.7-1-15.8-1.8-31.5-3.2-47.3-.9-10.3-2-20.6-4-30.7-1.7-8.6-5.1-16.7-10-24.1-1.2-1.8-2.6-2.6-4.8-2.5-5.7.1-11.4.1-17-.3-8.6-.5-16.7-2.6-24.5-6.3-.8-.4-2.3-.3-3 .2-12.4 9.3-24.8 18.7-37.1 28.1-14.6 11.1-29.2 22.3-43.8 33.2-13.1 9.8-26 19.7-39.4 28.9-18.9 12.8-38 25.3-57.4 37.2-13.5 8.2-27.6 15.7-41.9 22.5-13.9 6.7-28.2 12.4-42.6 18.1-12.3 4.8-24.9 9.1-37.5 13.3-10.2 3.3-20.7 6.2-31 9.1-9.9 2.8-19.7 5.8-29.7 8.3-9.5 2.4-19.1 4.4-28.7 6.5-9.2 2-18.2 4.3-27.5 5.8-10.3 1.7-20.6 3.1-31 4-12 1-24.1 1.6-36.2 1.6-11.1 0-22.4 0-33.3-1.9-12.8-2.2-24.6-7.7-32.3-19-6.9-10.1-5.2-21.9 7.1-27.5 7.1-3.3 14.6-5.7 22.2-7.8 10-2.8 20.2-4.9 30.4-7.1 7-1.5 14.1-2.6 21.2-4.1 7.9-1.7 15.7-3.7 23.5-5.6 7.5-1.8 14.9-3.5 22.4-5.4 8.3-2.2 16.6-4.5 24.9-6.9 8.6-2.5 17.2-5 25.6-7.8 9.2-3 18.5-6 27.4-9.8 13.2-5.5 26.4-11.1 39.1-17.4 19.8-9.7 38.6-21.2 56.6-34 20.1-14.2 38.6-30.1 55.2-48.3 13.5-14.8 24.4-31.4 32.2-49.9 5-11.8 9.3-24.1 13.3-36.3 2.4-7.3 3.6-15.1 5.4-22.7 1.5-6.6 3.1-13.2 4.4-19.9 1.5-7 2.8-14.1 4.2-21.2 1.1-5.7 2.3-11.4 3.4-17.2.9-5.1 1.8-10.2 2.8-15.2 1-5.5 2.2-10.9 3.3-16.3 1-4.8 1.9-9.5 2.9-14.3 1.4-6.3 2.8-12.7 4.4-19 1.7-6.9 3.5-13.7 5.4-20.6 2.1-7.4 4.1-14.8 6.5-22 3.4-9.9 7-19.8 11.1-29.4 6.7-16.2 14.7-31.8 23.8-46.7 11.2-18.4 24.2-35.7 38.8-51.7 13-14.2 27.1-27.3 42.6-38.8 20.1-14.9 41.7-27 65.1-35.8 9.6-3.6 19.4-6.7 29.4-9.2 11.2-2.8 22.5-5.2 33.9-6.9 6.4-1 13.1-.5 19.6-.4 14.9.3 29.8 1.1 44.8.9 8.2-.1 16.5-1.2 22.9-7.3 3.2-3 6.1-6.4 9.4-9.2 6.8-5.7 13.9-11.1 20.7-16.7 1-.8 1.9-2.6 1.9-3.9 0-10.9-.2-21.7-.4-32.5-.2-16.5-.6-33-.7-49.5 0-3.8-1.3-6.7-3.5-9.5-4.6-6-10.7-10.2-16.5-14.9-7.5-5.9-15.3-11.6-22.4-18-10-9-19.9-18.2-29.2-28-7.8-8.1-14.1-17.4-18.3-28-.6-1.6-1.2-3.3-1.5-5-1.2-6.3 2-9.2 7.7-10.7 6.4-1.7 12.9-1.1 19.4-.4 13.5 1.6 26.5 5 39.6 8.6 13.9 3.9 27.3 9 40 15.7 4.6 2.4 9.5 4.3 14.4 6.3 2.6 1.1 5.3.9 7.6-1.1 6.8-5.6 14.4-10 22.9-12.6 4.6-1.4 9.4-2.3 14.2-3.1 4.7-.7 9.5-.8 14.2-1.3.9-.1 2.1-1.2 2.4-2 8.6-20.4 18.2-40.3 30.2-58.8 5.7-8.8 12.3-16.9 22.4-21.2 1.3-.6 2.6-1.2 3.8-1.8 3.8-.2 6.9-.2 10.1-.2z" fill-rule="evenodd" clip-rule="evenodd"/></svg>