<svg width="1283" height="372" viewBox="0 0 1283 372" fill="none" xmlns="http://www.w3.org/2000/svg">
<path fill-rule="evenodd" clip-rule="evenodd" d="M0 371.166V0.822998H119.039C119.039 0.822998 153.428 0.822998 171.945 53.7291C219.561 193.93 224.851 212.448 224.851 212.448C224.851 212.448 235.432 178.059 277.757 53.7291C296.274 0.822998 330.663 0.822998 330.663 0.822998H449.702V371.166H330.663V172.768H317.437L251.304 371.166H198.398L132.265 172.768H119.039V371.166H0Z" fill="#4DB45F"/>
<path fill-rule="evenodd" clip-rule="evenodd" d="M502.621 0.822998V371.166H608.434C608.434 371.166 634.887 371.166 648.113 344.713C719.537 201.866 740.699 159.541 740.699 159.541H753.926V371.166H872.964V0.822998H767.152C767.152 0.822998 740.699 3.46831 727.473 27.2761C666.63 148.96 634.887 212.448 634.887 212.448H621.66V0.822998H502.621Z" fill="#4DB45F"/>
<path fill-rule="evenodd" clip-rule="evenodd" d="M925.858 172.777V371.175H1044.9V265.363H1150.71C1208.91 265.363 1259.17 225.683 1275.04 172.777H925.858Z" fill="#4DB45F"/>
<path fill-rule="evenodd" clip-rule="evenodd" d="M1150.71 0.822998H904.701C917.928 82.8275 997.287 159.541 1084.58 159.541H1280.33C1282.98 151.606 1282.98 141.024 1282.98 133.088C1282.98 59.0198 1224.78 0.822998 1150.71 0.822998Z" fill="url(#paint0_linear_601:2425)"/>
<defs>
<linearGradient id="paint0_linear_601:2425" x1="904.019" y1="80.1822" x2="1282.98" y2="80.1822" gradientUnits="userSpaceOnUse">
<stop stop-color="#00B4E6"/>
<stop offset="1" stop-color="#088CCB"/>
</linearGradient>
</defs>
</svg>
