<svg width="15" height="15" viewBox="0 0 15 15" fill="none" xmlns="http://www.w3.org/2000/svg">
<path fill-rule="evenodd" clip-rule="evenodd" d="M7.6153 0C3.94883 0 0.976563 2.97226 0.976562 6.63874C0.976562 10.3052 3.94883 13.2775 7.6153 13.2775C9.20181 13.2775 10.6583 12.721 11.8003 11.7925L14.013 13.9994C14.1923 14.1783 14.4826 14.1779 14.6615 13.9986C14.8403 13.8193 14.8399 13.529 14.6606 13.3501L12.4709 11.166C13.5771 9.9801 14.254 8.38847 14.254 6.63874C14.254 2.97226 11.2818 0 7.6153 0ZM1.89366 6.63874C1.89366 3.47876 4.45532 0.917093 7.6153 0.917093C10.7753 0.917093 13.3369 3.47876 13.3369 6.63874C13.3369 9.79872 10.7753 12.3604 7.6153 12.3604C4.45532 12.3604 1.89366 9.79872 1.89366 6.63874Z" fill="black"/>
</svg>
