<svg width="26" height="26" viewBox="0 0 26 26" fill="none" xmlns="http://www.w3.org/2000/svg">
<path d="M5.97622 6.92345C6.28169 7.22892 6.77622 7.22892 7.08088 6.92345C7.38558 6.61797 7.38558 6.12345 7.08088
5.81879L5.42389 4.16095C5.11842 3.85547 4.62389 3.85547 4.31919 4.16095C4.01372 4.46642 4.01372 4.96095 4.31919
5.26565L5.97622 6.92345ZM6.44652 18.6172L4.8051 20.2586C4.50277 20.5609 4.50277 21.0508 4.8051 21.3531C5.10743 21.6555
5.5973 21.6555 5.89963 21.3531L7.54105 19.7117C7.84338 19.4094 7.84338 18.9195 7.54105 18.6172C7.23872 18.3149 6.74889
18.3148 6.44652 18.6172ZM13.1575 4.40625C13.5887 4.40625 13.9387 4.05625 13.9387 3.625V1.28125C13.9387 0.85 13.5887
0.5 13.1575 0.5C12.7262 0.5 12.3762 0.85 12.3762 1.28125V3.625C12.3762 4.05625 12.7262 4.40625 13.1575 4.40625ZM20.6739
6.5781L22.3153 4.93668C22.6176 4.63435 22.6176 4.14449 22.3153 3.84216C22.013 3.53983 21.5231 3.53983 21.2207
3.84216L19.5793 5.48358C19.277 5.78591 19.277 6.27578 19.5793 6.5781C19.8817 6.88047 20.3716 6.88047 20.6739
6.5781ZM3.78247 12.2188H1.43872C1.00747 12.2188 0.657471 12.5688 0.657471 13C0.657471 13.4313 1.00747 13.7812 1.43872
13.7812H3.78247C4.21372 13.7812 4.56372 13.4313 4.56372 13C4.56372 12.5688 4.21372 12.2188 3.78247 12.2188ZM13.1575
21.5938C12.7262 21.5938 12.3762 21.9438 12.3762 22.375V24.7188C12.3762 25.15 12.7262 25.5 13.1575 25.5C13.5887 25.5
13.9387 25.15 13.9387 24.7188V22.375C13.9387 21.9438 13.5887 21.5938 13.1575 21.5938ZM24.8762 12.2188H22.5325C22.1012
12.2188 21.7512 12.5688 21.7512 13C21.7512 13.4313 22.1012 13.7812 22.5325 13.7812H24.8762C25.3075 13.7812 25.6575
13.4313 25.6575 13C25.6575 12.5688 25.3075 12.2188 24.8762 12.2188ZM20.3387 19.0766C20.0332 18.7711 19.5387 18.7711
19.234 19.0766C18.9285 19.3821 18.9285 19.8766 19.234 20.1812L20.8911 21.8383C21.1965 22.1438 21.6911 22.1438 21.9957
21.8383C22.3004 21.5328 22.3012 21.0383 21.9957 20.7336L20.3387 19.0766ZM13.1575 5.96405C9.27152 5.96405 6.12152 9.11405
6.12152 13C6.12152 16.8859 9.27152 20.0359 13.1575 20.0359C17.0434 20.0359 20.1934 16.8859 20.1934 13C20.1934 9.11405
17.0434 5.96405 13.1575 5.96405Z" fill="#0061FE"/>
</svg>
