<svg width="185" height="38" viewBox="0 0 185 38" fill="none" xmlns="http://www.w3.org/2000/svg">
<path d="M53.9288 0.495605H60.4224V36.3724H53.9288V33.6288C52.8259 34.7257 51.5305 35.6102 50.1074 36.2381C48.8027 36.7729 47.4044 37.0419 45.9945 37.0292C44.3561 37.036 42.7352 36.6931 41.2399 36.0235C39.7446 35.3538 38.4094 34.3729 37.3235 33.1462C34.8742 30.5344 33.5597 27.0585 33.6678 23.4796C33.5237 19.8674 34.7915 16.3409 37.2025 13.6473C38.2772 12.4295 39.6018 11.4576 41.086 10.798C42.5702 10.1383 44.1792 9.80634 45.8033 9.82468C47.3067 9.81231 48.7965 10.1096 50.18 10.6981C51.598 11.3273 52.8815 12.2239 53.9602 13.3388L53.9288 0.495605ZM47.0965 15.8138C46.1625 15.7973 45.2358 15.9803 44.3782 16.3506C43.5206 16.7209 42.7519 17.2699 42.1235 17.961C40.7537 19.4375 40.0156 21.3912 40.067 23.4046C39.9991 25.4428 40.7381 27.4255 42.1235 28.922C42.7527 29.6189 43.524 30.173 44.3854 30.5469C45.2467 30.9209 46.1782 31.1059 47.1171 31.0897C48.0675 31.1171 49.0127 30.9406 49.8892 30.5718C50.7656 30.2031 51.5528 29.6508 52.1977 28.9522C52.8901 28.2029 53.4281 27.3245 53.7809 26.3672C54.1338 25.41 54.2946 24.3926 54.2542 23.3731C54.292 22.3712 54.1295 21.3718 53.7764 20.4333C53.4233 19.4949 52.8866 18.6363 52.1977 17.9078C51.5352 17.2216 50.7348 16.6836 49.8493 16.3291C48.9638 15.9746 48.0132 15.8118 47.0602 15.8513" fill="white"/>
<path d="M76.1819 10.4815H82.6851V13.1428C83.8738 12.0785 85.2205 11.2052 86.6771 10.5541C87.8402 10.0736 89.0865 9.82701 90.3449 9.82827C91.5592 9.80517 92.7653 10.0312 93.8888 10.4925C95.0123 10.9538 96.0294 11.6404 96.8771 12.5101C97.6836 13.4305 98.2987 14.5022 98.6867 15.6628C99.0746 16.8233 99.2276 18.0495 99.1368 19.2698V36.3723H92.7231V25.0715C92.8065 23.0058 92.6653 20.9373 92.3021 18.9021C92.086 17.9927 91.5758 17.1801 90.8505 16.5904C90.1339 16.047 89.2554 15.7603 88.3561 15.7763C87.0999 15.75 85.8845 16.2228 84.9763 17.0912C83.9726 18.0823 83.2899 19.3521 83.0166 20.736C82.7713 22.4746 82.6786 24.2313 82.7396 25.986V36.3736H76.1819V10.4815Z" fill="white"/>
<path d="M122.312 0.495605H128.805V36.3724H122.312V33.6288C121.212 34.7251 119.92 35.6096 118.5 36.2381C117.195 36.7709 115.797 37.0398 114.387 37.0292C112.749 37.036 111.128 36.6931 109.633 36.0234C108.137 35.3538 106.802 34.3729 105.716 33.1462C103.267 30.5342 101.953 27.0583 102.062 23.4796C101.923 19.8682 103.19 16.3438 105.596 13.6473C106.672 12.4285 107.998 11.4561 109.484 10.7966C110.97 10.1371 112.58 9.80602 114.206 9.82589C115.706 9.81433 117.192 10.1116 118.573 10.6993C119.992 11.326 121.276 12.2229 122.353 13.34L122.312 0.495605ZM115.479 15.8138C114.541 15.7943 113.609 15.9758 112.746 16.3462C111.883 16.7165 111.109 17.2671 110.476 17.961C109.127 19.4542 108.416 21.4156 108.494 23.4264C108.424 25.4648 109.163 27.4481 110.55 28.9437C111.179 29.6407 111.951 30.1948 112.812 30.5687C113.673 30.9426 114.605 31.1277 115.544 31.1115C116.491 31.1367 117.434 30.959 118.307 30.5903C119.181 30.2217 119.965 29.6706 120.609 28.974C122.006 27.4599 122.745 25.4535 122.665 23.3949C122.702 22.393 122.54 21.3937 122.187 20.4554C121.833 19.517 121.297 18.6584 120.609 17.9296C119.946 17.2434 119.146 16.7053 118.26 16.3509C117.375 15.9964 116.424 15.8336 115.471 15.8731" fill="white"/>
<path d="M159.084 25.3075H138.228C138.456 27.0214 139.32 28.5871 140.647 29.6951C142.067 30.8172 143.842 31.3932 145.65 31.3185C146.811 31.3342 147.962 31.1168 149.037 30.6792C150.112 30.2416 151.087 29.5926 151.907 28.7709L157.372 31.339C156.137 33.1664 154.453 34.6452 152.481 35.6334C150.356 36.6041 148.037 37.0785 145.701 37.0209C143.874 37.0912 142.052 36.7875 140.346 36.1286C138.64 35.4696 137.087 34.4692 135.782 33.1886C134.523 31.9282 133.534 30.4247 132.875 28.7696C132.216 27.1146 131.901 25.3427 131.949 23.562C131.893 21.7504 132.203 19.9461 132.859 18.2568C133.516 16.5675 134.506 15.0278 135.771 13.7297C137.007 12.4479 138.498 11.4378 140.146 10.7638C141.795 10.0899 143.566 9.76676 145.347 9.81513C147.184 9.74772 149.016 10.0606 150.728 10.7342C152.439 11.4078 153.993 12.4276 155.291 13.7297C156.597 15.1165 157.61 16.7528 158.269 18.5404C158.927 20.3281 159.218 22.2302 159.124 24.1329L159.084 25.3075ZM152.59 20.1712C152.166 18.7432 151.271 17.501 150.05 16.6474C148.764 15.7437 147.224 15.2722 145.653 15.301C143.939 15.2679 142.263 15.8025 140.885 16.8216C139.83 17.7274 139.012 18.8772 138.502 20.1712H152.59Z" fill="white"/>
<path d="M158.693 10.4819H166.234L171.351 17.5404L176.432 10.4819H183.85L175.065 22.6671L185 36.3728H177.464L171.309 27.8772L165.176 36.374H157.758L167.59 22.7505L158.693 10.4819Z" fill="white"/>
<path d="M13.4904 1.37891H20.2501L33.709 36.3726H26.7848L24.0521 29.1811H9.77061L6.92423 36.3726H0L13.4904 1.37891ZM16.9114 10.6209L12.2178 22.6669H21.5771L16.9114 10.6209Z" fill="white"/>
<path d="M65.0044 0.495605V6.49563H71.5367L65.0044 9.84525V36.3724H71.6214V0.495605H65.0044Z" fill="white"/>
</svg>
