<svg width="1354" height="585" viewBox="0 0 1354 585" fill="none" xmlns="http://www.w3.org/2000/svg">
<path fill-rule="evenodd" clip-rule="evenodd" d="M431 131C664.667 -29 701.333 -29 935 131C701.333 291 664.667 291 431 131Z" fill="white"/>
<path d="M683 233.666C742.462 233.666 790.666 185.462 790.666 126C790.666 66.537 742.462 18.333 683 18.333C623.537 18.333 575.333 66.537 575.333 126C575.333 185.462 623.537 233.666 683 233.666Z" fill="#FED32B"/>
<path d="M731.065 124.816C731.1 97.9381 709.339 76.1212 682.461 76.0866C655.583 76.0521 633.766 97.8129 633.732 124.691C633.697 151.569 655.458 173.385 682.336 173.42C709.214 173.455 731.031 151.694 731.065 124.816Z" fill="#363636"/>
<path fill-rule="evenodd" clip-rule="evenodd" d="M615 180.333L631.333 164.333C635 160.666 640.667 160.666 644.333 164.333C648 168 648 173.666 644.333 177.333L628 193.333C624.333 197 618.667 197 615 193.333C611.333 190 611.333 184 615 180.333Z" fill="white"/>
<path fill-rule="evenodd" clip-rule="evenodd" d="M720.667 75L737.001 59C740.667 55.3333 746.334 55.3333 750.001 59C753.667 62.6667 753.667 68.3333 750.001 72L733.667 88C730.001 91.6667 724.334 91.6667 720.667 88C717.001 84.3333 717.001 78.3333 720.667 75Z" fill="white"/>
<path fill-rule="evenodd" clip-rule="evenodd" d="M615 180.334L631.333 164.333C635 160.667 640.667 160.667 644.333 164.333C648 168 648 173.667 644.333 177.333L628 193.333C624.333 197 618.667 197 615 193.333C611.333 190 611.333 184 615 180.334Z" fill="white"/>
<path fill-rule="evenodd" clip-rule="evenodd" d="M596.001 117H619.001C624.001 117 628.334 121 628.334 126.333C628.334 131.333 624.334 135.667 619.001 135.667H596.001C591.001 135.667 586.667 131.667 586.667 126.333C587.001 121 591.001 117 596.001 117Z" fill="white"/>
<path fill-rule="evenodd" clip-rule="evenodd" d="M745.668 117H768.668C773.668 117 778.002 121 778.002 126.333C778.002 131.333 774.002 135.667 768.668 135.667H745.668C740.668 135.667 736.335 131.667 736.335 126.333C736.335 121 740.668 117 745.668 117Z" fill="white"/>
<path fill-rule="evenodd" clip-rule="evenodd" d="M628 58.6665L644.333 74.6665C648 78.3332 648 83.9999 644.333 87.6665C640.667 91.3332 635 91.3332 631.333 87.6665L615 71.6665C611.333 67.9998 611.333 62.3332 615 58.6665C618.333 54.9998 624.333 54.9998 628 58.6665Z" fill="white"/>
<path fill-rule="evenodd" clip-rule="evenodd" d="M733.668 164.333L750.001 180.333C753.668 184 753.668 189.666 750.001 193.333C746.334 197 740.668 197 737.001 193.333L720.668 177.333C717.001 173.666 717.001 168 720.668 164.333C724.001 160.666 730.001 160.666 733.668 164.333Z" fill="white"/>
<path fill-rule="evenodd" clip-rule="evenodd" d="M672.999 212.001V189.334C672.999 184.334 676.999 180 682.332 180C687.332 180 691.665 184 691.665 189.334V212.001C691.665 217.001 687.665 221.334 682.332 221.334C677.332 221.334 672.999 217.334 672.999 212.001Z" fill="white"/>
<path fill-rule="evenodd" clip-rule="evenodd" d="M672.999 63.0003V40.0003C672.999 35.0003 676.999 30.667 682.332 30.667C687.332 30.667 691.665 34.667 691.665 40.0003V62.667C691.665 67.667 687.665 72.0003 682.332 72.0003C677.332 72.0003 672.999 68.0003 672.999 63.0003Z" fill="white"/>
<g clip-path="url(#clip0)">
<path d="M1211.84 335.104L951.035 265.223L918.165 387.896L1178.97 457.777L1211.84 335.104Z" fill="#363636"/>
<path d="M1193.5 345.765L961.862 283.698L936.854 377.029L1168.49 439.096L1193.5 345.765Z" fill="white"/>
<path fill-rule="evenodd" clip-rule="evenodd" d="M947.86 335.953L972.355 308.972L974.065 307.034L974.855 309.642L994.245 375.037L1045.86 330.165L1047.14 328.712L1048.16 330.481L1077.02 392.725L1124.62 346.178L1126.18 344.799L1126.85 346.774L1155.14 402.275L1184.09 379.782L1182.81 384.532L1155.43 405.646L1153.94 406.746L1153.2 405.051L1125.47 349.699L1077.59 396.171L1076.03 397.55L1075.09 395.501L1046.15 333.537L994.457 378.688L992.822 380.346L992.236 378.092L972.845 312.698L946.288 341.821L947.86 335.953Z" fill="#CF403F"/>
<path fill-rule="evenodd" clip-rule="evenodd" d="M952.802 317.51L968.367 351.63L1014.28 324.699L1015.69 323.879L1016.43 325.574L1039.88 374.687L1090.04 329.723L1091.6 328.344L1092.26 330.318L1121.73 401.41L1158.13 364.441L1159.41 362.988L1160.43 364.757L1179.82 395.71L1178.77 399.622L1159.05 367.682L1122.3 404.856L1120.66 406.514L1120 404.54L1090.6 333.169L1040.45 378.133L1038.89 379.512L1038.15 377.817L1014.57 328.07L968.377 354.927L967.244 355.822L966.432 354.407L951.679 321.701L952.802 317.51Z" fill="#FED32B"/>
<path fill-rule="evenodd" clip-rule="evenodd" d="M956.92 302.141L979.218 361.127L1029.74 322.552L1031.23 321.452L1031.96 323.147L1061.26 384.907L1108.25 345.085L1109.38 344.19L1110.19 345.606L1142.99 398.721L1187.9 365.531L1186.71 370.002L1143.28 402.092L1142.15 402.987L1141.34 401.571L1108.81 348.53L1061.82 388.353L1060.26 389.731L1059.53 388.037L1030.03 325.923L979.505 364.498L977.945 365.877L977.284 363.903L955.647 306.891L956.92 302.141Z" fill="#363636"/>
</g>
<g clip-path="url(#clip1)">
<path fill-rule="evenodd" clip-rule="evenodd" d="M272.915 301.584L395.937 268.621C404.929 266.211 414.246 271.558 416.643 280.502L440.335 368.923C442.731 377.867 437.335 387.155 428.344 389.565L305.322 422.528C296.331 424.938 287.013 419.591 284.617 410.647L260.924 322.226C258.528 313.282 263.924 303.994 272.915 301.584Z" fill="#E2A93B"/>
<path fill-rule="evenodd" clip-rule="evenodd" d="M272.915 301.584L395.733 268.676C404.724 266.266 413.933 271.206 416.166 279.54L438.606 363.286C440.839 371.62 435.334 380.502 426.342 382.912L303.525 415.82C294.533 418.23 285.325 413.29 283.091 404.956L260.652 321.21C258.419 312.876 263.924 303.994 272.915 301.584Z" fill="#FED32B"/>
<path fill-rule="evenodd" clip-rule="evenodd" d="M421.231 298.444L422.103 301.696L407.617 333.464L407.072 334.699L406.037 334.105L372.009 313.376L345.475 385.19L344.984 386.629L343.69 385.886L297.294 354.964L279.497 391.54L278.68 388.491L295.673 353.002L296.272 351.97L297.308 352.564L343.854 383.228L370.333 311.21L370.878 309.975L371.968 310.772L406.2 331.447L421.231 298.444Z" fill="white"/>
<path fill-rule="evenodd" clip-rule="evenodd" d="M298.546 359.639C301.816 358.763 303.764 355.409 302.893 352.156C302.021 348.904 298.657 346.973 295.387 347.85C292.117 348.726 290.169 352.08 291.04 355.332C291.707 358.639 295.072 360.57 298.546 359.639Z" fill="white"/>
<path fill-rule="evenodd" clip-rule="evenodd" d="M297.729 356.59C299.364 356.152 300.413 354.346 299.977 352.72C299.541 351.094 297.73 350.054 296.095 350.492C294.46 350.93 293.411 352.736 293.847 354.362C294.337 356.192 295.89 357.083 297.729 356.59Z" fill="black"/>
<path fill-rule="evenodd" clip-rule="evenodd" d="M345.297 390.249C348.566 389.373 350.515 386.019 349.643 382.766C348.772 379.514 345.407 377.583 342.138 378.459C338.868 379.336 336.919 382.69 337.791 385.942C338.662 389.194 342.027 391.125 345.297 390.249Z" fill="white"/>
<path fill-rule="evenodd" clip-rule="evenodd" d="M344.534 387.403C346.169 386.965 347.219 385.159 346.783 383.533C346.347 381.907 344.535 380.867 342.901 381.305C341.266 381.743 340.216 383.549 340.652 385.175C341.088 386.802 342.9 387.841 344.534 387.403Z" fill="black"/>
<path fill-rule="evenodd" clip-rule="evenodd" d="M373.166 318.513C376.435 317.636 378.384 314.282 377.513 311.03C376.641 307.778 373.276 305.847 370.007 306.723C366.737 307.599 364.788 310.954 365.66 314.206C366.531 317.458 369.896 319.389 373.166 318.513Z" fill="white"/>
<path fill-rule="evenodd" clip-rule="evenodd" d="M372.404 315.666C374.038 315.228 375.088 313.422 374.652 311.796C374.216 310.17 372.405 309.13 370.77 309.568C369.135 310.006 368.086 311.813 368.521 313.439C368.957 315.065 370.769 316.104 372.404 315.666Z" fill="black"/>
<path fill-rule="evenodd" clip-rule="evenodd" d="M407.685 337.803C410.954 336.927 412.903 333.573 412.031 330.32C411.16 327.068 407.795 325.138 404.526 326.014C401.256 326.89 399.307 330.244 400.179 333.496C401.05 336.749 404.415 338.679 407.685 337.803Z" fill="white"/>
<path fill-rule="evenodd" clip-rule="evenodd" d="M406.921 334.957C408.556 334.519 409.605 332.713 409.17 331.087C408.734 329.461 406.922 328.421 405.287 328.859C403.653 329.297 402.603 331.104 403.039 332.73C403.475 334.356 405.287 335.395 406.921 334.957Z" fill="black"/>
</g>
<g clip-path="url(#clip2)">
<path d="M782.7 492.6C782.7 543.6 741.3 585 690.3 585C639.3 585 598 543.6 598 492.6C598 441.6 639.3 400.2 690.4 400.2C741.4 400.3 782.7 441.6 782.7 492.6Z" fill="#363636"/>
<path d="M758.7 492.6C758.7 530.3 728.1 560.9 690.4 560.9C652.7 560.9 622.1 530.3 622.1 492.6C622.1 454.9 652.7 424.3 690.4 424.3C728.1 424.3 758.7 454.9 758.7 492.6Z" fill="white"/>
<path d="M734.6 492.6C734.6 517 714.8 536.8 690.4 536.8C666 536.8 646.2 517 646.2 492.6C646.2 468.2 666 448.4 690.4 448.4C714.8 448.4 734.6 468.2 734.6 492.6Z" fill="#363636"/>
<path d="M710.5 492.6C710.5 503.7 701.5 512.7 690.3 512.7C679.2 512.7 670.1 503.7 670.1 492.6C670.1 481.5 679.1 472.4 690.3 472.4C701.5 472.5 710.5 481.5 710.5 492.6Z" fill="white"/>
<path d="M690.4 472.5C701.5 472.5 710.6 481.5 710.6 492.7C710.6 503.8 701.6 512.8 690.4 512.8" fill="white"/>
<path d="M773.7 431.2L788.2 416.7L771.9 412.3L767.5 396L753 410.5L756.5 423.8L707.3 473L700.3 459.1L695.7 476.1L691.2 493L708.2 488.5L725.1 483.9L711.2 477L760.5 427.7L773.7 431.2Z" fill="#FED32B"/>
</g>
<g clip-path="url(#clip3)">
<path d="M1179.23 198.696C1180.93 202.434 1179.3 206.787 1175.68 208.456L1157.85 216.729C1154.1 218.432 1149.74 216.805 1148.07 213.197L1126.71 167.47C1125.01 163.732 1126.64 159.379 1130.26 157.71L1148.09 149.438C1151.84 147.734 1156.2 149.362 1157.87 152.969L1179.23 198.696Z" fill="#1F1A17"/>
<path d="M1255.06 85.1238C1248.43 81.3078 1239.8 83.6208 1235.96 90.2405C1232.13 96.8601 1234.4 105.339 1241.07 109.286C1247.7 113.102 1256.33 110.789 1260.16 104.169C1263.96 97.4189 1261.69 88.9399 1255.06 85.1238Z" fill="#1F1A17"/>
<path d="M1151.66 82.2091L1166.66 138.171L1241.47 118.125L1218.3 31.6386C1209.2 50.014 1194.97 65.4321 1176.4 74.6023C1168.32 78.4456 1160.02 80.9494 1151.66 82.2091Z" fill="white"/>
<path d="M1152.29 81.7606L1112.36 92.4618C1096.53 96.7023 1087.14 112.92 1091.37 128.705L1096.61 148.272C1100.84 164.056 1117.08 173.405 1132.91 169.164L1173.33 158.334L1152.29 81.7606Z" fill="#363636"/>
<path d="M1255.96 168.349L1237.54 99.6034L1162.73 119.649L1173.01 158.001C1180.71 154.819 1189.28 152.802 1198.23 152.22C1218.87 150.746 1238.9 156.982 1255.96 168.349Z" fill="white"/>
<path d="M1260.05 172.287C1256.52 173.234 1252.64 170.778 1251.52 166.604L1216.36 35.3749C1215.27 31.3311 1217.24 27.1685 1220.9 26.1872L1227.44 24.4349C1230.97 23.4887 1234.86 25.9438 1235.97 30.1181L1271.14 161.347C1272.22 165.391 1270.25 169.554 1266.59 170.535L1260.05 172.287Z" fill="#FED32B"/>
<path d="M1271.01 161.382L1253.32 95.3764L1233.83 100.598L1251.52 166.604C1252.6 170.648 1256.39 173.269 1260.05 172.287L1266.59 170.535C1270.12 169.589 1272.09 165.426 1271.01 161.382Z" fill="#FED32B"/>
<path d="M1273.14 92.4421C1272.36 92.6524 1271.4 92.2104 1271.15 91.2973C1270.94 90.5146 1271.39 89.5567 1272.3 89.3114L1327.76 74.4521C1328.54 74.2419 1329.5 74.6838 1329.75 75.5969C1329.96 76.3796 1329.51 77.3375 1328.6 77.5828L1273.14 92.4421Z" fill="white"/>
<path d="M1268.88 80.7213C1268.35 80.8615 1267.76 80.7408 1267.36 80.2891C1266.76 79.6116 1266.91 78.5933 1267.49 78.1572L1310.79 40.4114C1311.47 39.8098 1312.49 39.9558 1312.92 40.5379C1313.52 41.2155 1313.38 42.2337 1312.79 42.6698L1269.5 80.4156C1269.27 80.6162 1269.14 80.6512 1268.88 80.7213Z" fill="white"/>
<path d="M1331.68 115.765C1331.42 115.835 1331.28 115.87 1330.99 115.81L1274.62 104.768C1273.73 104.587 1273.22 103.744 1273.44 102.987C1273.62 102.099 1274.47 101.593 1275.23 101.809L1331.6 112.85C1332.49 113.031 1332.99 113.874 1332.78 114.632C1332.62 115.093 1332.2 115.625 1331.68 115.765Z" fill="white"/>
</g>
<path d="M156.29 184.808C161.591 180.721 165.68 175.726 168.708 169.975L223.531 185.413C215.656 206.149 201.117 224.161 181.43 236.118L156.29 184.808Z" fill="#363636"/>
<path d="M89.5033 172.851C99.8015 189.651 120.246 197.976 139.631 192.981L164.771 244.291C164.165 244.443 163.559 244.745 162.953 245.048C112.826 263.06 57.8515 239.599 35.8922 192.224L89.5033 172.851Z" fill="white"/>
<path d="M88.1403 127.746C83.7485 136.07 81.7797 145.757 83.1427 155.444L29.5316 174.818C21.9594 145.303 28.0172 115.032 44.2217 91.2686L88.1403 127.746Z" fill="#D36766"/>
<path d="M173.857 152.115C174.312 145.909 173.555 139.552 171.283 133.498C162.802 109.734 136.602 97.4744 112.826 106.102C107.979 107.918 103.739 110.491 99.9529 113.518L56.0342 77.0411C66.4838 66.5975 79.0536 58.2728 93.7437 52.9753C146.749 33.9042 205.358 61.3 224.44 114.426C230.8 132.135 231.86 150.45 228.68 167.704L173.857 152.115Z" fill="#FED32B"/>
<path d="M49.825 43.2393C22.2622 43.2393 0 60.7967 0 82.4409C0 98.0307 11.6612 111.502 28.4714 117.859C28.1685 118.464 27.8656 119.221 27.4113 119.826C24.0796 125.275 19.2334 129.513 13.6299 132.389C26.3512 133.297 38.1638 129.513 45.8875 121.491C47.2505 121.642 48.462 121.642 49.825 121.642C77.2363 121.642 99.65 104.085 99.65 82.4409C99.4985 60.7967 77.2363 43.2393 49.825 43.2393Z" fill="white"/>
<path d="M84.0512 110.745C53.3081 110.139 28.6228 90.3115 28.6228 65.7915C28.6228 58.2237 31.0459 51.1099 35.1349 44.9042C39.8296 43.8447 44.6758 43.2393 49.8249 43.2393C77.2362 43.2393 99.6499 60.7967 99.6499 82.4409C99.4985 93.6413 93.5922 103.631 84.0512 110.745Z" fill="#DDDDDD"/>
<path d="M92.2293 11C123.73 11 149.324 31.1306 149.324 55.9532C149.324 73.9648 135.996 89.4032 116.612 96.517C116.915 97.2738 117.369 98.0306 117.823 98.7874C121.609 105.144 127.061 109.837 133.725 113.166C119.186 114.226 105.708 109.837 96.7726 100.604C95.2581 100.755 93.7437 100.755 92.2293 100.755C60.729 100.755 35.135 80.6245 35.135 55.8018C35.135 30.9792 60.729 11 92.2293 11Z" fill="white"/>
<path d="M108.585 56.8613C108.585 61.2507 112.22 64.8833 116.612 64.8833C121.003 64.8833 124.638 61.2507 124.638 56.8613C124.638 52.4719 121.003 48.8394 116.612 48.8394C112.22 48.8394 108.585 52.3206 108.585 56.8613Z" fill="#363636"/>
<path d="M84.0513 56.8613C84.0513 61.2507 87.6859 64.8833 92.0778 64.8833C96.4696 64.8833 100.104 61.2507 100.104 56.8613C100.104 52.4719 96.4696 48.8394 92.0778 48.8394C87.6859 48.8394 84.0513 52.3206 84.0513 56.8613Z" fill="#363636"/>
<path d="M59.5173 56.8613C59.5173 61.2507 63.152 64.8833 67.5438 64.8833C71.9357 64.8833 75.5704 61.2507 75.5704 56.8613C75.5704 52.4719 71.9357 48.8394 67.5438 48.8394C63.152 48.8394 59.5173 52.3206 59.5173 56.8613Z" fill="#363636"/>
<path d="M124.638 56.1045H108.737C109.039 52.0179 112.523 48.8394 116.763 48.8394C120.852 48.8394 124.335 52.0179 124.638 56.1045Z" fill="#D36766"/>
<path d="M100.104 56.1045H84.2026C84.5055 52.0179 87.9887 48.8394 92.2292 48.8394C96.3181 48.8394 99.6499 52.0179 100.104 56.1045Z" fill="#D36766"/>
<path d="M75.4189 56.1045H59.5173C59.8202 52.0179 63.3034 48.8394 67.5439 48.8394C71.6328 48.8394 75.1161 52.0179 75.4189 56.1045Z" fill="#D36766"/>
<defs>
<clipPath id="clip0">
<rect width="270" height="127" fill="white" transform="translate(951.035 265.223) rotate(15)"/>
</clipPath>
<clipPath id="clip1">
<rect width="161" height="125" fill="white" transform="translate(256.567 266.965) rotate(-15)"/>
</clipPath>
<clipPath id="clip2">
<rect width="190.2" height="189" fill="white" transform="translate(598 396)"/>
</clipPath>
<clipPath id="clip3">
<rect width="244" height="168" fill="white" transform="translate(1074.42 65.438) rotate(-15)"/>
</clipPath>
</defs>
</svg>
