<svg width="82" height="250" viewBox="0 0 82 250" fill="none" xmlns="http://www.w3.org/2000/svg">
<path d="M3.77029 249.324C4.51598 249.324 5.24493 249.103 5.86495 248.689C6.48497 248.275 6.96821 247.686 7.25358 246.997C7.53894 246.308 7.6136 245.55 7.46813 244.818C7.32265 244.087 6.96356 243.415 6.43628 242.888C5.909 242.361 5.2372 242.002 4.50583 241.856C3.77447 241.711 3.01639 241.785 2.32746 242.071C1.63853 242.356 1.04969 242.839 0.635409 243.459C0.221124 244.079 0 244.808 0 245.554C0 246.554 0.397224 247.513 1.10429 248.22C1.81136 248.927 2.77034 249.324 3.77029 249.324Z" fill="white" fill-opacity="0.4"/>
<path d="M3.77029 214.784C4.51598 214.784 5.24493 214.563 5.86495 214.149C6.48497 213.734 6.96821 213.146 7.25358 212.457C7.53894 211.768 7.6136 211.01 7.46813 210.278C7.32265 209.547 6.96356 208.875 6.43628 208.348C5.909 207.821 5.2372 207.462 4.50583 207.316C3.77447 207.171 3.01639 207.245 2.32746 207.531C1.63853 207.816 1.04969 208.299 0.635409 208.919C0.221124 209.539 0 210.268 0 211.014C0 212.014 0.397224 212.973 1.10429 213.68C1.81136 214.387 2.77034 214.784 3.77029 214.784Z" fill="white" fill-opacity="0.4"/>
<path d="M3.77029 180.243C4.51598 180.243 5.24493 180.022 5.86495 179.608C6.48497 179.193 6.96821 178.605 7.25358 177.916C7.53894 177.227 7.6136 176.469 7.46813 175.737C7.32265 175.006 6.96356 174.334 6.43628 173.807C5.909 173.28 5.2372 172.92 4.50583 172.775C3.77447 172.63 3.01639 172.704 2.32746 172.99C1.63853 173.275 1.04969 173.758 0.635409 174.378C0.221124 174.998 0 175.727 0 176.473C0 177.473 0.397224 178.432 1.10429 179.139C1.81136 179.846 2.77034 180.243 3.77029 180.243Z" fill="white" fill-opacity="0.4"/>
<path d="M3.77029 145.703C4.51598 145.703 5.24493 145.482 5.86495 145.067C6.48497 144.653 6.96821 144.064 7.25358 143.375C7.53894 142.686 7.6136 141.928 7.46813 141.197C7.32265 140.465 6.96356 139.794 6.43628 139.266C5.909 138.739 5.2372 138.38 4.50583 138.235C3.77447 138.089 3.01639 138.164 2.32746 138.449C1.63853 138.734 1.04969 139.218 0.635409 139.838C0.221124 140.458 0 141.187 0 141.932C0 142.932 0.397224 143.891 1.10429 144.598C1.81136 145.305 2.77034 145.703 3.77029 145.703Z" fill="white" fill-opacity="0.4"/>
<path d="M3.77029 111.162C4.51598 111.162 5.24493 110.941 5.86495 110.527C6.48497 110.112 6.96821 109.524 7.25358 108.835C7.53894 108.146 7.6136 107.388 7.46813 106.656C7.32265 105.925 6.96356 105.253 6.43628 104.726C5.909 104.199 5.2372 103.839 4.50583 103.694C3.77447 103.549 3.01639 103.623 2.32746 103.909C1.63853 104.194 1.04969 104.677 0.635409 105.297C0.221124 105.917 0 106.646 0 107.392C0 108.392 0.397224 109.351 1.10429 110.058C1.81136 110.765 2.77034 111.162 3.77029 111.162Z" fill="white" fill-opacity="0.4"/>
<path d="M3.77029 76.6216C4.51598 76.6216 5.24493 76.4005 5.86495 75.9862C6.48497 75.5719 6.96821 74.9831 7.25358 74.2941C7.53894 73.6052 7.6136 72.8472 7.46813 72.1158C7.32265 71.3844 6.96356 70.7126 6.43628 70.1853C5.909 69.6581 5.2372 69.299 4.50583 69.1535C3.77447 69.008 3.01639 69.0827 2.32746 69.368C1.63853 69.6534 1.04969 70.1366 0.635409 70.7566C0.221124 71.3767 0 72.1056 0 72.8513C0 73.8512 0.397224 74.8103 1.10429 75.5173C1.81136 76.2244 2.77034 76.6216 3.77029 76.6216Z" fill="white" fill-opacity="0.4"/>
<path d="M3.77029 42.0811C4.51598 42.0811 5.24493 41.86 5.86495 41.4457C6.48497 41.0314 6.96821 40.4425 7.25358 39.7536C7.53894 39.0647 7.6136 38.3066 7.46813 37.5752C7.32265 36.8439 6.96356 36.1721 6.43628 35.6448C5.909 35.1175 5.2372 34.7584 4.50583 34.613C3.77447 34.4675 3.01639 34.5421 2.32746 34.8275C1.63853 35.1129 1.04969 35.5961 0.635409 36.2161C0.221124 36.8361 0 37.5651 0 38.3108C0 39.3107 0.397224 40.2697 1.10429 40.9768C1.81136 41.6839 2.77034 42.0811 3.77029 42.0811Z" fill="white" fill-opacity="0.4"/>
<path d="M3.77029 7.54053C4.51598 7.54053 5.24493 7.31938 5.86495 6.90509C6.48497 6.49081 6.96821 5.902 7.25358 5.21307C7.53894 4.52414 7.6136 3.76605 7.46813 3.03469C7.32265 2.30332 6.96356 1.63151 6.43628 1.10422C5.909 0.576939 5.2372 0.217847 4.50583 0.0723701C3.77447 -0.0731077 3.01639 0.00155115 2.32746 0.286915C1.63853 0.572279 1.04969 1.05556 0.635409 1.67558C0.221124 2.2956 0 3.02455 0 3.77025C0 4.77019 0.397224 5.72914 1.10429 6.43621C1.81136 7.14327 2.77034 7.54053 3.77029 7.54053Z" fill="white" fill-opacity="0.4"/>
<path d="M28.3317 249.324C29.0764 249.32 29.8033 249.095 30.4206 248.679C31.0379 248.262 31.5179 247.672 31.8001 246.982C32.0822 246.293 32.1539 245.536 32.0061 244.806C31.8583 244.076 31.4976 243.406 30.9695 242.881C30.4414 242.355 29.7695 241.998 29.0387 241.855C28.3079 241.711 27.5509 241.787 26.8632 242.073C26.1755 242.359 25.5879 242.842 25.1745 243.461C24.7611 244.081 24.5405 244.809 24.5405 245.554C24.5405 246.051 24.6387 246.543 24.8295 247.002C25.0203 247.46 25.2999 247.877 25.6522 248.227C26.0045 248.578 26.4226 248.855 26.8824 249.043C27.3423 249.231 27.8348 249.327 28.3317 249.324Z" fill="white" fill-opacity="0.4"/>
<path d="M28.3317 214.784C29.0764 214.78 29.8033 214.555 30.4206 214.138C31.0379 213.721 31.5179 213.131 31.8001 212.442C32.0822 211.753 32.1539 210.995 32.0061 210.265C31.8583 209.535 31.4976 208.865 30.9695 208.34C30.4414 207.815 29.7695 207.458 29.0387 207.314C28.3079 207.17 27.5509 207.246 26.8632 207.532C26.1755 207.818 25.5879 208.301 25.1745 208.921C24.7611 209.54 24.5405 210.269 24.5405 211.013C24.5405 211.51 24.6387 212.002 24.8295 212.461C25.0203 212.92 25.2999 213.336 25.6522 213.687C26.0045 214.037 26.4226 214.314 26.8824 214.503C27.3423 214.691 27.8348 214.786 28.3317 214.784Z" fill="white" fill-opacity="0.4"/>
<path d="M28.3317 180.243C29.0764 180.239 29.8033 180.014 30.4206 179.598C31.0379 179.181 31.5179 178.591 31.8001 177.901C32.0822 177.212 32.1539 176.455 32.0061 175.725C31.8583 174.995 31.4976 174.325 30.9695 173.8C30.4414 173.274 29.7695 172.917 29.0387 172.774C28.3079 172.63 27.5509 172.706 26.8632 172.992C26.1755 173.278 25.5879 173.761 25.1745 174.38C24.7611 175 24.5405 175.728 24.5405 176.473C24.5405 176.97 24.6387 177.462 24.8295 177.92C25.0203 178.379 25.2999 178.796 25.6522 179.146C26.0045 179.497 26.4226 179.774 26.8824 179.962C27.3423 180.15 27.8348 180.246 28.3317 180.243Z" fill="white" fill-opacity="0.4"/>
<path d="M28.3317 145.703C29.0764 145.698 29.8033 145.474 30.4206 145.057C31.0379 144.64 31.5179 144.05 31.8001 143.361C32.0822 142.671 32.1539 141.914 32.0061 141.184C31.8583 140.454 31.4976 139.784 30.9695 139.259C30.4414 138.734 29.7695 138.377 29.0387 138.233C28.3079 138.089 27.5509 138.165 26.8632 138.451C26.1755 138.737 25.5879 139.22 25.1745 139.84C24.7611 140.459 24.5405 141.187 24.5405 141.932C24.5405 142.429 24.6387 142.921 24.8295 143.38C25.0203 143.839 25.2999 144.255 25.6522 144.606C26.0045 144.956 26.4226 145.233 26.8824 145.422C27.3423 145.61 27.8348 145.705 28.3317 145.703Z" fill="white" fill-opacity="0.4"/>
<path d="M28.3317 111.162C29.0764 111.158 29.8033 110.933 30.4206 110.517C31.0379 110.1 31.5179 109.51 31.8001 108.82C32.0822 108.131 32.1539 107.374 32.0061 106.644C31.8583 105.914 31.4976 105.244 30.9695 104.719C30.4414 104.193 29.7695 103.836 29.0387 103.692C28.3079 103.549 27.5509 103.625 26.8632 103.911C26.1755 104.197 25.5879 104.68 25.1745 105.299C24.7611 105.919 24.5405 106.647 24.5405 107.392C24.5405 107.889 24.6387 108.381 24.8295 108.839C25.0203 109.298 25.2999 109.715 25.6522 110.065C26.0045 110.416 26.4226 110.693 26.8824 110.881C27.3423 111.069 27.8348 111.165 28.3317 111.162Z" fill="white" fill-opacity="0.4"/>
<path d="M28.3317 76.6215C29.0764 76.6174 29.8033 76.3928 30.4206 75.976C31.0379 75.5593 31.5179 74.969 31.8001 74.2797C32.0822 73.5904 32.1539 72.833 32.0061 72.103C31.8583 71.373 31.4976 70.7032 30.9695 70.178C30.4414 69.6528 29.7695 69.2958 29.0387 69.152C28.3079 69.0082 27.5509 69.084 26.8632 69.37C26.1755 69.656 25.5879 70.1392 25.1745 70.7588C24.7611 71.3784 24.5405 72.1064 24.5405 72.8512C24.5405 73.3481 24.6387 73.8401 24.8295 74.2989C25.0203 74.7577 25.2999 75.1743 25.6522 75.5246C26.0045 75.875 26.4226 76.1523 26.8824 76.3405C27.3423 76.5288 27.8348 76.6243 28.3317 76.6215Z" fill="white" fill-opacity="0.4"/>
<path d="M28.3317 42.081C29.0764 42.0769 29.8033 41.8523 30.4206 41.4355C31.0379 41.0187 31.5179 40.4285 31.8001 39.7392C32.0822 39.0499 32.1539 38.2925 32.0061 37.5625C31.8583 36.8325 31.4976 36.1626 30.9695 35.6374C30.4414 35.1122 29.7695 34.7552 29.0387 34.6114C28.3079 34.4676 27.5509 34.5435 26.8632 34.8295C26.1755 35.1154 25.5879 35.5987 25.1745 36.2182C24.7611 36.8378 24.5405 37.5659 24.5405 38.3107C24.5405 38.8076 24.6387 39.2996 24.8295 39.7584C25.0203 40.2172 25.2999 40.6337 25.6522 40.9841C26.0045 41.3345 26.4226 41.6118 26.8824 41.8C27.3423 41.9883 27.8348 42.0837 28.3317 42.081Z" fill="white" fill-opacity="0.4"/>
<path d="M28.3317 7.54047C29.0764 7.53635 29.8033 7.3117 30.4206 6.89493C31.0379 6.47815 31.5179 5.88793 31.8001 5.19865C32.0822 4.50937 32.1539 3.7519 32.0061 3.02192C31.8583 2.29193 31.4976 1.62212 30.9695 1.09692C30.4414 0.571716 29.7695 0.214711 29.0387 0.0709138C28.3079 -0.0728831 27.5509 0.00292587 26.8632 0.288892C26.1755 0.574858 25.5879 1.05812 25.1745 1.67769C24.7611 2.29725 24.5405 3.02539 24.5405 3.77019C24.5405 4.26707 24.6387 4.75905 24.8295 5.21785C25.0203 5.67664 25.2999 6.09321 25.6522 6.44359C26.0045 6.79396 26.4226 7.07125 26.8824 7.25949C27.3423 7.44774 27.8348 7.54321 28.3317 7.54047Z" fill="white" fill-opacity="0.4"/>
<path d="M52.8513 249.324C53.597 249.324 54.326 249.103 54.946 248.689C55.566 248.275 56.0493 247.686 56.3346 246.997C56.62 246.308 56.6947 245.55 56.5492 244.818C56.4037 244.087 56.0446 243.415 55.5173 242.888C54.9901 242.361 54.3182 242.002 53.5869 241.856C52.8555 241.711 52.0974 241.785 51.4085 242.071C50.7196 242.356 50.1307 242.839 49.7165 243.459C49.3022 244.079 49.0811 244.808 49.0811 245.554C49.0811 246.049 49.1786 246.539 49.3681 246.997C49.5575 247.454 49.8352 247.87 50.1853 248.22C50.5354 248.57 50.9511 248.848 51.4085 249.037C51.8659 249.227 52.3562 249.324 52.8513 249.324Z" fill="white" fill-opacity="0.4"/>
<path d="M52.8513 214.784C53.597 214.784 54.326 214.563 54.946 214.149C55.566 213.734 56.0493 213.146 56.3346 212.457C56.62 211.768 56.6947 211.01 56.5492 210.278C56.4037 209.547 56.0446 208.875 55.5173 208.348C54.9901 207.821 54.3182 207.462 53.5869 207.316C52.8555 207.171 52.0974 207.245 51.4085 207.531C50.7196 207.816 50.1307 208.299 49.7165 208.919C49.3022 209.539 49.0811 210.268 49.0811 211.014C49.0811 211.509 49.1786 211.999 49.3681 212.457C49.5575 212.914 49.8352 213.33 50.1853 213.68C50.5354 214.03 50.9511 214.308 51.4085 214.497C51.8659 214.687 52.3562 214.784 52.8513 214.784Z" fill="white" fill-opacity="0.4"/>
<path d="M52.8513 180.243C53.597 180.243 54.326 180.022 54.946 179.608C55.566 179.193 56.0493 178.605 56.3346 177.916C56.62 177.227 56.6947 176.469 56.5492 175.737C56.4037 175.006 56.0446 174.334 55.5173 173.807C54.9901 173.28 54.3182 172.92 53.5869 172.775C52.8555 172.63 52.0974 172.704 51.4085 172.99C50.7196 173.275 50.1307 173.758 49.7165 174.378C49.3022 174.998 49.0811 175.727 49.0811 176.473C49.0811 176.968 49.1786 177.458 49.3681 177.916C49.5575 178.373 49.8352 178.789 50.1853 179.139C50.5354 179.489 50.9511 179.767 51.4085 179.956C51.8659 180.146 52.3562 180.243 52.8513 180.243Z" fill="white" fill-opacity="0.4"/>
<path d="M52.8513 145.703C53.597 145.703 54.326 145.482 54.946 145.067C55.566 144.653 56.0493 144.064 56.3346 143.375C56.62 142.686 56.6947 141.928 56.5492 141.197C56.4037 140.465 56.0446 139.794 55.5173 139.266C54.9901 138.739 54.3182 138.38 53.5869 138.235C52.8555 138.089 52.0974 138.164 51.4085 138.449C50.7196 138.734 50.1307 139.218 49.7165 139.838C49.3022 140.458 49.0811 141.187 49.0811 141.932C49.0811 142.427 49.1786 142.918 49.3681 143.375C49.5575 143.833 49.8352 144.248 50.1853 144.598C50.5354 144.948 50.9511 145.226 51.4085 145.416C51.8659 145.605 52.3562 145.703 52.8513 145.703Z" fill="white" fill-opacity="0.4"/>
<path d="M52.8513 111.162C53.597 111.162 54.326 110.941 54.946 110.527C55.566 110.112 56.0493 109.524 56.3346 108.835C56.62 108.146 56.6947 107.388 56.5492 106.656C56.4037 105.925 56.0446 105.253 55.5173 104.726C54.9901 104.199 54.3182 103.839 53.5869 103.694C52.8555 103.549 52.0974 103.623 51.4085 103.909C50.7196 104.194 50.1307 104.677 49.7165 105.297C49.3022 105.917 49.0811 106.646 49.0811 107.392C49.0811 107.887 49.1786 108.377 49.3681 108.835C49.5575 109.292 49.8352 109.708 50.1853 110.058C50.5354 110.408 50.9511 110.686 51.4085 110.875C51.8659 111.065 52.3562 111.162 52.8513 111.162Z" fill="white" fill-opacity="0.4"/>
<path d="M52.8513 76.6216C53.597 76.6216 54.326 76.4005 54.946 75.9862C55.566 75.5719 56.0493 74.9831 56.3346 74.2941C56.62 73.6052 56.6947 72.8472 56.5492 72.1158C56.4037 71.3844 56.0446 70.7126 55.5173 70.1853C54.9901 69.6581 54.3182 69.299 53.5869 69.1535C52.8555 69.008 52.0974 69.0827 51.4085 69.368C50.7196 69.6534 50.1307 70.1366 49.7165 70.7566C49.3022 71.3767 49.0811 72.1056 49.0811 72.8513C49.0811 73.3464 49.1786 73.8367 49.3681 74.2941C49.5575 74.7516 49.8352 75.1672 50.1853 75.5173C50.5354 75.8674 50.9511 76.1452 51.4085 76.3346C51.8659 76.5241 52.3562 76.6216 52.8513 76.6216Z" fill="white" fill-opacity="0.4"/>
<path d="M52.8513 42.0811C53.597 42.0811 54.326 41.86 54.946 41.4457C55.566 41.0314 56.0493 40.4425 56.3346 39.7536C56.62 39.0647 56.6947 38.3066 56.5492 37.5752C56.4037 36.8439 56.0446 36.1721 55.5173 35.6448C54.9901 35.1175 54.3182 34.7584 53.5869 34.613C52.8555 34.4675 52.0974 34.5421 51.4085 34.8275C50.7196 35.1129 50.1307 35.5961 49.7165 36.2161C49.3022 36.8361 49.0811 37.5651 49.0811 38.3108C49.0811 38.8059 49.1786 39.2962 49.3681 39.7536C49.5575 40.211 49.8352 40.6267 50.1853 40.9768C50.5354 41.3269 50.9511 41.6046 51.4085 41.794C51.8659 41.9835 52.3562 42.0811 52.8513 42.0811Z" fill="white" fill-opacity="0.4"/>
<path d="M52.8513 7.54053C53.597 7.54053 54.326 7.31938 54.946 6.90509C55.566 6.49081 56.0493 5.902 56.3346 5.21307C56.62 4.52414 56.6947 3.76605 56.5492 3.03469C56.4037 2.30332 56.0446 1.63151 55.5173 1.10422C54.9901 0.576939 54.3182 0.217847 53.5869 0.0723701C52.8555 -0.0731077 52.0974 0.00155115 51.4085 0.286915C50.7196 0.572279 50.1307 1.05556 49.7165 1.67558C49.3022 2.2956 49.0811 3.02455 49.0811 3.77025C49.0811 4.26537 49.1786 4.75564 49.3681 5.21307C49.5575 5.67051 49.8352 6.0861 50.1853 6.43621C50.5354 6.78631 50.9511 7.06404 51.4085 7.25351C51.8659 7.44299 52.3562 7.54053 52.8513 7.54053Z" fill="white" fill-opacity="0.4"/>
<path d="M77.3919 249.324C78.1376 249.324 78.8665 249.103 79.4865 248.689C80.1065 248.275 80.5898 247.686 80.8752 246.997C81.1605 246.308 81.2352 245.55 81.0897 244.818C80.9442 244.087 80.5852 243.415 80.0579 242.888C79.5306 242.361 78.8588 242.002 78.1274 241.856C77.3961 241.711 76.638 241.785 75.9491 242.071C75.2601 242.356 74.6713 242.839 74.257 243.459C73.8427 244.079 73.6216 244.808 73.6216 245.554C73.6216 246.554 74.0188 247.513 74.7259 248.22C75.4329 248.927 76.3919 249.324 77.3919 249.324Z" fill="white" fill-opacity="0.4"/>
<path d="M77.3919 214.784C78.1376 214.784 78.8665 214.563 79.4865 214.149C80.1065 213.734 80.5898 213.146 80.8752 212.457C81.1605 211.768 81.2352 211.01 81.0897 210.278C80.9442 209.547 80.5852 208.875 80.0579 208.348C79.5306 207.821 78.8588 207.462 78.1274 207.316C77.3961 207.171 76.638 207.245 75.9491 207.531C75.2601 207.816 74.6713 208.299 74.257 208.919C73.8427 209.539 73.6216 210.268 73.6216 211.014C73.6216 212.014 74.0188 212.973 74.7259 213.68C75.4329 214.387 76.3919 214.784 77.3919 214.784Z" fill="white" fill-opacity="0.4"/>
<path d="M77.3919 180.243C78.1376 180.243 78.8665 180.022 79.4865 179.608C80.1065 179.193 80.5898 178.605 80.8752 177.916C81.1605 177.227 81.2352 176.469 81.0897 175.737C80.9442 175.006 80.5852 174.334 80.0579 173.807C79.5306 173.28 78.8588 172.92 78.1274 172.775C77.3961 172.63 76.638 172.704 75.9491 172.99C75.2601 173.275 74.6713 173.758 74.257 174.378C73.8427 174.998 73.6216 175.727 73.6216 176.473C73.6216 177.473 74.0188 178.432 74.7259 179.139C75.4329 179.846 76.3919 180.243 77.3919 180.243Z" fill="white" fill-opacity="0.4"/>
<path d="M77.3919 145.703C78.1376 145.703 78.8665 145.482 79.4865 145.067C80.1065 144.653 80.5898 144.064 80.8752 143.375C81.1605 142.686 81.2352 141.928 81.0897 141.197C80.9442 140.465 80.5852 139.794 80.0579 139.266C79.5306 138.739 78.8588 138.38 78.1274 138.235C77.3961 138.089 76.638 138.164 75.9491 138.449C75.2601 138.734 74.6713 139.218 74.257 139.838C73.8427 140.458 73.6216 141.187 73.6216 141.932C73.6216 142.932 74.0188 143.891 74.7259 144.598C75.4329 145.305 76.3919 145.703 77.3919 145.703Z" fill="white" fill-opacity="0.4"/>
<path d="M77.3919 111.162C78.1376 111.162 78.8665 110.941 79.4865 110.527C80.1065 110.112 80.5898 109.524 80.8752 108.835C81.1605 108.146 81.2352 107.388 81.0897 106.656C80.9442 105.925 80.5852 105.253 80.0579 104.726C79.5306 104.199 78.8588 103.839 78.1274 103.694C77.3961 103.549 76.638 103.623 75.9491 103.909C75.2601 104.194 74.6713 104.677 74.257 105.297C73.8427 105.917 73.6216 106.646 73.6216 107.392C73.6216 108.392 74.0188 109.351 74.7259 110.058C75.4329 110.765 76.3919 111.162 77.3919 111.162Z" fill="white" fill-opacity="0.4"/>
<path d="M77.3919 76.6216C78.1376 76.6216 78.8665 76.4005 79.4865 75.9862C80.1065 75.5719 80.5898 74.9831 80.8752 74.2941C81.1605 73.6052 81.2352 72.8472 81.0897 72.1158C80.9442 71.3844 80.5852 70.7126 80.0579 70.1853C79.5306 69.6581 78.8588 69.299 78.1274 69.1535C77.3961 69.008 76.638 69.0827 75.9491 69.368C75.2601 69.6534 74.6713 70.1366 74.257 70.7566C73.8427 71.3767 73.6216 72.1056 73.6216 72.8513C73.6216 73.8512 74.0188 74.8103 74.7259 75.5173C75.4329 76.2244 76.3919 76.6216 77.3919 76.6216Z" fill="white" fill-opacity="0.4"/>
<path d="M77.3919 42.0811C78.1376 42.0811 78.8665 41.86 79.4865 41.4457C80.1065 41.0314 80.5898 40.4425 80.8752 39.7536C81.1605 39.0647 81.2352 38.3066 81.0897 37.5752C80.9442 36.8439 80.5852 36.1721 80.0579 35.6448C79.5306 35.1175 78.8588 34.7584 78.1274 34.613C77.3961 34.4675 76.638 34.5421 75.9491 34.8275C75.2601 35.1129 74.6713 35.5961 74.257 36.2161C73.8427 36.8361 73.6216 37.5651 73.6216 38.3108C73.6216 39.3107 74.0188 40.2697 74.7259 40.9768C75.4329 41.6839 76.3919 42.0811 77.3919 42.0811Z" fill="white" fill-opacity="0.4"/>
<path d="M77.3919 7.54053C78.1376 7.54053 78.8665 7.31938 79.4865 6.90509C80.1065 6.49081 80.5898 5.902 80.8752 5.21307C81.1605 4.52414 81.2352 3.76605 81.0897 3.03469C80.9442 2.30332 80.5852 1.63151 80.0579 1.10422C79.5306 0.576939 78.8588 0.217847 78.1274 0.0723701C77.3961 -0.0731077 76.638 0.00155115 75.9491 0.286915C75.2601 0.572279 74.6713 1.05556 74.257 1.67558C73.8427 2.2956 73.6216 3.02455 73.6216 3.77025C73.6216 4.77019 74.0188 5.72914 74.7259 6.43621C75.4329 7.14327 76.3919 7.54053 77.3919 7.54053Z" fill="white" fill-opacity="0.4"/>
</svg>
