<svg width="30" height="80" viewBox="0 0 30 80" fill="none" xmlns="http://www.w3.org/2000/svg">
<path d="M-9.9322 79.1356C11.6444 79.1356 29.1356 61.6444 29.1356 40.0678C29.1356 18.4913 11.6444 1 -9.9322 1C-31.5088 1 -49 18.4913 -49 40.0678C-49 61.6444 -31.5088 79.1356 -9.9322 79.1356Z" stroke="white" stroke-width="0.5" stroke-linecap="round" stroke-linejoin="round"/>
<path d="M-9.93259 73.0523C8.28433 73.0523 23.0521 58.2846 23.0521 40.0677C23.0521 21.8507 8.28433 7.08301 -9.93259 7.08301C-28.1495 7.08301 -42.9172 21.8507 -42.9172 40.0677C-42.9172 58.2846 -28.1495 73.0523 -9.93259 73.0523Z" stroke="white" stroke-width="0.5" stroke-linecap="round" stroke-linejoin="round"/>
<path d="M-9.9325 66.9695C4.92479 66.9695 16.969 54.9253 16.969 40.068C16.969 25.2107 4.92479 13.1665 -9.9325 13.1665C-24.7898 13.1665 -36.834 25.2107 -36.834 40.068C-36.834 54.9253 -24.7898 66.9695 -9.9325 66.9695Z" stroke="white" stroke-width="0.5" stroke-linecap="round" stroke-linejoin="round"/>
<path d="M-9.93236 60.8955C1.57057 60.8955 10.8955 51.5706 10.8955 40.0676C10.8955 28.5647 1.57057 19.2397 -9.93236 19.2397C-21.4353 19.2397 -30.7603 28.5647 -30.7603 40.0676C-30.7603 51.5706 -21.4353 60.8955 -9.93236 60.8955Z" stroke="white" stroke-width="0.5" stroke-linecap="round" stroke-linejoin="round"/>
<path d="M-9.93202 54.8122C-1.78872 54.8122 4.81272 48.2108 4.81272 40.0675C4.81272 31.9242 -1.78872 25.3228 -9.93202 25.3228C-18.0753 25.3228 -24.6768 31.9242 -24.6768 40.0675C-24.6768 48.2108 -18.0753 54.8122 -9.93202 54.8122Z" stroke="white" stroke-width="0.5" stroke-linecap="round" stroke-linejoin="round"/>
</svg>
