<svg width="427" height="427" viewBox="0 0 427 427" fill="none" xmlns="http://www.w3.org/2000/svg">
<path d="M213.5 426C330.86 426 426 330.861 426 213.5C426 96.1395 330.86 1 213.5 1C96.1393 1 1 96.1395 1 213.5C1 330.861 96.1393 426 213.5 426Z" stroke="#FADE70" stroke-opacity="0.35" stroke-width="2" stroke-linecap="round" stroke-linejoin="round"/>
<path d="M213.498 392.912C312.585 392.912 392.91 312.586 392.91 213.5C392.91 114.413 312.585 34.0878 213.498 34.0878C114.411 34.0878 34.086 114.413 34.086 213.5C34.086 312.586 114.411 392.912 213.498 392.912Z" stroke="#FADE70" stroke-opacity="0.35" stroke-width="2" stroke-linecap="round" stroke-linejoin="round"/>
<path d="M213.499 359.824C294.311 359.824 359.823 294.312 359.823 213.5C359.823 132.687 294.311 67.1755 213.499 67.1755C132.686 67.1755 67.1744 132.687 67.1744 213.5C67.1744 294.312 132.686 359.824 213.499 359.824Z" stroke="#FADE70" stroke-opacity="0.35" stroke-width="2" stroke-linecap="round" stroke-linejoin="round"/>
<path d="M213.501 326.788C276.068 326.788 326.789 276.067 326.789 213.5C326.789 150.933 276.068 100.212 213.501 100.212C150.933 100.212 100.212 150.933 100.212 213.5C100.212 276.067 150.933 326.788 213.501 326.788Z" stroke="#FADE70" stroke-opacity="0.35" stroke-width="2" stroke-linecap="round" stroke-linejoin="round"/>
<path d="M213.499 293.7C257.792 293.7 293.699 257.793 293.699 213.5C293.699 169.207 257.792 133.3 213.499 133.3C169.205 133.3 133.298 169.207 133.298 213.5C133.298 257.793 169.205 293.7 213.499 293.7Z" stroke="#FADE70" stroke-opacity="0.35" stroke-width="2" stroke-linecap="round" stroke-linejoin="round"/>
<path d="M213.499 260.613C239.519 260.613 260.612 239.52 260.612 213.5C260.612 187.481 239.519 166.388 213.499 166.388C187.48 166.388 166.387 187.481 166.387 213.5C166.387 239.52 187.48 260.613 213.499 260.613Z" stroke="#FADE70" stroke-opacity="0.35" stroke-width="2" stroke-linecap="round" stroke-linejoin="round"/>
<path d="M227.576 213.5C227.563 217.224 226.073 220.791 223.435 223.42C220.797 226.049 217.224 227.525 213.5 227.524C209.78 227.524 206.213 226.047 203.583 223.417C200.953 220.787 199.475 217.219 199.475 213.5C199.475 209.78 200.953 206.213 203.583 203.583C206.213 200.953 209.78 199.475 213.5 199.475C217.224 199.475 220.797 200.951 223.435 203.58C226.073 206.208 227.563 209.775 227.576 213.5V213.5Z" stroke="#FADE70" stroke-opacity="0.35" stroke-width="2" stroke-linecap="round" stroke-linejoin="round"/>
</svg>
