<svg width="214" height="190" viewBox="0 0 214 190" fill="none" xmlns="http://www.w3.org/2000/svg">
<g clip-path="url(#clip0)">
<path d="M173.264 1.77415L187.54 57.1803L188.382 57.8878L188.779 56.7033L174.17 0H173.344L174.186 0.996957L173.264 1.77415Z" fill="url(#paint0_linear)"/>
<path d="M189.116 60.9376L202.373 82.2703L203.392 81.4181L190.602 60.8304L189.229 60.0639L189.116 60.9376Z" fill="url(#paint1_linear)"/>
<path d="M173.323 0H172.808L172.899 0.359119L173.323 0Z" fill="url(#paint2_linear)"/>
<path d="M203.076 83.4013L214 100.982V98.4842L204.095 82.549L203.076 83.4013Z" fill="url(#paint3_linear)"/>
<path d="M189.282 58.6436L189.395 58.7401L189.379 58.8633L190.602 60.8305L213.067 73.3782L214 72.601V72.3866L189.497 58.7025L209.382 0H207.993L188.778 56.7033L189.282 58.6436Z" fill="url(#paint4_linear)"/>
<path d="M187.926 59.2278L187.894 59.3187L187.985 59.3722L187.995 59.2866L187.926 59.2278Z" fill="url(#paint5_linear)"/>
<path d="M189.229 60.064L190.602 60.8305L189.379 58.8633L189.352 59.0938L189.229 60.064Z" fill="url(#paint6_linear)"/>
<path d="M189.229 60.064L190.602 60.8305L189.379 58.8633L189.352 59.0938L189.229 60.064Z" fill="url(#paint7_linear)"/>
<path d="M188.779 56.7033L188.382 57.8879L189.283 58.6436L188.779 56.7033Z" fill="url(#paint8_linear)"/>
<path d="M188.779 56.7033L188.382 57.8879L189.283 58.6436L188.779 56.7033Z" fill="url(#paint9_linear)"/>
<path d="M213.067 73.3783L203.392 81.4183L204.095 82.5492L214 74.3163V73.1425L213.678 73.716L213.067 73.3783Z" fill="url(#paint10_linear)"/>
<path d="M179.678 124.759L179.646 124.818L179.688 124.802L179.672 124.791L179.678 124.759Z" fill="url(#paint11_linear)"/>
<path d="M203.07 83.4015H203.076L202.373 82.2705L202.03 82.5546L181.426 121.457L181.088 124.116L181.286 124.234L214 112.56V111.15L182.45 122.369L203.07 83.4015Z" fill="url(#paint12_linear)"/>
<path d="M203.076 83.4013L204.095 82.5491L203.392 81.4181L202.374 82.2703L203.076 83.4013Z" fill="url(#paint13_linear)"/>
<path d="M203.076 83.4013L204.095 82.5491L203.392 81.4181L202.374 82.2703L203.076 83.4013Z" fill="url(#paint14_linear)"/>
<path d="M213.678 73.7159L214 73.1424V72.6011L213.067 73.3783L213.678 73.7159Z" fill="url(#paint15_linear)"/>
<path d="M213.678 73.7159L214 73.1424V72.6011L213.067 73.3783L213.678 73.7159Z" fill="url(#paint16_linear)"/>
<path d="M145.634 23.2301L146.331 22.6459L113.371 0.0803223L112.256 0.97544L145.141 23.4338L145.774 23.4016L145.634 23.2301Z" fill="url(#paint17_linear)"/>
<path d="M149.673 19.8427L158.403 0H156.961L147.388 21.7562L149.673 19.8427Z" fill="url(#paint18_linear)"/>
<path d="M147.468 23.4123L147.549 23.482L147.929 23.8036L148.471 22.5708L147.468 23.4123Z" fill="url(#paint19_linear)"/>
<path d="M173.263 1.77404L172.899 0.359009L149.672 19.8426L148.471 22.5708L173.263 1.77404Z" fill="url(#paint20_linear)"/>
<path d="M147.388 21.7562L146.332 22.646L146.841 22.9944L147.388 21.7562Z" fill="url(#paint21_linear)"/>
<path d="M173.264 1.77415L174.186 0.996957L173.344 0H173.323L172.899 0.359119L173.264 1.77415Z" fill="url(#paint22_linear)"/>
<path d="M173.264 1.77415L174.186 0.996957L173.344 0H173.323L172.899 0.359119L173.264 1.77415Z" fill="url(#paint23_linear)"/>
<path d="M145.774 23.4018L147.35 23.316L147.468 23.4125L148.471 22.571L149.672 19.8428L147.388 21.7563L146.841 22.9944L146.331 22.646L145.634 23.2303L145.774 23.4018Z" fill="url(#paint24_linear)"/>
<path d="M145.774 23.4018L147.35 23.316L147.468 23.4125L148.471 22.571L149.672 19.8428L147.388 21.7563L146.841 22.9944L146.331 22.646L145.634 23.2303L145.774 23.4018Z" fill="url(#paint25_linear)"/>
<path d="M189.116 60.9377L188.226 59.5066L187.985 59.3726L179.726 124.368L179.678 124.759L181.426 121.457L189.116 60.9377Z" fill="url(#paint26_linear)"/>
<path d="M113.468 0H113.253L113.371 0.0803998L113.468 0Z" fill="url(#paint27_linear)"/>
<path d="M214 192V189.888L194.495 165.554L214 149.42V147.711L192.656 165.366L214 192Z" fill="url(#paint28_linear)"/>
<path d="M77.7455 28.3382L78.6358 28.2954L146.9 24.6613L187.926 59.2278L188.006 58.9866L187.54 57.1803L147.929 23.8037L147.409 24.9829L145.141 23.4339L79.8585 26.9071L112.256 0.975517L111.886 0.723598L113.055 0H107.456L110.797 0.450239L78.2818 26.4783L73.1227 0H71.7767L76.9733 26.6552L3.95244 0H0L76.5174 27.8934L77.7455 28.3382Z" fill="url(#paint29_linear)"/>
<path d="M179.688 124.802L214 145.867V144.323L181.286 124.234L179.688 124.802Z" fill="url(#paint30_linear)"/>
<path d="M188.381 57.8879L187.54 57.1804L188.006 58.9867L188.07 58.7991L188.381 57.8879Z" fill="url(#paint31_linear)"/>
<path d="M188.381 57.8879L187.54 57.1804L188.006 58.9867L188.07 58.7991L188.381 57.8879Z" fill="url(#paint32_linear)"/>
<path d="M188.226 59.5065L189.116 60.9376L189.229 60.0639L188.226 59.5065Z" fill="url(#paint33_linear)"/>
<path d="M188.226 59.5065L189.116 60.9376L189.229 60.0639L188.226 59.5065Z" fill="url(#paint34_linear)"/>
<path d="M189.379 58.8634L189.395 58.7402L189.283 58.6437L189.309 58.7509L189.379 58.8634Z" fill="url(#paint35_linear)"/>
<path d="M189.379 58.8634L189.395 58.7402L189.283 58.6437L189.309 58.7509L189.379 58.8634Z" fill="url(#paint36_linear)"/>
<path d="M188.081 59.2761L188.055 59.1796L188.006 58.9866L187.926 59.2278L187.996 59.2868L187.985 59.3725L188.226 59.5065L188.081 59.2761Z" fill="url(#paint37_linear)"/>
<path d="M188.081 59.2761L188.055 59.1796L188.006 58.9866L187.926 59.2278L187.996 59.2868L187.985 59.3725L188.226 59.5065L188.081 59.2761Z" fill="url(#paint38_linear)"/>
<path d="M188.081 59.276L188.226 59.5065L189.229 60.064L189.352 59.0938L189.379 58.8633L189.309 58.7508L189.282 58.6436L188.381 57.8878L188.07 58.799L188.006 58.9866L188.054 59.1796L188.081 59.276Z" fill="url(#paint39_linear)"/>
<path d="M188.081 59.276L188.226 59.5065L189.229 60.064L189.352 59.0938L189.379 58.8633L189.309 58.7508L189.282 58.6436L188.381 57.8878L188.07 58.799L188.006 58.9866L188.054 59.1796L188.081 59.276Z" fill="url(#paint40_linear)"/>
<path d="M188.081 59.276L188.226 59.5065L189.229 60.064L189.352 59.0938L189.379 58.8633L189.309 58.7508L189.282 58.6436L188.381 57.8878L188.07 58.799L188.006 58.9866L188.054 59.1796L188.081 59.276Z" fill="url(#paint41_linear)"/>
<path d="M181.088 124.116L181.426 121.457L179.678 124.759L179.673 124.791L179.689 124.802L181.287 124.234L181.088 124.116Z" fill="url(#paint42_linear)"/>
<path d="M181.088 124.116L181.426 121.457L179.678 124.759L179.673 124.791L179.689 124.802L181.287 124.234L181.088 124.116Z" fill="url(#paint43_linear)"/>
<path d="M147.468 23.4125L146.481 24.2379L145.773 23.4017L145.141 23.4339L147.409 24.9829L147.929 23.8037L147.549 23.4821L147.468 23.4125Z" fill="url(#paint44_linear)"/>
<path d="M147.468 23.4125L146.481 24.2379L145.773 23.4017L145.141 23.4339L147.409 24.9829L147.929 23.8037L147.549 23.4821L147.468 23.4125Z" fill="url(#paint45_linear)"/>
<path d="M112.256 0.975517L113.371 0.0803998L113.253 0H113.055L111.886 0.723598L112.256 0.975517Z" fill="url(#paint46_linear)"/>
<path d="M112.256 0.975517L113.371 0.0803998L113.253 0H113.055L111.886 0.723598L112.256 0.975517Z" fill="url(#paint47_linear)"/>
<path d="M145.774 23.4018L146.482 24.238L147.469 23.4125L147.351 23.316L145.774 23.4018Z" fill="url(#paint48_linear)"/>
<path d="M145.774 23.4018L146.482 24.238L147.469 23.4125L147.351 23.316L145.774 23.4018Z" fill="url(#paint49_linear)"/>
<path d="M145.774 23.4018L146.482 24.238L147.469 23.4125L147.351 23.316L145.774 23.4018Z" fill="url(#paint50_linear)"/>
</g>
<defs>
<linearGradient id="paint0_linear" x1="171.43" y1="28.9439" x2="217.894" y2="28.9439" gradientUnits="userSpaceOnUse">
<stop offset="0.01" stop-color="#BF9155"/>
<stop offset="0.14" stop-color="#CBA166"/>
<stop offset="0.4" stop-color="#ECCC93"/>
<stop offset="0.51" stop-color="#FBE0A8"/>
<stop offset="1" stop-color="#D5A960"/>
</linearGradient>
<linearGradient id="paint1_linear" x1="4752.57" y1="3008.41" x2="5989.44" y2="3008.41" gradientUnits="userSpaceOnUse">
<stop offset="0.01" stop-color="#BF9155"/>
<stop offset="0.14" stop-color="#CBA166"/>
<stop offset="0.4" stop-color="#ECCC93"/>
<stop offset="0.51" stop-color="#FBE0A8"/>
<stop offset="1" stop-color="#D5A960"/>
</linearGradient>
<linearGradient id="paint2_linear" x1="337.379" y1="0.118509" x2="381.974" y2="0.118509" gradientUnits="userSpaceOnUse">
<stop offset="0.01" stop-color="#BF9155"/>
<stop offset="0.14" stop-color="#CBA166"/>
<stop offset="0.4" stop-color="#ECCC93"/>
<stop offset="0.51" stop-color="#FBE0A8"/>
<stop offset="1" stop-color="#D5A960"/>
</linearGradient>
<linearGradient id="paint3_linear" x1="3695.09" y1="3238.46" x2="4641.56" y2="3238.46" gradientUnits="userSpaceOnUse">
<stop offset="0.01" stop-color="#BF9155"/>
<stop offset="0.14" stop-color="#CBA166"/>
<stop offset="0.4" stop-color="#ECCC93"/>
<stop offset="0.51" stop-color="#FBE0A8"/>
<stop offset="1" stop-color="#D5A960"/>
</linearGradient>
<linearGradient id="paint4_linear" x1="9025.41" y1="5022.74" x2="10268.3" y2="5022.74" gradientUnits="userSpaceOnUse">
<stop offset="0.01" stop-color="#BF9155"/>
<stop offset="0.14" stop-color="#CBA166"/>
<stop offset="0.4" stop-color="#ECCC93"/>
<stop offset="0.51" stop-color="#FBE0A8"/>
<stop offset="1" stop-color="#D5A960"/>
</linearGradient>
<linearGradient id="paint5_linear" x1="223.536" y1="75.208" x2="228.547" y2="75.208" gradientUnits="userSpaceOnUse">
<stop offset="0.01" stop-color="#BF9155"/>
<stop offset="0.14" stop-color="#CBA166"/>
<stop offset="0.4" stop-color="#ECCC93"/>
<stop offset="0.51" stop-color="#FBE0A8"/>
<stop offset="1" stop-color="#D5A960"/>
</linearGradient>
<linearGradient id="paint6_linear" x1="628.093" y1="278.511" x2="747.028" y2="278.511" gradientUnits="userSpaceOnUse">
<stop offset="0.01" stop-color="#BF9155"/>
<stop offset="0.14" stop-color="#CBA166"/>
<stop offset="0.4" stop-color="#ECCC93"/>
<stop offset="0.51" stop-color="#FBE0A8"/>
<stop offset="1" stop-color="#D5A960"/>
</linearGradient>
<linearGradient id="paint7_linear" x1="670.241" y1="278.511" x2="737.885" y2="278.511" gradientUnits="userSpaceOnUse">
<stop offset="0.01" stop-color="#BF9155"/>
<stop offset="0.14" stop-color="#CBA166"/>
<stop offset="0.4" stop-color="#ECCC93"/>
<stop offset="0.51" stop-color="#FBE0A8"/>
<stop offset="1" stop-color="#D5A960"/>
</linearGradient>
<linearGradient id="paint8_linear" x1="476.381" y1="265.48" x2="554.431" y2="265.48" gradientUnits="userSpaceOnUse">
<stop offset="0.01" stop-color="#BF9155"/>
<stop offset="0.14" stop-color="#CBA166"/>
<stop offset="0.4" stop-color="#ECCC93"/>
<stop offset="0.51" stop-color="#FBE0A8"/>
<stop offset="1" stop-color="#D5A960"/>
</linearGradient>
<linearGradient id="paint9_linear" x1="504.04" y1="265.48" x2="548.43" y2="265.48" gradientUnits="userSpaceOnUse">
<stop offset="0.01" stop-color="#BF9155"/>
<stop offset="0.14" stop-color="#CBA166"/>
<stop offset="0.4" stop-color="#ECCC93"/>
<stop offset="0.51" stop-color="#FBE0A8"/>
<stop offset="1" stop-color="#D5A960"/>
</linearGradient>
<linearGradient id="paint10_linear" x1="3756.78" y1="1439.29" x2="4547.16" y2="1439.29" gradientUnits="userSpaceOnUse">
<stop offset="0.01" stop-color="#BF9155"/>
<stop offset="0.14" stop-color="#CBA166"/>
<stop offset="0.4" stop-color="#ECCC93"/>
<stop offset="0.51" stop-color="#FBE0A8"/>
<stop offset="1" stop-color="#D5A960"/>
</linearGradient>
<linearGradient id="paint11_linear" x1="193.988" y1="138.459" x2="197.175" y2="138.459" gradientUnits="userSpaceOnUse">
<stop offset="0.01" stop-color="#BF9155"/>
<stop offset="0.14" stop-color="#CBA166"/>
<stop offset="0.4" stop-color="#ECCC93"/>
<stop offset="0.51" stop-color="#FBE0A8"/>
<stop offset="1" stop-color="#D5A960"/>
</linearGradient>
<linearGradient id="paint12_linear" x1="11205.9" y1="8165.66" x2="13658.2" y2="8165.66" gradientUnits="userSpaceOnUse">
<stop offset="0.01" stop-color="#BF9155"/>
<stop offset="0.14" stop-color="#CBA166"/>
<stop offset="0.4" stop-color="#ECCC93"/>
<stop offset="0.51" stop-color="#FBE0A8"/>
<stop offset="1" stop-color="#D5A960"/>
</linearGradient>
<linearGradient id="paint13_linear" x1="752.662" y1="386.337" x2="901.811" y2="386.337" gradientUnits="userSpaceOnUse">
<stop offset="0.01" stop-color="#BF9155"/>
<stop offset="0.14" stop-color="#CBA166"/>
<stop offset="0.4" stop-color="#ECCC93"/>
<stop offset="0.51" stop-color="#FBE0A8"/>
<stop offset="1" stop-color="#D5A960"/>
</linearGradient>
<linearGradient id="paint14_linear" x1="779.035" y1="386.337" x2="907.286" y2="386.337" gradientUnits="userSpaceOnUse">
<stop offset="0.01" stop-color="#BF9155"/>
<stop offset="0.14" stop-color="#CBA166"/>
<stop offset="0.4" stop-color="#ECCC93"/>
<stop offset="0.51" stop-color="#FBE0A8"/>
<stop offset="1" stop-color="#D5A960"/>
</linearGradient>
<linearGradient id="paint15_linear" x1="540" y1="224.769" x2="585.985" y2="224.769" gradientUnits="userSpaceOnUse">
<stop offset="0.01" stop-color="#BF9155"/>
<stop offset="0.14" stop-color="#CBA166"/>
<stop offset="0.4" stop-color="#ECCC93"/>
<stop offset="0.51" stop-color="#FBE0A8"/>
<stop offset="1" stop-color="#D5A960"/>
</linearGradient>
<linearGradient id="paint16_linear" x1="525.639" y1="224.769" x2="595.177" y2="224.769" gradientUnits="userSpaceOnUse">
<stop offset="0.01" stop-color="#BF9155"/>
<stop offset="0.14" stop-color="#CBA166"/>
<stop offset="0.4" stop-color="#ECCC93"/>
<stop offset="0.51" stop-color="#FBE0A8"/>
<stop offset="1" stop-color="#D5A960"/>
</linearGradient>
<linearGradient id="paint17_linear" x1="7221.46" y1="512.222" x2="10555.4" y2="512.222" gradientUnits="userSpaceOnUse">
<stop offset="0.01" stop-color="#BF9155"/>
<stop offset="0.14" stop-color="#CBA166"/>
<stop offset="0.4" stop-color="#ECCC93"/>
<stop offset="0.51" stop-color="#FBE0A8"/>
<stop offset="1" stop-color="#D5A960"/>
</linearGradient>
<linearGradient id="paint18_linear" x1="2445.52" y1="441.65" x2="3523.27" y2="441.65" gradientUnits="userSpaceOnUse">
<stop offset="0.01" stop-color="#BF9155"/>
<stop offset="0.14" stop-color="#CBA166"/>
<stop offset="0.4" stop-color="#ECCC93"/>
<stop offset="0.51" stop-color="#FBE0A8"/>
<stop offset="1" stop-color="#D5A960"/>
</linearGradient>
<linearGradient id="paint19_linear" x1="356.693" y1="75.9015" x2="454.813" y2="75.9015" gradientUnits="userSpaceOnUse">
<stop offset="0.01" stop-color="#BF9155"/>
<stop offset="0.14" stop-color="#CBA166"/>
<stop offset="0.4" stop-color="#ECCC93"/>
<stop offset="0.51" stop-color="#FBE0A8"/>
<stop offset="1" stop-color="#D5A960"/>
</linearGradient>
<linearGradient id="paint20_linear" x1="6881.12" y1="475.469" x2="8201.08" y2="475.469" gradientUnits="userSpaceOnUse">
<stop offset="0.01" stop-color="#BF9155"/>
<stop offset="0.14" stop-color="#CBA166"/>
<stop offset="0.4" stop-color="#ECCC93"/>
<stop offset="0.51" stop-color="#FBE0A8"/>
<stop offset="1" stop-color="#D5A960"/>
</linearGradient>
<linearGradient id="paint21_linear" x1="433.231" y1="73.4492" x2="489.468" y2="73.4492" gradientUnits="userSpaceOnUse">
<stop offset="0.01" stop-color="#BF9155"/>
<stop offset="0.14" stop-color="#CBA166"/>
<stop offset="0.4" stop-color="#ECCC93"/>
<stop offset="0.51" stop-color="#FBE0A8"/>
<stop offset="1" stop-color="#D5A960"/>
</linearGradient>
<linearGradient id="paint22_linear" x1="584.332" y1="2.92735" x2="695.833" y2="2.92735" gradientUnits="userSpaceOnUse">
<stop offset="0.01" stop-color="#BF9155"/>
<stop offset="0.14" stop-color="#CBA166"/>
<stop offset="0.4" stop-color="#ECCC93"/>
<stop offset="0.51" stop-color="#FBE0A8"/>
<stop offset="1" stop-color="#D5A960"/>
</linearGradient>
<linearGradient id="paint23_linear" x1="522.422" y1="2.92736" x2="590.947" y2="2.92736" gradientUnits="userSpaceOnUse">
<stop offset="0.01" stop-color="#BF9155"/>
<stop offset="0.14" stop-color="#CBA166"/>
<stop offset="0.4" stop-color="#ECCC93"/>
<stop offset="0.51" stop-color="#FBE0A8"/>
<stop offset="1" stop-color="#D5A960"/>
</linearGradient>
<linearGradient id="paint24_linear" x1="988.125" y1="163.882" x2="1383.22" y2="163.882" gradientUnits="userSpaceOnUse">
<stop offset="0.01" stop-color="#BF9155"/>
<stop offset="0.14" stop-color="#CBA166"/>
<stop offset="0.4" stop-color="#ECCC93"/>
<stop offset="0.51" stop-color="#FBE0A8"/>
<stop offset="1" stop-color="#D5A960"/>
</linearGradient>
<linearGradient id="paint25_linear" x1="1242.25" y1="163.882" x2="1457.24" y2="163.882" gradientUnits="userSpaceOnUse">
<stop offset="0.01" stop-color="#BF9155"/>
<stop offset="0.14" stop-color="#CBA166"/>
<stop offset="0.4" stop-color="#ECCC93"/>
<stop offset="0.51" stop-color="#FBE0A8"/>
<stop offset="1" stop-color="#D5A960"/>
</linearGradient>
<linearGradient id="paint26_linear" x1="156.553" y1="11290.1" x2="4031.99" y2="11290.1" gradientUnits="userSpaceOnUse">
<stop offset="0.01" stop-color="#BF9155"/>
<stop offset="0.14" stop-color="#CBA166"/>
<stop offset="0.4" stop-color="#ECCC93"/>
<stop offset="0.51" stop-color="#FBE0A8"/>
<stop offset="1" stop-color="#D5A960"/>
</linearGradient>
<linearGradient id="paint27_linear" x1="112.74" y1="0.00562788" x2="200.798" y2="0.00562788" gradientUnits="userSpaceOnUse">
<stop offset="0.01" stop-color="#BF9155"/>
<stop offset="0.14" stop-color="#CBA166"/>
<stop offset="0.4" stop-color="#ECCC93"/>
<stop offset="0.51" stop-color="#FBE0A8"/>
<stop offset="1" stop-color="#D5A960"/>
</linearGradient>
<linearGradient id="paint28_linear" x1="140.576" y1="14183.1" x2="8904.07" y2="14183.1" gradientUnits="userSpaceOnUse">
<stop offset="0.01" stop-color="#BF9155"/>
<stop offset="0.14" stop-color="#CBA166"/>
<stop offset="0.4" stop-color="#ECCC93"/>
<stop offset="0.51" stop-color="#FBE0A8"/>
<stop offset="1" stop-color="#D5A960"/>
</linearGradient>
<linearGradient id="paint29_linear" x1="-458.735" y1="3272.34" x2="76732.8" y2="3272.34" gradientUnits="userSpaceOnUse">
<stop offset="0.01" stop-color="#BF9155"/>
<stop offset="0.14" stop-color="#CBA166"/>
<stop offset="0.4" stop-color="#ECCC93"/>
<stop offset="0.51" stop-color="#FBE0A8"/>
<stop offset="1" stop-color="#D5A960"/>
</linearGradient>
<linearGradient id="paint30_linear" x1="95.9677" y1="5574.86" x2="14183.6" y2="5574.86" gradientUnits="userSpaceOnUse">
<stop offset="0.01" stop-color="#BF9155"/>
<stop offset="0.14" stop-color="#CBA166"/>
<stop offset="0.4" stop-color="#ECCC93"/>
<stop offset="0.51" stop-color="#FBE0A8"/>
<stop offset="1" stop-color="#D5A960"/>
</linearGradient>
<linearGradient id="paint31_linear" x1="456.677" y1="252.912" x2="529.624" y2="252.912" gradientUnits="userSpaceOnUse">
<stop offset="0.01" stop-color="#BF9155"/>
<stop offset="0.14" stop-color="#CBA166"/>
<stop offset="0.4" stop-color="#ECCC93"/>
<stop offset="0.51" stop-color="#FBE0A8"/>
<stop offset="1" stop-color="#D5A960"/>
</linearGradient>
<linearGradient id="paint32_linear" x1="185.494" y1="252.912" x2="531.173" y2="252.912" gradientUnits="userSpaceOnUse">
<stop offset="0.01" stop-color="#BF9155"/>
<stop offset="0.14" stop-color="#CBA166"/>
<stop offset="0.4" stop-color="#ECCC93"/>
<stop offset="0.51" stop-color="#FBE0A8"/>
<stop offset="1" stop-color="#D5A960"/>
</linearGradient>
<linearGradient id="paint33_linear" x1="508.774" y1="220.292" x2="595.677" y2="220.292" gradientUnits="userSpaceOnUse">
<stop offset="0.01" stop-color="#BF9155"/>
<stop offset="0.14" stop-color="#CBA166"/>
<stop offset="0.4" stop-color="#ECCC93"/>
<stop offset="0.51" stop-color="#FBE0A8"/>
<stop offset="1" stop-color="#D5A960"/>
</linearGradient>
<linearGradient id="paint34_linear" x1="185.729" y1="220.292" x2="597.522" y2="220.292" gradientUnits="userSpaceOnUse">
<stop offset="0.01" stop-color="#BF9155"/>
<stop offset="0.14" stop-color="#CBA166"/>
<stop offset="0.4" stop-color="#ECCC93"/>
<stop offset="0.51" stop-color="#FBE0A8"/>
<stop offset="1" stop-color="#D5A960"/>
</linearGradient>
<linearGradient id="paint35_linear" x1="228.737" y1="82.7334" x2="234.298" y2="82.7334" gradientUnits="userSpaceOnUse">
<stop offset="0.01" stop-color="#BF9155"/>
<stop offset="0.14" stop-color="#CBA166"/>
<stop offset="0.4" stop-color="#ECCC93"/>
<stop offset="0.51" stop-color="#FBE0A8"/>
<stop offset="1" stop-color="#D5A960"/>
</linearGradient>
<linearGradient id="paint36_linear" x1="188.914" y1="82.7334" x2="235.258" y2="82.7334" gradientUnits="userSpaceOnUse">
<stop offset="0.01" stop-color="#BF9155"/>
<stop offset="0.14" stop-color="#CBA166"/>
<stop offset="0.4" stop-color="#ECCC93"/>
<stop offset="0.51" stop-color="#FBE0A8"/>
<stop offset="1" stop-color="#D5A960"/>
</linearGradient>
<linearGradient id="paint37_linear" x1="293.158" y1="116.453" x2="307.956" y2="116.453" gradientUnits="userSpaceOnUse">
<stop offset="0.01" stop-color="#BF9155"/>
<stop offset="0.14" stop-color="#CBA166"/>
<stop offset="0.4" stop-color="#ECCC93"/>
<stop offset="0.51" stop-color="#FBE0A8"/>
<stop offset="1" stop-color="#D5A960"/>
</linearGradient>
<linearGradient id="paint38_linear" x1="187.22" y1="116.453" x2="310.509" y2="116.453" gradientUnits="userSpaceOnUse">
<stop offset="0.01" stop-color="#BF9155"/>
<stop offset="0.14" stop-color="#CBA166"/>
<stop offset="0.4" stop-color="#ECCC93"/>
<stop offset="0.51" stop-color="#FBE0A8"/>
<stop offset="1" stop-color="#D5A960"/>
</linearGradient>
<linearGradient id="paint39_linear" x1="626.861" y1="297.329" x2="745.793" y2="297.329" gradientUnits="userSpaceOnUse">
<stop offset="0.01" stop-color="#BF9155"/>
<stop offset="0.14" stop-color="#CBA166"/>
<stop offset="0.4" stop-color="#ECCC93"/>
<stop offset="0.51" stop-color="#FBE0A8"/>
<stop offset="1" stop-color="#D5A960"/>
</linearGradient>
<linearGradient id="paint40_linear" x1="669.008" y1="297.329" x2="736.65" y2="297.329" gradientUnits="userSpaceOnUse">
<stop offset="0.01" stop-color="#BF9155"/>
<stop offset="0.14" stop-color="#CBA166"/>
<stop offset="0.4" stop-color="#ECCC93"/>
<stop offset="0.51" stop-color="#FBE0A8"/>
<stop offset="1" stop-color="#D5A960"/>
</linearGradient>
<linearGradient id="paint41_linear" x1="184.697" y1="297.329" x2="748.333" y2="297.329" gradientUnits="userSpaceOnUse">
<stop offset="0.01" stop-color="#BF9155"/>
<stop offset="0.14" stop-color="#CBA166"/>
<stop offset="0.4" stop-color="#ECCC93"/>
<stop offset="0.51" stop-color="#FBE0A8"/>
<stop offset="1" stop-color="#D5A960"/>
</linearGradient>
<linearGradient id="paint42_linear" x1="767.119" y1="889.785" x2="897.786" y2="889.785" gradientUnits="userSpaceOnUse">
<stop offset="0.01" stop-color="#BF9155"/>
<stop offset="0.14" stop-color="#CBA166"/>
<stop offset="0.4" stop-color="#ECCC93"/>
<stop offset="0.51" stop-color="#FBE0A8"/>
<stop offset="1" stop-color="#D5A960"/>
</linearGradient>
<linearGradient id="paint43_linear" x1="175.341" y1="889.785" x2="895.436" y2="889.785" gradientUnits="userSpaceOnUse">
<stop offset="0.01" stop-color="#BF9155"/>
<stop offset="0.14" stop-color="#CBA166"/>
<stop offset="0.4" stop-color="#ECCC93"/>
<stop offset="0.51" stop-color="#FBE0A8"/>
<stop offset="1" stop-color="#D5A960"/>
</linearGradient>
<linearGradient id="paint44_linear" x1="726.943" y1="94.7609" x2="999.788" y2="94.7609" gradientUnits="userSpaceOnUse">
<stop offset="0.01" stop-color="#BF9155"/>
<stop offset="0.14" stop-color="#CBA166"/>
<stop offset="0.4" stop-color="#ECCC93"/>
<stop offset="0.51" stop-color="#FBE0A8"/>
<stop offset="1" stop-color="#D5A960"/>
</linearGradient>
<linearGradient id="paint45_linear" x1="138.364" y1="94.7609" x2="1283.31" y2="94.7609" gradientUnits="userSpaceOnUse">
<stop offset="0.01" stop-color="#BF9155"/>
<stop offset="0.14" stop-color="#CBA166"/>
<stop offset="0.4" stop-color="#ECCC93"/>
<stop offset="0.51" stop-color="#FBE0A8"/>
<stop offset="1" stop-color="#D5A960"/>
</linearGradient>
<linearGradient id="paint46_linear" x1="421.813" y1="0.887722" x2="567.172" y2="0.887722" gradientUnits="userSpaceOnUse">
<stop offset="0.01" stop-color="#BF9155"/>
<stop offset="0.14" stop-color="#CBA166"/>
<stop offset="0.4" stop-color="#ECCC93"/>
<stop offset="0.51" stop-color="#FBE0A8"/>
<stop offset="1" stop-color="#D5A960"/>
</linearGradient>
<linearGradient id="paint47_linear" x1="108.246" y1="0.887725" x2="718.207" y2="0.887725" gradientUnits="userSpaceOnUse">
<stop offset="0.01" stop-color="#BF9155"/>
<stop offset="0.14" stop-color="#CBA166"/>
<stop offset="0.4" stop-color="#ECCC93"/>
<stop offset="0.51" stop-color="#FBE0A8"/>
<stop offset="1" stop-color="#D5A960"/>
</linearGradient>
<linearGradient id="paint48_linear" x1="499.33" y1="64.2124" x2="665.135" y2="64.2124" gradientUnits="userSpaceOnUse">
<stop offset="0.01" stop-color="#BF9155"/>
<stop offset="0.14" stop-color="#CBA166"/>
<stop offset="0.4" stop-color="#ECCC93"/>
<stop offset="0.51" stop-color="#FBE0A8"/>
<stop offset="1" stop-color="#D5A960"/>
</linearGradient>
<linearGradient id="paint49_linear" x1="605.975" y1="64.2124" x2="696.198" y2="64.2124" gradientUnits="userSpaceOnUse">
<stop offset="0.01" stop-color="#BF9155"/>
<stop offset="0.14" stop-color="#CBA166"/>
<stop offset="0.4" stop-color="#ECCC93"/>
<stop offset="0.51" stop-color="#FBE0A8"/>
<stop offset="1" stop-color="#D5A960"/>
</linearGradient>
<linearGradient id="paint50_linear" x1="141.639" y1="64.2124" x2="837.414" y2="64.2124" gradientUnits="userSpaceOnUse">
<stop offset="0.01" stop-color="#BF9155"/>
<stop offset="0.14" stop-color="#CBA166"/>
<stop offset="0.4" stop-color="#ECCC93"/>
<stop offset="0.51" stop-color="#FBE0A8"/>
<stop offset="1" stop-color="#D5A960"/>
</linearGradient>
<clipPath id="clip0">
<rect width="214" height="192" fill="white"/>
</clipPath>
</defs>
</svg>
