<svg width="455" height="408" viewBox="0 0 455 408" fill="none" xmlns="http://www.w3.org/2000/svg">
<g clip-path="url(#clip0)">
<path d="M368.388 3.77008L398.741 121.508L400.531 123.012L401.375 120.494L370.315 0H368.559L370.349 2.11853L368.388 3.77008Z" fill="url(#paint0_linear)"/>
<path d="M402.094 129.492L430.281 174.824L432.447 173.013L405.253 129.264L402.334 127.635L402.094 129.492Z" fill="url(#paint1_linear)"/>
<path d="M368.515 0H367.42L367.614 0.763128L368.515 0Z" fill="url(#paint2_linear)"/>
<path d="M431.774 177.227L455 214.586V209.279L433.94 175.416L431.774 177.227Z" fill="url(#paint3_linear)"/>
<path d="M402.445 124.618L402.684 124.823L402.65 125.085L405.25 129.265L453.014 155.929L454.998 154.277V153.821L402.901 124.743L445.181 0H442.228L401.373 120.494L402.445 124.618Z" fill="url(#paint4_linear)"/>
<path d="M399.563 125.859L399.495 126.052L399.688 126.166L399.711 125.984L399.563 125.859Z" fill="url(#paint5_linear)"/>
<path d="M402.332 127.636L405.251 129.265L402.651 125.085L402.594 125.574L402.332 127.636Z" fill="url(#paint6_linear)"/>
<path d="M402.332 127.636L405.251 129.265L402.651 125.085L402.594 125.574L402.332 127.636Z" fill="url(#paint7_linear)"/>
<path d="M401.374 120.494L400.53 123.011L402.446 124.617L401.374 120.494Z" fill="url(#paint8_linear)"/>
<path d="M401.374 120.494L400.53 123.011L402.446 124.617L401.374 120.494Z" fill="url(#paint9_linear)"/>
<path d="M453.016 155.929L432.447 173.014L433.94 175.417L455 157.922V155.428L454.316 156.647L453.016 155.929Z" fill="url(#paint10_linear)"/>
<path d="M382.026 265.113L381.958 265.237L382.048 265.203L382.015 265.181L382.026 265.113Z" fill="url(#paint11_linear)"/>
<path d="M431.761 177.228H431.773L430.279 174.825L429.549 175.428L385.742 258.097L385.023 263.746L385.445 263.997L455 239.189V236.194L387.919 260.033L431.761 177.228Z" fill="url(#paint12_linear)"/>
<path d="M431.773 177.228L433.94 175.417L432.446 173.013L430.28 174.824L431.773 177.228Z" fill="url(#paint13_linear)"/>
<path d="M431.773 177.228L433.94 175.417L432.446 173.013L430.28 174.824L431.773 177.228Z" fill="url(#paint14_linear)"/>
<path d="M454.315 156.646L455 155.427V154.276L453.016 155.928L454.315 156.646Z" fill="url(#paint15_linear)"/>
<path d="M454.315 156.646L455 155.427V154.276L453.016 155.928L454.315 156.646Z" fill="url(#paint16_linear)"/>
<path d="M309.643 49.3636L311.125 48.1221L241.046 0.170288L238.675 2.07241L308.594 49.7964L309.94 49.728L309.643 49.3636Z" fill="url(#paint17_linear)"/>
<path d="M318.23 42.1657L336.793 0H333.726L313.372 46.2319L318.23 42.1657Z" fill="url(#paint18_linear)"/>
<path d="M313.543 49.7518L313.714 49.8999L314.524 50.5833L315.675 47.9636L313.543 49.7518Z" fill="url(#paint19_linear)"/>
<path d="M368.387 3.77026L367.611 0.763306L318.228 42.1658L315.674 47.9633L368.387 3.77026Z" fill="url(#paint20_linear)"/>
<path d="M313.373 46.2314L311.126 48.1222L312.21 48.8625L313.373 46.2314Z" fill="url(#paint21_linear)"/>
<path d="M368.387 3.77008L370.348 2.11853L368.558 0H368.512L367.612 0.763128L368.387 3.77008Z" fill="url(#paint22_linear)"/>
<path d="M368.387 3.77008L370.348 2.11853L368.558 0H368.512L367.612 0.763128L368.387 3.77008Z" fill="url(#paint23_linear)"/>
<path d="M309.94 49.7287L313.292 49.5465L313.543 49.7515L315.675 47.9633L318.229 42.1658L313.372 46.232L312.209 48.8631L311.126 48.1227L309.644 49.3642L309.94 49.7287Z" fill="url(#paint24_linear)"/>
<path d="M309.94 49.7287L313.292 49.5465L313.543 49.7515L315.675 47.9633L318.229 42.1658L313.372 46.232L312.209 48.8631L311.126 48.1227L309.644 49.3642L309.94 49.7287Z" fill="url(#paint25_linear)"/>
<path d="M402.093 129.493L400.201 126.452L399.688 126.167L382.128 264.282L382.025 265.114L385.742 258.097L402.093 129.493Z" fill="url(#paint26_linear)"/>
<path d="M241.252 0H240.796L241.047 0.17085L241.252 0Z" fill="url(#paint27_linear)"/>
<path d="M455 408.001V403.513L413.53 351.803L455 317.519V313.885L409.619 351.404L455 408.001Z" fill="url(#paint28_linear)"/>
<path d="M165.3 60.2188L167.193 60.1276L312.334 52.4052L399.562 125.859L399.733 125.347L398.741 121.508L314.523 50.5828L313.417 53.0886L308.594 49.7969L169.793 57.1776L238.674 2.07297L237.888 1.53765L240.373 0H228.469L235.573 0.956757L166.44 56.2664L155.471 0H152.609L163.658 56.6423L8.40354 0H0L162.689 59.2734L165.3 60.2188Z" fill="url(#paint29_linear)"/>
<path d="M382.047 265.203L454.999 309.966V306.686L385.444 263.996L382.047 265.203Z" fill="url(#paint30_linear)"/>
<path d="M400.53 123.012L398.74 121.509L399.732 125.347L399.869 124.949L400.53 123.012Z" fill="url(#paint31_linear)"/>
<path d="M400.53 123.012L398.74 121.509L399.732 125.347L399.869 124.949L400.53 123.012Z" fill="url(#paint32_linear)"/>
<path d="M400.201 126.452L402.094 129.493L402.333 127.636L400.201 126.452Z" fill="url(#paint33_linear)"/>
<path d="M400.201 126.452L402.094 129.493L402.333 127.636L400.201 126.452Z" fill="url(#paint34_linear)"/>
<path d="M402.652 125.085L402.687 124.823L402.447 124.618L402.504 124.845L402.652 125.085Z" fill="url(#paint35_linear)"/>
<path d="M402.652 125.085L402.687 124.823L402.447 124.618L402.504 124.845L402.652 125.085Z" fill="url(#paint36_linear)"/>
<path d="M399.893 125.961L399.836 125.756L399.733 125.346L399.562 125.859L399.71 125.984L399.688 126.166L400.201 126.451L399.893 125.961Z" fill="url(#paint37_linear)"/>
<path d="M399.893 125.961L399.836 125.756L399.733 125.346L399.562 125.859L399.71 125.984L399.688 126.166L400.201 126.451L399.893 125.961Z" fill="url(#paint38_linear)"/>
<path d="M399.892 125.962L400.2 126.451L402.332 127.636L402.594 125.574L402.651 125.085L402.503 124.845L402.446 124.618L400.531 123.012L399.869 124.948L399.732 125.347L399.835 125.757L399.892 125.962Z" fill="url(#paint39_linear)"/>
<path d="M399.892 125.962L400.2 126.451L402.332 127.636L402.594 125.574L402.651 125.085L402.503 124.845L402.446 124.618L400.531 123.012L399.869 124.948L399.732 125.347L399.835 125.757L399.892 125.962Z" fill="url(#paint40_linear)"/>
<path d="M399.892 125.962L400.2 126.451L402.332 127.636L402.594 125.574L402.651 125.085L402.503 124.845L402.446 124.618L400.531 123.012L399.869 124.948L399.732 125.347L399.835 125.757L399.892 125.962Z" fill="url(#paint41_linear)"/>
<path d="M385.023 263.746L385.742 258.097L382.025 265.113L382.013 265.181L382.047 265.204L385.445 263.997L385.023 263.746Z" fill="url(#paint42_linear)"/>
<path d="M385.023 263.746L385.742 258.097L382.025 265.113L382.013 265.181L382.047 265.204L385.445 263.997L385.023 263.746Z" fill="url(#paint43_linear)"/>
<path d="M313.542 49.7509L311.444 51.505L309.939 49.7281L308.593 49.7965L313.417 53.0882L314.523 50.5824L313.713 49.899L313.542 49.7509Z" fill="url(#paint44_linear)"/>
<path d="M313.542 49.7509L311.444 51.505L309.939 49.7281L308.593 49.7965L313.417 53.0882L314.523 50.5824L313.713 49.899L313.542 49.7509Z" fill="url(#paint45_linear)"/>
<path d="M238.673 2.07297L241.045 0.17085L240.794 0H240.372L237.886 1.53765L238.673 2.07297Z" fill="url(#paint46_linear)"/>
<path d="M238.673 2.07297L241.045 0.17085L240.794 0H240.372L237.886 1.53765L238.673 2.07297Z" fill="url(#paint47_linear)"/>
<path d="M309.939 49.7294L311.444 51.5062L313.542 49.7521L313.292 49.5471L309.939 49.7294Z" fill="url(#paint48_linear)"/>
<path d="M309.939 49.7294L311.444 51.5062L313.542 49.7521L313.292 49.5471L309.939 49.7294Z" fill="url(#paint49_linear)"/>
<path d="M309.939 49.7294L311.444 51.5062L313.542 49.7521L313.292 49.5471L309.939 49.7294Z" fill="url(#paint50_linear)"/>
</g>
<defs>
<linearGradient id="paint0_linear" x1="364.488" y1="61.5058" x2="463.278" y2="61.5058" gradientUnits="userSpaceOnUse">
<stop offset="0.01" stop-color="#BF9155"/>
<stop offset="0.14" stop-color="#CBA166"/>
<stop offset="0.4" stop-color="#ECCC93"/>
<stop offset="0.51" stop-color="#FBE0A8"/>
<stop offset="1" stop-color="#D5A960"/>
</linearGradient>
<linearGradient id="paint1_linear" x1="10104.7" y1="6392.87" x2="12734.5" y2="6392.87" gradientUnits="userSpaceOnUse">
<stop offset="0.01" stop-color="#BF9155"/>
<stop offset="0.14" stop-color="#CBA166"/>
<stop offset="0.4" stop-color="#ECCC93"/>
<stop offset="0.51" stop-color="#FBE0A8"/>
<stop offset="1" stop-color="#D5A960"/>
</linearGradient>
<linearGradient id="paint2_linear" x1="717.331" y1="0.251833" x2="812.148" y2="0.251833" gradientUnits="userSpaceOnUse">
<stop offset="0.01" stop-color="#BF9155"/>
<stop offset="0.14" stop-color="#CBA166"/>
<stop offset="0.4" stop-color="#ECCC93"/>
<stop offset="0.51" stop-color="#FBE0A8"/>
<stop offset="1" stop-color="#D5A960"/>
</linearGradient>
<linearGradient id="paint3_linear" x1="7856.4" y1="6881.72" x2="9868.75" y2="6881.72" gradientUnits="userSpaceOnUse">
<stop offset="0.01" stop-color="#BF9155"/>
<stop offset="0.14" stop-color="#CBA166"/>
<stop offset="0.4" stop-color="#ECCC93"/>
<stop offset="0.51" stop-color="#FBE0A8"/>
<stop offset="1" stop-color="#D5A960"/>
</linearGradient>
<linearGradient id="paint4_linear" x1="19189.5" y1="10673.3" x2="21832.2" y2="10673.3" gradientUnits="userSpaceOnUse">
<stop offset="0.01" stop-color="#BF9155"/>
<stop offset="0.14" stop-color="#CBA166"/>
<stop offset="0.4" stop-color="#ECCC93"/>
<stop offset="0.51" stop-color="#FBE0A8"/>
<stop offset="1" stop-color="#D5A960"/>
</linearGradient>
<linearGradient id="paint5_linear" x1="475.291" y1="159.815" x2="485.948" y2="159.815" gradientUnits="userSpaceOnUse">
<stop offset="0.01" stop-color="#BF9155"/>
<stop offset="0.14" stop-color="#CBA166"/>
<stop offset="0.4" stop-color="#ECCC93"/>
<stop offset="0.51" stop-color="#FBE0A8"/>
<stop offset="1" stop-color="#D5A960"/>
</linearGradient>
<linearGradient id="paint6_linear" x1="1335.45" y1="591.837" x2="1588.33" y2="591.837" gradientUnits="userSpaceOnUse">
<stop offset="0.01" stop-color="#BF9155"/>
<stop offset="0.14" stop-color="#CBA166"/>
<stop offset="0.4" stop-color="#ECCC93"/>
<stop offset="0.51" stop-color="#FBE0A8"/>
<stop offset="1" stop-color="#D5A960"/>
</linearGradient>
<linearGradient id="paint7_linear" x1="1425.07" y1="591.837" x2="1568.89" y2="591.837" gradientUnits="userSpaceOnUse">
<stop offset="0.01" stop-color="#BF9155"/>
<stop offset="0.14" stop-color="#CBA166"/>
<stop offset="0.4" stop-color="#ECCC93"/>
<stop offset="0.51" stop-color="#FBE0A8"/>
<stop offset="1" stop-color="#D5A960"/>
</linearGradient>
<linearGradient id="paint8_linear" x1="1012.87" y1="564.145" x2="1178.81" y2="564.145" gradientUnits="userSpaceOnUse">
<stop offset="0.01" stop-color="#BF9155"/>
<stop offset="0.14" stop-color="#CBA166"/>
<stop offset="0.4" stop-color="#ECCC93"/>
<stop offset="0.51" stop-color="#FBE0A8"/>
<stop offset="1" stop-color="#D5A960"/>
</linearGradient>
<linearGradient id="paint9_linear" x1="1071.68" y1="564.145" x2="1166.06" y2="564.145" gradientUnits="userSpaceOnUse">
<stop offset="0.01" stop-color="#BF9155"/>
<stop offset="0.14" stop-color="#CBA166"/>
<stop offset="0.4" stop-color="#ECCC93"/>
<stop offset="0.51" stop-color="#FBE0A8"/>
<stop offset="1" stop-color="#D5A960"/>
</linearGradient>
<linearGradient id="paint10_linear" x1="7987.54" y1="3058.49" x2="9668.03" y2="3058.49" gradientUnits="userSpaceOnUse">
<stop offset="0.01" stop-color="#BF9155"/>
<stop offset="0.14" stop-color="#CBA166"/>
<stop offset="0.4" stop-color="#ECCC93"/>
<stop offset="0.51" stop-color="#FBE0A8"/>
<stop offset="1" stop-color="#D5A960"/>
</linearGradient>
<linearGradient id="paint11_linear" x1="412.309" y1="294.114" x2="419.053" y2="294.114" gradientUnits="userSpaceOnUse">
<stop offset="0.01" stop-color="#BF9155"/>
<stop offset="0.14" stop-color="#CBA166"/>
<stop offset="0.4" stop-color="#ECCC93"/>
<stop offset="0.51" stop-color="#FBE0A8"/>
<stop offset="1" stop-color="#D5A960"/>
</linearGradient>
<linearGradient id="paint12_linear" x1="23825.7" y1="17352" x2="29039.6" y2="17352" gradientUnits="userSpaceOnUse">
<stop offset="0.01" stop-color="#BF9155"/>
<stop offset="0.14" stop-color="#CBA166"/>
<stop offset="0.4" stop-color="#ECCC93"/>
<stop offset="0.51" stop-color="#FBE0A8"/>
<stop offset="1" stop-color="#D5A960"/>
</linearGradient>
<linearGradient id="paint13_linear" x1="1600.3" y1="820.968" x2="1917.43" y2="820.968" gradientUnits="userSpaceOnUse">
<stop offset="0.01" stop-color="#BF9155"/>
<stop offset="0.14" stop-color="#CBA166"/>
<stop offset="0.4" stop-color="#ECCC93"/>
<stop offset="0.51" stop-color="#FBE0A8"/>
<stop offset="1" stop-color="#D5A960"/>
</linearGradient>
<linearGradient id="paint14_linear" x1="1656.38" y1="820.968" x2="1929.07" y2="820.968" gradientUnits="userSpaceOnUse">
<stop offset="0.01" stop-color="#BF9155"/>
<stop offset="0.14" stop-color="#CBA166"/>
<stop offset="0.4" stop-color="#ECCC93"/>
<stop offset="0.51" stop-color="#FBE0A8"/>
<stop offset="1" stop-color="#D5A960"/>
</linearGradient>
<linearGradient id="paint15_linear" x1="1148.12" y1="477.634" x2="1245.89" y2="477.634" gradientUnits="userSpaceOnUse">
<stop offset="0.01" stop-color="#BF9155"/>
<stop offset="0.14" stop-color="#CBA166"/>
<stop offset="0.4" stop-color="#ECCC93"/>
<stop offset="0.51" stop-color="#FBE0A8"/>
<stop offset="1" stop-color="#D5A960"/>
</linearGradient>
<linearGradient id="paint16_linear" x1="1117.59" y1="477.634" x2="1265.43" y2="477.634" gradientUnits="userSpaceOnUse">
<stop offset="0.01" stop-color="#BF9155"/>
<stop offset="0.14" stop-color="#CBA166"/>
<stop offset="0.4" stop-color="#ECCC93"/>
<stop offset="0.51" stop-color="#FBE0A8"/>
<stop offset="1" stop-color="#D5A960"/>
</linearGradient>
<linearGradient id="paint17_linear" x1="15354.1" y1="1088.47" x2="22442.6" y2="1088.47" gradientUnits="userSpaceOnUse">
<stop offset="0.01" stop-color="#BF9155"/>
<stop offset="0.14" stop-color="#CBA166"/>
<stop offset="0.4" stop-color="#ECCC93"/>
<stop offset="0.51" stop-color="#FBE0A8"/>
<stop offset="1" stop-color="#D5A960"/>
</linearGradient>
<linearGradient id="paint18_linear" x1="5199.6" y1="938.507" x2="7491.06" y2="938.507" gradientUnits="userSpaceOnUse">
<stop offset="0.01" stop-color="#BF9155"/>
<stop offset="0.14" stop-color="#CBA166"/>
<stop offset="0.4" stop-color="#ECCC93"/>
<stop offset="0.51" stop-color="#FBE0A8"/>
<stop offset="1" stop-color="#D5A960"/>
</linearGradient>
<linearGradient id="paint19_linear" x1="758.391" y1="161.291" x2="967.008" y2="161.291" gradientUnits="userSpaceOnUse">
<stop offset="0.01" stop-color="#BF9155"/>
<stop offset="0.14" stop-color="#CBA166"/>
<stop offset="0.4" stop-color="#ECCC93"/>
<stop offset="0.51" stop-color="#FBE0A8"/>
<stop offset="1" stop-color="#D5A960"/>
</linearGradient>
<linearGradient id="paint20_linear" x1="14630.4" y1="1010.37" x2="17436.9" y2="1010.37" gradientUnits="userSpaceOnUse">
<stop offset="0.01" stop-color="#BF9155"/>
<stop offset="0.14" stop-color="#CBA166"/>
<stop offset="0.4" stop-color="#ECCC93"/>
<stop offset="0.51" stop-color="#FBE0A8"/>
<stop offset="1" stop-color="#D5A960"/>
</linearGradient>
<linearGradient id="paint21_linear" x1="921.125" y1="156.079" x2="1040.69" y2="156.079" gradientUnits="userSpaceOnUse">
<stop offset="0.01" stop-color="#BF9155"/>
<stop offset="0.14" stop-color="#CBA166"/>
<stop offset="0.4" stop-color="#ECCC93"/>
<stop offset="0.51" stop-color="#FBE0A8"/>
<stop offset="1" stop-color="#D5A960"/>
</linearGradient>
<linearGradient id="paint22_linear" x1="1242.38" y1="6.22063" x2="1479.45" y2="6.22063" gradientUnits="userSpaceOnUse">
<stop offset="0.01" stop-color="#BF9155"/>
<stop offset="0.14" stop-color="#CBA166"/>
<stop offset="0.4" stop-color="#ECCC93"/>
<stop offset="0.51" stop-color="#FBE0A8"/>
<stop offset="1" stop-color="#D5A960"/>
</linearGradient>
<linearGradient id="paint23_linear" x1="1110.76" y1="6.22063" x2="1256.45" y2="6.22063" gradientUnits="userSpaceOnUse">
<stop offset="0.01" stop-color="#BF9155"/>
<stop offset="0.14" stop-color="#CBA166"/>
<stop offset="0.4" stop-color="#ECCC93"/>
<stop offset="0.51" stop-color="#FBE0A8"/>
<stop offset="1" stop-color="#D5A960"/>
</linearGradient>
<linearGradient id="paint24_linear" x1="2100.92" y1="348.25" x2="2940.97" y2="348.25" gradientUnits="userSpaceOnUse">
<stop offset="0.01" stop-color="#BF9155"/>
<stop offset="0.14" stop-color="#CBA166"/>
<stop offset="0.4" stop-color="#ECCC93"/>
<stop offset="0.51" stop-color="#FBE0A8"/>
<stop offset="1" stop-color="#D5A960"/>
</linearGradient>
<linearGradient id="paint25_linear" x1="2641.23" y1="348.25" x2="3098.35" y2="348.25" gradientUnits="userSpaceOnUse">
<stop offset="0.01" stop-color="#BF9155"/>
<stop offset="0.14" stop-color="#CBA166"/>
<stop offset="0.4" stop-color="#ECCC93"/>
<stop offset="0.51" stop-color="#FBE0A8"/>
<stop offset="1" stop-color="#D5A960"/>
</linearGradient>
<linearGradient id="paint26_linear" x1="332.858" y1="23991.6" x2="8572.71" y2="23991.6" gradientUnits="userSpaceOnUse">
<stop offset="0.01" stop-color="#BF9155"/>
<stop offset="0.14" stop-color="#CBA166"/>
<stop offset="0.4" stop-color="#ECCC93"/>
<stop offset="0.51" stop-color="#FBE0A8"/>
<stop offset="1" stop-color="#D5A960"/>
</linearGradient>
<linearGradient id="paint27_linear" x1="239.706" y1="0.0119592" x2="426.926" y2="0.0119592" gradientUnits="userSpaceOnUse">
<stop offset="0.01" stop-color="#BF9155"/>
<stop offset="0.14" stop-color="#CBA166"/>
<stop offset="0.4" stop-color="#ECCC93"/>
<stop offset="0.51" stop-color="#FBE0A8"/>
<stop offset="1" stop-color="#D5A960"/>
</linearGradient>
<linearGradient id="paint28_linear" x1="298.889" y1="30139" x2="18931.5" y2="30139" gradientUnits="userSpaceOnUse">
<stop offset="0.01" stop-color="#BF9155"/>
<stop offset="0.14" stop-color="#CBA166"/>
<stop offset="0.4" stop-color="#ECCC93"/>
<stop offset="0.51" stop-color="#FBE0A8"/>
<stop offset="1" stop-color="#D5A960"/>
</linearGradient>
<linearGradient id="paint29_linear" x1="-975.348" y1="6953.72" x2="163147" y2="6953.72" gradientUnits="userSpaceOnUse">
<stop offset="0.01" stop-color="#BF9155"/>
<stop offset="0.14" stop-color="#CBA166"/>
<stop offset="0.4" stop-color="#ECCC93"/>
<stop offset="0.51" stop-color="#FBE0A8"/>
<stop offset="1" stop-color="#D5A960"/>
</linearGradient>
<linearGradient id="paint30_linear" x1="204.043" y1="11846.6" x2="30156.8" y2="11846.6" gradientUnits="userSpaceOnUse">
<stop offset="0.01" stop-color="#BF9155"/>
<stop offset="0.14" stop-color="#CBA166"/>
<stop offset="0.4" stop-color="#ECCC93"/>
<stop offset="0.51" stop-color="#FBE0A8"/>
<stop offset="1" stop-color="#D5A960"/>
</linearGradient>
<linearGradient id="paint31_linear" x1="970.964" y1="537.439" x2="1126.06" y2="537.439" gradientUnits="userSpaceOnUse">
<stop offset="0.01" stop-color="#BF9155"/>
<stop offset="0.14" stop-color="#CBA166"/>
<stop offset="0.4" stop-color="#ECCC93"/>
<stop offset="0.51" stop-color="#FBE0A8"/>
<stop offset="1" stop-color="#D5A960"/>
</linearGradient>
<linearGradient id="paint32_linear" x1="394.39" y1="537.439" x2="1129.35" y2="537.439" gradientUnits="userSpaceOnUse">
<stop offset="0.01" stop-color="#BF9155"/>
<stop offset="0.14" stop-color="#CBA166"/>
<stop offset="0.4" stop-color="#ECCC93"/>
<stop offset="0.51" stop-color="#FBE0A8"/>
<stop offset="1" stop-color="#D5A960"/>
</linearGradient>
<linearGradient id="paint33_linear" x1="1081.74" y1="468.122" x2="1266.51" y2="468.122" gradientUnits="userSpaceOnUse">
<stop offset="0.01" stop-color="#BF9155"/>
<stop offset="0.14" stop-color="#CBA166"/>
<stop offset="0.4" stop-color="#ECCC93"/>
<stop offset="0.51" stop-color="#FBE0A8"/>
<stop offset="1" stop-color="#D5A960"/>
</linearGradient>
<linearGradient id="paint34_linear" x1="394.892" y1="468.122" x2="1270.43" y2="468.122" gradientUnits="userSpaceOnUse">
<stop offset="0.01" stop-color="#BF9155"/>
<stop offset="0.14" stop-color="#CBA166"/>
<stop offset="0.4" stop-color="#ECCC93"/>
<stop offset="0.51" stop-color="#FBE0A8"/>
<stop offset="1" stop-color="#D5A960"/>
</linearGradient>
<linearGradient id="paint35_linear" x1="486.327" y1="175.808" x2="498.152" y2="175.808" gradientUnits="userSpaceOnUse">
<stop offset="0.01" stop-color="#BF9155"/>
<stop offset="0.14" stop-color="#CBA166"/>
<stop offset="0.4" stop-color="#ECCC93"/>
<stop offset="0.51" stop-color="#FBE0A8"/>
<stop offset="1" stop-color="#D5A960"/>
</linearGradient>
<linearGradient id="paint36_linear" x1="401.664" y1="175.808" x2="500.191" y2="175.808" gradientUnits="userSpaceOnUse">
<stop offset="0.01" stop-color="#BF9155"/>
<stop offset="0.14" stop-color="#CBA166"/>
<stop offset="0.4" stop-color="#ECCC93"/>
<stop offset="0.51" stop-color="#FBE0A8"/>
<stop offset="1" stop-color="#D5A960"/>
</linearGradient>
<linearGradient id="paint37_linear" x1="623.295" y1="247.461" x2="654.758" y2="247.461" gradientUnits="userSpaceOnUse">
<stop offset="0.01" stop-color="#BF9155"/>
<stop offset="0.14" stop-color="#CBA166"/>
<stop offset="0.4" stop-color="#ECCC93"/>
<stop offset="0.51" stop-color="#FBE0A8"/>
<stop offset="1" stop-color="#D5A960"/>
</linearGradient>
<linearGradient id="paint38_linear" x1="398.061" y1="247.461" x2="660.186" y2="247.461" gradientUnits="userSpaceOnUse">
<stop offset="0.01" stop-color="#BF9155"/>
<stop offset="0.14" stop-color="#CBA166"/>
<stop offset="0.4" stop-color="#ECCC93"/>
<stop offset="0.51" stop-color="#FBE0A8"/>
<stop offset="1" stop-color="#D5A960"/>
</linearGradient>
<linearGradient id="paint39_linear" x1="1332.81" y1="631.823" x2="1585.68" y2="631.823" gradientUnits="userSpaceOnUse">
<stop offset="0.01" stop-color="#BF9155"/>
<stop offset="0.14" stop-color="#CBA166"/>
<stop offset="0.4" stop-color="#ECCC93"/>
<stop offset="0.51" stop-color="#FBE0A8"/>
<stop offset="1" stop-color="#D5A960"/>
</linearGradient>
<linearGradient id="paint40_linear" x1="1422.42" y1="631.823" x2="1566.24" y2="631.823" gradientUnits="userSpaceOnUse">
<stop offset="0.01" stop-color="#BF9155"/>
<stop offset="0.14" stop-color="#CBA166"/>
<stop offset="0.4" stop-color="#ECCC93"/>
<stop offset="0.51" stop-color="#FBE0A8"/>
<stop offset="1" stop-color="#D5A960"/>
</linearGradient>
<linearGradient id="paint41_linear" x1="392.698" y1="631.823" x2="1591.08" y2="631.823" gradientUnits="userSpaceOnUse">
<stop offset="0.01" stop-color="#BF9155"/>
<stop offset="0.14" stop-color="#CBA166"/>
<stop offset="0.4" stop-color="#ECCC93"/>
<stop offset="0.51" stop-color="#FBE0A8"/>
<stop offset="1" stop-color="#D5A960"/>
</linearGradient>
<linearGradient id="paint42_linear" x1="1631.02" y1="1890.79" x2="1908.84" y2="1890.79" gradientUnits="userSpaceOnUse">
<stop offset="0.01" stop-color="#BF9155"/>
<stop offset="0.14" stop-color="#CBA166"/>
<stop offset="0.4" stop-color="#ECCC93"/>
<stop offset="0.51" stop-color="#FBE0A8"/>
<stop offset="1" stop-color="#D5A960"/>
</linearGradient>
<linearGradient id="paint43_linear" x1="372.804" y1="1890.79" x2="1903.84" y2="1890.79" gradientUnits="userSpaceOnUse">
<stop offset="0.01" stop-color="#BF9155"/>
<stop offset="0.14" stop-color="#CBA166"/>
<stop offset="0.4" stop-color="#ECCC93"/>
<stop offset="0.51" stop-color="#FBE0A8"/>
<stop offset="1" stop-color="#D5A960"/>
</linearGradient>
<linearGradient id="paint44_linear" x1="1545.61" y1="201.366" x2="2125.73" y2="201.366" gradientUnits="userSpaceOnUse">
<stop offset="0.01" stop-color="#BF9155"/>
<stop offset="0.14" stop-color="#CBA166"/>
<stop offset="0.4" stop-color="#ECCC93"/>
<stop offset="0.51" stop-color="#FBE0A8"/>
<stop offset="1" stop-color="#D5A960"/>
</linearGradient>
<linearGradient id="paint45_linear" x1="294.185" y1="201.366" x2="2728.56" y2="201.366" gradientUnits="userSpaceOnUse">
<stop offset="0.01" stop-color="#BF9155"/>
<stop offset="0.14" stop-color="#CBA166"/>
<stop offset="0.4" stop-color="#ECCC93"/>
<stop offset="0.51" stop-color="#FBE0A8"/>
<stop offset="1" stop-color="#D5A960"/>
</linearGradient>
<linearGradient id="paint46_linear" x1="896.843" y1="1.88641" x2="1205.9" y2="1.88641" gradientUnits="userSpaceOnUse">
<stop offset="0.01" stop-color="#BF9155"/>
<stop offset="0.14" stop-color="#CBA166"/>
<stop offset="0.4" stop-color="#ECCC93"/>
<stop offset="0.51" stop-color="#FBE0A8"/>
<stop offset="1" stop-color="#D5A960"/>
</linearGradient>
<linearGradient id="paint47_linear" x1="230.148" y1="1.88642" x2="1527.03" y2="1.88642" gradientUnits="userSpaceOnUse">
<stop offset="0.01" stop-color="#BF9155"/>
<stop offset="0.14" stop-color="#CBA166"/>
<stop offset="0.4" stop-color="#ECCC93"/>
<stop offset="0.51" stop-color="#FBE0A8"/>
<stop offset="1" stop-color="#D5A960"/>
</linearGradient>
<linearGradient id="paint48_linear" x1="1061.66" y1="136.452" x2="1414.2" y2="136.452" gradientUnits="userSpaceOnUse">
<stop offset="0.01" stop-color="#BF9155"/>
<stop offset="0.14" stop-color="#CBA166"/>
<stop offset="0.4" stop-color="#ECCC93"/>
<stop offset="0.51" stop-color="#FBE0A8"/>
<stop offset="1" stop-color="#D5A960"/>
</linearGradient>
<linearGradient id="paint49_linear" x1="1288.41" y1="136.452" x2="1480.24" y2="136.452" gradientUnits="userSpaceOnUse">
<stop offset="0.01" stop-color="#BF9155"/>
<stop offset="0.14" stop-color="#CBA166"/>
<stop offset="0.4" stop-color="#ECCC93"/>
<stop offset="0.51" stop-color="#FBE0A8"/>
<stop offset="1" stop-color="#D5A960"/>
</linearGradient>
<linearGradient id="paint50_linear" x1="301.148" y1="136.452" x2="1780.49" y2="136.452" gradientUnits="userSpaceOnUse">
<stop offset="0.01" stop-color="#BF9155"/>
<stop offset="0.14" stop-color="#CBA166"/>
<stop offset="0.4" stop-color="#ECCC93"/>
<stop offset="0.51" stop-color="#FBE0A8"/>
<stop offset="1" stop-color="#D5A960"/>
</linearGradient>
<clipPath id="clip0">
<rect width="455" height="408" fill="white"/>
</clipPath>
</defs>
</svg>
