<svg width="347" height="235" viewBox="0 0 347 235" fill="none" xmlns="http://www.w3.org/2000/svg">
<g clip-path="url(#clip0)">
<path d="M39.4198 165.64L52.3319 94.5894L51.1515 93.8736L49.8365 94.0811L36.9037 165.236L37.9909 166.854L39.4198 165.64Z" fill="url(#paint0_linear)"/>
<path d="M38.5084 170.651L37.6387 170.319L35.7541 171.533L24.2192 235H25.1926L27.0046 233.932L38.5084 170.651Z" fill="url(#paint1_linear)"/>
<path d="M51.669 91.2177L52.3524 91.6223L0 0V5.13508L49.3806 91.5704L51.669 91.2177Z" fill="url(#paint2_linear)"/>
<path d="M52.3319 94.5891L93.8224 119.486L39.4199 165.64L38.9746 168.088L39.9893 168.482L95.6966 121.229L95.6241 119.196L98.0988 119.082L52.3526 91.6221L52.7461 92.3172L52.3319 94.5891Z" fill="url(#paint3_linear)"/>
<path d="M50.0744 92.7739L49.3806 91.5705L0 99.0501V101.633L49.8362 94.081L50.0744 92.7739Z" fill="url(#paint4_linear)"/>
<path d="M36.0854 169.727L34.6772 169.188L0 191.585V194.614L35.7541 171.532L36.0854 169.727Z" fill="url(#paint5_linear)"/>
<path d="M36.5514 167.175L36.9034 165.235L0 110.274V114.849L34.6565 166.46L36.5514 167.175Z" fill="url(#paint6_linear)"/>
<path d="M98.1818 119.123H98.1708V119.134L98.1818 119.123Z" fill="url(#paint7_linear)"/>
<path d="M39.4191 165.64L37.9902 166.854L36.903 165.236L36.5509 167.175L38.9739 168.088L39.4191 165.64Z" fill="url(#paint8_linear)"/>
<path d="M39.4191 165.64L37.9902 166.854L36.903 165.236L36.5509 167.175L38.9739 168.088L39.4191 165.64Z" fill="url(#paint9_linear)"/>
<path d="M35.7538 171.532L37.6383 170.319L36.0851 169.727L35.7538 171.532Z" fill="url(#paint10_linear)"/>
<path d="M35.7538 171.532L37.6383 170.319L36.0851 169.727L35.7538 171.532Z" fill="url(#paint11_linear)"/>
<path d="M49.3806 91.5706L50.0744 92.774L49.8362 94.0811L51.1512 93.8736L52.3316 94.5894L52.7458 92.3176L52.3523 91.6225L51.669 91.2179L49.3806 91.5706Z" fill="url(#paint12_linear)"/>
<path d="M49.3806 91.5706L50.0744 92.774L49.8362 94.0811L51.1512 93.8736L52.3316 94.5894L52.7458 92.3176L52.3523 91.6225L51.669 91.2179L49.3806 91.5706Z" fill="url(#paint13_linear)"/>
<path d="M226.774 180.693L258.22 235H261.161L228.544 178.649L226.774 180.693Z" fill="url(#paint14_linear)"/>
<path d="M98.2431 190.579L99.4443 191.035L99.8688 190.786L102.002 193.463L223.719 180.34L226.163 177.508L100.77 191.035L98.1706 119.134L95.6959 121.229L98.2431 190.579Z" fill="url(#paint15_linear)"/>
<path d="M98.1709 119.071L98.0984 119.082L98.1709 119.123V119.071Z" fill="url(#paint16_linear)"/>
<path d="M227.778 177.331L227.716 177.342L227.851 177.456L227.778 177.331Z" fill="url(#paint17_linear)"/>
<path d="M95.6961 121.229L98.1709 119.134V119.123L98.0984 119.082L95.6237 119.196L95.6961 121.229Z" fill="url(#paint18_linear)"/>
<path d="M95.6961 121.229L98.1709 119.134V119.123L98.0984 119.082L95.6237 119.196L95.6961 121.229Z" fill="url(#paint19_linear)"/>
<path d="M226.412 180.05L223.719 180.34L176.503 235H179.878L226.774 180.693L226.412 180.05Z" fill="url(#paint20_linear)"/>
<path d="M226.908 176.636L226.163 177.508L227.716 177.342L226.908 176.636Z" fill="url(#paint21_linear)"/>
<path d="M98.3573 193.857L98.3366 193.349L96.6385 192.695L27.0045 233.931L26.8077 235H30.204L99.2582 194.106L131.761 235H135.012L102.002 193.463L98.3573 193.857Z" fill="url(#paint22_linear)"/>
<path d="M228.834 178.307L227.851 177.456L228.544 178.649L228.834 178.307Z" fill="url(#paint23_linear)"/>
<path d="M25.1925 235H26.8078L27.0045 233.931L25.1925 235Z" fill="url(#paint24_linear)"/>
<path d="M25.1925 235H26.8078L27.0045 233.931L25.1925 235Z" fill="url(#paint25_linear)"/>
<path d="M99.4447 191.035L100.014 191.253L99.1134 193.639L98.3368 193.349L98.3575 193.857L102.002 193.463L99.8693 190.786L99.4447 191.035Z" fill="url(#paint26_linear)"/>
<path d="M99.4447 191.035L100.014 191.253L99.1134 193.639L98.3368 193.349L98.3575 193.857L102.002 193.463L99.8693 190.786L99.4447 191.035Z" fill="url(#paint27_linear)"/>
<path d="M226.412 180.05L226.774 180.693L228.545 178.649L227.851 177.456L227.716 177.342L226.163 177.508L223.719 180.34L226.412 180.05Z" fill="url(#paint28_linear)"/>
<path d="M226.412 180.05L226.774 180.693L228.545 178.649L227.851 177.456L227.716 177.342L226.163 177.508L223.719 180.34L226.412 180.05Z" fill="url(#paint29_linear)"/>
<path d="M35.9405 168.379L34.6565 166.459L0 153.305V156.034L34.6772 169.188L35.9405 168.379Z" fill="url(#paint30_linear)"/>
<path d="M98.2433 190.579L39.9889 168.483L38.7049 169.572L38.5082 170.651L96.6383 192.695L98.2847 191.72L98.2433 190.579Z" fill="url(#paint31_linear)"/>
<path d="M38.415 169.81L37.6384 170.319L38.5082 170.651L38.7049 169.572L38.415 169.81Z" fill="url(#paint32_linear)"/>
<path d="M38.415 169.81L37.6384 170.319L38.5082 170.651L38.7049 169.572L38.415 169.81Z" fill="url(#paint33_linear)"/>
<path d="M34.657 166.46L35.9409 168.379L34.6777 169.188L36.0859 169.727L36.5519 167.175L34.657 166.46Z" fill="url(#paint34_linear)"/>
<path d="M34.657 166.46L35.9409 168.379L34.6777 169.188L36.0859 169.727L36.5519 167.175L34.657 166.46Z" fill="url(#paint35_linear)"/>
<path d="M39.9893 168.482L38.9745 168.088L38.7053 169.572L39.9893 168.482Z" fill="url(#paint36_linear)"/>
<path d="M39.9893 168.482L38.9745 168.088L38.7053 169.572L39.9893 168.482Z" fill="url(#paint37_linear)"/>
<path d="M38.7053 169.572L38.9745 168.088L36.5515 167.175L36.0856 169.727L37.6387 170.319L38.4153 169.81L38.7053 169.572Z" fill="url(#paint38_linear)"/>
<path d="M38.7053 169.572L38.9745 168.088L36.5515 167.175L36.0856 169.727L37.6387 170.319L38.4153 169.81L38.7053 169.572Z" fill="url(#paint39_linear)"/>
<path d="M38.7053 169.572L38.9745 168.088L36.5515 167.175L36.0856 169.727L37.6387 170.319L38.4153 169.81L38.7053 169.572Z" fill="url(#paint40_linear)"/>
<path d="M99.4444 191.035L98.2433 190.579L98.2847 191.72L99.4444 191.035Z" fill="url(#paint41_linear)"/>
<path d="M99.4444 191.035L98.2433 190.579L98.2847 191.72L99.4444 191.035Z" fill="url(#paint42_linear)"/>
<path d="M96.6387 192.695L98.3368 193.349L98.285 191.72L96.6387 192.695Z" fill="url(#paint43_linear)"/>
<path d="M96.6387 192.695L98.3368 193.349L98.285 191.72L96.6387 192.695Z" fill="url(#paint44_linear)"/>
<path d="M100.014 191.253L99.4444 191.035L98.2847 191.72L98.3364 193.349L99.113 193.639L100.014 191.253Z" fill="url(#paint45_linear)"/>
<path d="M100.014 191.253L99.4444 191.035L98.2847 191.72L98.3364 193.349L99.113 193.639L100.014 191.253Z" fill="url(#paint46_linear)"/>
<path d="M100.014 191.253L99.4444 191.035L98.2847 191.72L98.3364 193.349L99.113 193.639L100.014 191.253Z" fill="url(#paint47_linear)"/>
<path d="M268.668 235H275.926L332.348 213.837L344.08 235H347L333.508 210.673L268.668 235Z" fill="url(#paint48_linear)"/>
</g>
<defs>
<linearGradient id="paint0_linear" x1="-13.9058" y1="130.369" x2="52.7461" y2="130.369" gradientUnits="userSpaceOnUse">
<stop offset="0.01" stop-color="#BF9155"/>
<stop offset="0.14" stop-color="#CBA166"/>
<stop offset="0.4" stop-color="#ECCC93"/>
<stop offset="0.51" stop-color="#FBE0A8"/>
<stop offset="1" stop-color="#D5A960"/>
</linearGradient>
<linearGradient id="paint1_linear" x1="-167.685" y1="12806.4" x2="752.111" y2="12806.4" gradientUnits="userSpaceOnUse">
<stop offset="0.01" stop-color="#BF9155"/>
<stop offset="0.14" stop-color="#CBA166"/>
<stop offset="0.4" stop-color="#ECCC93"/>
<stop offset="0.51" stop-color="#FBE0A8"/>
<stop offset="1" stop-color="#D5A960"/>
</linearGradient>
<linearGradient id="paint2_linear" x1="-703.092" y1="4046.04" x2="2666.83" y2="4046.04" gradientUnits="userSpaceOnUse">
<stop offset="0.01" stop-color="#BF9155"/>
<stop offset="0.14" stop-color="#CBA166"/>
<stop offset="0.4" stop-color="#ECCC93"/>
<stop offset="0.51" stop-color="#FBE0A8"/>
<stop offset="1" stop-color="#D5A960"/>
</linearGradient>
<linearGradient id="paint3_linear" x1="-731.414" y1="9727.59" x2="5645.13" y2="9727.59" gradientUnits="userSpaceOnUse">
<stop offset="0.01" stop-color="#BF9155"/>
<stop offset="0.14" stop-color="#CBA166"/>
<stop offset="0.4" stop-color="#ECCC93"/>
<stop offset="0.51" stop-color="#FBE0A8"/>
<stop offset="1" stop-color="#D5A960"/>
</linearGradient>
<linearGradient id="paint4_linear" x1="-652.469" y1="1028.61" x2="4748.05" y2="1028.61" gradientUnits="userSpaceOnUse">
<stop offset="0.01" stop-color="#BF9155"/>
<stop offset="0.14" stop-color="#CBA166"/>
<stop offset="0.4" stop-color="#ECCC93"/>
<stop offset="0.51" stop-color="#FBE0A8"/>
<stop offset="1" stop-color="#D5A960"/>
</linearGradient>
<linearGradient id="paint5_linear" x1="-470.193" y1="4627.71" x2="3421.62" y2="4627.71" gradientUnits="userSpaceOnUse">
<stop offset="0.01" stop-color="#BF9155"/>
<stop offset="0.14" stop-color="#CBA166"/>
<stop offset="0.4" stop-color="#ECCC93"/>
<stop offset="0.51" stop-color="#FBE0A8"/>
<stop offset="1" stop-color="#D5A960"/>
</linearGradient>
<linearGradient id="paint6_linear" x1="-480.852" y1="7719.62" x2="3499.18" y2="7719.62" gradientUnits="userSpaceOnUse">
<stop offset="0.01" stop-color="#BF9155"/>
<stop offset="0.14" stop-color="#CBA166"/>
<stop offset="0.4" stop-color="#ECCC93"/>
<stop offset="0.51" stop-color="#FBE0A8"/>
<stop offset="1" stop-color="#D5A960"/>
</linearGradient>
<linearGradient id="paint7_linear" x1="98.1051" y1="120.39" x2="98.8703" y2="120.39" gradientUnits="userSpaceOnUse">
<stop offset="0.01" stop-color="#BF9155"/>
<stop offset="0.14" stop-color="#CBA166"/>
<stop offset="0.4" stop-color="#ECCC93"/>
<stop offset="0.51" stop-color="#FBE0A8"/>
<stop offset="1" stop-color="#D5A960"/>
</linearGradient>
<linearGradient id="paint8_linear" x1="-1.96895" y1="623.571" x2="182.657" y2="623.571" gradientUnits="userSpaceOnUse">
<stop offset="0.01" stop-color="#BF9155"/>
<stop offset="0.14" stop-color="#CBA166"/>
<stop offset="0.4" stop-color="#ECCC93"/>
<stop offset="0.51" stop-color="#FBE0A8"/>
<stop offset="1" stop-color="#D5A960"/>
</linearGradient>
<linearGradient id="paint9_linear" x1="-0.792992" y1="623.571" x2="308.484" y2="623.571" gradientUnits="userSpaceOnUse">
<stop offset="0.01" stop-color="#BF9155"/>
<stop offset="0.14" stop-color="#CBA166"/>
<stop offset="0.4" stop-color="#ECCC93"/>
<stop offset="0.51" stop-color="#FBE0A8"/>
<stop offset="1" stop-color="#D5A960"/>
</linearGradient>
<linearGradient id="paint10_linear" x1="10.4448" y1="466.628" x2="131.751" y2="466.628" gradientUnits="userSpaceOnUse">
<stop offset="0.01" stop-color="#BF9155"/>
<stop offset="0.14" stop-color="#CBA166"/>
<stop offset="0.4" stop-color="#ECCC93"/>
<stop offset="0.51" stop-color="#FBE0A8"/>
<stop offset="1" stop-color="#D5A960"/>
</linearGradient>
<linearGradient id="paint11_linear" x1="11.1986" y1="466.628" x2="214.443" y2="466.628" gradientUnits="userSpaceOnUse">
<stop offset="0.01" stop-color="#BF9155"/>
<stop offset="0.14" stop-color="#CBA166"/>
<stop offset="0.4" stop-color="#ECCC93"/>
<stop offset="0.51" stop-color="#FBE0A8"/>
<stop offset="1" stop-color="#D5A960"/>
</linearGradient>
<linearGradient id="paint12_linear" x1="4.15233" y1="393.138" x2="220.804" y2="393.138" gradientUnits="userSpaceOnUse">
<stop offset="0.01" stop-color="#BF9155"/>
<stop offset="0.14" stop-color="#CBA166"/>
<stop offset="0.4" stop-color="#ECCC93"/>
<stop offset="0.51" stop-color="#FBE0A8"/>
<stop offset="1" stop-color="#D5A960"/>
</linearGradient>
<linearGradient id="paint13_linear" x1="5.53206" y1="393.138" x2="368.469" y2="393.138" gradientUnits="userSpaceOnUse">
<stop offset="0.01" stop-color="#BF9155"/>
<stop offset="0.14" stop-color="#CBA166"/>
<stop offset="0.4" stop-color="#ECCC93"/>
<stop offset="0.51" stop-color="#FBE0A8"/>
<stop offset="1" stop-color="#D5A960"/>
</linearGradient>
<linearGradient id="paint14_linear" x1="3402.44" y1="11413.4" x2="9108.31" y2="11413.4" gradientUnits="userSpaceOnUse">
<stop offset="0.01" stop-color="#BF9155"/>
<stop offset="0.14" stop-color="#CBA166"/>
<stop offset="0.4" stop-color="#ECCC93"/>
<stop offset="0.51" stop-color="#FBE0A8"/>
<stop offset="1" stop-color="#D5A960"/>
</linearGradient>
<linearGradient id="paint15_linear" x1="12153.4" y1="11318.3" x2="33801.8" y2="11318.3" gradientUnits="userSpaceOnUse">
<stop offset="0.01" stop-color="#BF9155"/>
<stop offset="0.14" stop-color="#CBA166"/>
<stop offset="0.4" stop-color="#ECCC93"/>
<stop offset="0.51" stop-color="#FBE0A8"/>
<stop offset="1" stop-color="#D5A960"/>
</linearGradient>
<linearGradient id="paint16_linear" x1="104.793" y1="125.029" x2="116.842" y2="125.029" gradientUnits="userSpaceOnUse">
<stop offset="0.01" stop-color="#BF9155"/>
<stop offset="0.14" stop-color="#CBA166"/>
<stop offset="0.4" stop-color="#ECCC93"/>
<stop offset="0.51" stop-color="#FBE0A8"/>
<stop offset="1" stop-color="#D5A960"/>
</linearGradient>
<linearGradient id="paint17_linear" x1="240.153" y1="198.623" x2="262.487" y2="198.623" gradientUnits="userSpaceOnUse">
<stop offset="0.01" stop-color="#BF9155"/>
<stop offset="0.14" stop-color="#CBA166"/>
<stop offset="0.4" stop-color="#ECCC93"/>
<stop offset="0.51" stop-color="#FBE0A8"/>
<stop offset="1" stop-color="#D5A960"/>
</linearGradient>
<linearGradient id="paint18_linear" x1="62.4082" y1="367.796" x2="337.149" y2="367.796" gradientUnits="userSpaceOnUse">
<stop offset="0.01" stop-color="#BF9155"/>
<stop offset="0.14" stop-color="#CBA166"/>
<stop offset="0.4" stop-color="#ECCC93"/>
<stop offset="0.51" stop-color="#FBE0A8"/>
<stop offset="1" stop-color="#D5A960"/>
</linearGradient>
<linearGradient id="paint19_linear" x1="330.857" y1="367.796" x2="753.564" y2="367.796" gradientUnits="userSpaceOnUse">
<stop offset="0.01" stop-color="#BF9155"/>
<stop offset="0.14" stop-color="#CBA166"/>
<stop offset="0.4" stop-color="#ECCC93"/>
<stop offset="0.51" stop-color="#FBE0A8"/>
<stop offset="1" stop-color="#D5A960"/>
</linearGradient>
<linearGradient id="paint20_linear" x1="1363.4" y1="11172.4" x2="11286.4" y2="11172.4" gradientUnits="userSpaceOnUse">
<stop offset="0.01" stop-color="#BF9155"/>
<stop offset="0.14" stop-color="#CBA166"/>
<stop offset="0.4" stop-color="#ECCC93"/>
<stop offset="0.51" stop-color="#FBE0A8"/>
<stop offset="1" stop-color="#D5A960"/>
</linearGradient>
<linearGradient id="paint21_linear" x1="262.848" y1="325.373" x2="569.411" y2="325.373" gradientUnits="userSpaceOnUse">
<stop offset="0.01" stop-color="#BF9155"/>
<stop offset="0.14" stop-color="#CBA166"/>
<stop offset="0.4" stop-color="#ECCC93"/>
<stop offset="0.51" stop-color="#FBE0A8"/>
<stop offset="1" stop-color="#D5A960"/>
</linearGradient>
<linearGradient id="paint22_linear" x1="2581.52" y1="8913.4" x2="23940" y2="8913.4" gradientUnits="userSpaceOnUse">
<stop offset="0.01" stop-color="#BF9155"/>
<stop offset="0.14" stop-color="#CBA166"/>
<stop offset="0.4" stop-color="#ECCC93"/>
<stop offset="0.51" stop-color="#FBE0A8"/>
<stop offset="1" stop-color="#D5A960"/>
</linearGradient>
<linearGradient id="paint23_linear" x1="251.046" y1="382.224" x2="445.242" y2="382.224" gradientUnits="userSpaceOnUse">
<stop offset="0.01" stop-color="#BF9155"/>
<stop offset="0.14" stop-color="#CBA166"/>
<stop offset="0.4" stop-color="#ECCC93"/>
<stop offset="0.51" stop-color="#FBE0A8"/>
<stop offset="1" stop-color="#D5A960"/>
</linearGradient>
<linearGradient id="paint24_linear" x1="0.85688" y1="475.436" x2="117.498" y2="475.436" gradientUnits="userSpaceOnUse">
<stop offset="0.01" stop-color="#BF9155"/>
<stop offset="0.14" stop-color="#CBA166"/>
<stop offset="0.4" stop-color="#ECCC93"/>
<stop offset="0.51" stop-color="#FBE0A8"/>
<stop offset="1" stop-color="#D5A960"/>
</linearGradient>
<linearGradient id="paint25_linear" x1="67.9746" y1="475.436" x2="425.688" y2="475.436" gradientUnits="userSpaceOnUse">
<stop offset="0.01" stop-color="#BF9155"/>
<stop offset="0.14" stop-color="#CBA166"/>
<stop offset="0.4" stop-color="#ECCC93"/>
<stop offset="0.51" stop-color="#FBE0A8"/>
<stop offset="1" stop-color="#D5A960"/>
</linearGradient>
<linearGradient id="paint26_linear" x1="436.845" y1="760.06" x2="1045.02" y2="760.06" gradientUnits="userSpaceOnUse">
<stop offset="0.01" stop-color="#BF9155"/>
<stop offset="0.14" stop-color="#CBA166"/>
<stop offset="0.4" stop-color="#ECCC93"/>
<stop offset="0.51" stop-color="#FBE0A8"/>
<stop offset="1" stop-color="#D5A960"/>
</linearGradient>
<linearGradient id="paint27_linear" x1="184.916" y1="760.06" x2="908.412" y2="760.06" gradientUnits="userSpaceOnUse">
<stop offset="0.01" stop-color="#BF9155"/>
<stop offset="0.14" stop-color="#CBA166"/>
<stop offset="0.4" stop-color="#ECCC93"/>
<stop offset="0.51" stop-color="#FBE0A8"/>
<stop offset="1" stop-color="#D5A960"/>
</linearGradient>
<linearGradient id="paint28_linear" x1="669.328" y1="755.556" x2="1469.97" y2="755.556" gradientUnits="userSpaceOnUse">
<stop offset="0.01" stop-color="#BF9155"/>
<stop offset="0.14" stop-color="#CBA166"/>
<stop offset="0.4" stop-color="#ECCC93"/>
<stop offset="0.51" stop-color="#FBE0A8"/>
<stop offset="1" stop-color="#D5A960"/>
</linearGradient>
<linearGradient id="paint29_linear" x1="337.643" y1="755.556" x2="1290.09" y2="755.556" gradientUnits="userSpaceOnUse">
<stop offset="0.01" stop-color="#BF9155"/>
<stop offset="0.14" stop-color="#CBA166"/>
<stop offset="0.4" stop-color="#ECCC93"/>
<stop offset="0.51" stop-color="#FBE0A8"/>
<stop offset="1" stop-color="#D5A960"/>
</linearGradient>
<linearGradient id="paint30_linear" x1="-150.591" y1="2622.07" x2="3471.49" y2="2622.07" gradientUnits="userSpaceOnUse">
<stop offset="0.01" stop-color="#BF9155"/>
<stop offset="0.14" stop-color="#CBA166"/>
<stop offset="0.4" stop-color="#ECCC93"/>
<stop offset="0.51" stop-color="#FBE0A8"/>
<stop offset="1" stop-color="#D5A960"/>
</linearGradient>
<linearGradient id="paint31_linear" x1="-211.955" y1="4383.44" x2="5812.32" y2="4383.44" gradientUnits="userSpaceOnUse">
<stop offset="0.01" stop-color="#BF9155"/>
<stop offset="0.14" stop-color="#CBA166"/>
<stop offset="0.4" stop-color="#ECCC93"/>
<stop offset="0.51" stop-color="#FBE0A8"/>
<stop offset="1" stop-color="#D5A960"/>
</linearGradient>
<linearGradient id="paint32_linear" x1="23.3151" y1="346.49" x2="91.9668" y2="346.49" gradientUnits="userSpaceOnUse">
<stop offset="0.01" stop-color="#BF9155"/>
<stop offset="0.14" stop-color="#CBA166"/>
<stop offset="0.4" stop-color="#ECCC93"/>
<stop offset="0.51" stop-color="#FBE0A8"/>
<stop offset="1" stop-color="#D5A960"/>
</linearGradient>
<linearGradient id="paint33_linear" x1="33.1697" y1="346.49" x2="140.664" y2="346.49" gradientUnits="userSpaceOnUse">
<stop offset="0.01" stop-color="#BF9155"/>
<stop offset="0.14" stop-color="#CBA166"/>
<stop offset="0.4" stop-color="#ECCC93"/>
<stop offset="0.51" stop-color="#FBE0A8"/>
<stop offset="1" stop-color="#D5A960"/>
</linearGradient>
<linearGradient id="paint34_linear" x1="9.98566" y1="695.935" x2="214.31" y2="695.935" gradientUnits="userSpaceOnUse">
<stop offset="0.01" stop-color="#BF9155"/>
<stop offset="0.14" stop-color="#CBA166"/>
<stop offset="0.4" stop-color="#ECCC93"/>
<stop offset="0.51" stop-color="#FBE0A8"/>
<stop offset="1" stop-color="#D5A960"/>
</linearGradient>
<linearGradient id="paint35_linear" x1="26.7364" y1="695.935" x2="217.664" y2="695.935" gradientUnits="userSpaceOnUse">
<stop offset="0.01" stop-color="#BF9155"/>
<stop offset="0.14" stop-color="#CBA166"/>
<stop offset="0.4" stop-color="#ECCC93"/>
<stop offset="0.51" stop-color="#FBE0A8"/>
<stop offset="1" stop-color="#D5A960"/>
</linearGradient>
<linearGradient id="paint36_linear" x1="21.9626" y1="409.526" x2="160.462" y2="409.526" gradientUnits="userSpaceOnUse">
<stop offset="0.01" stop-color="#BF9155"/>
<stop offset="0.14" stop-color="#CBA166"/>
<stop offset="0.4" stop-color="#ECCC93"/>
<stop offset="0.51" stop-color="#FBE0A8"/>
<stop offset="1" stop-color="#D5A960"/>
</linearGradient>
<linearGradient id="paint37_linear" x1="33.3256" y1="409.526" x2="162.735" y2="409.526" gradientUnits="userSpaceOnUse">
<stop offset="0.01" stop-color="#BF9155"/>
<stop offset="0.14" stop-color="#CBA166"/>
<stop offset="0.4" stop-color="#ECCC93"/>
<stop offset="0.51" stop-color="#FBE0A8"/>
<stop offset="1" stop-color="#D5A960"/>
</linearGradient>
<linearGradient id="paint38_linear" x1="-2.68358" y1="678.464" x2="183.247" y2="678.464" gradientUnits="userSpaceOnUse">
<stop offset="0.01" stop-color="#BF9155"/>
<stop offset="0.14" stop-color="#CBA166"/>
<stop offset="0.4" stop-color="#ECCC93"/>
<stop offset="0.51" stop-color="#FBE0A8"/>
<stop offset="1" stop-color="#D5A960"/>
</linearGradient>
<linearGradient id="paint39_linear" x1="-1.52802" y1="678.464" x2="309.954" y2="678.464" gradientUnits="userSpaceOnUse">
<stop offset="0.01" stop-color="#BF9155"/>
<stop offset="0.14" stop-color="#CBA166"/>
<stop offset="0.4" stop-color="#ECCC93"/>
<stop offset="0.51" stop-color="#FBE0A8"/>
<stop offset="1" stop-color="#D5A960"/>
</linearGradient>
<linearGradient id="paint40_linear" x1="24.0388" y1="678.464" x2="315.096" y2="678.464" gradientUnits="userSpaceOnUse">
<stop offset="0.01" stop-color="#BF9155"/>
<stop offset="0.14" stop-color="#CBA166"/>
<stop offset="0.4" stop-color="#ECCC93"/>
<stop offset="0.51" stop-color="#FBE0A8"/>
<stop offset="1" stop-color="#D5A960"/>
</linearGradient>
<linearGradient id="paint41_linear" x1="209.164" y1="400.846" x2="408.522" y2="400.846" gradientUnits="userSpaceOnUse">
<stop offset="0.01" stop-color="#BF9155"/>
<stop offset="0.14" stop-color="#CBA166"/>
<stop offset="0.4" stop-color="#ECCC93"/>
<stop offset="0.51" stop-color="#FBE0A8"/>
<stop offset="1" stop-color="#D5A960"/>
</linearGradient>
<linearGradient id="paint42_linear" x1="93.1747" y1="400.846" x2="214.257" y2="400.846" gradientUnits="userSpaceOnUse">
<stop offset="0.01" stop-color="#BF9155"/>
<stop offset="0.14" stop-color="#CBA166"/>
<stop offset="0.4" stop-color="#ECCC93"/>
<stop offset="0.51" stop-color="#FBE0A8"/>
<stop offset="1" stop-color="#D5A960"/>
</linearGradient>
<linearGradient id="paint43_linear" x1="136.732" y1="494.006" x2="471.927" y2="494.006" gradientUnits="userSpaceOnUse">
<stop offset="0.01" stop-color="#BF9155"/>
<stop offset="0.14" stop-color="#CBA166"/>
<stop offset="0.4" stop-color="#ECCC93"/>
<stop offset="0.51" stop-color="#FBE0A8"/>
<stop offset="1" stop-color="#D5A960"/>
</linearGradient>
<linearGradient id="paint44_linear" x1="89.5405" y1="494.006" x2="260.662" y2="494.006" gradientUnits="userSpaceOnUse">
<stop offset="0.01" stop-color="#BF9155"/>
<stop offset="0.14" stop-color="#CBA166"/>
<stop offset="0.4" stop-color="#ECCC93"/>
<stop offset="0.51" stop-color="#FBE0A8"/>
<stop offset="1" stop-color="#D5A960"/>
</linearGradient>
<linearGradient id="paint45_linear" x1="257.976" y1="673.818" x2="544.886" y2="673.818" gradientUnits="userSpaceOnUse">
<stop offset="0.01" stop-color="#BF9155"/>
<stop offset="0.14" stop-color="#CBA166"/>
<stop offset="0.4" stop-color="#ECCC93"/>
<stop offset="0.51" stop-color="#FBE0A8"/>
<stop offset="1" stop-color="#D5A960"/>
</linearGradient>
<linearGradient id="paint46_linear" x1="139.128" y1="673.818" x2="480.438" y2="673.818" gradientUnits="userSpaceOnUse">
<stop offset="0.01" stop-color="#BF9155"/>
<stop offset="0.14" stop-color="#CBA166"/>
<stop offset="0.4" stop-color="#ECCC93"/>
<stop offset="0.51" stop-color="#FBE0A8"/>
<stop offset="1" stop-color="#D5A960"/>
</linearGradient>
<linearGradient id="paint47_linear" x1="91.0566" y1="673.818" x2="265.308" y2="673.818" gradientUnits="userSpaceOnUse">
<stop offset="0.01" stop-color="#BF9155"/>
<stop offset="0.14" stop-color="#CBA166"/>
<stop offset="0.4" stop-color="#ECCC93"/>
<stop offset="0.51" stop-color="#FBE0A8"/>
<stop offset="1" stop-color="#D5A960"/>
</linearGradient>
<linearGradient id="paint48_linear" x1="11431.4" y1="4462.15" x2="12172" y2="1169.5" gradientUnits="userSpaceOnUse">
<stop offset="0.01" stop-color="#BF9155"/>
<stop offset="0.14" stop-color="#CBA166"/>
<stop offset="0.4" stop-color="#ECCC93"/>
<stop offset="0.51" stop-color="#FBE0A8"/>
<stop offset="1" stop-color="#D5A960"/>
</linearGradient>
<clipPath id="clip0">
<rect width="347" height="235" fill="white"/>
</clipPath>
</defs>
</svg>
