<svg width="287" height="286" viewBox="0 0 287 286" fill="none" xmlns="http://www.w3.org/2000/svg">
<g clip-path="url(#clip0)">
<path d="M259.086 2.64275L280.433 85.1748L281.692 86.2288L282.286 84.4643L260.441 0H259.206L260.465 1.48505L259.086 2.64275Z" fill="url(#paint0_linear)"/>
<path d="M282.792 90.7713L302.615 122.548L304.139 121.279L285.013 90.6116L282.96 89.4698L282.792 90.7713Z" fill="url(#paint1_linear)"/>
<path d="M259.175 0H258.405L258.542 0.534938L259.175 0Z" fill="url(#paint2_linear)"/>
<path d="M283.038 87.3545L283.207 87.4982L283.183 87.6819L285.011 90.6121L318.604 109.303L319.999 108.145V107.826L283.359 87.4423L313.094 0H311.017L282.284 84.4643L283.038 87.3545Z" fill="url(#paint3_linear)"/>
<path d="M281.011 88.2245L280.963 88.36L281.1 88.4396L281.116 88.3121L281.011 88.2245Z" fill="url(#paint4_linear)"/>
<path d="M282.958 89.4703L285.012 90.6121L283.183 87.6819L283.143 88.0252L282.958 89.4703Z" fill="url(#paint5_linear)"/>
<path d="M282.958 89.4703L285.012 90.6121L283.183 87.6819L283.143 88.0252L282.958 89.4703Z" fill="url(#paint6_linear)"/>
<path d="M282.285 84.4641L281.691 86.2286L283.039 87.3544L282.285 84.4641Z" fill="url(#paint7_linear)"/>
<path d="M282.285 84.4641L281.691 86.2286L283.039 87.3544L282.285 84.4641Z" fill="url(#paint8_linear)"/>
<path d="M268.677 185.839L268.63 185.926L268.693 185.902L268.669 185.886L268.677 185.839Z" fill="url(#paint9_linear)"/>
<path d="M303.657 124.233H303.665L302.614 122.549L302.101 122.972L271.291 180.921L270.786 184.881L271.082 185.057L320 167.667V165.567L272.823 182.278L303.657 124.233Z" fill="url(#paint10_linear)"/>
<path d="M217.771 34.6028L218.813 33.7325L169.527 0.119263L167.859 1.45261L217.033 34.9062L217.979 34.8583L217.771 34.6028Z" fill="url(#paint11_linear)"/>
<path d="M223.81 29.5573L236.865 0H234.708L220.394 32.4076L223.81 29.5573Z" fill="url(#paint12_linear)"/>
<path d="M220.514 34.8751L220.634 34.9789L221.204 35.4579L222.013 33.6216L220.514 34.8751Z" fill="url(#paint13_linear)"/>
<path d="M259.085 2.64297L258.54 0.535156L223.809 29.5575L222.012 33.6214L259.085 2.64297Z" fill="url(#paint14_linear)"/>
<path d="M220.394 32.4073L218.814 33.7327L219.576 34.2517L220.394 32.4073Z" fill="url(#paint15_linear)"/>
<path d="M259.085 2.64275L260.465 1.48505L259.206 0H259.174L258.54 0.534938L259.085 2.64275Z" fill="url(#paint16_linear)"/>
<path d="M259.085 2.64275L260.465 1.48505L259.206 0H259.174L258.54 0.534938L259.085 2.64275Z" fill="url(#paint17_linear)"/>
<path d="M217.98 34.8589L220.337 34.7311L220.514 34.8748L222.013 33.6213L223.81 29.5574L220.394 32.4077L219.576 34.2521L218.814 33.7331L217.771 34.6034L217.98 34.8589Z" fill="url(#paint18_linear)"/>
<path d="M217.98 34.8589L220.337 34.7311L220.514 34.8748L222.013 33.6213L223.81 29.5574L220.394 32.4077L219.576 34.2521L218.814 33.7331L217.771 34.6034L217.98 34.8589Z" fill="url(#paint19_linear)"/>
<path d="M282.791 90.7722L281.46 88.6404L281.099 88.4408L268.749 185.257L268.677 185.839L271.291 180.921L282.791 90.7722Z" fill="url(#paint20_linear)"/>
<path d="M169.672 0H169.351L169.528 0.119762L169.672 0Z" fill="url(#paint21_linear)"/>
<path d="M116.255 42.2122L117.586 42.1483L219.663 36.735L281.01 88.2248L281.131 87.8655L280.433 85.1748L221.203 35.4576L220.425 37.2141L217.033 34.9067L119.415 40.0804L167.859 1.45311L167.306 1.07786L169.054 0H160.682L165.678 0.670668L117.057 39.4417L109.342 0H107.33L115.1 39.7051L5.91018 0H0L114.419 41.5495L116.255 42.2122Z" fill="url(#paint22_linear)"/>
<path d="M268.692 185.902L319.999 217.28V214.981L271.082 185.056L268.692 185.902Z" fill="url(#paint23_linear)"/>
<path d="M281.692 86.2292L280.433 85.1753L281.13 87.866L281.226 87.5865L281.692 86.2292Z" fill="url(#paint24_linear)"/>
<path d="M281.692 86.2292L280.433 85.1753L281.13 87.866L281.226 87.5865L281.692 86.2292Z" fill="url(#paint25_linear)"/>
<path d="M281.46 88.6403L282.791 90.772L282.96 89.4706L281.46 88.6403Z" fill="url(#paint26_linear)"/>
<path d="M281.46 88.6403L282.791 90.772L282.96 89.4706L281.46 88.6403Z" fill="url(#paint27_linear)"/>
<path d="M283.184 87.6818L283.208 87.4982L283.04 87.3545L283.08 87.5142L283.184 87.6818Z" fill="url(#paint28_linear)"/>
<path d="M283.184 87.6818L283.208 87.4982L283.04 87.3545L283.08 87.5142L283.184 87.6818Z" fill="url(#paint29_linear)"/>
<path d="M281.243 88.2964L281.203 88.1527L281.131 87.8652L281.011 88.2245L281.115 88.3123L281.099 88.4401L281.46 88.6397L281.243 88.2964Z" fill="url(#paint30_linear)"/>
<path d="M281.243 88.2964L281.203 88.1527L281.131 87.8652L281.011 88.2245L281.115 88.3123L281.099 88.4401L281.46 88.6397L281.243 88.2964Z" fill="url(#paint31_linear)"/>
<path d="M281.243 88.2965L281.459 88.6398L282.959 89.4702L283.143 88.0251L283.183 87.6817L283.079 87.5141L283.039 87.3544L281.692 86.2286L281.227 87.5859L281.13 87.8654L281.203 88.1528L281.243 88.2965Z" fill="url(#paint32_linear)"/>
<path d="M281.243 88.2965L281.459 88.6398L282.959 89.4702L283.143 88.0251L283.183 87.6817L283.079 87.5141L283.039 87.3544L281.692 86.2286L281.227 87.5859L281.13 87.8654L281.203 88.1528L281.243 88.2965Z" fill="url(#paint33_linear)"/>
<path d="M281.243 88.2965L281.459 88.6398L282.959 89.4702L283.143 88.0251L283.183 87.6817L283.079 87.5141L283.039 87.3544L281.692 86.2286L281.227 87.5859L281.13 87.8654L281.203 88.1528L281.243 88.2965Z" fill="url(#paint34_linear)"/>
<path d="M270.786 184.881L271.291 180.921L268.676 185.839L268.668 185.887L268.693 185.903L271.082 185.056L270.786 184.881Z" fill="url(#paint35_linear)"/>
<path d="M270.786 184.881L271.291 180.921L268.676 185.839L268.668 185.887L268.693 185.903L271.082 185.056L270.786 184.881Z" fill="url(#paint36_linear)"/>
<path d="M220.513 34.8745L219.038 36.104L217.979 34.8585L217.033 34.9064L220.425 37.2138L221.203 35.4573L220.633 34.9783L220.513 34.8745Z" fill="url(#paint37_linear)"/>
<path d="M220.513 34.8745L219.038 36.104L217.979 34.8585L217.033 34.9064L220.425 37.2138L221.203 35.4573L220.633 34.9783L220.513 34.8745Z" fill="url(#paint38_linear)"/>
<path d="M167.858 1.45311L169.526 0.119762L169.35 0H169.053L167.305 1.07786L167.858 1.45311Z" fill="url(#paint39_linear)"/>
<path d="M167.858 1.45311L169.526 0.119762L169.35 0H169.053L167.305 1.07786L167.858 1.45311Z" fill="url(#paint40_linear)"/>
<path d="M217.979 34.8592L219.038 36.1047L220.513 34.8752L220.337 34.7314L217.979 34.8592Z" fill="url(#paint41_linear)"/>
<path d="M217.979 34.8592L219.038 36.1047L220.513 34.8752L220.337 34.7314L217.979 34.8592Z" fill="url(#paint42_linear)"/>
<path d="M217.979 34.8592L219.038 36.1047L220.513 34.8752L220.337 34.7314L217.979 34.8592Z" fill="url(#paint43_linear)"/>
</g>
<defs>
<linearGradient id="paint0_linear" x1="256.343" y1="43.1144" x2="325.822" y2="43.1144" gradientUnits="userSpaceOnUse">
<stop offset="0.01" stop-color="#BF9155"/>
<stop offset="0.14" stop-color="#CBA166"/>
<stop offset="0.4" stop-color="#ECCC93"/>
<stop offset="0.51" stop-color="#FBE0A8"/>
<stop offset="1" stop-color="#D5A960"/>
</linearGradient>
<linearGradient id="paint1_linear" x1="7106.63" y1="4481.28" x2="8956.15" y2="4481.28" gradientUnits="userSpaceOnUse">
<stop offset="0.01" stop-color="#BF9155"/>
<stop offset="0.14" stop-color="#CBA166"/>
<stop offset="0.4" stop-color="#ECCC93"/>
<stop offset="0.51" stop-color="#FBE0A8"/>
<stop offset="1" stop-color="#D5A960"/>
</linearGradient>
<linearGradient id="paint2_linear" x1="504.491" y1="0.17653" x2="571.174" y2="0.17653" gradientUnits="userSpaceOnUse">
<stop offset="0.01" stop-color="#BF9155"/>
<stop offset="0.14" stop-color="#CBA166"/>
<stop offset="0.4" stop-color="#ECCC93"/>
<stop offset="0.51" stop-color="#FBE0A8"/>
<stop offset="1" stop-color="#D5A960"/>
</linearGradient>
<linearGradient id="paint3_linear" x1="13495.9" y1="7481.79" x2="15354.5" y2="7481.79" gradientUnits="userSpaceOnUse">
<stop offset="0.01" stop-color="#BF9155"/>
<stop offset="0.14" stop-color="#CBA166"/>
<stop offset="0.4" stop-color="#ECCC93"/>
<stop offset="0.51" stop-color="#FBE0A8"/>
<stop offset="1" stop-color="#D5A960"/>
</linearGradient>
<linearGradient id="paint4_linear" x1="334.274" y1="112.026" x2="341.77" y2="112.026" gradientUnits="userSpaceOnUse">
<stop offset="0.01" stop-color="#BF9155"/>
<stop offset="0.14" stop-color="#CBA166"/>
<stop offset="0.4" stop-color="#ECCC93"/>
<stop offset="0.51" stop-color="#FBE0A8"/>
<stop offset="1" stop-color="#D5A960"/>
</linearGradient>
<linearGradient id="paint5_linear" x1="939.223" y1="414.867" x2="1117.08" y2="414.867" gradientUnits="userSpaceOnUse">
<stop offset="0.01" stop-color="#BF9155"/>
<stop offset="0.14" stop-color="#CBA166"/>
<stop offset="0.4" stop-color="#ECCC93"/>
<stop offset="0.51" stop-color="#FBE0A8"/>
<stop offset="1" stop-color="#D5A960"/>
</linearGradient>
<linearGradient id="paint6_linear" x1="1002.25" y1="414.867" x2="1103.4" y2="414.867" gradientUnits="userSpaceOnUse">
<stop offset="0.01" stop-color="#BF9155"/>
<stop offset="0.14" stop-color="#CBA166"/>
<stop offset="0.4" stop-color="#ECCC93"/>
<stop offset="0.51" stop-color="#FBE0A8"/>
<stop offset="1" stop-color="#D5A960"/>
</linearGradient>
<linearGradient id="paint7_linear" x1="712.347" y1="395.454" x2="829.057" y2="395.454" gradientUnits="userSpaceOnUse">
<stop offset="0.01" stop-color="#BF9155"/>
<stop offset="0.14" stop-color="#CBA166"/>
<stop offset="0.4" stop-color="#ECCC93"/>
<stop offset="0.51" stop-color="#FBE0A8"/>
<stop offset="1" stop-color="#D5A960"/>
</linearGradient>
<linearGradient id="paint8_linear" x1="753.707" y1="395.454" x2="820.085" y2="395.454" gradientUnits="userSpaceOnUse">
<stop offset="0.01" stop-color="#BF9155"/>
<stop offset="0.14" stop-color="#CBA166"/>
<stop offset="0.4" stop-color="#ECCC93"/>
<stop offset="0.51" stop-color="#FBE0A8"/>
<stop offset="1" stop-color="#D5A960"/>
</linearGradient>
<linearGradient id="paint9_linear" x1="289.985" y1="206.173" x2="294.73" y2="206.173" gradientUnits="userSpaceOnUse">
<stop offset="0.01" stop-color="#BF9155"/>
<stop offset="0.14" stop-color="#CBA166"/>
<stop offset="0.4" stop-color="#ECCC93"/>
<stop offset="0.51" stop-color="#FBE0A8"/>
<stop offset="1" stop-color="#D5A960"/>
</linearGradient>
<linearGradient id="paint10_linear" x1="16756.5" y1="12163.4" x2="20423.5" y2="12163.4" gradientUnits="userSpaceOnUse">
<stop offset="0.01" stop-color="#BF9155"/>
<stop offset="0.14" stop-color="#CBA166"/>
<stop offset="0.4" stop-color="#ECCC93"/>
<stop offset="0.51" stop-color="#FBE0A8"/>
<stop offset="1" stop-color="#D5A960"/>
</linearGradient>
<linearGradient id="paint11_linear" x1="10798.5" y1="762.996" x2="15783.8" y2="762.996" gradientUnits="userSpaceOnUse">
<stop offset="0.01" stop-color="#BF9155"/>
<stop offset="0.14" stop-color="#CBA166"/>
<stop offset="0.4" stop-color="#ECCC93"/>
<stop offset="0.51" stop-color="#FBE0A8"/>
<stop offset="1" stop-color="#D5A960"/>
</linearGradient>
<linearGradient id="paint12_linear" x1="3656.85" y1="657.875" x2="5268.43" y2="657.875" gradientUnits="userSpaceOnUse">
<stop offset="0.01" stop-color="#BF9155"/>
<stop offset="0.14" stop-color="#CBA166"/>
<stop offset="0.4" stop-color="#ECCC93"/>
<stop offset="0.51" stop-color="#FBE0A8"/>
<stop offset="1" stop-color="#D5A960"/>
</linearGradient>
<linearGradient id="paint13_linear" x1="533.37" y1="113.062" x2="680.088" y2="113.062" gradientUnits="userSpaceOnUse">
<stop offset="0.01" stop-color="#BF9155"/>
<stop offset="0.14" stop-color="#CBA166"/>
<stop offset="0.4" stop-color="#ECCC93"/>
<stop offset="0.51" stop-color="#FBE0A8"/>
<stop offset="1" stop-color="#D5A960"/>
</linearGradient>
<linearGradient id="paint14_linear" x1="10289.5" y1="708.251" x2="12263.3" y2="708.251" gradientUnits="userSpaceOnUse">
<stop offset="0.01" stop-color="#BF9155"/>
<stop offset="0.14" stop-color="#CBA166"/>
<stop offset="0.4" stop-color="#ECCC93"/>
<stop offset="0.51" stop-color="#FBE0A8"/>
<stop offset="1" stop-color="#D5A960"/>
</linearGradient>
<linearGradient id="paint15_linear" x1="647.822" y1="109.409" x2="731.914" y2="109.409" gradientUnits="userSpaceOnUse">
<stop offset="0.01" stop-color="#BF9155"/>
<stop offset="0.14" stop-color="#CBA166"/>
<stop offset="0.4" stop-color="#ECCC93"/>
<stop offset="0.51" stop-color="#FBE0A8"/>
<stop offset="1" stop-color="#D5A960"/>
</linearGradient>
<linearGradient id="paint16_linear" x1="873.765" y1="4.36054" x2="1040.49" y2="4.36054" gradientUnits="userSpaceOnUse">
<stop offset="0.01" stop-color="#BF9155"/>
<stop offset="0.14" stop-color="#CBA166"/>
<stop offset="0.4" stop-color="#ECCC93"/>
<stop offset="0.51" stop-color="#FBE0A8"/>
<stop offset="1" stop-color="#D5A960"/>
</linearGradient>
<linearGradient id="paint17_linear" x1="781.19" y1="4.36054" x2="883.657" y2="4.36054" gradientUnits="userSpaceOnUse">
<stop offset="0.01" stop-color="#BF9155"/>
<stop offset="0.14" stop-color="#CBA166"/>
<stop offset="0.4" stop-color="#ECCC93"/>
<stop offset="0.51" stop-color="#FBE0A8"/>
<stop offset="1" stop-color="#D5A960"/>
</linearGradient>
<linearGradient id="paint18_linear" x1="1477.58" y1="244.116" x2="2068.38" y2="244.116" gradientUnits="userSpaceOnUse">
<stop offset="0.01" stop-color="#BF9155"/>
<stop offset="0.14" stop-color="#CBA166"/>
<stop offset="0.4" stop-color="#ECCC93"/>
<stop offset="0.51" stop-color="#FBE0A8"/>
<stop offset="1" stop-color="#D5A960"/>
</linearGradient>
<linearGradient id="paint19_linear" x1="1857.58" y1="244.116" x2="2179.07" y2="244.116" gradientUnits="userSpaceOnUse">
<stop offset="0.01" stop-color="#BF9155"/>
<stop offset="0.14" stop-color="#CBA166"/>
<stop offset="0.4" stop-color="#ECCC93"/>
<stop offset="0.51" stop-color="#FBE0A8"/>
<stop offset="1" stop-color="#D5A960"/>
</linearGradient>
<linearGradient id="paint20_linear" x1="234.098" y1="16817.6" x2="6029.17" y2="16817.6" gradientUnits="userSpaceOnUse">
<stop offset="0.01" stop-color="#BF9155"/>
<stop offset="0.14" stop-color="#CBA166"/>
<stop offset="0.4" stop-color="#ECCC93"/>
<stop offset="0.51" stop-color="#FBE0A8"/>
<stop offset="1" stop-color="#D5A960"/>
</linearGradient>
<linearGradient id="paint21_linear" x1="168.585" y1="0.0083832" x2="300.267" y2="0.0083832" gradientUnits="userSpaceOnUse">
<stop offset="0.01" stop-color="#BF9155"/>
<stop offset="0.14" stop-color="#CBA166"/>
<stop offset="0.4" stop-color="#ECCC93"/>
<stop offset="0.51" stop-color="#FBE0A8"/>
<stop offset="1" stop-color="#D5A960"/>
</linearGradient>
<linearGradient id="paint22_linear" x1="-685.959" y1="4874.42" x2="114741" y2="4874.42" gradientUnits="userSpaceOnUse">
<stop offset="0.01" stop-color="#BF9155"/>
<stop offset="0.14" stop-color="#CBA166"/>
<stop offset="0.4" stop-color="#ECCC93"/>
<stop offset="0.51" stop-color="#FBE0A8"/>
<stop offset="1" stop-color="#D5A960"/>
</linearGradient>
<linearGradient id="paint23_linear" x1="143.503" y1="8304.2" x2="21209.2" y2="8304.2" gradientUnits="userSpaceOnUse">
<stop offset="0.01" stop-color="#BF9155"/>
<stop offset="0.14" stop-color="#CBA166"/>
<stop offset="0.4" stop-color="#ECCC93"/>
<stop offset="0.51" stop-color="#FBE0A8"/>
<stop offset="1" stop-color="#D5A960"/>
</linearGradient>
<linearGradient id="paint24_linear" x1="682.866" y1="376.736" x2="791.941" y2="376.736" gradientUnits="userSpaceOnUse">
<stop offset="0.01" stop-color="#BF9155"/>
<stop offset="0.14" stop-color="#CBA166"/>
<stop offset="0.4" stop-color="#ECCC93"/>
<stop offset="0.51" stop-color="#FBE0A8"/>
<stop offset="1" stop-color="#D5A960"/>
</linearGradient>
<linearGradient id="paint25_linear" x1="277.373" y1="376.736" x2="794.257" y2="376.736" gradientUnits="userSpaceOnUse">
<stop offset="0.01" stop-color="#BF9155"/>
<stop offset="0.14" stop-color="#CBA166"/>
<stop offset="0.4" stop-color="#ECCC93"/>
<stop offset="0.51" stop-color="#FBE0A8"/>
<stop offset="1" stop-color="#D5A960"/>
</linearGradient>
<linearGradient id="paint26_linear" x1="760.789" y1="328.145" x2="890.739" y2="328.145" gradientUnits="userSpaceOnUse">
<stop offset="0.01" stop-color="#BF9155"/>
<stop offset="0.14" stop-color="#CBA166"/>
<stop offset="0.4" stop-color="#ECCC93"/>
<stop offset="0.51" stop-color="#FBE0A8"/>
<stop offset="1" stop-color="#D5A960"/>
</linearGradient>
<linearGradient id="paint27_linear" x1="277.726" y1="328.145" x2="893.498" y2="328.145" gradientUnits="userSpaceOnUse">
<stop offset="0.01" stop-color="#BF9155"/>
<stop offset="0.14" stop-color="#CBA166"/>
<stop offset="0.4" stop-color="#ECCC93"/>
<stop offset="0.51" stop-color="#FBE0A8"/>
<stop offset="1" stop-color="#D5A960"/>
</linearGradient>
<linearGradient id="paint28_linear" x1="342.018" y1="123.237" x2="350.332" y2="123.237" gradientUnits="userSpaceOnUse">
<stop offset="0.01" stop-color="#BF9155"/>
<stop offset="0.14" stop-color="#CBA166"/>
<stop offset="0.4" stop-color="#ECCC93"/>
<stop offset="0.51" stop-color="#FBE0A8"/>
<stop offset="1" stop-color="#D5A960"/>
</linearGradient>
<linearGradient id="paint29_linear" x1="282.489" y1="123.237" x2="351.766" y2="123.237" gradientUnits="userSpaceOnUse">
<stop offset="0.01" stop-color="#BF9155"/>
<stop offset="0.14" stop-color="#CBA166"/>
<stop offset="0.4" stop-color="#ECCC93"/>
<stop offset="0.51" stop-color="#FBE0A8"/>
<stop offset="1" stop-color="#D5A960"/>
</linearGradient>
<linearGradient id="paint30_linear" x1="438.367" y1="173.465" x2="460.495" y2="173.465" gradientUnits="userSpaceOnUse">
<stop offset="0.01" stop-color="#BF9155"/>
<stop offset="0.14" stop-color="#CBA166"/>
<stop offset="0.4" stop-color="#ECCC93"/>
<stop offset="0.51" stop-color="#FBE0A8"/>
<stop offset="1" stop-color="#D5A960"/>
</linearGradient>
<linearGradient id="paint31_linear" x1="279.955" y1="173.465" x2="464.313" y2="173.465" gradientUnits="userSpaceOnUse">
<stop offset="0.01" stop-color="#BF9155"/>
<stop offset="0.14" stop-color="#CBA166"/>
<stop offset="0.4" stop-color="#ECCC93"/>
<stop offset="0.51" stop-color="#FBE0A8"/>
<stop offset="1" stop-color="#D5A960"/>
</linearGradient>
<linearGradient id="paint32_linear" x1="937.376" y1="442.896" x2="1115.22" y2="442.896" gradientUnits="userSpaceOnUse">
<stop offset="0.01" stop-color="#BF9155"/>
<stop offset="0.14" stop-color="#CBA166"/>
<stop offset="0.4" stop-color="#ECCC93"/>
<stop offset="0.51" stop-color="#FBE0A8"/>
<stop offset="1" stop-color="#D5A960"/>
</linearGradient>
<linearGradient id="paint33_linear" x1="1000.4" y1="442.896" x2="1101.55" y2="442.896" gradientUnits="userSpaceOnUse">
<stop offset="0.01" stop-color="#BF9155"/>
<stop offset="0.14" stop-color="#CBA166"/>
<stop offset="0.4" stop-color="#ECCC93"/>
<stop offset="0.51" stop-color="#FBE0A8"/>
<stop offset="1" stop-color="#D5A960"/>
</linearGradient>
<linearGradient id="paint34_linear" x1="276.183" y1="442.896" x2="1119.02" y2="442.896" gradientUnits="userSpaceOnUse">
<stop offset="0.01" stop-color="#BF9155"/>
<stop offset="0.14" stop-color="#CBA166"/>
<stop offset="0.4" stop-color="#ECCC93"/>
<stop offset="0.51" stop-color="#FBE0A8"/>
<stop offset="1" stop-color="#D5A960"/>
</linearGradient>
<linearGradient id="paint35_linear" x1="1147.1" y1="1325.41" x2="1342.49" y2="1325.41" gradientUnits="userSpaceOnUse">
<stop offset="0.01" stop-color="#BF9155"/>
<stop offset="0.14" stop-color="#CBA166"/>
<stop offset="0.4" stop-color="#ECCC93"/>
<stop offset="0.51" stop-color="#FBE0A8"/>
<stop offset="1" stop-color="#D5A960"/>
</linearGradient>
<linearGradient id="paint36_linear" x1="262.191" y1="1325.41" x2="1338.98" y2="1325.41" gradientUnits="userSpaceOnUse">
<stop offset="0.01" stop-color="#BF9155"/>
<stop offset="0.14" stop-color="#CBA166"/>
<stop offset="0.4" stop-color="#ECCC93"/>
<stop offset="0.51" stop-color="#FBE0A8"/>
<stop offset="1" stop-color="#D5A960"/>
</linearGradient>
<linearGradient id="paint37_linear" x1="1087.02" y1="141.154" x2="1495.02" y2="141.154" gradientUnits="userSpaceOnUse">
<stop offset="0.01" stop-color="#BF9155"/>
<stop offset="0.14" stop-color="#CBA166"/>
<stop offset="0.4" stop-color="#ECCC93"/>
<stop offset="0.51" stop-color="#FBE0A8"/>
<stop offset="1" stop-color="#D5A960"/>
</linearGradient>
<linearGradient id="paint38_linear" x1="206.9" y1="141.154" x2="1918.98" y2="141.154" gradientUnits="userSpaceOnUse">
<stop offset="0.01" stop-color="#BF9155"/>
<stop offset="0.14" stop-color="#CBA166"/>
<stop offset="0.4" stop-color="#ECCC93"/>
<stop offset="0.51" stop-color="#FBE0A8"/>
<stop offset="1" stop-color="#D5A960"/>
</linearGradient>
<linearGradient id="paint39_linear" x1="630.747" y1="1.32234" x2="848.107" y2="1.32234" gradientUnits="userSpaceOnUse">
<stop offset="0.01" stop-color="#BF9155"/>
<stop offset="0.14" stop-color="#CBA166"/>
<stop offset="0.4" stop-color="#ECCC93"/>
<stop offset="0.51" stop-color="#FBE0A8"/>
<stop offset="1" stop-color="#D5A960"/>
</linearGradient>
<linearGradient id="paint40_linear" x1="161.862" y1="1.32234" x2="1073.95" y2="1.32234" gradientUnits="userSpaceOnUse">
<stop offset="0.01" stop-color="#BF9155"/>
<stop offset="0.14" stop-color="#CBA166"/>
<stop offset="0.4" stop-color="#ECCC93"/>
<stop offset="0.51" stop-color="#FBE0A8"/>
<stop offset="1" stop-color="#D5A960"/>
</linearGradient>
<linearGradient id="paint41_linear" x1="746.666" y1="95.65" x2="994.601" y2="95.65" gradientUnits="userSpaceOnUse">
<stop offset="0.01" stop-color="#BF9155"/>
<stop offset="0.14" stop-color="#CBA166"/>
<stop offset="0.4" stop-color="#ECCC93"/>
<stop offset="0.51" stop-color="#FBE0A8"/>
<stop offset="1" stop-color="#D5A960"/>
</linearGradient>
<linearGradient id="paint42_linear" x1="906.136" y1="95.65" x2="1041.05" y2="95.65" gradientUnits="userSpaceOnUse">
<stop offset="0.01" stop-color="#BF9155"/>
<stop offset="0.14" stop-color="#CBA166"/>
<stop offset="0.4" stop-color="#ECCC93"/>
<stop offset="0.51" stop-color="#FBE0A8"/>
<stop offset="1" stop-color="#D5A960"/>
</linearGradient>
<linearGradient id="paint43_linear" x1="211.796" y1="95.65" x2="1252.22" y2="95.65" gradientUnits="userSpaceOnUse">
<stop offset="0.01" stop-color="#BF9155"/>
<stop offset="0.14" stop-color="#CBA166"/>
<stop offset="0.4" stop-color="#ECCC93"/>
<stop offset="0.51" stop-color="#FBE0A8"/>
<stop offset="1" stop-color="#D5A960"/>
</linearGradient>
<clipPath id="clip0">
<rect width="320" height="286" fill="white"/>
</clipPath>
</defs>
</svg>
