<svg width="28" height="28" viewBox="0 0 28 28" fill="none" xmlns="http://www.w3.org/2000/svg">
<path d="M1.00305 1.00305C1.18303 0.822618 1.39683 0.679464 1.63222 0.581789C1.86761 0.484114 2.11995 0.433838 2.3748 0.433838C2.62965 0.433838 2.88199 0.484114 3.11738 0.581789C3.35277 0.679464 3.56657 0.822618 3.74655 1.00305L13.9998 11.2602L24.253 1.00305C24.4332 0.822909 24.647 0.680014 24.8824 0.582522C25.1178 0.485031 25.37 0.434852 25.6248 0.434852C25.8796 0.434852 26.1318 0.485031 26.3672 0.582522C26.6026 0.680014 26.8164 0.822909 26.9966 1.00305C27.1767 1.18319 27.3196 1.39705 27.4171 1.63241C27.5146 1.86778 27.5647 2.12004 27.5647 2.3748C27.5647 2.62956 27.5146 2.88182 27.4171 3.11719C27.3196 3.35255 27.1767 3.56641 26.9966 3.74655L16.7394 13.9998L26.9966 24.253C27.1767 24.4332 27.3196 24.647 27.4171 24.8824C27.5146 25.1178 27.5647 25.37 27.5647 25.6248C27.5647 25.8796 27.5146 26.1318 27.4171 26.3672C27.3196 26.6026 27.1767 26.8164 26.9966 26.9966C26.8164 27.1767 26.6026 27.3196 26.3672 27.4171C26.1318 27.5146 25.8796 27.5647 25.6248 27.5647C25.37 27.5647 25.1178 27.5146 24.8824 27.4171C24.647 27.3196 24.4332 27.1767 24.253 26.9966L13.9998 16.7394L3.74655 26.9966C3.56641 27.1767 3.35255 27.3196 3.11719 27.4171C2.88182 27.5146 2.62956 27.5647 2.3748 27.5647C2.12004 27.5647 1.86778 27.5146 1.63241 27.4171C1.39705 27.3196 1.18319 27.1767 1.00305 26.9966C0.822909 26.8164 0.680014 26.6026 0.582522 26.3672C0.485031 26.1318 0.434852 25.8796 0.434852 25.6248C0.434852 25.37 0.485031 25.1178 0.582522 24.8824C0.680014 24.647 0.822909 24.4332 1.00305 24.253L11.2602 13.9998L1.00305 3.74655C0.822618 3.56657 0.679464 3.35277 0.581789 3.11738C0.484114 2.88199 0.433838 2.62965 0.433838 2.3748C0.433838 2.11995 0.484114 1.86761 0.581789 1.63222C0.679464 1.39683 0.822618 1.18303 1.00305 1.00305Z" fill="white"/>
</svg>
