<svg width="167" height="23" viewBox="0 0 167 23" fill="none" xmlns="http://www.w3.org/2000/svg">
<path opacity="0.5" d="M1.328 18C1.168 18 1.032 17.952 0.92 17.856C0.824 17.744 0.776 17.608 0.776 17.448V6.072C0.776 5.912 0.824 5.784 0.92 5.688C1.032 5.576 1.168 5.52 1.328 5.52H2.48C2.64 5.52 2.768 5.576 2.864 5.688C2.976 5.784 3.032 5.912 3.032 6.072V17.448C3.032 17.608 2.976 17.744 2.864 17.856C2.768 17.952 2.64 18 2.48 18H1.328ZM1.136 3.192C0.976 3.192 0.84 3.144 0.728 3.048C0.632 2.936 0.584 2.8 0.584 2.64V1.344C0.584 1.184 0.632 1.048 0.728 0.935999C0.84 0.823999 0.976 0.767999 1.136 0.767999H2.648C2.808 0.767999 2.944 0.823999 3.056 0.935999C3.168 1.048 3.224 1.184 3.224 1.344V2.64C3.224 2.8 3.168 2.936 3.056 3.048C2.944 3.144 2.808 3.192 2.648 3.192H1.136ZM12.9485 18.24C11.4765 18.24 10.2525 17.968 9.2765 17.424C8.3165 16.88 7.5885 16.12 7.0925 15.144C6.5965 14.168 6.3245 13.032 6.2765 11.736C6.2605 11.08 6.2525 10.376 6.2525 9.624C6.2525 8.872 6.2605 8.152 6.2765 7.464C6.3245 6.168 6.5965 5.032 7.0925 4.056C7.5885 3.08 8.3165 2.32 9.2765 1.776C10.2525 1.232 11.4765 0.959999 12.9485 0.959999C14.0525 0.959999 15.0205 1.112 15.8525 1.416C16.6845 1.72 17.3725 2.128 17.9165 2.64C18.4765 3.152 18.9005 3.728 19.1885 4.368C19.4765 4.992 19.6365 5.64 19.6685 6.312C19.6845 6.456 19.6365 6.576 19.5245 6.672C19.4285 6.768 19.3085 6.816 19.1645 6.816H17.8445C17.7005 6.816 17.5725 6.776 17.4605 6.696C17.3645 6.616 17.2925 6.472 17.2445 6.264C16.9725 5.016 16.4605 4.16 15.7085 3.696C14.9725 3.232 14.0525 3 12.9485 3C11.6525 3 10.6285 3.368 9.8765 4.104C9.1245 4.824 8.7245 5.984 8.6765 7.584C8.6285 8.896 8.6285 10.24 8.6765 11.616C8.7245 13.216 9.1245 14.384 9.8765 15.12C10.6285 15.84 11.6525 16.2 12.9485 16.2C14.0525 16.2 14.9725 15.968 15.7085 15.504C16.4605 15.04 16.9725 14.184 17.2445 12.936C17.2925 12.728 17.3645 12.584 17.4605 12.504C17.5725 12.424 17.7005 12.384 17.8445 12.384H19.1645C19.3085 12.384 19.4285 12.432 19.5245 12.528C19.6365 12.608 19.6845 12.72 19.6685 12.864C19.6365 13.536 19.4765 14.192 19.1885 14.832C18.9005 15.472 18.4765 16.048 17.9165 16.56C17.3725 17.072 16.6845 17.48 15.8525 17.784C15.0205 18.088 14.0525 18.24 12.9485 18.24ZM27.6849 18.24C26.4689 18.24 25.4529 18.008 24.6369 17.544C23.8209 17.08 23.1969 16.44 22.7649 15.624C22.3329 14.792 22.0929 13.848 22.0449 12.792C22.0289 12.52 22.0209 12.176 22.0209 11.76C22.0209 11.328 22.0289 10.984 22.0449 10.728C22.0929 9.656 22.3329 8.712 22.7649 7.896C23.2129 7.08 23.8449 6.44 24.6609 5.976C25.4769 5.512 26.4849 5.28 27.6849 5.28C28.8849 5.28 29.8929 5.512 30.7089 5.976C31.5249 6.44 32.1489 7.08 32.5809 7.896C33.0289 8.712 33.2769 9.656 33.3249 10.728C33.3409 10.984 33.3489 11.328 33.3489 11.76C33.3489 12.176 33.3409 12.52 33.3249 12.792C33.2769 13.848 33.0369 14.792 32.6049 15.624C32.1729 16.44 31.5489 17.08 30.7329 17.544C29.9169 18.008 28.9009 18.24 27.6849 18.24ZM27.6849 16.392C28.6769 16.392 29.4689 16.08 30.0609 15.456C30.6529 14.816 30.9729 13.888 31.0209 12.672C31.0369 12.432 31.0449 12.128 31.0449 11.76C31.0449 11.392 31.0369 11.088 31.0209 10.848C30.9729 9.632 30.6529 8.712 30.0609 8.088C29.4689 7.448 28.6769 7.128 27.6849 7.128C26.6929 7.128 25.8929 7.448 25.2849 8.088C24.6929 8.712 24.3809 9.632 24.3489 10.848C24.3329 11.088 24.3249 11.392 24.3249 11.76C24.3249 12.128 24.3329 12.432 24.3489 12.672C24.3809 13.888 24.6929 14.816 25.2849 15.456C25.8929 16.08 26.6929 16.392 27.6849 16.392ZM36.9061 18C36.7461 18 36.6101 17.952 36.4981 17.856C36.4021 17.744 36.3541 17.608 36.3541 17.448V6.072C36.3541 5.912 36.4021 5.784 36.4981 5.688C36.6101 5.576 36.7461 5.52 36.9061 5.52H38.0341C38.1941 5.52 38.3221 5.576 38.4181 5.688C38.5301 5.784 38.5861 5.912 38.5861 6.072V7.128C39.0021 6.584 39.5221 6.144 40.1461 5.808C40.7861 5.456 41.6021 5.28 42.5941 5.28C43.6341 5.28 44.5141 5.512 45.2341 5.976C45.9701 6.424 46.5221 7.056 46.8901 7.872C47.2741 8.672 47.4661 9.608 47.4661 10.68V17.448C47.4661 17.608 47.4101 17.744 47.2981 17.856C47.2021 17.952 47.0741 18 46.9141 18H45.7141C45.5541 18 45.4181 17.952 45.3061 17.856C45.2101 17.744 45.1621 17.608 45.1621 17.448V10.8C45.1621 9.68 44.8901 8.808 44.3461 8.184C43.8021 7.544 43.0021 7.224 41.9461 7.224C40.9541 7.224 40.1541 7.544 39.5461 8.184C38.9541 8.808 38.6581 9.68 38.6581 10.8V17.448C38.6581 17.608 38.6021 17.744 38.4901 17.856C38.3941 17.952 38.2661 18 38.1061 18H36.9061ZM53.0776 18C52.9176 18 52.7816 17.952 52.6696 17.856C52.5736 17.744 52.5256 17.608 52.5256 17.448V3.336H47.9176C47.7576 3.336 47.6216 3.288 47.5096 3.192C47.4136 3.08 47.3656 2.944 47.3656 2.784V1.776C47.3656 1.6 47.4136 1.464 47.5096 1.368C47.6216 1.256 47.7576 1.2 47.9176 1.2H59.4856C59.6616 1.2 59.7976 1.256 59.8936 1.368C60.0056 1.464 60.0616 1.6 60.0616 1.776V2.784C60.0616 2.944 60.0056 3.08 59.8936 3.192C59.7976 3.288 59.6616 3.336 59.4856 3.336H54.9016V17.448C54.9016 17.608 54.8456 17.744 54.7336 17.856C54.6376 17.952 54.5016 18 54.3256 18H53.0776ZM65.1352 18.24C63.4712 18.24 62.1512 17.736 61.1752 16.728C60.1992 15.704 59.6632 14.312 59.5672 12.552C59.5512 12.344 59.5432 12.08 59.5432 11.76C59.5432 11.424 59.5512 11.152 59.5672 10.944C59.6312 9.808 59.8952 8.816 60.3592 7.968C60.8232 7.104 61.4552 6.44 62.2552 5.976C63.0712 5.512 64.0232 5.28 65.1112 5.28C66.3272 5.28 67.3432 5.536 68.1592 6.048C68.9912 6.56 69.6232 7.288 70.0552 8.232C70.4872 9.176 70.7032 10.28 70.7032 11.544V11.952C70.7032 12.128 70.6472 12.264 70.5352 12.36C70.4392 12.456 70.3112 12.504 70.1512 12.504H61.8472C61.8472 12.52 61.8472 12.552 61.8472 12.6C61.8472 12.648 61.8472 12.688 61.8472 12.72C61.8792 13.376 62.0232 13.992 62.2792 14.568C62.5352 15.128 62.9032 15.584 63.3832 15.936C63.8792 16.288 64.4552 16.464 65.1112 16.464C65.6872 16.464 66.1672 16.376 66.5512 16.2C66.9352 16.024 67.2472 15.832 67.4872 15.624C67.7272 15.4 67.8872 15.224 67.9672 15.096C68.1112 14.904 68.2232 14.792 68.3032 14.76C68.3832 14.712 68.5112 14.688 68.6872 14.688H69.8632C70.0072 14.688 70.1272 14.736 70.2232 14.832C70.3352 14.912 70.3832 15.032 70.3672 15.192C70.3512 15.432 70.2232 15.728 69.9832 16.08C69.7432 16.416 69.3992 16.752 68.9512 17.088C68.5192 17.424 67.9752 17.704 67.3192 17.928C66.6792 18.136 65.9512 18.24 65.1352 18.24ZM61.8472 10.848H68.4232V10.776C68.4232 10.056 68.2872 9.416 68.0152 8.856C67.7592 8.296 67.3832 7.856 66.8872 7.536C66.3912 7.2 65.7992 7.032 65.1112 7.032C64.4232 7.032 63.8312 7.2 63.3352 7.536C62.8552 7.856 62.4872 8.296 62.2312 8.856C61.9752 9.416 61.8472 10.056 61.8472 10.776V10.848ZM72.7391 18C72.6111 18 72.4911 17.952 72.3791 17.856C72.2831 17.76 72.2351 17.64 72.2351 17.496C72.2351 17.448 72.2431 17.392 72.2591 17.328C72.2911 17.248 72.3391 17.16 72.4031 17.064L76.5791 11.616L72.6671 6.456C72.6031 6.36 72.5551 6.28 72.5231 6.216C72.5071 6.152 72.4991 6.088 72.4991 6.024C72.4991 5.88 72.5471 5.76 72.6431 5.664C72.7391 5.568 72.8591 5.52 73.0031 5.52H74.2271C74.4031 5.52 74.5391 5.568 74.6351 5.664C74.7311 5.744 74.8031 5.824 74.8511 5.904L78.0431 10.056L81.2351 5.928C81.2991 5.848 81.3711 5.76 81.4511 5.664C81.5471 5.568 81.6831 5.52 81.8591 5.52H83.0351C83.1791 5.52 83.2991 5.568 83.3951 5.664C83.4911 5.76 83.5391 5.88 83.5391 6.024C83.5391 6.088 83.5231 6.152 83.4911 6.216C83.4751 6.28 83.4351 6.36 83.3711 6.456L79.4111 11.664L83.5871 17.064C83.6511 17.16 83.6911 17.24 83.7071 17.304C83.7391 17.368 83.7551 17.432 83.7551 17.496C83.7551 17.64 83.7071 17.76 83.6111 17.856C83.5151 17.952 83.3951 18 83.2511 18H81.9791C81.8191 18 81.6911 17.96 81.5951 17.88C81.4991 17.8 81.4191 17.72 81.3551 17.64L77.9951 13.248L74.5871 17.64C74.5231 17.704 74.4431 17.784 74.3471 17.88C74.2671 17.96 74.1391 18 73.9631 18H72.7391ZM91.1246 18C90.2286 18 89.5006 17.832 88.9406 17.496C88.3806 17.144 87.9726 16.656 87.7166 16.032C87.4606 15.392 87.3326 14.64 87.3326 13.776V7.44H85.4606C85.3006 7.44 85.1646 7.392 85.0526 7.296C84.9566 7.184 84.9086 7.048 84.9086 6.888V6.072C84.9086 5.912 84.9566 5.784 85.0526 5.688C85.1646 5.576 85.3006 5.52 85.4606 5.52H87.3326V1.512C87.3326 1.352 87.3806 1.224 87.4766 1.128C87.5886 1.016 87.7246 0.959999 87.8846 0.959999H89.0126C89.1726 0.959999 89.3006 1.016 89.3966 1.128C89.5086 1.224 89.5646 1.352 89.5646 1.512V5.52H92.5406C92.7166 5.52 92.8526 5.576 92.9486 5.688C93.0446 5.784 93.0926 5.912 93.0926 6.072V6.888C93.0926 7.048 93.0446 7.184 92.9486 7.296C92.8526 7.392 92.7166 7.44 92.5406 7.44H89.5646V13.608C89.5646 14.36 89.6926 14.952 89.9486 15.384C90.2046 15.816 90.6606 16.032 91.3166 16.032H92.7806C92.9406 16.032 93.0686 16.088 93.1646 16.2C93.2766 16.296 93.3326 16.424 93.3326 16.584V17.448C93.3326 17.608 93.2766 17.744 93.1646 17.856C93.0686 17.952 92.9406 18 92.7806 18H91.1246ZM107.942 18.24C106.518 18.24 105.31 17.976 104.318 17.448C103.342 16.92 102.59 16.176 102.062 15.216C101.55 14.256 101.262 13.128 101.198 11.832C101.182 11.128 101.174 10.384 101.174 9.6C101.174 8.8 101.182 8.04 101.198 7.32C101.262 6.024 101.55 4.904 102.062 3.96C102.59 3 103.35 2.264 104.342 1.752C105.334 1.224 106.534 0.959999 107.942 0.959999C109.062 0.959999 110.038 1.12 110.87 1.44C111.702 1.76 112.382 2.168 112.91 2.664C113.454 3.144 113.854 3.648 114.11 4.176C114.382 4.704 114.526 5.168 114.542 5.568C114.558 5.712 114.518 5.832 114.422 5.928C114.326 6.008 114.198 6.048 114.038 6.048H112.622C112.462 6.048 112.342 6.016 112.262 5.952C112.198 5.888 112.134 5.776 112.07 5.616C111.926 5.2 111.686 4.792 111.35 4.392C111.03 3.992 110.59 3.664 110.03 3.408C109.486 3.136 108.79 3 107.942 3C106.662 3 105.63 3.344 104.846 4.032C104.078 4.72 103.662 5.856 103.598 7.44C103.55 8.864 103.55 10.288 103.598 11.712C103.662 13.312 104.086 14.464 104.87 15.168C105.654 15.856 106.678 16.2 107.942 16.2C108.79 16.2 109.542 16.04 110.198 15.72C110.87 15.4 111.398 14.92 111.782 14.28C112.166 13.624 112.358 12.792 112.358 11.784V10.776H108.758C108.598 10.776 108.462 10.728 108.35 10.632C108.254 10.52 108.206 10.376 108.206 10.2V9.432C108.206 9.256 108.254 9.12 108.35 9.024C108.462 8.912 108.598 8.856 108.758 8.856H114.182C114.358 8.856 114.494 8.912 114.59 9.024C114.686 9.12 114.734 9.256 114.734 9.432V11.736C114.734 13.048 114.462 14.192 113.918 15.168C113.39 16.144 112.614 16.904 111.59 17.448C110.566 17.976 109.35 18.24 107.942 18.24ZM118.398 18C118.238 18 118.102 17.952 117.99 17.856C117.894 17.744 117.846 17.608 117.846 17.448V6.096C117.846 5.936 117.894 5.8 117.99 5.688C118.102 5.576 118.238 5.52 118.398 5.52H119.502C119.662 5.52 119.798 5.576 119.91 5.688C120.022 5.8 120.078 5.936 120.078 6.096V7.152C120.398 6.608 120.838 6.2 121.398 5.928C121.958 5.656 122.638 5.52 123.438 5.52H124.374C124.534 5.52 124.662 5.576 124.758 5.688C124.87 5.784 124.926 5.912 124.926 6.072V7.056C124.926 7.216 124.87 7.344 124.758 7.44C124.662 7.536 124.534 7.584 124.374 7.584H122.934C122.07 7.584 121.39 7.84 120.894 8.352C120.398 8.848 120.15 9.528 120.15 10.392V17.448C120.15 17.608 120.094 17.744 119.982 17.856C119.87 17.952 119.734 18 119.574 18H118.398ZM131.841 18.24C130.625 18.24 129.609 18.008 128.793 17.544C127.977 17.08 127.353 16.44 126.921 15.624C126.489 14.792 126.249 13.848 126.201 12.792C126.185 12.52 126.177 12.176 126.177 11.76C126.177 11.328 126.185 10.984 126.201 10.728C126.249 9.656 126.489 8.712 126.921 7.896C127.369 7.08 128.001 6.44 128.817 5.976C129.633 5.512 130.641 5.28 131.841 5.28C133.041 5.28 134.049 5.512 134.865 5.976C135.681 6.44 136.305 7.08 136.737 7.896C137.185 8.712 137.433 9.656 137.481 10.728C137.497 10.984 137.505 11.328 137.505 11.76C137.505 12.176 137.497 12.52 137.481 12.792C137.433 13.848 137.193 14.792 136.761 15.624C136.329 16.44 135.705 17.08 134.889 17.544C134.073 18.008 133.057 18.24 131.841 18.24ZM131.841 16.392C132.833 16.392 133.625 16.08 134.217 15.456C134.809 14.816 135.129 13.888 135.177 12.672C135.193 12.432 135.201 12.128 135.201 11.76C135.201 11.392 135.193 11.088 135.177 10.848C135.129 9.632 134.809 8.712 134.217 8.088C133.625 7.448 132.833 7.128 131.841 7.128C130.849 7.128 130.049 7.448 129.441 8.088C128.849 8.712 128.537 9.632 128.505 10.848C128.489 11.088 128.481 11.392 128.481 11.76C128.481 12.128 128.489 12.432 128.505 12.672C128.537 13.888 128.849 14.816 129.441 15.456C130.049 16.08 130.849 16.392 131.841 16.392ZM145.166 18.24C144.142 18.24 143.27 18.016 142.55 17.568C141.846 17.104 141.31 16.464 140.942 15.648C140.574 14.832 140.39 13.896 140.39 12.84V6.072C140.39 5.912 140.438 5.784 140.534 5.688C140.646 5.576 140.782 5.52 140.942 5.52H142.142C142.302 5.52 142.43 5.576 142.526 5.688C142.638 5.784 142.694 5.912 142.694 6.072V12.72C142.694 15.104 143.734 16.296 145.814 16.296C146.806 16.296 147.598 15.984 148.19 15.36C148.798 14.72 149.102 13.84 149.102 12.72V6.072C149.102 5.912 149.15 5.784 149.246 5.688C149.358 5.576 149.494 5.52 149.654 5.52H150.854C151.014 5.52 151.142 5.576 151.238 5.688C151.334 5.784 151.382 5.912 151.382 6.072V17.448C151.382 17.608 151.334 17.744 151.238 17.856C151.142 17.952 151.014 18 150.854 18H149.726C149.566 18 149.43 17.952 149.318 17.856C149.222 17.744 149.174 17.608 149.174 17.448V16.392C148.742 16.952 148.214 17.4 147.59 17.736C146.982 18.072 146.174 18.24 145.166 18.24ZM155.524 22.56C155.364 22.56 155.228 22.504 155.116 22.392C155.02 22.296 154.972 22.168 154.972 22.008V6.072C154.972 5.912 155.02 5.784 155.116 5.688C155.228 5.576 155.364 5.52 155.524 5.52H156.628C156.788 5.52 156.916 5.576 157.012 5.688C157.124 5.784 157.18 5.912 157.18 6.072V7.128C157.564 6.6 158.076 6.16 158.716 5.808C159.356 5.456 160.156 5.28 161.116 5.28C162.012 5.28 162.772 5.432 163.396 5.736C164.036 6.04 164.556 6.456 164.956 6.984C165.372 7.512 165.684 8.112 165.892 8.784C166.1 9.456 166.22 10.176 166.252 10.944C166.268 11.2 166.276 11.472 166.276 11.76C166.276 12.048 166.268 12.32 166.252 12.576C166.22 13.328 166.1 14.048 165.892 14.736C165.684 15.408 165.372 16.008 164.956 16.536C164.556 17.048 164.036 17.464 163.396 17.784C162.772 18.088 162.012 18.24 161.116 18.24C160.188 18.24 159.404 18.072 158.764 17.736C158.14 17.384 157.628 16.952 157.228 16.44V22.008C157.228 22.168 157.18 22.296 157.084 22.392C156.988 22.504 156.86 22.56 156.7 22.56H155.524ZM160.612 16.296C161.444 16.296 162.092 16.12 162.556 15.768C163.036 15.4 163.38 14.928 163.588 14.352C163.796 13.76 163.916 13.128 163.948 12.456C163.964 11.992 163.964 11.528 163.948 11.064C163.916 10.392 163.796 9.768 163.588 9.192C163.38 8.6 163.036 8.128 162.556 7.776C162.092 7.408 161.444 7.224 160.612 7.224C159.828 7.224 159.188 7.408 158.692 7.776C158.212 8.144 157.852 8.616 157.612 9.192C157.388 9.752 157.26 10.328 157.228 10.92C157.212 11.176 157.204 11.48 157.204 11.832C157.204 12.184 157.212 12.496 157.228 12.768C157.244 13.328 157.372 13.88 157.612 14.424C157.868 14.968 158.244 15.416 158.74 15.768C159.236 16.12 159.86 16.296 160.612 16.296Z" fill="black"/>
</svg>
