<svg width="9" height="8" viewBox="0 0 9 8" fill="none" xmlns="http://www.w3.org/2000/svg">
<path d="M6.97001 0.969986C7.11087 0.835875 7.29833 0.761733 7.49282 0.763205C7.68732 0.764677 7.87363 0.841647 8.01245 0.977874C8.15127 1.1141 8.23175 1.29893 8.23689 1.49336C8.24203 1.68779 8.17143 1.87661 8.04001 2.01999L4.05001 7.00999C3.9814 7.08389 3.89859 7.14319 3.80654 7.18435C3.71448 7.22552 3.61508 7.2477 3.51426 7.24956C3.41344 7.25143 3.31328 7.23295 3.21976 7.19522C3.12625 7.15749 3.0413 7.10129 2.97001 7.02999L0.324005 4.38399C0.250318 4.31532 0.191216 4.23252 0.150224 4.14052C0.109232 4.04853 0.0871901 3.94921 0.0854134 3.84851C0.0836366 3.74781 0.102161 3.64778 0.139882 3.55439C0.177603 3.461 0.233748 3.37617 0.304967 3.30495C0.376186 3.23373 0.461019 3.17758 0.554407 3.13986C0.647796 3.10214 0.747825 3.08362 0.848528 3.08539C0.949231 3.08717 1.04854 3.10921 1.14054 3.15021C1.23254 3.1912 1.31534 3.2503 1.384 3.32399L3.47801 5.41699L6.95101 0.991987C6.95726 0.984288 6.96393 0.976943 6.971 0.969986H6.97001Z" fill="white"/>
</svg>
