<svg width="91" height="19" viewBox="0 0 91 19" fill="none" xmlns="http://www.w3.org/2000/svg">
<path opacity="0.5" d="M0.96 18C0.832 18 0.72 17.952 0.624 17.856C0.528 17.76 0.48 17.648 0.48 17.52C0.48 17.44 0.488 17.352 0.504 17.256L6.456 1.728C6.52 1.568 6.608 1.44 6.72 1.344C6.832 1.248 7 1.2 7.224 1.2H8.856C9.08 1.2 9.248 1.248 9.36 1.344C9.472 1.44 9.56 1.568 9.624 1.728L15.552 17.256C15.584 17.352 15.6 17.44 15.6 17.52C15.6 17.648 15.552 17.76 15.456 17.856C15.36 17.952 15.248 18 15.12 18H13.896C13.704 18 13.56 17.952 13.464 17.856C13.384 17.76 13.328 17.672 13.296 17.592L11.976 14.184H4.104L2.784 17.592C2.768 17.672 2.712 17.76 2.616 17.856C2.52 17.952 2.376 18 2.184 18H0.96ZM4.8 12.12H11.28L8.04 3.6L4.8 12.12ZM22.2735 18.24C21.3935 18.24 20.6335 18.088 19.9935 17.784C19.3535 17.464 18.8255 17.04 18.4095 16.512C18.0095 15.968 17.7055 15.352 17.4975 14.664C17.3055 13.976 17.1935 13.248 17.1615 12.48C17.1455 12.224 17.1375 11.984 17.1375 11.76C17.1375 11.536 17.1455 11.296 17.1615 11.04C17.1935 10.288 17.3055 9.568 17.4975 8.88C17.7055 8.192 18.0095 7.576 18.4095 7.032C18.8255 6.488 19.3535 6.064 19.9935 5.76C20.6335 5.44 21.3935 5.28 22.2735 5.28C23.2175 5.28 24.0015 5.448 24.6255 5.784C25.2495 6.12 25.7615 6.536 26.1615 7.032V1.512C26.1615 1.352 26.2095 1.224 26.3055 1.128C26.4175 1.016 26.5535 0.959999 26.7135 0.959999H27.8655C28.0255 0.959999 28.1535 1.016 28.2495 1.128C28.3615 1.224 28.4175 1.352 28.4175 1.512V17.448C28.4175 17.608 28.3615 17.744 28.2495 17.856C28.1535 17.952 28.0255 18 27.8655 18H26.7855C26.6095 18 26.4735 17.952 26.3775 17.856C26.2815 17.744 26.2335 17.608 26.2335 17.448V16.44C25.8335 16.952 25.3135 17.384 24.6735 17.736C24.0335 18.072 23.2335 18.24 22.2735 18.24ZM22.7775 16.296C23.5775 16.296 24.2175 16.112 24.6975 15.744C25.1775 15.376 25.5375 14.912 25.7775 14.352C26.0175 13.776 26.1455 13.192 26.1615 12.6C26.1775 12.344 26.1855 12.04 26.1855 11.688C26.1855 11.32 26.1775 11.008 26.1615 10.752C26.1455 10.192 26.0095 9.64 25.7535 9.096C25.5135 8.552 25.1455 8.104 24.6495 7.752C24.1695 7.4 23.5455 7.224 22.7775 7.224C21.9615 7.224 21.3135 7.408 20.8335 7.776C20.3535 8.128 20.0095 8.6 19.8015 9.192C19.5935 9.768 19.4735 10.392 19.4415 11.064C19.4255 11.528 19.4255 11.992 19.4415 12.456C19.4735 13.128 19.5935 13.76 19.8015 14.352C20.0095 14.928 20.3535 15.4 20.8335 15.768C21.3135 16.12 21.9615 16.296 22.7775 16.296ZM32.8509 18C32.6749 18 32.5389 17.952 32.4429 17.856C32.3469 17.744 32.2989 17.608 32.2989 17.448V1.752C32.2989 1.592 32.3469 1.464 32.4429 1.368C32.5389 1.256 32.6749 1.2 32.8509 1.2H34.1229C34.2989 1.2 34.4349 1.256 34.5309 1.368C34.6269 1.464 34.6749 1.592 34.6749 1.752V17.448C34.6749 17.608 34.6269 17.744 34.5309 17.856C34.4349 17.952 34.2989 18 34.1229 18H32.8509ZM39.1014 18C38.9414 18 38.8054 17.952 38.6934 17.856C38.5974 17.744 38.5494 17.608 38.5494 17.448V6.072C38.5494 5.912 38.5974 5.784 38.6934 5.688C38.8054 5.576 38.9414 5.52 39.1014 5.52H40.2294C40.3894 5.52 40.5174 5.576 40.6134 5.688C40.7254 5.784 40.7814 5.912 40.7814 6.072V7.128C41.1974 6.584 41.7174 6.144 42.3414 5.808C42.9814 5.456 43.7974 5.28 44.7894 5.28C45.8294 5.28 46.7094 5.512 47.4294 5.976C48.1654 6.424 48.7174 7.056 49.0854 7.872C49.4694 8.672 49.6614 9.608 49.6614 10.68V17.448C49.6614 17.608 49.6054 17.744 49.4934 17.856C49.3974 17.952 49.2694 18 49.1094 18H47.9094C47.7494 18 47.6134 17.952 47.5014 17.856C47.4054 17.744 47.3574 17.608 47.3574 17.448V10.8C47.3574 9.68 47.0854 8.808 46.5414 8.184C45.9974 7.544 45.1974 7.224 44.1414 7.224C43.1494 7.224 42.3494 7.544 41.7414 8.184C41.1494 8.808 40.8534 9.68 40.8534 10.8V17.448C40.8534 17.608 40.7974 17.744 40.6854 17.856C40.5894 17.952 40.4614 18 40.3014 18H39.1014ZM57.6641 18.24C56.7841 18.24 56.0241 18.088 55.3841 17.784C54.7441 17.464 54.2161 17.04 53.8001 16.512C53.4001 15.968 53.0961 15.352 52.8881 14.664C52.6961 13.976 52.5841 13.248 52.5521 12.48C52.5361 12.224 52.5281 11.984 52.5281 11.76C52.5281 11.536 52.5361 11.296 52.5521 11.04C52.5841 10.288 52.6961 9.568 52.8881 8.88C53.0961 8.192 53.4001 7.576 53.8001 7.032C54.2161 6.488 54.7441 6.064 55.3841 5.76C56.0241 5.44 56.7841 5.28 57.6641 5.28C58.6081 5.28 59.3921 5.448 60.0161 5.784C60.6401 6.12 61.1521 6.536 61.5521 7.032V1.512C61.5521 1.352 61.6001 1.224 61.6961 1.128C61.8081 1.016 61.9441 0.959999 62.1041 0.959999H63.2561C63.4161 0.959999 63.5441 1.016 63.6401 1.128C63.7521 1.224 63.8081 1.352 63.8081 1.512V17.448C63.8081 17.608 63.7521 17.744 63.6401 17.856C63.5441 17.952 63.4161 18 63.2561 18H62.1761C62.0001 18 61.8641 17.952 61.7681 17.856C61.6721 17.744 61.6241 17.608 61.6241 17.448V16.44C61.2241 16.952 60.7041 17.384 60.0641 17.736C59.4241 18.072 58.6241 18.24 57.6641 18.24ZM58.1681 16.296C58.9681 16.296 59.6081 16.112 60.0881 15.744C60.5681 15.376 60.9281 14.912 61.1681 14.352C61.4081 13.776 61.5361 13.192 61.5521 12.6C61.5681 12.344 61.5761 12.04 61.5761 11.688C61.5761 11.32 61.5681 11.008 61.5521 10.752C61.5361 10.192 61.4001 9.64 61.1441 9.096C60.9041 8.552 60.5361 8.104 60.0401 7.752C59.5601 7.4 58.9361 7.224 58.1681 7.224C57.3521 7.224 56.7041 7.408 56.2241 7.776C55.7441 8.128 55.4001 8.6 55.1921 9.192C54.9841 9.768 54.8641 10.392 54.8321 11.064C54.8161 11.528 54.8161 11.992 54.8321 12.456C54.8641 13.128 54.9841 13.76 55.1921 14.352C55.4001 14.928 55.7441 15.4 56.2241 15.768C56.7041 16.12 57.3521 16.296 58.1681 16.296ZM72.3696 18.24C70.7056 18.24 69.3856 17.736 68.4096 16.728C67.4336 15.704 66.8976 14.312 66.8016 12.552C66.7856 12.344 66.7776 12.08 66.7776 11.76C66.7776 11.424 66.7856 11.152 66.8016 10.944C66.8656 9.808 67.1296 8.816 67.5936 7.968C68.0576 7.104 68.6896 6.44 69.4896 5.976C70.3056 5.512 71.2576 5.28 72.3456 5.28C73.5616 5.28 74.5776 5.536 75.3936 6.048C76.2256 6.56 76.8576 7.288 77.2896 8.232C77.7216 9.176 77.9376 10.28 77.9376 11.544V11.952C77.9376 12.128 77.8816 12.264 77.7696 12.36C77.6736 12.456 77.5456 12.504 77.3856 12.504H69.0816C69.0816 12.52 69.0816 12.552 69.0816 12.6C69.0816 12.648 69.0816 12.688 69.0816 12.72C69.1136 13.376 69.2576 13.992 69.5136 14.568C69.7696 15.128 70.1376 15.584 70.6176 15.936C71.1136 16.288 71.6896 16.464 72.3456 16.464C72.9216 16.464 73.4016 16.376 73.7856 16.2C74.1696 16.024 74.4816 15.832 74.7216 15.624C74.9616 15.4 75.1216 15.224 75.2016 15.096C75.3456 14.904 75.4576 14.792 75.5376 14.76C75.6176 14.712 75.7456 14.688 75.9216 14.688H77.0976C77.2416 14.688 77.3616 14.736 77.4576 14.832C77.5696 14.912 77.6176 15.032 77.6016 15.192C77.5856 15.432 77.4576 15.728 77.2176 16.08C76.9776 16.416 76.6336 16.752 76.1856 17.088C75.7536 17.424 75.2096 17.704 74.5536 17.928C73.9136 18.136 73.1856 18.24 72.3696 18.24ZM69.0816 10.848H75.6576V10.776C75.6576 10.056 75.5216 9.416 75.2496 8.856C74.9936 8.296 74.6176 7.856 74.1216 7.536C73.6256 7.2 73.0336 7.032 72.3456 7.032C71.6576 7.032 71.0656 7.2 70.5696 7.536C70.0896 7.856 69.7216 8.296 69.4656 8.856C69.2096 9.416 69.0816 10.056 69.0816 10.776V10.848ZM79.9734 18C79.8454 18 79.7254 17.952 79.6134 17.856C79.5174 17.76 79.4694 17.64 79.4694 17.496C79.4694 17.448 79.4774 17.392 79.4934 17.328C79.5254 17.248 79.5734 17.16 79.6374 17.064L83.8134 11.616L79.9014 6.456C79.8374 6.36 79.7894 6.28 79.7574 6.216C79.7414 6.152 79.7334 6.088 79.7334 6.024C79.7334 5.88 79.7814 5.76 79.8774 5.664C79.9734 5.568 80.0934 5.52 80.2374 5.52H81.4614C81.6374 5.52 81.7734 5.568 81.8694 5.664C81.9654 5.744 82.0374 5.824 82.0854 5.904L85.2774 10.056L88.4694 5.928C88.5334 5.848 88.6054 5.76 88.6854 5.664C88.7814 5.568 88.9174 5.52 89.0934 5.52H90.2694C90.4134 5.52 90.5334 5.568 90.6294 5.664C90.7254 5.76 90.7734 5.88 90.7734 6.024C90.7734 6.088 90.7574 6.152 90.7254 6.216C90.7094 6.28 90.6694 6.36 90.6054 6.456L86.6454 11.664L90.8214 17.064C90.8854 17.16 90.9254 17.24 90.9414 17.304C90.9734 17.368 90.9894 17.432 90.9894 17.496C90.9894 17.64 90.9414 17.76 90.8454 17.856C90.7494 17.952 90.6294 18 90.4854 18H89.2134C89.0534 18 88.9254 17.96 88.8294 17.88C88.7334 17.8 88.6534 17.72 88.5894 17.64L85.2294 13.248L81.8214 17.64C81.7574 17.704 81.6774 17.784 81.5814 17.88C81.5014 17.96 81.3734 18 81.1974 18H79.9734Z" fill="black"/>
</svg>
