<svg width="65" height="44" viewBox="0 0 65 44" fill="none" xmlns="http://www.w3.org/2000/svg">
<g clip-path="url(#clip0)">
<path d="M29.4734 25.6708C29.4734 24.4725 25.6983 20.992 25.6983 19.943V16.6118C25.6983 11.9109 19.6574 6.84766 13.1537 6.84766C6.14979 6.84766 0.998674 10.0305 0.0666299 17.5041C-0.8213 24.5868 7.33057 29.3348 7.33057 33.0753C7.33057 36.9319 6.42011 40.0226 5.29565 43.9999H18.2326C17.9134 41.8707 17.4704 37.2333 19.0595 35.9097C20.0338 35.0976 21.8059 35.4829 23.7685 35.6055C25.6289 35.7207 26.56 34.4856 26.5891 33.5113C26.6191 32.5176 26.7411 28.437 26.7768 28.0831C26.8613 27.2885 29.4734 26.7981 29.4734 25.6708Z" fill="black"/>
<path d="M19.5044 20.9929C19.5401 20.9528 19.5877 20.9247 19.6405 20.9127C19.6725 20.907 19.7039 20.8983 19.7344 20.8869L19.7672 20.873C19.8273 20.8426 19.8883 20.8131 19.9493 20.7809C21.5891 17.1694 19.5119 13.7543 17.1691 11.8878C14.5616 9.81014 10.4177 8.6349 7.48168 10.966C5.88603 12.2325 4.9202 14.3231 4.6236 17.1768C4.3101 20.1928 5.07038 22.6825 6.81996 24.3766C8.33019 25.8376 10.5641 26.6525 12.9632 26.6525C13.371 26.6522 13.7784 26.6288 14.1834 26.5824L14.0961 25.8505C11.468 26.1519 8.94592 25.4044 7.33807 23.8522C5.75557 22.3202 5.07226 20.0379 5.36135 17.2515C5.63636 14.6005 6.50552 12.6777 7.94348 11.5366C10.5556 9.46633 14.3082 10.5641 16.6876 12.4583C18.8887 14.2097 20.841 17.446 19.1045 20.7919L19.5044 20.9929Z" fill="white"/>
<path d="M18.0018 24.4994C16.4944 24.9677 15.3418 24.1713 14.6688 23.5122C13.1848 22.0586 12.4161 19.3044 12.9934 17.4978C13.2824 16.5889 13.855 16.0543 14.6932 15.9068L14.5693 15.2247C14.5532 15.228 14.5369 15.2298 14.5205 15.2303C14.3833 15.2357 14.2459 15.2277 14.1103 15.2063H14.099C13.1867 15.5096 12.5156 16.2202 12.1871 17.2526C11.5169 19.3551 12.3626 22.4283 14.0728 24.1031C14.9297 24.9419 15.9378 25.3751 16.9937 25.3751C17.4102 25.3734 17.824 25.3088 18.2205 25.1834L18.0018 24.4994Z" fill="#830604"/>
<path d="M14.1873 26.5823L14.1 25.8504C16.531 25.5739 18.596 24.4282 19.4895 22.8639C20.1775 21.661 20.1691 20.2314 19.4651 18.7317C17.2885 14.0934 14.8462 11.8877 12.4011 12.3531C9.80959 12.8463 7.71367 16.4006 7.57194 19.2479L6.82104 19.2119C6.97685 16.0863 9.24736 12.2066 12.2575 11.6305C14.2286 11.2544 17.1909 12.1301 20.1419 18.4238C20.9509 20.1466 20.95 21.8067 20.1419 23.2243C19.1197 25.0172 16.8924 26.2726 14.1873 26.5823Z" fill="#24A3ED"/>
<path d="M9.61336 22.8699C8.82868 22.8699 8.18854 22.6284 7.70703 22.15C7.06408 21.5131 6.75809 20.4973 6.82286 19.2124L7.57375 19.2483C7.52119 20.3065 7.76147 21.1527 8.2411 21.632C8.59965 21.9869 9.10275 22.1556 9.73538 22.1316H9.80296C11.7356 22.0588 15.7557 21.9076 16.8961 20.0954C17.0834 19.792 17.1882 19.4463 17.2002 19.0916C16.4127 19.724 15.2394 20.0733 14.2313 20.1913C12.7098 20.3692 10.6899 20.1157 10.0076 18.8142C9.5195 17.8841 9.7748 17.155 10.077 16.7163C10.7894 15.6645 12.6057 15.0064 14.389 15.1493C15.1944 15.2129 15.8908 15.4369 16.4352 15.7945C16.0606 15.4382 15.6538 15.116 15.2197 14.8322C12.8478 13.2486 9.77574 13.1445 6.99744 14.5557C4.83018 15.6544 3.40818 17.4408 3.37345 19.1073L2.62256 19.0926C2.66198 17.1569 4.24355 15.1226 6.65203 13.9012C9.67718 12.3674 13.0346 12.4891 15.6393 14.2275C17.9858 15.7945 18.2374 17.0711 18.0402 17.8685C18.0042 18.0101 17.9529 18.1476 17.8872 18.2786C18.0449 19.1202 17.9267 19.8585 17.5325 20.4853C16.1818 22.6303 12.05 22.7897 9.83112 22.8699H9.76166H9.61336ZM13.8991 15.8646C12.5343 15.8646 11.2081 16.3734 10.6984 17.1237C10.4168 17.5348 10.4102 17.9772 10.6731 18.4759C11.0832 19.2594 12.478 19.6548 14.1459 19.4594C15.4975 19.3018 16.6145 18.7865 17.0941 18.1404C17.0109 17.8308 16.9007 17.5289 16.7647 17.238C16.4099 16.4711 15.5238 15.9761 14.3308 15.8812C14.1844 15.871 14.0417 15.8655 13.8991 15.8655V15.8646Z" fill="#C6CA6C"/>
<path d="M10.2899 24.3317C9.14481 24.3317 8.08512 24.1741 7.17185 23.8588C3.15551 22.4762 2.59704 20.2741 2.62238 19.0869L3.37327 19.1017C3.33854 20.8088 4.7765 22.2513 7.42245 23.1638C9.04438 23.7233 11.1901 23.7409 13.4606 23.2118L13.6333 23.9326C12.5382 24.1919 11.4163 24.3259 10.2899 24.3317Z" fill="#830604"/>
<path d="M13.6336 23.9326L13.46 23.2164C17.6838 22.2329 21.0337 19.7414 21.6062 17.1587C22.0145 15.3152 21.0787 13.5076 18.8233 11.783C17.8905 11.0611 16.7775 10.5984 15.6004 10.4432C14.4234 10.288 13.2255 10.4461 12.1319 10.9009C10.249 11.6678 8.90491 13.1804 8.70686 14.7547C8.51913 16.212 9.2841 17.6066 10.9051 18.7893L10.4574 19.3801C8.63365 18.05 7.74759 16.3752 7.96253 14.6644C8.19625 12.8034 9.68302 11.1009 11.8437 10.2206C13.0596 9.71406 14.3918 9.5375 15.701 9.70937C17.0101 9.88125 18.2483 10.3952 19.286 11.1977C22.4031 13.5813 22.665 15.8378 22.3421 17.3108C21.6006 20.6364 17.3083 23.0726 13.6336 23.9326Z" fill="#830604"/>
<path d="M35.5256 25.6708C35.5256 24.4725 39.3007 20.992 39.3007 19.943V16.6118C39.3007 11.9109 45.3417 6.84766 51.8453 6.84766C58.8502 6.84766 64.0004 10.0305 64.9324 17.5041C65.8166 24.5868 57.6685 29.3348 57.6685 33.0753C57.6685 36.9319 58.5789 40.0226 59.7034 43.9999H46.7712C47.0903 41.8707 47.5333 37.2333 45.9443 35.9097C44.97 35.0976 43.1979 35.4829 41.2352 35.6055C39.3749 35.7207 38.4438 34.4856 38.4147 33.5113C38.3847 32.5176 38.2626 28.437 38.227 28.0831C38.1378 27.2885 35.5256 26.7981 35.5256 25.6708Z" fill="black"/>
<path d="M60.3762 17.1769C60.0796 14.3194 59.1184 12.2326 57.5181 10.9661C54.5821 8.63865 50.4381 9.81389 47.8306 11.8878C45.4775 13.7618 43.3938 17.1981 45.0721 20.8289C45.1003 20.8272 45.1286 20.8287 45.1565 20.8335C45.3349 20.8657 45.5226 20.8602 45.7084 20.8851L45.8868 20.7929C44.1503 17.4469 46.1027 14.2125 48.3037 12.4593C50.6831 10.5624 54.4357 9.46454 57.0478 11.5376C58.4858 12.6769 59.355 14.5996 59.63 17.2525C59.9191 20.0389 59.2358 22.3221 57.6532 23.8531C56.0492 25.4054 53.5233 26.1529 50.8952 25.8515L50.8079 26.5834C51.213 26.6298 51.6204 26.6532 52.0281 26.6534C54.4272 26.6534 56.6611 25.8386 58.1714 24.3776C59.9294 22.6825 60.6897 20.1928 60.3762 17.1769Z" fill="#830604"/>
<path d="M50.1172 19.5287C49.8122 16.6049 48.531 13.8728 46.1995 11.1767L46.9109 10.584C49.3673 13.4258 50.7198 16.321 51.0408 19.4328L50.1172 19.5287Z" fill="#C6CA6C"/>
<path d="M50.8117 26.5823L50.899 25.8504C48.4679 25.5739 46.403 24.4282 45.5094 22.8639C44.8214 21.661 44.8299 20.2314 45.5348 18.7317C47.7105 14.0934 50.1528 11.8877 52.5978 12.3531C55.1894 12.8463 57.2853 16.4006 57.427 19.2479L58.1779 19.2119C58.0221 16.0863 55.7516 12.2066 52.7414 11.6305C50.7704 11.2544 47.8081 12.1301 44.8571 18.4238C44.0489 20.1466 44.0489 21.8067 44.8571 23.2243C45.8792 25.0172 48.1066 26.2726 50.8117 26.5823Z" fill="white"/>
<path d="M55.3861 22.8699C56.1708 22.8699 56.811 22.6284 57.2925 22.15C57.9354 21.5131 58.2414 20.4973 58.1766 19.2124L57.4257 19.2483C57.4783 20.3065 57.238 21.1527 56.7584 21.632C56.3998 21.9869 55.8967 22.1556 55.2641 22.1316H55.1965C53.2639 22.0588 49.2438 21.9076 48.1034 20.0954C47.9165 19.7918 47.8118 19.4462 47.7993 19.0916C48.5868 19.724 49.7601 20.0733 50.7682 20.1913C52.2896 20.3692 54.3095 20.1157 54.9919 18.8142C55.48 17.8841 55.2238 17.155 54.9225 16.7163C54.2101 15.6645 52.3938 15.0064 50.6105 15.1493C49.8051 15.2129 49.1087 15.4369 48.5643 15.7945C48.9405 15.4381 49.3489 15.116 49.7845 14.8322C52.1564 13.2486 55.2284 13.1445 58.0067 14.5557C60.174 15.6544 61.596 17.4408 61.6307 19.1073L62.3816 19.0926C62.3422 17.1569 60.7606 15.1226 58.3522 13.9012C55.327 12.3674 51.9696 12.4891 49.3649 14.2275C47.0184 15.7945 46.7668 17.0711 46.9639 17.8685C47 18.0101 47.0512 18.1476 47.1169 18.2786C46.9593 19.1202 47.0775 19.8585 47.4717 20.4853C48.8224 22.6303 52.9542 22.7897 55.1684 22.8699H55.2378H55.3861ZM51.1004 15.8646C52.4652 15.8646 53.7914 16.3734 54.3011 17.1237C54.5827 17.5348 54.5892 17.9772 54.3264 18.4759C53.9163 19.2594 52.5215 19.6548 50.8583 19.4594C49.5067 19.3018 48.3897 18.7865 47.9101 18.1404C47.9933 17.8308 48.1035 17.5289 48.2395 17.238C48.5943 16.4711 49.4813 15.9761 50.6734 15.8812C50.8151 15.871 50.9578 15.8655 51.1004 15.8655V15.8646Z" fill="#24A3ED"/>
<path d="M54.7096 24.3317C55.8547 24.3317 56.9144 24.1741 57.8276 23.8588C61.844 22.4762 62.4024 20.2741 62.3771 19.0869L61.6262 19.1017C61.6619 20.8088 60.2183 22.2513 57.578 23.1638C55.9551 23.7233 53.8094 23.7409 51.5389 23.2118L51.3662 23.9326C52.4612 24.1919 53.5832 24.3259 54.7096 24.3317Z" fill="#C6CA6C"/>
<path d="M51.366 23.9324L51.5396 23.2162C47.3159 22.2327 43.9659 19.7412 43.3934 17.1585C42.9851 15.3149 43.9209 13.5074 46.1764 11.7828C47.11 11.061 48.2239 10.5988 49.4017 10.4445C50.5795 10.2901 51.7778 10.4492 52.8715 10.9053C54.7534 11.6722 56.0975 13.1848 56.2956 14.7591C56.4833 16.2164 55.7183 17.611 54.0973 18.7937L54.5451 19.3845C56.3688 18.0544 57.2549 16.3796 57.0399 14.6688C56.8062 12.8078 55.3194 11.1053 53.1587 10.225C51.9428 9.71846 50.6107 9.54189 49.3015 9.71377C47.9923 9.88564 46.7542 10.3996 45.7165 11.2021C42.5993 13.5857 42.3374 15.8422 42.6603 17.3152C43.399 20.6362 47.6913 23.0724 51.366 23.9324Z" fill="#C6CA6C"/>
<path d="M13.0585 10.5421L12.2588 10.0609C14.0731 7.15094 16.5924 5.20604 16.7548 5.08344C21.2215 1.53423 26.8688 -0.263994 32.6064 0.0359487C38.3441 0.335892 43.7651 2.71273 47.8229 6.70758L47.1593 7.35926C43.2666 3.52182 38.0632 1.23839 32.5553 0.950649C27.0475 0.662905 21.6266 2.39129 17.3414 5.80149L17.3329 5.80887C17.3076 5.8273 14.8015 7.74824 13.0585 10.5421Z" fill="#830604"/>
<path d="M46.8447 11.8988C45.2548 9.89011 43.2728 8.21307 41.0148 6.96585C38.7568 5.71864 36.2681 4.9263 33.6944 4.63523C31.1208 4.34416 28.5138 4.56021 26.0263 5.27072C23.5387 5.98123 21.2204 7.17193 19.2072 8.77312L18.6187 8.06245C20.7284 6.38464 23.1577 5.13695 25.7644 4.39239C28.3711 3.64783 31.1029 3.42136 33.7998 3.72624C36.4967 4.03113 39.1046 4.86123 41.4709 6.16797C43.8371 7.47472 45.9142 9.23185 47.5805 11.3365L46.8447 11.8988Z" fill="#C6CA6C"/>
<path d="M21.3606 8.81766L17.5752 9.33661L19.2225 5.95007L21.3606 8.81766Z" fill="#C6CA6C"/>
<path d="M45.4016 7.46536L49.1861 7.98431L47.5398 4.59778L45.4016 7.46536Z" fill="#830604"/>
</g>
<defs>
<clipPath id="clip0">
<rect width="65" height="44" fill="white"/>
</clipPath>
</defs>
</svg>
