<svg width="257" height="39" viewBox="0 0 257 39" fill="none" xmlns="http://www.w3.org/2000/svg">
<path d="M0.224 36.336H3.968C4.904 36.336 5.372 35.868 5.372 34.932V4.044C5.372 3.55866 5.25067 3.212 5.008 3.004C4.8 2.76133 4.45333 2.64 3.968 2.64H0.224V0.975999H15.044V2.64H11.56C11.0747 2.64 10.7107 2.76133 10.468 3.004C10.26 3.212 10.156 3.55866 10.156 4.044V20.164L22.116 7.944C22.5667 7.45867 22.896 6.97333 23.104 6.488C23.312 6.00267 23.416 5.448 23.416 4.824C23.416 4.2 23.1907 3.68 22.74 3.264C22.2893 2.848 21.7347 2.64 21.076 2.64H19.672V0.975999H33.4V2.64H31.32C30.176 2.64 28.616 3.66267 26.64 5.708L17.904 14.548L28.512 34.048C28.9627 34.9147 29.4653 35.5213 30.02 35.868C30.5747 36.18 31.372 36.336 32.412 36.336H34.128V38H18.424V36.336H21.908C22.2893 36.336 22.6187 36.232 22.896 36.024C23.1733 35.7813 23.312 35.5213 23.312 35.244C23.312 35.036 23.2773 34.8107 23.208 34.568C23.1387 34.2907 23.052 34.0827 22.948 33.944L14.472 18.032L10.156 22.4V34.932C10.156 35.868 10.624 36.336 11.56 36.336H15.044V38H0.224V36.336ZM52.9427 38.936C50.0307 38.936 47.4307 38.0173 45.1427 36.18C42.8547 34.3427 41.0693 31.9333 39.7867 28.952C38.504 25.936 37.8627 22.7813 37.8627 19.488C37.8627 16.1947 38.504 13.0573 39.7867 10.076C41.0693 7.06 42.8547 4.63333 45.1427 2.796C47.4307 0.958665 50.0307 0.039999 52.9427 0.039999C55.8547 0.039999 58.4547 0.958665 60.7427 2.796C63.0307 4.63333 64.816 7.06 66.0987 10.076C67.3813 13.0573 68.0227 16.1947 68.0227 19.488C68.0227 22.7813 67.3813 25.936 66.0987 28.952C64.816 31.9333 63.0307 34.3427 60.7427 36.18C58.4547 38.0173 55.8547 38.936 52.9427 38.936ZM52.9427 37.272C56.34 37.272 58.784 35.7293 60.2747 32.644C61.7653 29.524 62.5107 25.1387 62.5107 19.488C62.5107 13.8027 61.7653 9.41733 60.2747 6.332C58.784 3.24667 56.34 1.704 52.9427 1.704C49.5453 1.704 47.1013 3.24667 45.6107 6.332C44.12 9.41733 43.3747 13.8027 43.3747 19.488C43.3747 25.1387 44.12 29.524 45.6107 32.644C47.1013 35.7293 49.5453 37.272 52.9427 37.272ZM81.2928 6.644H81.0848V32.176C81.0848 33.4587 81.3795 34.4813 81.9688 35.244C82.5928 35.972 83.3901 36.336 84.3608 36.336H86.2328V38H73.8568V36.336H75.7288C76.7341 36.336 77.5315 35.972 78.1208 35.244C78.7101 34.4813 79.0048 33.4587 79.0048 32.176V4.044C78.9701 3.55866 78.8488 3.212 78.6408 3.004C78.4328 2.76133 78.0861 2.64 77.6008 2.64H73.8568V0.975999H83.6848L101.729 29.992V6.8C101.729 5.51733 101.434 4.512 100.845 3.784C100.255 3.02133 99.4755 2.64 98.5048 2.64H96.6328V0.975999H109.009V2.64H107.137C106.166 2.64 105.369 3.02133 104.745 3.784C104.121 4.512 103.809 5.51733 103.809 6.8V38.936H101.729L81.2928 6.644ZM128.848 38.936C125.867 38.936 123.267 38.0693 121.048 36.336C118.864 34.568 117.183 32.1933 116.004 29.212C114.86 26.196 114.288 22.8507 114.288 19.176C114.288 15.6747 114.878 12.468 116.056 9.556C117.235 6.644 118.916 4.33867 121.1 2.64C123.284 0.906666 125.832 0.039999 128.744 0.039999C130.27 0.039999 131.708 0.386665 133.06 1.08C134.412 1.77333 135.522 2.51866 136.388 3.316C137.22 4.07866 137.775 4.46 138.052 4.46C138.33 4.46 138.52 4.37333 138.624 4.2C138.763 4.02666 138.902 3.74933 139.04 3.368L140.028 0.455997H141.328L141.536 16.576H140.08C139.318 13.2827 138.33 10.5267 137.116 8.308C135.903 6.05466 134.568 4.39066 133.112 3.316C131.691 2.24133 130.27 1.704 128.848 1.704C126.456 1.704 124.602 2.432 123.284 3.888C121.967 5.30933 121.048 7.30267 120.528 9.868C120.043 12.4333 119.8 15.64 119.8 19.488C119.8 23.336 120.043 26.5427 120.528 29.108C121.048 31.6733 121.967 33.684 123.284 35.14C124.602 36.5613 126.456 37.272 128.848 37.272C130.131 37.272 131.362 36.8213 132.54 35.92C133.719 34.984 134.672 33.8053 135.4 32.384C136.163 30.9627 136.544 29.5587 136.544 28.172V23.492C136.544 23.0067 136.423 22.66 136.18 22.452C135.972 22.2093 135.626 22.088 135.14 22.088H129.368V20.424H146.528V22.088H142.732C142.247 22.088 141.883 22.2093 141.64 22.452C141.432 22.66 141.328 23.0067 141.328 23.492V38.676H139.664V33.944C139.664 33.3547 139.595 32.9213 139.456 32.644C139.318 32.332 139.092 32.176 138.78 32.176C138.399 32.176 138.07 32.3147 137.792 32.592C137.515 32.8693 137.238 33.2507 136.96 33.736C136.163 35.0187 135.036 36.2147 133.58 37.324C132.124 38.3987 130.547 38.936 128.848 38.936ZM178.234 38.624C177.09 38.624 176.12 38.4333 175.322 38.052C174.56 37.6707 173.953 37.0467 173.502 36.18C172.566 34.3773 172.064 31.3093 171.994 26.976C171.96 24.6533 171.544 22.7293 170.746 21.204C169.949 19.644 168.666 18.864 166.898 18.864H161.23V34.932C161.23 35.4173 161.334 35.7813 161.542 36.024C161.75 36.232 162.114 36.336 162.634 36.336H167.262V38H151.298V36.336H155.042C155.978 36.336 156.446 35.868 156.446 34.932V4.044C156.446 3.55866 156.325 3.212 156.082 3.004C155.874 2.76133 155.528 2.64 155.042 2.64H151.298V0.975999H168.354C171.717 0.975999 174.473 1.61733 176.622 2.9C178.772 4.18267 179.846 6.31467 179.846 9.296C179.846 11.8613 178.876 13.924 176.934 15.484C175.028 17.044 172.722 17.9627 170.018 18.24V18.448C171.994 18.8293 173.606 19.748 174.854 21.204C176.137 22.6253 176.986 25.0693 177.402 28.536C177.645 30.512 177.853 31.9507 178.026 32.852C178.234 33.7533 178.477 34.3947 178.754 34.776C179.066 35.1227 179.517 35.296 180.106 35.296C181.597 35.296 182.342 33.424 182.342 29.68H183.642C183.642 31.9333 183.313 33.996 182.654 35.868C181.996 37.7053 180.522 38.624 178.234 38.624ZM166.274 17.2C169.186 17.2 171.249 16.5067 172.462 15.12C173.71 13.6987 174.334 11.7573 174.334 9.296C174.334 7.18133 173.762 5.552 172.618 4.408C171.509 3.22933 169.984 2.64 168.042 2.64H162.634C162.149 2.64 161.785 2.76133 161.542 3.004C161.334 3.212 161.23 3.55866 161.23 4.044V17.2H166.274ZM204.946 38.936C201.826 38.936 199.243 38.3293 197.198 37.116C195.153 35.868 193.645 34.256 192.674 32.28C191.738 30.2693 191.27 28.068 191.27 25.676V4.044C191.27 3.55866 191.149 3.212 190.906 3.004C190.698 2.76133 190.351 2.64 189.866 2.64H186.122V0.975999H201.254V2.64H197.458C196.973 2.64 196.609 2.76133 196.366 3.004C196.158 3.212 196.054 3.55866 196.054 4.044V27.08C196.054 30.304 196.834 32.8173 198.394 34.62C199.954 36.388 202.138 37.272 204.946 37.272C207.13 37.272 209.002 36.8387 210.562 35.972C212.122 35.0707 213.301 33.892 214.098 32.436C214.895 30.98 215.294 29.4027 215.294 27.704V6.852C215.294 5.56933 214.982 4.54666 214.358 3.784C213.734 3.02133 212.937 2.64 211.966 2.64H210.146V0.975999H222.522V2.64H220.702C219.731 2.64 218.934 3.02133 218.31 3.784C217.686 4.54666 217.374 5.56933 217.374 6.852V27.184C217.374 29.368 216.871 31.3613 215.866 33.164C214.895 34.932 213.457 36.336 211.55 37.376C209.678 38.416 207.477 38.936 204.946 38.936ZM227.216 36.336H230.96C231.896 36.336 232.364 35.868 232.364 34.932V4.044C232.364 3.55866 232.243 3.212 232 3.004C231.792 2.76133 231.446 2.64 230.96 2.64H227.216V0.975999H256.232L256.44 13.976H255.14C255.14 13.2827 254.984 12.104 254.672 10.44C254.395 8.776 253.823 7.28533 252.956 5.968C251.5 3.74933 249.455 2.64 246.82 2.64H238.552C238.067 2.64 237.703 2.76133 237.46 3.004C237.252 3.212 237.148 3.55866 237.148 4.044V18.032H241.152C242.92 18.032 244.186 17.1307 244.948 15.328C245.746 13.5253 246.144 11.6013 246.144 9.556H247.496V28.172H246.144C246.144 26.1267 245.746 24.2027 244.948 22.4C244.186 20.5973 242.92 19.696 241.152 19.696H237.148V34.932C237.148 35.868 237.616 36.336 238.552 36.336H246.872C247.878 36.336 248.9 36.1107 249.94 35.66C250.98 35.2093 251.864 34.516 252.592 33.58C253.286 32.6093 253.858 31.396 254.308 29.94C254.759 28.484 255.071 27.1667 255.244 25.988C255.418 24.7747 255.522 23.9947 255.556 23.648H256.856L256.232 38H227.216V36.336Z" fill="#D1B35B"/>
</svg>
