<svg width="67" height="46" viewBox="0 0 67 46" fill="none" xmlns="http://www.w3.org/2000/svg">
<g clip-path="url(#clip0)">
<path d="M30.3803 26.8377C30.3803 25.585 26.4891 21.9462 26.4891 20.8496V17.3669C26.4891 12.4523 20.2623 7.15894 13.5585 7.15894C6.33905 7.15894 1.02943 10.4864 0.0687101 18.2997C-0.84654 25.7044 7.55615 30.6682 7.55615 34.5787C7.55615 38.6107 6.61768 41.8418 5.45863 46H18.7936C18.4647 43.7739 18.008 38.9258 19.646 37.542C20.6502 36.693 22.4769 37.0958 24.4999 37.224C26.4175 37.3444 27.3772 36.0531 27.4072 35.0345C27.4382 33.9957 27.564 29.7296 27.6007 29.3596C27.6878 28.5289 30.3803 28.0163 30.3803 26.8377Z" fill="white"/>
<path d="M20.105 21.9472C20.1418 21.9053 20.1909 21.876 20.2453 21.8634C20.2783 21.8574 20.3107 21.8484 20.342 21.8364L20.3759 21.8219C20.4378 21.7901 20.5007 21.7593 20.5636 21.7256C22.2538 17.95 20.1128 14.3797 17.6979 12.4283C15.0102 10.2562 10.7387 9.02752 7.71236 11.4646C6.06762 12.7887 5.07207 14.9742 4.76634 17.9577C4.4432 21.1108 5.22687 23.7136 7.03028 25.4848C8.58698 27.0122 10.8896 27.8641 13.3625 27.8641C13.7828 27.8638 14.2028 27.8393 14.6203 27.7908L14.5303 27.0257C11.8213 27.3408 9.22166 26.5593 7.56434 24.9365C5.93314 23.3349 5.22881 20.9489 5.52679 18.0358C5.81027 15.2643 6.70617 13.2541 8.18837 12.0611C10.8809 9.89674 14.749 11.0444 17.2016 13.0248C19.4703 14.8557 21.4827 18.2391 19.6929 21.7371L20.105 21.9472Z" fill="white"/>
<path d="M18.5557 25.6129C17.0019 26.1024 15.8138 25.2698 15.1201 24.5808C13.5905 23.0611 12.7981 20.1817 13.3931 18.293C13.6911 17.3428 14.2813 16.7839 15.1453 16.6297L15.0176 15.9166C15.001 15.92 14.9842 15.9219 14.9673 15.9224C14.8258 15.9281 14.6842 15.9197 14.5445 15.8973H14.5329C13.5925 16.2144 12.9007 16.9574 12.5621 18.0367C11.8713 20.2347 12.743 23.4476 14.5058 25.1985C15.3891 26.0754 16.4282 26.5284 17.5166 26.5284C17.946 26.5266 18.3725 26.459 18.7811 26.3279L18.5557 25.6129Z" fill="#830604"/>
<path d="M14.6237 27.7907L14.5337 27.0255C17.0395 26.7364 19.168 25.5386 20.089 23.9033C20.7982 22.6457 20.7895 21.1511 20.0639 19.5832C17.8203 14.7341 15.3028 12.4281 12.7825 12.9148C10.1113 13.4303 7.95085 17.1462 7.80476 20.1229L7.03076 20.0853C7.19137 16.8176 9.53173 12.7615 12.6345 12.1593C14.6662 11.7661 17.7196 12.6816 20.7614 19.2614C21.5954 21.0625 21.5945 22.798 20.7614 24.2801C19.7078 26.1544 17.412 27.4669 14.6237 27.7907Z" fill="#24A3ED"/>
<path d="M9.90878 23.9093C9.09996 23.9093 8.44012 23.6569 7.9438 23.1567C7.28107 22.4908 6.96566 21.4289 7.03242 20.0856L7.80642 20.1231C7.75224 21.2294 7.99991 22.114 8.4943 22.6151C8.86389 22.9862 9.38247 23.1625 10.0346 23.1374H10.1042C12.0963 23.0613 16.2401 22.9033 17.4156 21.0087C17.6087 20.6915 17.7167 20.3301 17.729 19.9593C16.9173 20.6204 15.7079 20.9856 14.6689 21.109C13.1005 21.2949 11.0185 21.0299 10.3151 19.6693C9.81203 18.6969 10.0752 17.9347 10.3867 17.476C11.1211 16.3764 12.9932 15.6884 14.8314 15.8378C15.6615 15.9043 16.3794 16.1384 16.9405 16.5123C16.5545 16.1398 16.1351 15.803 15.6876 15.5063C13.2428 13.8507 10.0762 13.7418 7.21237 15.2172C4.97843 16.3658 3.51267 18.2334 3.47688 19.9757L2.70288 19.9603C2.74352 17.9366 4.37374 15.8098 6.85634 14.533C9.97457 12.9295 13.4353 13.0567 16.1201 14.8741C18.5388 16.5123 18.7981 17.847 18.595 18.6805C18.5578 18.8287 18.505 18.9724 18.4373 19.1094C18.5998 19.9892 18.4779 20.7611 18.0715 21.4164C16.6793 23.6588 12.4204 23.8255 10.1332 23.9093H10.0616H9.90878ZM14.3264 16.5856C12.9196 16.5856 11.5526 17.1175 11.0272 17.9019C10.737 18.3317 10.7302 18.7943 11.0011 19.3156C11.4239 20.1347 12.8616 20.5481 14.5808 20.3438C15.974 20.179 17.1253 19.6403 17.6197 18.9648C17.534 18.6412 17.4204 18.3256 17.2801 18.0214C16.9144 17.2196 16.0011 16.7022 14.7714 16.6029C14.6205 16.5923 14.4734 16.5865 14.3264 16.5865V16.5856Z" fill="#C6CA6C"/>
<path d="M10.6064 25.4377C9.42609 25.4377 8.33379 25.2729 7.39242 24.9433C3.25251 23.4978 2.67685 21.1957 2.70297 19.9545L3.47697 19.9699C3.44117 21.7546 4.92337 23.2627 7.65074 24.2167C9.32257 24.8016 11.5343 24.82 13.8746 24.2668L14.0527 25.0204C12.9239 25.2915 11.7675 25.4315 10.6064 25.4377Z" fill="#830604"/>
<path d="M14.053 25.0204L13.874 24.2717C18.2278 23.2434 21.6807 20.6387 22.2709 17.9385C22.6918 16.0112 21.7272 14.1215 19.4023 12.3185C18.4408 11.5638 17.2936 11.08 16.0803 10.9178C14.867 10.7556 13.6323 10.9208 12.505 11.3963C10.5642 12.198 9.17877 13.7794 8.97463 15.4253C8.78113 16.9489 9.56964 18.4069 11.2405 19.6432L10.779 20.2609C8.89916 18.8704 7.98585 17.1194 8.2074 15.3309C8.44831 13.3853 9.98082 11.6054 12.208 10.6851C13.4613 10.1555 14.8345 9.97094 16.1839 10.1506C17.5334 10.3303 18.8096 10.8677 19.8793 11.7066C23.0923 14.1986 23.3623 16.5576 23.0294 18.0975C22.2651 21.5744 17.8408 24.1213 14.053 25.0204Z" fill="#830604"/>
<path d="M36.6187 26.8377C36.6187 25.585 40.5099 21.9462 40.5099 20.8496V17.3669C40.5099 12.4523 46.7367 7.15894 53.4405 7.15894C60.6609 7.15894 65.9695 10.4864 66.9303 18.2997C67.8416 25.7044 59.4428 30.6682 59.4428 34.5787C59.4428 38.6107 60.3813 41.8418 61.5403 46H48.2102C48.5392 43.7739 48.9958 38.9258 47.3578 37.542C46.3536 36.693 44.527 37.0958 42.5039 37.224C40.5863 37.3444 39.6266 36.0531 39.5966 35.0345C39.5656 33.9957 39.4399 29.7296 39.4031 29.3596C39.3112 28.5289 36.6187 28.0163 36.6187 26.8377Z" fill="white"/>
<path d="M62.2344 17.9576C61.9287 14.9703 60.938 12.7886 59.2884 11.4645C56.2621 9.03132 51.9906 10.26 49.3029 12.4282C46.8774 14.3873 44.7295 17.9798 46.4594 21.7756C46.4885 21.7739 46.5177 21.7755 46.5465 21.7804C46.7303 21.8142 46.9238 21.8084 47.1154 21.8344L47.2992 21.738C45.5093 18.24 47.5217 14.8585 49.7905 13.0257C52.2431 11.0425 56.1111 9.89475 58.8037 12.062C60.2859 13.2531 61.1818 15.2633 61.4653 18.0367C61.7633 20.9498 61.0589 23.3367 59.4277 24.9374C57.7743 26.5602 55.1707 27.3417 52.4618 27.0266L52.3718 27.7917C52.7893 27.8402 53.2092 27.8647 53.6295 27.8649C56.1024 27.8649 58.4051 27.0131 59.9618 25.4857C61.7739 23.7135 62.5576 21.1107 62.2344 17.9576Z" fill="#830604"/>
<path d="M51.6594 20.4161C51.345 17.3594 50.0244 14.5031 47.6211 11.6844L48.3545 11.0648C50.8864 14.0358 52.2806 17.0626 52.6114 20.3159L51.6594 20.4161Z" fill="#C6CA6C"/>
<path d="M52.3753 27.7907L52.4653 27.0255C49.9595 26.7364 47.831 25.5386 46.91 23.9033C46.2008 22.6457 46.2095 21.1511 46.9361 19.5832C49.1787 14.7341 51.6962 12.4281 54.2165 12.9148C56.8877 13.4303 59.0482 17.1462 59.1942 20.1229L59.9682 20.0853C59.8076 16.8176 57.4673 12.7615 54.3645 12.1593C52.3328 11.7661 49.2794 12.6816 46.2376 19.2614C45.4045 21.0625 45.4045 22.798 46.2376 24.2801C47.2912 26.1544 49.587 27.4669 52.3753 27.7907Z" fill="white"/>
<path d="M57.09 23.9093C57.8989 23.9093 58.5587 23.6569 59.055 23.1567C59.7178 22.4908 60.0332 21.4289 59.9664 20.0856L59.1924 20.1231C59.2466 21.2294 58.9989 22.114 58.5045 22.6151C58.1349 22.9862 57.6164 23.1625 56.9643 23.1374H56.8946C54.9025 23.0613 50.7588 22.9033 49.5833 21.0087C49.3905 20.6913 49.2826 20.33 49.2698 19.9593C50.0815 20.6204 51.2909 20.9856 52.33 21.109C53.8983 21.2949 55.9803 21.0299 56.6837 19.6693C57.1868 18.6969 56.9227 17.9347 56.6121 17.476C55.8778 16.3764 54.0057 15.6884 52.1674 15.8378C51.3373 15.9043 50.6194 16.1384 50.0583 16.5123C50.4461 16.1397 50.8671 15.803 51.316 15.5063C53.7609 13.8507 56.9275 13.7418 59.7913 15.2172C62.0252 16.3658 63.491 18.2334 63.5268 19.9757L64.3008 19.9603C64.2601 17.9366 62.6299 15.8098 60.1473 14.533C57.0291 12.9295 53.5684 13.0567 50.8836 14.8741C48.4648 16.5123 48.2055 17.847 48.4087 18.6805C48.4458 18.8287 48.4987 18.9724 48.5664 19.1094C48.4039 19.9892 48.5258 20.7611 48.9321 21.4164C50.3244 23.6588 54.5833 23.8255 56.8656 23.9093H56.9372H57.09ZM52.6725 16.5856C54.0792 16.5856 55.4463 17.1175 55.9716 17.9019C56.2619 18.3317 56.2686 18.7943 55.9977 19.3156C55.5749 20.1347 54.1373 20.5481 52.4229 20.3438C51.0297 20.179 49.8783 19.6403 49.3839 18.9648C49.4697 18.6412 49.5833 18.3256 49.7235 18.0214C50.0893 17.2196 51.0035 16.7022 52.2323 16.6029C52.3783 16.5923 52.5254 16.5865 52.6725 16.5865V16.5856Z" fill="#24A3ED"/>
<path d="M56.3925 25.4377C57.5729 25.4377 58.6652 25.2729 59.6065 24.9433C63.7464 23.4978 64.3221 21.1957 64.296 19.9545L63.522 19.9699C63.5588 21.7546 62.0707 23.2627 59.3492 24.2167C57.6764 24.8016 55.4647 24.82 53.1243 24.2668L52.9463 25.0204C54.075 25.2915 55.2314 25.4315 56.3925 25.4377Z" fill="#C6CA6C"/>
<path d="M52.9462 25.0202L53.1252 24.2715C48.7714 23.2433 45.3184 20.6385 44.7283 17.9384C44.3074 16.011 45.272 14.1213 47.5969 12.3183C48.5593 11.5638 49.7075 11.0806 50.9214 10.9192C52.1354 10.7578 53.3707 10.9242 54.498 11.4009C56.4379 12.2027 57.8233 13.784 58.0275 15.43C58.221 16.9535 57.4324 18.4115 55.7616 19.6479L56.2231 20.2656C58.1029 18.875 59.0162 17.1241 58.7947 15.3355C58.5538 13.3899 57.0213 11.61 54.7941 10.6897C53.5407 10.1602 52.1676 9.97558 50.8182 10.1553C49.4687 10.335 48.1925 10.8723 47.1228 11.7112C43.9098 14.2032 43.6398 16.5623 43.9727 18.1022C44.7341 21.5742 49.1584 24.1212 52.9462 25.0202Z" fill="#C6CA6C"/>
<path d="M13.4603 11.0213L12.636 10.5183C14.5062 7.47606 17.1029 5.44275 17.2703 5.31459C21.8745 1.60405 27.6956 -0.275916 33.6097 0.0376604C39.5239 0.351237 45.1117 2.83611 49.2944 7.01255L48.6104 7.69385C44.5979 3.68198 39.2343 1.29476 33.557 0.993938C27.8797 0.693114 22.2921 2.50006 17.875 6.06527L17.8663 6.07298C17.8401 6.09226 15.2569 8.10051 13.4603 11.0213Z" fill="#830604"/>
<path d="M48.2864 12.4397C46.6476 10.3397 44.6046 8.58644 42.2771 7.28254C39.9496 5.97863 37.3844 5.15028 34.7316 4.84598C32.0787 4.54168 29.3916 4.76755 26.8274 5.51035C24.2633 6.25316 21.8737 7.49798 19.7985 9.17195L19.1919 8.42898C21.3665 6.67491 23.8706 5.3705 26.5575 4.5921C29.2444 3.81369 32.0602 3.57694 34.8401 3.89567C37.62 4.21441 40.3082 5.08225 42.7473 6.44839C45.1863 7.81453 47.3273 9.65153 49.0449 11.8519L48.2864 12.4397Z" fill="#C6CA6C"/>
<path d="M22.0181 9.21839L18.1162 9.76092L19.8142 6.22046L22.0181 9.21839Z" fill="#C6CA6C"/>
<path d="M46.7986 7.80469L50.6995 8.34722L49.0025 4.80676L46.7986 7.80469Z" fill="#830604"/>
</g>
<defs>
<clipPath id="clip0">
<rect width="67" height="46" fill="white"/>
</clipPath>
</defs>
</svg>
