<svg width="529" height="358" viewBox="0 0 529 358" fill="none" xmlns="http://www.w3.org/2000/svg">
<g clip-path="url(#clip0)">
<path d="M60.0951 252.337L79.7795 144.098L77.98 143.007L75.9752 143.324L56.2593 251.721L57.9167 254.186L60.0951 252.337Z" fill="url(#paint0_linear)"/>
<path d="M58.706 259.97L57.38 259.464L54.507 261.314L36.9221 358H38.4059L41.1684 356.372L58.706 259.97Z" fill="url(#paint1_linear)"/>
<path d="M78.7691 138.961L79.8109 139.578L0 0V7.8228L75.2805 139.499L78.7691 138.961Z" fill="url(#paint2_linear)"/>
<path d="M79.7794 144.097L143.031 182.026L60.095 252.337L59.4163 256.066L60.9632 256.667L145.889 184.681L145.778 181.584L149.551 181.41L79.811 139.578L80.4108 140.636L79.7794 144.097Z" fill="url(#paint3_linear)"/>
<path d="M76.3382 141.332L75.2805 139.499L0 150.893V154.828L75.9751 143.323L76.3382 141.332Z" fill="url(#paint4_linear)"/>
<path d="M55.0121 258.563L52.8653 257.742L0 291.862V296.476L54.507 261.313L55.0121 258.563Z" fill="url(#paint5_linear)"/>
<path d="M55.7224 254.676L56.2591 251.72L0 167.993V174.962L52.8337 253.585L55.7224 254.676Z" fill="url(#paint6_linear)"/>
<path d="M149.677 181.473H149.661V181.489L149.677 181.473Z" fill="url(#paint7_linear)"/>
<path d="M60.0947 252.337L57.9163 254.186L56.2589 251.72L55.7222 254.676L59.4159 256.066L60.0947 252.337Z" fill="url(#paint8_linear)"/>
<path d="M60.0947 252.337L57.9163 254.186L56.2589 251.72L55.7222 254.676L59.4159 256.066L60.0947 252.337Z" fill="url(#paint9_linear)"/>
<path d="M54.5068 261.313L57.3798 259.464L55.012 258.563L54.5068 261.313Z" fill="url(#paint10_linear)"/>
<path d="M54.5068 261.313L57.3798 259.464L55.012 258.563L54.5068 261.313Z" fill="url(#paint11_linear)"/>
<path d="M75.2803 139.499L76.3379 141.332L75.9748 143.323L77.9796 143.007L79.7791 144.098L80.4105 140.637L79.8107 139.578L78.7688 138.962L75.2803 139.499Z" fill="url(#paint12_linear)"/>
<path d="M75.2803 139.499L76.3379 141.332L75.9748 143.323L77.9796 143.007L79.7791 144.098L80.4105 140.637L79.8107 139.578L78.7688 138.962L75.2803 139.499Z" fill="url(#paint13_linear)"/>
<path d="M345.716 275.268L393.656 358H398.139L348.415 272.155L345.716 275.268Z" fill="url(#paint14_linear)"/>
<path d="M149.772 290.329L151.603 291.024L152.25 290.645L155.502 294.722L341.059 274.731L344.784 270.416L153.623 291.024L149.661 181.489L145.888 184.681L149.772 290.329Z" fill="url(#paint15_linear)"/>
<path d="M149.662 181.394L149.551 181.41L149.662 181.473V181.394Z" fill="url(#paint16_linear)"/>
<path d="M347.247 270.147L347.152 270.163L347.358 270.337L347.247 270.147Z" fill="url(#paint17_linear)"/>
<path d="M145.889 184.681L149.661 181.489V181.473L149.551 181.41L145.778 181.584L145.889 184.681Z" fill="url(#paint18_linear)"/>
<path d="M145.889 184.681L149.661 181.489V181.473L149.551 181.41L145.778 181.584L145.889 184.681Z" fill="url(#paint19_linear)"/>
<path d="M345.163 274.288L341.059 274.731L269.078 358H274.224L345.716 275.268L345.163 274.288Z" fill="url(#paint20_linear)"/>
<path d="M345.921 269.089L344.784 270.416L347.152 270.163L345.921 269.089Z" fill="url(#paint21_linear)"/>
<path d="M149.945 295.323L149.914 294.548L147.325 293.553L41.1683 356.372L40.8684 358H46.046L151.319 295.702L200.869 358H205.826L155.502 294.722L149.945 295.323Z" fill="url(#paint22_linear)"/>
<path d="M348.857 271.633L347.357 270.337L348.415 272.155L348.857 271.633Z" fill="url(#paint23_linear)"/>
<path d="M38.406 358H40.8685L41.1684 356.372L38.406 358Z" fill="url(#paint24_linear)"/>
<path d="M38.406 358H40.8685L41.1684 356.372L38.406 358Z" fill="url(#paint25_linear)"/>
<path d="M151.603 291.024L152.471 291.356L151.098 294.991L149.914 294.549L149.946 295.323L155.502 294.722L152.25 290.645L151.603 291.024Z" fill="url(#paint26_linear)"/>
<path d="M151.603 291.024L152.471 291.356L151.098 294.991L149.914 294.549L149.946 295.323L155.502 294.722L152.25 290.645L151.603 291.024Z" fill="url(#paint27_linear)"/>
<path d="M345.163 274.288L345.716 275.268L348.415 272.155L347.357 270.337L347.152 270.164L344.784 270.416L341.059 274.731L345.163 274.288Z" fill="url(#paint28_linear)"/>
<path d="M345.163 274.288L345.716 275.268L348.415 272.155L347.357 270.337L347.152 270.164L344.784 270.416L341.059 274.731L345.163 274.288Z" fill="url(#paint29_linear)"/>
<path d="M54.7911 256.509L52.8337 253.585L0 233.546V237.703L52.8653 257.742L54.7911 256.509Z" fill="url(#paint30_linear)"/>
<path d="M149.771 290.329L60.9629 256.667L59.0055 258.327L58.7056 259.97L147.325 293.553L149.835 292.067L149.771 290.329Z" fill="url(#paint31_linear)"/>
<path d="M58.564 258.69L57.3801 259.464L58.7061 259.97L59.006 258.326L58.564 258.69Z" fill="url(#paint32_linear)"/>
<path d="M58.564 258.69L57.3801 259.464L58.7061 259.97L59.006 258.326L58.564 258.69Z" fill="url(#paint33_linear)"/>
<path d="M52.834 253.585L54.7914 256.509L52.8656 257.742L55.0124 258.563L55.7227 254.676L52.834 253.585Z" fill="url(#paint34_linear)"/>
<path d="M52.834 253.585L54.7914 256.509L52.8656 257.742L55.0124 258.563L55.7227 254.676L52.834 253.585Z" fill="url(#paint35_linear)"/>
<path d="M60.963 256.667L59.416 256.066L59.0056 258.326L60.963 256.667Z" fill="url(#paint36_linear)"/>
<path d="M60.963 256.667L59.416 256.066L59.0056 258.326L60.963 256.667Z" fill="url(#paint37_linear)"/>
<path d="M59.0059 258.326L59.4163 256.066L55.7226 254.676L55.0122 258.563L57.38 259.464L58.5639 258.69L59.0059 258.326Z" fill="url(#paint38_linear)"/>
<path d="M59.0059 258.326L59.4163 256.066L55.7226 254.676L55.0122 258.563L57.38 259.464L58.5639 258.69L59.0059 258.326Z" fill="url(#paint39_linear)"/>
<path d="M59.0059 258.326L59.4163 256.066L55.7226 254.676L55.0122 258.563L57.38 259.464L58.5639 258.69L59.0059 258.326Z" fill="url(#paint40_linear)"/>
<path d="M151.603 291.024L149.772 290.329L149.835 292.067L151.603 291.024Z" fill="url(#paint41_linear)"/>
<path d="M151.603 291.024L149.772 290.329L149.835 292.067L151.603 291.024Z" fill="url(#paint42_linear)"/>
<path d="M147.325 293.553L149.914 294.548L149.835 292.067L147.325 293.553Z" fill="url(#paint43_linear)"/>
<path d="M147.325 293.553L149.914 294.548L149.835 292.067L147.325 293.553Z" fill="url(#paint44_linear)"/>
<path d="M152.471 291.356L151.603 291.024L149.835 292.067L149.914 294.548L151.098 294.991L152.471 291.356Z" fill="url(#paint45_linear)"/>
<path d="M152.471 291.356L151.603 291.024L149.835 292.067L149.914 294.548L151.098 294.991L152.471 291.356Z" fill="url(#paint46_linear)"/>
<path d="M152.471 291.356L151.603 291.024L149.835 292.067L149.914 294.548L151.098 294.991L152.471 291.356Z" fill="url(#paint47_linear)"/>
<path d="M409.584 358H420.649L506.664 325.761L524.549 358H529L508.432 320.94L409.584 358Z" fill="url(#paint48_linear)"/>
</g>
<defs>
<linearGradient id="paint0_linear" x1="-21.1996" y1="198.605" x2="80.4109" y2="198.605" gradientUnits="userSpaceOnUse">
<stop offset="0.01" stop-color="#BF9155"/>
<stop offset="0.14" stop-color="#CBA166"/>
<stop offset="0.4" stop-color="#ECCC93"/>
<stop offset="0.51" stop-color="#FBE0A8"/>
<stop offset="1" stop-color="#D5A960"/>
</linearGradient>
<linearGradient id="paint1_linear" x1="-255.635" y1="19509.4" x2="1146.59" y2="19509.4" gradientUnits="userSpaceOnUse">
<stop offset="0.01" stop-color="#BF9155"/>
<stop offset="0.14" stop-color="#CBA166"/>
<stop offset="0.4" stop-color="#ECCC93"/>
<stop offset="0.51" stop-color="#FBE0A8"/>
<stop offset="1" stop-color="#D5A960"/>
</linearGradient>
<linearGradient id="paint2_linear" x1="-1071.86" y1="6163.76" x2="4065.57" y2="6163.76" gradientUnits="userSpaceOnUse">
<stop offset="0.01" stop-color="#BF9155"/>
<stop offset="0.14" stop-color="#CBA166"/>
<stop offset="0.4" stop-color="#ECCC93"/>
<stop offset="0.51" stop-color="#FBE0A8"/>
<stop offset="1" stop-color="#D5A960"/>
</linearGradient>
<linearGradient id="paint3_linear" x1="-1115.04" y1="14819.1" x2="8605.98" y2="14819.1" gradientUnits="userSpaceOnUse">
<stop offset="0.01" stop-color="#BF9155"/>
<stop offset="0.14" stop-color="#CBA166"/>
<stop offset="0.4" stop-color="#ECCC93"/>
<stop offset="0.51" stop-color="#FBE0A8"/>
<stop offset="1" stop-color="#D5A960"/>
</linearGradient>
<linearGradient id="paint4_linear" x1="-994.686" y1="1566.99" x2="7238.38" y2="1566.99" gradientUnits="userSpaceOnUse">
<stop offset="0.01" stop-color="#BF9155"/>
<stop offset="0.14" stop-color="#CBA166"/>
<stop offset="0.4" stop-color="#ECCC93"/>
<stop offset="0.51" stop-color="#FBE0A8"/>
<stop offset="1" stop-color="#D5A960"/>
</linearGradient>
<linearGradient id="paint5_linear" x1="-716.807" y1="7049.87" x2="5216.25" y2="7049.87" gradientUnits="userSpaceOnUse">
<stop offset="0.01" stop-color="#BF9155"/>
<stop offset="0.14" stop-color="#CBA166"/>
<stop offset="0.4" stop-color="#ECCC93"/>
<stop offset="0.51" stop-color="#FBE0A8"/>
<stop offset="1" stop-color="#D5A960"/>
</linearGradient>
<linearGradient id="paint6_linear" x1="-733.056" y1="11760.1" x2="5334.49" y2="11760.1" gradientUnits="userSpaceOnUse">
<stop offset="0.01" stop-color="#BF9155"/>
<stop offset="0.14" stop-color="#CBA166"/>
<stop offset="0.4" stop-color="#ECCC93"/>
<stop offset="0.51" stop-color="#FBE0A8"/>
<stop offset="1" stop-color="#D5A960"/>
</linearGradient>
<linearGradient id="paint7_linear" x1="149.566" y1="183.308" x2="150.676" y2="183.308" gradientUnits="userSpaceOnUse">
<stop offset="0.01" stop-color="#BF9155"/>
<stop offset="0.14" stop-color="#CBA166"/>
<stop offset="0.4" stop-color="#ECCC93"/>
<stop offset="0.51" stop-color="#FBE0A8"/>
<stop offset="1" stop-color="#D5A960"/>
</linearGradient>
<linearGradient id="paint8_linear" x1="-3.00119" y1="949.95" x2="278.46" y2="949.95" gradientUnits="userSpaceOnUse">
<stop offset="0.01" stop-color="#BF9155"/>
<stop offset="0.14" stop-color="#CBA166"/>
<stop offset="0.4" stop-color="#ECCC93"/>
<stop offset="0.51" stop-color="#FBE0A8"/>
<stop offset="1" stop-color="#D5A960"/>
</linearGradient>
<linearGradient id="paint9_linear" x1="-1.20845" y1="949.95" x2="470.284" y2="949.95" gradientUnits="userSpaceOnUse">
<stop offset="0.01" stop-color="#BF9155"/>
<stop offset="0.14" stop-color="#CBA166"/>
<stop offset="0.4" stop-color="#ECCC93"/>
<stop offset="0.51" stop-color="#FBE0A8"/>
<stop offset="1" stop-color="#D5A960"/>
</linearGradient>
<linearGradient id="paint10_linear" x1="15.9234" y1="710.858" x2="200.854" y2="710.858" gradientUnits="userSpaceOnUse">
<stop offset="0.01" stop-color="#BF9155"/>
<stop offset="0.14" stop-color="#CBA166"/>
<stop offset="0.4" stop-color="#ECCC93"/>
<stop offset="0.51" stop-color="#FBE0A8"/>
<stop offset="1" stop-color="#D5A960"/>
</linearGradient>
<linearGradient id="paint11_linear" x1="17.0725" y1="710.858" x2="326.918" y2="710.858" gradientUnits="userSpaceOnUse">
<stop offset="0.01" stop-color="#BF9155"/>
<stop offset="0.14" stop-color="#CBA166"/>
<stop offset="0.4" stop-color="#ECCC93"/>
<stop offset="0.51" stop-color="#FBE0A8"/>
<stop offset="1" stop-color="#D5A960"/>
</linearGradient>
<linearGradient id="paint12_linear" x1="6.32983" y1="598.908" x2="336.615" y2="598.908" gradientUnits="userSpaceOnUse">
<stop offset="0.01" stop-color="#BF9155"/>
<stop offset="0.14" stop-color="#CBA166"/>
<stop offset="0.4" stop-color="#ECCC93"/>
<stop offset="0.51" stop-color="#FBE0A8"/>
<stop offset="1" stop-color="#D5A960"/>
</linearGradient>
<linearGradient id="paint13_linear" x1="8.43323" y1="598.908" x2="561.73" y2="598.908" gradientUnits="userSpaceOnUse">
<stop offset="0.01" stop-color="#BF9155"/>
<stop offset="0.14" stop-color="#CBA166"/>
<stop offset="0.4" stop-color="#ECCC93"/>
<stop offset="0.51" stop-color="#FBE0A8"/>
<stop offset="1" stop-color="#D5A960"/>
</linearGradient>
<linearGradient id="paint14_linear" x1="5187.01" y1="17387.1" x2="13885.6" y2="17387.1" gradientUnits="userSpaceOnUse">
<stop offset="0.01" stop-color="#BF9155"/>
<stop offset="0.14" stop-color="#CBA166"/>
<stop offset="0.4" stop-color="#ECCC93"/>
<stop offset="0.51" stop-color="#FBE0A8"/>
<stop offset="1" stop-color="#D5A960"/>
</linearGradient>
<linearGradient id="paint15_linear" x1="18527.9" y1="17242.3" x2="51530.7" y2="17242.3" gradientUnits="userSpaceOnUse">
<stop offset="0.01" stop-color="#BF9155"/>
<stop offset="0.14" stop-color="#CBA166"/>
<stop offset="0.4" stop-color="#ECCC93"/>
<stop offset="0.51" stop-color="#FBE0A8"/>
<stop offset="1" stop-color="#D5A960"/>
</linearGradient>
<linearGradient id="paint16_linear" x1="159.755" y1="190.467" x2="178.121" y2="190.467" gradientUnits="userSpaceOnUse">
<stop offset="0.01" stop-color="#BF9155"/>
<stop offset="0.14" stop-color="#CBA166"/>
<stop offset="0.4" stop-color="#ECCC93"/>
<stop offset="0.51" stop-color="#FBE0A8"/>
<stop offset="1" stop-color="#D5A960"/>
</linearGradient>
<linearGradient id="paint17_linear" x1="366.112" y1="302.58" x2="400.157" y2="302.58" gradientUnits="userSpaceOnUse">
<stop offset="0.01" stop-color="#BF9155"/>
<stop offset="0.14" stop-color="#CBA166"/>
<stop offset="0.4" stop-color="#ECCC93"/>
<stop offset="0.51" stop-color="#FBE0A8"/>
<stop offset="1" stop-color="#D5A960"/>
</linearGradient>
<linearGradient id="paint18_linear" x1="95.1414" y1="560.297" x2="513.981" y2="560.297" gradientUnits="userSpaceOnUse">
<stop offset="0.01" stop-color="#BF9155"/>
<stop offset="0.14" stop-color="#CBA166"/>
<stop offset="0.4" stop-color="#ECCC93"/>
<stop offset="0.51" stop-color="#FBE0A8"/>
<stop offset="1" stop-color="#D5A960"/>
</linearGradient>
<linearGradient id="paint19_linear" x1="504.39" y1="560.297" x2="1148.8" y2="560.297" gradientUnits="userSpaceOnUse">
<stop offset="0.01" stop-color="#BF9155"/>
<stop offset="0.14" stop-color="#CBA166"/>
<stop offset="0.4" stop-color="#ECCC93"/>
<stop offset="0.51" stop-color="#FBE0A8"/>
<stop offset="1" stop-color="#D5A960"/>
</linearGradient>
<linearGradient id="paint20_linear" x1="2078.5" y1="17020" x2="17206.1" y2="17020" gradientUnits="userSpaceOnUse">
<stop offset="0.01" stop-color="#BF9155"/>
<stop offset="0.14" stop-color="#CBA166"/>
<stop offset="0.4" stop-color="#ECCC93"/>
<stop offset="0.51" stop-color="#FBE0A8"/>
<stop offset="1" stop-color="#D5A960"/>
</linearGradient>
<linearGradient id="paint21_linear" x1="400.712" y1="495.677" x2="868.068" y2="495.677" gradientUnits="userSpaceOnUse">
<stop offset="0.01" stop-color="#BF9155"/>
<stop offset="0.14" stop-color="#CBA166"/>
<stop offset="0.4" stop-color="#ECCC93"/>
<stop offset="0.51" stop-color="#FBE0A8"/>
<stop offset="1" stop-color="#D5A960"/>
</linearGradient>
<linearGradient id="paint22_linear" x1="3935.51" y1="13578.7" x2="36496.4" y2="13578.7" gradientUnits="userSpaceOnUse">
<stop offset="0.01" stop-color="#BF9155"/>
<stop offset="0.14" stop-color="#CBA166"/>
<stop offset="0.4" stop-color="#ECCC93"/>
<stop offset="0.51" stop-color="#FBE0A8"/>
<stop offset="1" stop-color="#D5A960"/>
</linearGradient>
<linearGradient id="paint23_linear" x1="382.718" y1="582.283" x2="678.77" y2="582.283" gradientUnits="userSpaceOnUse">
<stop offset="0.01" stop-color="#BF9155"/>
<stop offset="0.14" stop-color="#CBA166"/>
<stop offset="0.4" stop-color="#ECCC93"/>
<stop offset="0.51" stop-color="#FBE0A8"/>
<stop offset="1" stop-color="#D5A960"/>
</linearGradient>
<linearGradient id="paint24_linear" x1="1.30644" y1="724.282" x2="179.125" y2="724.282" gradientUnits="userSpaceOnUse">
<stop offset="0.01" stop-color="#BF9155"/>
<stop offset="0.14" stop-color="#CBA166"/>
<stop offset="0.4" stop-color="#ECCC93"/>
<stop offset="0.51" stop-color="#FBE0A8"/>
<stop offset="1" stop-color="#D5A960"/>
</linearGradient>
<linearGradient id="paint25_linear" x1="103.627" y1="724.282" x2="648.96" y2="724.282" gradientUnits="userSpaceOnUse">
<stop offset="0.01" stop-color="#BF9155"/>
<stop offset="0.14" stop-color="#CBA166"/>
<stop offset="0.4" stop-color="#ECCC93"/>
<stop offset="0.51" stop-color="#FBE0A8"/>
<stop offset="1" stop-color="#D5A960"/>
</linearGradient>
<linearGradient id="paint26_linear" x1="665.97" y1="1157.87" x2="1593.14" y2="1157.87" gradientUnits="userSpaceOnUse">
<stop offset="0.01" stop-color="#BF9155"/>
<stop offset="0.14" stop-color="#CBA166"/>
<stop offset="0.4" stop-color="#ECCC93"/>
<stop offset="0.51" stop-color="#FBE0A8"/>
<stop offset="1" stop-color="#D5A960"/>
</linearGradient>
<linearGradient id="paint27_linear" x1="281.904" y1="1157.87" x2="1384.87" y2="1157.87" gradientUnits="userSpaceOnUse">
<stop offset="0.01" stop-color="#BF9155"/>
<stop offset="0.14" stop-color="#CBA166"/>
<stop offset="0.4" stop-color="#ECCC93"/>
<stop offset="0.51" stop-color="#FBE0A8"/>
<stop offset="1" stop-color="#D5A960"/>
</linearGradient>
<linearGradient id="paint28_linear" x1="1020.39" y1="1151.02" x2="2240.97" y2="1151.02" gradientUnits="userSpaceOnUse">
<stop offset="0.01" stop-color="#BF9155"/>
<stop offset="0.14" stop-color="#CBA166"/>
<stop offset="0.4" stop-color="#ECCC93"/>
<stop offset="0.51" stop-color="#FBE0A8"/>
<stop offset="1" stop-color="#D5A960"/>
</linearGradient>
<linearGradient id="paint29_linear" x1="514.735" y1="1151.02" x2="1966.74" y2="1151.02" gradientUnits="userSpaceOnUse">
<stop offset="0.01" stop-color="#BF9155"/>
<stop offset="0.14" stop-color="#CBA166"/>
<stop offset="0.4" stop-color="#ECCC93"/>
<stop offset="0.51" stop-color="#FBE0A8"/>
<stop offset="1" stop-color="#D5A960"/>
</linearGradient>
<linearGradient id="paint30_linear" x1="-229.575" y1="3994.47" x2="5292.27" y2="3994.47" gradientUnits="userSpaceOnUse">
<stop offset="0.01" stop-color="#BF9155"/>
<stop offset="0.14" stop-color="#CBA166"/>
<stop offset="0.4" stop-color="#ECCC93"/>
<stop offset="0.51" stop-color="#FBE0A8"/>
<stop offset="1" stop-color="#D5A960"/>
</linearGradient>
<linearGradient id="paint31_linear" x1="-323.125" y1="6677.74" x2="8860.86" y2="6677.74" gradientUnits="userSpaceOnUse">
<stop offset="0.01" stop-color="#BF9155"/>
<stop offset="0.14" stop-color="#CBA166"/>
<stop offset="0.4" stop-color="#ECCC93"/>
<stop offset="0.51" stop-color="#FBE0A8"/>
<stop offset="1" stop-color="#D5A960"/>
</linearGradient>
<linearGradient id="paint32_linear" x1="35.5443" y1="527.841" x2="140.203" y2="527.841" gradientUnits="userSpaceOnUse">
<stop offset="0.01" stop-color="#BF9155"/>
<stop offset="0.14" stop-color="#CBA166"/>
<stop offset="0.4" stop-color="#ECCC93"/>
<stop offset="0.51" stop-color="#FBE0A8"/>
<stop offset="1" stop-color="#D5A960"/>
</linearGradient>
<linearGradient id="paint33_linear" x1="50.5676" y1="527.841" x2="214.442" y2="527.841" gradientUnits="userSpaceOnUse">
<stop offset="0.01" stop-color="#BF9155"/>
<stop offset="0.14" stop-color="#CBA166"/>
<stop offset="0.4" stop-color="#ECCC93"/>
<stop offset="0.51" stop-color="#FBE0A8"/>
<stop offset="1" stop-color="#D5A960"/>
</linearGradient>
<linearGradient id="paint34_linear" x1="15.2227" y1="1060.19" x2="326.714" y2="1060.19" gradientUnits="userSpaceOnUse">
<stop offset="0.01" stop-color="#BF9155"/>
<stop offset="0.14" stop-color="#CBA166"/>
<stop offset="0.4" stop-color="#ECCC93"/>
<stop offset="0.51" stop-color="#FBE0A8"/>
<stop offset="1" stop-color="#D5A960"/>
</linearGradient>
<linearGradient id="paint35_linear" x1="40.7591" y1="1060.19" x2="331.827" y2="1060.19" gradientUnits="userSpaceOnUse">
<stop offset="0.01" stop-color="#BF9155"/>
<stop offset="0.14" stop-color="#CBA166"/>
<stop offset="0.4" stop-color="#ECCC93"/>
<stop offset="0.51" stop-color="#FBE0A8"/>
<stop offset="1" stop-color="#D5A960"/>
</linearGradient>
<linearGradient id="paint36_linear" x1="33.4814" y1="623.873" x2="244.624" y2="623.873" gradientUnits="userSpaceOnUse">
<stop offset="0.01" stop-color="#BF9155"/>
<stop offset="0.14" stop-color="#CBA166"/>
<stop offset="0.4" stop-color="#ECCC93"/>
<stop offset="0.51" stop-color="#FBE0A8"/>
<stop offset="1" stop-color="#D5A960"/>
</linearGradient>
<linearGradient id="paint37_linear" x1="50.8042" y1="623.873" x2="248.089" y2="623.873" gradientUnits="userSpaceOnUse">
<stop offset="0.01" stop-color="#BF9155"/>
<stop offset="0.14" stop-color="#CBA166"/>
<stop offset="0.4" stop-color="#ECCC93"/>
<stop offset="0.51" stop-color="#FBE0A8"/>
<stop offset="1" stop-color="#D5A960"/>
</linearGradient>
<linearGradient id="paint38_linear" x1="-4.0911" y1="1033.57" x2="279.358" y2="1033.57" gradientUnits="userSpaceOnUse">
<stop offset="0.01" stop-color="#BF9155"/>
<stop offset="0.14" stop-color="#CBA166"/>
<stop offset="0.4" stop-color="#ECCC93"/>
<stop offset="0.51" stop-color="#FBE0A8"/>
<stop offset="1" stop-color="#D5A960"/>
</linearGradient>
<linearGradient id="paint39_linear" x1="-2.32945" y1="1033.57" x2="472.523" y2="1033.57" gradientUnits="userSpaceOnUse">
<stop offset="0.01" stop-color="#BF9155"/>
<stop offset="0.14" stop-color="#CBA166"/>
<stop offset="0.4" stop-color="#ECCC93"/>
<stop offset="0.51" stop-color="#FBE0A8"/>
<stop offset="1" stop-color="#D5A960"/>
</linearGradient>
<linearGradient id="paint40_linear" x1="36.647" y1="1033.57" x2="480.362" y2="1033.57" gradientUnits="userSpaceOnUse">
<stop offset="0.01" stop-color="#BF9155"/>
<stop offset="0.14" stop-color="#CBA166"/>
<stop offset="0.4" stop-color="#ECCC93"/>
<stop offset="0.51" stop-color="#FBE0A8"/>
<stop offset="1" stop-color="#D5A960"/>
</linearGradient>
<linearGradient id="paint41_linear" x1="318.872" y1="610.647" x2="622.796" y2="610.647" gradientUnits="userSpaceOnUse">
<stop offset="0.01" stop-color="#BF9155"/>
<stop offset="0.14" stop-color="#CBA166"/>
<stop offset="0.4" stop-color="#ECCC93"/>
<stop offset="0.51" stop-color="#FBE0A8"/>
<stop offset="1" stop-color="#D5A960"/>
</linearGradient>
<linearGradient id="paint42_linear" x1="142.045" y1="610.647" x2="326.636" y2="610.647" gradientUnits="userSpaceOnUse">
<stop offset="0.01" stop-color="#BF9155"/>
<stop offset="0.14" stop-color="#CBA166"/>
<stop offset="0.4" stop-color="#ECCC93"/>
<stop offset="0.51" stop-color="#FBE0A8"/>
<stop offset="1" stop-color="#D5A960"/>
</linearGradient>
<linearGradient id="paint43_linear" x1="208.447" y1="752.573" x2="719.451" y2="752.573" gradientUnits="userSpaceOnUse">
<stop offset="0.01" stop-color="#BF9155"/>
<stop offset="0.14" stop-color="#CBA166"/>
<stop offset="0.4" stop-color="#ECCC93"/>
<stop offset="0.51" stop-color="#FBE0A8"/>
<stop offset="1" stop-color="#D5A960"/>
</linearGradient>
<linearGradient id="paint44_linear" x1="136.504" y1="752.573" x2="397.378" y2="752.573" gradientUnits="userSpaceOnUse">
<stop offset="0.01" stop-color="#BF9155"/>
<stop offset="0.14" stop-color="#CBA166"/>
<stop offset="0.4" stop-color="#ECCC93"/>
<stop offset="0.51" stop-color="#FBE0A8"/>
<stop offset="1" stop-color="#D5A960"/>
</linearGradient>
<linearGradient id="paint45_linear" x1="393.284" y1="1026.5" x2="830.674" y2="1026.5" gradientUnits="userSpaceOnUse">
<stop offset="0.01" stop-color="#BF9155"/>
<stop offset="0.14" stop-color="#CBA166"/>
<stop offset="0.4" stop-color="#ECCC93"/>
<stop offset="0.51" stop-color="#FBE0A8"/>
<stop offset="1" stop-color="#D5A960"/>
</linearGradient>
<linearGradient id="paint46_linear" x1="212.101" y1="1026.5" x2="732.425" y2="1026.5" gradientUnits="userSpaceOnUse">
<stop offset="0.01" stop-color="#BF9155"/>
<stop offset="0.14" stop-color="#CBA166"/>
<stop offset="0.4" stop-color="#ECCC93"/>
<stop offset="0.51" stop-color="#FBE0A8"/>
<stop offset="1" stop-color="#D5A960"/>
</linearGradient>
<linearGradient id="paint47_linear" x1="138.816" y1="1026.5" x2="404.461" y2="1026.5" gradientUnits="userSpaceOnUse">
<stop offset="0.01" stop-color="#BF9155"/>
<stop offset="0.14" stop-color="#CBA166"/>
<stop offset="0.4" stop-color="#ECCC93"/>
<stop offset="0.51" stop-color="#FBE0A8"/>
<stop offset="1" stop-color="#D5A960"/>
</linearGradient>
<linearGradient id="paint48_linear" x1="17427.1" y1="6797.65" x2="18554.6" y2="1781.27" gradientUnits="userSpaceOnUse">
<stop offset="0.01" stop-color="#BF9155"/>
<stop offset="0.14" stop-color="#CBA166"/>
<stop offset="0.4" stop-color="#ECCC93"/>
<stop offset="0.51" stop-color="#FBE0A8"/>
<stop offset="1" stop-color="#D5A960"/>
</linearGradient>
<clipPath id="clip0">
<rect width="529" height="358" fill="white"/>
</clipPath>
</defs>
</svg>
