<svg width="580" height="521" viewBox="0 0 580 521" fill="none" xmlns="http://www.w3.org/2000/svg">
<g clip-path="url(#clip0)">
<path d="M469.593 4.81424L508.285 155.161L510.567 157.081L511.642 153.867L472.049 0H469.811L472.093 2.70528L469.593 4.81424Z" fill="url(#paint0_linear)"/>
<path d="M512.558 165.357L548.488 223.244L551.25 220.932L516.584 165.066L512.863 162.986L512.558 165.357Z" fill="url(#paint1_linear)"/>
<path d="M469.753 0H468.358L468.605 0.974484L469.753 0Z" fill="url(#paint2_linear)"/>
<path d="M550.393 226.313L580 274.019V267.241L553.154 224L550.393 226.313Z" fill="url(#paint3_linear)"/>
<path d="M513.009 159.132L513.314 159.394L513.27 159.728L516.584 165.066L577.471 199.115L580 197.006V196.424L513.59 159.292L567.485 0H563.721L511.642 153.867L513.009 159.132Z" fill="url(#paint4_linear)"/>
<path d="M509.331 160.717L509.244 160.964L509.491 161.109L509.52 160.877L509.331 160.717Z" fill="url(#paint5_linear)"/>
<path d="M512.863 162.986L516.584 165.066L513.27 159.728L513.198 160.353L512.863 162.986Z" fill="url(#paint6_linear)"/>
<path d="M512.863 162.986L516.584 165.066L513.27 159.728L513.198 160.353L512.863 162.986Z" fill="url(#paint7_linear)"/>
<path d="M511.642 153.867L510.567 157.081L513.009 159.132L511.642 153.867Z" fill="url(#paint8_linear)"/>
<path d="M511.642 153.867L510.567 157.081L513.009 159.132L511.642 153.867Z" fill="url(#paint9_linear)"/>
<path d="M577.471 199.115L551.25 220.932L553.154 224.001L580 201.66V198.475L579.128 200.031L577.471 199.115Z" fill="url(#paint10_linear)"/>
<path d="M486.977 338.539L486.89 338.698L487.006 338.655L486.962 338.626L486.977 338.539Z" fill="url(#paint11_linear)"/>
<path d="M550.378 226.313H550.392L548.488 223.244L547.558 224.015L491.715 329.579L490.799 336.793L491.337 337.113L580 305.435V301.61L494.491 332.052L550.378 226.313Z" fill="url(#paint12_linear)"/>
<path d="M550.393 226.313L553.154 224L551.25 220.932L548.489 223.244L550.393 226.313Z" fill="url(#paint13_linear)"/>
<path d="M550.393 226.313L553.154 224L551.25 220.932L548.489 223.244L550.393 226.313Z" fill="url(#paint14_linear)"/>
<path d="M579.128 200.031L580 198.475V197.006L577.471 199.115L579.128 200.031Z" fill="url(#paint15_linear)"/>
<path d="M579.128 200.031L580 198.475V197.006L577.471 199.115L579.128 200.031Z" fill="url(#paint16_linear)"/>
<path d="M394.709 63.036L396.599 61.4507L307.268 0.21814L304.244 2.64708L393.372 63.5887L395.087 63.5014L394.709 63.036Z" fill="url(#paint17_linear)"/>
<path d="M405.654 53.8439L429.317 0H425.407L399.462 59.0363L405.654 53.8439Z" fill="url(#paint18_linear)"/>
<path d="M399.68 63.5304L399.898 63.7195L400.93 64.5922L402.398 61.2469L399.68 63.5304Z" fill="url(#paint19_linear)"/>
<path d="M469.593 4.81425L468.605 0.974487L405.654 53.8439L402.398 61.2471L469.593 4.81425Z" fill="url(#paint20_linear)"/>
<path d="M399.462 59.0363L396.599 61.4506L397.98 62.396L399.462 59.0363Z" fill="url(#paint21_linear)"/>
<path d="M469.593 4.81424L472.093 2.70528L469.811 0H469.753L468.605 0.974484L469.593 4.81424Z" fill="url(#paint22_linear)"/>
<path d="M469.593 4.81424L472.093 2.70528L469.811 0H469.753L468.605 0.974484L469.593 4.81424Z" fill="url(#paint23_linear)"/>
<path d="M395.087 63.5014L399.36 63.2687L399.68 63.5305L402.398 61.247L405.654 53.8439L399.462 59.0363L397.979 62.3961L396.598 61.4507L394.709 63.036L395.087 63.5014Z" fill="url(#paint24_linear)"/>
<path d="M395.087 63.5014L399.36 63.2687L399.68 63.5305L402.398 61.247L405.654 53.8439L399.462 59.0363L397.979 62.3961L396.598 61.4507L394.709 63.036L395.087 63.5014Z" fill="url(#paint25_linear)"/>
<path d="M512.558 165.357L510.145 161.473L509.491 161.11L487.108 337.477L486.977 338.539L491.715 329.579L512.558 165.357Z" fill="url(#paint26_linear)"/>
<path d="M307.529 0H306.948L307.267 0.218168L307.529 0Z" fill="url(#paint27_linear)"/>
<path d="M580 521V515.269L527.137 449.237L580 405.458V400.818L522.151 448.728L580 521Z" fill="url(#paint28_linear)"/>
<path d="M210.712 76.897L213.125 76.7806L398.14 66.9194L509.331 160.717L509.549 160.063L508.285 155.161L400.93 64.5923L399.52 67.7921L393.372 63.5887L216.439 73.0136L304.244 2.64711L303.241 1.96351L306.41 0H291.235L300.291 1.22174L212.166 71.85L198.183 0H194.535L208.619 72.33L10.7122 0H0L207.384 75.6898L210.712 76.897Z" fill="url(#paint29_linear)"/>
<path d="M487.006 338.655L580 395.815V391.626L491.337 337.113L487.006 338.655Z" fill="url(#paint30_linear)"/>
<path d="M510.567 157.081L508.285 155.161L509.549 160.063L509.724 159.554L510.567 157.081Z" fill="url(#paint31_linear)"/>
<path d="M510.567 157.081L508.285 155.161L509.549 160.063L509.724 159.554L510.567 157.081Z" fill="url(#paint32_linear)"/>
<path d="M510.146 161.474L512.558 165.357L512.863 162.986L510.146 161.474Z" fill="url(#paint33_linear)"/>
<path d="M510.146 161.474L512.558 165.357L512.863 162.986L510.146 161.474Z" fill="url(#paint34_linear)"/>
<path d="M513.27 159.728L513.314 159.394L513.009 159.132L513.081 159.423L513.27 159.728Z" fill="url(#paint35_linear)"/>
<path d="M513.27 159.728L513.314 159.394L513.009 159.132L513.081 159.423L513.27 159.728Z" fill="url(#paint36_linear)"/>
<path d="M509.753 160.848L509.68 160.586L509.549 160.063L509.331 160.717L509.52 160.877L509.491 161.11L510.145 161.473L509.753 160.848Z" fill="url(#paint37_linear)"/>
<path d="M509.753 160.848L509.68 160.586L509.549 160.063L509.331 160.717L509.52 160.877L509.491 161.11L510.145 161.473L509.753 160.848Z" fill="url(#paint38_linear)"/>
<path d="M509.753 160.848L510.145 161.474L512.863 162.986L513.198 160.354L513.27 159.728L513.081 159.423L513.009 159.132L510.567 157.081L509.724 159.554L509.55 160.063L509.68 160.586L509.753 160.848Z" fill="url(#paint39_linear)"/>
<path d="M509.753 160.848L510.145 161.474L512.863 162.986L513.198 160.354L513.27 159.728L513.081 159.423L513.009 159.132L510.567 157.081L509.724 159.554L509.55 160.063L509.68 160.586L509.753 160.848Z" fill="url(#paint40_linear)"/>
<path d="M509.753 160.848L510.145 161.474L512.863 162.986L513.198 160.354L513.27 159.728L513.081 159.423L513.009 159.132L510.567 157.081L509.724 159.554L509.55 160.063L509.68 160.586L509.753 160.848Z" fill="url(#paint41_linear)"/>
<path d="M490.8 336.793L491.715 329.579L486.977 338.539L486.962 338.626L487.006 338.655L491.337 337.113L490.8 336.793Z" fill="url(#paint42_linear)"/>
<path d="M490.8 336.793L491.715 329.579L486.977 338.539L486.962 338.626L487.006 338.655L491.337 337.113L490.8 336.793Z" fill="url(#paint43_linear)"/>
<path d="M399.68 63.5307L397.006 65.7705L395.087 63.5016L393.372 63.5889L399.52 67.7922L400.93 64.5924L399.898 63.7198L399.68 63.5307Z" fill="url(#paint44_linear)"/>
<path d="M399.68 63.5307L397.006 65.7705L395.087 63.5016L393.372 63.5889L399.52 67.7922L400.93 64.5924L399.898 63.7198L399.68 63.5307Z" fill="url(#paint45_linear)"/>
<path d="M304.244 2.64711L307.267 0.218168L306.948 0H306.41L303.241 1.96351L304.244 2.64711Z" fill="url(#paint46_linear)"/>
<path d="M304.244 2.64711L307.267 0.218168L306.948 0H306.41L303.241 1.96351L304.244 2.64711Z" fill="url(#paint47_linear)"/>
<path d="M395.087 63.5015L397.006 65.7705L399.68 63.5306L399.361 63.2688L395.087 63.5015Z" fill="url(#paint48_linear)"/>
<path d="M395.087 63.5015L397.006 65.7705L399.68 63.5306L399.361 63.2688L395.087 63.5015Z" fill="url(#paint49_linear)"/>
<path d="M395.087 63.5015L397.006 65.7705L399.68 63.5306L399.361 63.2688L395.087 63.5015Z" fill="url(#paint50_linear)"/>
</g>
<defs>
<linearGradient id="paint0_linear" x1="464.622" y1="78.5405" x2="590.552" y2="78.5405" gradientUnits="userSpaceOnUse">
<stop offset="0.01" stop-color="#BF9155"/>
<stop offset="0.14" stop-color="#CBA166"/>
<stop offset="0.4" stop-color="#ECCC93"/>
<stop offset="0.51" stop-color="#FBE0A8"/>
<stop offset="1" stop-color="#D5A960"/>
</linearGradient>
<linearGradient id="paint1_linear" x1="12880.8" y1="8163.45" x2="16233.1" y2="8163.45" gradientUnits="userSpaceOnUse">
<stop offset="0.01" stop-color="#BF9155"/>
<stop offset="0.14" stop-color="#CBA166"/>
<stop offset="0.4" stop-color="#ECCC93"/>
<stop offset="0.51" stop-color="#FBE0A8"/>
<stop offset="1" stop-color="#D5A960"/>
</linearGradient>
<linearGradient id="paint2_linear" x1="914.397" y1="0.32158" x2="1035.26" y2="0.32158" gradientUnits="userSpaceOnUse">
<stop offset="0.01" stop-color="#BF9155"/>
<stop offset="0.14" stop-color="#CBA166"/>
<stop offset="0.4" stop-color="#ECCC93"/>
<stop offset="0.51" stop-color="#FBE0A8"/>
<stop offset="1" stop-color="#D5A960"/>
</linearGradient>
<linearGradient id="paint3_linear" x1="10014.7" y1="8787.7" x2="12579.9" y2="8787.7" gradientUnits="userSpaceOnUse">
<stop offset="0.01" stop-color="#BF9155"/>
<stop offset="0.14" stop-color="#CBA166"/>
<stop offset="0.4" stop-color="#ECCC93"/>
<stop offset="0.51" stop-color="#FBE0A8"/>
<stop offset="1" stop-color="#D5A960"/>
</linearGradient>
<linearGradient id="paint4_linear" x1="24461.4" y1="13629.4" x2="27830.1" y2="13629.4" gradientUnits="userSpaceOnUse">
<stop offset="0.01" stop-color="#BF9155"/>
<stop offset="0.14" stop-color="#CBA166"/>
<stop offset="0.4" stop-color="#ECCC93"/>
<stop offset="0.51" stop-color="#FBE0A8"/>
<stop offset="1" stop-color="#D5A960"/>
</linearGradient>
<linearGradient id="paint5_linear" x1="605.848" y1="204.081" x2="619.43" y2="204.081" gradientUnits="userSpaceOnUse">
<stop offset="0.01" stop-color="#BF9155"/>
<stop offset="0.14" stop-color="#CBA166"/>
<stop offset="0.4" stop-color="#ECCC93"/>
<stop offset="0.51" stop-color="#FBE0A8"/>
<stop offset="1" stop-color="#D5A960"/>
</linearGradient>
<linearGradient id="paint6_linear" x1="1702.3" y1="755.752" x2="2024.65" y2="755.752" gradientUnits="userSpaceOnUse">
<stop offset="0.01" stop-color="#BF9155"/>
<stop offset="0.14" stop-color="#CBA166"/>
<stop offset="0.4" stop-color="#ECCC93"/>
<stop offset="0.51" stop-color="#FBE0A8"/>
<stop offset="1" stop-color="#D5A960"/>
</linearGradient>
<linearGradient id="paint7_linear" x1="1816.53" y1="755.752" x2="1999.87" y2="755.752" gradientUnits="userSpaceOnUse">
<stop offset="0.01" stop-color="#BF9155"/>
<stop offset="0.14" stop-color="#CBA166"/>
<stop offset="0.4" stop-color="#ECCC93"/>
<stop offset="0.51" stop-color="#FBE0A8"/>
<stop offset="1" stop-color="#D5A960"/>
</linearGradient>
<linearGradient id="paint8_linear" x1="1291.14" y1="720.392" x2="1502.68" y2="720.392" gradientUnits="userSpaceOnUse">
<stop offset="0.01" stop-color="#BF9155"/>
<stop offset="0.14" stop-color="#CBA166"/>
<stop offset="0.4" stop-color="#ECCC93"/>
<stop offset="0.51" stop-color="#FBE0A8"/>
<stop offset="1" stop-color="#D5A960"/>
</linearGradient>
<linearGradient id="paint9_linear" x1="1366.11" y1="720.392" x2="1486.42" y2="720.392" gradientUnits="userSpaceOnUse">
<stop offset="0.01" stop-color="#BF9155"/>
<stop offset="0.14" stop-color="#CBA166"/>
<stop offset="0.4" stop-color="#ECCC93"/>
<stop offset="0.51" stop-color="#FBE0A8"/>
<stop offset="1" stop-color="#D5A960"/>
</linearGradient>
<linearGradient id="paint10_linear" x1="10181.9" y1="3905.57" x2="12324.1" y2="3905.57" gradientUnits="userSpaceOnUse">
<stop offset="0.01" stop-color="#BF9155"/>
<stop offset="0.14" stop-color="#CBA166"/>
<stop offset="0.4" stop-color="#ECCC93"/>
<stop offset="0.51" stop-color="#FBE0A8"/>
<stop offset="1" stop-color="#D5A960"/>
</linearGradient>
<linearGradient id="paint11_linear" x1="525.767" y1="375.711" x2="534.405" y2="375.711" gradientUnits="userSpaceOnUse">
<stop offset="0.01" stop-color="#BF9155"/>
<stop offset="0.14" stop-color="#CBA166"/>
<stop offset="0.4" stop-color="#ECCC93"/>
<stop offset="0.51" stop-color="#FBE0A8"/>
<stop offset="1" stop-color="#D5A960"/>
</linearGradient>
<linearGradient id="paint12_linear" x1="30371.2" y1="22157.9" x2="37017.6" y2="22157.9" gradientUnits="userSpaceOnUse">
<stop offset="0.01" stop-color="#BF9155"/>
<stop offset="0.14" stop-color="#CBA166"/>
<stop offset="0.4" stop-color="#ECCC93"/>
<stop offset="0.51" stop-color="#FBE0A8"/>
<stop offset="1" stop-color="#D5A960"/>
</linearGradient>
<linearGradient id="paint13_linear" x1="2039.93" y1="1048.34" x2="2444.17" y2="1048.34" gradientUnits="userSpaceOnUse">
<stop offset="0.01" stop-color="#BF9155"/>
<stop offset="0.14" stop-color="#CBA166"/>
<stop offset="0.4" stop-color="#ECCC93"/>
<stop offset="0.51" stop-color="#FBE0A8"/>
<stop offset="1" stop-color="#D5A960"/>
</linearGradient>
<linearGradient id="paint14_linear" x1="2111.41" y1="1048.34" x2="2459" y2="1048.34" gradientUnits="userSpaceOnUse">
<stop offset="0.01" stop-color="#BF9155"/>
<stop offset="0.14" stop-color="#CBA166"/>
<stop offset="0.4" stop-color="#ECCC93"/>
<stop offset="0.51" stop-color="#FBE0A8"/>
<stop offset="1" stop-color="#D5A960"/>
</linearGradient>
<linearGradient id="paint15_linear" x1="1463.55" y1="609.923" x2="1588.18" y2="609.923" gradientUnits="userSpaceOnUse">
<stop offset="0.01" stop-color="#BF9155"/>
<stop offset="0.14" stop-color="#CBA166"/>
<stop offset="0.4" stop-color="#ECCC93"/>
<stop offset="0.51" stop-color="#FBE0A8"/>
<stop offset="1" stop-color="#D5A960"/>
</linearGradient>
<linearGradient id="paint16_linear" x1="1424.63" y1="609.923" x2="1613.09" y2="609.923" gradientUnits="userSpaceOnUse">
<stop offset="0.01" stop-color="#BF9155"/>
<stop offset="0.14" stop-color="#CBA166"/>
<stop offset="0.4" stop-color="#ECCC93"/>
<stop offset="0.51" stop-color="#FBE0A8"/>
<stop offset="1" stop-color="#D5A960"/>
</linearGradient>
<linearGradient id="paint17_linear" x1="19572.2" y1="1389.93" x2="28608.2" y2="1389.93" gradientUnits="userSpaceOnUse">
<stop offset="0.01" stop-color="#BF9155"/>
<stop offset="0.14" stop-color="#CBA166"/>
<stop offset="0.4" stop-color="#ECCC93"/>
<stop offset="0.51" stop-color="#FBE0A8"/>
<stop offset="1" stop-color="#D5A960"/>
</linearGradient>
<linearGradient id="paint18_linear" x1="6628.04" y1="1198.44" x2="9549.02" y2="1198.44" gradientUnits="userSpaceOnUse">
<stop offset="0.01" stop-color="#BF9155"/>
<stop offset="0.14" stop-color="#CBA166"/>
<stop offset="0.4" stop-color="#ECCC93"/>
<stop offset="0.51" stop-color="#FBE0A8"/>
<stop offset="1" stop-color="#D5A960"/>
</linearGradient>
<linearGradient id="paint19_linear" x1="966.74" y1="205.962" x2="1232.67" y2="205.962" gradientUnits="userSpaceOnUse">
<stop offset="0.01" stop-color="#BF9155"/>
<stop offset="0.14" stop-color="#CBA166"/>
<stop offset="0.4" stop-color="#ECCC93"/>
<stop offset="0.51" stop-color="#FBE0A8"/>
<stop offset="1" stop-color="#D5A960"/>
</linearGradient>
<linearGradient id="paint20_linear" x1="18649.8" y1="1290.2" x2="22227.2" y2="1290.2" gradientUnits="userSpaceOnUse">
<stop offset="0.01" stop-color="#BF9155"/>
<stop offset="0.14" stop-color="#CBA166"/>
<stop offset="0.4" stop-color="#ECCC93"/>
<stop offset="0.51" stop-color="#FBE0A8"/>
<stop offset="1" stop-color="#D5A960"/>
</linearGradient>
<linearGradient id="paint21_linear" x1="1174.18" y1="199.307" x2="1326.59" y2="199.307" gradientUnits="userSpaceOnUse">
<stop offset="0.01" stop-color="#BF9155"/>
<stop offset="0.14" stop-color="#CBA166"/>
<stop offset="0.4" stop-color="#ECCC93"/>
<stop offset="0.51" stop-color="#FBE0A8"/>
<stop offset="1" stop-color="#D5A960"/>
</linearGradient>
<linearGradient id="paint22_linear" x1="1583.7" y1="7.9435" x2="1885.9" y2="7.9435" gradientUnits="userSpaceOnUse">
<stop offset="0.01" stop-color="#BF9155"/>
<stop offset="0.14" stop-color="#CBA166"/>
<stop offset="0.4" stop-color="#ECCC93"/>
<stop offset="0.51" stop-color="#FBE0A8"/>
<stop offset="1" stop-color="#D5A960"/>
</linearGradient>
<linearGradient id="paint23_linear" x1="1415.91" y1="7.9435" x2="1601.63" y2="7.9435" gradientUnits="userSpaceOnUse">
<stop offset="0.01" stop-color="#BF9155"/>
<stop offset="0.14" stop-color="#CBA166"/>
<stop offset="0.4" stop-color="#ECCC93"/>
<stop offset="0.51" stop-color="#FBE0A8"/>
<stop offset="1" stop-color="#D5A960"/>
</linearGradient>
<linearGradient id="paint24_linear" x1="2678.11" y1="444.701" x2="3748.94" y2="444.701" gradientUnits="userSpaceOnUse">
<stop offset="0.01" stop-color="#BF9155"/>
<stop offset="0.14" stop-color="#CBA166"/>
<stop offset="0.4" stop-color="#ECCC93"/>
<stop offset="0.51" stop-color="#FBE0A8"/>
<stop offset="1" stop-color="#D5A960"/>
</linearGradient>
<linearGradient id="paint25_linear" x1="3366.86" y1="444.701" x2="3949.56" y2="444.701" gradientUnits="userSpaceOnUse">
<stop offset="0.01" stop-color="#BF9155"/>
<stop offset="0.14" stop-color="#CBA166"/>
<stop offset="0.4" stop-color="#ECCC93"/>
<stop offset="0.51" stop-color="#FBE0A8"/>
<stop offset="1" stop-color="#D5A960"/>
</linearGradient>
<linearGradient id="paint26_linear" x1="424.302" y1="30636.3" x2="10927.8" y2="30636.3" gradientUnits="userSpaceOnUse">
<stop offset="0.01" stop-color="#BF9155"/>
<stop offset="0.14" stop-color="#CBA166"/>
<stop offset="0.4" stop-color="#ECCC93"/>
<stop offset="0.51" stop-color="#FBE0A8"/>
<stop offset="1" stop-color="#D5A960"/>
</linearGradient>
<linearGradient id="paint27_linear" x1="305.558" y1="0.0152715" x2="544.22" y2="0.0152715" gradientUnits="userSpaceOnUse">
<stop offset="0.01" stop-color="#BF9155"/>
<stop offset="0.14" stop-color="#CBA166"/>
<stop offset="0.4" stop-color="#ECCC93"/>
<stop offset="0.51" stop-color="#FBE0A8"/>
<stop offset="1" stop-color="#D5A960"/>
</linearGradient>
<linearGradient id="paint28_linear" x1="381" y1="38486.3" x2="24132.6" y2="38486.3" gradientUnits="userSpaceOnUse">
<stop offset="0.01" stop-color="#BF9155"/>
<stop offset="0.14" stop-color="#CBA166"/>
<stop offset="0.4" stop-color="#ECCC93"/>
<stop offset="0.51" stop-color="#FBE0A8"/>
<stop offset="1" stop-color="#D5A960"/>
</linearGradient>
<linearGradient id="paint29_linear" x1="-1243.3" y1="8879.62" x2="207967" y2="8879.62" gradientUnits="userSpaceOnUse">
<stop offset="0.01" stop-color="#BF9155"/>
<stop offset="0.14" stop-color="#CBA166"/>
<stop offset="0.4" stop-color="#ECCC93"/>
<stop offset="0.51" stop-color="#FBE0A8"/>
<stop offset="1" stop-color="#D5A960"/>
</linearGradient>
<linearGradient id="paint30_linear" x1="260.1" y1="15127.6" x2="38441.7" y2="15127.6" gradientUnits="userSpaceOnUse">
<stop offset="0.01" stop-color="#BF9155"/>
<stop offset="0.14" stop-color="#CBA166"/>
<stop offset="0.4" stop-color="#ECCC93"/>
<stop offset="0.51" stop-color="#FBE0A8"/>
<stop offset="1" stop-color="#D5A960"/>
</linearGradient>
<linearGradient id="paint31_linear" x1="1237.73" y1="686.288" x2="1435.44" y2="686.288" gradientUnits="userSpaceOnUse">
<stop offset="0.01" stop-color="#BF9155"/>
<stop offset="0.14" stop-color="#CBA166"/>
<stop offset="0.4" stop-color="#ECCC93"/>
<stop offset="0.51" stop-color="#FBE0A8"/>
<stop offset="1" stop-color="#D5A960"/>
</linearGradient>
<linearGradient id="paint32_linear" x1="502.74" y1="686.288" x2="1439.64" y2="686.288" gradientUnits="userSpaceOnUse">
<stop offset="0.01" stop-color="#BF9155"/>
<stop offset="0.14" stop-color="#CBA166"/>
<stop offset="0.4" stop-color="#ECCC93"/>
<stop offset="0.51" stop-color="#FBE0A8"/>
<stop offset="1" stop-color="#D5A960"/>
</linearGradient>
<linearGradient id="paint33_linear" x1="1378.95" y1="597.773" x2="1614.49" y2="597.773" gradientUnits="userSpaceOnUse">
<stop offset="0.01" stop-color="#BF9155"/>
<stop offset="0.14" stop-color="#CBA166"/>
<stop offset="0.4" stop-color="#ECCC93"/>
<stop offset="0.51" stop-color="#FBE0A8"/>
<stop offset="1" stop-color="#D5A960"/>
</linearGradient>
<linearGradient id="paint34_linear" x1="503.378" y1="597.773" x2="1619.49" y2="597.773" gradientUnits="userSpaceOnUse">
<stop offset="0.01" stop-color="#BF9155"/>
<stop offset="0.14" stop-color="#CBA166"/>
<stop offset="0.4" stop-color="#ECCC93"/>
<stop offset="0.51" stop-color="#FBE0A8"/>
<stop offset="1" stop-color="#D5A960"/>
</linearGradient>
<linearGradient id="paint35_linear" x1="619.952" y1="224.5" x2="635.027" y2="224.5" gradientUnits="userSpaceOnUse">
<stop offset="0.01" stop-color="#BF9155"/>
<stop offset="0.14" stop-color="#CBA166"/>
<stop offset="0.4" stop-color="#ECCC93"/>
<stop offset="0.51" stop-color="#FBE0A8"/>
<stop offset="1" stop-color="#D5A960"/>
</linearGradient>
<linearGradient id="paint36_linear" x1="512.011" y1="224.5" x2="637.628" y2="224.5" gradientUnits="userSpaceOnUse">
<stop offset="0.01" stop-color="#BF9155"/>
<stop offset="0.14" stop-color="#CBA166"/>
<stop offset="0.4" stop-color="#ECCC93"/>
<stop offset="0.51" stop-color="#FBE0A8"/>
<stop offset="1" stop-color="#D5A960"/>
</linearGradient>
<linearGradient id="paint37_linear" x1="794.501" y1="316" x2="834.604" y2="316" gradientUnits="userSpaceOnUse">
<stop offset="0.01" stop-color="#BF9155"/>
<stop offset="0.14" stop-color="#CBA166"/>
<stop offset="0.4" stop-color="#ECCC93"/>
<stop offset="0.51" stop-color="#FBE0A8"/>
<stop offset="1" stop-color="#D5A960"/>
</linearGradient>
<linearGradient id="paint38_linear" x1="507.419" y1="316" x2="841.522" y2="316" gradientUnits="userSpaceOnUse">
<stop offset="0.01" stop-color="#BF9155"/>
<stop offset="0.14" stop-color="#CBA166"/>
<stop offset="0.4" stop-color="#ECCC93"/>
<stop offset="0.51" stop-color="#FBE0A8"/>
<stop offset="1" stop-color="#D5A960"/>
</linearGradient>
<linearGradient id="paint39_linear" x1="1698.97" y1="806.818" x2="2021.31" y2="806.818" gradientUnits="userSpaceOnUse">
<stop offset="0.01" stop-color="#BF9155"/>
<stop offset="0.14" stop-color="#CBA166"/>
<stop offset="0.4" stop-color="#ECCC93"/>
<stop offset="0.51" stop-color="#FBE0A8"/>
<stop offset="1" stop-color="#D5A960"/>
</linearGradient>
<linearGradient id="paint40_linear" x1="1813.2" y1="806.818" x2="1996.53" y2="806.818" gradientUnits="userSpaceOnUse">
<stop offset="0.01" stop-color="#BF9155"/>
<stop offset="0.14" stop-color="#CBA166"/>
<stop offset="0.4" stop-color="#ECCC93"/>
<stop offset="0.51" stop-color="#FBE0A8"/>
<stop offset="1" stop-color="#D5A960"/>
</linearGradient>
<linearGradient id="paint41_linear" x1="500.582" y1="806.818" x2="2028.19" y2="806.818" gradientUnits="userSpaceOnUse">
<stop offset="0.01" stop-color="#BF9155"/>
<stop offset="0.14" stop-color="#CBA166"/>
<stop offset="0.4" stop-color="#ECCC93"/>
<stop offset="0.51" stop-color="#FBE0A8"/>
<stop offset="1" stop-color="#D5A960"/>
</linearGradient>
<linearGradient id="paint42_linear" x1="2079.09" y1="2414.47" x2="2433.23" y2="2414.47" gradientUnits="userSpaceOnUse">
<stop offset="0.01" stop-color="#BF9155"/>
<stop offset="0.14" stop-color="#CBA166"/>
<stop offset="0.4" stop-color="#ECCC93"/>
<stop offset="0.51" stop-color="#FBE0A8"/>
<stop offset="1" stop-color="#D5A960"/>
</linearGradient>
<linearGradient id="paint43_linear" x1="475.223" y1="2414.47" x2="2426.86" y2="2414.47" gradientUnits="userSpaceOnUse">
<stop offset="0.01" stop-color="#BF9155"/>
<stop offset="0.14" stop-color="#CBA166"/>
<stop offset="0.4" stop-color="#ECCC93"/>
<stop offset="0.51" stop-color="#FBE0A8"/>
<stop offset="1" stop-color="#D5A960"/>
</linearGradient>
<linearGradient id="paint44_linear" x1="1970.23" y1="257.138" x2="2709.71" y2="257.138" gradientUnits="userSpaceOnUse">
<stop offset="0.01" stop-color="#BF9155"/>
<stop offset="0.14" stop-color="#CBA166"/>
<stop offset="0.4" stop-color="#ECCC93"/>
<stop offset="0.51" stop-color="#FBE0A8"/>
<stop offset="1" stop-color="#D5A960"/>
</linearGradient>
<linearGradient id="paint45_linear" x1="375.006" y1="257.138" x2="3478.15" y2="257.138" gradientUnits="userSpaceOnUse">
<stop offset="0.01" stop-color="#BF9155"/>
<stop offset="0.14" stop-color="#CBA166"/>
<stop offset="0.4" stop-color="#ECCC93"/>
<stop offset="0.51" stop-color="#FBE0A8"/>
<stop offset="1" stop-color="#D5A960"/>
</linearGradient>
<linearGradient id="paint46_linear" x1="1143.22" y1="2.40887" x2="1537.19" y2="2.40887" gradientUnits="userSpaceOnUse">
<stop offset="0.01" stop-color="#BF9155"/>
<stop offset="0.14" stop-color="#CBA166"/>
<stop offset="0.4" stop-color="#ECCC93"/>
<stop offset="0.51" stop-color="#FBE0A8"/>
<stop offset="1" stop-color="#D5A960"/>
</linearGradient>
<linearGradient id="paint47_linear" x1="293.377" y1="2.40888" x2="1946.53" y2="2.40888" gradientUnits="userSpaceOnUse">
<stop offset="0.01" stop-color="#BF9155"/>
<stop offset="0.14" stop-color="#CBA166"/>
<stop offset="0.4" stop-color="#ECCC93"/>
<stop offset="0.51" stop-color="#FBE0A8"/>
<stop offset="1" stop-color="#D5A960"/>
</linearGradient>
<linearGradient id="paint48_linear" x1="1353.33" y1="174.243" x2="1802.71" y2="174.243" gradientUnits="userSpaceOnUse">
<stop offset="0.01" stop-color="#BF9155"/>
<stop offset="0.14" stop-color="#CBA166"/>
<stop offset="0.4" stop-color="#ECCC93"/>
<stop offset="0.51" stop-color="#FBE0A8"/>
<stop offset="1" stop-color="#D5A960"/>
</linearGradient>
<linearGradient id="paint49_linear" x1="1642.37" y1="174.243" x2="1886.9" y2="174.243" gradientUnits="userSpaceOnUse">
<stop offset="0.01" stop-color="#BF9155"/>
<stop offset="0.14" stop-color="#CBA166"/>
<stop offset="0.4" stop-color="#ECCC93"/>
<stop offset="0.51" stop-color="#FBE0A8"/>
<stop offset="1" stop-color="#D5A960"/>
</linearGradient>
<linearGradient id="paint50_linear" x1="383.88" y1="174.243" x2="2269.64" y2="174.243" gradientUnits="userSpaceOnUse">
<stop offset="0.01" stop-color="#BF9155"/>
<stop offset="0.14" stop-color="#CBA166"/>
<stop offset="0.4" stop-color="#ECCC93"/>
<stop offset="0.51" stop-color="#FBE0A8"/>
<stop offset="1" stop-color="#D5A960"/>
</linearGradient>
<clipPath id="clip0">
<rect width="580" height="521" fill="white"/>
</clipPath>
</defs>
</svg>
