<svg width="12" height="13" viewBox="0 0 12 13" fill="none" xmlns="http://www.w3.org/2000/svg">
<path fill-rule="evenodd" clip-rule="evenodd" d="M6.00027 13C5.80136 13 5.61059 12.921 5.46994 12.7803C5.32929 12.6397 5.25027 12.4489 5.25027 12.25L5.25027 3.5605L2.03127 6.781C1.96154 6.85073 1.87876 6.90605 1.78765 6.94379C1.69654 6.98152 1.59889 7.00095 1.50027 7.00095C1.40165 7.00095 1.304 6.98152 1.21289 6.94379C1.12179 6.90605 1.039 6.85073 0.96927 6.781C0.899537 6.71127 0.844223 6.62849 0.806485 6.53738C0.768746 6.44627 0.749323 6.34862 0.749323 6.25C0.749323 6.15139 0.768746 6.05373 0.806485 5.96263C0.844223 5.87152 0.899537 5.78873 0.96927 5.719L5.46927 1.219C5.53894 1.14916 5.6217 1.09374 5.71282 1.05593C5.80394 1.01812 5.90162 0.99866 6.00027 0.99866C6.09892 0.99866 6.1966 1.01812 6.28772 1.05593C6.37884 1.09374 6.4616 1.14916 6.53127 1.219L11.0313 5.719C11.101 5.78873 11.1563 5.87152 11.1941 5.96262C11.2318 6.05373 11.2512 6.15138 11.2512 6.25C11.2512 6.34862 11.2318 6.44627 11.1941 6.53738C11.1563 6.62848 11.101 6.71127 11.0313 6.781C10.8904 6.92183 10.6994 7.00095 10.5003 7.00095C10.4017 7.00095 10.304 6.98152 10.2129 6.94379C10.1218 6.90605 10.039 6.85073 9.96927 6.781L6.75027 3.5605L6.75027 12.25C6.75027 12.4489 6.67125 12.6397 6.5306 12.7803C6.38995 12.921 6.19918 13 6.00027 13Z" fill="white" fill-opacity="0.6"/>
</svg>
